<svg width="24" height="24" viewBox="0 0 24 24" fill="none" xmlns="http://www.w3.org/2000/svg">
<path fill-rule="evenodd" clip-rule="evenodd" d="M0 12V24H12H24V12V0H12H0V12ZM14.8326 2.84337C14.8326 2.95046 14.9528 2.98795 15.2961 2.98795C15.6395 2.98795 15.7597 3.02545 15.7597 3.13253C15.7597 3.21205 15.8292 3.27711 15.9142 3.27711C15.9991 3.27711 16.0687 3.34217 16.0687 3.42169C16.0687 3.5012 16.1382 3.56626 16.2232 3.56626C16.3082 3.56626 16.3777 3.63133 16.3777 3.71084C16.3777 3.80723 16.4807 3.85542 16.6867 3.85542C16.8927 3.85542 16.9957 3.90361 16.9957 4C16.9957 4.07952 17.0652 4.14458 17.1502 4.14458C17.2352 4.14458 17.3047 4.20964 17.3047 4.28916C17.3047 4.36867 17.3742 4.43373 17.4592 4.43373C17.5442 4.43373 17.6137 4.4988 17.6137 4.57831C17.6137 4.6747 17.7167 4.72289 17.9227 4.72289C18.1288 4.72289 18.2318 4.77108 18.2318 4.86747C18.2318 4.94699 18.3013 5.01205 18.3863 5.01205C18.4712 5.01205 18.5408 5.07711 18.5408 5.15663C18.5408 5.23614 18.6103 5.3012 18.6953 5.3012C18.7803 5.3012 18.8498 5.36626 18.8498 5.44578C18.8498 5.5253 18.9193 5.59036 19.0043 5.59036C19.0893 5.59036 19.1588 5.65542 19.1588 5.73494C19.1588 5.81446 19.2283 5.87952 19.3133 5.87952C19.4163 5.87952 19.4678 5.9759 19.4678 6.16867C19.4678 6.36145 19.5193 6.45783 19.6223 6.45783C19.7253 6.45783 19.7768 6.55422 19.7768 6.74699C19.7768 6.93976 19.8283 7.03614 19.9313 7.03614C20.0572 7.03614 20.0858 7.19682 20.0858 7.90361C20.0858 8.61041 20.0572 8.77108 19.9313 8.77108C19.8283 8.77108 19.7768 8.86747 19.7768 9.06024C19.7768 9.25301 19.7253 9.3494 19.6223 9.3494C19.5193 9.3494 19.4678 9.44578 19.4678 9.63855C19.4678 9.83132 19.4163 9.92771 19.3133 9.92771C19.1931 9.92771 19.1588 10.0562 19.1588 10.506C19.1588 10.9559 19.1245 11.0843 19.0043 11.0843C18.8899 11.0843 18.8498 11.1968 18.8498 11.5181C18.8498 11.8393 18.8097 11.9518 18.6953 11.9518C18.5751 11.9518 18.5408 12.0803 18.5408 12.5301C18.5408 12.98 18.5065 13.1084 18.3863 13.1084C18.2604 13.1084 18.2318 13.2691 18.2318 13.9759C18.2318 14.6827 18.2031 14.8434 18.0773 14.8434C17.957 14.8434 17.9227 14.9719 17.9227 15.4217C17.9227 15.8715 17.8884 16 17.7682 16C17.6833 16 17.6137 16.0651 17.6137 16.1446C17.6137 16.2241 17.5442 16.2892 17.4592 16.2892C17.3562 16.2892 17.3047 16.3855 17.3047 16.5783C17.3047 16.7711 17.2532 16.8675 17.1502 16.8675C17.0472 16.8675 16.9957 16.9639 16.9957 17.1566C16.9957 17.3494 16.9442 17.4458 16.8412 17.4458C16.7382 17.4458 16.6867 17.5422 16.6867 17.7349C16.6867 17.9277 16.6352 18.0241 16.5322 18.0241C16.4292 18.0241 16.3777 18.1205 16.3777 18.3133C16.3777 18.506 16.3262 18.6024 16.2232 18.6024C16.1202 18.6024 16.0687 18.6988 16.0687 18.8916C16.0687 19.0843 16.0172 19.1807 15.9142 19.1807C15.8292 19.1807 15.7597 19.2458 15.7597 19.3253C15.7597 19.4048 15.6901 19.4699 15.6052 19.4699C15.5202 19.4699 15.4506 19.5349 15.4506 19.6145C15.4506 19.7215 15.3304 19.759 14.9871 19.759C14.6438 19.759 14.5236 19.7215 14.5236 19.6145C14.5236 19.5074 14.4034 19.4699 14.0601 19.4699C13.7168 19.4699 13.5966 19.4324 13.5966 19.3253C13.5966 19.2289 13.4936 19.1807 13.2876 19.1807C13.0815 19.1807 12.9785 19.2289 12.9785 19.3253C12.9785 19.4048 12.909 19.4699 12.824 19.4699C12.7391 19.4699 12.6695 19.5349 12.6695 19.6145C12.6695 19.694 12.6 19.759 12.515 19.759C12.43 19.759 12.3605 19.8241 12.3605 19.9036C12.3605 19.9831 12.291 20.0482 12.206 20.0482C12.121 20.0482 12.0515 20.1133 12.0515 20.1928C12.0515 20.2999 11.9313 20.3373 11.588 20.3373C11.2447 20.3373 11.1245 20.3748 11.1245 20.4819C11.1245 20.5614 11.0549 20.6265 10.97 20.6265C10.885 20.6265 10.8155 20.6916 10.8155 20.7711C10.8155 20.8506 10.7459 20.9157 10.6609 20.9157C10.576 20.9157 10.5064 20.9807 10.5064 21.0602C10.5064 21.1398 10.4369 21.2048 10.3519 21.2048C10.267 21.2048 10.1974 21.2699 10.1974 21.3494C10.1974 21.4289 10.1279 21.494 10.0429 21.494C9.95794 21.494 9.88841 21.559 9.88841 21.6386C9.88841 21.7349 9.78541 21.7831 9.5794 21.7831C9.37339 21.7831 9.27039 21.8313 9.27039 21.9277C9.27039 22.0482 9.06438 22.0723 8.03433 22.0723C7.00429 22.0723 6.79828 22.0482 6.79828 21.9277C6.79828 21.8152 6.66098 21.7831 6.18026 21.7831C5.69954 21.7831 5.56223 21.751 5.56223 21.6386C5.56223 21.5315 5.44203 21.494 5.09871 21.494C4.7554 21.494 4.63519 21.4565 4.63519 21.3494C4.63519 21.2423 4.51499 21.2048 4.17167 21.2048C3.82836 21.2048 3.70815 21.1673 3.70815 21.0602C3.70815 20.9639 3.60515 20.9157 3.39914 20.9157C3.19313 20.9157 3.09013 20.8675 3.09013 20.7711C3.09013 20.6916 3.0206 20.6265 2.93562 20.6265C2.85064 20.6265 2.78112 20.5614 2.78112 20.4819C2.78112 20.4024 2.71159 20.3373 2.62661 20.3373C2.49548 20.3373 2.4721 20.0964 2.4721 18.747C2.4721 17.3976 2.44872 17.1566 2.3176 17.1566C2.23262 17.1566 2.16309 17.0916 2.16309 17.012C2.16309 16.9325 2.09356 16.8675 2.00858 16.8675C1.90558 16.8675 1.85408 16.7711 1.85408 16.5783C1.85408 16.3855 1.80258 16.2892 1.69957 16.2892C1.59657 16.2892 1.54506 16.1928 1.54506 16C1.54506 15.8072 1.49356 15.7108 1.39056 15.7108C1.30558 15.7108 1.23605 15.6458 1.23605 15.5663C1.23605 15.4867 1.16652 15.4217 1.08155 15.4217C0.996567 15.4217 0.927039 15.3566 0.927039 15.2771C0.927039 15.1976 0.857511 15.1325 0.772532 15.1325C0.641408 15.1325 0.618026 14.8916 0.618026 13.5422C0.618026 12.1928 0.641408 11.9518 0.772532 11.9518C0.900052 11.9518 0.927039 11.7751 0.927039 10.9398C0.927039 10.1044 0.954026 9.92771 1.08155 9.92771C1.19598 9.92771 1.23605 9.81523 1.23605 9.49398C1.23605 9.17272 1.27612 9.06024 1.39056 9.06024C1.49356 9.06024 1.54506 8.96386 1.54506 8.77108C1.54506 8.57831 1.59657 8.48193 1.69957 8.48193C1.78455 8.48193 1.85408 8.41687 1.85408 8.33735C1.85408 8.25783 1.92361 8.19277 2.00858 8.19277C2.11159 8.19277 2.16309 8.09639 2.16309 7.90361C2.16309 7.71084 2.21459 7.61446 2.3176 7.61446C2.40258 7.61446 2.4721 7.5494 2.4721 7.46988C2.4721 7.37349 2.57511 7.3253 2.78112 7.3253C2.98712 7.3253 3.09013 7.27711 3.09013 7.18072C3.09013 7.1012 3.15966 7.03614 3.24464 7.03614C3.32961 7.03614 3.39914 6.97108 3.39914 6.89157C3.39914 6.81205 3.46867 6.74699 3.55365 6.74699C3.63863 6.74699 3.70815 6.68193 3.70815 6.60241C3.70815 6.50602 3.81116 6.45783 4.01717 6.45783C4.22318 6.45783 4.32618 6.40964 4.32618 6.31325C4.32618 6.23373 4.39571 6.16867 4.48069 6.16867C4.56567 6.16867 4.63519 6.10361 4.63519 6.0241C4.63519 5.94458 4.70472 5.87952 4.7897 5.87952C4.87468 5.87952 4.94421 5.81446 4.94421 5.73494C4.94421 5.65542 5.01373 5.59036 5.09871 5.59036C5.18369 5.59036 5.25322 5.5253 5.25322 5.44578C5.25322 5.36626 5.32275 5.3012 5.40773 5.3012C5.4927 5.3012 5.56223 5.23614 5.56223 5.15663C5.56223 5.07711 5.63176 5.01205 5.71674 5.01205C5.80172 5.01205 5.87124 4.94699 5.87124 4.86747C5.87124 4.78795 5.94077 4.72289 6.02575 4.72289C6.11073 4.72289 6.18026 4.65783 6.18026 4.57831C6.18026 4.4988 6.24979 4.43373 6.33476 4.43373C6.41974 4.43373 6.48927 4.36867 6.48927 4.28916C6.48927 4.20964 6.5588 4.14458 6.64378 4.14458C6.72876 4.14458 6.79828 4.07952 6.79828 4C6.79828 3.92048 6.86781 3.85542 6.95279 3.85542C7.03777 3.85542 7.1073 3.79036 7.1073 3.71084C7.1073 3.63133 7.17682 3.56626 7.2618 3.56626C7.34678 3.56626 7.41631 3.5012 7.41631 3.42169C7.41631 3.3253 7.51931 3.27711 7.72532 3.27711C7.93133 3.27711 8.03433 3.22892 8.03433 3.13253C8.03433 3.03614 8.13734 2.98795 8.34335 2.98795C8.54936 2.98795 8.65236 2.93976 8.65236 2.84337C8.65236 2.71807 9.06438 2.6988 11.7425 2.6988C14.4206 2.6988 14.8326 2.71807 14.8326 2.84337ZM16.6867 7.18072C16.6867 7.26024 16.6172 7.3253 16.5322 7.3253C16.4472 7.3253 16.3777 7.39036 16.3777 7.46988C16.3777 7.5494 16.3082 7.61446 16.2232 7.61446C16.1382 7.61446 16.0687 7.67952 16.0687 7.75904C16.0687 7.83855 15.9991 7.90361 15.9142 7.90361C15.8292 7.90361 15.7597 7.96867 15.7597 8.04819C15.7597 8.12771 15.6901 8.19277 15.6052 8.19277C15.5202 8.19277 15.4506 8.25783 15.4506 8.33735C15.4506 8.41687 15.3811 8.48193 15.2961 8.48193C15.1931 8.48193 15.1416 8.57831 15.1416 8.77108C15.1416 9.02814 15.1759 9.06024 15.4506 9.06024C15.6567 9.06024 15.7597 9.10843 15.7597 9.20482C15.7597 9.28434 15.8292 9.3494 15.9142 9.3494C15.9991 9.3494 16.0687 9.41446 16.0687 9.49398C16.0687 9.57349 16.1382 9.63855 16.2232 9.63855C16.3434 9.63855 16.3777 9.76704 16.3777 10.2169C16.3777 10.6667 16.3434 10.7952 16.2232 10.7952C16.1382 10.7952 16.0687 10.8602 16.0687 10.9398C16.0687 11.0554 15.9142 11.0843 15.2961 11.0843C14.6781 11.0843 14.5236 11.0554 14.5236 10.9398C14.5236 10.8434 14.4206 10.7952 14.2146 10.7952C14.0086 10.7952 13.9056 10.747 13.9056 10.6506C13.9056 10.5711 13.8361 10.506 13.7511 10.506C13.6661 10.506 13.5966 10.441 13.5966 10.3614C13.5966 10.2651 13.4936 10.2169 13.2876 10.2169C13.0815 10.2169 12.9785 10.2651 12.9785 10.3614C12.9785 10.441 12.909 10.506 12.824 10.506C12.721 10.506 12.6695 10.6024 12.6695 10.7952C12.6695 10.988 12.618 11.0843 12.515 11.0843C12.3892 11.0843 12.3605 11.245 12.3605 11.9518V12.8193H13.4421C14.3348 12.8193 14.5236 12.794 14.5236 12.6747C14.5236 12.559 14.6781 12.5301 15.2961 12.5301C15.9142 12.5301 16.0687 12.559 16.0687 12.6747C16.0687 12.7711 16.1717 12.8193 16.3777 12.8193C16.5837 12.8193 16.6867 12.8675 16.6867 12.9639C16.6867 13.0434 16.7562 13.1084 16.8412 13.1084C16.9262 13.1084 16.9957 13.1735 16.9957 13.253C16.9957 13.3325 17.0652 13.3976 17.1502 13.3976C17.2352 13.3976 17.3047 13.4627 17.3047 13.5422C17.3047 13.6217 17.3742 13.6867 17.4592 13.6867C17.5442 13.6867 17.6137 13.7518 17.6137 13.8313C17.6137 13.9108 17.6833 13.9759 17.7682 13.9759C17.8884 13.9759 17.9227 13.8474 17.9227 13.3976C17.9227 12.9478 17.957 12.8193 18.0773 12.8193C18.1622 12.8193 18.2318 12.7542 18.2318 12.6747C18.2318 12.5783 18.1288 12.5301 17.9227 12.5301C17.7167 12.5301 17.6137 12.4819 17.6137 12.3855C17.6137 12.306 17.5442 12.241 17.4592 12.241C17.3742 12.241 17.3047 12.1759 17.3047 12.0964C17.3047 12.0169 17.2352 11.9518 17.1502 11.9518C17.03 11.9518 16.9957 11.8233 16.9957 11.3735V10.7952H17.6137C18.0945 10.7952 18.2318 10.8273 18.2318 10.9398C18.2318 11.0193 18.3013 11.0843 18.3863 11.0843C18.4893 11.0843 18.5408 10.988 18.5408 10.7952C18.5408 10.6024 18.5923 10.506 18.6953 10.506C18.7983 10.506 18.8498 10.4096 18.8498 10.2169C18.8498 10.0241 18.7983 9.92771 18.6953 9.92771C18.5808 9.92771 18.5408 9.81523 18.5408 9.49398C18.5408 9.17272 18.5007 9.06024 18.3863 9.06024C18.3013 9.06024 18.2318 8.99518 18.2318 8.91566C18.2318 8.83614 18.1622 8.77108 18.0773 8.77108C17.9742 8.77108 17.9227 8.6747 17.9227 8.48193C17.9227 8.28916 17.8712 8.19277 17.7682 8.19277C17.6652 8.19277 17.6137 8.09639 17.6137 7.90361C17.6137 7.71084 17.5622 7.61446 17.4592 7.61446C17.3742 7.61446 17.3047 7.5494 17.3047 7.46988C17.3047 7.39036 17.2352 7.3253 17.1502 7.3253C17.0652 7.3253 16.9957 7.26024 16.9957 7.18072C16.9957 7.1012 16.9262 7.03614 16.8412 7.03614C16.7562 7.03614 16.6867 7.1012 16.6867 7.18072ZM8.96137 16.8675C8.96137 17.0602 8.90987 17.1566 8.80687 17.1566C8.70386 17.1566 8.65236 17.253 8.65236 17.4458C8.65236 17.6386 8.60086 17.7349 8.49785 17.7349C8.39485 17.7349 8.34335 17.8313 8.34335 18.0241C8.34335 18.2169 8.29185 18.3133 8.18884 18.3133C8.08584 18.3133 8.03433 18.4096 8.03433 18.6024C8.03433 18.7952 7.98283 18.8916 7.87983 18.8916C7.79485 18.8916 7.72532 18.9566 7.72532 19.0361C7.72532 19.1157 7.79485 19.1807 7.87983 19.1807C7.96481 19.1807 8.03433 19.2458 8.03433 19.3253C8.03433 19.4217 8.13734 19.4699 8.34335 19.4699C8.54936 19.4699 8.65236 19.5181 8.65236 19.6145C8.65236 19.7108 8.75536 19.759 8.96137 19.759C9.16738 19.759 9.27039 19.8072 9.27039 19.9036C9.27039 20.0241 9.47639 20.0482 10.5064 20.0482C11.5365 20.0482 11.7425 20.0241 11.7425 19.9036C11.7425 19.8241 11.812 19.759 11.897 19.759C11.982 19.759 12.0515 19.694 12.0515 19.6145C12.0515 19.5349 12.121 19.4699 12.206 19.4699C12.291 19.4699 12.3605 19.4048 12.3605 19.3253C12.3605 19.2458 12.43 19.1807 12.515 19.1807C12.6 19.1807 12.6695 19.1157 12.6695 19.0361C12.6695 18.9566 12.6 18.8916 12.515 18.8916C12.43 18.8916 12.3605 18.8265 12.3605 18.747C12.3605 18.6675 12.291 18.6024 12.206 18.6024C12.121 18.6024 12.0515 18.5373 12.0515 18.4578C12.0515 18.3614 11.9485 18.3133 11.7425 18.3133C11.5365 18.3133 11.4335 18.2651 11.4335 18.1687C11.4335 18.0892 11.3639 18.0241 11.279 18.0241C11.194 18.0241 11.1245 17.959 11.1245 17.8795C11.1245 17.8 11.0549 17.7349 10.97 17.7349C10.885 17.7349 10.8155 17.6699 10.8155 17.5904C10.8155 17.5108 10.7459 17.4458 10.6609 17.4458C10.576 17.4458 10.5064 17.3807 10.5064 17.3012C10.5064 17.2048 10.4034 17.1566 10.1974 17.1566C9.99142 17.1566 9.88841 17.1084 9.88841 17.012C9.88841 16.9325 9.81888 16.8675 9.73391 16.8675C9.64893 16.8675 9.5794 16.8024 9.5794 16.7229C9.5794 16.6265 9.47639 16.5783 9.27039 16.5783C8.99567 16.5783 8.96137 16.6104 8.96137 16.8675Z" fill="black"/>
</svg>
