<svg width="24" height="24" viewBox="0 0 24 24" fill="none" xmlns="http://www.w3.org/2000/svg">
<path fill-rule="evenodd" clip-rule="evenodd" d="M4 3.5C3.72386 3.5 3.5 3.72386 3.5 4V4.01562V4.03125V4.04688V4.0625V4.07812V4.09375V4.10938V4.125V4.14062V4.15625V4.17188V4.1875V4.20312V4.21875V4.23438V4.25V4.26562V4.28125V4.29688V4.3125V4.32812V4.34375V4.35938V4.375V4.39062V4.40625V4.42188V4.4375V4.45312V4.46875V4.48438V4.5V4.51562V4.53125V4.54688V4.5625V4.57812V4.59375V4.60938V4.625V4.64062V4.65625V4.67188V4.6875V4.70312V4.71875V4.73438V4.75V4.76562V4.78125V4.79688V4.8125V4.82812V4.84375V4.85938V4.875V4.89062V4.90625V4.92188V4.9375V4.95312V4.96875V4.98438V5V5.01562V5.03125V5.04688V5.0625V5.07812V5.09375V5.10938V5.125V5.14062V5.15625V5.17188V5.1875V5.20312V5.21875V5.23438V5.25V5.26562V5.28125V5.29688V5.3125V5.32812V5.34375V5.35938V5.375V5.39062V5.40625V5.42188V5.4375V5.45312V5.46875V5.48438V5.5V5.51562V5.53125V5.54688V5.5625V5.57812V5.59375V5.60938V5.625V5.64062V5.65625V5.67188V5.6875V5.70312V5.71875V5.73438V5.75V5.76562V5.78125V5.79688V5.8125V5.82812V5.84375V5.85938V5.875V5.89062V5.90625V5.92188V5.9375V5.95312V5.96875V5.98438V6V6.01562V6.03125V6.04688V6.0625V6.07812V6.09375V6.10938V6.125V6.14062V6.15625V6.17188V6.1875V6.20312V6.21875V6.23438V6.25V6.26562V6.28125V6.29688V6.3125V6.32812V6.34375V6.35938V6.375V6.39062V6.40625V6.42188V6.4375V6.45312V6.46875V6.48438V6.5V6.51562V6.53125V6.54688V6.5625V6.57812V6.59375V6.60938V6.625V6.64062V6.65625V6.67188V6.6875V6.70312V6.71875V6.73438V6.75V6.76562V6.78125V6.79688V6.8125V6.82812V6.84375V6.85938V6.875V6.89062V6.90625V6.92188V6.9375V6.95312V6.96875V6.98438V7V7.01562V7.03125V7.04688V7.0625V7.07812V7.09375V7.10938V7.125V7.14062V7.15625V7.17188V7.1875V7.20312V7.21875V7.23438V7.25V7.26562V7.28125V7.29688V7.3125V7.32812V7.34375V7.35938V7.375V7.39062V7.40625V7.42188V7.4375V7.45312V7.46875V7.48438V7.5V7.51562V7.53125V7.54688V7.5625V7.57812V7.59375V7.60938V7.625V7.64062V7.65625V7.67188V7.6875V7.70312V7.71875V7.73438V7.75V7.76562V7.78125V7.79688V7.8125V7.82812V7.84375V7.85938V7.875V7.89062V7.90625V7.92188V7.9375V7.95312V7.96875V7.98438V8V8.01562V8.03125V8.04688V8.0625V8.07812V8.09375V8.10938V8.125V8.14062V8.15625V8.17188V8.1875V8.20312V8.21875V8.23438V8.25V8.26562V8.28125V8.29688V8.3125V8.32812V8.34375V8.35938V8.375V8.39062V8.40625V8.42188V8.4375V8.45312V8.46875V8.48438V8.5V8.51562V8.53125V8.54688V8.5625V8.57812V8.59375V8.60938V8.625V8.64062V8.65625V8.67188V8.6875V8.70312V8.71875V8.73438V8.75V8.76562V8.78125V8.79688V8.8125V8.82812V8.84375V8.85938V8.875V8.89062V8.90625V8.92188V8.9375V8.95312V8.96875V8.98438V9V9.01562V9.03125V9.04688V9.0625V9.07812V9.09375V9.10938V9.125V9.14062V9.15625V9.17188V9.1875V9.20312V9.21875V9.23438V9.25V9.26562V9.28125V9.29688V9.3125V9.32812V9.34375V9.35938V9.375V9.39062V9.40625V9.42188V9.4375V9.45312V9.46875V9.48438V9.5V9.51562V9.53125V9.54688V9.5625V9.57812V9.59375V9.60938V9.625V9.64062V9.65625V9.67188V9.6875V9.70312V9.71875V9.73438V9.75V9.76562V9.78125V9.79688V9.8125V9.82812V9.84375V9.85938V9.875V9.89062V9.90625V9.92188V9.9375V9.95312V9.96875V9.98438V10V10.0156V10.0312V10.0469V10.0625V10.0781V10.0938V10.1094V10.125V10.1406V10.1562V10.1719V10.1875V10.2031V10.2188V10.2344V10.25V10.2656V10.2812V10.2969V10.3125V10.3281V10.3438V10.3594V10.375V10.3906V10.4062V10.4219V10.4375V10.4531V10.4688V10.4844V10.5V10.5156V10.5312V10.5469V10.5625V10.5781V10.5938V10.6094V10.625V10.6406V10.6562V10.6719V10.6875V10.7031V10.7188V10.7344V10.75V10.7656V10.7812V10.7969V10.8125V10.8281V10.8438V10.8594V10.875V10.8906V10.9062V10.9219V10.9375V10.9531V10.9688V10.9844V11V11.0156V11.0312V11.0469V11.0625V11.0781V11.0938V11.1094V11.125V11.1406V11.1562V11.1719V11.1875V11.2031V11.2188V11.2344V11.25V11.2656V11.2812V11.2969V11.3125V11.3281V11.3438V11.3594V11.375V11.3906V11.4062V11.4219V11.4375V11.4531V11.4688V11.4844V11.5V11.5156V11.5312V11.5469V11.5625V11.5781V11.5938V11.6094V11.625V11.6406V11.6562V11.6719V11.6875V11.7031V11.7188V11.7344V11.75V11.7656V11.7812V11.7969V11.8125V11.8281V11.8438V11.8594V11.875V11.8906V11.9062V11.9219V11.9375V11.9531V11.9688V11.9844V12V15C3.5 15.194 3.61223 15.3705 3.78792 15.4528C3.96361 15.5351 4.17105 15.5083 4.32009 15.3841L7.36382 12.8477C7.6334 12.623 7.9732 12.5 8.3241 12.5H11.2H15C15.2761 12.5 15.5 12.2761 15.5 12V4C15.5 3.72386 15.2761 3.5 15 3.5H4ZM4.5 4.51562V4.5H14.5V11.5H11.2H8.3241C7.73926 11.5 7.17293 11.705 6.72364 12.0794L4.5 13.9325V12V11.9844V11.9688V11.9531V11.9375V11.9219V11.9062V11.8906V11.875V11.8594V11.8438V11.8281V11.8125V11.7969V11.7812V11.7656V11.75V11.7344V11.7188V11.7031V11.6875V11.6719V11.6562V11.6406V11.625V11.6094V11.5938V11.5781V11.5625V11.5469V11.5312V11.5156V11.5V11.4844V11.4688V11.4531V11.4375V11.4219V11.4062V11.3906V11.375V11.3594V11.3438V11.3281V11.3125V11.2969V11.2812V11.2656V11.25V11.2344V11.2188V11.2031V11.1875V11.1719V11.1562V11.1406V11.125V11.1094V11.0938V11.0781V11.0625V11.0469V11.0312V11.0156V11V10.9844V10.9688V10.9531V10.9375V10.9219V10.9062V10.8906V10.875V10.8594V10.8438V10.8281V10.8125V10.7969V10.7812V10.7656V10.75V10.7344V10.7188V10.7031V10.6875V10.6719V10.6562V10.6406V10.625V10.6094V10.5938V10.5781V10.5625V10.5469V10.5312V10.5156V10.5V10.4844V10.4688V10.4531V10.4375V10.4219V10.4062V10.3906V10.375V10.3594V10.3438V10.3281V10.3125V10.2969V10.2812V10.2656V10.25V10.2344V10.2188V10.2031V10.1875V10.1719V10.1562V10.1406V10.125V10.1094V10.0938V10.0781V10.0625V10.0469V10.0312V10.0156V10V9.98438V9.96875V9.95312V9.9375V9.92188V9.90625V9.89062V9.875V9.85938V9.84375V9.82812V9.8125V9.79688V9.78125V9.76562V9.75V9.73438V9.71875V9.70312V9.6875V9.67188V9.65625V9.64062V9.625V9.60938V9.59375V9.57812V9.5625V9.54688V9.53125V9.51562V9.5V9.48438V9.46875V9.45312V9.4375V9.42188V9.40625V9.39062V9.375V9.35938V9.34375V9.32812V9.3125V9.29688V9.28125V9.26562V9.25V9.23438V9.21875V9.20312V9.1875V9.17188V9.15625V9.14062V9.125V9.10938V9.09375V9.07812V9.0625V9.04688V9.03125V9.01562V9V8.98438V8.96875V8.95312V8.9375V8.92188V8.90625V8.89062V8.875V8.85938V8.84375V8.82812V8.8125V8.79688V8.78125V8.76562V8.75V8.73438V8.71875V8.70312V8.6875V8.67188V8.65625V8.64062V8.625V8.60938V8.59375V8.57812V8.5625V8.54688V8.53125V8.51562V8.5V8.48438V8.46875V8.45312V8.4375V8.42188V8.40625V8.39062V8.375V8.35938V8.34375V8.32812V8.3125V8.29688V8.28125V8.26562V8.25V8.23438V8.21875V8.20312V8.1875V8.17188V8.15625V8.14062V8.125V8.10938V8.09375V8.07812V8.0625V8.04688V8.03125V8.01562V8V7.98438V7.96875V7.95312V7.9375V7.92188V7.90625V7.89062V7.875V7.85938V7.84375V7.82812V7.8125V7.79688V7.78125V7.76562V7.75V7.73438V7.71875V7.70312V7.6875V7.67188V7.65625V7.64062V7.625V7.60938V7.59375V7.57812V7.5625V7.54688V7.53125V7.51562V7.5V7.48438V7.46875V7.45312V7.4375V7.42188V7.40625V7.39062V7.375V7.35938V7.34375V7.32812V7.3125V7.29688V7.28125V7.26562V7.25V7.23438V7.21875V7.20312V7.1875V7.17188V7.15625V7.14062V7.125V7.10938V7.09375V7.07812V7.0625V7.04688V7.03125V7.01562V7V6.98438V6.96875V6.95312V6.9375V6.92188V6.90625V6.89062V6.875V6.85938V6.84375V6.82812V6.8125V6.79688V6.78125V6.76562V6.75V6.73438V6.71875V6.70312V6.6875V6.67188V6.65625V6.64062V6.625V6.60938V6.59375V6.57812V6.5625V6.54688V6.53125V6.51562V6.5V6.48438V6.46875V6.45312V6.4375V6.42188V6.40625V6.39062V6.375V6.35938V6.34375V6.32812V6.3125V6.29688V6.28125V6.26562V6.25V6.23438V6.21875V6.20312V6.1875V6.17188V6.15625V6.14062V6.125V6.10938V6.09375V6.07812V6.0625V6.04688V6.03125V6.01562V6V5.98438V5.96875V5.95312V5.9375V5.92188V5.90625V5.89062V5.875V5.85938V5.84375V5.82812V5.8125V5.79688V5.78125V5.76562V5.75V5.73438V5.71875V5.70312V5.6875V5.67188V5.65625V5.64062V5.625V5.60938V5.59375V5.57812V5.5625V5.54688V5.53125V5.51562V5.5V5.48438V5.46875V5.45312V5.4375V5.42188V5.40625V5.39062V5.375V5.35938V5.34375V5.32812V5.3125V5.29688V5.28125V5.26562V5.25V5.23438V5.21875V5.20312V5.1875V5.17188V5.15625V5.14062V5.125V5.10938V5.09375V5.07812V5.0625V5.04688V5.03125V5.01562V5V4.98438V4.96875V4.95312V4.9375V4.92188V4.90625V4.89062V4.875V4.85938V4.84375V4.82812V4.8125V4.79688V4.78125V4.76562V4.75V4.73438V4.71875V4.70312V4.6875V4.67188V4.65625V4.64062V4.625V4.60938V4.59375V4.57812V4.5625V4.54688V4.53125V4.51562ZM20 7.5V17V20L17.5858 17.5858C17.2107 17.2107 16.702 17 16.1716 17H14H8V15.5H16.5C17.6046 15.5 18.5 14.6046 18.5 13.5V7.5H20Z" fill="black"/>
<path d="M3.78792 15.4528L3.57584 15.9056L3.57585 15.9056L3.78792 15.4528ZM4.32009 15.3841L4 15L4 15L4.32009 15.3841ZM7.36382 12.8477L7.04373 12.4636L7.04373 12.4636L7.36382 12.8477ZM4.5 4.5V4C4.22386 4 4 4.22386 4 4.5H4.5ZM14.5 4.5H15C15 4.22386 14.7761 4 14.5 4V4.5ZM14.5 11.5V12C14.7761 12 15 11.7761 15 11.5H14.5ZM6.72364 12.0794L7.04373 12.4636L7.04373 12.4636L6.72364 12.0794ZM4.5 13.9325H4C4 14.1265 4.11223 14.303 4.28792 14.3853C4.46361 14.4676 4.67105 14.4408 4.82009 14.3166L4.5 13.9325ZM20 7.5H20.5C20.5 7.22386 20.2761 7 20 7V7.5ZM20 20L19.6464 20.3536C19.7894 20.4966 20.0045 20.5393 20.1913 20.4619C20.3782 20.3845 20.5 20.2022 20.5 20H20ZM8 17H7.5C7.5 17.2761 7.72386 17.5 8 17.5V17ZM8 15.5V15C7.72386 15 7.5 15.2239 7.5 15.5H8ZM18.5 7.5V7C18.2239 7 18 7.22386 18 7.5H18.5ZM4 4V3C3.44772 3 3 3.44772 3 4H4ZM4 4.01562V4H3V4.01562H4ZM4 4.03125V4.01562H3V4.03125H4ZM4 4.04688V4.03125H3V4.04688H4ZM4 4.0625V4.04688H3V4.0625H4ZM4 4.07812V4.0625H3V4.07812H4ZM4 4.09375V4.07812H3V4.09375H4ZM4 4.10938V4.09375H3V4.10938H4ZM4 4.125V4.10938H3V4.125H4ZM4 4.14062V4.125H3V4.14062H4ZM4 4.15625V4.14062H3V4.15625H4ZM4 4.17188V4.15625H3V4.17188H4ZM4 4.1875V4.17188H3V4.1875H4ZM4 4.20312V4.1875H3V4.20312H4ZM4 4.21875V4.20312H3V4.21875H4ZM4 4.23438V4.21875H3V4.23438H4ZM4 4.25V4.23438H3V4.25H4ZM4 4.26562V4.25H3V4.26562H4ZM4 4.28125V4.26562H3V4.28125H4ZM4 4.29688V4.28125H3V4.29688H4ZM4 4.3125V4.29688H3V4.3125H4ZM4 4.32812V4.3125H3V4.32812H4ZM4 4.34375V4.32812H3V4.34375H4ZM4 4.35938V4.34375H3V4.35938H4ZM4 4.375V4.35938H3V4.375H4ZM4 4.39062V4.375H3V4.39062H4ZM4 4.40625V4.39062H3V4.40625H4ZM4 4.42188V4.40625H3V4.42188H4ZM4 4.4375V4.42188H3V4.4375H4ZM4 4.45312V4.4375H3V4.45312H4ZM4 4.46875V4.45312H3V4.46875H4ZM4 4.48438V4.46875H3V4.48438H4ZM4 4.5V4.48438H3V4.5H4ZM4 4.51562V4.5H3V4.51562H4ZM4 4.53125V4.51562H3V4.53125H4ZM4 4.54688V4.53125H3V4.54688H4ZM4 4.5625V4.54688H3V4.5625H4ZM4 4.57812V4.5625H3V4.57812H4ZM4 4.59375V4.57812H3V4.59375H4ZM4 4.60938V4.59375H3V4.60938H4ZM4 4.625V4.60938H3V4.625H4ZM4 4.64062V4.625H3V4.64062H4ZM4 4.65625V4.64062H3V4.65625H4ZM4 4.67188V4.65625H3V4.67188H4ZM4 4.6875V4.67188H3V4.6875H4ZM4 4.70312V4.6875H3V4.70312H4ZM4 4.71875V4.70312H3V4.71875H4ZM4 4.73438V4.71875H3V4.73438H4ZM4 4.75V4.73438H3V4.75H4ZM4 4.76562V4.75H3V4.76562H4ZM4 4.78125V4.76562H3V4.78125H4ZM4 4.79688V4.78125H3V4.79688H4ZM4 4.8125V4.79688H3V4.8125H4ZM4 4.82812V4.8125H3V4.82812H4ZM4 4.84375V4.82812H3V4.84375H4ZM4 4.85938V4.84375H3V4.85938H4ZM4 4.875V4.85938H3V4.875H4ZM4 4.89062V4.875H3V4.89062H4ZM4 4.90625V4.89062H3V4.90625H4ZM4 4.92188V4.90625H3V4.92188H4ZM4 4.9375V4.92188H3V4.9375H4ZM4 4.95312V4.9375H3V4.95312H4ZM4 4.96875V4.95312H3V4.96875H4ZM4 4.98438V4.96875H3V4.98438H4ZM4 5V4.98438H3V5H4ZM4 5.01562V5H3V5.01562H4ZM4 5.03125V5.01562H3V5.03125H4ZM4 5.04688V5.03125H3V5.04688H4ZM4 5.0625V5.04688H3V5.0625H4ZM4 5.07812V5.0625H3V5.07812H4ZM4 5.09375V5.07812H3V5.09375H4ZM4 5.10938V5.09375H3V5.10938H4ZM4 5.125V5.10938H3V5.125H4ZM4 5.14062V5.125H3V5.14062H4ZM4 5.15625V5.14062H3V5.15625H4ZM4 5.17188V5.15625H3V5.17188H4ZM4 5.1875V5.17188H3V5.1875H4ZM4 5.20312V5.1875H3V5.20312H4ZM4 5.21875V5.20312H3V5.21875H4ZM4 5.23438V5.21875H3V5.23438H4ZM4 5.25V5.23438H3V5.25H4ZM4 5.26562V5.25H3V5.26562H4ZM4 5.28125V5.26562H3V5.28125H4ZM4 5.29688V5.28125H3V5.29688H4ZM4 5.3125V5.29688H3V5.3125H4ZM4 5.32812V5.3125H3V5.32812H4ZM4 5.34375V5.32812H3V5.34375H4ZM4 5.35938V5.34375H3V5.35938H4ZM4 5.375V5.35938H3V5.375H4ZM4 5.39062V5.375H3V5.39062H4ZM4 5.40625V5.39062H3V5.40625H4ZM4 5.42188V5.40625H3V5.42188H4ZM4 5.4375V5.42188H3V5.4375H4ZM4 5.45312V5.4375H3V5.45312H4ZM4 5.46875V5.45312H3V5.46875H4ZM4 5.48438V5.46875H3V5.48438H4ZM4 5.5V5.48438H3V5.5H4ZM4 5.51562V5.5H3V5.51562H4ZM4 5.53125V5.51562H3V5.53125H4ZM4 5.54688V5.53125H3V5.54688H4ZM4 5.5625V5.54688H3V5.5625H4ZM4 5.57812V5.5625H3V5.57812H4ZM4 5.59375V5.57812H3V5.59375H4ZM4 5.60938V5.59375H3V5.60938H4ZM4 5.625V5.60938H3V5.625H4ZM4 5.64062V5.625H3V5.64062H4ZM4 5.65625V5.64062H3V5.65625H4ZM4 5.67188V5.65625H3V5.67188H4ZM4 5.6875V5.67188H3V5.6875H4ZM4 5.70312V5.6875H3V5.70312H4ZM4 5.71875V5.70312H3V5.71875H4ZM4 5.73438V5.71875H3V5.73438H4ZM4 5.75V5.73438H3V5.75H4ZM4 5.76562V5.75H3V5.76562H4ZM4 5.78125V5.76562H3V5.78125H4ZM4 5.79688V5.78125H3V5.79688H4ZM4 5.8125V5.79688H3V5.8125H4ZM4 5.82812V5.8125H3V5.82812H4ZM4 5.84375V5.82812H3V5.84375H4ZM4 5.85938V5.84375H3V5.85938H4ZM4 5.875V5.85938H3V5.875H4ZM4 5.89062V5.875H3V5.89062H4ZM4 5.90625V5.89062H3V5.90625H4ZM4 5.92188V5.90625H3V5.92188H4ZM4 5.9375V5.92188H3V5.9375H4ZM4 5.95312V5.9375H3V5.95312H4ZM4 5.96875V5.95312H3V5.96875H4ZM4 5.98438V5.96875H3V5.98438H4ZM4 6V5.98438H3V6H4ZM4 6.01562V6H3V6.01562H4ZM4 6.03125V6.01562H3V6.03125H4ZM4 6.04688V6.03125H3V6.04688H4ZM4 6.0625V6.04688H3V6.0625H4ZM4 6.07812V6.0625H3V6.07812H4ZM4 6.09375V6.07812H3V6.09375H4ZM4 6.10938V6.09375H3V6.10938H4ZM4 6.125V6.10938H3V6.125H4ZM4 6.14062V6.125H3V6.14062H4ZM4 6.15625V6.14062H3V6.15625H4ZM4 6.17188V6.15625H3V6.17188H4ZM4 6.1875V6.17188H3V6.1875H4ZM4 6.20312V6.1875H3V6.20312H4ZM4 6.21875V6.20312H3V6.21875H4ZM4 6.23438V6.21875H3V6.23438H4ZM4 6.25V6.23438H3V6.25H4ZM4 6.26562V6.25H3V6.26562H4ZM4 6.28125V6.26562H3V6.28125H4ZM4 6.29688V6.28125H3V6.29688H4ZM4 6.3125V6.29688H3V6.3125H4ZM4 6.32812V6.3125H3V6.32812H4ZM4 6.34375V6.32812H3V6.34375H4ZM4 6.35938V6.34375H3V6.35938H4ZM4 6.375V6.35938H3V6.375H4ZM4 6.39062V6.375H3V6.39062H4ZM4 6.40625V6.39062H3V6.40625H4ZM4 6.42188V6.40625H3V6.42188H4ZM4 6.4375V6.42188H3V6.4375H4ZM4 6.45312V6.4375H3V6.45312H4ZM4 6.46875V6.45312H3V6.46875H4ZM4 6.48438V6.46875H3V6.48438H4ZM4 6.5V6.48438H3V6.5H4ZM4 6.51562V6.5H3V6.51562H4ZM4 6.53125V6.51562H3V6.53125H4ZM4 6.54688V6.53125H3V6.54688H4ZM4 6.5625V6.54688H3V6.5625H4ZM4 6.57812V6.5625H3V6.57812H4ZM4 6.59375V6.57812H3V6.59375H4ZM4 6.60938V6.59375H3V6.60938H4ZM4 6.625V6.60938H3V6.625H4ZM4 6.64062V6.625H3V6.64062H4ZM4 6.65625V6.64062H3V6.65625H4ZM4 6.67188V6.65625H3V6.67188H4ZM4 6.6875V6.67188H3V6.6875H4ZM4 6.70312V6.6875H3V6.70312H4ZM4 6.71875V6.70312H3V6.71875H4ZM4 6.73438V6.71875H3V6.73438H4ZM4 6.75V6.73438H3V6.75H4ZM4 6.76562V6.75H3V6.76562H4ZM4 6.78125V6.76562H3V6.78125H4ZM4 6.79688V6.78125H3V6.79688H4ZM4 6.8125V6.79688H3V6.8125H4ZM4 6.82812V6.8125H3V6.82812H4ZM4 6.84375V6.82812H3V6.84375H4ZM4 6.85938V6.84375H3V6.85938H4ZM4 6.875V6.85938H3V6.875H4ZM4 6.89062V6.875H3V6.89062H4ZM4 6.90625V6.89062H3V6.90625H4ZM4 6.92188V6.90625H3V6.92188H4ZM4 6.9375V6.92188H3V6.9375H4ZM4 6.95312V6.9375H3V6.95312H4ZM4 6.96875V6.95312H3V6.96875H4ZM4 6.98438V6.96875H3V6.98438H4ZM4 7V6.98438H3V7H4ZM4 7.01562V7H3V7.01562H4ZM4 7.03125V7.01562H3V7.03125H4ZM4 7.04688V7.03125H3V7.04688H4ZM4 7.0625V7.04688H3V7.0625H4ZM4 7.07812V7.0625H3V7.07812H4ZM4 7.09375V7.07812H3V7.09375H4ZM4 7.10938V7.09375H3V7.10938H4ZM4 7.125V7.10938H3V7.125H4ZM4 7.14062V7.125H3V7.14062H4ZM4 7.15625V7.14062H3V7.15625H4ZM4 7.17188V7.15625H3V7.17188H4ZM4 7.1875V7.17188H3V7.1875H4ZM4 7.20312V7.1875H3V7.20312H4ZM4 7.21875V7.20312H3V7.21875H4ZM4 7.23438V7.21875H3V7.23438H4ZM4 7.25V7.23438H3V7.25H4ZM4 7.26562V7.25H3V7.26562H4ZM4 7.28125V7.26562H3V7.28125H4ZM4 7.29688V7.28125H3V7.29688H4ZM4 7.3125V7.29688H3V7.3125H4ZM4 7.32812V7.3125H3V7.32812H4ZM4 7.34375V7.32812H3V7.34375H4ZM4 7.35938V7.34375H3V7.35938H4ZM4 7.375V7.35938H3V7.375H4ZM4 7.39062V7.375H3V7.39062H4ZM4 7.40625V7.39062H3V7.40625H4ZM4 7.42188V7.40625H3V7.42188H4ZM4 7.4375V7.42188H3V7.4375H4ZM4 7.45312V7.4375H3V7.45312H4ZM4 7.46875V7.45312H3V7.46875H4ZM4 7.48438V7.46875H3V7.48438H4ZM4 7.5V7.48438H3V7.5H4ZM4 7.51562V7.5H3V7.51562H4ZM4 7.53125V7.51562H3V7.53125H4ZM4 7.54688V7.53125H3V7.54688H4ZM4 7.5625V7.54688H3V7.5625H4ZM4 7.57812V7.5625H3V7.57812H4ZM4 7.59375V7.57812H3V7.59375H4ZM4 7.60938V7.59375H3V7.60938H4ZM4 7.625V7.60938H3V7.625H4ZM4 7.64062V7.625H3V7.64062H4ZM4 7.65625V7.64062H3V7.65625H4ZM4 7.67188V7.65625H3V7.67188H4ZM4 7.6875V7.67188H3V7.6875H4ZM4 7.70312V7.6875H3V7.70312H4ZM4 7.71875V7.70312H3V7.71875H4ZM4 7.73438V7.71875H3V7.73438H4ZM4 7.75V7.73438H3V7.75H4ZM4 7.76562V7.75H3V7.76562H4ZM4 7.78125V7.76562H3V7.78125H4ZM4 7.79688V7.78125H3V7.79688H4ZM4 7.8125V7.79688H3V7.8125H4ZM4 7.82812V7.8125H3V7.82812H4ZM4 7.84375V7.82812H3V7.84375H4ZM4 7.85938V7.84375H3V7.85938H4ZM4 7.875V7.85938H3V7.875H4ZM4 7.89062V7.875H3V7.89062H4ZM4 7.90625V7.89062H3V7.90625H4ZM4 7.92188V7.90625H3V7.92188H4ZM4 7.9375V7.92188H3V7.9375H4ZM4 7.95312V7.9375H3V7.95312H4ZM4 7.96875V7.95312H3V7.96875H4ZM4 7.98438V7.96875H3V7.98438H4ZM4 8V7.98438H3V8H4ZM4 8.01562V8H3V8.01562H4ZM4 8.03125V8.01562H3V8.03125H4ZM4 8.04688V8.03125H3V8.04688H4ZM4 8.0625V8.04688H3V8.0625H4ZM4 8.07812V8.0625H3V8.07812H4ZM4 8.09375V8.07812H3V8.09375H4ZM4 8.10938V8.09375H3V8.10938H4ZM4 8.125V8.10938H3V8.125H4ZM4 8.14062V8.125H3V8.14062H4ZM4 8.15625V8.14062H3V8.15625H4ZM4 8.17188V8.15625H3V8.17188H4ZM4 8.1875V8.17188H3V8.1875H4ZM4 8.20312V8.1875H3V8.20312H4ZM4 8.21875V8.20312H3V8.21875H4ZM4 8.23438V8.21875H3V8.23438H4ZM4 8.25V8.23438H3V8.25H4ZM4 8.26562V8.25H3V8.26562H4ZM4 8.28125V8.26562H3V8.28125H4ZM4 8.29688V8.28125H3V8.29688H4ZM4 8.3125V8.29688H3V8.3125H4ZM4 8.32812V8.3125H3V8.32812H4ZM4 8.34375V8.32812H3V8.34375H4ZM4 8.35938V8.34375H3V8.35938H4ZM4 8.375V8.35938H3V8.375H4ZM4 8.39062V8.375H3V8.39062H4ZM4 8.40625V8.39062H3V8.40625H4ZM4 8.42188V8.40625H3V8.42188H4ZM4 8.4375V8.42188H3V8.4375H4ZM4 8.45312V8.4375H3V8.45312H4ZM4 8.46875V8.45312H3V8.46875H4ZM4 8.48438V8.46875H3V8.48438H4ZM4 8.5V8.48438H3V8.5H4ZM4 8.51562V8.5H3V8.51562H4ZM4 8.53125V8.51562H3V8.53125H4ZM4 8.54688V8.53125H3V8.54688H4ZM4 8.5625V8.54688H3V8.5625H4ZM4 8.57812V8.5625H3V8.57812H4ZM4 8.59375V8.57812H3V8.59375H4ZM4 8.60938V8.59375H3V8.60938H4ZM4 8.625V8.60938H3V8.625H4ZM4 8.64062V8.625H3V8.64062H4ZM4 8.65625V8.64062H3V8.65625H4ZM4 8.67188V8.65625H3V8.67188H4ZM4 8.6875V8.67188H3V8.6875H4ZM4 8.70312V8.6875H3V8.70312H4ZM4 8.71875V8.70312H3V8.71875H4ZM4 8.73438V8.71875H3V8.73438H4ZM4 8.75V8.73438H3V8.75H4ZM4 8.76562V8.75H3V8.76562H4ZM4 8.78125V8.76562H3V8.78125H4ZM4 8.79688V8.78125H3V8.79688H4ZM4 8.8125V8.79688H3V8.8125H4ZM4 8.82812V8.8125H3V8.82812H4ZM4 8.84375V8.82812H3V8.84375H4ZM4 8.85938V8.84375H3V8.85938H4ZM4 8.875V8.85938H3V8.875H4ZM4 8.89062V8.875H3V8.89062H4ZM4 8.90625V8.89062H3V8.90625H4ZM4 8.92188V8.90625H3V8.92188H4ZM4 8.9375V8.92188H3V8.9375H4ZM4 8.95312V8.9375H3V8.95312H4ZM4 8.96875V8.95312H3V8.96875H4ZM4 8.98438V8.96875H3V8.98438H4ZM4 9V8.98438H3V9H4ZM4 9.01562V9H3V9.01562H4ZM4 9.03125V9.01562H3V9.03125H4ZM4 9.04688V9.03125H3V9.04688H4ZM4 9.0625V9.04688H3V9.0625H4ZM4 9.07812V9.0625H3V9.07812H4ZM4 9.09375V9.07812H3V9.09375H4ZM4 9.10938V9.09375H3V9.10938H4ZM4 9.125V9.10938H3V9.125H4ZM4 9.14062V9.125H3V9.14062H4ZM4 9.15625V9.14062H3V9.15625H4ZM4 9.17188V9.15625H3V9.17188H4ZM4 9.1875V9.17188H3V9.1875H4ZM4 9.20312V9.1875H3V9.20312H4ZM4 9.21875V9.20312H3V9.21875H4ZM4 9.23438V9.21875H3V9.23438H4ZM4 9.25V9.23438H3V9.25H4ZM4 9.26562V9.25H3V9.26562H4ZM4 9.28125V9.26562H3V9.28125H4ZM4 9.29688V9.28125H3V9.29688H4ZM4 9.3125V9.29688H3V9.3125H4ZM4 9.32812V9.3125H3V9.32812H4ZM4 9.34375V9.32812H3V9.34375H4ZM4 9.35938V9.34375H3V9.35938H4ZM4 9.375V9.35938H3V9.375H4ZM4 9.39062V9.375H3V9.39062H4ZM4 9.40625V9.39062H3V9.40625H4ZM4 9.42188V9.40625H3V9.42188H4ZM4 9.4375V9.42188H3V9.4375H4ZM4 9.45312V9.4375H3V9.45312H4ZM4 9.46875V9.45312H3V9.46875H4ZM4 9.48438V9.46875H3V9.48438H4ZM4 9.5V9.48438H3V9.5H4ZM4 9.51562V9.5H3V9.51562H4ZM4 9.53125V9.51562H3V9.53125H4ZM4 9.54688V9.53125H3V9.54688H4ZM4 9.5625V9.54688H3V9.5625H4ZM4 9.57812V9.5625H3V9.57812H4ZM4 9.59375V9.57812H3V9.59375H4ZM4 9.60938V9.59375H3V9.60938H4ZM4 9.625V9.60938H3V9.625H4ZM4 9.64062V9.625H3V9.64062H4ZM4 9.65625V9.64062H3V9.65625H4ZM4 9.67188V9.65625H3V9.67188H4ZM4 9.6875V9.67188H3V9.6875H4ZM4 9.70312V9.6875H3V9.70312H4ZM4 9.71875V9.70312H3V9.71875H4ZM4 9.73438V9.71875H3V9.73438H4ZM4 9.75V9.73438H3V9.75H4ZM4 9.76562V9.75H3V9.76562H4ZM4 9.78125V9.76562H3V9.78125H4ZM4 9.79688V9.78125H3V9.79688H4ZM4 9.8125V9.79688H3V9.8125H4ZM4 9.82812V9.8125H3V9.82812H4ZM4 9.84375V9.82812H3V9.84375H4ZM4 9.85938V9.84375H3V9.85938H4ZM4 9.875V9.85938H3V9.875H4ZM4 9.89062V9.875H3V9.89062H4ZM4 9.90625V9.89062H3V9.90625H4ZM4 9.92188V9.90625H3V9.92188H4ZM4 9.9375V9.92188H3V9.9375H4ZM4 9.95312V9.9375H3V9.95312H4ZM4 9.96875V9.95312H3V9.96875H4ZM4 9.98438V9.96875H3V9.98438H4ZM4 10V9.98438H3V10H4ZM4 10.0156V10H3V10.0156H4ZM4 10.0312V10.0156H3V10.0312H4ZM4 10.0469V10.0312H3V10.0469H4ZM4 10.0625V10.0469H3V10.0625H4ZM4 10.0781V10.0625H3V10.0781H4ZM4 10.0938V10.0781H3V10.0938H4ZM4 10.1094V10.0938H3V10.1094H4ZM4 10.125V10.1094H3V10.125H4ZM4 10.1406V10.125H3V10.1406H4ZM4 10.1562V10.1406H3V10.1562H4ZM4 10.1719V10.1562H3V10.1719H4ZM4 10.1875V10.1719H3V10.1875H4ZM4 10.2031V10.1875H3V10.2031H4ZM4 10.2188V10.2031H3V10.2188H4ZM4 10.2344V10.2188H3V10.2344H4ZM4 10.25V10.2344H3V10.25H4ZM4 10.2656V10.25H3V10.2656H4ZM4 10.2812V10.2656H3V10.2812H4ZM4 10.2969V10.2812H3V10.2969H4ZM4 10.3125V10.2969H3V10.3125H4ZM4 10.3281V10.3125H3V10.3281H4ZM4 10.3438V10.3281H3V10.3438H4ZM4 10.3594V10.3438H3V10.3594H4ZM4 10.375V10.3594H3V10.375H4ZM4 10.3906V10.375H3V10.3906H4ZM4 10.4062V10.3906H3V10.4062H4ZM4 10.4219V10.4062H3V10.4219H4ZM4 10.4375V10.4219H3V10.4375H4ZM4 10.4531V10.4375H3V10.4531H4ZM4 10.4688V10.4531H3V10.4688H4ZM4 10.4844V10.4688H3V10.4844H4ZM4 10.5V10.4844H3V10.5H4ZM4 10.5156V10.5H3V10.5156H4ZM4 10.5312V10.5156H3V10.5312H4ZM4 10.5469V10.5312H3V10.5469H4ZM4 10.5625V10.5469H3V10.5625H4ZM4 10.5781V10.5625H3V10.5781H4ZM4 10.5938V10.5781H3V10.5938H4ZM4 10.6094V10.5938H3V10.6094H4ZM4 10.625V10.6094H3V10.625H4ZM4 10.6406V10.625H3V10.6406H4ZM4 10.6562V10.6406H3V10.6562H4ZM4 10.6719V10.6562H3V10.6719H4ZM4 10.6875V10.6719H3V10.6875H4ZM4 10.7031V10.6875H3V10.7031H4ZM4 10.7188V10.7031H3V10.7188H4ZM4 10.7344V10.7188H3V10.7344H4ZM4 10.75V10.7344H3V10.75H4ZM4 10.7656V10.75H3V10.7656H4ZM4 10.7812V10.7656H3V10.7812H4ZM4 10.7969V10.7812H3V10.7969H4ZM4 10.8125V10.7969H3V10.8125H4ZM4 10.8281V10.8125H3V10.8281H4ZM4 10.8438V10.8281H3V10.8438H4ZM4 10.8594V10.8438H3V10.8594H4ZM4 10.875V10.8594H3V10.875H4ZM4 10.8906V10.875H3V10.8906H4ZM4 10.9062V10.8906H3V10.9062H4ZM4 10.9219V10.9062H3V10.9219H4ZM4 10.9375V10.9219H3V10.9375H4ZM4 10.9531V10.9375H3V10.9531H4ZM4 10.9688V10.9531H3V10.9688H4ZM4 10.9844V10.9688H3V10.9844H4ZM4 11V10.9844H3V11H4ZM4 11.0156V11H3V11.0156H4ZM4 11.0312V11.0156H3V11.0312H4ZM4 11.0469V11.0312H3V11.0469H4ZM4 11.0625V11.0469H3V11.0625H4ZM4 11.0781V11.0625H3V11.0781H4ZM4 11.0938V11.0781H3V11.0938H4ZM4 11.1094V11.0938H3V11.1094H4ZM4 11.125V11.1094H3V11.125H4ZM4 11.1406V11.125H3V11.1406H4ZM4 11.1562V11.1406H3V11.1562H4ZM4 11.1719V11.1562H3V11.1719H4ZM4 11.1875V11.1719H3V11.1875H4ZM4 11.2031V11.1875H3V11.2031H4ZM4 11.2188V11.2031H3V11.2188H4ZM4 11.2344V11.2188H3V11.2344H4ZM4 11.25V11.2344H3V11.25H4ZM4 11.2656V11.25H3V11.2656H4ZM4 11.2812V11.2656H3V11.2812H4ZM4 11.2969V11.2812H3V11.2969H4ZM4 11.3125V11.2969H3V11.3125H4ZM4 11.3281V11.3125H3V11.3281H4ZM4 11.3438V11.3281H3V11.3438H4ZM4 11.3594V11.3438H3V11.3594H4ZM4 11.375V11.3594H3V11.375H4ZM4 11.3906V11.375H3V11.3906H4ZM4 11.4062V11.3906H3V11.4062H4ZM4 11.4219V11.4062H3V11.4219H4ZM4 11.4375V11.4219H3V11.4375H4ZM4 11.4531V11.4375H3V11.4531H4ZM4 11.4688V11.4531H3V11.4688H4ZM4 11.4844V11.4688H3V11.4844H4ZM4 11.5V11.4844H3V11.5H4ZM4 11.5156V11.5H3V11.5156H4ZM4 11.5312V11.5156H3V11.5312H4ZM4 11.5469V11.5312H3V11.5469H4ZM4 11.5625V11.5469H3V11.5625H4ZM4 11.5781V11.5625H3V11.5781H4ZM4 11.5938V11.5781H3V11.5938H4ZM4 11.6094V11.5938H3V11.6094H4ZM4 11.625V11.6094H3V11.625H4ZM4 11.6406V11.625H3V11.6406H4ZM4 11.6562V11.6406H3V11.6562H4ZM4 11.6719V11.6562H3V11.6719H4ZM4 11.6875V11.6719H3V11.6875H4ZM4 11.7031V11.6875H3V11.7031H4ZM4 11.7188V11.7031H3V11.7188H4ZM4 11.7344V11.7188H3V11.7344H4ZM4 11.75V11.7344H3V11.75H4ZM4 11.7656V11.75H3V11.7656H4ZM4 11.7812V11.7656H3V11.7812H4ZM4 11.7969V11.7812H3V11.7969H4ZM4 11.8125V11.7969H3V11.8125H4ZM4 11.8281V11.8125H3V11.8281H4ZM4 11.8438V11.8281H3V11.8438H4ZM4 11.8594V11.8438H3V11.8594H4ZM4 11.875V11.8594H3V11.875H4ZM4 11.8906V11.875H3V11.8906H4ZM4 11.9062V11.8906H3V11.9062H4ZM4 11.9219V11.9062H3V11.9219H4ZM4 11.9375V11.9219H3V11.9375H4ZM4 11.9531V11.9375H3V11.9531H4ZM4 11.9688V11.9531H3V11.9688H4ZM4 11.9844V11.9688H3V11.9844H4ZM4 12V11.9844H3V12H4ZM4 15V12H3V15H4ZM4 15L4 15H3C3 15.388 3.22446 15.741 3.57584 15.9056L4 15ZM4 15L4 15L3.57585 15.9056C3.92723 16.0702 4.3421 16.0166 4.64018 15.7682L4 15ZM7.04373 12.4636L4 15L4.64018 15.7682L7.68392 13.2318L7.04373 12.4636ZM8.3241 12C7.85623 12 7.40316 12.164 7.04373 12.4636L7.68392 13.2318C7.86363 13.082 8.09016 13 8.3241 13V12ZM11.2 12H8.3241V13H11.2V12ZM15 12H11.2V13H15V12ZM15 12V13C15.5523 13 16 12.5523 16 12H15ZM15 4V12H16V4H15ZM15 4H16C16 3.44772 15.5523 3 15 3V4ZM4 4H15V3H4V4ZM4 4.5V4.51562H5V4.5H4ZM14.5 4H4.5V5H14.5V4ZM15 11.5V4.5H14V11.5H15ZM11.2 12H14.5V11H11.2V12ZM8.3241 12H11.2V11H8.3241V12ZM7.04373 12.4636C7.40316 12.164 7.85623 12 8.3241 12V11C7.62229 11 6.94269 11.246 6.40355 11.6953L7.04373 12.4636ZM4.82009 14.3166L7.04373 12.4636L6.40355 11.6953L4.17991 13.5484L4.82009 14.3166ZM4 12V13.9325H5V12H4ZM4 11.9844V12H5V11.9844H4ZM4 11.9688V11.9844H5V11.9688H4ZM4 11.9531V11.9688H5V11.9531H4ZM4 11.9375V11.9531H5V11.9375H4ZM4 11.9219V11.9375H5V11.9219H4ZM4 11.9062V11.9219H5V11.9062H4ZM4 11.8906V11.9062H5V11.8906H4ZM4 11.875V11.8906H5V11.875H4ZM4 11.8594V11.875H5V11.8594H4ZM4 11.8438V11.8594H5V11.8438H4ZM4 11.8281V11.8438H5V11.8281H4ZM4 11.8125V11.8281H5V11.8125H4ZM4 11.7969V11.8125H5V11.7969H4ZM4 11.7812V11.7969H5V11.7812H4ZM4 11.7656V11.7812H5V11.7656H4ZM4 11.75V11.7656H5V11.75H4ZM4 11.7344V11.75H5V11.7344H4ZM4 11.7188V11.7344H5V11.7188H4ZM4 11.7031V11.7188H5V11.7031H4ZM4 11.6875V11.7031H5V11.6875H4ZM4 11.6719V11.6875H5V11.6719H4ZM4 11.6562V11.6719H5V11.6562H4ZM4 11.6406V11.6562H5V11.6406H4ZM4 11.625V11.6406H5V11.625H4ZM4 11.6094V11.625H5V11.6094H4ZM4 11.5938V11.6094H5V11.5938H4ZM4 11.5781V11.5938H5V11.5781H4ZM4 11.5625V11.5781H5V11.5625H4ZM4 11.5469V11.5625H5V11.5469H4ZM4 11.5312V11.5469H5V11.5312H4ZM4 11.5156V11.5312H5V11.5156H4ZM4 11.5V11.5156H5V11.5H4ZM4 11.4844V11.5H5V11.4844H4ZM4 11.4688V11.4844H5V11.4688H4ZM4 11.4531V11.4688H5V11.4531H4ZM4 11.4375V11.4531H5V11.4375H4ZM4 11.4219V11.4375H5V11.4219H4ZM4 11.4062V11.4219H5V11.4062H4ZM4 11.3906V11.4062H5V11.3906H4ZM4 11.375V11.3906H5V11.375H4ZM4 11.3594V11.375H5V11.3594H4ZM4 11.3438V11.3594H5V11.3438H4ZM4 11.3281V11.3438H5V11.3281H4ZM4 11.3125V11.3281H5V11.3125H4ZM4 11.2969V11.3125H5V11.2969H4ZM4 11.2812V11.2969H5V11.2812H4ZM4 11.2656V11.2812H5V11.2656H4ZM4 11.25V11.2656H5V11.25H4ZM4 11.2344V11.25H5V11.2344H4ZM4 11.2188V11.2344H5V11.2188H4ZM4 11.2031V11.2188H5V11.2031H4ZM4 11.1875V11.2031H5V11.1875H4ZM4 11.1719V11.1875H5V11.1719H4ZM4 11.1562V11.1719H5V11.1562H4ZM4 11.1406V11.1562H5V11.1406H4ZM4 11.125V11.1406H5V11.125H4ZM4 11.1094V11.125H5V11.1094H4ZM4 11.0938V11.1094H5V11.0938H4ZM4 11.0781V11.0938H5V11.0781H4ZM4 11.0625V11.0781H5V11.0625H4ZM4 11.0469V11.0625H5V11.0469H4ZM4 11.0312V11.0469H5V11.0312H4ZM4 11.0156V11.0312H5V11.0156H4ZM4 11V11.0156H5V11H4ZM4 10.9844V11H5V10.9844H4ZM4 10.9688V10.9844H5V10.9688H4ZM4 10.9531V10.9688H5V10.9531H4ZM4 10.9375V10.9531H5V10.9375H4ZM4 10.9219V10.9375H5V10.9219H4ZM4 10.9062V10.9219H5V10.9062H4ZM4 10.8906V10.9062H5V10.8906H4ZM4 10.875V10.8906H5V10.875H4ZM4 10.8594V10.875H5V10.8594H4ZM4 10.8438V10.8594H5V10.8438H4ZM4 10.8281V10.8438H5V10.8281H4ZM4 10.8125V10.8281H5V10.8125H4ZM4 10.7969V10.8125H5V10.7969H4ZM4 10.7812V10.7969H5V10.7812H4ZM4 10.7656V10.7812H5V10.7656H4ZM4 10.75V10.7656H5V10.75H4ZM4 10.7344V10.75H5V10.7344H4ZM4 10.7188V10.7344H5V10.7188H4ZM4 10.7031V10.7188H5V10.7031H4ZM4 10.6875V10.7031H5V10.6875H4ZM4 10.6719V10.6875H5V10.6719H4ZM4 10.6562V10.6719H5V10.6562H4ZM4 10.6406V10.6562H5V10.6406H4ZM4 10.625V10.6406H5V10.625H4ZM4 10.6094V10.625H5V10.6094H4ZM4 10.5938V10.6094H5V10.5938H4ZM4 10.5781V10.5938H5V10.5781H4ZM4 10.5625V10.5781H5V10.5625H4ZM4 10.5469V10.5625H5V10.5469H4ZM4 10.5312V10.5469H5V10.5312H4ZM4 10.5156V10.5312H5V10.5156H4ZM4 10.5V10.5156H5V10.5H4ZM4 10.4844V10.5H5V10.4844H4ZM4 10.4688V10.4844H5V10.4688H4ZM4 10.4531V10.4688H5V10.4531H4ZM4 10.4375V10.4531H5V10.4375H4ZM4 10.4219V10.4375H5V10.4219H4ZM4 10.4062V10.4219H5V10.4062H4ZM4 10.3906V10.4062H5V10.3906H4ZM4 10.375V10.3906H5V10.375H4ZM4 10.3594V10.375H5V10.3594H4ZM4 10.3438V10.3594H5V10.3438H4ZM4 10.3281V10.3438H5V10.3281H4ZM4 10.3125V10.3281H5V10.3125H4ZM4 10.2969V10.3125H5V10.2969H4ZM4 10.2812V10.2969H5V10.2812H4ZM4 10.2656V10.2812H5V10.2656H4ZM4 10.25V10.2656H5V10.25H4ZM4 10.2344V10.25H5V10.2344H4ZM4 10.2188V10.2344H5V10.2188H4ZM4 10.2031V10.2188H5V10.2031H4ZM4 10.1875V10.2031H5V10.1875H4ZM4 10.1719V10.1875H5V10.1719H4ZM4 10.1562V10.1719H5V10.1562H4ZM4 10.1406V10.1562H5V10.1406H4ZM4 10.125V10.1406H5V10.125H4ZM4 10.1094V10.125H5V10.1094H4ZM4 10.0938V10.1094H5V10.0938H4ZM4 10.0781V10.0938H5V10.0781H4ZM4 10.0625V10.0781H5V10.0625H4ZM4 10.0469V10.0625H5V10.0469H4ZM4 10.0312V10.0469H5V10.0312H4ZM4 10.0156V10.0312H5V10.0156H4ZM4 10V10.0156H5V10H4ZM4 9.98438V10H5V9.98438H4ZM4 9.96875V9.98438H5V9.96875H4ZM4 9.95312V9.96875H5V9.95312H4ZM4 9.9375V9.95312H5V9.9375H4ZM4 9.92188V9.9375H5V9.92188H4ZM4 9.90625V9.92188H5V9.90625H4ZM4 9.89062V9.90625H5V9.89062H4ZM4 9.875V9.89062H5V9.875H4ZM4 9.85938V9.875H5V9.85938H4ZM4 9.84375V9.85938H5V9.84375H4ZM4 9.82812V9.84375H5V9.82812H4ZM4 9.8125V9.82812H5V9.8125H4ZM4 9.79688V9.8125H5V9.79688H4ZM4 9.78125V9.79688H5V9.78125H4ZM4 9.76562V9.78125H5V9.76562H4ZM4 9.75V9.76562H5V9.75H4ZM4 9.73438V9.75H5V9.73438H4ZM4 9.71875V9.73438H5V9.71875H4ZM4 9.70312V9.71875H5V9.70312H4ZM4 9.6875V9.70312H5V9.6875H4ZM4 9.67188V9.6875H5V9.67188H4ZM4 9.65625V9.67188H5V9.65625H4ZM4 9.64062V9.65625H5V9.64062H4ZM4 9.625V9.64062H5V9.625H4ZM4 9.60938V9.625H5V9.60938H4ZM4 9.59375V9.60938H5V9.59375H4ZM4 9.57812V9.59375H5V9.57812H4ZM4 9.5625V9.57812H5V9.5625H4ZM4 9.54688V9.5625H5V9.54688H4ZM4 9.53125V9.54688H5V9.53125H4ZM4 9.51562V9.53125H5V9.51562H4ZM4 9.5V9.51562H5V9.5H4ZM4 9.48438V9.5H5V9.48438H4ZM4 9.46875V9.48438H5V9.46875H4ZM4 9.45312V9.46875H5V9.45312H4ZM4 9.4375V9.45312H5V9.4375H4ZM4 9.42188V9.4375H5V9.42188H4ZM4 9.40625V9.42188H5V9.40625H4ZM4 9.39062V9.40625H5V9.39062H4ZM4 9.375V9.39062H5V9.375H4ZM4 9.35938V9.375H5V9.35938H4ZM4 9.34375V9.35938H5V9.34375H4ZM4 9.32812V9.34375H5V9.32812H4ZM4 9.3125V9.32812H5V9.3125H4ZM4 9.29688V9.3125H5V9.29688H4ZM4 9.28125V9.29688H5V9.28125H4ZM4 9.26562V9.28125H5V9.26562H4ZM4 9.25V9.26562H5V9.25H4ZM4 9.23438V9.25H5V9.23438H4ZM4 9.21875V9.23438H5V9.21875H4ZM4 9.20312V9.21875H5V9.20312H4ZM4 9.1875V9.20312H5V9.1875H4ZM4 9.17188V9.1875H5V9.17188H4ZM4 9.15625V9.17188H5V9.15625H4ZM4 9.14062V9.15625H5V9.14062H4ZM4 9.125V9.14062H5V9.125H4ZM4 9.10938V9.125H5V9.10938H4ZM4 9.09375V9.10938H5V9.09375H4ZM4 9.07812V9.09375H5V9.07812H4ZM4 9.0625V9.07812H5V9.0625H4ZM4 9.04688V9.0625H5V9.04688H4ZM4 9.03125V9.04688H5V9.03125H4ZM4 9.01562V9.03125H5V9.01562H4ZM4 9V9.01562H5V9H4ZM4 8.98438V9H5V8.98438H4ZM4 8.96875V8.98438H5V8.96875H4ZM4 8.95312V8.96875H5V8.95312H4ZM4 8.9375V8.95312H5V8.9375H4ZM4 8.92188V8.9375H5V8.92188H4ZM4 8.90625V8.92188H5V8.90625H4ZM4 8.89062V8.90625H5V8.89062H4ZM4 8.875V8.89062H5V8.875H4ZM4 8.85938V8.875H5V8.85938H4ZM4 8.84375V8.85938H5V8.84375H4ZM4 8.82812V8.84375H5V8.82812H4ZM4 8.8125V8.82812H5V8.8125H4ZM4 8.79688V8.8125H5V8.79688H4ZM4 8.78125V8.79688H5V8.78125H4ZM4 8.76562V8.78125H5V8.76562H4ZM4 8.75V8.76562H5V8.75H4ZM4 8.73438V8.75H5V8.73438H4ZM4 8.71875V8.73438H5V8.71875H4ZM4 8.70312V8.71875H5V8.70312H4ZM4 8.6875V8.70312H5V8.6875H4ZM4 8.67188V8.6875H5V8.67188H4ZM4 8.65625V8.67188H5V8.65625H4ZM4 8.64062V8.65625H5V8.64062H4ZM4 8.625V8.64062H5V8.625H4ZM4 8.60938V8.625H5V8.60938H4ZM4 8.59375V8.60938H5V8.59375H4ZM4 8.57812V8.59375H5V8.57812H4ZM4 8.5625V8.57812H5V8.5625H4ZM4 8.54688V8.5625H5V8.54688H4ZM4 8.53125V8.54688H5V8.53125H4ZM4 8.51562V8.53125H5V8.51562H4ZM4 8.5V8.51562H5V8.5H4ZM4 8.48438V8.5H5V8.48438H4ZM4 8.46875V8.48438H5V8.46875H4ZM4 8.45312V8.46875H5V8.45312H4ZM4 8.4375V8.45312H5V8.4375H4ZM4 8.42188V8.4375H5V8.42188H4ZM4 8.40625V8.42188H5V8.40625H4ZM4 8.39062V8.40625H5V8.39062H4ZM4 8.375V8.39062H5V8.375H4ZM4 8.35938V8.375H5V8.35938H4ZM4 8.34375V8.35938H5V8.34375H4ZM4 8.32812V8.34375H5V8.32812H4ZM4 8.3125V8.32812H5V8.3125H4ZM4 8.29688V8.3125H5V8.29688H4ZM4 8.28125V8.29688H5V8.28125H4ZM4 8.26562V8.28125H5V8.26562H4ZM4 8.25V8.26562H5V8.25H4ZM4 8.23438V8.25H5V8.23438H4ZM4 8.21875V8.23438H5V8.21875H4ZM4 8.20312V8.21875H5V8.20312H4ZM4 8.1875V8.20312H5V8.1875H4ZM4 8.17188V8.1875H5V8.17188H4ZM4 8.15625V8.17188H5V8.15625H4ZM4 8.14062V8.15625H5V8.14062H4ZM4 8.125V8.14062H5V8.125H4ZM4 8.10938V8.125H5V8.10938H4ZM4 8.09375V8.10938H5V8.09375H4ZM4 8.07812V8.09375H5V8.07812H4ZM4 8.0625V8.07812H5V8.0625H4ZM4 8.04688V8.0625H5V8.04688H4ZM4 8.03125V8.04688H5V8.03125H4ZM4 8.01562V8.03125H5V8.01562H4ZM4 8V8.01562H5V8H4ZM4 7.98438V8H5V7.98438H4ZM4 7.96875V7.98438H5V7.96875H4ZM4 7.95312V7.96875H5V7.95312H4ZM4 7.9375V7.95312H5V7.9375H4ZM4 7.92188V7.9375H5V7.92188H4ZM4 7.90625V7.92188H5V7.90625H4ZM4 7.89062V7.90625H5V7.89062H4ZM4 7.875V7.89062H5V7.875H4ZM4 7.85938V7.875H5V7.85938H4ZM4 7.84375V7.85938H5V7.84375H4ZM4 7.82812V7.84375H5V7.82812H4ZM4 7.8125V7.82812H5V7.8125H4ZM4 7.79688V7.8125H5V7.79688H4ZM4 7.78125V7.79688H5V7.78125H4ZM4 7.76562V7.78125H5V7.76562H4ZM4 7.75V7.76562H5V7.75H4ZM4 7.73438V7.75H5V7.73438H4ZM4 7.71875V7.73438H5V7.71875H4ZM4 7.70312V7.71875H5V7.70312H4ZM4 7.6875V7.70312H5V7.6875H4ZM4 7.67188V7.6875H5V7.67188H4ZM4 7.65625V7.67188H5V7.65625H4ZM4 7.64062V7.65625H5V7.64062H4ZM4 7.625V7.64062H5V7.625H4ZM4 7.60938V7.625H5V7.60938H4ZM4 7.59375V7.60938H5V7.59375H4ZM4 7.57812V7.59375H5V7.57812H4ZM4 7.5625V7.57812H5V7.5625H4ZM4 7.54688V7.5625H5V7.54688H4ZM4 7.53125V7.54688H5V7.53125H4ZM4 7.51562V7.53125H5V7.51562H4ZM4 7.5V7.51562H5V7.5H4ZM4 7.48438V7.5H5V7.48438H4ZM4 7.46875V7.48438H5V7.46875H4ZM4 7.45312V7.46875H5V7.45312H4ZM4 7.4375V7.45312H5V7.4375H4ZM4 7.42188V7.4375H5V7.42188H4ZM4 7.40625V7.42188H5V7.40625H4ZM4 7.39062V7.40625H5V7.39062H4ZM4 7.375V7.39062H5V7.375H4ZM4 7.35938V7.375H5V7.35938H4ZM4 7.34375V7.35938H5V7.34375H4ZM4 7.32812V7.34375H5V7.32812H4ZM4 7.3125V7.32812H5V7.3125H4ZM4 7.29688V7.3125H5V7.29688H4ZM4 7.28125V7.29688H5V7.28125H4ZM4 7.26562V7.28125H5V7.26562H4ZM4 7.25V7.26562H5V7.25H4ZM4 7.23438V7.25H5V7.23438H4ZM4 7.21875V7.23438H5V7.21875H4ZM4 7.20312V7.21875H5V7.20312H4ZM4 7.1875V7.20312H5V7.1875H4ZM4 7.17188V7.1875H5V7.17188H4ZM4 7.15625V7.17188H5V7.15625H4ZM4 7.14062V7.15625H5V7.14062H4ZM4 7.125V7.14062H5V7.125H4ZM4 7.10938V7.125H5V7.10938H4ZM4 7.09375V7.10938H5V7.09375H4ZM4 7.07812V7.09375H5V7.07812H4ZM4 7.0625V7.07812H5V7.0625H4ZM4 7.04688V7.0625H5V7.04688H4ZM4 7.03125V7.04688H5V7.03125H4ZM4 7.01562V7.03125H5V7.01562H4ZM4 7V7.01562H5V7H4ZM4 6.98438V7H5V6.98438H4ZM4 6.96875V6.98438H5V6.96875H4ZM4 6.95312V6.96875H5V6.95312H4ZM4 6.9375V6.95312H5V6.9375H4ZM4 6.92188V6.9375H5V6.92188H4ZM4 6.90625V6.92188H5V6.90625H4ZM4 6.89062V6.90625H5V6.89062H4ZM4 6.875V6.89062H5V6.875H4ZM4 6.85938V6.875H5V6.85938H4ZM4 6.84375V6.85938H5V6.84375H4ZM4 6.82812V6.84375H5V6.82812H4ZM4 6.8125V6.82812H5V6.8125H4ZM4 6.79688V6.8125H5V6.79688H4ZM4 6.78125V6.79688H5V6.78125H4ZM4 6.76562V6.78125H5V6.76562H4ZM4 6.75V6.76562H5V6.75H4ZM4 6.73438V6.75H5V6.73438H4ZM4 6.71875V6.73438H5V6.71875H4ZM4 6.70312V6.71875H5V6.70312H4ZM4 6.6875V6.70312H5V6.6875H4ZM4 6.67188V6.6875H5V6.67188H4ZM4 6.65625V6.67188H5V6.65625H4ZM4 6.64062V6.65625H5V6.64062H4ZM4 6.625V6.64062H5V6.625H4ZM4 6.60938V6.625H5V6.60938H4ZM4 6.59375V6.60938H5V6.59375H4ZM4 6.57812V6.59375H5V6.57812H4ZM4 6.5625V6.57812H5V6.5625H4ZM4 6.54688V6.5625H5V6.54688H4ZM4 6.53125V6.54688H5V6.53125H4ZM4 6.51562V6.53125H5V6.51562H4ZM4 6.5V6.51562H5V6.5H4ZM4 6.48438V6.5H5V6.48438H4ZM4 6.46875V6.48438H5V6.46875H4ZM4 6.45312V6.46875H5V6.45312H4ZM4 6.4375V6.45312H5V6.4375H4ZM4 6.42188V6.4375H5V6.42188H4ZM4 6.40625V6.42188H5V6.40625H4ZM4 6.39062V6.40625H5V6.39062H4ZM4 6.375V6.39062H5V6.375H4ZM4 6.35938V6.375H5V6.35938H4ZM4 6.34375V6.35938H5V6.34375H4ZM4 6.32812V6.34375H5V6.32812H4ZM4 6.3125V6.32812H5V6.3125H4ZM4 6.29688V6.3125H5V6.29688H4ZM4 6.28125V6.29688H5V6.28125H4ZM4 6.26562V6.28125H5V6.26562H4ZM4 6.25V6.26562H5V6.25H4ZM4 6.23438V6.25H5V6.23438H4ZM4 6.21875V6.23438H5V6.21875H4ZM4 6.20312V6.21875H5V6.20312H4ZM4 6.1875V6.20312H5V6.1875H4ZM4 6.17188V6.1875H5V6.17188H4ZM4 6.15625V6.17188H5V6.15625H4ZM4 6.14062V6.15625H5V6.14062H4ZM4 6.125V6.14062H5V6.125H4ZM4 6.10938V6.125H5V6.10938H4ZM4 6.09375V6.10938H5V6.09375H4ZM4 6.07812V6.09375H5V6.07812H4ZM4 6.0625V6.07812H5V6.0625H4ZM4 6.04688V6.0625H5V6.04688H4ZM4 6.03125V6.04688H5V6.03125H4ZM4 6.01562V6.03125H5V6.01562H4ZM4 6V6.01562H5V6H4ZM4 5.98438V6H5V5.98438H4ZM4 5.96875V5.98438H5V5.96875H4ZM4 5.95312V5.96875H5V5.95312H4ZM4 5.9375V5.95312H5V5.9375H4ZM4 5.92188V5.9375H5V5.92188H4ZM4 5.90625V5.92188H5V5.90625H4ZM4 5.89062V5.90625H5V5.89062H4ZM4 5.875V5.89062H5V5.875H4ZM4 5.85938V5.875H5V5.85938H4ZM4 5.84375V5.85938H5V5.84375H4ZM4 5.82812V5.84375H5V5.82812H4ZM4 5.8125V5.82812H5V5.8125H4ZM4 5.79688V5.8125H5V5.79688H4ZM4 5.78125V5.79688H5V5.78125H4ZM4 5.76562V5.78125H5V5.76562H4ZM4 5.75V5.76562H5V5.75H4ZM4 5.73438V5.75H5V5.73438H4ZM4 5.71875V5.73438H5V5.71875H4ZM4 5.70312V5.71875H5V5.70312H4ZM4 5.6875V5.70312H5V5.6875H4ZM4 5.67188V5.6875H5V5.67188H4ZM4 5.65625V5.67188H5V5.65625H4ZM4 5.64062V5.65625H5V5.64062H4ZM4 5.625V5.64062H5V5.625H4ZM4 5.60938V5.625H5V5.60938H4ZM4 5.59375V5.60938H5V5.59375H4ZM4 5.57812V5.59375H5V5.57812H4ZM4 5.5625V5.57812H5V5.5625H4ZM4 5.54688V5.5625H5V5.54688H4ZM4 5.53125V5.54688H5V5.53125H4ZM4 5.51562V5.53125H5V5.51562H4ZM4 5.5V5.51562H5V5.5H4ZM4 5.48438V5.5H5V5.48438H4ZM4 5.46875V5.48438H5V5.46875H4ZM4 5.45312V5.46875H5V5.45312H4ZM4 5.4375V5.45312H5V5.4375H4ZM4 5.42188V5.4375H5V5.42188H4ZM4 5.40625V5.42188H5V5.40625H4ZM4 5.39062V5.40625H5V5.39062H4ZM4 5.375V5.39062H5V5.375H4ZM4 5.35938V5.375H5V5.35938H4ZM4 5.34375V5.35938H5V5.34375H4ZM4 5.32812V5.34375H5V5.32812H4ZM4 5.3125V5.32812H5V5.3125H4ZM4 5.29688V5.3125H5V5.29688H4ZM4 5.28125V5.29688H5V5.28125H4ZM4 5.26562V5.28125H5V5.26562H4ZM4 5.25V5.26562H5V5.25H4ZM4 5.23438V5.25H5V5.23438H4ZM4 5.21875V5.23438H5V5.21875H4ZM4 5.20312V5.21875H5V5.20312H4ZM4 5.1875V5.20312H5V5.1875H4ZM4 5.17188V5.1875H5V5.17188H4ZM4 5.15625V5.17188H5V5.15625H4ZM4 5.14062V5.15625H5V5.14062H4ZM4 5.125V5.14062H5V5.125H4ZM4 5.10938V5.125H5V5.10938H4ZM4 5.09375V5.10938H5V5.09375H4ZM4 5.07812V5.09375H5V5.07812H4ZM4 5.0625V5.07812H5V5.0625H4ZM4 5.04688V5.0625H5V5.04688H4ZM4 5.03125V5.04688H5V5.03125H4ZM4 5.01562V5.03125H5V5.01562H4ZM4 5V5.01562H5V5H4ZM4 4.98438V5H5V4.98438H4ZM4 4.96875V4.98438H5V4.96875H4ZM4 4.95312V4.96875H5V4.95312H4ZM4 4.9375V4.95312H5V4.9375H4ZM4 4.92188V4.9375H5V4.92188H4ZM4 4.90625V4.92188H5V4.90625H4ZM4 4.89062V4.90625H5V4.89062H4ZM4 4.875V4.89062H5V4.875H4ZM4 4.85938V4.875H5V4.85938H4ZM4 4.84375V4.85938H5V4.84375H4ZM4 4.82812V4.84375H5V4.82812H4ZM4 4.8125V4.82812H5V4.8125H4ZM4 4.79688V4.8125H5V4.79688H4ZM4 4.78125V4.79688H5V4.78125H4ZM4 4.76562V4.78125H5V4.76562H4ZM4 4.75V4.76562H5V4.75H4ZM4 4.73438V4.75H5V4.73438H4ZM4 4.71875V4.73438H5V4.71875H4ZM4 4.70312V4.71875H5V4.70312H4ZM4 4.6875V4.70312H5V4.6875H4ZM4 4.67188V4.6875H5V4.67188H4ZM4 4.65625V4.67188H5V4.65625H4ZM4 4.64062V4.65625H5V4.64062H4ZM4 4.625V4.64062H5V4.625H4ZM4 4.60938V4.625H5V4.60938H4ZM4 4.59375V4.60938H5V4.59375H4ZM4 4.57812V4.59375H5V4.57812H4ZM4 4.5625V4.57812H5V4.5625H4ZM4 4.54688V4.5625H5V4.54688H4ZM4 4.53125V4.54688H5V4.53125H4ZM4 4.51562V4.53125H5V4.51562H4ZM20.5 17V7.5H19.5V17H20.5ZM20.5 20V17H19.5V20H20.5ZM17.2322 17.9393L19.6464 20.3536L20.3536 19.6464L17.9393 17.2322L17.2322 17.9393ZM16.1716 17.5C16.5694 17.5 16.9509 17.658 17.2322 17.9393L17.9393 17.2322C17.4705 16.7634 16.8346 16.5 16.1716 16.5V17.5ZM14 17.5H16.1716V16.5H14V17.5ZM8 17.5H14V16.5H8V17.5ZM7.5 15.5V17H8.5V15.5H7.5ZM16.5 15H8V16H16.5V15ZM18 13.5C18 14.3284 17.3284 15 16.5 15V16C17.8807 16 19 14.8807 19 13.5H18ZM18 7.5V13.5H19V7.5H18ZM20 7H18.5V8H20V7Z" fill="black"/>
</svg>
