<svg width="24" height="24" viewBox="0 0 24 24" fill="none" xmlns="http://www.w3.org/2000/svg">
<path fill-rule="evenodd" clip-rule="evenodd" d="M12.7071 4.62132C12.3166 4.2308 11.6834 4.2308 11.2929 4.62132L4.62132 11.2929C4.2308 11.6834 4.2308 12.3166 4.62132 12.7071L11.2929 19.3787C11.6834 19.7692 12.3166 19.7692 12.7071 19.3787L19.3787 12.7071C19.7692 12.3166 19.7692 11.6834 19.3787 11.2929L12.7071 4.62132ZM9.87868 3.20711C11.0503 2.03554 12.9498 2.03554 14.1213 3.20711L20.7929 9.87869C21.9645 11.0503 21.9645 12.9498 20.7929 14.1213L14.1213 20.7929C12.9497 21.9645 11.0502 21.9645 9.87868 20.7929L3.20711 14.1213C2.03554 12.9498 2.03554 11.0503 3.20711 9.87869L9.87868 3.20711ZM11 15C11 15.5523 11.4477 16 12 16C12.5523 16 13 15.5523 13 15C13 14.4477 12.5523 14 12 14C11.4477 14 11 14.4477 11 15ZM13 8V12C13 12.5523 12.5523 13 12 13C11.4477 13 11 12.5523 11 12V8C11 7.44772 11.4477 7 12 7C12.5523 7 13 7.44772 13 8Z" fill="black"/>
</svg>
