<svg width="24" height="24" viewBox="0 0 24 24" fill="none" xmlns="http://www.w3.org/2000/svg">
<path fill-rule="evenodd" clip-rule="evenodd" d="M9 6C9 5.44772 8.55228 5 8 5C7.44772 5 7 5.44772 7 6V12V18C7 18.5523 7.44772 19 8 19C8.55228 19 9 18.5523 9 18V13H15V13.5C15 14.0523 15.4477 14.5 16 14.5C16.5523 14.5 17 14.0523 17 13.5V12V6C17 5.44772 16.5523 5 16 5C15.4477 5 15 5.44772 15 6V11H9V6ZM17 17C17 16.5955 16.7564 16.2309 16.3827 16.0761C16.009 15.9213 15.5789 16.0069 15.2929 16.2929L13.2929 18.2929C12.9024 18.6834 12.9024 19.3166 13.2929 19.7071C13.6834 20.0976 14.3166 20.0976 14.7071 19.7071L15 19.4142V22C15 22.5523 15.4477 23 16 23C16.5523 23 17 22.5523 17 22V17Z" fill="black"/>
</svg>
