<svg width="24" height="24" viewBox="0 0 24 24" fill="none" xmlns="http://www.w3.org/2000/svg">
<path fill-rule="evenodd" clip-rule="evenodd" d="M8.5 5C9.88071 5 11 6.04467 11 7.33333C11 11.6111 7.66667 12 6.55556 12C7.47979 11.4177 8.07729 10.5126 8.23614 9.65383C6.97946 9.53079 6 8.53882 6 7.33333C6 6.04467 7.11929 5 8.5 5ZM15.5 5C16.8807 5 18 6.04467 18 7.33333C18 11.6111 14.6667 12 13.5556 12C14.4798 11.4177 15.0773 10.5126 15.2361 9.65383C13.9795 9.53079 13 8.53882 13 7.33333C13 6.04467 14.1193 5 15.5 5Z" fill="black"/>
<path d="M6.55556 12L6.28904 11.577C6.10059 11.6957 6.01339 11.9247 6.07518 12.1387C6.13696 12.3527 6.33283 12.5 6.55556 12.5V12ZM8.23614 9.65383L8.7278 9.74477C8.75327 9.60709 8.71984 9.46504 8.63565 9.35317C8.55146 9.24129 8.42421 9.16985 8.28486 9.1562L8.23614 9.65383ZM13.5556 12L13.289 11.577C13.1006 11.6957 13.0134 11.9247 13.0752 12.1387C13.137 12.3527 13.3328 12.5 13.5556 12.5V12ZM15.2361 9.65383L15.7278 9.74477C15.7533 9.60709 15.7198 9.46504 15.6356 9.35317C15.5515 9.24129 15.4242 9.16985 15.2849 9.1562L15.2361 9.65383ZM11.5 7.33333C11.5 5.7366 10.1238 4.5 8.5 4.5V5.5C9.63762 5.5 10.5 6.35274 10.5 7.33333H11.5ZM6.55556 12.5C7.15236 12.5 8.37708 12.3985 9.46694 11.6901C10.5936 10.9577 11.5 9.62597 11.5 7.33333H10.5C10.5 9.31847 9.73976 10.32 8.92195 10.8516C8.06736 11.4071 7.06986 11.5 6.55556 11.5V12.5ZM7.74448 9.56288C7.61303 10.2735 7.10481 11.063 6.28904 11.577L6.82207 12.423C7.85477 11.7724 8.54155 10.7516 8.7278 9.74477L7.74448 9.56288ZM5.5 7.33333C5.5 8.82608 6.70567 10.0064 8.18742 10.1514L8.28486 9.1562C7.25325 9.05521 6.5 8.25156 6.5 7.33333H5.5ZM8.5 4.5C6.8762 4.5 5.5 5.7366 5.5 7.33333H6.5C6.5 6.35274 7.36238 5.5 8.5 5.5V4.5ZM18.5 7.33333C18.5 5.7366 17.1238 4.5 15.5 4.5V5.5C16.6376 5.5 17.5 6.35274 17.5 7.33333H18.5ZM13.5556 12.5C14.1524 12.5 15.3771 12.3985 16.4669 11.6901C17.5936 10.9577 18.5 9.62597 18.5 7.33333H17.5C17.5 9.31847 16.7398 10.32 15.922 10.8516C15.0674 11.4071 14.0699 11.5 13.5556 11.5V12.5ZM14.7445 9.56288C14.613 10.2735 14.1048 11.063 13.289 11.577L13.8221 12.423C14.8548 11.7724 15.5416 10.7516 15.7278 9.74477L14.7445 9.56288ZM12.5 7.33333C12.5 8.82608 13.7057 10.0064 15.1874 10.1514L15.2849 9.1562C14.2532 9.05521 13.5 8.25156 13.5 7.33333H12.5ZM15.5 4.5C13.8762 4.5 12.5 5.7366 12.5 7.33333H13.5C13.5 6.35274 14.3624 5.5 15.5 5.5V4.5Z" fill="black"/>
</svg>
