<svg width="24" height="24" viewBox="0 0 24 24" fill="none" xmlns="http://www.w3.org/2000/svg">
<path fill-rule="evenodd" clip-rule="evenodd" d="M6.3995 0.0403908C6.3348 0.0542054 6.09213 0.136226 5.86029 0.222635C5.62841 0.309098 5.39275 0.379796 5.33666 0.379796C5.28057 0.379796 5.20679 0.418477 5.17272 0.465717C5.10369 0.561498 4.77868 0.748997 4.62133 0.783885C4.50252 0.810269 4.47899 0.826196 4.15191 1.1027C4.01644 1.21723 3.90487 1.33912 3.90402 1.37358C3.90082 1.50035 3.72173 1.67977 3.49911 1.77929C3.32487 1.85709 3.2477 1.93055 3.17537 2.08711C3.12314 2.20023 3.04875 2.30728 3.01002 2.325C2.81234 2.41541 2.63462 2.6307 2.60638 2.81381C2.59001 2.92021 2.53679 3.08328 2.48818 3.17619C2.43957 3.2691 2.39981 3.3924 2.39981 3.45026C2.39981 3.50806 2.36871 3.60271 2.33073 3.66057C2.29271 3.71837 2.26095 3.80473 2.26015 3.85245C2.25931 3.90018 2.20307 4.05864 2.13517 4.20459C1.96479 4.57092 1.83557 5.01824 1.83303 5.25049C1.82776 5.73156 1.63785 5.85004 1.55856 5.42168C1.53296 5.28337 1.51913 5.27205 1.44845 5.33191C1.3446 5.41984 1.30093 6.55577 1.39989 6.59538C1.43673 6.61011 1.45871 6.56829 1.45871 6.4834C1.45871 6.29211 1.50492 6.1765 1.58138 6.1765C1.70928 6.1765 1.56167 6.85531 1.41034 6.96301C1.32361 7.02466 1.35971 7.20582 1.45871 7.20582C1.54426 7.20582 1.55282 7.24195 1.55282 7.60373C1.55282 7.93284 1.5691 8.0186 1.64693 8.0997C1.75619 8.21352 1.77083 8.34349 1.67436 8.34349C1.55691 8.34349 1.56585 8.47004 1.69916 8.69411C1.77995 8.83003 1.81233 8.93172 1.78499 8.96379C1.71384 9.04711 1.73431 9.1865 1.83275 9.289C1.91952 9.37947 1.92046 9.39594 1.85002 9.59866C1.76132 9.85377 1.81318 10.0432 1.99824 10.1402C2.14929 10.2195 2.18505 10.3562 2.1139 10.5827C2.02737 10.8583 2.09089 11.1606 2.2354 11.1606C2.29789 11.1606 2.37633 11.1983 2.40974 11.2444C2.4431 11.2905 2.51274 11.3776 2.5645 11.4378C2.65466 11.5428 2.65509 11.5504 2.57377 11.6194C2.44141 11.7317 2.18261 11.601 1.90649 11.2825C1.84837 11.2154 1.78635 11.1606 1.76866 11.1606C1.72415 11.1606 1.50906 10.874 1.50727 10.8122C1.50511 10.74 1.20678 10.2427 1.16461 10.241C1.04382 10.2362 1.18391 10.9842 1.3222 11.0826C1.34738 11.1006 1.28983 11.1866 1.19435 11.274C1.09888 11.3613 1.00844 11.4187 0.993428 11.4014C0.948914 11.3501 0.853298 10.7719 0.850004 10.5342C0.848357 10.4132 0.804737 10.2134 0.753117 10.0904C0.699569 9.96288 0.662442 9.77219 0.666724 9.64672C0.678488 9.30114 0.47601 9.26971 0.39324 9.60435C0.363595 9.72419 0.295083 9.81314 0.175139 9.88747L0.000235276 9.99582L0.000141165 11.711L0 13.4263L0.130249 13.553C0.270191 13.6891 0.409615 13.9252 0.561038 14.2824C0.615199 14.4102 0.699192 14.5189 0.757164 14.5364C0.848686 14.5639 0.855415 14.5909 0.826335 14.814C0.797161 15.0383 0.802996 15.0612 0.88953 15.0612C0.94195 15.0612 1.00769 15.1103 1.03559 15.1703C1.08886 15.2849 1.06914 15.3061 0.875555 15.3424C0.726767 15.3703 0.683335 15.5097 0.767657 15.6885C0.964724 16.1059 0.961666 16.0943 0.903176 16.2021C0.754294 16.4766 0.948632 16.6995 1.37552 16.744C1.39443 16.7459 1.47913 16.7731 1.56374 16.8043C1.64829 16.8355 1.84456 16.8898 1.99984 16.9252C2.32899 16.9999 2.44306 17.2309 2.18731 17.3048C2.11932 17.3244 2.07236 17.3701 2.0829 17.4062C2.10934 17.4969 2.2657 17.4948 2.36156 17.4024C2.47891 17.2893 2.54098 17.3678 2.54098 17.6293C2.54098 17.7927 2.56888 17.8905 2.63509 17.9595C2.68685 18.0134 2.7292 18.1093 2.7292 18.1725C2.7292 18.2357 2.84566 18.4557 2.988 18.6613C3.13034 18.867 3.2468 19.0419 3.2468 19.0501C3.2468 19.0583 3.22196 19.1277 3.19161 19.2044C3.15462 19.298 3.15204 19.3619 3.18375 19.3984C3.24633 19.4704 3.37724 19.4092 3.40336 19.2957C3.41479 19.2461 3.42655 19.2956 3.42957 19.4056C3.43342 19.5469 3.46613 19.6309 3.5409 19.6915C3.60809 19.746 3.62833 19.7917 3.59628 19.8165C3.56852 19.838 3.53201 19.8986 3.51516 19.9512C3.48067 20.0588 3.29838 20.1536 3.12611 20.1536C3.0631 20.1536 3.01153 20.1847 3.01153 20.2228C3.01153 20.2609 2.9745 20.3332 2.92918 20.3835C2.7667 20.5639 2.68214 20.678 2.68214 20.7171C2.68214 20.7749 2.88034 20.6962 2.97454 20.601C3.04687 20.528 3.07604 20.5321 3.25687 20.6402C3.78441 20.9559 3.82535 20.974 3.9395 20.941C4.02712 20.9157 4.05055 20.8804 4.03248 20.801C4.01926 20.7427 4.04378 20.6447 4.08697 20.5833C4.18645 20.4418 4.42318 20.518 4.42318 20.6914C4.42318 20.8122 4.51772 21.0755 4.56016 21.0728C4.57541 21.0719 4.62495 21.0387 4.67027 20.9991C4.77403 20.9084 4.95768 20.9464 5.0629 21.0803C5.10727 21.1367 5.17559 21.1829 5.2147 21.1829C5.2538 21.1829 5.31935 21.2201 5.36033 21.2657C5.40132 21.3112 5.56535 21.4904 5.72477 21.664C5.88895 21.8427 6.0216 22.0359 6.03063 22.1095C6.04188 22.2009 6.07717 22.2398 6.15011 22.2409C6.31075 22.2434 6.61402 22.5689 6.67538 22.8046C6.70842 22.9316 6.81434 23.1017 6.95004 23.2458C7.14607 23.4538 7.16956 23.503 7.15836 23.682C7.14857 23.8377 7.1672 23.897 7.24004 23.9419C7.4037 24.0427 7.44224 24.0114 7.36535 23.8402C7.27623 23.6417 7.27609 23.6208 7.36413 23.6208C7.40295 23.6208 7.43471 23.6458 7.43471 23.6763C7.43471 23.7068 7.48765 23.755 7.55235 23.7833C7.61705 23.8116 7.66999 23.8709 7.66999 23.915C7.66999 23.9828 7.7976 23.9951 8.49642 23.9943C9.1135 23.9936 9.31819 23.977 9.30449 23.929C9.29438 23.8935 9.21368 23.858 9.12507 23.8499C8.80834 23.8212 8.76388 23.7933 8.73884 23.6077C8.72572 23.5106 8.69979 23.3766 8.6812 23.3098C8.65429 23.2131 8.67 23.1787 8.75865 23.1401C8.90194 23.0779 9.01576 23.1479 9.0536 23.3214C9.0863 23.4714 9.20737 23.5006 9.37305 23.3985C9.4873 23.3281 9.52636 23.3777 9.60108 23.6885C9.68672 24.0447 10.2574 23.9425 10.1975 23.5817C10.1862 23.5138 10.1952 23.4583 10.2175 23.4583C10.2398 23.4583 10.258 23.4787 10.258 23.5037C10.258 23.5286 10.3798 23.5946 10.5286 23.6502C10.6774 23.7059 10.838 23.8074 10.8854 23.8757C10.9649 23.9903 11.0082 24 11.4383 24C11.695 24 11.9049 23.9868 11.9049 23.9707C11.9049 23.8832 11.6952 23.6337 11.6416 23.6573C11.5682 23.6898 11.1628 23.5273 11.0542 23.422C11.0134 23.3824 10.8734 23.3499 10.743 23.3499C10.4959 23.3499 10.258 23.1027 10.258 22.8459C10.258 22.7322 10.1945 22.7274 10.1169 22.8352C10.0498 22.9283 9.85485 22.9441 9.80982 22.8601C9.75674 22.7612 9.4242 22.543 9.33367 22.5476C9.19255 22.5548 8.98753 22.4382 8.98753 22.3509C8.98753 22.2252 8.8114 22.1462 8.61598 22.1842C8.45887 22.2147 8.41506 22.195 8.21329 22.0031C8.01231 21.8119 7.97392 21.7945 7.87134 21.8483C7.76617 21.9035 7.73831 21.8867 7.55997 21.6613C7.37909 21.4326 7.35025 21.4157 7.18254 21.4404C7.03051 21.4627 6.98232 21.4439 6.88652 21.325C6.82361 21.2468 6.7518 21.1829 6.727 21.1829C6.70216 21.1829 6.68183 21.1493 6.68183 21.1083C6.68183 21.0672 6.63647 20.9989 6.58104 20.9566C6.48636 20.8842 6.49817 20.7536 6.61369 20.596C6.62099 20.5861 6.66955 20.6226 6.72159 20.6773C6.77363 20.7319 6.84737 20.8057 6.88539 20.8413C6.92346 20.8769 6.96218 20.9323 6.9715 20.9645C6.98082 20.9966 7.07248 21.0386 7.1752 21.0578C7.44577 21.1084 7.66999 21.2753 7.66999 21.4263C7.66999 21.5798 7.78485 21.6388 7.87703 21.5328C8.02897 21.3578 8.37911 21.5864 8.4488 21.906C8.48423 22.0686 8.56403 22.1005 8.56403 21.9522C8.56403 21.6962 8.92683 21.7178 9.03059 21.98C9.07463 22.0913 9.11124 22.1097 9.26351 22.0971C9.40891 22.085 9.48316 22.1176 9.64451 22.2648C9.82271 22.4273 9.85584 22.4397 9.94346 22.3767C10.0144 22.3257 10.047 22.3231 10.0598 22.3674C10.0696 22.4012 10.1144 22.4289 10.1593 22.4289C10.2043 22.4289 10.2871 22.4899 10.3433 22.5644C10.3996 22.6389 10.4627 22.6998 10.4835 22.6998C10.5044 22.6998 10.5483 22.7851 10.581 22.8894C10.6536 23.1205 10.7979 23.2315 10.8444 23.092C10.8645 23.0317 10.8413 22.9668 10.7785 22.9083C10.7252 22.8585 10.6815 22.7913 10.6815 22.7589C10.6815 22.6698 10.8217 22.688 10.8527 22.7811C10.8676 22.8258 10.9086 22.8623 10.9437 22.8623C10.9789 22.8623 11.0302 22.9111 11.058 22.9707C11.1143 23.0919 11.2452 23.1127 11.3309 23.014C11.3748 22.9635 11.3873 22.9635 11.3873 23.014C11.3873 23.0498 11.3662 23.079 11.3403 23.079C11.2889 23.079 11.2754 23.257 11.3226 23.3115C11.3388 23.3301 11.433 23.2917 11.532 23.2261L11.7119 23.1069L11.8103 23.2284C11.892 23.3293 11.9585 23.3499 12.2035 23.3499C12.4748 23.3499 12.5126 23.365 12.6781 23.5395C12.8934 23.7666 12.8931 23.7666 12.8931 23.5866C12.8931 23.4513 12.9021 23.446 13.0696 23.4818C13.7281 23.6225 13.9398 23.5882 14.049 23.3231C14.0909 23.2214 14.155 23.1097 14.1915 23.0749C14.296 22.975 14.2702 22.8623 14.1428 22.8623C13.9795 22.8623 13.9607 22.7882 14.0912 22.6576L14.2037 22.5449L14.2518 22.7036C14.3329 22.9714 14.54 22.9297 14.54 22.6456C14.54 22.4651 14.5557 22.4289 14.6341 22.4289C14.6859 22.4289 14.7283 22.4046 14.7283 22.3748C14.7283 22.345 14.6988 22.3206 14.6627 22.3206C14.5871 22.3206 14.54 22.2053 14.54 22.0199C14.54 21.9304 14.5194 21.8997 14.4732 21.9201C14.4292 21.9395 14.401 21.9065 14.3909 21.8236C14.3716 21.6673 14.0879 21.6063 14.0406 21.7483C13.9993 21.8723 13.9589 21.8527 13.8908 21.6757C13.8119 21.4704 13.4356 21.4036 13.3149 21.5734C13.2751 21.6294 13.1798 21.6835 13.1031 21.6938C13.0264 21.704 12.9483 21.7151 12.9296 21.7185C12.9108 21.7219 12.9153 21.7847 12.9395 21.8582C12.9899 22.0106 12.9465 22.0636 12.7864 22.0451C12.7286 22.0384 12.6229 22.0517 12.5513 22.0745C12.4295 22.1134 12.278 22.0414 12.2884 21.9497C12.305 21.8058 12.265 21.7148 12.1663 21.6716C12.0811 21.6343 12.0439 21.5678 12.0232 21.4156C12.0077 21.3025 11.9861 21.1437 11.975 21.0627C11.964 20.9817 11.9102 20.8639 11.8554 20.8008C11.7513 20.6809 11.7558 20.0978 11.8612 20.0543C11.9396 20.0219 11.9073 19.9369 11.8166 19.9369C11.5971 19.9369 11.5742 19.6596 11.7846 19.5492C11.8849 19.4967 11.9145 19.5043 11.9859 19.601C12.1142 19.7747 12.4876 19.7922 12.5082 19.6254C12.5171 19.5526 12.4982 19.5026 12.4611 19.5012C12.3693 19.4978 12.1917 19.1482 12.1578 18.9039C12.1415 18.7867 12.1108 18.6909 12.0895 18.6909C12.014 18.6909 11.7659 18.3381 11.7379 18.1906C11.7206 18.1004 11.678 18.0404 11.6307 18.04C11.5874 18.0396 11.4673 17.9157 11.3638 17.7648C11.0584 17.3193 10.7278 16.9531 10.6456 16.9693C10.6035 16.9776 10.5467 16.9356 10.5194 16.876C10.4588 16.7438 10.2215 16.4697 10.1675 16.4697C10.146 16.4697 10.1026 16.4339 10.071 16.3902C9.99032 16.2782 9.62842 16.0523 9.4626 16.0104C9.38604 15.991 9.29819 15.9401 9.26737 15.8974C9.2365 15.8546 9.16625 15.8191 9.11119 15.8184C9.05609 15.8177 8.87963 15.7385 8.71899 15.6423C8.55829 15.5461 8.28302 15.3826 8.10727 15.2789C7.93147 15.1751 7.67563 14.9862 7.53875 14.859C7.36992 14.7021 7.24461 14.6278 7.14909 14.6278C7.07163 14.6278 6.997 14.5939 6.98322 14.5526C6.96943 14.5112 6.89598 14.4631 6.81998 14.4456C6.73961 14.4271 6.68183 14.3792 6.68183 14.3312C6.68183 14.2283 6.81862 14.2241 6.9419 14.323C6.99296 14.364 7.12768 14.4155 7.24122 14.4374L7.4477 14.4773L7.4158 14.3223C7.39824 14.2371 7.38526 14.1307 7.3869 14.086C7.41302 13.3887 7.35312 13.1303 7.15238 13.0737C7.08768 13.0554 6.99296 13.0076 6.9419 12.9674C6.89089 12.9271 6.79095 12.8942 6.7199 12.8942C6.62132 12.8942 6.55407 12.8368 6.4363 12.6522C6.35136 12.5191 6.2436 12.3951 6.19683 12.3767C6.04517 12.3169 5.94367 11.9957 6.03835 11.8753C6.12121 11.7699 6.14117 11.5588 6.07896 11.4461C6.05228 11.3977 5.99327 11.4259 5.8634 11.5492C5.71927 11.6859 5.67645 11.7041 5.6428 11.6429C5.57636 11.522 5.59293 11.2834 5.67014 11.2493C5.71174 11.2309 5.74073 11.1496 5.74073 11.0515C5.74073 10.8903 5.73527 10.886 5.57603 10.9204C5.41868 10.9543 5.41134 10.949 5.41134 10.7994C5.41134 10.5783 5.28293 10.3767 5.19536 10.4604C5.14764 10.5059 5.12901 10.5067 5.12901 10.4629C5.12901 10.4295 5.15018 10.4021 5.17606 10.4021C5.29544 10.4021 5.225 9.97567 5.09372 9.90345C4.8416 9.76476 4.92695 9.44009 5.24759 9.31825C5.4127 9.25552 5.50371 9.03259 5.57669 8.51197C5.62017 8.20215 5.81201 7.75856 5.98221 7.57453C6.09891 7.44841 6.11717 7.3885 6.11717 7.13225C6.11717 6.78645 6.33372 6.07806 6.51695 5.82436C6.65322 5.63572 6.77594 5.72836 6.77594 6.01993C6.77594 6.11696 6.8365 6.24026 6.9524 6.37911C7.04947 6.49537 7.12203 6.63124 7.1137 6.68103C7.10429 6.73748 7.15991 6.81316 7.26164 6.88223C7.35133 6.94318 7.45071 7.06529 7.48247 7.15359C7.5388 7.31021 7.54849 7.31417 7.87566 7.31498C8.3049 7.31606 8.3593 7.35247 8.25229 7.56711C8.17159 7.72904 8.18708 7.91009 8.2817 7.91009C8.30923 7.91009 8.34485 7.8674 8.3609 7.81528C8.37699 7.76311 8.42395 7.67503 8.46531 7.61944C8.51016 7.55925 8.54347 7.4061 8.54785 7.24022C8.55185 7.08723 8.56243 6.90184 8.57138 6.82822C8.58432 6.72133 8.55585 6.67696 8.42993 6.60762C8.33417 6.55485 8.23258 6.43361 8.17112 6.29872C8.1155 6.17661 7.86879 5.83037 7.62293 5.52943C7.13963 4.93779 7.00966 4.86769 6.96416 5.17426C6.92167 5.46042 6.77777 5.41485 6.45898 5.01429C6.21245 4.70451 6.17213 4.62314 6.14389 4.37806C6.12611 4.22344 6.10051 4.07647 6.08705 4.05144C6.03948 3.96275 5.89267 4.25757 5.83813 4.55136C5.72092 5.18299 5.45101 5.53956 5.25818 5.31756C5.19051 5.23965 5.21056 4.68274 5.28735 4.50835C5.32283 4.42763 5.36668 4.18335 5.38475 3.96546C5.40282 3.74757 5.44776 3.45503 5.48456 3.31536C5.52136 3.1757 5.55171 2.93024 5.55199 2.76988C5.55232 2.58178 5.58384 2.41839 5.64078 2.30939C5.68986 2.21545 5.74016 1.98927 5.75409 1.79988C5.76788 1.61254 5.79983 1.4297 5.8251 1.39357C5.85036 1.35743 5.88528 1.25114 5.90264 1.15742C5.96052 0.845428 6.31207 0.655979 6.51295 0.828525C6.62353 0.923494 6.63214 1.35007 6.52721 1.53448C6.48928 1.60117 6.44279 1.85617 6.42397 2.10125C6.39912 2.42435 6.37192 2.54679 6.32492 2.54679C6.25499 2.54679 6.23226 2.63498 6.18897 3.07499C6.13251 3.64892 6.3587 3.19434 6.44655 2.55735C6.46834 2.39927 6.52109 2.20863 6.56372 2.13376C6.60631 2.05883 6.65708 1.8267 6.67642 1.61785C6.6958 1.40901 6.73439 1.22178 6.7621 1.20174C6.80812 1.16847 6.93146 0.437438 6.90741 0.340194C6.90172 0.317278 6.92237 0.246092 6.95329 0.182058C7.03592 0.0107571 6.80972 -0.0470473 6.3995 0.0403908ZM5.37374 1.28999C5.40259 1.3232 5.392 1.43317 5.34452 1.59412C5.30363 1.73281 5.27003 1.93689 5.26989 2.04757C5.2697 2.15825 5.23639 2.32196 5.19578 2.41135C5.15517 2.50074 5.1004 2.78109 5.07405 3.03436C5.04765 3.28763 4.99631 3.55953 4.95989 3.63863C4.92352 3.71772 4.89373 3.93014 4.89373 4.11065C4.89373 4.31115 4.85712 4.54589 4.79962 4.71378C4.74786 4.86498 4.70551 5.10828 4.70551 5.2545C4.70551 5.62608 4.5651 5.81163 4.27835 5.819L4.07027 5.82436L4.05563 5.5264C4.04759 5.36252 4.07281 5.09436 4.11168 4.93048C4.15054 4.7666 4.20626 4.39436 4.23548 4.10323C4.26465 3.81215 4.31872 3.50741 4.35556 3.42604C4.39702 3.3346 4.42271 3.11438 4.4229 2.84903C4.42314 2.52262 4.44219 2.39569 4.50266 2.31877C4.5531 2.25462 4.58929 2.0947 4.60166 1.88114C4.62754 1.43604 4.84724 1.16566 5.14647 1.21062C5.24665 1.22573 5.34894 1.26144 5.37374 1.28999ZM3.92892 2.38356C3.96515 2.51499 3.922 2.90802 3.82864 3.297C3.79038 3.45638 3.76516 3.67579 3.77255 3.78457C3.79293 4.08438 3.71307 4.72711 3.64051 4.84775C3.60273 4.91049 3.57619 5.0956 3.57619 5.29643C3.57619 5.48441 3.54744 5.71742 3.51234 5.81423C3.47719 5.91104 3.43366 6.12633 3.41564 6.29276C3.36585 6.75124 2.96132 7.11042 2.77922 6.8578C2.71932 6.7747 2.74308 6.52181 2.84575 6.14941C2.87864 6.03023 2.92024 5.67023 2.93822 5.34941C2.95647 5.02317 3.00042 4.70088 3.03797 4.61805C3.07797 4.52975 3.10583 4.306 3.10696 4.06368C3.10827 3.77655 3.13552 3.59377 3.19975 3.44067C3.25382 3.31179 3.29132 3.10625 3.29226 2.93343C3.29442 2.5444 3.46603 2.28566 3.72597 2.27981C3.85927 2.27683 3.90609 2.30073 3.92892 2.38356ZM20.7043 5.02566C20.7043 5.078 20.7228 5.19523 20.7454 5.28614C20.7806 5.42715 20.7693 5.46925 20.6689 5.57218C20.5606 5.68334 20.5531 5.68464 20.575 5.58827C20.602 5.46957 20.425 5.34513 20.3049 5.39822C20.1961 5.44628 20.276 5.74527 20.4516 5.9475C20.5725 6.08668 20.5325 6.38063 20.3804 6.47115C20.3058 6.51558 20.2313 6.61374 20.2148 6.68926C20.1983 6.76478 20.1656 6.82659 20.142 6.82659C20.0294 6.82659 19.9493 6.99443 20.022 7.07813C20.1208 7.1919 20.1098 7.40263 19.9984 7.53087C19.9467 7.59046 19.9043 7.70748 19.9043 7.79091C19.9043 8.00576 19.8308 8.07186 19.6558 8.01405C19.5762 7.98778 19.4944 7.93544 19.4742 7.89779C19.4461 7.84524 19.4234 7.85088 19.3768 7.92185C19.3434 7.97272 19.2632 8.03811 19.1985 8.06714C19.1306 8.09759 19.1126 8.12137 19.1559 8.12338C19.2941 8.12966 19.3952 8.30947 19.3238 8.42182C19.2731 8.50173 19.2434 8.5085 19.1626 8.45872C19.0465 8.38721 18.6037 8.37643 18.5673 8.44425C18.4971 8.57503 18.6662 8.77873 18.9305 8.88188C19.0807 8.94049 19.2614 9.0567 19.3319 9.14002C19.4024 9.22334 19.5019 9.32075 19.5528 9.35645C19.633 9.41257 19.636 9.4291 19.5749 9.47823C19.5003 9.53842 19.2527 9.50294 19.1773 9.4213C19.095 9.33202 19.0181 9.36864 19.0445 9.48463C19.0863 9.66866 19.2435 9.75339 19.4458 9.70084C19.5554 9.6724 19.6333 9.67516 19.6511 9.70821C19.7145 9.82647 19.548 9.88005 18.901 9.94939C18.6839 9.97269 18.6327 9.99544 18.654 10.0594C18.6688 10.1038 18.6809 10.1625 18.6809 10.1899C18.6809 10.2172 18.7136 10.2396 18.7537 10.2396C18.7938 10.2396 18.8732 10.2971 18.9302 10.3675C18.9872 10.4379 19.0863 10.5144 19.1505 10.5377C19.3237 10.6003 19.8102 11.0358 19.8102 11.1281C19.8102 11.1795 19.4421 11.1658 19.414 11.1134C19.4001 11.0874 19.3208 11.0506 19.2378 11.0315C19.1549 11.0124 19.0528 10.9611 19.011 10.9175C18.9301 10.8333 18.5712 10.673 18.4632 10.673C18.379 10.673 18.3799 10.8892 18.4647 11.0284C18.5435 11.158 18.58 11.5341 18.5149 11.5462C18.4897 11.5509 18.4461 11.5028 18.4179 11.4393C18.3897 11.3758 18.3315 11.2791 18.2885 11.2244C18.2401 11.1629 18.2103 11.0325 18.2103 10.8822C18.2103 10.5388 18.1293 10.4268 17.9821 10.5669C17.8836 10.6606 17.8771 10.6908 17.9233 10.8432C17.9518 10.9373 17.9751 11.117 17.9751 11.2426C17.9751 11.3934 18.009 11.5207 18.075 11.6172C18.1938 11.7912 18.1757 12.155 18.0425 12.2671C17.9464 12.348 18.0326 12.6568 18.1648 12.7051C18.4365 12.8044 18.4403 13.2957 18.1701 13.3798C18.0758 13.4092 17.9462 13.4756 17.8822 13.5274C17.7989 13.5948 17.6448 13.6277 17.341 13.6431C16.9593 13.6625 16.9078 13.6778 16.8316 13.7943C16.7478 13.9226 16.7484 13.9248 16.8786 13.9835C17.1197 14.092 17.3545 14.1051 17.4719 14.0166C17.5742 13.9394 17.5925 13.9423 17.7199 14.0559C17.7955 14.1235 17.9369 14.2085 18.0339 14.2449C18.3276 14.3551 18.2418 14.487 17.8826 14.4776C17.534 14.4684 17.5036 14.5305 17.7348 14.7787C17.9264 14.9844 17.93 14.9941 17.8253 15.0226C17.6837 15.0612 17.4045 15.1845 17.3229 15.2445C17.241 15.3047 17.2822 15.6323 17.3886 15.7675C17.459 15.8572 17.4585 15.8757 17.3825 16.0092C17.2996 16.1549 17.2713 16.1587 16.9992 16.0616C16.92 16.0333 16.8872 16.049 16.8668 16.125C16.8519 16.1805 16.8081 16.3007 16.7694 16.392C16.7068 16.5399 16.707 16.5844 16.7717 16.7983C16.8804 17.1576 16.8698 17.2282 16.7073 17.2282C16.6312 17.2282 16.5559 17.2038 16.5399 17.174C16.4887 17.0787 16.3355 17.116 16.3037 17.2314C16.2701 17.3535 16.2505 17.3523 15.7008 17.1972C15.5499 17.1546 15.3841 17.1198 15.3323 17.1198C15.1898 17.1198 15.2558 17.2524 15.4085 17.2731C15.481 17.2829 15.6377 17.3606 15.7566 17.4458L15.9729 17.6008L15.8329 17.6591C15.4879 17.8029 15.5041 17.8168 16.0223 17.8209C16.4705 17.8246 16.5736 17.8433 16.7916 17.9601C16.93 18.0342 17.1214 18.0949 17.2169 18.0949C17.3124 18.0949 17.4735 18.1437 17.5751 18.2033C17.9643 18.4318 18.0802 18.3195 17.9568 17.8336C17.82 17.2948 17.8317 16.8948 17.9868 16.8075C18.1046 16.7412 18.1162 16.708 18.1162 16.437C18.1162 16.1155 18.1785 15.9366 18.4282 15.5415C18.5154 15.4034 18.5868 15.2676 18.5868 15.2397C18.5868 15.2119 18.6392 15.1365 18.7034 15.0723C18.7675 15.0081 18.8091 14.9227 18.7957 14.8826C18.7816 14.8403 18.8205 14.7838 18.8883 14.7482C18.9527 14.7145 19.0406 14.6248 19.0838 14.549C19.1269 14.4731 19.1916 14.4111 19.2274 14.4111C19.2633 14.4111 19.2926 14.3615 19.2926 14.3009C19.2926 14.1604 19.5774 13.8301 19.7387 13.7835C19.8065 13.7639 19.928 13.6533 20.0086 13.5377C20.1158 13.3842 20.1907 13.3276 20.2866 13.3276C20.3809 13.3276 20.455 13.2734 20.5493 13.1356C20.6216 13.03 20.7919 12.858 20.9278 12.7535C21.0636 12.6489 21.1754 12.5342 21.1761 12.4985C21.1768 12.4628 21.3039 12.2772 21.4585 12.0859C21.613 11.8947 21.7395 11.7088 21.7395 11.6727C21.7395 11.6367 21.766 11.5819 21.7984 11.5509C21.8309 11.5199 21.9307 11.328 22.0203 11.1244C22.1099 10.9209 22.2013 10.7396 22.2232 10.7218C22.3396 10.6273 22.5204 8.23991 22.4274 8.02738C22.3927 7.94796 22.35 7.73722 22.3325 7.55904C22.315 7.38086 22.2724 7.18529 22.2378 7.12445C22.2032 7.06361 22.1593 6.90466 22.1404 6.77123C22.1215 6.6378 22.0658 6.45263 22.0168 6.35972C21.9678 6.26681 21.9277 6.11447 21.9277 6.02112C21.9277 5.92778 21.8906 5.80713 21.8453 5.7529C21.7309 5.6159 21.5514 5.32287 21.5505 5.27124C21.55 5.24772 21.497 5.17101 21.4327 5.1008C21.2894 4.94429 21.1426 4.97663 21.2219 5.14718C21.2622 5.23402 21.2577 5.26387 21.2004 5.28922C21.0927 5.33679 20.9866 5.27254 20.9866 5.15969C20.9866 5.10514 20.9612 5.03124 20.9301 4.99549C20.8449 4.89732 20.7043 4.91607 20.7043 5.02566ZM9.59939 7.09714C9.56589 7.16925 9.57972 7.23144 9.65313 7.33893C9.74945 7.47994 9.74987 7.48818 9.66823 7.66267C9.56749 7.87802 9.6024 8.01844 9.75669 8.01844C9.81904 8.01844 9.89654 8.05517 9.92892 8.10008C9.96129 8.14499 10.0791 8.21239 10.1907 8.24987C10.3336 8.29782 10.4263 8.37383 10.504 8.50683C10.5759 8.62986 10.6793 8.71962 10.8009 8.76464C10.9034 8.80257 11.024 8.88388 11.0687 8.94526C11.1319 9.03205 11.1817 9.0489 11.2922 9.02094C11.4521 8.98053 11.4602 8.95615 11.3631 8.80842C11.2902 8.69752 11.3418 8.56019 11.4564 8.56019C11.488 8.56019 11.5523 8.51143 11.5991 8.45184C11.6473 8.39046 11.744 8.34349 11.822 8.34349C11.9885 8.34349 11.9774 8.21748 11.8084 8.18914C11.7465 8.17874 11.6353 8.11173 11.5614 8.04016C11.4876 7.96865 11.3771 7.91009 11.3159 7.91009C11.2547 7.91009 11.192 7.88642 11.1764 7.85749C11.1427 7.7947 11.3586 7.72329 11.4544 7.76561C11.5279 7.79806 11.6408 7.67822 11.5909 7.62069C11.5738 7.60108 11.5158 7.58488 11.4618 7.58466C11.4079 7.5845 11.3003 7.5359 11.2226 7.47669C11.145 7.41748 11.0437 7.36888 10.9976 7.36872C10.9516 7.3685 10.7822 7.31698 10.6212 7.25425C10.4603 7.19146 10.2545 7.13247 10.1639 7.12315C10.0733 7.11383 9.91941 7.08235 9.82187 7.05315C9.67054 7.00786 9.63788 7.01431 9.59939 7.09714ZM7.16433 9.85849C7.10311 9.97133 6.87028 10.0359 6.79227 9.96163C6.52476 9.70701 6.37941 9.83438 6.40816 10.2981L6.42303 10.5376L6.80253 10.5417C7.25985 10.5467 7.29355 10.5668 7.29355 10.8346C7.29355 11.2612 7.39006 11.5784 7.55 11.6776C7.63126 11.7279 7.74509 11.8638 7.80292 11.9795C7.92545 12.2246 7.98577 12.244 8.02775 12.0515C8.07047 11.8555 8.25234 11.8878 8.27304 12.0951C8.29182 12.2829 8.37581 12.2915 8.37581 12.1057C8.37581 11.7751 9.13397 11.5906 9.3834 11.8604C9.52824 12.0171 9.6311 12.0035 9.65783 11.8242C9.67006 11.7423 9.69557 11.6336 9.71449 11.5827C9.77029 11.433 9.55351 11.4082 8.88024 11.4872C8.02342 11.5877 7.9629 11.5604 7.64251 10.9272C7.50967 10.6648 7.37683 10.4222 7.34728 10.3882C7.27623 10.3063 7.27844 10.0919 7.35062 10.0642C7.39015 10.049 7.37824 9.99918 7.31209 9.90231C7.22353 9.77267 7.21261 9.76942 7.16433 9.85849ZM10.8095 11.3021C10.6621 11.4719 11.0928 11.9341 11.2869 11.8146C11.3499 11.7757 11.3694 11.7879 11.3747 11.8695C11.3815 11.9733 11.4913 12.1357 11.5547 12.1357C11.5727 12.1357 11.5773 12.0128 11.5647 11.8625C11.539 11.5534 11.3984 11.3538 11.2002 11.3448C11.1349 11.3417 11.0279 11.3222 10.9624 11.3012C10.8969 11.2803 10.8281 11.2807 10.8095 11.3021ZM7.71704 12.6794C7.71704 12.7698 7.7513 12.904 7.79318 12.9776C7.85247 13.0818 7.85708 13.1284 7.81393 13.1883C7.66293 13.3977 8.06059 14.1316 8.2235 13.9441C8.28302 13.8755 8.30382 13.8749 8.36965 13.9398C8.4599 14.0288 9.25292 14.4652 9.3243 14.4652C9.35122 14.4652 9.43705 14.3866 9.51497 14.2906L9.65665 14.116L9.74559 14.2424C9.79448 14.312 9.83452 14.3999 9.83452 14.4378C9.83452 14.4933 9.86873 14.4931 10.011 14.4366C10.2229 14.3526 10.2901 14.3994 10.3327 14.6609C10.3722 14.9031 10.4458 14.9483 10.5365 14.786C10.5768 14.7138 10.6653 14.5934 10.7331 14.5183C10.8881 14.3469 10.9409 14.1684 10.8599 14.0893C10.8265 14.0567 10.7092 13.9571 10.5992 13.868C10.4778 13.7697 10.3992 13.6637 10.3992 13.5981C10.3992 13.5387 10.3791 13.4901 10.3546 13.4901C10.33 13.4901 10.2528 13.4291 10.183 13.3547C9.9723 13.1299 9.70187 13.1886 9.88944 13.4184L9.99225 13.5444L9.54871 13.5085C9.05134 13.4682 8.80096 13.3408 8.79987 13.1276C8.79917 12.983 8.72525 12.9184 8.68807 13.0299C8.64967 13.1452 8.57439 13.1305 8.41576 12.9769C8.33972 12.9032 8.19249 12.8136 8.08859 12.7777C7.98469 12.7419 7.87905 12.6681 7.85378 12.6138C7.78391 12.4635 7.71704 12.4956 7.71704 12.6794ZM10.3397 15.852C10.2872 15.9124 10.363 16.0399 10.4994 16.1211C10.574 16.1656 10.7455 16.3232 10.8804 16.4713C11.136 16.752 11.2621 16.8039 11.3135 16.6495C11.3454 16.5538 11.2464 16.4362 10.8987 16.1563C10.4607 15.8038 10.4069 15.7746 10.3397 15.852ZM9.59064 17.4837C10.0152 17.8445 10.6274 18.6285 10.7321 18.9453C10.755 19.0147 10.8232 19.0973 10.8836 19.1291C11.0433 19.2128 11.3106 19.8847 11.2697 20.0993C11.2527 20.1887 11.2582 20.2619 11.282 20.2619C11.3059 20.2619 11.35 20.3566 11.3801 20.4722C11.4102 20.5879 11.4665 20.7127 11.5052 20.7497C11.5439 20.7867 11.5756 20.8532 11.5756 20.8975C11.5756 20.9945 11.3602 20.9487 11.2425 20.8265C11.1947 20.777 11.0604 20.7493 10.866 20.7489C10.306 20.7478 10.2188 20.7121 10.1551 20.458C10.1242 20.3353 10.0607 20.1767 10.0139 20.1056C9.96567 20.0326 9.92863 19.8855 9.92863 19.7671C9.92863 19.51 10.0359 19.4863 10.2517 19.6953C10.423 19.8613 10.4933 19.7768 10.4933 19.405C10.4933 19.1566 10.442 19.1262 10.0197 19.125L9.75782 19.1243L9.76088 18.6815C9.76366 18.2816 9.75255 18.2246 9.6463 18.0931C9.46985 17.8747 9.22281 17.4698 9.22281 17.3989C9.22281 17.2885 9.4123 17.3322 9.59064 17.4837ZM22.7747 17.7663C22.7747 17.8239 22.817 17.8864 22.8688 17.9053C22.9436 17.9326 22.9629 17.9873 22.9629 18.1714C22.9629 18.3378 22.9907 18.4321 23.0613 18.5058C23.1347 18.5821 23.1537 18.6514 23.136 18.777C23.1169 18.9129 23.1479 18.9998 23.2964 19.2256C23.3976 19.3796 23.4805 19.5527 23.4805 19.6102C23.4805 19.6676 23.5351 19.7824 23.6019 19.8654C23.7202 20.0124 23.7303 20.1256 23.6473 20.3725C23.6306 20.4219 23.6732 20.5256 23.7517 20.6268C23.8766 20.7879 23.8837 20.8235 23.8749 21.2477C23.8618 21.8787 23.8135 22.3189 23.7355 22.5184C23.6165 22.8226 23.661 22.9239 23.8914 22.8732L24 22.8493L23.9968 21.1504L23.9936 19.4514L23.8812 19.2977C23.8195 19.2132 23.7546 19.078 23.737 18.9973C23.7194 18.9166 23.6651 18.8259 23.6163 18.7959C23.5675 18.7658 23.5276 18.7093 23.5276 18.6703C23.5276 18.6312 23.4852 18.5552 23.4335 18.5013C23.3817 18.4474 23.3393 18.3755 23.3393 18.3416C23.3393 18.2881 23.2086 18.1016 22.9291 17.7564C22.829 17.6327 22.7747 17.6362 22.7747 17.7663ZM22.3944 17.7802C22.3923 17.7895 22.3862 17.8662 22.3809 17.9509C22.3756 18.0356 22.3373 18.1266 22.2959 18.1533C22.2544 18.1801 22.2072 18.2632 22.1909 18.338C22.1745 18.4129 22.142 18.4742 22.1186 18.4742C22.0405 18.4742 21.7865 18.7536 21.7865 18.8395C21.7865 18.8861 21.7044 19.0052 21.604 19.1041C21.3945 19.3106 21.3281 19.5345 21.4641 19.5755C21.5833 19.6114 21.6223 19.757 21.5527 19.9067C21.4137 20.2058 21.5899 20.3071 22.0273 20.1796C22.1877 20.1328 22.2464 20.3645 22.1086 20.5004C21.9439 20.6627 22.0356 20.9803 22.2813 21.0985C22.4367 21.1732 22.448 21.1938 22.4237 21.3574C22.4092 21.4551 22.3883 21.7236 22.3774 21.954C22.3651 22.2139 22.3295 22.4191 22.2838 22.4943C22.1642 22.6909 22.1959 23.2941 22.3208 23.2006C22.3505 23.1784 22.4488 23.1347 22.5394 23.1034C22.6756 23.0564 22.7019 23.0236 22.6914 22.9138C22.6358 22.3329 22.6708 22.1619 22.8463 22.1589C22.9009 22.1579 23.0949 22.5654 23.1146 22.7224C23.1346 22.8822 23.2106 22.872 23.3338 22.6929C23.4173 22.5716 23.4323 22.5143 23.3926 22.4686C23.32 22.385 23.3257 22.2537 23.4154 21.9377C23.4764 21.7229 23.4799 21.6537 23.4332 21.5889C23.3907 21.53 23.3888 21.4886 23.4262 21.4368C23.4559 21.3955 23.4653 21.2795 23.4485 21.1605C23.428 21.015 23.4387 20.9412 23.4854 20.9066C23.5351 20.8697 23.5374 20.8476 23.4945 20.8157C23.4612 20.7907 23.4322 20.6075 23.424 20.3687L23.4099 19.964L23.2805 19.9796C23.1569 19.9945 23.1511 19.9846 23.1511 19.7559C23.1511 19.5799 23.1268 19.497 23.059 19.4424C23.0023 19.3966 22.9309 19.2122 22.8729 18.9617C22.7432 18.4018 22.6695 18.1829 22.574 18.0728C22.5291 18.0212 22.4924 17.9455 22.4924 17.9047C22.4924 17.8416 22.4056 17.7314 22.3944 17.7802ZM12.2199 18.1627C12.2581 18.3848 12.4226 18.7451 12.5558 18.8984C12.6119 18.963 12.6578 19.0525 12.6578 19.0972C12.6578 19.1419 12.6896 19.1784 12.7284 19.1784C12.78 19.1784 12.7991 19.2404 12.7995 19.4087C12.7997 19.5393 12.8506 19.7643 12.9171 19.9287C12.9815 20.0881 13.0343 20.2878 13.0343 20.3725C13.0343 20.4571 13.0538 20.5403 13.0777 20.5573C13.1016 20.5743 13.1351 20.6611 13.1521 20.7502C13.1926 20.9629 13.3025 20.9911 13.8987 20.9419C14.1609 20.9203 14.5998 20.8865 14.8742 20.8667C15.1862 20.8442 15.402 20.8029 15.4506 20.7564C15.5523 20.659 15.5498 20.3647 15.4458 20.2012C15.3643 20.0728 15.2762 19.9045 15.1787 19.6908C15.151 19.63 15.0625 19.4837 14.9821 19.3658C14.9017 19.2478 14.8089 19.0919 14.7757 19.0193C14.7123 18.8801 14.6593 18.7986 14.5342 18.6476C14.4922 18.5969 14.423 18.4764 14.3803 18.3799C14.3377 18.2833 14.253 18.1667 14.1921 18.1208C14.0847 18.0398 13.5989 17.9416 13.5989 18.0009C13.5989 18.0378 13.8641 18.395 14.0283 18.5793C14.2215 18.7962 14.2661 18.9284 14.1868 19.0491C14.0988 19.1829 14.0989 19.4585 14.1871 19.7014C14.2608 19.9044 14.2813 20.3537 14.2217 20.4576C14.1553 20.5732 13.7436 20.6063 13.7078 20.4989C13.6904 20.4467 13.5899 20.3012 13.4846 20.1756C12.971 19.5632 12.8974 19.4609 12.8657 19.3153C12.8469 19.2291 12.8031 19.096 12.7685 19.0195C12.7338 18.9431 12.7054 18.8299 12.7052 18.768C12.705 18.7062 12.6499 18.5965 12.5827 18.5242C12.5154 18.452 12.4197 18.3015 12.3699 18.1898C12.2582 17.9389 12.179 17.9246 12.2199 18.1627ZM14.6812 18.2681C14.6812 18.3762 15.0004 18.7142 15.2242 18.8429C15.4462 18.9707 15.7882 19.337 15.8312 19.4932C15.8544 19.5774 16.1506 19.7744 16.2541 19.7744C16.3061 19.7744 16.2056 19.5058 16.0894 19.3339C16.0162 19.2257 15.9412 19.0673 15.9228 18.9818C15.8902 18.8306 15.5761 18.4011 15.4341 18.3134C15.2872 18.2228 14.6812 18.1863 14.6812 18.2681ZM15.9415 18.4271C15.9052 18.5371 15.9855 18.745 16.0643 18.745C16.102 18.745 16.2915 18.9534 16.4853 19.208C16.6793 19.4626 16.935 19.7563 17.0536 19.8606C17.1722 19.9649 17.2692 20.0868 17.2692 20.1316C17.2692 20.2721 17.5544 20.3783 17.6802 20.2846C17.7753 20.2139 17.791 20.2168 17.8444 20.3155C17.9696 20.5461 18.1162 20.4552 18.1162 20.147C18.1162 19.921 18.1045 19.8807 18.0531 19.9298C17.9869 19.9931 17.9275 19.9598 17.9287 19.8601C17.9291 19.8279 17.95 19.838 17.9751 19.8827C18.0001 19.9274 18.021 19.9363 18.0214 19.9025C18.0218 19.8687 17.972 19.8032 17.9107 19.757C17.7996 19.6732 17.7443 19.4216 17.7238 18.9076C17.7155 18.6979 17.6714 18.6388 17.5222 18.6375C17.4673 18.6371 17.3297 18.59 17.2164 18.5329C16.9427 18.395 15.9786 18.315 15.9415 18.4271ZM21.0956 18.9021C21.0814 18.9647 21.0521 19.0159 21.0306 19.0159C21.009 19.0159 20.9343 19.0769 20.8645 19.1514C20.7947 19.2258 20.7239 19.2868 20.7071 19.2868C20.6904 19.2868 20.6366 19.4224 20.5877 19.5882C20.5388 19.7539 20.4617 19.9124 20.4165 19.9403C20.3712 19.9682 20.3205 20.0458 20.3037 20.1129C20.2256 20.4258 20.0697 20.8037 20.0188 20.8037C19.9071 20.8037 19.8945 21.3527 20.0044 21.4309C20.0902 21.492 20.2119 21.3431 20.259 21.1191C20.3031 20.9095 20.3241 20.8832 20.4591 20.868C20.5767 20.8548 20.6166 20.8198 20.6408 20.7091C20.6578 20.631 20.7001 20.5045 20.7348 20.4281C20.7694 20.3516 20.7979 20.199 20.7981 20.0891C20.7982 19.9791 20.8195 19.874 20.8454 19.8556C20.8713 19.8372 20.8925 19.7496 20.8925 19.6609C20.8925 19.5167 20.9997 19.2522 21.0884 19.1774C21.1594 19.1176 21.219 18.8578 21.1698 18.8228C21.1432 18.8038 21.1098 18.8395 21.0956 18.9021ZM19.3202 20.7771C19.2779 20.8513 19.2121 20.912 19.1739 20.912C19.1357 20.912 19.1044 20.9428 19.1044 20.9802C19.1044 21.0178 19.0627 21.0785 19.0117 21.1151C18.9608 21.1517 18.8847 21.2612 18.8426 21.3584C18.743 21.5882 18.5209 21.8173 18.3574 21.8586C18.286 21.8766 18.1236 21.9905 17.9962 22.1116C17.7846 22.3129 17.7476 22.3291 17.5649 22.3003C17.4042 22.2749 17.3483 22.2895 17.2791 22.375C17.219 22.4494 17.0948 22.4946 16.8665 22.5253L16.5399 22.5694L16.887 22.6114C17.1185 22.6395 17.2509 22.6342 17.2846 22.5954C17.3385 22.5333 17.5986 22.5139 17.5986 22.572C17.5986 22.591 17.5615 22.6381 17.5163 22.6766C17.4021 22.7738 17.4883 22.8629 17.733 22.9006C17.9051 22.9272 17.9304 22.9164 17.9691 22.7991C18.0524 22.547 18.6251 22.1039 18.8676 22.1039C18.9123 22.1039 18.9718 22.1587 18.9999 22.2258C19.0474 22.3393 19.0512 22.3348 19.0541 22.161C19.0563 22.0346 19.0991 21.9241 19.1867 21.8187C19.3054 21.676 19.3151 21.6322 19.3039 21.294C19.293 20.9637 19.3016 20.922 19.3863 20.8965C19.4383 20.8808 19.4808 20.8306 19.4808 20.7849C19.4808 20.6408 19.4 20.6368 19.3202 20.7771ZM11.794 21.6008C11.8089 21.6689 11.8071 21.7886 11.7901 21.8667C11.7666 21.9744 11.7824 22.0274 11.8556 22.0864C12.0015 22.2041 11.9942 22.5918 11.8461 22.5906C11.6972 22.5895 11.635 22.5319 11.5977 22.3607C11.5799 22.279 11.5473 22.2122 11.5253 22.2122C11.5032 22.2122 11.4427 22.0538 11.3908 21.8602L11.2964 21.5082L11.4007 21.3848L11.505 21.2615L11.636 21.3692C11.7081 21.4284 11.7792 21.5327 11.794 21.6008ZM16.4011 21.4617C16.3891 21.5021 16.373 21.6082 16.3654 21.6976C16.3428 21.9646 16.0693 21.9396 16.0693 21.6705C16.0693 21.4852 16.0646 21.4805 15.8629 21.4639C15.6358 21.4451 15.5298 21.5135 15.609 21.6276C15.6836 21.735 15.6525 21.9066 15.5338 22.0433C15.4336 22.1586 15.4316 22.1734 15.5037 22.2652C15.5815 22.3641 15.8576 22.4453 15.8576 22.3692C15.8576 22.2852 16.0091 22.1581 16.1093 22.1581C16.1664 22.1581 16.251 22.1071 16.2974 22.0448C16.3544 21.9681 16.4153 21.9412 16.4858 21.9616C16.5591 21.9827 16.6081 21.9581 16.6515 21.8782C16.706 21.7776 16.7448 21.768 16.9911 21.7937C17.1569 21.811 17.2811 21.8004 17.2988 21.7676C17.3367 21.6969 17.229 21.6182 17.0928 21.6171C17.0345 21.6167 16.9869 21.5951 16.9869 21.5692C16.9869 21.5433 16.8969 21.5094 16.7869 21.4939C16.677 21.4784 16.55 21.4484 16.505 21.4271C16.4535 21.4028 16.4149 21.4156 16.4011 21.4617Z" fill="black"/>
</svg>
