<svg width="24" height="24" viewBox="0 0 24 24" fill="none" xmlns="http://www.w3.org/2000/svg">
<path d="M10.4375 18.5625L9.625 19.375L9.41421 19.5858C8.63317 20.3668 7.36683 20.3668 6.58579 19.5858L4.44115 17.4411C3.64966 16.6497 3.6618 15.3627 4.46808 14.5863L9.75 9.5L9.81114 9.43886C10.5955 8.65452 11.8755 8.68233 12.625 9.5V9.5L13.3125 10.25M13.9688 5.4375L14.8125 4.625L15.0099 4.43487C15.8246 3.65036 17.1272 3.69691 17.8838 4.53758L19.7306 6.5896C20.4422 7.38025 20.4104 8.58958 19.6583 9.34174L14.5 14.5L14.4142 14.5858C13.6332 15.3668 12.3668 15.3668 11.5858 14.5858L11.5 14.5L10.75 13.75" stroke="black" stroke-width="2" stroke-linecap="round" stroke-linejoin="round"/>
</svg>
