<svg width="24" height="24" viewBox="0 0 24 24" fill="none" xmlns="http://www.w3.org/2000/svg">
<path fill-rule="evenodd" clip-rule="evenodd" d="M17.918 0.0871304C17.9341 0.166719 17.9736 0.172885 18.3718 0.158229C19.0008 0.135083 19.2204 0.217091 19.2529 0.487162C19.2848 0.75287 19.3171 0.883779 19.37 0.962182C19.4014 1.00876 19.4364 1.13511 19.4478 1.24292C19.4718 1.47126 19.5467 1.53244 19.5817 1.35235L19.6059 1.22765L19.6937 1.33428C19.742 1.39295 19.8005 1.52253 19.8236 1.62223C19.8467 1.72193 19.8875 1.82699 19.9142 1.85568C19.954 1.89832 19.9488 1.93347 19.8861 2.04735C19.7762 2.24689 19.6971 2.20468 19.6481 1.92033C19.6092 1.69451 19.6077 1.70381 19.6163 2.12476C19.6226 2.43102 19.6418 2.59043 19.6793 2.6465C19.7316 2.72466 19.8032 3.14903 19.8128 3.43736C19.8224 3.7255 20.0813 3.75842 20.1781 3.48379C20.2274 3.34387 20.4295 3.30835 20.3884 3.4468C20.3755 3.49039 20.3484 3.62115 20.3282 3.73741C20.2781 4.02678 20.235 4.11704 20.1381 4.13616C20.0867 4.14631 20.0609 4.17885 20.0697 4.22248C20.1157 4.44934 20.1142 4.51693 20.0618 4.59183C20.03 4.63726 19.9937 4.76988 19.9811 4.88661C19.9685 5.00334 19.9184 5.20553 19.8697 5.33597C19.8209 5.4664 19.7516 5.67984 19.7155 5.81028C19.6441 6.06854 19.5339 6.3101 19.4601 6.36996C19.3629 6.44889 19.444 6.6249 19.5463 6.55693C19.7343 6.43205 19.8008 6.44547 19.8491 6.61798C19.8942 6.77934 19.9456 6.82923 19.9699 6.73527C19.9766 6.70923 20.0346 6.66844 20.0987 6.64468C20.2076 6.60436 20.2213 6.61328 20.3065 6.77962C20.419 6.99937 21.1132 7.3025 21.3374 7.22974C21.3847 7.21437 21.4345 7.22485 21.448 7.25308C21.4886 7.33798 21.7806 7.31094 21.9697 7.20479C22.0678 7.14972 22.2201 7.10666 22.3105 7.10841C22.4065 7.11026 22.5364 7.07127 22.6253 7.01388C22.7085 6.96014 22.8164 6.92348 22.8651 6.93239C22.9775 6.95303 23.0028 7.09584 22.9013 7.13749C22.8598 7.15451 22.8258 7.1982 22.8258 7.23458C22.8258 7.34353 23.3695 7.31777 23.4821 7.20346C23.5302 7.15461 23.6102 7.11462 23.6597 7.11462C23.7094 7.11462 23.7919 7.07194 23.8432 7.01976C23.9653 6.89568 24 6.90009 24 7.03968C24 7.16822 23.6255 7.63636 23.5227 7.63636C23.4902 7.63636 23.4316 7.66772 23.3924 7.70599C23.3533 7.74432 23.2936 7.77633 23.2598 7.77714C23.226 7.77799 23.1517 7.82908 23.0947 7.89074C23.0376 7.9524 22.9497 8.01813 22.8992 8.03682C22.8488 8.05551 22.7579 8.09848 22.6974 8.13235C22.6369 8.16621 22.4735 8.20814 22.3343 8.2255C22.1951 8.24281 22.0548 8.27459 22.0224 8.29608C21.8588 8.40465 21.1486 8.45592 20.5142 8.40503C19.4581 8.32027 19.1256 8.21364 18.2576 7.68157C18.0961 7.58258 17.9351 7.4899 17.8998 7.47562C17.8576 7.45854 17.8356 7.40139 17.8356 7.30904C17.8356 7.20901 17.8139 7.15954 17.7604 7.13763C17.6556 7.09461 17.5787 7.19364 17.5787 7.37179C17.5787 7.5295 17.5239 7.63636 17.443 7.63636C17.3833 7.63636 17.3756 6.85551 17.4334 6.65905C17.4908 6.46406 17.4847 6.16857 17.4181 5.91496C17.3854 5.79036 17.3586 5.60822 17.3586 5.51028C17.3586 5.41233 17.3323 5.20496 17.3002 5.04949C17.2621 4.86503 17.2424 4.57726 17.2436 4.22134C17.2449 3.83858 17.224 3.55807 17.1736 3.28084C17.1341 3.06356 17.1017 2.83674 17.1017 2.77674C17.1017 2.64332 17.0613 2.60153 16.8265 2.49211C16.7256 2.44506 16.5896 2.36514 16.5244 2.31448C16.4546 2.26032 16.376 2.23456 16.3336 2.25197C16.2386 2.29096 16.36 2.48803 16.5385 2.58474C16.6452 2.64251 16.7437 2.8976 16.6874 2.97031C16.6777 2.98288 16.6926 3.09145 16.7206 3.21164C16.7486 3.33178 16.7715 3.51277 16.7715 3.6138C16.7715 3.84692 16.8605 4.12648 16.9347 4.12648C16.9767 4.12648 16.9917 4.17643 16.9917 4.31639C16.9917 4.42088 17.0315 4.70367 17.0802 4.94485C17.1685 5.38174 17.1968 6.01831 17.1511 6.53777C17.1342 6.72996 17.1287 6.73855 17.069 6.66863C16.979 6.56334 16.8083 6.83824 16.8763 6.97902C16.9543 7.14057 16.9286 7.43573 16.8291 7.51997C16.6822 7.64443 16.7484 8.63241 16.9036 8.63241C16.9345 8.63241 16.9918 8.65456 17.031 8.68164C17.127 8.74809 17.0329 9.01186 16.9132 9.01186C16.8488 9.01186 16.8392 9.03477 16.8528 9.15467C16.8617 9.23317 16.8463 9.43062 16.8185 9.59341C16.7434 10.0334 16.663 10.7544 16.591 11.6324C16.5894 11.652 16.5738 11.668 16.5563 11.668C16.5389 11.668 16.5128 11.4386 16.4982 11.1582C16.4837 10.8778 16.4542 10.6209 16.4326 10.5874C16.4047 10.5439 16.4069 10.4536 16.4405 10.273C16.5231 9.82776 16.2619 9.33107 16.0359 9.50362C15.8813 9.62172 15.671 9.57633 15.6702 9.42474C15.6695 9.29426 15.6459 9.25276 15.4951 9.11592C15.3577 8.99123 15.2057 9.01034 15.2517 9.14656C15.2663 9.18987 15.2859 9.29521 15.2952 9.38063C15.3046 9.46762 15.3425 9.55703 15.3813 9.58387C15.4194 9.61024 15.4505 9.66299 15.4505 9.70112C15.4505 9.73926 15.5083 9.85319 15.579 9.95421C15.6496 10.0553 15.7074 10.1612 15.7074 10.1897C15.7074 10.2181 15.7426 10.2838 15.7856 10.3356C15.8631 10.4289 15.9287 10.5571 15.9959 10.7462C16.015 10.8001 16.0735 10.9258 16.1259 11.0256C16.1782 11.1253 16.2211 11.2663 16.2211 11.339C16.2211 11.4168 16.2738 11.5602 16.3495 11.6885C16.5108 11.9616 16.5115 11.9535 16.3084 12.1751L16.1389 12.3601L16.235 12.6054C16.3526 12.9052 16.3715 13.2976 16.2671 13.2716C16.2241 13.2609 16.1909 13.183 16.1662 13.0347C16.146 12.9131 16.117 12.7977 16.1018 12.7783C16.0867 12.7589 16.0743 12.6843 16.0743 12.6126C16.0743 12.4172 16.0398 12.3359 15.9238 12.2584C15.8249 12.1922 15.5158 11.4628 15.4323 11.0988C15.4174 11.0336 15.385 10.9482 15.3604 10.9091C15.2817 10.784 14.9735 10.0114 14.9735 9.93923C14.9735 9.90095 14.9055 9.77801 14.8224 9.66602C14.7393 9.55404 14.655 9.4033 14.6351 9.33102C14.6152 9.25873 14.5687 9.17872 14.5319 9.15325C14.476 9.11459 14.4706 9.08134 14.4991 8.95295C14.56 8.67837 14.5429 7.92095 14.4758 7.92095C14.3676 7.92095 14.2822 8.01515 14.2398 8.18144C14.2164 8.27298 14.1842 8.34783 14.1683 8.34783C14.1523 8.34783 14.0504 8.48632 13.9418 8.65556C13.6667 9.08424 13.5953 9.07323 13.5426 8.59418C13.5135 8.32909 13.6385 7.82609 13.7337 7.82609C13.7496 7.82609 13.7627 7.78482 13.7627 7.73435C13.7627 7.63703 13.46 7.62365 13.1379 7.7068L13.0085 7.74019L12.9219 7.463C12.6868 6.70999 12.2153 7.09745 12.433 7.86488C12.6515 8.63535 12.5011 8.81867 12.0916 8.2809C11.9737 8.12599 11.8568 8.01875 11.7861 8.00044C11.552 7.93997 11.4784 7.83486 11.5055 7.60041C11.5324 7.36862 11.4722 7.26133 11.3134 7.25843C11.265 7.25753 11.2309 7.22746 11.2309 7.18577C11.2309 7.13834 11.2676 7.11462 11.3409 7.11462C11.4143 7.11462 11.451 7.09091 11.451 7.04348C11.451 7.00349 11.4183 6.97233 11.3762 6.97233C11.2851 6.97233 11.0841 7.1567 11.0841 7.24022C11.0841 7.27338 11.0163 7.32678 10.9335 7.35885C10.7508 7.42961 10.725 7.50014 10.8037 7.71344C10.8368 7.80323 10.8639 7.92939 10.8639 7.99371C10.8639 8.07785 10.8839 8.11067 10.9352 8.11067C11.0194 8.11067 11.0655 8.18552 11.009 8.23062C10.9872 8.24803 10.9402 8.22816 10.9046 8.18647C10.869 8.14477 10.8259 8.11067 10.8089 8.11067C10.7919 8.11067 10.7519 8.08117 10.7201 8.04512C10.6039 7.91369 10.4993 7.90525 10.4634 8.02439C10.423 8.15896 10.5116 8.27028 10.629 8.23228C10.6858 8.21388 10.7169 8.23826 10.7475 8.32501C10.7703 8.38975 10.8051 8.44269 10.8247 8.44269C10.8444 8.44269 10.8875 8.51616 10.9204 8.60594C10.9569 8.70531 11.0114 8.77489 11.0597 8.78381C11.1034 8.79183 11.1538 8.84111 11.1717 8.89328C11.1896 8.94545 11.2763 9.04852 11.3643 9.12228C11.5337 9.26424 11.5603 9.32907 11.4678 9.37494C11.4063 9.40544 11.1969 9.17208 11.1952 9.07115C11.1946 9.03856 11.1596 9.01186 11.1173 9.01186C11.0714 9.01186 11.0328 8.97377 11.0213 8.917C11.0099 8.86022 10.9713 8.82213 10.9252 8.82213C10.8829 8.82213 10.8137 8.76602 10.7714 8.69749C10.6077 8.43211 10.4372 8.70801 10.3979 9.30194C10.3752 9.64492 10.4457 9.81818 10.608 9.81818C10.6616 9.81818 10.6886 9.85878 10.7048 9.9637C10.7172 10.0437 10.7663 10.1422 10.814 10.1826C10.8617 10.223 10.9445 10.3603 10.9982 10.4877C11.0903 10.7064 11.1042 10.7194 11.2459 10.72C11.4822 10.721 11.5611 10.7631 11.5611 10.8881C11.5611 10.9487 11.5443 11.0117 11.5239 11.0281C11.43 11.1031 11.3737 11.3941 11.4359 11.4829C11.4912 11.5618 11.4864 11.5774 11.3656 11.7146C11.1832 11.9216 11.1583 12.1062 11.2923 12.2585C11.4388 12.4252 11.5957 12.4172 11.7096 12.2373C11.7591 12.1591 11.8379 12.0364 11.8848 11.9646C11.9316 11.8928 12.012 11.7646 12.0634 11.6798C12.1718 11.5012 12.3136 11.4723 12.3502 11.6214C12.3677 11.6926 12.3331 11.7733 12.2151 11.9367C12.0611 12.1497 12.0179 12.2021 11.8283 12.4041C11.6761 12.5664 11.7725 12.7589 12.006 12.7589C12.1447 12.7589 12.1907 12.7791 12.2216 12.8538C12.3088 13.0645 12.456 12.8058 12.3994 12.541C12.3755 12.4291 12.3828 12.3315 12.4264 12.1819C12.4593 12.0688 12.4898 11.9305 12.4941 11.8746C12.4985 11.8187 12.5711 11.6714 12.6555 11.5475C12.8762 11.2234 12.9543 10.8637 12.9496 10.192C12.9459 9.66716 12.9463 9.66517 13.0516 9.55309C13.1385 9.46055 13.3759 9.33088 13.4743 9.32224C13.4872 9.32111 13.5828 9.42147 13.6869 9.54531C13.7909 9.66911 13.9206 9.80134 13.9752 9.83915C14.0299 9.8769 14.104 9.95701 14.1401 10.0172C14.2378 10.1802 14.3863 10.4817 14.3877 10.5199C14.3884 10.5383 14.4208 10.6387 14.4598 10.7431C14.4988 10.8474 14.5313 10.9708 14.532 11.0173C14.5327 11.0638 14.558 11.1141 14.5883 11.1291C14.6185 11.1441 14.6433 11.1988 14.6433 11.2506C14.6433 11.3049 14.6744 11.3554 14.7167 11.3696C14.7571 11.3833 14.7901 11.4242 14.7901 11.4605C14.7901 11.5144 14.7767 11.5157 14.7176 11.468C14.5917 11.3663 14.5551 11.4802 14.5427 12.0127C14.5295 12.5816 14.5226 12.6166 14.4243 12.6166C14.3833 12.6166 14.3162 12.66 14.2751 12.7132L14.2003 12.8097L14.1413 12.6302C14.1088 12.5314 14.0741 12.3474 14.0642 12.2214C14.0521 12.0663 14.0271 11.9843 13.9871 11.968C13.9545 11.9548 13.8927 11.9224 13.8498 11.896C13.7967 11.8633 13.7488 11.864 13.6995 11.8981C13.5945 11.9707 13.5426 11.8802 13.542 11.6229C13.541 11.2424 13.436 11.1831 13.4252 11.5569C13.4223 11.6555 13.3819 11.8075 13.3345 11.8978C13.2875 11.9874 13.249 12.0847 13.249 12.114C13.249 12.1434 13.2159 12.2471 13.1756 12.3444C13.1352 12.4418 13.1022 12.549 13.1022 12.5827C13.1022 12.6164 13.0683 12.7285 13.0269 12.8319C12.9066 13.1321 12.772 13.6627 12.772 13.8367C12.772 14.0397 12.6846 14.261 12.5889 14.3003C12.5483 14.3169 12.5144 14.3451 12.5135 14.3629C12.4956 14.7173 12.4681 14.8727 12.3778 15.1304C12.3184 15.3 12.2581 15.5241 12.2439 15.6285C12.2132 15.8535 12.0875 16.3579 11.9952 16.6256C11.9027 16.8942 11.8775 17.0954 11.9227 17.2046C11.9586 17.2912 11.9253 18.0152 11.8703 18.347L11.852 18.4569L11.7883 18.3553C11.6955 18.2071 11.5401 18.2658 11.5101 18.4604C11.46 18.7836 11.4762 18.8431 11.607 18.8168C11.6887 18.8003 11.8013 18.8346 11.9647 18.9257C12.0959 18.9987 12.3492 19.1157 12.5276 19.1856L12.8521 19.3127L12.7663 19.4307C12.6963 19.5271 12.6604 19.5424 12.5703 19.5143C12.4551 19.4783 12.2323 19.447 11.9831 19.4318C11.8421 19.4233 11.8358 19.4291 11.8246 19.5798C11.8094 19.7855 11.7266 19.8222 11.6312 19.6654C11.448 19.3645 11.3101 19.584 11.3495 20.1138C11.366 20.3356 11.3065 20.5631 11.2585 20.4617C11.1855 20.3073 11.1616 20.0053 11.1937 19.6413C11.2222 19.319 11.2185 19.2213 11.1738 19.1097C11.121 18.9776 11.1232 18.9682 11.2374 18.8363C11.353 18.7028 11.3562 18.6881 11.3852 18.1602C11.4385 17.191 11.482 16.6283 11.5203 16.4111C11.541 16.2937 11.5586 16.0124 11.5595 15.786C11.5613 15.3298 11.522 15.2259 11.3475 15.2246C11.1913 15.2234 11.1531 15.1718 11.2064 15.0342C11.2401 14.9472 11.2762 14.9207 11.3465 14.9314C11.5975 14.9696 11.688 14.5187 11.4508 14.4118C11.3827 14.3811 11.3321 14.3122 11.3056 14.2139C11.2584 14.039 11.1957 14.1087 11.1947 14.3372C11.1941 14.4779 11.0911 14.5613 10.9179 14.5613C10.8156 14.5613 10.7658 14.6613 10.732 14.9345C10.7187 15.0419 10.6769 15.1759 10.6391 15.2322C10.6013 15.2886 10.5704 15.354 10.5704 15.3776C10.5704 15.4013 10.5539 15.4074 10.5337 15.3913C10.5135 15.3752 10.497 15.3199 10.497 15.2684C10.497 15.0681 10.3933 14.8365 10.3255 14.8855C10.2871 14.9133 10.2285 14.9146 10.1759 14.8888C10.0798 14.8415 9.95498 14.9773 9.84486 15.249L9.78722 15.3913L9.75346 15.2256C9.73493 15.1345 9.72829 14.9918 9.73878 14.9084C9.75544 14.7757 9.68279 14.5965 9.63861 14.6612C9.56251 14.7727 9.45863 15.2149 9.44476 15.4862C9.4354 15.6688 9.4102 15.8648 9.38873 15.9218C9.36726 15.9787 9.35802 16.1368 9.36814 16.2731C9.38455 16.494 9.37416 16.5436 9.27212 16.7307L9.15771 16.9406L9.16369 17.867C9.16707 18.3913 9.18512 18.8133 9.20527 18.8393C9.26728 18.9195 9.39622 18.6894 9.39622 18.4985C9.39622 18.3224 9.4481 18.2134 9.53198 18.2134C9.62327 18.2134 9.56893 18.6136 9.45819 18.7567C9.38554 18.8506 9.38176 19.245 9.45214 19.3839C9.50508 19.4884 9.54805 19.6661 9.6319 20.1278C9.65582 20.2597 9.65861 20.2612 9.72906 20.1788C9.78465 20.1138 9.81165 20.107 9.84475 20.1498C9.86849 20.1804 9.93413 20.2055 9.99064 20.2055C10.0808 20.2055 10.0934 20.2233 10.0934 20.351C10.0934 20.4309 10.1112 20.5394 10.133 20.592C10.163 20.6645 10.1601 20.707 10.121 20.7668C10.0926 20.8103 10.0484 20.9419 10.0227 21.0593C9.99706 21.1767 9.95512 21.3047 9.92951 21.3439C9.9039 21.383 9.8722 21.5396 9.85906 21.6918C9.84593 21.8441 9.81301 22.0255 9.78593 22.095C9.75885 22.1645 9.72689 22.3338 9.71489 22.4714C9.70286 22.6089 9.67167 22.7707 9.64555 22.8312C9.51239 23.1389 9.43287 23.39 9.37669 23.6798L9.31468 24H6.58513C4.74594 24 3.85559 23.9842 3.85559 23.9514C3.85559 23.9247 3.81607 23.8834 3.76778 23.8596C3.65326 23.8033 3.51511 23.8497 3.54069 23.9358C3.55687 23.9903 3.45126 24.0003 2.91896 23.9952C2.29291 23.989 2.22469 23.9737 2.32824 23.8626C2.39755 23.7883 2.47641 23.4058 2.4385 23.3279C2.42166 23.2932 2.40724 23.1416 2.40651 22.991C2.40511 22.7039 2.28542 22.4884 2.12489 22.4839C2.09128 22.483 2.05543 22.4555 2.04523 22.4229C2.03507 22.3903 2.02541 22.5176 2.02384 22.7058C2.02108 23.0322 1.97929 23.1462 1.8625 23.1462C1.81098 23.1462 1.81124 22.9253 1.8629 22.8516C1.95874 22.7146 1.83021 22.7409 1.69738 22.8854C1.63742 22.9506 1.55325 23.004 1.51032 23.004C1.3954 23.004 0.959779 23.2709 0.934204 23.357C0.888191 23.512 0.95442 23.6581 1.11264 23.7507C1.57082 24.0186 1.6062 23.9936 0.764206 23.997L0.00282669 24V23.8117V23.6235L0.250504 23.6339C0.497007 23.6442 0.498254 23.6437 0.510033 23.5107C0.537185 23.2046 0.34319 23.0635 0.109676 23.2196L0 23.2929L0.0106049 21.6964L0.0211735 20.1L0.195942 19.8955C0.293582 19.7812 0.450591 19.6567 0.55179 19.6133C0.693608 19.5524 0.754151 19.4925 0.830986 19.3369C0.929617 19.1373 1.08894 18.9749 1.30113 18.8577C1.36402 18.823 1.51076 18.6859 1.62719 18.5531C1.8767 18.2684 1.95728 18.2364 2.58891 18.172C2.99546 18.1306 3.07392 18.1338 3.12536 18.1939C3.2037 18.2856 3.3428 18.2099 3.42397 18.0315C3.65752 17.5182 3.67862 17.4383 3.65487 17.1581C3.63601 16.9351 3.64174 16.8854 3.68625 16.8854C3.77739 16.8854 3.9428 16.9811 4.02628 17.0822C4.11882 17.1942 4.27124 17.1839 4.28889 17.0643C4.29553 17.0193 4.2544 16.9284 4.19753 16.8623C4.14061 16.7962 4.05934 16.6997 4.01685 16.6477C3.97436 16.5959 3.92325 16.5534 3.90328 16.5534C3.88329 16.5534 3.83705 16.5107 3.80054 16.4585C3.76404 16.4063 3.71744 16.3636 3.69703 16.3636C3.6522 16.3636 3.58365 16.284 3.31161 15.9158C3.19709 15.7608 3.01671 15.5184 2.91074 15.3771L2.7181 15.1201V15.2605C2.7181 15.4754 2.78951 15.7031 2.92524 15.921C3.07861 16.1673 3.09648 16.1065 2.76397 16.4697C2.60755 16.6406 2.4312 16.8386 2.37205 16.9097C2.3129 16.9809 2.08174 17.1943 1.85835 17.3841C1.37925 17.791 1.15242 17.8828 0.626606 17.8823C0.434885 17.8821 0.220637 17.8872 0.150517 17.8936C0.057133 17.9021 0.0198151 17.8844 0.0110455 17.8276C-0.00245754 17.7401 0.250249 17.6713 0.312883 17.7453C0.365758 17.8079 0.530618 17.7947 0.607857 17.7217C0.702745 17.632 0.579934 17.5452 0.360291 17.5468C0.274686 17.5474 0.159249 17.546 0.103733 17.5436L0.00282669 17.5394V16.6485V15.7576L0.129786 15.7268C0.535242 15.6285 0.979484 15.1949 1.05074 14.8279C1.06358 14.7617 1.09727 14.6826 1.12556 14.6523C1.15385 14.6219 1.177 14.5752 1.177 14.5485C1.177 14.5218 1.23663 14.3838 1.3095 14.2419C1.47051 13.9283 1.47095 13.8893 1.31985 13.3518C1.17707 12.8439 1.14827 12.1531 1.25813 11.87C1.29093 11.7855 1.32953 11.6471 1.34392 11.5624C1.40743 11.1887 1.87501 10.5978 2.36769 10.2686C2.55034 10.1465 2.74782 9.99709 2.80661 9.93643L2.91342 9.8261L2.80074 9.73755L2.68809 9.64895L2.79057 9.57292C2.89749 9.49361 2.96127 9.16862 2.90003 9.01522C2.88308 8.97282 2.90083 8.91828 2.94743 8.86952C3.04783 8.76441 2.9733 8.61315 2.7075 8.38278C2.47439 8.18073 2.2044 7.86043 2.2044 7.78596C2.2044 7.75584 2.1873 7.73123 2.16639 7.73123C2.14551 7.73123 2.09579 7.64054 2.05594 7.52964C2.01606 7.41875 1.93577 7.21067 1.87754 7.06719C1.71088 6.65677 1.65566 6.45315 1.6073 6.07115C1.56481 5.73538 1.55663 5.71456 1.46166 5.70043C1.30264 5.67676 1.25442 5.86454 1.35823 6.10326C1.42985 6.26798 1.43356 6.30835 1.39463 6.49907C1.37078 6.61589 1.34098 6.89398 1.32836 7.117C1.31317 7.38579 1.28326 7.56621 1.23967 7.65197C1.20353 7.72311 1.18452 7.80346 1.19748 7.8305C1.23432 7.90757 1.17887 8.20553 1.12772 8.20553C1.1024 8.20553 1.02473 8.27957 0.955084 8.37002C0.885404 8.46052 0.802953 8.53523 0.771837 8.53603C0.740722 8.53689 0.638349 8.62824 0.544342 8.73913L0.373463 8.94071L0.362198 9.42688C0.353759 9.79314 0.362345 9.91304 0.397057 9.91304C0.422411 9.91304 0.443142 9.8833 0.443142 9.84697C0.443142 9.74888 0.540856 9.71791 0.741859 9.7524C0.926608 9.78408 0.931709 9.79153 0.964952 10.0791C0.971521 10.1358 1.00931 10.1801 1.05903 10.1892C1.20852 10.2168 1.28264 10.4286 1.18027 10.5358C1.06821 10.6531 1.03526 10.6478 0.993536 10.5059C0.974346 10.4407 0.945874 10.3849 0.930243 10.3819C0.914611 10.3789 0.818036 10.3701 0.715626 10.3623C0.613216 10.3545 0.464939 10.3133 0.386086 10.2708C0.251422 10.198 0.2399 10.1984 0.195135 10.2775C0.119805 10.4107 0.163908 10.5849 0.467726 11.3542C0.696836 11.9343 0.732577 13.1854 0.53293 13.6364C0.486771 13.7407 0.421677 13.9354 0.388323 14.0691C0.35196 14.2146 0.262614 14.4048 0.165415 14.5434L0.00315666 14.7747L0.00297546 11.9276C0.00282869 9.33325 0.00833076 9.07024 0.0647278 8.96618C0.0987421 8.90334 0.137966 8.76522 0.151836 8.65916C0.165706 8.55315 0.203906 8.33919 0.23671 8.18371C0.330166 7.741 0.318349 7.05647 0.213921 6.86372C0.168605 6.77995 0.127731 6.70307 0.123108 6.69282C0.118448 6.68262 0.089495 6.70122 0.0587463 6.73423C0.0100181 6.78654 0.00282669 6.76572 0.00282669 6.57216C0.00282669 6.33714 0.0525827 6.31665 0.114264 6.52634C0.152057 6.65492 0.229002 6.67409 0.294939 6.57135C0.332439 6.51296 0.454115 6.07005 0.432209 6.07171C0.428136 6.072 0.33398 6.10378 0.222984 6.14229C0.111988 6.18081 0.0170647 6.21259 0.012001 6.21287C0.00693741 6.2132 0.00282669 5.91055 0.00282669 5.54035C0.00282669 4.96923 0.0102027 4.8803 0.0515556 4.95334C0.096798 5.03336 0.105936 5.0271 0.179468 4.86598C0.420431 4.33802 0.424025 3.34544 0.184347 3.51126C0.0233386 3.62262 0.00282669 3.5436 0.00282669 2.81198C0.00282669 2.23342 0.0111936 2.12841 0.0555553 2.15042C0.380398 2.31154 0.78013 2.21616 0.80332 1.97198C0.81686 1.82964 0.987151 1.79668 1.06692 1.92095C1.09206 1.96008 1.12992 1.99209 1.1511 1.99209C1.17227 1.99209 1.21975 2.02743 1.25666 2.07059C1.31974 2.1444 1.32377 2.14283 1.32377 2.04498C1.32377 1.64974 0.98029 1.34926 0.727989 1.52381C0.651411 1.57679 0.244634 1.58808 0.1831 1.53894C0.102742 1.47477 0.241295 1.32821 0.356033 1.35605C0.515171 1.39461 0.556633 1.29349 0.430372 1.17462C0.376874 1.12425 0.333063 1.04163 0.333063 0.991067C0.333063 0.939036 0.293252 0.875715 0.241331 0.845123C0.182659 0.810593 0.149599 0.752253 0.149599 0.683336C0.149599 0.617217 0.121236 0.563905 0.0762138 0.545455C0.0146798 0.520221 0.00282669 0.473692 0.00282669 0.257692V0H0.426704H0.85058L0.88632 0.130435C0.910391 0.218372 0.989207 0.307589 1.12827 0.404348C1.36116 0.566324 1.4544 0.807937 1.41617 1.1502C1.39753 1.31706 1.47664 1.42302 1.5134 1.28044C1.52045 1.25308 1.72134 1.22623 1.9856 1.21731C2.42959 1.20237 2.44896 1.19734 2.5451 1.07308C2.59988 1.00226 2.64472 0.923241 2.64472 0.897534C2.64472 0.871826 2.66923 0.838625 2.69921 0.823731C2.72915 0.808885 2.81358 0.725787 2.88682 0.639083C2.96006 0.552379 3.14455 0.373091 3.29679 0.240711L3.5736 0H7.75197C11.6977 0 11.9317 0.00460079 11.9546 0.083004C11.9852 0.187968 12.1475 0.399368 12.2271 0.438213C12.3406 0.493518 12.3313 0.412316 12.2004 0.205945L12.0699 0H14.346H16.6221L16.612 0.391304C16.6034 0.721992 16.5839 0.827953 16.4858 1.07521L16.3698 1.36786L16.4985 1.51394C16.6559 1.69262 16.8483 1.71377 16.9308 1.56157L16.9842 1.46305L17.1318 1.58353C17.2129 1.64974 17.2905 1.74939 17.3042 1.80493C17.3178 1.86047 17.3851 1.93627 17.4538 1.97336C17.5225 2.01045 17.5787 2.05845 17.5787 2.07998C17.5787 2.10152 17.6213 2.14421 17.6733 2.17485C17.7521 2.22128 17.7641 2.25249 17.7453 2.36319C17.7286 2.46171 17.7421 2.51848 17.7977 2.5836C17.8901 2.69165 17.9097 2.66879 17.9352 2.42357C17.9462 2.31747 17.9778 2.20639 18.0055 2.1767C18.0331 2.14705 18.0559 2.09872 18.056 2.06931C18.0562 2.03986 18.1263 1.9644 18.212 1.9016C18.583 1.6293 18.6155 1.46153 18.3823 1.02005C18.2373 0.745376 18.0921 0.593265 17.7805 0.389549C17.6998 0.336806 17.6039 0.227573 17.5675 0.146798L17.5012 0H17.7008C17.8637 0 17.9037 0.0160316 17.918 0.0871304ZM2.13102 0.0446324C2.13102 0.177059 1.63174 0.193945 1.49072 0.0662609C1.42589 0.00758893 1.45836 0 1.77425 0C1.97272 0 2.13102 0.0198261 2.13102 0.0446324ZM18.8305 0.517375C18.7745 0.563289 18.9732 1.07573 19.0647 1.12112C19.0901 1.13374 19.1218 1.24952 19.135 1.37839C19.1482 1.50721 19.175 1.61265 19.1945 1.61265C19.2385 1.61265 19.2418 1.15347 19.198 1.11847C19.1805 1.10447 19.1554 1.00572 19.1422 0.899004C19.1073 0.61736 18.9475 0.421613 18.8305 0.517375ZM17.7622 3.01186C17.7371 3.05099 17.6803 3.083 17.6361 3.083C17.5827 3.083 17.5344 3.13489 17.4926 3.23715C17.458 3.32191 17.4024 3.44718 17.3691 3.51548C17.3094 3.6379 17.3108 3.64231 17.4626 3.82904L17.6167 4.01848L17.7107 3.77602C17.7624 3.64269 17.8265 3.50158 17.8532 3.46245C17.9116 3.37674 17.9873 3.03685 17.9605 2.98074C17.9296 2.91624 17.8117 2.93473 17.7622 3.01186ZM0.980328 3.78754C0.986969 4.59368 1.0933 4.88699 1.22353 4.4585C1.26327 4.32768 1.30333 4.26877 1.35261 4.26877C1.47579 4.26877 1.59941 3.75462 1.52874 3.53606C1.46933 3.35222 1.43044 3.32974 1.36047 3.43874C1.29317 3.54351 1.27016 3.52947 1.16144 3.31712C1.00311 3.00783 0.97453 3.08206 0.980328 3.78754ZM9.15195 4.10509C9.12043 4.21124 9.34639 4.45651 9.48538 4.46704C9.72073 4.48482 9.85935 4.4493 9.99171 4.33722C10.0669 4.27347 10.1454 4.22134 10.166 4.22134C10.1981 4.22134 10.2209 4.13938 10.1943 4.1197C10.1893 4.116 9.97046 4.09845 9.70811 4.08081C9.44575 4.06311 9.21818 4.04481 9.20244 4.04016C9.18666 4.03546 9.16395 4.06468 9.15195 4.10509ZM7.45149 4.53638C7.45149 4.65154 7.67069 4.98024 7.74749 4.98024C7.85717 4.98024 7.89298 4.7335 7.80217 4.60378C7.75707 4.53937 7.45149 4.48065 7.45149 4.53638ZM14.9083 6.05013C14.8066 6.1422 14.7986 6.39505 14.8925 6.54507C14.9797 6.68424 15.0479 6.58715 15.0857 6.27021C15.123 5.95712 15.0758 5.8985 14.9083 6.05013ZM14.296 6.64715C14.2687 7.03987 14.3104 7.16087 14.4098 6.97745C14.4396 6.92248 14.4933 6.87747 14.5292 6.87747C14.6311 6.87747 14.6433 6.83004 14.5669 6.73124C14.5282 6.68125 14.4965 6.5833 14.4965 6.51363C14.4965 6.37703 14.3902 6.18773 14.3473 6.24787C14.333 6.26808 14.3098 6.44775 14.296 6.64715ZM15.1937 6.99221C15.1937 7.08138 15.2184 7.2148 15.2486 7.28865C15.2789 7.3625 15.3204 7.5083 15.341 7.61265C15.3904 7.86323 15.4738 7.98322 15.692 8.11788C15.8042 8.18708 15.8774 8.26515 15.8855 8.32411C15.9077 8.48656 16.0018 8.57843 16.207 8.63777C16.5502 8.73704 16.6768 8.57047 16.5914 8.13216C16.5618 7.97995 16.561 7.8913 16.5888 7.82419C16.615 7.76106 16.6158 7.70281 16.5915 7.6476C16.5598 7.57594 16.5498 7.58457 16.5144 7.71401C16.4639 7.89856 16.2852 7.96776 16.1793 7.84378C16.1305 7.78672 16.0719 7.77292 15.9605 7.79227C15.7209 7.83382 15.5595 7.64362 15.6778 7.45926C15.7212 7.39181 15.7226 7.09039 15.6801 7.00112C15.6382 6.91328 15.5565 7.20583 15.5962 7.3016C15.6215 7.36269 15.6219 7.40329 15.5974 7.42283C15.5428 7.46647 15.4872 7.40609 15.4872 7.30321C15.4872 7.2535 15.4529 7.18909 15.411 7.16006C15.369 7.13104 15.3178 7.0449 15.2973 6.96868C15.2468 6.78147 15.1937 6.79352 15.1937 6.99221ZM10.0262 7.90909C9.99956 8.00694 9.96066 8.22062 9.93971 8.38397C9.89432 8.73866 9.92889 8.82213 10.1212 8.82213H10.2502L10.2238 8.3133C10.2093 8.03341 10.1896 7.78795 10.1799 7.76784C10.1388 7.68171 10.0712 7.74379 10.0262 7.90909ZM17.4801 8.02767C17.4897 8.0603 17.4888 8.32255 17.4779 8.61045C17.4604 9.07817 17.4655 9.14338 17.5266 9.22231C17.5642 9.27092 17.6135 9.35549 17.6362 9.41028C17.6588 9.46506 17.7119 9.58819 17.7541 9.68386C17.7964 9.77957 17.8548 9.96161 17.8839 10.0884C17.9312 10.2941 18.054 10.5826 18.169 10.758C18.1914 10.7923 18.2015 10.8617 18.1913 10.9122C18.1777 10.9792 18.1915 11.004 18.2427 11.004C18.3053 11.004 18.3296 11.0544 18.3169 11.1581C18.3145 11.1776 18.3363 11.1937 18.3652 11.1937C18.3941 11.1937 18.4269 11.2312 18.4382 11.2771C18.4495 11.323 18.4959 11.3817 18.5414 11.4075C18.663 11.4767 18.6677 11.6107 18.5506 11.6682C18.4742 11.7058 18.4169 11.6955 18.2864 11.6209C18.1049 11.5172 17.9457 11.4963 17.9457 11.5763C17.9457 11.7499 18.2085 11.9913 18.4803 12.0672C18.5423 12.0845 18.6555 12.1772 18.732 12.2733C18.8109 12.3723 18.913 12.452 18.968 12.4573C19.0212 12.4624 19.0751 12.4683 19.0876 12.4705C19.1002 12.4726 19.121 12.5593 19.1338 12.6632C19.1651 12.9161 19.306 13.0505 19.411 12.9277C19.4746 12.8534 19.4891 12.8529 19.5917 12.9214C19.7304 13.0142 19.8126 13.0159 19.8882 12.9274C19.9318 12.8765 19.9817 12.869 20.0819 12.8982C20.1926 12.9305 20.2283 12.9214 20.2795 12.8483C20.4834 12.557 20.6369 12.9475 20.4775 13.3518C20.4371 13.4541 20.4041 13.5606 20.4041 13.5884C20.4041 13.6163 20.3752 13.6733 20.3399 13.7153C20.3045 13.7573 20.2465 13.842 20.2109 13.9037C20.1752 13.9653 20.09 14.1062 20.0216 14.2166L19.8972 14.4175L19.859 14.2759C19.7878 14.0118 19.4044 14.0937 19.3578 14.383C19.3441 14.468 19.3015 14.6081 19.2631 14.6944C19.2246 14.7807 19.1932 14.8798 19.1932 14.9146C19.1932 14.9495 19.1685 14.9903 19.1382 15.0053C19.1013 15.0236 19.083 15.0994 19.0826 15.2357C19.0823 15.3473 19.0661 15.4708 19.0467 15.5099C19.0226 15.5583 19.012 15.4411 19.0135 15.144C19.0148 14.9037 19.0058 14.6862 18.9937 14.6608C18.9815 14.6354 19.0068 14.4833 19.0497 14.3228C19.1401 13.9852 19.1258 13.9474 18.8949 13.9138C18.8067 13.901 18.5983 13.8461 18.4317 13.7918C17.9972 13.6501 18.0038 13.6378 17.989 14.6172C17.9822 15.0717 17.955 15.5185 17.9233 15.6993C17.8268 16.2487 17.9318 17.8618 18.09 18.2609C18.1055 18.3 18.166 18.3392 18.2246 18.348C18.2831 18.3569 18.3475 18.3816 18.3676 18.403C18.3878 18.4244 18.586 18.5589 18.808 18.702C19.0299 18.8451 19.243 19.0071 19.2815 19.0621C19.3199 19.1171 19.3834 19.1621 19.4224 19.1621C19.4616 19.1621 19.5355 19.2047 19.5868 19.2569C19.6382 19.3091 19.7068 19.3521 19.7394 19.3525C19.7864 19.3531 19.7884 19.3616 19.7492 19.3938C19.5749 19.5365 19.8882 19.7218 20.1214 19.6139C20.2015 19.5769 20.2314 19.582 20.2579 19.637C20.3019 19.7282 20.0779 19.7832 19.6152 19.7947C19.1072 19.8074 18.9052 20.0144 19.0602 20.3635C19.1136 20.4838 19.1151 20.5136 19.0707 20.5796C19.0425 20.6217 19.011 20.7095 19.0009 20.7747C18.9908 20.8399 18.9709 20.9287 18.9568 20.972C18.9389 21.0267 18.9532 21.0598 19.0037 21.0805C19.091 21.1163 19.1219 21.2046 19.0946 21.3398C19.0629 21.4966 18.9306 21.5057 18.6305 21.3718C18.4791 21.3043 18.3457 21.249 18.334 21.249C18.3222 21.249 18.3126 21.4169 18.3126 21.6222C18.3126 21.8959 18.2916 22.0604 18.2339 22.2399C18.1581 22.4758 18.1575 22.4934 18.2156 22.726C18.2488 22.8588 18.2759 23.0034 18.2759 23.0474C18.2759 23.224 18.4459 23.3052 18.5328 23.17C18.5963 23.071 18.6158 23.0797 18.6855 23.238C18.7313 23.3421 18.7656 23.3702 18.8232 23.3508C18.9055 23.3229 19.0061 23.41 19.3217 23.7822L19.5051 23.9985L16.4728 23.9992L13.4406 24L13.4185 23.8458C13.3993 23.7125 13.3918 22.6954 13.4063 22.1973C13.4094 22.0901 13.3809 21.9781 13.3261 21.8824C13.1552 21.5834 13.2999 21.2106 14.0274 20.0758C14.1427 19.8959 14.2591 19.6938 14.2861 19.6265C14.313 19.5593 14.3889 19.4113 14.4548 19.2976C14.8093 18.6854 14.8598 18.5783 14.8954 18.3638C14.9376 18.1095 15.1067 17.7391 15.1806 17.7391C15.2065 17.7391 15.247 17.6911 15.2704 17.6324C15.2938 17.5737 15.3416 17.483 15.3765 17.4308C15.5531 17.1675 15.829 16.3464 15.8466 16.0316C15.861 15.7763 15.7678 15.0482 15.7114 14.9747C15.6782 14.9313 15.357 15.3326 15.2873 15.5045C15.2302 15.6453 15.1824 15.567 15.1378 15.26C15.11 15.068 15.081 15.044 15.0102 15.1542C14.9811 15.1994 14.9001 15.2253 14.787 15.2253C14.6629 15.2253 14.5897 15.2515 14.5438 15.3126C14.3821 15.5276 14.2719 15.4872 14.0476 15.1303C13.7545 14.6641 13.6127 14.143 13.6877 13.808C13.7252 13.6405 13.9226 13.3755 14.0098 13.3755C14.0376 13.3755 14.1048 13.315 14.1592 13.241C14.2241 13.1528 14.3274 13.0855 14.4598 13.0455C14.7498 12.9579 15.127 12.7093 15.1614 12.5833C15.1897 12.4803 15.0402 12.0393 14.9143 11.854C14.8486 11.7572 14.8493 11.668 14.9156 11.668C14.99 11.668 15.2666 12.0996 15.2669 12.2161C15.267 12.2697 15.3084 12.3859 15.3588 12.4743C15.4093 12.5627 15.4505 12.6961 15.4505 12.7707C15.4505 13.2384 15.974 13.8819 16.1993 13.6911C16.2541 13.6447 16.3066 13.5463 16.3188 13.4672C16.349 13.272 16.3652 13.2695 16.5486 13.4312C16.6858 13.552 16.7232 13.5656 16.798 13.5216C16.9217 13.4487 16.9079 13.1228 16.7801 13.0994C16.7263 13.0895 16.7069 13.0644 16.7251 13.0283C16.7405 12.9975 16.7531 12.7055 16.7531 12.3794C16.7531 11.8453 16.7617 11.7665 16.8397 11.5843C16.9103 11.4192 16.9298 11.2886 16.9456 10.8729C16.9657 10.3435 17.1042 9.79257 17.1741 9.96375C17.2482 10.145 17.2486 10.4908 17.1749 10.6119C17.0878 10.755 17.0806 10.9023 17.1572 10.975C17.206 11.0214 17.2038 11.049 17.1383 11.2067C17.0559 11.4051 17.0176 11.9769 17.0821 12.0458C17.103 12.0682 17.1696 12.0937 17.2302 12.1025C17.3017 12.113 17.3529 12.1559 17.3765 12.2253C17.4272 12.3747 17.4812 12.3586 17.4563 12.2016C17.3746 11.6856 17.3638 11.541 17.3941 11.3665C17.4153 11.2448 17.4138 11.1435 17.39 11.0861C17.3616 11.0175 17.3674 10.9824 17.4142 10.9381C17.4523 10.9021 17.4793 10.8001 17.4853 10.6693C17.4906 10.5534 17.508 10.2836 17.5238 10.0698C17.5522 9.68694 17.5102 9.3913 17.4275 9.3913C17.4098 9.3913 17.3953 9.2216 17.3953 9.01423C17.3953 8.73429 17.3816 8.62719 17.3421 8.59869C17.2959 8.56525 17.2965 8.52166 17.3467 8.2643C17.4025 7.97777 17.4437 7.90468 17.4801 8.02767ZM1.83179 9.51481C1.94278 9.61532 1.93317 9.65635 1.74218 9.89625C1.53956 10.1508 1.42182 10.163 1.40435 9.93111C1.39448 9.80006 1.37566 9.77791 1.23923 9.73722L1.08527 9.69126L1.19535 9.63111C1.25589 9.59801 1.37147 9.56647 1.4522 9.56096C1.53292 9.55546 1.63357 9.52672 1.67584 9.49712C1.73613 9.45491 1.76985 9.4587 1.83179 9.51481ZM3.13776 10.9614C3.124 10.9901 3.0559 11.0444 2.9864 11.0819C2.89199 11.1329 2.86165 11.1766 2.86653 11.2549C2.87008 11.3125 2.87119 11.3864 2.86895 11.419C2.86411 11.4895 2.73223 11.4988 2.69976 11.4308C2.59614 11.2141 2.24491 11.5685 2.21416 11.9207C2.19835 12.1024 2.25985 12.6166 2.29742 12.6166C2.38203 12.6166 2.49795 12.5059 2.49795 12.4249C2.49795 12.2068 2.71337 12.0028 2.94817 11.9985C3.05608 11.9965 3.2318 11.7931 3.2318 11.6701C3.2318 11.6166 3.26483 11.4932 3.30519 11.3958C3.38808 11.1959 3.40136 10.9763 3.33271 10.9405C3.25162 10.8982 3.16345 10.9076 3.13776 10.9614ZM4.90133 11.9946C4.73812 12.0917 4.57073 12.5474 4.38947 13.3878C4.29726 13.8153 4.15694 14.2646 4.08492 14.3631C4.05967 14.3975 4.03905 14.4478 4.03905 14.4748C4.03905 14.5018 3.99707 14.591 3.94578 14.673C3.89444 14.755 3.82429 14.8701 3.78983 14.9287C3.75534 14.9873 3.64919 15.1474 3.55386 15.2844C3.3319 15.6036 3.33165 15.6968 3.55191 15.9904C3.81739 16.3441 3.88314 16.2988 3.97436 15.6996C3.99619 15.5561 4.03619 15.3966 4.06326 15.3452C4.09031 15.2937 4.11243 15.1824 4.11243 15.0978C4.11243 14.9926 4.13559 14.928 4.18582 14.8933C4.23338 14.8604 4.25921 14.794 4.25921 14.7047C4.25921 14.6289 4.27454 14.5546 4.29333 14.5396C4.3542 14.491 4.55275 13.9329 4.55275 13.8104C4.55275 13.7449 4.58071 13.6513 4.61491 13.6025C4.67516 13.5164 4.69941 13.4471 4.82688 12.996C4.86009 12.8787 4.91928 12.6958 4.9585 12.5898C4.99769 12.4837 5.02976 12.3741 5.02976 12.3462C5.02976 12.3183 5.05442 12.2343 5.08458 12.1596C5.19326 11.8902 5.14685 11.8485 4.90133 11.9946ZM7.84594 12.3709C7.71597 12.527 7.71865 12.5506 7.87375 12.6167C8.02621 12.6818 8.09061 12.8139 8.06155 13.0018C8.04118 13.1333 8.04562 13.1383 8.18179 13.1383C8.36074 13.1383 8.39259 13.0842 8.41336 12.7446C8.42822 12.5018 8.42117 12.4632 8.35366 12.4169C8.31154 12.388 8.25587 12.3258 8.22997 12.2786C8.16682 12.1636 7.98137 12.2082 7.84594 12.3709ZM11.0474 13.3687C10.954 13.4572 10.7922 13.7809 10.7911 13.8816C10.7893 14.051 11.4757 13.9936 11.6437 13.8103C11.9212 13.5075 11.3485 13.0833 11.0474 13.3687ZM14.5526 13.7693C14.3199 13.9493 14.2688 14.0274 14.3132 14.1347C14.3359 14.1895 14.3767 14.2094 14.4361 14.1948C14.485 14.1827 14.5578 14.1955 14.5979 14.2232C14.9054 14.4359 15.3736 14.2634 15.3187 13.9577C15.2437 13.54 14.944 13.4663 14.5526 13.7693ZM8.09534 13.6203C8.04393 13.6505 8.00188 13.6898 8.00188 13.7075C8.00188 13.7252 7.96061 13.764 7.91015 13.7937C7.8597 13.8235 7.81842 13.8772 7.81842 13.9131C7.81842 13.949 7.76477 13.9983 7.69917 14.0227L7.57992 14.067L7.59151 14.8213L7.60307 15.5756L7.70963 15.7325C7.81493 15.8875 7.81596 15.8946 7.79769 16.3471C7.78753 16.5989 7.77164 16.8207 7.76239 16.84C7.75314 16.8594 7.77846 17.0083 7.81868 17.1711C7.85889 17.3338 7.89214 17.5335 7.89258 17.6149C7.89456 17.9982 8.14282 18.9936 8.41857 19.7237C8.46796 19.8545 8.64669 20.0046 8.68841 19.9503C8.73831 19.8854 8.71387 19.339 8.64995 19.0902C8.56211 18.7486 8.55712 16.3864 8.64126 15.0009C8.70382 13.9707 8.69395 13.8024 8.57106 13.8024C8.54244 13.8024 8.48935 13.7497 8.4531 13.6853C8.38001 13.5554 8.24655 13.5312 8.09534 13.6203ZM8.05692 14.0395C8.0694 14.0656 8.05469 14.087 8.02423 14.087C7.98266 14.087 7.96611 14.154 7.95785 14.3559C7.9453 14.663 7.90322 14.7063 7.76786 14.5516L7.67257 14.4427L7.75465 14.2174C7.83644 13.9931 7.99117 13.902 8.05692 14.0395ZM6.92352 14.5375C6.90557 14.6419 6.83476 14.9514 6.76618 15.2253C6.6976 15.4992 6.61724 15.9368 6.58763 16.1976C6.55802 16.4585 6.51975 16.7481 6.50265 16.8412C6.47234 17.0059 6.48416 18.1303 6.51843 18.3439C6.56462 18.6316 6.79025 18.2886 6.79146 17.9289C6.79186 17.8115 6.81766 17.5874 6.84881 17.4308C6.88 17.2743 6.9197 17.0473 6.93709 16.9264C6.95448 16.8055 7.02171 16.4853 7.08643 16.2149C7.2102 15.698 7.24751 14.7473 7.15626 14.4369C7.09909 14.2426 6.96421 14.3009 6.92352 14.5375ZM14.734 14.5634C14.6535 14.7318 15.0531 14.8311 15.1754 14.673C15.2242 14.6099 15.2265 14.5873 15.1872 14.5551C15.1176 14.498 14.7622 14.5045 14.734 14.5634ZM23.6817 14.8956C23.7653 15.1999 23.7998 15.7774 23.7399 15.8706C23.712 15.9141 23.7041 16.0231 23.718 16.1742C23.7396 16.41 23.734 16.4372 23.503 17.2174C23.476 17.3087 23.4198 17.468 23.3783 17.5713C23.3368 17.6746 23.3027 17.7813 23.3025 17.8084C23.3024 17.8356 23.2363 17.9064 23.1558 17.9658C23.0752 18.0253 23.0093 18.1004 23.0093 18.1326C23.0093 18.1882 22.9014 18.3198 22.538 18.7074C22.443 18.8088 22.3389 18.8775 22.2805 18.8775C22.2265 18.8775 22.0505 18.9647 21.8895 19.0713C21.5529 19.2941 21.0736 19.5039 21.0438 19.4416C21.0103 19.3715 21.0636 19.3043 21.1528 19.3043C21.1989 19.3043 21.2666 19.2617 21.3031 19.2095C21.3396 19.1573 21.3858 19.1146 21.4058 19.1146C21.4495 19.1146 21.7995 18.8183 21.928 18.6727C21.9782 18.6157 22.0563 18.5322 22.1015 18.4869C22.6258 17.9623 22.7668 17.8053 22.9041 17.5927C22.9922 17.4563 23.1034 17.2912 23.1511 17.226C23.1988 17.1608 23.3118 16.9241 23.4021 16.7L23.5664 16.2925L23.5579 15.5336C23.5463 14.5142 23.559 14.449 23.6817 14.8956ZM12.7486 15.6816C12.775 15.9683 12.775 15.9389 12.749 16.3476C12.7265 16.6999 12.6978 16.7494 12.5407 16.706C12.4597 16.6837 12.5255 16.5534 12.6177 16.5534C12.6623 16.5534 12.657 16.529 12.5933 16.4415C12.4864 16.2942 12.5145 15.7034 12.6304 15.6642C12.6674 15.6517 12.6908 15.6268 12.6823 15.609C12.6737 15.5911 12.6803 15.5481 12.6969 15.5133C12.7164 15.4726 12.7348 15.5325 12.7486 15.6816ZM15.2202 16.6026C15.1428 17.2367 15.1025 17.4545 15.0627 17.4545C14.9332 17.4545 15.0125 16.6339 15.1537 16.5128C15.2398 16.4389 15.2401 16.4393 15.2202 16.6026ZM16.0461 17.1581C15.9458 17.5104 15.8523 18.0472 15.8716 18.1604C15.8837 18.2319 15.8527 18.4877 15.8002 18.7488C15.7492 19.0028 15.7074 19.2524 15.7074 19.3034C15.7074 19.3543 15.68 19.4704 15.6464 19.5613C15.5953 19.6997 15.5933 19.739 15.6341 19.8025C15.7139 19.9267 15.8656 19.8734 15.9045 19.7075C15.9228 19.6292 15.9591 19.5012 15.9853 19.4229C16.2684 18.5741 16.3813 17.6931 16.2467 17.3834C16.2127 17.3051 16.1848 17.2073 16.1846 17.166C16.1841 16.9899 16.0954 16.9848 16.0461 17.1581ZM15.5625 18.083C15.4663 18.2065 15.168 18.8087 15.1338 18.9486C15.121 19.0008 15.055 19.1236 14.987 19.2215C14.8354 19.44 14.8191 19.6364 14.9528 19.6364C15.045 19.6364 15.1532 19.4733 15.3618 19.0198C15.4158 18.9024 15.4901 18.7498 15.527 18.6806C15.5639 18.6115 15.6052 18.4977 15.6187 18.4278C15.6324 18.3579 15.6661 18.2894 15.6938 18.2757C15.7596 18.243 15.7606 17.9763 15.6948 17.9763C15.6678 17.9763 15.6082 18.0243 15.5625 18.083ZM20.688 19.4192C20.896 19.4745 20.9653 19.5611 21.0028 19.8124C21.0293 19.9901 20.9806 20.0542 20.9111 19.9331C20.8169 19.7689 20.6174 19.5889 20.5297 19.5889C20.4661 19.5889 20.4408 19.5627 20.4408 19.4969C20.4408 19.3694 20.4683 19.3607 20.688 19.4192ZM7.26494 21.8901C7.31694 22.1903 7.42981 22.3606 7.46954 22.1988C7.49016 22.1148 7.40247 21.6261 7.31609 21.3439C7.26524 21.1777 7.22187 21.6412 7.26494 21.8901ZM8.27272 22.1039C8.27033 22.4293 8.25576 22.8207 8.24035 22.9735C8.21867 23.1882 8.22377 23.2606 8.2627 23.2917C8.31359 23.3324 8.31972 23.32 8.61025 22.5925C8.72356 22.3088 8.71365 22.0973 8.5769 21.8788C8.53151 21.8064 8.4742 21.6868 8.44954 21.6132C8.42026 21.5259 8.38254 21.4851 8.34089 21.4957C8.28464 21.5101 8.27657 21.5822 8.27272 22.1039ZM3.39839 23.0957C3.38676 23.1201 3.43116 23.1895 3.49713 23.25C3.89543 23.6151 4.05971 23.6723 3.88608 23.3855C3.74297 23.1491 3.45475 22.9779 3.39839 23.0957ZM2.71943 23.6078C2.71799 23.7235 2.84451 23.7932 2.97561 23.7489C3.02005 23.7339 3.0614 23.754 3.08155 23.8005C3.10334 23.8509 3.16069 23.8751 3.25037 23.8718C3.50883 23.8623 3.52135 23.6612 3.26894 23.5733C3.18638 23.5445 3.06584 23.4595 3.00104 23.3843L2.88322 23.2475L2.80198 23.3748C2.75729 23.4447 2.72016 23.5496 2.71943 23.6078Z" fill="black"/>
</svg>
