<svg width="24" height="24" viewBox="0 0 24 24" fill="none" xmlns="http://www.w3.org/2000/svg">
<path fill-rule="evenodd" clip-rule="evenodd" d="M24 0H7.50018H7.49981H6.41732H5.5H5H0V0.2V21.8978V24H5H12H24V12V0.2V0ZM7.9074 0.789997C7.8915 0.812282 7.87355 0.833554 7.85355 0.853553C5.69778 3.00933 5.66897 4.57748 5.91718 5.42142C5.96999 5.60098 6.03716 5.75478 6.10563 5.88154C6.13556 5.90408 6.1633 5.93592 6.18872 5.97723C6.21112 6.0136 6.24001 6.04865 6.27369 6.08144C6.30194 6.09995 6.32873 6.12162 6.35356 6.14645L6.36133 6.15424C6.48946 6.24567 6.65254 6.30657 6.79476 6.30657C7.66498 6.30657 7.97784 7.74219 7.26527 8.46517C7.16288 8.56905 7.08535 8.81553 7.09278 9.01314C7.1002 9.21057 7.14561 9.27381 7.19344 9.15328C7.24144 9.03293 7.42705 8.93431 7.6061 8.93431C7.81709 8.93431 7.89842 9.02225 7.83712 9.18429C7.76996 9.36158 7.83781 9.40905 8.07039 9.34739C8.65554 9.192 8.89019 9.72455 8.43868 10.1827L8.04846 10.5786L8.47027 10.6935C9.65163 11.0153 10.8851 12.0124 9.95827 11.8963C9.55701 11.846 9.06803 11.9413 9.28058 12.0284C9.68305 12.1932 9.49899 12.7447 8.88225 13.2221C7.42239 14.3518 8.97548 14.9476 11.4178 14.195C12.9289 13.7294 13.1378 13.4321 13.0242 11.9107C12.9417 10.8054 12.4317 9.71912 12.4317 10.6486C12.4317 11.3163 12.1412 11.0729 11.9016 10.2044C11.5847 9.05658 11.6141 8.31574 11.9933 7.89092C12.1699 7.69279 12.2697 7.48537 12.2151 7.42984C12.1604 7.37448 12.2257 7.06213 12.36 6.73594C12.6532 6.024 12.6639 5.89822 12.4178 6.05238C12.2942 6.12999 12.2464 5.94166 12.2754 5.49337C12.4087 3.44426 11.7533 2.46745 10.4752 2.8108C10.1743 2.89174 9.57842 2.93571 9.15108 2.90855C8.72374 2.8814 8.33473 2.91872 8.28673 2.99142C8.23856 3.06394 8.06262 3.02207 7.89565 2.89822C7.39994 2.53034 9.10049 1.86324 10.1907 1.99796C11.5972 2.17174 11.7883 1.44841 10.446 1.03147L10.1007 0.924088L10.446 0.796555C10.636 0.726307 10.9652 0.584409 11.1776 0.481226C12.0585 0.0532555 13.6379 1.06721 13.9283 2.24707C13.9917 2.50458 14.2636 3.07883 14.5326 3.52309C14.8014 3.96718 15.0216 4.41495 15.0216 4.51778C15.0216 4.62079 15.1321 4.81699 15.2671 4.95399C15.5308 5.22149 15.5922 5.46149 15.5599 6.09793C15.5327 6.63801 15.1942 6.40677 15.1942 5.84794C15.1942 5.60058 15.1191 5.45711 15.0216 5.51825C14.9218 5.58079 14.8489 5.41436 14.8489 5.12374C14.8489 4.84712 14.7123 4.46803 14.5454 4.28128C14.0574 3.73524 13.6403 3.01244 13.6403 2.71288C13.6403 2.2327 13.1258 1.40146 12.8288 1.40146C12.5905 1.40146 12.6054 1.4675 12.9196 1.80683C13.3153 2.23428 13.4125 2.62774 13.1223 2.62774C13.0273 2.62774 12.9496 2.5179 12.9496 2.38371C12.9496 2.1388 12.5351 1.88041 12.3856 2.03212C12.1861 2.23445 12.4705 4.30441 12.7252 4.50359C12.9151 4.65215 12.9645 4.87375 12.8906 5.24812C12.7692 5.86458 13.018 5.97127 13.2147 5.38686C13.3343 5.03124 13.3544 5.04946 13.4193 5.57448C13.4614 5.91416 13.3828 6.32426 13.2304 6.56023C12.9215 7.03848 12.9866 7.80315 13.4136 8.71498C13.8088 9.55901 13.94 9.05658 13.5633 8.14178C13.2608 7.40689 13.2102 6.65693 13.4633 6.65693C13.5598 6.65693 13.5856 6.89098 13.5234 7.20596C13.3753 7.95784 13.8297 7.80701 14.0258 7.03918C14.3503 5.76893 14.818 6.43323 15.0302 8.46604C15.1405 9.52204 15.2751 9.97226 15.6155 10.4251L15.6378 10.4547C15.914 10.8221 16.0481 11.0004 16.004 11.0808C15.9623 11.1566 15.7618 11.1451 15.3721 11.1227L15.3389 11.1208L14.6201 11.0798L15.0368 11.4046C15.2657 11.5832 15.6142 11.7313 15.8108 11.7334C16.0077 11.7355 16.4738 11.8886 16.8468 12.0736L17.5252 12.4099L17.6264 12.0298C17.682 11.8206 17.6666 11.4778 17.592 11.2677C17.5176 11.0577 17.5036 10.5922 17.5611 10.2333C17.6877 9.44199 17.3532 9.53483 17.1792 10.3393C17.0096 11.1223 16.7292 10.7772 16.7729 9.83947C16.81 9.04432 16.3414 7.70803 16.0256 7.70803C15.9483 7.70803 15.8849 7.98394 15.8849 8.32117C15.8849 8.65839 15.8072 8.93431 15.7122 8.93431C15.5171 8.93431 15.4864 8.19696 15.6475 7.37956C15.7613 6.80251 16.0576 6.62225 16.0576 7.12993C16.0576 7.35223 16.1073 7.37728 16.2537 7.22873C16.3999 7.08035 16.3777 6.95667 16.1658 6.74172C15.9025 6.47457 15.9206 6.12596 16.1972 6.13542C16.4492 6.144 17.5699 7.29915 17.6858 7.66949C17.7527 7.88339 17.8798 8.05839 17.9684 8.05839C18.057 8.05839 18.1295 8.17699 18.1295 8.32204C18.1295 8.46709 18.3313 8.99912 18.5781 9.50453C18.9327 10.231 19.0418 10.7534 19.0986 12C19.1751 13.6791 19.3778 14.4359 19.8862 14.9411C20.2831 15.3356 20.2803 15.2815 19.8516 14.2669C19.5654 13.5891 19.5072 13.1024 19.5308 11.5808C19.5933 7.55545 19.0287 5.57343 16.842 2.14406C16.5531 1.69097 14.7732 0.598527 13.6994 0.2H10.671C9.76887 0.213511 8.95798 0.273018 8.81871 0.338453C8.66918 0.408701 8.28794 0.597898 7.97163 0.758715C7.95085 0.769279 7.92941 0.779716 7.9074 0.789997ZM10.1871 5.19784C9.44892 5.31749 8.28777 5.80117 8.28777 5.98914C8.28777 6.08777 8.46268 6.38593 8.67626 6.65203C8.88984 6.91796 9.14642 7.27673 9.24622 7.44946C9.45186 7.80543 10.5042 7.86254 10.7075 7.52882C10.7748 7.41828 10.8799 7.33594 10.9409 7.34593C11.207 7.3892 12.0111 7.11171 12.1269 6.93653C12.414 6.50172 12.2469 6.30657 11.5875 6.30657C11.1933 6.30657 10.7544 6.17378 10.5248 5.98511L10.1335 5.66383L10.5441 5.37197C10.7698 5.2115 10.8789 5.09098 10.7867 5.10412C10.6943 5.11726 10.4245 5.15947 10.1871 5.19784ZM17.6115 12.8071C17.6115 12.9138 17.5096 12.9614 17.3852 12.9129C17.218 12.8479 17.1667 13.0152 17.189 13.5511C17.2453 14.8973 17.2546 14.9326 17.5252 14.8271C17.6826 14.766 17.7842 14.8267 17.7842 14.9823C17.7842 15.3213 18.4859 16.1306 18.6763 16.0112C18.7585 15.9597 18.7708 15.8242 18.7034 15.7105C18.635 15.5947 18.7108 15.6103 18.8757 15.7461C19.0826 15.9164 19.1646 16.2293 19.1513 16.7972C19.133 17.5717 19.6978 19.1112 19.9896 19.0826C20.6345 19.0194 20.7426 18.8216 20.385 18.3603C20.189 18.1077 20.03 17.7952 20.0314 17.6658C20.0334 17.4848 20.0711 17.4899 20.1947 17.6884C20.2831 17.8301 20.4148 17.8856 20.4877 17.8119C20.5604 17.7379 20.5138 17.5049 20.3839 17.294C20.106 16.8424 20.0006 15.5912 20.2405 15.5912C20.3318 15.5912 20.4471 15.7489 20.4967 15.9416C20.5464 16.1343 20.6538 16.292 20.7353 16.292C20.8168 16.292 20.8368 16.5283 20.7799 16.8172C20.7186 17.1281 20.764 17.4491 20.8911 17.6044C21.009 17.7488 21.0644 18.0263 21.0142 18.2211C20.9639 18.4161 21.0224 18.6766 21.144 18.7999C21.2657 18.9234 21.494 19.2767 21.6511 19.5852L21.9369 20.146H21.4146C21.1273 20.146 20.8921 20.0696 20.8921 19.9762C20.8921 19.883 20.76 19.858 20.5987 19.9209C20.4152 19.9923 20.3827 20.0614 20.5124 20.1052C20.7379 20.1814 20.8001 20.4963 20.5896 20.4963C20.3793 20.4963 18.8201 18.9647 18.8201 18.7582C18.8201 18.6543 18.7378 18.5693 18.6373 18.5693C18.5368 18.5693 18.5019 18.4914 18.5599 18.3961C18.618 18.3008 18.5344 17.9425 18.3742 17.5997C18.2138 17.257 18.0321 16.7241 17.9701 16.4153C17.8911 16.0201 17.7477 15.8379 17.4858 15.7994C16.5412 15.6606 16.3671 12.6131 17.3038 12.6131C17.473 12.6131 17.6115 12.7004 17.6115 12.8071ZM16.1372 14.8378C16.2499 15.294 16.8048 15.9355 17.3582 16.2496C17.5533 16.3605 17.6324 16.7261 17.6542 17.6165C17.6771 18.5594 17.7531 18.8834 17.9929 19.0611C18.163 19.1869 18.3022 19.4009 18.3022 19.5367C18.3022 19.6723 18.4541 19.8659 18.6399 19.9668C18.9486 20.1342 19.4279 21.3395 19.2556 21.5145C19.2152 21.5553 19.1266 21.3635 19.0584 21.0881C18.9408 20.6128 18.615 20.146 18.4007 20.146C18.3465 20.146 18.3022 20.4172 18.3022 20.7488C18.3022 21.2556 17.9838 21.8573 17.9435 21.4264C17.9363 21.3484 17.9021 21.1312 17.8676 20.9438C17.833 20.7563 17.7831 20.3227 17.7567 19.9803C17.7291 19.6217 17.5734 19.2571 17.3895 19.1205C17.214 18.9901 17.106 18.789 17.1496 18.6738C17.1932 18.5585 17.1236 18.271 16.9946 18.035C16.8658 17.7989 16.7577 17.4396 16.7542 17.2364C16.751 17.0332 16.5161 16.4025 16.2325 15.8349C15.9488 15.2673 15.7157 14.7045 15.7145 14.5839C15.7103 14.1763 16.0194 14.3618 16.1372 14.8378Z" fill="black"/>
</svg>
