<svg width="24" height="24" viewBox="0 0 24 24" fill="none" xmlns="http://www.w3.org/2000/svg">
<path fill-rule="evenodd" clip-rule="evenodd" d="M3.38508 0.066588C3.40125 0.11112 3.48385 0.156345 3.56861 0.167074C3.65338 0.177746 3.78001 0.232603 3.85001 0.288903C4.15375 0.533138 4.43337 0.463225 4.14713 0.214606C3.94388 0.0380919 3.33138 -0.0809105 3.38508 0.066588ZM11.9955 0.217721C11.9255 0.233065 11.8091 0.29496 11.7369 0.355182C11.6394 0.436575 11.5164 0.463513 11.2596 0.459764C11.0693 0.457052 10.7991 0.492471 10.6591 0.53856C10.5191 0.58465 10.3149 0.610377 10.2053 0.595725C10.0957 0.581074 9.98662 0.597571 9.96288 0.632355C9.93921 0.667138 9.80665 0.695577 9.66837 0.695577C9.48873 0.695577 9.38538 0.730706 9.30622 0.818675C8.91205 1.25679 8.9328 1.243 8.76931 1.17551C8.62899 1.11754 8.47849 1.1454 8.33824 1.25523C8.28262 1.29878 8.49428 1.386 8.65776 1.38692C8.74704 1.38738 8.85 1.41496 8.8866 1.44813C8.92325 1.48135 9.1652 1.52185 9.42432 1.53817C9.79736 1.56171 10.0062 1.61524 10.4266 1.7951C10.7862 1.94894 11.0455 2.02231 11.2294 2.02231C11.3973 2.02231 11.559 2.06327 11.6528 2.12955C11.9476 2.33773 12.2147 2.4261 12.5491 2.42605C13.131 2.42599 13.9472 2.59892 14.1273 2.7605C14.2148 2.83901 14.3887 2.96499 14.5139 3.04056C14.8131 3.22128 15.0023 3.46044 15.0737 3.74828C15.1106 3.89722 15.2482 4.10425 15.4525 4.31797C15.7995 4.68104 15.8939 4.88985 15.7903 5.06527C15.7295 5.16824 15.7606 5.24934 15.9469 5.47425C15.9559 5.4851 16.0672 5.45989 16.1942 5.41824C16.4639 5.32987 16.5429 5.39073 16.5446 5.68815C16.5458 5.91098 16.6465 6.00229 16.8923 6.00339C17.1672 6.00466 17.2215 6.0549 17.2636 6.34661C17.3216 6.74919 17.5398 6.82683 17.8657 6.56091C18.1147 6.3578 18.4878 6.65378 18.3266 6.92663C18.2801 7.00542 18.3298 7.06022 18.5821 7.20847C18.906 7.39871 19.4728 7.95092 19.4728 8.07627C19.4728 8.11544 19.5301 8.2135 19.6001 8.29415C19.6701 8.37485 19.7273 8.48923 19.7273 8.54842C19.7273 8.66794 19.9445 8.69972 20.0187 8.59105C20.0476 8.54871 20.2032 8.5363 20.4663 8.55545C20.923 8.58868 21.065 8.51796 20.9313 8.32385C20.8062 8.14226 20.9971 7.69804 21.1893 7.72353C21.3148 7.7402 21.3295 7.72365 21.2961 7.60338C21.2722 7.51674 21.306 7.37824 21.3856 7.23795C21.5047 7.02769 21.5061 7.00802 21.4056 6.95431C21.0464 6.76246 20.955 6.49861 21.2166 6.40845C21.3007 6.37943 21.3883 6.32821 21.4113 6.29452C21.486 6.18486 21.6001 6.22888 21.9233 6.49192C22.098 6.63422 22.2722 6.75103 22.3103 6.7515C22.3485 6.75202 22.4123 6.81731 22.4521 6.89663C22.492 6.97595 22.5505 7.04084 22.5822 7.04084C22.6139 7.04084 22.6548 7.09276 22.6731 7.15621C22.6952 7.2331 22.7599 7.27158 22.8669 7.27158C22.9551 7.27158 23.0703 7.31051 23.1228 7.3581C23.1753 7.40569 23.2496 7.44463 23.288 7.44463C23.3264 7.44463 23.385 7.50952 23.4183 7.58884C23.4921 7.76483 23.6728 7.78145 23.6728 7.61226C23.6728 7.54004 23.6217 7.47941 23.5455 7.46136C23.4755 7.44474 23.4183 7.40702 23.4183 7.37749C23.4183 7.32384 22.8147 6.75242 22.758 6.75242C22.7008 6.75242 21.6918 5.85105 21.6167 5.73279C21.575 5.66732 21.487 5.52605 21.421 5.41882C21.355 5.31153 21.2619 5.20302 21.2142 5.17764C21.1664 5.15226 21.1273 5.10513 21.1273 5.07289C21.1273 5.04058 21.0486 4.9187 20.9523 4.80194C20.624 4.40358 20.4148 4.31941 20.346 4.55794C20.3159 4.66217 20.1109 4.69973 19.3154 4.74668C19.0531 4.7622 18.9034 4.62843 18.901 4.37623C18.9003 4.30292 18.8332 4.27425 18.6311 4.26087C18.4235 4.24719 18.3453 4.21235 18.2882 4.108C18.2475 4.03365 18.1252 3.9237 18.0162 3.86371C17.9073 3.80366 17.8182 3.72942 17.8182 3.69879C17.8182 3.61128 17.3639 3.23368 17.2587 3.23368C17.2066 3.23368 16.8888 2.99112 16.5525 2.69462C15.9942 2.20252 15.8689 2.12384 15.1137 1.79077C14.6587 1.59014 14.2435 1.39148 14.191 1.34937C14.1385 1.30726 13.9666 1.16772 13.8091 1.03937C13.6205 0.885531 13.4034 0.775931 13.1728 0.717958C12.9803 0.669561 12.7892 0.620356 12.7482 0.608647C12.707 0.596821 12.6889 0.534003 12.7079 0.468243C12.7353 0.373468 12.6958 0.331647 12.5141 0.26283C12.2808 0.174458 12.2178 0.168977 11.9955 0.217721ZM0.111364 3.7349C0.0188364 3.75682 0 3.82875 0 4.15974C0 4.60928 0.0784003 4.67169 0.543457 4.59266L0.767903 4.55448L0.73793 4.18282C0.697521 3.6816 0.607666 3.61734 0.111364 3.7349ZM0 8.32414V9.1582L0.74773 9.16639C1.36443 9.1732 1.50914 9.19142 1.57354 9.27062C1.6165 9.3234 1.73104 9.37399 1.82809 9.38311C1.92513 9.39216 2.05998 9.40751 2.12769 9.41714C2.22213 9.43064 2.26133 9.38974 2.29588 9.2419C2.32064 9.13587 2.37263 9.02033 2.41138 8.9852C2.66459 8.75568 2.41628 8.30989 2.03523 8.30989C1.95046 8.30989 1.89624 8.25215 1.85921 8.12242C1.82974 8.01934 1.74956 7.90899 1.68102 7.87726C1.61255 7.84554 1.47115 7.76426 1.36685 7.69671C1.22278 7.60326 1.03607 7.56375 0.588638 7.53191L0 7.49008V8.32414ZM23.696 7.834C23.676 7.88955 23.5981 8.04547 23.523 8.18062C23.4 8.40184 23.3106 8.50002 22.9178 8.84503C22.8531 8.90179 22.7563 8.9319 22.7004 8.91246C22.6444 8.89297 22.517 8.93283 22.4136 9.00216C22.3112 9.07081 21.9298 9.19183 21.566 9.27114C21.2022 9.35046 20.8044 9.46156 20.6819 9.51803C20.5594 9.57445 20.1227 9.77017 19.7114 9.95291C19.3002 10.1357 18.9637 10.3087 18.9637 10.3373C18.9637 10.3659 18.8921 10.414 18.8046 10.4442C18.7171 10.4744 18.6455 10.5249 18.6455 10.5565C18.6455 10.5881 18.5525 10.6358 18.4387 10.6625C18.1879 10.7214 18.2211 10.8231 18.4864 10.8089C18.9691 10.7831 19.4297 10.6767 19.5452 10.5644C19.7293 10.3851 19.9671 10.3547 20.3129 10.466C20.538 10.5385 20.6497 10.5484 20.7413 10.504C20.9068 10.4236 20.9607 10.5104 20.9069 10.7708C20.8568 11.0126 20.5932 11.2582 20.0808 11.5402C19.8371 11.6744 19.6279 11.8534 19.457 12.0738C19.3156 12.2562 19.1807 12.4055 19.1574 12.4055C19.0049 12.4055 18.8364 12.6602 18.8364 12.891C18.8364 13.2707 18.975 13.3394 19.2512 13.0967C19.4644 12.9094 19.4773 12.9061 19.7686 12.9666C20.2182 13.0598 20.5546 12.8292 20.5546 12.4279C20.5546 12.0999 20.9406 12.2768 21.1349 12.6939C21.3844 13.2294 20.9858 15.4537 20.5042 16.2134C20.4341 16.324 20.2992 16.6222 20.2046 16.876C20.1099 17.1298 20.0115 17.3634 19.986 17.3952C19.9604 17.4269 19.8736 17.6586 19.7931 17.9101C19.7126 18.1617 19.5789 18.5063 19.4961 18.6761C19.3898 18.894 19.3455 19.0914 19.3455 19.3476C19.3455 20.1757 18.8913 20.8745 18.1775 21.1448C17.6002 21.3635 15.7814 21.1941 14.9546 20.8447C13.7965 20.3553 13.8328 20.3797 13.6599 19.9754C13.48 19.5546 13.6047 18.7229 13.9689 17.9143C14.1834 17.4381 14.254 17.0932 14.2818 16.3857C14.2949 16.0526 14.3261 15.7216 14.3512 15.6502C14.3833 15.5587 14.3711 15.5207 14.3098 15.5212C14.22 15.522 13.8728 16.1166 13.8723 16.2703C13.8721 16.3179 13.7415 16.5256 13.582 16.7318C13.4224 16.938 13.246 17.1716 13.19 17.2509C12.7957 17.809 12.5094 18.1742 12.3243 18.3554C11.8732 18.7972 11.7503 19.1135 11.6668 20.0486C11.6113 20.6699 11.6127 20.7017 11.7089 21.0038C11.8617 21.4835 11.7849 21.579 11.279 21.5383C11.043 21.5193 10.8018 21.4813 10.7429 21.454C10.6839 21.4266 10.4745 21.4042 10.2776 21.4042C9.86749 21.4042 9.35776 21.2688 9.04601 21.077C8.83734 20.9487 8.59094 20.9681 8.59094 21.1128C8.59094 21.3601 9.74512 21.9169 9.98223 21.7841C10.0748 21.7322 10.7434 22.0329 10.7862 22.1455C10.9224 22.5039 11.2119 22.6645 11.8322 22.7258C12.489 22.7908 12.7317 22.9015 12.5238 23.0415C12.3527 23.1567 11.66 23.0638 11.5409 22.9097C11.4291 22.7649 10.9247 22.7393 10.721 22.8679C10.652 22.9116 10.37 22.9745 10.0945 23.0077C9.49146 23.0805 9.39811 23.1411 9.66704 23.2851C10.0339 23.4815 9.74524 23.6113 8.99841 23.5857C8.72178 23.5761 8.36089 23.5904 8.19639 23.6173C7.92327 23.6619 7.88445 23.6535 7.74871 23.5208C7.56168 23.3378 7.21524 23.2764 7.00003 23.3879C6.32382 23.7385 6.05483 23.8297 5.80404 23.7933C5.58577 23.7616 5.53804 23.7741 5.47657 23.8781L5.40466 24H11.2282H17.0519L16.9762 23.8414C16.9346 23.7541 16.8349 23.5923 16.7548 23.4819C16.5945 23.2607 16.5654 23.0804 16.6887 23.0709C16.8986 23.0548 17.1658 23.0964 17.3216 23.1694C17.4163 23.2138 17.6742 23.2513 17.8946 23.2526C18.1151 23.254 18.4101 23.2926 18.5501 23.3383C18.8818 23.4466 19.2455 23.4459 19.3455 23.3366C19.3891 23.289 19.4468 23.2501 19.4738 23.2501C19.6116 23.2501 20.5525 22.7125 20.5869 22.6141C20.6089 22.5514 20.6503 22.5002 20.679 22.5002C20.8628 22.5002 20.8689 21.7225 20.6877 21.3848C20.5112 21.056 20.6085 20.8476 20.9871 20.7439L21.1864 20.6893L21.1485 20.3605C21.1149 20.0687 21.1265 20.0196 21.2512 19.9248C21.4516 19.7726 21.5815 19.5234 21.5398 19.3714C21.5201 19.2997 21.5438 19.1375 21.5924 19.0108C21.6656 18.8199 21.6665 18.7498 21.5981 18.6012C21.5349 18.4642 21.5293 18.2936 21.5741 17.8796C21.6063 17.5815 21.6291 17.2985 21.6245 17.2509C21.5892 16.8763 21.6475 16.673 21.8549 16.448C22.1926 16.0816 22.4705 15.3671 22.5406 14.6843C22.5993 14.1131 22.7031 13.8535 22.9457 13.671C23.0895 13.5628 23.4183 12.8979 23.4183 12.7152C23.4183 12.6292 23.462 12.5149 23.5156 12.4613C23.5691 12.4076 23.6868 12.0941 23.7771 11.7645C23.9505 11.1312 23.9541 10.8966 23.8092 9.63905C23.762 9.22915 23.772 9.09082 23.8721 8.77379C24.025 8.28959 24.0354 8.14238 23.9323 7.91683C23.8388 7.71223 23.7511 7.68148 23.696 7.834ZM1.02124 7.89168C1.02289 7.91545 1.03658 8.06474 1.05159 8.22337C1.08908 8.61954 1.01984 8.70532 0.806912 8.5265C0.678812 8.41886 0.651702 8.35598 0.68683 8.24777C0.769176 7.99378 1.01036 7.73697 1.02124 7.89168ZM1.50971 11.1996C1.44754 11.2324 1.24709 11.2848 1.06426 11.3161C0.881431 11.3474 0.656857 11.3871 0.56522 11.4043C0.470656 11.4221 0.312456 11.3953 0.19931 11.3422L0 11.2488V14.1633C0 17.0316 0.00197274 17.0779 0.126255 17.0779C0.292537 17.0779 0.891167 17.3471 1.36819 17.6363C1.86283 17.9363 2.00137 18.0008 2.1506 18.0008C2.21799 18.0008 2.3725 18.0619 2.49392 18.1366C2.61534 18.2113 2.88427 18.3563 3.09147 18.4589C3.29867 18.5614 3.52547 18.692 3.59547 18.7492C3.66547 18.8063 3.8516 18.9114 4.00911 18.9827C4.44145 19.1783 4.79794 19.4261 4.92267 19.6174C5.03066 19.7832 5.05058 19.7891 5.50501 19.7891C5.81352 19.7891 5.99304 19.814 6.02639 19.8616C6.14939 20.0369 7.63639 20.3446 7.63639 20.1946C7.63639 20.1619 7.59694 20.1352 7.5487 20.1352C7.50046 20.1352 7.42175 20.0873 7.3737 20.0287C7.32374 19.9678 6.9635 19.827 6.53128 19.6995C5.93494 19.5236 5.7621 19.4487 5.70897 19.343C5.67206 19.2695 5.49527 19.1334 5.31626 19.0405C4.88207 18.8153 4.15706 18.1852 4.10221 17.9853C4.07732 17.8948 4.09241 17.751 4.13689 17.6536C4.26372 17.3761 4.00662 16.9636 3.85001 17.1933C3.71854 17.386 3.29122 17.1396 2.46865 16.3964C2.2339 16.1842 1.93513 15.9329 1.80461 15.8377C1.67415 15.7425 1.4443 15.5543 1.29386 15.4195C1.14342 15.2847 1.00686 15.1743 0.990313 15.1743C0.880858 15.1743 0.509093 14.7309 0.509093 14.6004C0.509093 14.5209 0.851585 14.3835 1.16188 14.3384C1.5605 14.2805 1.66442 14.066 1.40942 13.8275C1.2992 13.7245 1.2091 13.6141 1.2091 13.5822C1.2091 13.5503 1.12681 13.4218 1.0262 13.2965C0.67283 12.8566 0.704075 12.675 1.14482 12.6075C1.58341 12.5403 2.28818 12.921 2.10192 13.1244C2.03618 13.1962 2.06501 13.2581 2.27011 13.486C2.40616 13.6373 2.60159 13.8779 2.7043 14.0206C2.80707 14.1634 2.94217 14.3266 3.00467 14.3834C3.06709 14.4402 3.11819 14.5199 3.11819 14.5607C3.11819 14.6015 3.3476 14.8326 3.62799 15.0743C3.96647 15.3662 4.1808 15.6047 4.26562 15.7842C4.33594 15.9329 4.46449 16.131 4.55129 16.2245C4.63809 16.318 4.70911 16.4277 4.70911 16.4683C4.70911 16.5516 5.07922 16.8472 5.18371 16.8472C5.22119 16.8472 5.36336 16.9013 5.49954 16.9675C5.90089 17.1625 6.29805 16.8711 5.98789 16.6092C5.91458 16.5472 5.85457 16.4296 5.85457 16.3477C5.85457 16.2659 5.75848 16.0527 5.641 15.8741C5.52353 15.6954 5.3309 15.374 5.21292 15.1599C5.095 14.9458 4.98058 14.7705 4.95875 14.7705C4.75964 14.7705 4.07821 14.1696 3.9239 13.858C3.78224 13.5718 3.71816 13.5034 3.56295 13.4725C3.45916 13.4518 3.35715 13.4099 3.33628 13.3794C3.25934 13.2665 2.76132 13.0174 2.54546 12.9839L2.32274 12.9493L2.34113 12.5394C2.37632 11.7557 1.90254 10.9923 1.50971 11.1996ZM16.2077 11.9873C16.0806 12.0745 15.9582 12.1978 15.9356 12.2613C15.913 12.3247 15.8438 12.4285 15.7817 12.492C15.653 12.6237 15.4001 13.0626 15.4001 13.1543C15.4001 13.1879 15.2855 13.435 15.1455 13.7034C15.0055 13.9718 14.891 14.2117 14.891 14.2366C14.891 14.2615 14.8321 14.3815 14.7601 14.5033C14.5056 14.9336 14.5829 15.0219 15.2009 15.0067C15.7881 14.9922 15.9329 14.9393 16.0429 14.6987C16.0835 14.6098 16.1488 14.5182 16.1879 14.4951C16.2838 14.4388 16.4182 14.215 16.4182 14.1118C16.4182 13.981 16.9585 13.6092 17.1287 13.6228C17.6895 13.6678 17.9285 13.5594 17.7715 13.3314C17.6924 13.2167 17.7663 13.0608 17.9697 12.9133C18.1779 12.7623 18.0314 12.6856 17.7228 12.7841C17.2063 12.9487 16.4357 12.8532 16.3335 12.6118C16.2928 12.5158 16.4611 12.0201 16.5515 11.9695C16.5832 11.9517 16.6092 11.9128 16.6092 11.8829C16.6092 11.7833 16.4412 11.827 16.2077 11.9873ZM19.4043 17.3608C19.3005 17.3971 19.2723 17.417 18.8682 17.7395C18.6323 17.9278 18.6248 17.9426 18.7657 17.9429C18.8548 17.943 19.0318 17.8477 19.1938 17.7124C19.3457 17.5855 19.5278 17.4817 19.5987 17.4817C19.6694 17.4817 19.7273 17.4587 19.7273 17.4307C19.7273 17.3619 19.5259 17.3183 19.4043 17.3608ZM6.17739 17.6914C5.92558 17.9815 5.99298 18.2677 6.40305 18.6498C6.5988 18.8322 6.78194 18.9815 6.80994 18.9815C6.90559 18.9815 6.95293 18.4071 6.87192 18.2297C6.82942 18.1367 6.81102 18.0219 6.83101 17.9746C6.87835 17.8627 6.57761 17.5394 6.42628 17.5394C6.36188 17.5394 6.24988 17.6078 6.17739 17.6914ZM18.6003 18.8859C18.2176 19.1188 18.3324 19.292 18.7887 19.1706C19.0607 19.0982 19.091 19.0731 19.091 18.9204C19.091 18.7104 18.9097 18.6977 18.6003 18.8859ZM12.7149 20.72C12.8792 20.7879 13.1282 20.9262 13.2682 21.0276C13.4082 21.1289 13.6159 21.2453 13.7296 21.2862C13.8433 21.3271 13.9364 21.3963 13.9364 21.44C13.9364 21.4896 14.0069 21.5196 14.1236 21.5196C14.2265 21.5196 14.3308 21.549 14.3553 21.585C14.4465 21.7188 13.8935 21.5731 13.1968 21.2798C12.7866 21.1071 12.5003 21.0699 12.4583 21.1839C12.3991 21.345 12.2182 21.1734 12.2182 20.9561C12.2182 20.5907 12.3036 20.5502 12.7149 20.72ZM6.65295 21.5153C6.54782 21.6695 6.76559 21.8657 7.04209 21.8657C7.3597 21.8657 7.3786 21.8262 7.16217 21.6145C7.00843 21.4641 6.72543 21.409 6.65295 21.5153ZM15.4193 21.785C15.843 21.8705 16.1078 21.9932 16.0269 22.0666C15.9587 22.1284 15.591 22.0225 15.591 21.9411C15.591 21.8801 15.5528 21.8698 15.4478 21.9024C15.1397 21.9981 14.5024 21.8626 14.7074 21.745C14.8285 21.6754 14.8947 21.6792 15.4193 21.785Z" fill="black"/>
</svg>
