<svg width="24" height="24" viewBox="0 0 24 24" fill="none" xmlns="http://www.w3.org/2000/svg">
<path fill-rule="evenodd" clip-rule="evenodd" d="M0 4V21.4401V22.7201V24H6H12H20H24V22.8891V4V2.26757V1.03597V0H20H12.0019H6H0.004H0V4ZM15.6649 8.69306C15.7124 8.38109 15.0886 7.96692 13.4279 6.86426L13.1664 6.69065C11.9487 5.88155 11.2537 6.16645 11.028 7.56742C10.9626 7.97353 10.6864 8.63206 10.4143 9.03056C9.75391 9.99764 9.76713 10.0441 10.8527 10.5726C12.0153 11.1388 12.2732 11.7306 12.1057 13.4486C12.0395 14.1293 12.0567 14.4962 12.1483 14.3575C12.324 14.092 12.6957 14.9613 12.6957 15.6373C12.6957 15.8526 12.7936 16.0648 12.913 16.1088C13.0341 16.1536 12.912 16.2753 12.6381 16.3834C11.7402 16.7377 12.1861 17.011 13.5835 16.9628L14.8696 16.9184L14.3478 17.2639C14.0609 17.4539 13.7198 17.6098 13.5901 17.6103C13.4525 17.611 13.3957 17.7189 13.4537 17.8691C13.5186 18.0371 13.3736 18.2189 13.0367 18.3919C12.3652 18.7367 12.7386 19.5108 13.5763 19.5108C14.3624 19.5108 15.9878 16.7784 16.9576 13.8268C17.3237 12.7126 17.2421 9.72777 16.8384 9.47361C16.4786 9.24725 15.7518 9.29888 15.381 9.57721C15.0177 9.85001 15.1551 9.91338 15.9666 9.84725C16.331 9.81738 16.3471 9.84742 16.143 10.172C16 10.3993 15.8066 10.4947 15.6127 10.4336C15.1741 10.2953 14.8913 10.5053 15.1304 10.7914C15.2624 10.9492 15.265 11.0542 15.139 11.1315C14.8574 11.3042 14.9233 11.6179 15.2174 11.5058C15.5551 11.3772 15.5539 11.6364 15.2157 11.9151C15.0506 12.0511 14.6878 12.096 14.2381 12.0361C13.3136 11.913 13.0997 11.7032 13.3478 11.1626C13.4887 10.8556 13.4852 10.6902 13.3344 10.5281C13.1737 10.3556 13.197 10.3323 13.4438 10.4186C13.6162 10.479 13.7191 10.4673 13.6727 10.3927C13.5254 10.1561 13.7984 9.90388 14.8163 9.336L14.9301 9.27277C15.3649 9.03143 15.6363 8.88074 15.6649 8.69306Z" fill="black"/>
</svg>
