<svg width="24" height="24" viewBox="0 0 24 24" fill="none" xmlns="http://www.w3.org/2000/svg">
<path fill-rule="evenodd" clip-rule="evenodd" d="M0 9.79412C0 17.5727 0.0204238 19.5874 0.0993378 19.5843C0.348795 19.5743 0.667709 19.3366 0.864397 19.0141C1.29838 18.3026 1.72808 18.5758 1.59918 19.4812C1.4845 20.2863 1.01928 20.7143 0.938305 20.0891C0.913113 19.895 0.54906 19.8416 0.492556 20.0238C0.479364 20.0663 0.363099 20.2235 0.234278 20.3733L0 20.6455V22.3227V24H12H24V19.8971C24 16.6264 23.9794 15.7941 23.8985 15.7941C23.8426 15.7941 23.719 15.7335 23.6236 15.6594C23.4241 15.5041 23.4647 15.2647 23.6906 15.2647C23.7734 15.2647 23.8411 15.225 23.8411 15.1765C23.8411 15.1279 23.7338 15.0882 23.6027 15.0882C23.4041 15.0882 23.3642 15.1236 23.3642 15.2994C23.3642 15.5356 23.2091 15.6421 23.0391 15.5226C22.9775 15.4793 22.7642 15.4433 22.5648 15.4425C22.3656 15.4418 22.1332 15.3829 22.0483 15.3116C21.5109 14.8603 21.3862 15.3416 21.8911 15.9184C22.2046 16.2765 22.2254 16.3235 22.0699 16.3233C21.8913 16.323 20.9039 15.8074 20.6707 15.5928C20.6004 15.5282 20.4536 15.4282 20.3444 15.3707C20.2351 15.3131 20.0921 15.2328 20.0265 15.1922C19.3016 14.7432 19.227 14.7185 19.0304 14.8615C18.9257 14.9377 18.7941 14.9997 18.7379 14.9995C18.606 14.9988 18.3243 14.4727 18.3487 14.2727C18.3749 14.0577 18.0317 13.8925 17.8202 14.0181C17.6482 14.1204 17.6671 14.16 17.4883 13.3235C17.4332 13.0658 17.4207 13.052 17.4131 13.2402C17.4081 13.3642 17.3146 13.6002 17.2053 13.7647C16.8327 14.3254 17.0841 14.9734 17.9262 15.623C18.1334 15.783 18.3637 16.2915 18.3053 16.4604C18.281 16.5307 18.3029 16.5882 18.3538 16.5882C18.4047 16.5882 18.4267 16.5527 18.4025 16.5093C18.3476 16.4107 18.5599 16.3136 18.7 16.3734C18.8551 16.4395 19.2438 17.3637 19.145 17.4315C19.0999 17.4625 19.0304 17.5832 18.9904 17.6997C18.9505 17.8164 18.8633 17.9118 18.7967 17.9118C18.73 17.9118 18.6755 17.9759 18.6755 18.0543C18.6755 18.1842 18.6922 18.1846 18.8654 18.0586C19.0404 17.9314 19.0657 17.9332 19.1879 18.0831C19.4962 18.4613 20.3028 18.4858 20.4278 18.1208C20.561 17.7319 21.298 18.0347 21.298 18.4784C21.298 18.5685 21.3518 18.6864 21.4175 18.7403C21.4833 18.7941 21.5691 18.9634 21.6083 19.1163C21.6757 19.3783 21.6665 19.3964 21.4495 19.4318C21.0482 19.4972 20.0989 19.1003 19.8194 18.7504C19.5508 18.4139 19.1069 18.3292 18.734 18.5431C18.6362 18.5992 18.5026 18.6724 18.4371 18.7058C18.2621 18.7948 17.9851 19.4872 17.886 20.0831C17.8076 20.5551 17.5349 20.9984 17.4091 20.8586C17.3434 20.7857 17.2664 19.0177 17.325 18.9265C17.418 18.7815 17.4849 18.2647 17.4106 18.2647C17.3727 18.2647 17.3199 18.3613 17.2932 18.4794C17.2665 18.5975 17.1756 18.7184 17.0912 18.7482C16.9837 18.7861 16.8734 19.0188 16.7227 19.5261C16.281 21.0123 15.5645 22.0867 14.998 22.1122C14.857 22.1186 14.6096 22.1537 14.448 22.1903C13.9938 22.2932 13.7746 22.1942 13.6689 21.8382C13.5847 21.5552 13.4605 21.4676 13.2318 21.5303C13.1881 21.5423 13.045 21.5625 12.9139 21.5752C12.7828 21.5879 12.6146 21.626 12.5402 21.6599C12.352 21.7457 12.2384 21.6454 12.2384 21.3935C12.2384 21.242 12.1833 21.1645 12.0493 21.1271C11.7768 21.0512 11.4083 20.5747 11.2856 20.1397C11.2156 19.8912 11.1342 19.7647 11.0445 19.7647C10.7399 19.7647 10.9071 19.3723 11.245 19.2941C11.9905 19.1216 12.0396 19.0984 12.0645 18.9074C12.0791 18.7952 12.0304 18.6806 11.9452 18.6266C11.6417 18.434 11.5988 18.3785 11.6468 18.2398C11.6739 18.1611 11.8272 18.0499 11.9871 17.9928C12.4712 17.8197 12.6195 17.5588 12.2337 17.5588C11.7276 17.5588 11.6325 16.8894 12.0535 16.2895L12.3453 15.8736L12.1755 15.685C12.0154 15.5073 11.9971 15.505 11.8575 15.6453C11.4091 16.0958 11.063 15.7033 11.0621 14.7435C11.0615 14.2204 11.0344 14.0731 10.9262 14.0059C10.4598 13.7161 10.3028 13.4536 10.4483 13.2071C10.525 13.077 10.6181 12.9706 10.655 12.9706C10.7814 12.9706 11.0654 12.574 11.2498 12.1398C11.484 11.5886 11.3742 11.2755 10.8619 11.0336C10.6793 10.9473 10.4762 10.8514 10.4106 10.8206C10.2216 10.7315 9.42262 10.2131 9.08742 9.96203C8.67648 9.65418 8.24352 9.56594 8.09817 9.76041C8.00329 9.88738 8.01227 9.92374 8.16668 10.0376C8.46183 10.2552 8.39778 10.5425 8.02649 10.6661C7.77886 10.7484 7.70909 10.8149 7.71091 10.9668C7.71362 11.1902 8.12781 11.7353 8.29486 11.7353C8.35637 11.7353 8.43274 11.8445 8.46477 11.9779C8.49672 12.1114 8.53923 12.1713 8.55926 12.1111C8.57921 12.0508 8.55306 11.8586 8.50109 11.6839C8.40699 11.3673 8.49568 11.0663 8.61823 11.2864C8.70493 11.4422 9.15759 11.3964 9.49073 11.1981C9.97168 10.9119 10.1722 11.0544 10.1722 11.6825C10.1722 12.5062 9.58482 13.0263 9.26559 12.4853C9.12715 12.2508 8.72162 12.1749 8.61648 12.3638C8.58143 12.4268 8.42297 12.4447 8.18217 12.4131L7.80302 12.3633L7.83552 12.9024C7.87049 13.4831 7.91658 13.6092 8.02379 13.4167C8.08919 13.2991 8.79306 13.2629 8.89136 13.3721C9.00668 13.5 8.48011 13.8793 8.33086 13.7758C8.08498 13.6054 8.03642 13.7272 8.05216 14.4755C8.06305 14.9941 8.09881 15.2058 8.18583 15.2668C8.25115 15.3127 8.27372 15.3508 8.23589 15.3516C8.19807 15.3523 8.22493 15.4508 8.2955 15.5704C8.36607 15.69 8.42384 15.8443 8.42384 15.9132C8.42384 15.9821 8.50903 16.1006 8.61322 16.1764C8.77987 16.2975 8.79767 16.3631 8.76119 16.7219C8.72797 17.0494 8.75388 17.1808 8.89295 17.3897C9.01868 17.5785 9.04562 17.6904 8.99134 17.7982C8.94525 17.8895 8.94469 18.0289 8.98975 18.1605C9.14511 18.6142 8.50156 18.7406 7.83544 18.3872C7.52869 18.2244 7.44207 18.2328 7.50691 18.4191C7.71862 19.0271 7.79968 19.8689 7.66284 20.0368C7.54641 20.1797 7.53751 20.2582 7.60856 20.5152C7.69081 20.8129 7.68095 20.837 7.29926 21.2698C6.67113 21.9821 6.20058 21.7407 6.61637 20.9194C6.87505 20.4085 6.85176 20.2868 6.40593 19.8195C5.94024 19.3314 5.76087 19.2171 5.38419 19.1689C4.54299 19.0609 3.89738 17.5574 4.46551 17.0294C4.59608 16.9081 4.84315 16.6641 5.01465 16.4872C5.18615 16.3104 5.40691 16.1433 5.50522 16.1158C6.41253 15.863 6.81338 14.0854 6.27783 12.6896C6.19057 12.4622 6.11921 12.2153 6.11921 12.1411C6.11921 12.0668 6.0577 11.8627 5.98244 11.6876C5.84519 11.368 5.82397 11.3604 5.40397 11.4806C5.32649 11.5028 5.22016 11.3702 5.10024 11.1018C4.89385 10.6401 4.94336 10.3857 5.26109 10.2738C5.43544 10.2124 5.43521 10.211 5.21889 10.0195L5.00146 9.82703L5.18281 9.726C5.28262 9.67041 5.45364 9.61341 5.56291 9.59929C5.72003 9.57891 5.78654 9.4905 5.88111 9.17647C6.03425 8.66771 6.26098 8.20588 6.35762 8.20588C6.3991 8.20588 6.48755 8.08871 6.55423 7.94559C6.85653 7.29662 6.54397 6.99838 5.8893 7.31109C5.67171 7.41494 5.40842 7.5 5.30424 7.5C5.20005 7.5 5.04191 7.58938 4.95282 7.69853C4.65306 8.06594 3.85661 8.64706 3.65285 8.64706C3.57338 8.64706 3.07772 9.0345 2.61552 9.45794C2.29399 9.75256 1.8457 10.0198 1.78538 9.95285C1.72387 9.88456 2.16389 9.35294 2.28191 9.35294C2.33738 9.35294 2.42774 9.27229 2.48281 9.17374C2.5378 9.07518 2.72583 8.88662 2.90066 8.75462C3.0755 8.62271 3.26583 8.46512 3.32352 8.40441C3.3813 8.34371 3.47992 8.29412 3.54262 8.29412C3.60532 8.29412 3.73438 8.19485 3.82943 8.07353C3.9244 7.95221 4.04495 7.85294 4.09732 7.85294C4.14962 7.85294 4.23385 7.79753 4.28448 7.72985C4.3351 7.66209 4.5004 7.58091 4.65187 7.54932C4.80326 7.51782 4.92715 7.45412 4.92715 7.40779C4.92715 7.36147 5.01687 7.32353 5.12662 7.32353C5.23629 7.32353 5.38729 7.24412 5.46215 7.14706C5.56323 7.01603 5.69658 6.97059 5.98045 6.97059C6.24453 6.97059 6.37653 6.93026 6.40776 6.84C6.43256 6.76818 6.58339 6.61932 6.74297 6.50912L7.03311 6.30882L6.55701 6.26471C5.9706 6.21035 5.85862 5.99594 6.31995 5.81074C6.6155 5.69206 6.6453 5.56968 6.5094 5.03312C6.48405 4.93306 6.62726 4.88074 7.15232 4.79832C7.52384 4.73991 8.1302 4.61021 8.49982 4.51006C9.00699 4.37259 9.1862 4.35371 9.23038 4.43303C9.29738 4.55347 9.16617 4.76471 9.02432 4.76471C8.97195 4.76471 8.76461 4.93968 8.56355 5.15365C8.36249 5.36753 8.1147 5.57135 8.0129 5.60665C7.9111 5.64194 7.80469 5.71076 7.77648 5.75956C7.74826 5.80835 7.59473 5.8725 7.43531 5.90206C6.95897 5.99047 7.07507 6.12009 7.64917 6.14082C7.94432 6.1515 8.16676 6.12609 8.14347 6.08427C8.12019 6.04244 8.25322 5.96276 8.43902 5.90726C8.62482 5.85168 8.84631 5.75224 8.93118 5.68615C9.0329 5.60709 9.19995 5.58353 9.42064 5.61715C9.75179 5.66753 9.75958 5.66241 10.0765 5.18603C10.2529 4.92097 10.5064 4.65379 10.6397 4.59247C10.7731 4.53115 10.9039 4.40479 10.9306 4.31171C11.0038 4.05521 11.3239 3.85279 11.498 3.95268C11.5774 3.99829 11.8663 4.06271 12.14 4.09579C12.7146 4.16541 12.8615 4.02415 12.5731 3.67932C12.1721 3.19976 12.3549 2.62518 12.9476 2.502C13.717 2.34203 13.9322 2.07176 13.5106 1.79524C13.0833 1.51491 12.9926 0.710382 13.4167 0.962382C13.6721 1.11415 13.7365 1.07929 13.7632 0.775147C13.7959 0.402265 13.9317 0.371382 15.8543 0.299471L17.3642 0.242912L17.7314 0.557912C17.9379 0.735088 18.155 1.01974 18.2276 1.20856C18.6318 2.25979 18.8612 2.59015 19.5274 3.08012C20.0475 3.46262 20.1634 3.58659 20.1083 3.70103C19.9981 3.92956 20.1981 4.49894 20.4699 4.73056C20.7552 4.97374 21.4293 5.38235 21.5452 5.38235C21.5891 5.38235 22.1394 5.66029 22.7682 6C23.397 6.33971 23.9313 6.61765 23.9557 6.61765C23.9801 6.61765 24 5.12868 24 3.30882V0H12H0V9.79412ZM5.15269 0.615C5.16747 0.727235 5.12607 0.962382 5.06058 1.13744C4.99518 1.31259 4.8418 1.72862 4.71981 2.06188C4.55444 2.51365 4.42609 2.72179 4.21589 2.87929C4.06069 2.99559 3.84437 3.22826 3.7351 3.39644C3.62583 3.56462 3.4738 3.72556 3.39735 3.75406C3.22403 3.81882 3.216 4.02194 3.384 4.0935C3.64967 4.20671 3.81854 4.13453 4.1094 3.78371C4.54109 3.26294 5.28676 2.72409 5.65081 2.66991C6.02281 2.6145 6.03378 2.66726 5.72185 3.01359C5.59065 3.15918 5.46056 3.38444 5.43274 3.51415C5.35589 3.87194 5.27873 3.94032 4.75597 4.11415L4.27391 4.27447L4.69987 4.36518C5.22278 4.47653 5.22771 4.54968 4.7435 5.01494C4.31158 5.43009 4.17648 5.45621 3.75584 5.20588C3.59277 5.10882 3.36127 5.02941 3.24143 5.02941C3.09878 5.02941 2.98013 4.95582 2.89788 4.8165C2.75913 4.58135 2.42535 4.61603 2.14832 4.89441C1.99701 5.04644 1.74834 5.07556 1.74834 4.94118C1.74834 4.89265 1.81987 4.85294 1.90728 4.85294C1.99677 4.85294 2.06623 4.79409 2.06623 4.71838C2.06623 4.64444 2.16461 4.54271 2.28477 4.49241C2.6013 4.35997 3.01987 3.88006 3.01987 3.64968C3.01987 3.54071 3.05929 3.42459 3.10744 3.3915C3.1556 3.35841 3.24366 3.20206 3.30318 3.04403C3.3627 2.88591 3.49629 2.64265 3.60008 2.50332C3.70395 2.364 3.90572 1.97294 4.04853 1.63438C4.51534 0.527824 5.07338 0.0125294 5.15269 0.615ZM10.4901 0.882353C10.4901 0.930882 10.5396 0.970588 10.6001 0.970588C10.7733 0.970588 11.0013 1.40885 10.8916 1.53071C10.8051 1.62671 9.81393 1.62406 9.6716 1.52744C9.56066 1.452 9.76943 1.25859 10.0223 1.20238C10.1744 1.16859 10.2819 1.08159 10.308 0.971206C10.3505 0.7905 10.4901 0.722471 10.4901 0.882353ZM2.62252 7.69906C2.62252 7.83168 1.79563 8.73529 1.6742 8.73529C1.62755 8.73529 1.5894 8.83456 1.5894 8.95588C1.5894 9.08312 1.54363 9.17647 1.48125 9.17647C1.40869 9.17647 1.38556 9.10376 1.41099 8.95588C1.43189 8.83456 1.48061 8.73529 1.51923 8.73529C1.55777 8.73529 1.5894 8.67282 1.5894 8.5965C1.5894 8.43679 2.37417 7.59009 2.52318 7.58894C2.57785 7.58859 2.62252 7.63809 2.62252 7.69906ZM18.2781 8.91309C18.2781 9.20956 18.3251 9.33088 18.517 9.52994C18.6485 9.66626 18.779 9.90512 18.807 10.0609C18.8448 10.2712 18.9509 10.4094 19.2194 10.5985C20.2691 11.3376 20.1351 10.3124 19.0388 9.21626C18.2839 8.4615 18.2781 8.45921 18.2781 8.91309ZM14.0564 10.813C13.9685 11.0336 13.914 11.262 13.9353 11.3203C13.9581 11.3826 13.9768 11.3666 13.9805 11.2819C13.9846 11.1866 14.0883 11.1165 14.2848 11.0762C14.9239 10.9451 15.1597 10.4118 14.5783 10.4118C14.225 10.4118 14.2124 10.4216 14.0564 10.813ZM9.01923 15.6335C9.27266 15.8782 9.29873 16.3235 9.0596 16.3235C8.97219 16.3235 8.90066 16.2838 8.90066 16.2353C8.90066 16.1868 8.84702 16.1471 8.78146 16.1471C8.65915 16.1471 8.60535 15.622 8.71526 15.5C8.79036 15.4166 8.79799 15.4199 9.01923 15.6335ZM16.4165 16.2875C16.3849 16.4286 16.2849 16.6324 16.1941 16.7404C16.0342 16.9305 16.0338 16.9384 16.1801 16.9971C16.2632 17.0304 16.3951 17.1307 16.4733 17.22C16.6229 17.3909 16.8954 17.43 17.0716 17.3059C17.1475 17.2525 17.1082 17.2009 16.9283 17.1182C16.7526 17.0374 16.6841 16.95 16.6934 16.8183C16.7158 16.4958 16.6918 16.362 16.5813 16.1941C16.4807 16.0413 16.4702 16.0472 16.4165 16.2875ZM18.5673 16.8971C18.5413 16.9723 18.4228 17.0294 18.2928 17.0294C18.167 17.0294 17.9786 17.1116 17.8742 17.2122C17.7602 17.322 17.6126 17.3797 17.5044 17.3568C17.3759 17.3295 17.3245 17.3605 17.3245 17.4652C17.3245 17.6909 17.5118 18.0867 17.6189 18.0875C17.734 18.0884 18.0767 17.721 18.1449 17.5235C18.177 17.4307 18.2905 17.3824 18.4763 17.3824C18.759 17.3824 18.992 17.0646 18.87 16.8455C18.7999 16.7195 18.618 16.7505 18.5673 16.8971Z" fill="black"/>
</svg>
