<svg width="24" height="24" viewBox="0 0 24 24" fill="none" xmlns="http://www.w3.org/2000/svg">
<path fill-rule="evenodd" clip-rule="evenodd" d="M17.3209 0.0757584C17.3209 0.117423 17.3927 0.214443 17.4804 0.291329C17.5681 0.368215 17.6633 0.451651 17.692 0.476779C17.7207 0.501852 17.798 0.553557 17.8638 0.591678C17.9295 0.629799 18.0739 0.741799 18.1847 0.840537C18.2954 0.939329 18.4062 1.02013 18.4309 1.02013C18.4555 1.02013 18.5893 1.12886 18.7282 1.26174C18.867 1.39463 18.9956 1.50336 19.014 1.50336C19.1165 1.50336 19.2921 1.71796 19.2158 1.74996C19.0015 1.84 19.1177 2.11302 19.582 2.6102C20.023 3.08236 20.1736 3.33272 20.1561 3.5643C20.1437 3.72762 20.32 4.02459 20.5486 4.22561C20.8346 4.47715 21.2256 5.36408 21.1521 5.59474C21.123 5.68617 21.0992 5.80489 21.0992 5.85847C21.0992 5.96059 21.3724 6.33557 21.4468 6.33557C21.5441 6.33557 22.032 6.72193 22.1905 6.92451C22.3007 7.06545 22.4415 7.17224 22.5895 7.22749C22.8678 7.33122 22.9198 7.42706 22.9083 7.81396C22.9013 8.04929 22.9219 8.14389 23.0051 8.25788C23.3711 8.7593 23.5374 9.52317 23.3341 9.76902C23.2321 9.8923 23.1109 10.2875 23.1109 10.4968C23.1109 10.5929 23.0803 10.6993 23.0428 10.7333C22.9824 10.7881 22.8656 11.1775 22.8656 11.3239C22.8656 11.3541 22.9334 11.4633 23.0162 11.5665C23.1757 11.7653 23.3757 11.7858 23.5526 11.6216C23.6299 11.5498 23.7147 11.5267 23.8621 11.5373C23.978 11.5456 23.9184 11.651 23.7978 11.651C23.7469 11.651 23.6751 11.6982 23.6382 11.7559C23.6013 11.8135 23.5114 11.8855 23.4385 11.9159C23.2338 12.0011 23.1647 12.2169 23.2962 12.3608C23.3976 12.4717 23.4096 12.4728 23.6717 12.3929C23.8207 12.3475 23.9544 12.3233 23.9688 12.3392C24.0295 12.4056 23.9931 21.5474 23.9318 21.6287C23.884 21.6921 23.8843 21.7134 23.9328 21.7313C23.9793 21.7485 23.9942 22.0264 23.9942 22.8769V24H22.4439C20.935 24 20.893 23.9972 20.8681 23.8926C20.8473 23.806 20.8011 23.7852 20.6286 23.7852C20.4406 23.7852 20.4055 23.7657 20.3386 23.6242C20.2548 23.4469 20.1924 23.4203 20.1491 23.5436C20.1037 23.6731 19.7123 23.5444 19.3715 23.2879C19.3055 23.2382 19.2163 23.2465 18.9544 23.3266C18.7711 23.3826 18.4777 23.4446 18.3023 23.4644C17.861 23.5143 17.6101 23.6269 17.4927 23.8279C17.4119 23.9662 17.362 23.9962 17.2105 23.9979C17.0022 24.0003 16.9882 23.9727 17.1182 23.8155C17.2538 23.6517 17.2999 23.4019 17.1866 23.4455C17.0588 23.4948 16.8266 23.7408 16.7775 23.8792L16.7346 24H15.0681H13.4017L12.8957 23.7128C12.6173 23.5548 12.2748 23.3957 12.1345 23.3591C11.9941 23.3225 11.8534 23.2585 11.8218 23.2168C11.7901 23.175 11.744 23.1409 11.7192 23.1409C11.6944 23.1409 11.6073 23.0869 11.5257 23.0208L11.3772 22.9007L11.2946 23.016C11.2491 23.0794 11.1678 23.1398 11.1139 23.1502C11.0458 23.1633 11.0142 23.2137 11.0108 23.3144C11.0081 23.3943 10.9752 23.5 10.9378 23.5493C10.9004 23.5987 10.8764 23.6945 10.8845 23.7621C10.9124 23.9952 10.851 24 7.83667 24H4.97008L4.82803 23.7525C4.64078 23.4263 4.569 23.4037 3.919 23.466C3.37871 23.5179 3.16546 23.5968 2.95285 23.8235C2.87999 23.9012 2.69873 23.9175 2.69873 23.8464C2.69873 23.8209 2.7926 23.6908 2.90727 23.5573C3.18597 23.2328 3.66178 23.1179 4.10055 23.2693C4.31713 23.344 4.45992 23.3547 4.83568 23.3246C5.33004 23.2848 5.4056 23.2454 5.2796 23.093C5.16571 22.9553 5.17351 22.943 5.48333 22.7718C5.63853 22.686 5.85801 22.5044 5.97116 22.3683C6.08426 22.2322 6.1954 22.1208 6.21817 22.1208C6.28785 22.1208 6.41189 21.8408 6.47705 21.5366C6.6034 20.9463 6.94133 20.7356 7.66351 20.7965C7.97911 20.8231 8.0564 20.8145 8.07897 20.7502C8.09545 20.7032 8.17087 20.6711 8.26498 20.6711C8.35208 20.6711 8.43569 20.6576 8.45085 20.641C8.49315 20.5947 8.27975 20.3646 8.17372 20.3421C8.0143 20.3082 8.02931 20.1906 8.20326 20.111C8.39276 20.0244 8.51111 19.8929 8.56116 19.7135L8.59614 19.5881L8.71341 19.7087C8.77794 19.775 8.84497 19.916 8.86234 20.022C8.89987 20.2505 9.17112 20.7355 9.246 20.708C9.27858 20.6961 9.30026 20.4598 9.30336 20.083L9.30836 19.4772L9.14035 19.309C8.62686 18.7953 8.53098 18.6178 8.4983 18.1208C8.48662 17.9436 8.45964 17.7745 8.43824 17.745C8.41685 17.7154 8.38314 17.5946 8.36332 17.4765C8.31287 17.1759 7.9722 16.4158 7.69943 15.9954C7.38539 15.5112 7.35934 15.4094 7.54957 15.4094C7.64786 15.4094 7.72848 15.3649 7.793 15.2752C7.86984 15.1683 7.93353 15.1409 8.10571 15.1409C8.33495 15.1409 8.43966 15.0714 8.43966 14.919C8.43966 14.7694 8.26081 14.7445 8.0774 14.8686C7.98692 14.9298 7.8376 14.9799 7.74555 14.9799C7.56096 14.9799 7.36017 15.1057 7.36017 15.2214C7.36017 15.3631 7.26159 15.3614 7.21204 15.2188C7.17784 15.1203 7.17882 15.0144 7.21528 14.8801C7.39835 14.2056 7.3458 13.4228 7.11748 13.4228C6.88745 13.4228 6.57509 12.9668 6.57509 12.6311C6.57509 12.5481 6.54471 12.4326 6.50757 12.3744C6.36145 12.1452 6.31233 11.6962 6.39172 11.3153C6.47229 10.9287 6.4612 10.9163 6.1981 11.1005C6.11645 11.1576 6.06689 11.1613 5.98956 11.116C5.89039 11.0579 5.84516 10.8456 5.93196 10.8456C6.10055 10.8456 6.00237 10.4942 5.81154 10.4149C5.64481 10.3455 5.66218 10.2741 5.8636 10.2013C6.12003 10.1087 6.04255 9.99495 5.7164 9.98507C5.37896 9.97487 5.05237 9.2938 5.32989 9.17906C5.40752 9.14701 5.51542 9.06024 5.56964 8.98631C5.64859 8.87866 5.71699 8.84993 5.91311 8.84204C6.18726 8.83103 6.24359 8.71957 6.13416 8.40467L6.08107 8.25187L5.94511 8.39436C5.72518 8.62497 5.48122 8.57874 5.4193 8.29477C5.40001 8.20644 5.35148 8.09289 5.3114 8.04236C5.26321 7.98164 5.24883 7.8953 5.26895 7.78733C5.28564 7.69761 5.3112 7.55769 5.32577 7.47651C5.34403 7.37444 5.31419 7.2625 5.22916 7.11409C5.10938 6.90502 5.1061 6.90325 5.10457 7.04698C5.10374 7.12816 5.12513 7.19463 5.15212 7.19463C5.22469 7.19463 5.21169 7.2982 5.12759 7.39023C5.07494 7.44784 5.05399 7.58824 5.05399 7.88381C5.05399 8.19232 5.0295 8.3469 4.95727 8.49434C4.55217 9.3214 4.58554 10.1391 5.04638 10.6785C5.15708 10.8081 5.32548 11.0818 5.42067 11.2868L5.59373 11.6595V12.5438C5.59373 13.2803 5.60791 13.4569 5.67867 13.6C5.77028 13.7853 5.78829 14.5737 5.70305 14.667C5.61051 14.7682 5.4848 14.6497 5.51419 14.4889C5.54427 14.3243 5.49717 14.1587 5.3714 13.9866C5.27033 13.8482 5.10305 14.0359 5.10305 14.2878C5.10305 14.394 5.07837 14.443 5.02484 14.443C4.98186 14.443 4.93578 14.4885 4.92248 14.5441C4.90796 14.6048 4.86571 14.637 4.81669 14.6245C4.73627 14.6042 4.4161 14.8809 4.4161 14.9708C4.4161 14.9961 4.37194 15.0607 4.31797 15.1141C4.20001 15.2309 4.19064 15.4462 4.29785 15.5758C4.35246 15.6418 4.36208 15.697 4.32999 15.7598C4.27332 15.8706 4.40933 16.3554 4.64368 16.878C4.80266 17.2325 4.8557 17.478 4.76527 17.4407C4.71247 17.4189 4.21983 16.7763 4.21983 16.7292C4.21983 16.7108 4.16659 16.6056 4.10153 16.4955C4.03651 16.3854 3.96826 16.1923 3.94991 16.0664C3.91321 15.8142 3.7927 15.7022 3.62194 15.7616C3.50904 15.8008 3.18941 16.1284 3.18941 16.2049C3.18941 16.231 3.06797 16.3584 2.91954 16.4881C2.77111 16.6177 2.64966 16.7545 2.64966 16.7922C2.64966 16.8745 2.3553 17.0802 2.29539 17.0397C2.22812 16.9942 2.30732 16.7959 2.45903 16.6299C2.53582 16.5458 2.63264 16.3999 2.6742 16.3057C2.71571 16.2114 2.85997 16.0067 2.99481 15.8507C3.46335 15.3088 3.52817 15.0463 3.26301 14.7651C3.16855 14.6649 3.09127 14.5533 3.09127 14.5171C3.09127 14.4809 3.03195 14.3741 2.95943 14.2797C2.84603 14.1323 2.82709 14.0577 2.8241 13.7465C2.82194 13.5204 2.79485 13.3507 2.75197 13.2941C2.52317 12.9924 2.56767 12.1509 2.87508 10.9664C2.9266 10.768 2.74441 10.8168 2.52793 11.0594C2.41237 11.1888 2.24225 11.3076 2.09642 11.3606C1.63062 11.5299 1.30609 12.0028 1.22503 12.6302C1.18543 12.9371 1.07321 13.2081 0.985772 13.2081C0.908638 13.2081 0.893427 12.8621 0.962465 12.678C1.03513 12.4843 1.05584 12.0268 0.991955 12.0268C0.970758 12.0268 0.911974 12.1036 0.861336 12.1975L0.769187 12.3682L0.726597 12.2421C0.593476 11.8484 1.04088 10.5335 1.5211 9.90706C1.81752 9.52038 2.34201 8.94975 2.46566 8.87936C2.53985 8.83715 2.60059 8.77187 2.60059 8.73423C2.60059 8.69664 2.68833 8.60666 2.79554 8.53428C2.98141 8.40886 3.03004 8.32671 2.96237 8.25272C2.92341 8.21009 2.64966 8.36226 2.64966 8.42652C2.64966 8.45289 2.56684 8.53047 2.46566 8.59887C2.36443 8.66733 2.16953 8.83238 2.03244 8.96569C1.35035 9.62905 1.06575 9.85181 0.958148 9.80666C0.8396 9.75689 0.869629 9.64623 1.05496 9.44966C1.14941 9.34948 1.2267 9.23597 1.2267 9.19748C1.2267 9.12569 1.57326 8.73208 1.71315 8.64499C1.77464 8.60671 1.7794 8.57584 1.73582 8.49772C1.6872 8.41063 1.7162 8.37766 1.98116 8.21933C2.33111 8.0102 2.48494 7.86851 2.58072 7.66711C2.66713 7.48532 2.66684 7.46309 2.57773 7.46309C2.50972 7.46309 2.44152 7.49074 2.0001 7.69713C1.89922 7.74427 1.61217 7.80891 1.36222 7.8407C0.951327 7.89299 0.346223 8.06223 0.220805 8.15989C0.0149168 8.32021 1.93847e-07 8.28945 1.93847e-07 7.70432V7.14357L0.182974 6.96773C0.283612 6.87103 0.454712 6.69197 0.56325 6.56983C0.671739 6.44762 0.870954 6.27909 1.00589 6.19522C1.14083 6.11141 1.37267 5.95168 1.5211 5.84027C1.66953 5.72886 2.00074 5.48322 2.25712 5.29444C3.17057 4.6218 3.33808 4.30486 3.43627 3.06325C3.50634 2.17675 3.53347 2.09729 3.88465 1.74953C4.11125 1.52515 4.26811 1.42319 4.55585 1.31329C5.16812 1.07941 5.19373 1.06695 5.31027 0.946631C5.3717 0.883168 5.48392 0.749584 5.55958 0.649718C5.68352 0.486121 5.70826 0.474685 5.80948 0.53396C5.90026 0.587114 5.97082 0.583839 6.1769 0.516886C6.38034 0.450792 6.48785 0.445315 6.70816 0.489879C6.89835 0.528322 7.04673 0.528483 7.18456 0.490416C7.29462 0.459973 7.46366 0.421423 7.56017 0.404779C7.85016 0.354738 7.9455 0.25149 7.83034 0.112215L7.7375 0H12.5292C16.6217 0 17.3209 0.0110604 17.3209 0.0757584ZM4.18951 2.03426C4.15933 2.0523 4.01169 2.19077 3.86139 2.34191C3.60285 2.60199 3.59211 2.62287 3.66144 2.73117C3.78867 2.92993 3.99446 2.8815 4.28411 2.58459C4.42415 2.44097 4.58843 2.29514 4.64918 2.26051C4.88549 2.12575 4.69555 1.9135 4.39157 1.97267C4.31061 1.98846 4.21968 2.01616 4.18951 2.03426ZM12.9171 4.82883C12.6738 5.13799 12.5926 5.33052 12.6068 5.56505C12.6125 5.65804 12.5935 5.75007 12.5647 5.76956C12.5359 5.78905 12.5123 5.77938 12.5123 5.74813C12.5123 5.67801 12.1695 5.67329 12.0063 5.74115C11.7364 5.85342 11.7024 6.6044 11.9593 6.78121C11.9935 6.80483 12.0216 6.85992 12.0216 6.90368C12.0216 6.94744 12.0547 6.99715 12.0952 7.01412C12.1357 7.03114 12.1688 7.09868 12.1688 7.16424C12.1688 7.29197 12.6394 8.00172 12.7511 8.04242C12.8364 8.07345 12.7751 7.58695 12.5875 6.74432C12.5736 6.68193 12.575 6.6611 12.5905 6.69799C12.6059 6.73493 12.6504 6.7651 12.6892 6.7651C12.728 6.7651 12.7855 6.83152 12.8169 6.91275C12.8958 7.1164 13.1521 7.4094 13.2514 7.4094C13.2965 7.4094 13.3918 7.50604 13.4633 7.62416C13.5347 7.74228 13.6094 7.8393 13.6293 7.83973C13.7641 7.84279 13.7948 7.93895 13.6957 8.04736C13.6385 8.10991 13.5918 8.22148 13.5918 8.2953C13.5918 8.4618 13.4613 8.47474 13.2879 8.32548C13.2214 8.26824 13.1055 8.20456 13.0305 8.18395C12.8941 8.14647 12.8939 8.14685 12.912 8.39538C12.9322 8.6734 12.8975 8.69632 12.6717 8.55452C12.4364 8.40677 12.3519 8.48242 12.4415 8.76043C12.5521 9.10341 12.4213 9.28129 12.2573 9.01095C12.1672 8.8626 12.0512 8.92762 12.0915 9.10373C12.1074 9.17278 12.0856 9.34142 12.043 9.4785C12.0005 9.61557 11.9443 9.8727 11.9183 10.0499C11.8922 10.2272 11.8347 10.4364 11.7905 10.515C11.7463 10.5934 11.6367 10.7826 11.5469 10.9352C11.3549 11.2618 11.3562 11.2548 11.4813 11.2906C11.5349 11.3059 11.6006 11.3812 11.6273 11.4579C11.6664 11.5705 11.708 11.5973 11.8434 11.5973C12.1506 11.5973 12.069 11.9853 11.7134 12.2151C11.6358 12.2653 11.4863 12.3929 11.3812 12.4987L11.1899 12.6911L11.4586 12.9993C11.6063 13.1688 11.7272 13.334 11.7272 13.3665C11.7272 13.3989 11.7806 13.4477 11.846 13.4749C11.9261 13.5082 11.9578 13.5559 11.9435 13.6212C11.896 13.8376 12.1711 13.9865 12.2767 13.8016C12.344 13.6835 12.8067 13.6341 12.8067 13.745C12.8067 13.7745 12.7846 13.7987 12.7576 13.7987C12.7306 13.7987 12.7086 13.9323 12.7086 14.0956C12.7086 14.3293 12.6903 14.4001 12.6227 14.4277C12.2547 14.5778 12.1264 14.9026 12.3212 15.1909C12.4003 15.3079 12.419 15.3962 12.401 15.5671C12.3764 15.8004 12.4715 16.4578 12.5665 16.7104C12.6387 16.9027 12.5905 17.0597 12.4878 16.9665C12.3657 16.8556 12.2865 16.9401 12.2745 17.1941C12.2599 17.5034 12.3183 17.5483 12.6936 17.5166C13.1483 17.4781 13.4627 17.0786 13.6666 16.2804C13.7452 15.9725 13.7356 15.7786 13.6492 15.9314C13.5851 16.045 13.2269 16.0985 12.9836 16.0309C12.6499 15.9381 12.6251 15.8855 12.8078 15.6578C12.97 15.4556 12.9703 15.4491 12.833 15.0794C12.7965 14.9813 13.0002 14.7364 13.1854 14.6555C13.4078 14.5584 13.72 14.7887 13.8589 15.1522C13.8998 15.2595 14.0553 15.4914 14.2042 15.6674C14.3531 15.8435 14.475 16.0115 14.475 16.041C14.475 16.0704 14.5633 16.194 14.6713 16.3158C14.8243 16.4883 14.8675 16.5784 14.8675 16.7249C14.8675 16.9205 14.9085 16.9453 15.1909 16.9204C15.2472 16.9155 15.3889 16.9483 15.5057 16.9934C15.6312 17.0419 15.7835 17.0619 15.8785 17.0424L16.039 17.0094L16.0159 17.2127C16.0033 17.3246 15.9692 17.4473 15.9402 17.4855C15.9027 17.535 15.9036 17.6554 15.9434 17.9055C16.0001 18.2623 15.9808 18.3712 15.8241 18.5772C15.7136 18.7223 15.6875 19.1431 15.7772 19.3329C15.8216 19.4268 15.8472 19.5653 15.834 19.6405C15.8209 19.7158 15.8354 19.8036 15.8663 19.8357C16.1706 20.1516 16.8702 20.1926 16.8008 19.8904C16.7806 19.8022 16.8117 19.7109 16.9057 19.5819C17.0444 19.3917 17.1161 18.5666 17.0257 18.2013C17.0074 18.1275 17.023 17.9524 17.0604 17.8123C17.1091 17.6296 17.1139 17.5281 17.0774 17.4534C17.0137 17.3231 17.0106 16.8762 17.0731 16.8339C17.1349 16.7922 17.2295 16.9848 17.3092 17.3147C17.3448 17.462 17.4316 17.6484 17.5021 17.7289C17.5726 17.8093 17.6435 17.9648 17.6598 18.0743C17.6813 18.2192 17.7293 18.2997 17.8363 18.3699C18.0399 18.5035 18.3024 18.6309 18.3743 18.6309C18.4074 18.6309 18.5236 18.7381 18.6327 18.8693C18.828 19.1041 18.8338 19.1068 19.0136 19.0464C19.2098 18.9806 19.2808 18.8747 19.1932 18.7789C19.1199 18.6986 19.2126 18.5772 19.3471 18.5772C19.4024 18.5772 19.4893 18.5359 19.5401 18.4856C19.6156 18.4108 19.65 18.4059 19.7273 18.4587C19.9784 18.6303 19.9926 18.3899 19.7498 18.0794C19.5644 17.8424 19.5404 17.7718 19.645 17.7718C19.6819 17.7718 19.7681 17.7235 19.8368 17.6644C19.9054 17.6054 20.0022 17.5567 20.052 17.5562C20.2469 17.5545 20.2966 17.469 20.2032 17.296C20.1562 17.209 20.1178 17.0984 20.1178 17.0503C20.1178 17.0022 20.0399 16.9125 19.9448 16.8511C19.714 16.7022 19.6655 16.5925 19.7377 16.3832C19.7862 16.2427 19.7819 16.1896 19.7114 16.059C19.6651 15.9732 19.6271 15.8069 19.6271 15.6896C19.6271 15.5626 19.5964 15.4483 19.5512 15.4073C19.3593 15.233 19.2803 15.0467 19.3387 14.9064C19.4025 14.7531 19.3719 14.5931 19.1626 13.9866C19.0505 13.6617 19.0365 13.5561 19.0594 13.2081C19.0852 12.817 19.088 12.7171 19.0847 12.3221C19.0839 12.2188 19.0838 12.0799 19.0845 12.0134C19.0853 11.947 19.0838 11.8392 19.0813 11.7739C19.0788 11.7086 19.1242 11.5479 19.1822 11.4168C19.4157 10.8891 19.4948 10.3979 19.4012 10.0576C19.3524 9.88016 19.3487 9.68048 19.3849 9.19522C19.4274 8.62599 19.4238 8.55715 19.3485 8.49664C19.2212 8.39447 19.1389 8.41568 19.0874 8.56376C18.9907 8.84209 18.6957 8.69015 18.6929 8.36054L18.6909 8.13423L18.6177 8.28188C18.5361 8.44644 18.4431 8.46996 18.3516 8.34926C18.2482 8.21299 18.3336 7.48285 18.4646 7.38239L18.5695 7.30201L18.4638 7.22099C18.4056 7.17643 18.3511 7.08585 18.3424 7.01965C18.315 6.80795 18.0638 6.82169 18.0244 7.0371C18.0063 7.13605 17.9564 7.21944 17.9068 7.23361C17.7938 7.26599 17.763 7.5731 17.7673 8.62679C17.7699 9.24902 17.753 9.48376 17.6959 9.62008C17.6547 9.71834 17.5983 9.8953 17.5705 10.0134C17.5049 10.2918 17.2682 10.5772 17.1029 10.5772C16.9284 10.5772 16.9445 10.4756 17.1676 10.1681C17.3889 9.86282 17.4667 9.58851 17.3462 9.53793C17.2974 9.51742 17.2571 9.54003 17.2385 9.59823C17.2222 9.6494 17.1198 9.79324 17.0108 9.91785C16.8631 10.0868 16.8056 10.2029 16.7847 10.3742C16.7578 10.5947 16.7492 10.6047 16.5723 10.6207C16.4403 10.6326 16.3795 10.6136 16.3585 10.5536C16.318 10.4383 16.1601 10.4485 16.0367 10.5743C15.9344 10.6786 15.9339 10.6783 15.8125 10.4826C15.7154 10.3261 15.7019 10.2671 15.7453 10.1909C15.8788 9.9571 15.7919 9.76816 15.4686 9.58899C15.3569 9.52709 15.3092 9.46282 15.3092 9.3745C15.3092 9.06266 14.9486 8.30384 14.7711 8.2422C14.5782 8.17519 14.426 7.95823 14.4241 7.74754C14.4226 7.56473 14.3991 7.52752 14.1981 7.38803C13.9924 7.24532 13.976 7.21804 13.9996 7.05885C14.0154 6.95238 13.9953 6.82566 13.9476 6.73122C13.8265 6.49144 13.7801 5.79603 13.8772 5.67528C13.9284 5.61154 13.9502 5.49863 13.9414 5.34282C13.9283 5.10862 13.9297 5.10647 14.128 5.048C14.3854 4.97219 14.3838 4.96907 14.0211 4.83485C13.8524 4.7724 13.6716 4.68585 13.6192 4.64252C13.4095 4.46905 13.145 4.53922 12.9171 4.82883ZM14.4346 5.03995C14.2953 5.13664 14.4163 5.47624 14.5909 5.47839C14.6756 5.47946 14.8001 5.51485 14.8675 5.55705C15.0686 5.68285 15.211 5.66056 15.211 5.50336C15.211 5.42217 15.1831 5.36913 15.1402 5.36913C15.1013 5.36913 15.0352 5.3157 14.9934 5.25047C14.8548 5.03393 14.5882 4.93348 14.4346 5.03995ZM3.13205 5.83028C2.8583 6.15302 2.55869 6.18395 2.54662 5.89074C2.54206 5.77965 2.53941 5.78067 2.50638 5.90604C2.47581 6.02223 2.44515 6.03903 2.27822 6.03114C2.17218 6.02609 2.11296 6.03415 2.14672 6.04902C2.21796 6.08043 2.23067 6.28188 2.16144 6.28188C2.13577 6.28188 2.09358 6.24043 2.06767 6.18969C2.00663 6.07044 1.87311 6.14352 1.53926 6.47893C1.40859 6.6102 1.21306 6.76091 1.10471 6.8138C0.86963 6.92864 0.250639 7.46309 0.247548 7.55388C0.242347 7.70566 0.663152 7.65621 0.920218 7.47479C0.981062 7.43184 1.12086 7.39812 1.23087 7.39979C1.40987 7.40247 1.99348 7.26481 2.22169 7.16607C2.26968 7.14529 2.33057 7.08397 2.35707 7.0298C2.38357 6.97568 2.529 6.88864 2.68023 6.83651C3.13146 6.68086 3.49216 6.14813 3.40462 5.76655C3.36502 5.59383 3.32464 5.60322 3.13205 5.83028ZM10.5788 6.44805C10.4734 6.48005 10.2806 6.58652 10.1503 6.68462C10.02 6.78266 9.89556 6.87109 9.87372 6.88113C9.79605 6.91678 9.55512 7.30556 9.58824 7.34185C9.60679 7.36215 9.75895 7.30346 9.92632 7.21149C10.1546 7.08607 10.2858 7.04752 10.4514 7.05729C10.5729 7.06443 10.754 7.07409 10.8539 7.07876C10.9891 7.0851 11.0769 7.13332 11.1974 7.26744C11.3929 7.48521 11.7432 7.73154 11.8573 7.73154C12.0725 7.73154 12.2364 7.24021 12.0476 7.16097C12.008 7.14432 11.9483 7.04843 11.9151 6.94792C11.8574 6.77332 11.8437 6.7651 11.6104 6.7651C11.3939 6.7651 11.3483 6.74373 11.2089 6.57718C11.0372 6.37208 10.9128 6.34658 10.5788 6.44805ZM16.1593 6.55388C15.7583 6.72075 15.3193 7.64193 15.5873 7.75442C15.6914 7.79817 15.7416 7.75211 15.8236 7.53723C15.8865 7.37267 15.907 7.35721 15.9946 7.40854C16.1189 7.48134 16.1194 7.47538 15.9716 7.73154C15.7811 8.06169 15.8202 8.26846 16.073 8.26846C16.111 8.26846 16.1744 8.18352 16.2141 8.07973C16.2537 7.97589 16.4086 7.71297 16.5582 7.49546C16.8551 7.06379 16.8725 7.01128 16.7444 6.93219C16.6756 6.88972 16.6707 6.86566 16.7199 6.81138C16.9125 6.5986 16.5034 6.41074 16.1593 6.55388ZM16.9759 7.81664C16.9376 7.92682 16.9478 7.98642 17.0255 8.10572C17.0793 8.1884 17.1474 8.37944 17.177 8.5302C17.2375 8.83887 17.2784 8.88773 17.4113 8.80988C17.6537 8.66797 17.5724 8.29611 17.202 7.85235C17.027 7.64274 17.0358 7.64413 16.9759 7.81664ZM15.4603 8.20134C15.4645 8.41122 15.6411 8.82975 15.7262 8.8313C15.8383 8.83334 15.8059 8.49595 15.6799 8.34711C15.6109 8.26572 15.5545 8.15431 15.5545 8.09954C15.5545 8.04478 15.5324 8 15.5054 8C15.4784 8 15.4581 8.09063 15.4603 8.20134ZM10.0545 8.89917C9.97598 8.98024 9.9117 9.10185 9.9117 9.16929C9.9117 9.32258 10.0538 9.39248 10.1165 9.27001C10.1703 9.16473 10.3042 9.15114 10.3042 9.25101C10.3042 9.2894 10.2768 9.35082 10.2433 9.38749C10.0655 9.58201 10.5233 9.60977 10.7789 9.41992C10.9029 9.32789 11.001 9.2931 11.0774 9.31409C11.3488 9.38867 11.8158 9.09273 11.6276 8.96542C11.5696 8.92623 11.3465 8.97256 11.2372 9.04655C11.2088 9.06577 11.1032 9.05117 11.0025 9.01412C10.9018 8.97713 10.7456 8.95329 10.6552 8.96118C10.5401 8.97127 10.4626 8.94212 10.3958 8.86362C10.2713 8.71748 10.2258 8.7222 10.0545 8.89917ZM7.26164 10.1372C7.1875 10.2029 7.13888 10.3268 7.11076 10.5216C7.08431 10.7046 7.02622 10.8595 6.9508 10.9481C6.53318 11.4389 6.61675 12.233 7.10271 12.3924C7.35482 12.475 7.82715 12.4746 7.96449 12.3916C8.02342 12.356 8.25934 12.3258 8.48873 12.3245L8.90581 12.3221L8.92048 12.1582C8.9299 12.0525 8.89742 11.9419 8.82887 11.8464C8.72234 11.6983 8.18029 11.3826 8.0324 11.3826C7.98633 11.3826 7.93309 11.3101 7.90424 11.2081C7.78559 10.7885 7.64133 10.3831 7.58417 10.3087C7.55016 10.2644 7.5086 10.1859 7.49182 10.1342C7.45321 10.015 7.39879 10.0157 7.26164 10.1372ZM3.20977 11.492C3.05094 11.7489 2.97498 13.4426 3.10992 13.7181C3.15329 13.8067 3.18892 13.9308 3.18911 13.9939C3.18955 14.1621 3.44957 14.6577 3.5374 14.6577C3.59015 14.6577 3.77822 14.2388 3.77822 14.1211C3.77822 14.0734 3.83122 13.9557 3.89598 13.8597C3.96071 13.7636 4.02896 13.5958 4.04756 13.4868C4.0662 13.3778 4.10089 13.2628 4.12464 13.2313C4.19147 13.1427 4.36571 12.5005 4.3664 12.34C4.36733 12.1334 4.18759 11.7047 4.10006 11.7047C3.99064 11.7047 3.89142 11.9103 3.85398 12.2148C3.76699 12.922 3.63102 13.1141 3.63102 12.5298C3.63102 12.2637 3.6054 12.1284 3.52964 11.9943C3.41914 11.7987 3.48823 11.5903 3.68823 11.5159C3.824 11.4655 3.88686 11.1847 3.80241 11.006C3.68691 10.7616 3.5743 10.7778 3.4423 11.0578C3.37896 11.1921 3.27435 11.3875 3.20977 11.492ZM11.2463 11.5053C11.0788 11.7005 11.0827 11.8887 11.2548 11.9102C11.4496 11.9346 11.4981 11.8612 11.4581 11.6025C11.419 11.3491 11.3913 11.3364 11.2463 11.5053ZM12.2404 12.9139C12.2858 13.3116 12.2395 13.5302 12.1098 13.5302C12.0254 13.5302 12.0195 13.5172 12.0719 13.4481C12.1353 13.3645 12.1313 13.3569 11.8382 13.006C11.7548 12.906 11.9483 12.6174 12.0988 12.6174C12.1927 12.6174 12.2109 12.6556 12.2404 12.9139ZM23.2525 13.0661C23.2276 13.3364 23.3733 13.5302 23.6013 13.5302C23.8729 13.5302 23.8063 13.0486 23.5267 12.9902C23.3553 12.9543 23.2604 12.9807 23.2525 13.0661ZM9.3222 13.4362C9.32112 13.632 9.2667 13.7987 9.20385 13.7987C9.17171 13.7987 9.10502 13.8309 9.05576 13.8703C8.97416 13.9356 8.99889 13.9617 9.33167 14.1616C9.53275 14.2823 9.79516 14.471 9.91484 14.5808C10.4517 15.0734 10.9334 14.9458 10.548 14.413C9.97529 13.6214 9.32406 13.1024 9.3222 13.4362ZM17.0969 14.7486C17.1757 14.9731 16.9892 15.302 16.7832 15.302C16.7551 15.302 16.7321 15.3368 16.7321 15.3794C16.7321 15.422 16.7122 15.4703 16.6877 15.4868C16.6234 15.5303 16.6842 15.0762 16.7556 14.9799C16.7885 14.9356 16.8279 14.8604 16.8432 14.8128C16.8814 14.6941 17.0619 14.6484 17.0969 14.7486ZM6.76542 15.281C6.93314 15.4781 7.10546 15.7144 7.1484 15.8062C7.19133 15.898 7.28466 16.0577 7.35585 16.1611C7.427 16.2644 7.59452 16.5906 7.72803 16.8859C7.86155 17.1812 8.0458 17.5255 8.13751 17.651C8.30021 17.8736 8.30483 17.8938 8.32833 18.4832C8.34344 18.8639 8.37759 19.1312 8.42053 19.2062C8.64923 19.605 8.46027 19.5589 7.9406 19.0891C7.8955 19.0484 7.81538 18.9897 7.76248 18.9588C7.65208 18.8941 7.43804 18.4708 7.3876 18.2173C7.34477 18.002 7.19737 17.7935 7.01513 17.6904C6.93804 17.6468 6.84594 17.5448 6.81047 17.4637C6.77499 17.3827 6.68539 17.2847 6.61145 17.2459C6.46336 17.1682 6.45482 17.1188 6.4746 16.4562C6.4822 16.2006 6.4587 16.006 6.40124 15.8488C6.3139 15.61 6.32342 15.0727 6.41679 14.9705C6.44226 14.9427 6.58745 15.0719 6.76542 15.281ZM10.8484 16.9297C10.792 17.0571 10.7457 17.2082 10.7454 17.2653C10.7452 17.3224 10.6907 17.4899 10.6243 17.6376C10.4449 18.0366 10.441 18.0321 10.9482 18.0089C11.4368 17.9865 11.5393 18.0129 11.3944 18.1241C11.3049 18.1926 11.3036 18.2136 11.3699 18.4987C11.4578 18.8762 11.4326 18.953 11.2209 18.953C10.9582 18.953 10.7338 19.0569 10.772 19.1608C10.7897 19.2089 10.8322 19.3642 10.8665 19.5058C10.9755 19.9555 11.6272 20.8266 11.63 20.5262C11.6304 20.473 11.6987 20.3208 11.7815 20.1879C11.9689 19.8873 11.9708 19.4212 11.7855 19.2053C11.5947 18.9831 11.6564 18.8028 11.8798 18.9292C12.032 19.0153 12.1347 19.1996 12.2656 19.6214C12.4149 20.1023 12.6084 20.0116 12.6097 19.4602C12.6106 19.0786 12.426 18.6958 12.1716 18.5519C12.0868 18.5039 12.0216 18.4241 12.0216 18.3683C12.0216 18.3139 11.9807 18.2119 11.9307 18.1415C11.8807 18.071 11.7989 17.9168 11.749 17.7987C11.5835 17.4074 11.0917 16.698 10.9859 16.698C10.9667 16.698 10.9047 16.8023 10.8484 16.9297ZM13.662 17.2215C13.5012 17.4904 13.0801 17.9424 12.8929 18.0469C12.6867 18.162 12.6772 18.1939 12.7827 18.4172C12.9505 18.7722 13.2211 18.7573 13.7635 18.3632C13.8445 18.3043 13.9438 18.2421 13.9843 18.2249C14.0248 18.2076 14.0963 18.1711 14.1431 18.1437C14.19 18.1163 14.2634 18.094 14.3062 18.094C14.4439 18.094 14.3594 17.9123 14.1981 17.8616C14.0582 17.8177 14.0388 17.7841 13.9816 17.4839C13.8975 17.0432 13.8111 16.9722 13.662 17.2215ZM19.0475 17.9234C19.2276 18.013 19.228 18.014 19.1379 18.134C19.0862 18.2029 19.0584 18.3008 19.0731 18.3622C19.0875 18.4224 19.0747 18.4698 19.0441 18.4698C19.0139 18.4698 18.9892 18.4344 18.9892 18.3911C18.9892 18.3479 18.9451 18.2867 18.8911 18.255C18.822 18.2146 18.793 18.1426 18.793 18.0115C18.793 17.8014 18.7984 17.7996 19.0475 17.9234ZM6.75006 18.0671C6.76778 18.1705 6.80193 18.255 6.82587 18.255C6.90458 18.255 6.87116 18.493 6.76596 18.6818L6.66277 18.8671L6.59187 18.6825C6.53902 18.545 6.53412 18.4663 6.57254 18.374C6.60095 18.3058 6.62416 18.1666 6.62416 18.0646C6.62416 17.8236 6.7086 17.8253 6.75006 18.0671ZM1.64205 20.7841C1.89274 21.0249 1.8873 21.2271 1.63151 21.1765C1.53028 21.1565 1.4475 21.1373 1.4475 21.1338C1.4475 21.1304 1.39593 21.0634 1.33288 20.9849C1.23803 20.8669 1.22773 20.823 1.27331 20.7299C1.34883 20.5755 1.43867 20.5887 1.64205 20.7841Z" fill="black"/>
</svg>
