<svg width="24" height="36" viewBox="0 0 24 36" fill="none" xmlns="http://www.w3.org/2000/svg">
<path fill-rule="evenodd" clip-rule="evenodd" d="M8.05516 0.449087C7.68331 0.683222 7.37892 0.977179 7.37892 1.10231C7.37892 1.22727 7.16412 1.49547 6.90158 1.69819C6.50363 2.00544 6.42424 2.18242 6.42424 2.76086C6.42424 3.16632 6.30665 3.6198 6.14165 3.85127C5.98619 4.06929 5.76407 4.44384 5.64808 4.68346C5.53224 4.92324 5.05076 5.58244 4.57835 6.14809C4.10578 6.7139 3.71929 7.29251 3.71929 7.43392C3.71929 7.62203 3.79806 7.58946 4.0127 7.31245C4.37819 6.84102 4.85107 6.96465 4.7179 7.49673C4.63913 7.81146 4.67446 7.84253 4.99221 7.73718C5.31107 7.6315 5.34544 7.66241 5.26525 7.98278C5.17949 8.32526 5.19206 8.33174 5.45746 8.08099C5.72763 7.82559 5.73527 7.853 5.61514 8.6468C5.54577 9.1056 5.45284 9.54197 5.40877 9.61641C5.36469 9.69085 5.1771 10.5323 4.99189 11.4863C4.66046 13.1924 3.5683 15.8472 2.75188 16.9313C2.58386 17.1544 2.44638 17.4004 2.44638 17.4781C2.44638 17.5557 2.23921 17.9756 1.9859 18.4112C1.73259 18.8467 1.4796 19.4647 1.42375 19.7846L1.32224 20.3662L1.57109 19.9092C2.00516 19.1124 2.44638 19.3009 2.44638 20.2831C2.44638 20.7841 2.51687 21.114 2.62411 21.114C2.72499 21.114 2.76477 20.9664 2.71608 20.7721C2.64527 20.4891 2.6701 20.4646 2.8604 20.6294C3.04879 20.7929 3.07106 20.7766 2.98387 20.5393C2.88904 20.2813 2.91434 20.2741 3.21888 20.4729C3.40664 20.5952 3.56018 20.7804 3.56018 20.8843C3.56018 20.9882 3.66758 21.1663 3.79885 21.2801C3.99822 21.4529 4.03752 21.429 4.03752 21.1342C4.03752 20.7004 4.21875 20.6804 4.4622 21.0877C4.87876 21.7843 3.67617 24.9615 2.60359 25.9979C2.25083 26.3387 2.00325 26.687 2.05337 26.7719C2.10365 26.8567 2.04541 26.8864 1.92401 26.8377C1.8026 26.789 1.53036 26.9063 1.31906 27.0983C0.950548 27.4329 0.949435 27.4397 1.2928 27.2658C1.53386 27.1436 1.65081 27.1406 1.65081 27.2565C1.65081 27.351 1.59289 27.4284 1.52209 27.4284C1.45128 27.4284 1.25446 27.5408 1.08452 27.678C0.900586 27.8269 0.872105 27.8956 1.01435 27.8482C1.14562 27.8043 1.53943 27.7374 1.88948 27.6995C2.24447 27.6608 2.50828 27.5489 2.48616 27.4462C2.4642 27.345 2.58958 27.2623 2.76461 27.2623C3.5107 27.2623 2.59563 28.0719 1.80992 28.1069C1.45494 28.1227 1.36838 28.1621 1.57125 28.2154C1.74628 28.2616 2.03077 28.4024 2.20341 28.5285C2.37589 28.6546 2.64448 28.7578 2.80009 28.7578C3.38213 28.7578 3.06979 29.3952 2.03587 30.317C1.25191 31.0159 0.864627 31.2504 0.494527 31.2504H0L0.771545 31.9696C1.35343 32.512 1.52209 32.7728 1.45749 33.0307C1.39082 33.2971 1.44667 33.3726 1.71016 33.3716C1.89632 33.3707 2.48711 33.4603 3.02285 33.5706C3.90928 33.7529 4.05789 33.7405 4.66984 33.4317L5.34226 33.0924L5.75214 33.6009C6.26449 34.2368 8.11705 34.2722 8.564 33.6545C8.72105 33.4377 8.80252 33.4043 8.80586 33.5555C8.80968 33.728 8.8633 33.7383 9.02544 33.5977C9.25726 33.3968 9.62259 33.7135 9.81607 34.283C9.87606 34.46 10.0783 34.5738 10.3327 34.5738C10.5626 34.5738 10.9582 34.728 11.2118 34.9166C11.4653 35.1052 11.756 35.2058 11.8577 35.1403C11.9671 35.0695 11.9996 35.0933 11.9374 35.1984C11.8785 35.2978 12.0429 35.4733 12.3105 35.5971C12.5735 35.7187 12.7888 35.8894 12.7888 35.9763C12.7888 36.0634 13.0216 35.903 13.3059 35.62C14.6372 34.2951 15.9638 33.8049 16.8795 34.2995C17.3006 34.5269 18.6846 34.9455 19.7898 35.1795C20.0603 35.2368 20.3913 35.1168 20.8241 34.8048C21.2997 34.4618 21.704 34.3282 22.4238 34.2764L23.3871 34.2069L22.9546 33.7233C22.4572 33.1673 21.09 29.6503 20.4895 27.3828C19.9103 25.1956 19.902 25.1572 20.0589 25.3845C20.155 25.5238 20.2592 25.4362 20.4043 25.0937C20.6177 24.5902 20.889 24.4424 20.9224 24.8113C20.9327 24.9256 20.9865 24.8 21.0417 24.5323C21.1343 24.0841 21.1627 24.0668 21.3991 24.3137C21.5641 24.4861 21.711 24.5248 21.8095 24.4219C21.908 24.3191 22.103 24.3767 22.3543 24.5831L22.7455 24.9046L22.6832 24.3466C22.6342 23.9078 22.7104 23.7021 23.0407 23.3824C23.3592 23.0741 23.4821 22.7614 23.5495 22.0865C23.5985 21.5973 23.7395 20.9609 23.8628 20.6721C24.0649 20.1993 24.0546 20.0681 23.7589 19.3477C23.5783 18.9079 23.4668 18.404 23.5109 18.2279C23.5634 18.0184 23.3538 17.5858 22.9047 16.9761C22.1627 15.9691 20.4274 12.4883 20.1022 11.3547C19.9919 10.9705 19.8331 10.7003 19.7491 10.7545C19.6594 10.8125 19.6393 10.7126 19.7002 10.5121C19.7572 10.3245 19.6932 9.89475 19.5582 9.55692C19.1817 8.61589 19.2283 8.48495 19.9396 8.48495C20.2845 8.48495 20.6056 8.55076 20.653 8.63102C20.7006 8.71144 20.892 8.81879 21.0785 8.8698L21.4174 8.96236L21.0799 8.58715C20.8268 8.30565 20.5364 8.20213 19.9178 8.17255C18.8601 8.1222 18.8328 8.09927 18.8474 7.27041L18.8596 6.57398L19.0477 7.22537C19.1513 7.58364 19.3348 7.91116 19.4555 7.9532C19.5884 7.9994 19.6312 7.95553 19.5639 7.84187C19.4994 7.73303 19.557 7.6541 19.7009 7.6541C19.9615 7.6541 20.0452 7.38905 19.8145 7.294C19.7407 7.26359 19.6399 6.93956 19.5909 6.57398L19.5015 5.9093L19.7995 6.57398C19.9634 6.93956 20.1717 7.45635 20.2626 7.72256C20.3534 7.98876 20.4627 8.16989 20.5055 8.12519C20.6253 8.00023 19.9228 6.22951 19.1093 4.60586C18.7063 3.80159 18.4106 3.05083 18.4523 2.9375C18.6892 2.29242 17.42 0.642842 16.3385 0.190525C15.8223 -0.0254974 14.6982 0.186038 14.6982 0.499104C14.6982 0.947932 12.6367 1.33345 12.3263 0.942615C12.2254 0.815827 11.7571 0.66162 11.2857 0.600136C10.7665 0.532339 10.394 0.394084 10.3408 0.249183C10.1898 -0.161592 8.83704 -0.0434439 8.05516 0.449087ZM16.2467 0.624564C16.278 0.722438 15.895 1.16645 15.3956 1.61112C14.8046 2.13738 14.4635 2.34477 14.4183 2.20502C14.3645 2.03835 14.2983 2.03436 14.122 2.18724C13.9971 2.29541 13.8498 2.33696 13.7947 2.27946C13.7397 2.2218 13.9384 2.05712 14.2361 1.91339C15.4546 1.32531 16.1092 0.719946 15.8462 0.42466C15.7837 0.354536 15.8354 0.330607 15.9612 0.371817C16.0869 0.412862 16.2155 0.526523 16.2467 0.624564ZM8.21411 0.866176C8.07616 1.01025 8.08793 1.19918 8.26185 1.63422C8.55557 2.36836 8.5535 2.48219 8.25373 2.07756C8.01824 1.76001 8.01617 1.76018 8.12103 2.08737C8.20934 2.36338 8.17195 2.35025 7.90098 2.0096C7.61489 1.65034 7.53788 1.62724 7.27788 1.82266C7.11463 1.94529 7.17351 1.85722 7.40852 1.62674C7.64369 1.39626 7.78896 1.15847 7.73136 1.09832C7.67392 1.03833 7.73216 0.919683 7.86088 0.834604C8.19168 0.616089 8.43289 0.637691 8.21411 0.866176ZM18.1261 2.491C18.0665 2.59186 17.9559 2.63457 17.8803 2.58588C17.8049 2.53703 17.6404 2.65035 17.5148 2.83763C17.3893 3.02474 17.0621 3.24508 16.788 3.32734C16.1165 3.5284 16.1555 3.37503 16.8532 3.0706C17.1632 2.93534 17.4623 2.69622 17.5178 2.53902C17.5732 2.38199 17.6948 2.20053 17.788 2.13589C18.0085 1.98268 18.2665 2.2537 18.1261 2.491ZM8.10607 5.16153C8.39853 5.16153 8.399 5.66985 8.10687 6.08528C7.74807 6.59559 7.37128 5.453 7.65594 4.71819C7.76159 4.44533 7.77925 4.45265 7.82619 4.78765C7.85483 4.99337 7.98085 5.16153 8.10607 5.16153ZM13.7492 6.71756C13.6275 6.84468 13.6035 6.75395 13.6652 6.40266C13.7615 5.85613 13.5546 5.39085 13.2908 5.56101C13.1974 5.62133 13.1603 5.79913 13.2085 5.95616C13.283 6.1986 13.2703 6.20409 13.1245 5.99239C13.03 5.8553 12.9517 5.82405 12.9503 5.92309C12.9462 6.22885 13.147 6.33088 13.3708 6.13679C13.5166 6.01033 13.5844 6.00767 13.5844 6.12848C13.5844 6.22552 13.5128 6.35132 13.4253 6.40781C13.2313 6.53311 13.2125 7.59992 13.4023 7.72239C13.4771 7.77075 13.5015 7.6069 13.4561 7.35831C13.3841 6.96199 13.4049 6.93308 13.6249 7.12285C13.8364 7.30514 13.8878 7.29201 13.9503 7.03976C14.0105 6.79765 14.0283 6.80995 14.0433 7.10424C14.0534 7.30447 14.0079 7.50288 13.9424 7.54509C13.8768 7.5873 13.8533 8.05906 13.8904 8.59346C13.947 9.41285 13.9753 9.48696 14.0703 9.06655C14.1737 8.61008 14.1847 8.6031 14.2011 8.98346C14.2108 9.21195 14.1118 9.61309 13.9812 9.87481C13.6802 10.4775 13.6805 10.66 13.9822 10.5392C14.1134 10.4865 14.227 10.2833 14.2345 10.0873C14.2453 9.80485 14.2767 9.8306 14.386 10.2125C14.4803 10.5415 14.4535 10.8698 14.301 11.251C14.0867 11.7863 13.7721 12.0708 13.9602 11.5591C14.0137 11.4136 13.9626 11.3099 13.8375 11.3099C13.7198 11.3099 13.5343 11.1977 13.4253 11.0606C13.3004 10.9034 13.2897 10.8113 13.3965 10.8113C13.4894 10.8113 13.6098 10.8861 13.6639 10.9775C13.7939 11.1972 14.0617 11.1905 14.0617 10.9677C14.0617 10.871 13.9901 10.8379 13.9026 10.8944C13.8151 10.9509 13.7429 10.9366 13.7422 10.8627C13.7416 10.7887 13.5626 10.6419 13.3444 10.5362C12.8448 10.2942 12.7742 10.7882 13.2407 11.2618C13.7597 11.7889 13.8453 12.2966 13.332 11.8044L12.903 11.3929L13.0073 11.8915C13.0924 12.2987 13.0795 12.3348 12.9368 12.089C12.8407 11.9235 12.7991 11.6874 12.8445 11.5643C12.8897 11.441 12.8326 10.9674 12.7175 10.5117C12.5043 9.66792 12.5509 8.81729 12.8104 8.81729C12.8894 8.81729 12.911 9.02285 12.8585 9.27426C12.7907 9.59913 12.8082 9.6641 12.919 9.49926C13.1045 9.22358 13.641 9.3866 13.5454 9.68986C13.5094 9.80402 13.3244 9.92133 13.1344 9.95058C12.9443 9.97966 12.7888 10.0775 12.7888 10.1681C12.7888 10.2585 12.8636 10.2843 12.9549 10.2253C13.0463 10.1663 13.2222 10.2058 13.3462 10.3132C13.6315 10.5606 13.7486 10.0918 13.6988 8.90254C13.6703 8.22523 13.6065 8.06221 13.3497 8.0107C13.1769 7.97597 12.9404 7.82558 12.8243 7.6762C12.6356 7.43359 12.6228 7.44173 12.7038 7.75264C12.7536 7.94406 12.683 8.35534 12.5466 8.66658L12.2991 9.23272L12.4077 8.2357C12.5371 7.05139 12.5939 6.6034 12.6294 6.4909C12.6437 6.4452 12.754 6.63214 12.8741 6.90633C13.0687 7.35034 13.0935 7.36363 13.0999 7.02863C13.1039 6.82175 13.021 6.50868 12.9158 6.3327C12.6489 5.88654 13.0334 5.11467 13.4531 5.25392C13.6728 5.32671 13.7508 5.25641 13.7736 4.96495C13.7901 4.75325 13.8297 5.02078 13.8617 5.55968C13.895 6.11951 13.8468 6.61569 13.7492 6.71756ZM5.49724 5.87839C5.09547 6.32506 5.04838 6.56767 5.38999 6.43075C5.53988 6.37076 5.62867 6.43257 5.62867 6.59692C5.62867 6.76741 5.54083 6.82357 5.37695 6.75794C5.23852 6.70243 4.98775 6.65707 4.81973 6.65707C4.57262 6.65707 4.62704 6.54574 5.10454 6.07547C5.76996 5.42009 6.02454 5.29231 5.49724 5.87839ZM8.2585 7.85766C8.11769 8.6139 7.98149 9.56124 7.95571 9.96271C7.88809 11.0149 7.06069 11.5729 7.06069 10.5661C7.06069 10.3507 7.14375 10.1455 7.24527 10.1101C7.37494 10.0649 7.38226 9.95723 7.26977 9.74735C7.15887 9.54047 7.17637 9.16077 7.32657 8.50988C7.44575 7.99358 7.50414 7.33388 7.45625 7.04392C7.37049 6.52463 7.5802 6.15889 7.77512 6.48824C7.93932 6.76558 8.14537 6.681 8.27394 6.28319C8.5255 5.506 8.51595 6.47495 8.2585 7.85766ZM7.72499 6.88738C7.90941 7.0283 7.94282 7.16622 7.83924 7.35948C7.54329 7.91183 7.36778 9.3507 7.56588 9.60013C7.71242 9.78441 7.69158 9.94543 7.47105 10.3353C7.31591 10.6098 7.22585 10.873 7.27104 10.9202C7.47137 11.1294 7.7592 10.1367 7.7845 9.14964C7.79978 8.55557 7.92293 7.7965 8.05818 7.46283C8.30353 6.8578 8.30306 6.85598 7.88443 6.77223C7.52785 6.70111 7.50383 6.71855 7.72499 6.88738ZM6.81582 9.21743C6.75567 9.63718 6.63522 9.98049 6.54819 9.98049C6.46131 9.98049 6.43967 9.84955 6.50029 9.68969C6.56092 9.52984 6.64986 9.15362 6.69807 8.85369C6.83252 8.01751 6.9404 8.35069 6.81582 9.21743ZM7.05146 12.0757C6.73881 12.6858 6.60833 12.548 6.79768 11.8077C6.93181 11.2828 6.998 11.1989 7.11129 11.4104C7.20358 11.5824 7.1821 11.8207 7.05146 12.0757ZM7.75268 12.1823C7.7024 12.7536 7.5942 13.5573 7.51242 13.9686C7.43063 14.3799 7.36428 15.0529 7.36508 15.4641C7.36603 15.9844 7.32848 16.1149 7.24177 15.8929C7.14089 15.6348 7.07724 15.7229 6.90778 16.3546C6.66895 17.2457 6.79672 17.6205 7.0494 16.7702C7.20851 16.2347 7.21265 16.2322 7.15171 16.7104C6.84987 19.0832 6.4376 21.1758 6.41803 20.4355C6.41453 20.3059 6.30601 20.4544 6.17697 20.7652C6.04777 21.0761 5.97744 21.3674 6.02056 21.4126C6.06384 21.4576 6.16774 21.3155 6.2516 21.0965C6.33545 20.8777 6.40864 20.7944 6.41421 20.9116C6.41962 21.0287 6.32845 21.3652 6.21118 21.6593C6.09407 21.9534 6.0317 22.2979 6.07275 22.4249C6.1138 22.5518 6.07832 22.6113 5.99399 22.5568C5.90918 22.502 5.84076 22.6746 5.84076 22.9437C5.84076 23.2109 5.72827 23.7124 5.59064 24.058C5.453 24.4038 5.10486 25.3433 4.81702 26.1459C4.44963 27.1707 4.22941 27.5795 4.07778 27.5188C3.95908 27.4712 3.90259 27.5011 3.95224 27.585C4.04707 27.7452 3.75144 28.0159 3.62542 27.8843C3.47442 27.7266 3.76416 27.2623 4.01477 27.2606C4.18343 27.2596 4.368 26.9798 4.53491 26.4713C4.67732 26.0381 4.8498 25.5341 4.91854 25.3513C5.03406 25.0432 5.01448 25.0462 4.64948 25.3929C4.43292 25.5986 4.1384 25.7667 3.99504 25.7667C3.64228 25.7667 2.92372 26.119 2.92372 26.292C2.92372 26.3686 2.83876 26.4314 2.73486 26.4314C2.63095 26.4314 2.72738 26.2257 2.94918 25.9745C3.17083 25.7232 3.4706 25.3325 3.61539 25.1065C3.76003 24.8807 3.87841 24.7828 3.87841 24.889C3.87841 24.9954 3.80681 25.1286 3.71929 25.1851C3.63178 25.2416 3.56018 25.3731 3.56018 25.4774C3.56018 25.614 3.61364 25.6112 3.75112 25.4676C3.99488 25.2131 4.25137 25.2074 4.10196 25.4602C4.031 25.58 4.05837 25.6067 4.17468 25.5316C4.27715 25.4655 4.31725 25.3375 4.26378 25.2473C4.08017 24.9369 4.0711 24.1876 4.24708 23.8558C4.34414 23.673 4.40635 23.4618 4.38566 23.3865C4.36482 23.3111 4.41685 23.2939 4.50118 23.3485C4.58551 23.4028 4.72824 23.3149 4.81846 23.153C4.96532 22.8897 4.98298 22.8878 4.98743 23.1358C4.98998 23.288 4.9214 23.4375 4.83469 23.4681C4.73206 23.5042 4.73619 23.7461 4.84646 24.1627L5.01576 24.8021L5.29771 24.2458C5.73527 23.3828 5.82788 22.831 5.53495 22.831C5.35897 22.831 5.31505 22.9382 5.37997 23.2085C5.42993 23.4162 5.39381 23.6358 5.29978 23.6966C5.18744 23.769 5.14623 23.6155 5.1798 23.2497C5.21338 22.883 5.3055 22.709 5.44934 22.7409C5.59271 22.7727 5.6336 22.6962 5.5682 22.5186C5.45078 22.1989 5.8842 20.5407 6.16345 20.2417C6.48263 19.8999 6.68677 18.5998 6.57428 17.6244L6.46911 16.7104L6.4446 17.8736C6.4263 18.747 6.32081 19.2439 6.02136 19.8677C5.62707 20.6891 5.63201 20.5837 6.04093 19.4522C6.36266 18.5622 6.33831 17.1069 6.00386 17.241C5.762 17.3379 5.79399 16.2378 6.04061 15.9764C6.21946 15.7872 6.26783 16.1456 6.10601 16.4612C6.00433 16.6596 5.9609 16.8636 6.00958 16.9143C6.1539 17.065 6.70969 16.2498 6.80738 15.744C6.85719 15.4866 6.97032 15.3227 7.05878 15.3799C7.14741 15.437 7.21981 15.3671 7.21981 15.2247C7.21981 15.0823 7.16253 14.9656 7.09252 14.9656C6.82298 14.9656 6.58335 15.3852 6.58335 15.8575C6.58335 16.5617 6.48247 16.348 6.35852 15.381C6.29042 14.8505 6.30538 14.6329 6.39989 14.7792C6.57476 15.05 6.90158 14.8872 6.90158 14.5293C6.90158 14.3541 6.80563 14.3104 6.58335 14.384C6.40085 14.4445 6.26512 14.4139 6.26512 14.3121C6.26512 14.2145 6.37252 14.1348 6.50379 14.1348C6.63506 14.1348 6.74246 14.0181 6.74246 13.8757C6.74246 13.7333 6.67086 13.6628 6.58335 13.7193C6.36886 13.8578 6.38271 13.7581 6.6532 13.2133L6.88201 12.7526L6.93165 13.5683C6.97875 14.3436 6.99164 14.3646 7.19483 13.9924C7.34933 13.709 7.3603 13.5503 7.2346 13.4191C6.97 13.1427 7.02569 12.5314 7.3821 11.8017C7.81378 10.9182 7.85992 10.9657 7.75268 12.1823ZM7.44304 12.0006C7.32435 12.201 7.32084 13.2986 7.43843 13.4214C7.4755 13.4603 7.53103 13.1131 7.56174 12.65C7.62189 11.7434 7.61552 11.709 7.44304 12.0006ZM13.9211 12.93C13.9312 13.2728 13.9723 13.4224 14.0122 13.2624C14.0962 12.927 14.6183 12.8725 14.8075 13.1793C15.1693 13.7657 15.4556 16.1288 15.1649 16.1288C15.0715 16.1288 15.0325 15.998 15.0781 15.838C15.124 15.678 15.1003 15.2855 15.0256 14.9656C14.951 14.6457 14.8826 14.5148 14.8735 14.6748C14.8646 14.8348 14.7499 14.9768 14.6186 14.9905C14.4873 15.0043 14.2905 15.023 14.1812 15.0321C14.0721 15.0412 13.9755 14.9365 13.9669 14.7995C13.9581 14.6624 13.9402 14.3676 13.9268 14.1446C13.9045 13.772 13.8859 13.7627 13.698 14.0311C13.507 14.3038 13.4935 14.3004 13.4935 13.9797C13.4935 13.7908 13.5497 13.6363 13.6184 13.6363C13.8167 13.6363 13.7635 12.7266 13.5526 12.5063C13.4041 12.3513 13.4218 12.3069 13.6321 12.3069C13.8353 12.3069 13.9072 12.4619 13.9211 12.93ZM14.3225 13.2531C14.2667 13.3116 14.2219 13.4403 14.2232 13.5394C14.2247 13.6384 14.2966 13.6072 14.3831 13.4701C14.5015 13.2828 14.5321 13.3551 14.506 13.7609C14.4869 14.0578 14.4062 14.3009 14.3266 14.3009C14.2469 14.3009 14.2748 14.4178 14.3882 14.5607C14.5742 14.7948 14.6102 14.7915 14.7515 14.5279C14.8554 14.3338 14.8538 14.2167 14.7467 14.1793C14.6579 14.1484 14.6175 13.9477 14.6568 13.733C14.7275 13.347 14.5192 13.0478 14.3225 13.2531ZM4.28797 14.9196C3.97531 15.5509 3.71929 16.1444 3.71929 16.2388C3.71929 16.3332 3.57371 16.5856 3.39582 16.8C3.21777 17.0142 3.10718 17.285 3.15014 17.4017C3.19294 17.5183 3.15953 17.6579 3.07584 17.7119C2.99214 17.7659 2.91545 18.0488 2.90527 18.3404C2.89508 18.632 2.85403 18.7399 2.81409 18.5798C2.72801 18.236 2.58672 18.2131 2.30031 18.4968C2.12688 18.6686 2.12688 18.6417 2.30047 18.3414C2.41567 18.1416 2.56731 18.0152 2.63732 18.0604C2.70733 18.1056 2.76509 17.9698 2.76572 17.7588C2.7662 17.5478 2.90893 17.1508 3.08284 16.8766C3.25659 16.6024 3.70131 15.7649 4.0711 15.0156C4.44072 14.2662 4.76881 13.6798 4.8 13.7125C4.83118 13.7451 4.60079 14.2883 4.28797 14.9196ZM14.9149 15.5472C14.9706 15.6991 14.915 15.7965 14.7728 15.7965C14.4678 15.7965 14.4713 16.0662 14.7777 16.189C15.0415 16.2947 15.1103 16.9597 14.8573 16.9597C14.7698 16.9597 14.6982 16.8188 14.6982 16.6468C14.6982 16.4735 14.5561 16.295 14.3799 16.2468C14.0744 16.1634 13.9429 15.6436 14.1678 15.4088C14.3602 15.2079 14.8215 15.2933 14.9149 15.5472ZM13.8915 16.6787C13.8713 17.9388 13.6313 18.1297 13.6047 16.907C13.5888 16.178 13.6375 15.8113 13.7414 15.8782C13.83 15.9354 13.8975 16.2957 13.8915 16.6787ZM22.6778 17.1258C23.0093 17.588 23.2278 18.0958 23.2496 18.4552C23.2779 18.9218 23.2561 18.9712 23.1397 18.7045C23.0598 18.5217 22.9895 18.2362 22.9833 18.0702C22.9772 17.9042 22.8036 17.5303 22.5979 17.2393C22.2152 16.6986 21.8967 16.1456 22.0539 16.295C22.1019 16.3407 22.3828 16.7146 22.6778 17.1258ZM4.63261 17.5119C4.52409 17.7566 4.35177 17.9241 4.24962 17.8843C4.14747 17.8442 4.02432 17.919 3.97611 18.0503C3.83274 18.4408 3.39884 18.3354 3.41952 17.9152C3.43337 17.6338 3.45596 17.6132 3.5107 17.8321C3.60982 18.2279 3.8224 18.1983 3.92869 17.7737C3.97674 17.5818 4.09019 17.4726 4.18073 17.531C4.27126 17.5895 4.43451 17.4883 4.54335 17.306C4.81718 16.8482 4.87128 16.9733 4.63261 17.5119ZM14.6613 17.6244C14.779 17.8214 14.7946 17.9567 14.6994 17.9567C14.6113 17.9567 14.5391 17.8819 14.5391 17.7905C14.5391 17.6991 14.4745 17.6244 14.3955 17.6244C14.1834 17.6244 13.9153 18.5403 14.0573 18.7801C14.2097 19.0375 14.7268 18.9476 14.8228 18.6468C14.8797 18.4682 14.8259 18.461 14.5575 18.6111C14.3354 18.7352 14.2208 18.7407 14.2208 18.6272C14.2208 18.5327 14.2967 18.4552 14.3893 18.4552C14.4819 18.4552 14.5136 18.3804 14.4595 18.289C14.3107 18.0376 14.6331 18.09 14.8406 18.351C15.2853 18.9109 14.4425 19.485 13.9723 18.9424C13.6951 18.6225 13.7537 17.9289 14.094 17.5007C14.3217 17.2141 14.4299 17.2377 14.6613 17.6244ZM6.02152 17.9152C5.95612 18.1666 5.91412 18.5832 5.92812 18.8411C5.94212 19.099 5.88834 19.268 5.80846 19.2163C5.65556 19.1177 5.43343 20.2015 5.31728 21.6125C5.28418 22.0151 5.27877 22.0128 5.14273 21.5369C5.01608 21.094 5.21385 19.9391 5.58523 18.9537C5.63694 18.8166 5.66399 18.6362 5.64537 18.5529C5.60464 18.3708 5.95294 17.4582 6.06305 17.4582C6.10569 17.4582 6.08691 17.6637 6.02152 17.9152ZM15.238 18.2196C15.3666 18.5694 15.3416 19.4569 15.1922 19.8555C15.0847 20.142 15.0613 20.1463 14.9696 19.8971C14.9133 19.7439 14.7858 19.6184 14.6861 19.6184C14.576 19.6184 14.55 19.7324 14.6196 19.9092C14.6827 20.0692 14.7628 20.3496 14.7976 20.5324C14.8363 20.7354 14.8212 20.7678 14.7588 20.6154C14.7026 20.4783 14.5504 20.2386 14.4204 20.0827C14.1298 19.7341 14.5039 19.2186 14.9251 19.3874C15.1244 19.4674 15.1755 19.3655 15.1755 18.8884C15.1755 18.5587 15.1039 18.289 15.0164 18.289C14.9289 18.289 14.8573 18.2143 14.8573 18.1229C14.8573 17.86 15.1316 17.9296 15.238 18.2196ZM23.7263 20.0844C23.7023 20.4167 23.5518 20.4297 23.5091 20.1031C23.4981 20.0194 23.4803 19.876 23.4693 19.7846C23.4584 19.6932 23.3702 19.6184 23.2733 19.6184C23.1713 19.6184 23.1417 19.7407 23.2031 19.9092C23.2824 20.1266 23.2633 20.1525 23.1276 20.0119C22.9915 19.871 22.9973 19.7381 23.1502 19.4825C23.3973 19.069 23.7713 19.4597 23.7263 20.0844ZM14.3422 20.9062C14.4309 21.1007 14.3594 21.4307 14.1266 21.9016L13.7783 22.6062L13.6773 22.0435C13.5121 21.1247 14.0345 20.2316 14.3422 20.9062ZM22.8782 21.4704C22.8396 21.5359 22.876 21.6336 22.9594 21.6874C23.0428 21.7411 23.1005 21.9307 23.0876 22.1083C23.066 22.4088 23.044 22.4124 22.7786 22.1615C22.6214 22.0129 22.5285 21.8542 22.5719 21.8087C22.6155 21.7633 22.584 21.6419 22.5022 21.5387C22.4007 21.4111 22.4482 21.3514 22.651 21.3514C22.8147 21.3514 22.9171 21.4049 22.8782 21.4704ZM19.0993 21.7402C19.2008 21.8075 19.316 22.0869 19.3553 22.3607C19.4239 22.8393 19.4315 22.8436 19.5508 22.4707C19.6442 22.1788 19.7082 22.1377 19.8094 22.3046C19.9865 22.5964 19.9857 22.8189 19.8078 22.7042C19.6349 22.5925 19.3731 22.9104 19.2702 23.3573C19.2282 23.54 19.1954 23.4279 19.1974 23.108C19.2035 22.1294 19.0149 21.6872 18.7492 22.058C18.5476 22.3395 18.5389 22.3345 18.6229 21.9863C18.719 21.5885 18.8044 21.5443 19.0993 21.7402ZM22.2341 22.5264C22.1837 22.6635 22.0785 22.7757 22.0004 22.7757C21.9223 22.7757 21.8583 22.8878 21.8583 23.0249C21.8583 23.162 21.792 23.2742 21.7108 23.2742C21.6298 23.2742 21.5307 23.4049 21.4906 23.565C21.4507 23.725 21.4096 23.622 21.3994 23.336C21.3892 23.0502 21.4884 22.7233 21.6196 22.6095C21.7509 22.4957 21.8583 22.4641 21.8583 22.5394C21.8583 22.6145 21.9442 22.5862 22.0493 22.4766C22.3013 22.2133 22.3449 22.225 22.2341 22.5264ZM4.46188 23.8835C4.21716 24.1389 4.3435 25.3196 4.59235 25.1039C4.74717 24.9696 4.78186 24.8108 4.69276 24.6444C4.61781 24.5047 4.59124 24.2513 4.63372 24.0814C4.71328 23.7639 4.6482 23.6888 4.46188 23.8835ZM14.8075 24.2712C15.0597 24.2712 15.0433 25.1431 14.7672 26.4314L14.6783 26.8468L14.9213 26.4314C15.0549 26.2029 15.1668 25.7312 15.1699 25.383C15.1733 25.0047 15.2395 24.7915 15.3346 24.8528C15.6023 25.0256 15.5049 25.9916 15.1755 26.4314C15.0043 26.6599 14.8638 26.959 14.8633 27.0961C14.8622 27.3176 14.8792 27.3176 15.0164 27.0961C15.1012 26.959 15.1717 26.9311 15.1731 27.0343C15.1793 27.5178 14.6983 27.6383 14.6794 27.1579L14.6605 26.6807L14.5556 27.1792C14.48 27.5386 14.4227 27.6039 14.3505 27.4133C14.2955 27.2679 14.3117 27.0454 14.3866 26.9186C14.5483 26.6455 14.4027 25.2737 14.1809 24.9793C13.9669 24.6954 13.7397 24.8801 13.7619 25.3196C13.7763 25.6007 13.797 25.6174 13.8531 25.3929C13.8932 25.2328 13.9923 25.1021 14.0733 25.1021C14.3351 25.1021 14.2302 25.5402 13.8918 25.8601C13.5634 26.1705 13.5627 26.1697 13.6133 25.4316C13.6881 24.3383 14.4563 24.2411 14.5171 25.3172C14.5731 26.3065 14.6982 26.3058 14.6982 25.3162C14.6982 24.7739 14.614 24.405 14.4595 24.2712C14.3282 24.1574 14.2231 23.9801 14.2256 23.877C14.2283 23.7738 14.3034 23.8204 14.3927 23.9804C14.4819 24.1404 14.6686 24.2712 14.8075 24.2712ZM4.35575 26.0702C4.35575 26.1456 4.1847 26.3751 3.97563 26.5803C3.76655 26.7854 3.55127 27.1842 3.49717 27.4667C3.44307 27.749 3.36479 27.9444 3.3231 27.9009C3.28141 27.8575 3.31451 27.5775 3.39661 27.2787C3.52263 26.8196 3.51101 26.7658 3.32119 26.9301C3.19772 27.0371 3.01665 27.073 2.91879 27.0099C2.72435 26.8842 3.4138 26.4449 3.85677 26.4121C4.07635 26.3959 4.07332 26.3809 3.83672 26.3164C3.68254 26.2744 3.59725 26.171 3.64722 26.0865C3.75987 25.896 4.35575 25.8822 4.35575 26.0702ZM14.0121 27.7192C13.9831 28.1608 14.0078 28.1756 14.738 28.1545C15.4664 28.1335 15.8037 28.4326 15.2949 28.6483C15.1378 28.7148 15.1394 28.7645 15.3023 28.8844C15.4672 29.0057 15.4562 29.082 15.2471 29.2631C15.0061 29.4722 15.0086 29.4994 15.2794 29.6108C15.5157 29.7078 15.4883 29.7337 15.1397 29.7432C14.7387 29.754 14.7177 29.7226 14.8613 29.3286C15.0678 28.7613 15.0579 28.2593 14.8403 28.2593C14.7434 28.2593 14.7057 28.3721 14.7563 28.5101C14.8694 28.818 14.606 29.5887 14.3879 29.5887C14.2827 29.5887 14.2815 29.4438 14.3839 29.1624C14.589 28.599 14.6059 28.6334 14.0617 28.5086C13.5605 28.3936 13.4706 28.1272 13.7491 27.5837C13.9748 27.1431 14.0474 27.1804 14.0121 27.7192ZM3.17274 28.1491C3.29828 28.0988 3.40107 28.1403 3.40107 28.2415C3.40107 28.3427 3.17751 28.4255 2.90431 28.4255C2.46563 28.4255 2.43238 28.3941 2.61997 28.1579C2.74217 28.0041 2.85626 27.9648 2.8884 28.0655C2.91911 28.1619 3.04704 28.1995 3.17274 28.1491ZM13.3664 28.7434C13.3117 29.1008 13.2187 29.5308 13.16 29.6988C13.0587 29.9881 13.0711 29.9876 13.3982 29.6875C13.5882 29.5134 13.7435 29.4551 13.7435 29.5578C13.7435 29.6636 13.8581 29.6985 14.0083 29.6384C14.1863 29.5669 14.2353 29.5958 14.158 29.7266C14.0947 29.8336 13.9075 29.921 13.7421 29.921C13.5764 29.921 13.3681 30.0518 13.2789 30.2118C13.1282 30.482 13.1164 30.48 13.1118 30.1841C13.1034 29.6202 12.861 30.1234 12.7985 30.835C12.7906 30.9263 12.7212 30.8976 12.6443 30.771C12.454 30.4571 12.1154 31.1037 12.2475 31.5292C12.3132 31.7408 12.2975 31.7683 12.1955 31.6203C12.082 31.4559 11.9843 31.4839 11.7579 31.7449C11.5977 31.9299 11.3881 32.0787 11.2923 32.0758C11.1965 32.0726 11.2613 31.9393 11.4363 31.7795C12.3496 30.9453 13.2569 29.2597 13.2638 28.3839C13.265 28.2239 13.3112 28.0931 13.3661 28.0931C13.421 28.0931 13.4211 28.3858 13.3664 28.7434ZM14.6982 29.921C14.6982 30.0124 14.8414 30.0872 15.0164 30.0872C15.1914 30.0872 15.3346 30.1601 15.3346 30.2492C15.3346 30.3532 15.1927 30.3549 14.9383 30.2539C14.7201 30.1673 14.4159 30.1458 14.262 30.206C14.0168 30.302 14.0092 30.2809 14.2005 30.0352C14.4431 29.7238 14.6982 29.6653 14.6982 29.921ZM2.86835 30.4014C2.55553 30.6168 2.4817 30.7409 2.62968 30.8025C2.74774 30.8516 2.55776 30.8946 2.20771 30.8981L1.57125 30.9044L2.28727 30.5184C3.16796 30.0435 3.47903 29.981 2.86835 30.4014ZM13.6316 30.828C13.28 31.3305 12.5236 31.663 12.5236 31.3152C12.5236 31.1881 12.6439 31.0842 12.7907 31.0842C12.9376 31.0842 13.1874 30.9347 13.3457 30.7519C13.7543 30.2803 13.9739 30.3388 13.6316 30.828ZM15.3119 30.64C15.4489 30.8125 15.4096 30.8577 15.1324 30.8477C14.885 30.8388 14.7629 30.9438 14.7287 31.1947C14.7017 31.3926 14.5763 31.596 14.4503 31.6465C14.192 31.7501 14.1341 31.4922 14.3799 31.3335C14.4675 31.277 14.5391 31.0483 14.5391 30.8251C14.5391 30.3707 15.0083 30.2582 15.3119 30.64ZM5.31044 31.4166C5.31044 31.5079 5.20303 31.5827 5.07177 31.5827C4.9405 31.5827 4.83309 31.65 4.83309 31.7323C4.83309 31.8147 5.04344 31.8667 5.30041 31.8481C5.55754 31.8297 5.73145 31.8759 5.68706 31.951C5.64251 32.0261 5.33096 32.0674 4.99475 32.0429C4.47795 32.0051 4.41192 31.9596 4.56849 31.7489C4.92427 31.2697 5.31044 31.0967 5.31044 31.4166ZM10.3895 32.7044C10.3827 32.9556 10.3421 33.0716 10.2993 32.9619C10.2462 32.825 10.1055 32.8087 9.85092 32.9098C9.49339 33.0518 9.28829 32.9885 9.28829 32.736C9.28829 32.6696 9.39935 32.5708 9.53524 32.5163C9.67685 32.4596 9.74065 32.4875 9.68496 32.5816C9.53015 32.8431 9.86524 32.7717 10.0839 32.4967C10.3593 32.1502 10.404 32.1804 10.3895 32.7044ZM21.1386 34.0766C21.4349 34.1954 21.4257 34.2152 21.023 34.3247C20.7824 34.3902 20.5854 34.5024 20.5854 34.574C20.5854 34.8046 20.1221 34.8985 20.0081 34.6911C19.9475 34.5809 19.9566 34.5462 20.0282 34.6138C20.4215 34.9861 20.5572 34.3541 20.2094 33.77C19.5747 32.7042 19.5739 32.6489 20.2019 33.3053C20.5401 33.6587 20.9615 34.0058 21.1386 34.0766ZM15.9397 33.2976C15.9132 33.3727 16.0347 33.5209 16.2098 33.6275C16.4936 33.7999 16.4508 33.8318 15.812 33.9226C15.4182 33.9786 14.9752 34.0793 14.8277 34.1466C14.6802 34.2137 14.7876 34.0038 15.0664 33.6801C15.5108 33.1638 16.0742 32.9172 15.9397 33.2976Z" fill="black"/>
</svg>
