<svg width="24" height="24" viewBox="0 0 24 24" fill="none" xmlns="http://www.w3.org/2000/svg">
<path fill-rule="evenodd" clip-rule="evenodd" d="M9.67302 0.11861C10.3058 0.297377 10.1692 0.440537 9.22246 0.590817C8.90311 0.641541 8.4936 0.717117 8.31242 0.758975C7.85911 0.863619 7.94593 0.486319 8.40404 0.3606C8.60644 0.30508 8.52837 0.29229 8.20773 0.328335C7.02164 0.462192 6.57855 1.02451 6.60526 2.36178C6.62893 3.54353 6.15156 4.39159 5.87257 3.66315C5.81316 3.50807 5.47121 3.44208 4.46827 3.39223C3.73911 3.35604 3.38558 3.35009 3.68265 3.37901C5.18122 3.52478 5.24093 3.7893 3.8054 3.92287C3.22473 3.97693 2.60045 4.06079 2.41809 4.10919C1.91313 4.24334 2.07349 3.84438 2.60958 3.63248L3.04433 3.46069L2.67361 3.44644C1.8656 3.41534 0.6689 4.34144 0.770933 4.91888C0.795974 5.06073 0.782128 5.14532 0.740293 5.10695C0.670864 5.04358 0.598096 6.91032 0.625887 8.03859C0.632172 8.29395 0.593382 8.54306 0.539665 8.59218C0.341197 8.77371 0.44539 9.21264 0.728116 9.38588C1.25763 9.71057 1.35504 10.629 0.904587 11.0496C0.666641 11.2717 0.538487 11.0098 0.476815 10.1752C0.410528 9.27731 0.389906 9.25261 0.245646 9.89951C0.0248858 10.8893 0.380871 11.9136 0.80933 11.5218C1.03588 11.3145 1.13232 11.6706 0.988059 12.1815C0.840657 12.7038 0.34375 13.0688 0.34375 12.6547C0.34375 12.5421 0.420054 12.4999 0.540156 12.5464C0.790966 12.6435 0.793519 12.338 0.545655 11.8982C0.311049 11.482 0.111795 11.4671 0.198705 11.8723C0.239655 12.0632 0.202044 12.2735 0.0958864 12.447C-0.229459 12.9793 0.311049 14.4181 1.14518 15.2397C1.57325 15.6613 1.70032 15.8863 1.83761 16.4652C2.07261 17.4567 2.36015 17.8015 3.92815 18.9716C5.08272 19.8333 5.38185 19.998 5.79519 19.9993C6.29867 20.0009 6.9037 20.493 8.06878 21.8483C9.98471 24.0771 14.083 24.6292 18.4516 23.2472C19.6392 22.8715 20.2785 21.8231 19.8411 20.9687C19.7536 20.7979 19.6365 20.733 19.517 20.7891C19.3972 20.8455 19.2655 20.7716 19.1509 20.5843C19.0524 20.4232 18.9158 20.2916 18.8473 20.2916C18.7788 20.2916 18.5164 20.0584 18.2642 19.7736C17.8764 19.3354 17.7881 19.2879 17.692 19.4653C17.5303 19.7638 17.0533 19.4418 16.5467 18.6921C16.1587 18.1179 16.1544 18.1157 16.1544 18.4905C16.1544 18.8312 16.1271 18.8595 15.8853 18.7697C15.7373 18.7148 15.5938 18.6212 15.5662 18.5617C15.5387 18.5023 15.4337 18.4085 15.3331 18.3535C15.2029 18.2822 15.1663 18.1616 15.2063 17.9356C15.2371 17.7609 15.2137 17.5311 15.1543 17.4252C14.9919 17.1357 15.1517 17.005 15.394 17.2291C16.4025 18.1612 17.4706 18.4353 19.9119 18.3889C22.4839 18.3399 23.3922 18.1222 23.817 17.4531C24.1564 16.9184 24.0226 16.6851 23.4252 16.77C23.0168 16.8281 22.8805 16.7871 22.705 16.5536C22.5859 16.395 22.4112 16.225 22.3166 16.1756C22.2221 16.1263 22.1448 16.0184 22.1448 15.9359C22.1448 15.7439 22.1573 15.7459 22.4979 15.9923C22.92 16.2975 23.4214 16.3434 23.4214 16.0767C23.4214 15.9968 23.3317 15.9314 23.2219 15.9314C22.7946 15.9314 22.3263 15.5209 22.3592 15.1753C22.3809 14.9471 22.3332 14.8317 22.2012 14.7931C22.0972 14.7626 21.8124 14.5534 21.5681 14.3284C21.1637 13.9559 21.1134 13.9408 21.0054 14.1596C20.8953 14.3824 20.8612 14.3815 20.5302 14.1481C20.182 13.9023 20.1761 13.9029 20.2754 14.1776C20.3314 14.3324 20.3771 14.4986 20.3771 14.5472C20.3771 14.6136 19.6452 14.0555 19.4124 13.8116C19.3949 13.7933 19.4533 13.5701 19.5423 13.3157C19.7394 12.7517 19.6758 12.4432 19.3623 12.4432C19.2329 12.4432 19.0084 12.3052 18.8634 12.1364C18.6161 11.8485 18.5888 11.8446 18.4183 12.0729C18.2475 12.3017 18.2063 12.2927 17.7268 11.9216C17.1331 11.4622 17.064 11.2885 17.2803 10.7999C17.4264 10.47 17.4264 10.4224 17.2808 10.2069C17.0817 9.91216 16.9282 9.90314 17.0027 10.1905C17.1016 10.5719 16.9502 10.9648 16.8103 10.6902C16.7466 10.5653 16.6172 10.4203 16.5227 10.3676C16.2458 10.214 16.303 9.68179 16.5963 9.68179C16.9036 9.68179 16.9186 9.34504 16.6209 9.13241C16.445 9.00698 16.435 8.97283 16.5718 8.96498C16.7626 8.95408 16.7841 8.83882 16.6528 8.53187C16.5786 8.35833 16.5398 8.364 16.4018 8.5682C16.312 8.70104 16.1865 8.80874 16.1229 8.80758C16.0484 8.80612 16.0555 8.75991 16.1424 8.67837C16.3009 8.52998 16.2064 8.2284 16.0013 8.2284C15.9234 8.2284 15.8598 8.163 15.8598 8.08306C15.8598 8.00312 15.9703 7.93772 16.1053 7.93772C16.5322 7.93772 16.3482 7.47031 15.848 7.28457C15.637 7.20623 15.5797 7.24881 15.5229 7.52728C15.4711 7.78046 15.4394 7.8104 15.3966 7.64704C15.3651 7.52714 15.2936 7.385 15.2376 7.33107C15.1691 7.26524 15.1744 7.16437 15.2538 7.02296C15.3476 6.85582 15.3341 6.7439 15.1884 6.4775C14.9885 6.11226 15.1618 5.32466 15.4424 5.32248C15.6118 5.32132 15.5981 5.21653 15.35 4.62268C15.2317 4.33926 15.1875 4.15556 15.2518 4.21442C15.4314 4.37865 15.3924 4.19509 15.1233 3.60879C14.9465 3.22378 14.8756 2.86974 14.87 2.34477C14.8658 1.94364 14.84 1.69729 14.8128 1.79713C14.7437 2.05017 14.5832 2.02474 14.5832 1.7608C14.5832 1.64089 14.6328 1.54279 14.6933 1.54279C14.8631 1.54279 14.5948 1.1232 14.2623 0.868706C14.1049 0.74822 13.9064 0.689358 13.8211 0.737901C13.7358 0.786299 13.6352 0.752435 13.5977 0.662615C13.5602 0.57265 13.402 0.473093 13.2461 0.441263C13.0903 0.409289 12.6756 0.312493 12.3245 0.226161C11.4285 0.00582679 8.91165 -0.096347 9.67302 0.11861ZM14.8695 4.34057C14.9155 4.52036 14.9372 4.69331 14.9178 4.7247C14.8531 4.8292 14.5832 4.41702 14.5832 4.21384C14.5832 3.89554 14.7777 3.98158 14.8695 4.34057ZM2.45511 6.26065C2.67116 6.36384 3.06652 6.53389 3.33363 6.63853C4.05965 6.92282 3.68864 6.98226 2.92157 6.70452C2.2044 6.4448 1.12937 5.7774 1.12937 5.59194C1.12937 5.52887 1.33923 5.61127 1.59584 5.77507C1.85244 5.93887 2.23906 6.15731 2.45511 6.26065ZM8.8874 5.9191C8.8874 5.98828 8.81266 6.17417 8.72133 6.33201C8.52434 6.67254 8.29631 6.48912 8.30132 5.99424C8.30417 5.70618 8.3134 5.7024 8.43488 5.93931C8.62559 6.31123 8.72183 6.25004 8.64641 5.80487C8.58856 5.46434 8.59946 5.43948 8.7339 5.60473C8.81836 5.70836 8.8874 5.84992 8.8874 5.9191ZM15.5652 5.81824C15.5652 5.93146 15.6205 6.05325 15.6879 6.089C15.7555 6.12461 15.7778 6.206 15.7376 6.26981C15.6975 6.33347 15.5757 6.26661 15.467 6.12098C15.2125 5.78016 15.1017 5.94454 15.2707 6.41195C15.3996 6.76861 15.7616 6.92282 15.7616 6.62109C15.7616 6.5365 15.8058 6.50758 15.8598 6.557C15.9968 6.68228 15.9825 6.54014 15.8081 6.04104C15.6443 5.57218 15.5652 5.49951 15.5652 5.81824ZM9.6031 7.94528C9.80765 8.50614 9.94916 9.02704 9.91764 9.10247C9.84419 9.27848 9.47661 8.94899 9.47661 8.70715C9.47661 8.60933 9.33972 8.29845 9.17238 8.01635C8.92579 7.60082 8.89672 7.48731 9.01889 7.41784C9.10177 7.3709 9.14557 7.23966 9.11621 7.12629C8.95938 6.52139 9.28129 7.06307 9.6031 7.94528ZM15.7671 8.55541C15.8685 8.7352 15.9514 9.01323 15.9514 9.17311C15.9514 9.43908 15.9351 9.43297 15.7584 9.10044C15.6522 8.90059 15.5237 8.66224 15.4729 8.57096C15.3907 8.42301 15.4296 8.2284 15.5412 8.2284C15.5641 8.2284 15.6657 8.37563 15.7671 8.55541ZM10.164 9.82713C10.3668 10.1273 10.4361 10.8445 10.2622 10.8445C10.2082 10.8445 10.164 10.6849 10.164 10.4897C10.164 10.0669 9.98069 9.85344 9.86 10.1355C9.79901 10.278 9.77377 10.2204 9.77269 9.93614C9.77093 9.46277 9.89456 9.42832 10.164 9.82713ZM1.75905 10.2057C1.95899 10.3193 1.86157 10.5538 1.61459 10.5538C1.50971 10.5538 1.42398 10.4557 1.42398 10.3358C1.42398 10.1014 1.51394 10.0665 1.75905 10.2057ZM10.74 11.804C11.0037 12.6607 10.7755 12.9484 10.4041 12.2276C10.1931 11.8181 10.1638 11.6741 10.2576 11.5068C10.4104 11.2343 10.6006 11.3516 10.74 11.804ZM1.75954 11.866L2.0459 12.2979L1.80864 12.2933C1.49017 12.2871 1.1882 11.9327 1.26126 11.6509C1.34336 11.3342 1.43243 11.3725 1.75954 11.866ZM11.588 12.7339C11.7088 13.0795 11.7133 13.1699 11.6102 13.1699C11.4257 13.1699 11.2443 12.8672 11.2443 12.5595C11.2443 12.1595 11.4181 12.2476 11.588 12.7339ZM19.1932 12.9541C19.2958 13.1061 19.3072 13.2128 19.2324 13.3236C19.1575 13.4343 19.0761 13.4038 18.9505 13.2179C18.8534 13.0742 18.7259 12.9492 18.6671 12.94C18.6084 12.931 18.5025 12.9136 18.4318 12.9013C18.3611 12.8893 18.3333 12.8073 18.3701 12.7192C18.4559 12.5139 19.0008 12.6694 19.1932 12.9541ZM3.05768 13.4167C2.99012 13.5166 2.40601 13.0359 2.40601 12.8804C2.40601 12.8053 2.56254 12.8804 2.75394 13.0476C2.94524 13.2146 3.08194 13.3807 3.05768 13.4167ZM17.6381 13.2337C17.7964 13.4305 17.8789 13.6282 17.8242 13.6783C17.77 13.7279 17.7256 13.6978 17.7256 13.6115C17.7256 13.525 17.6152 13.38 17.4801 13.2888C17.3451 13.1978 17.2346 13.0683 17.2346 13.0012C17.2346 12.8003 17.3381 12.8601 17.6381 13.2337ZM2.19428 13.3791C2.21284 13.5208 2.18378 13.7023 2.12967 13.7824C2.01114 13.9578 1.77437 13.3891 1.87031 13.1593C1.96017 12.9442 2.15461 13.0762 2.19428 13.3791ZM11.3386 13.3427C11.5423 13.6663 11.6112 14.1873 11.4504 14.1873C11.3728 14.1873 10.9497 13.2592 10.9497 13.089C10.9497 12.9205 11.1587 13.0569 11.3386 13.3427ZM0.980301 13.6882C1.12721 13.9732 1.22041 14.2463 1.18741 14.2953C1.10571 14.4161 0.540156 13.5994 0.540156 13.3608C0.540156 13.03 0.703958 13.1519 0.980301 13.6882ZM12.5988 14.0798C12.8762 14.5068 12.9016 14.6025 12.7775 14.755C12.6597 14.8998 12.6126 14.8771 12.5243 14.6328C12.4646 14.4677 12.3582 14.3327 12.2877 14.3327C12.1655 14.3327 11.9317 13.752 11.9317 13.4487C11.9317 13.2297 12.2293 13.5112 12.5988 14.0798ZM3.33471 14.5123C3.49154 15.0644 3.38431 15.4954 3.08999 15.4954C2.85067 15.4954 2.83732 15.2698 3.06888 15.1378C3.21599 15.0538 3.19124 14.979 2.89702 14.6174C2.70798 14.3851 2.60595 14.1934 2.67027 14.1912C2.7346 14.1891 2.81453 14.2527 2.84792 14.3327C2.93964 14.5523 3.09343 14.5068 3.09343 14.26C3.09343 13.9061 3.19173 14.0088 3.33471 14.5123ZM2.24692 15.0025C2.5376 15.5199 2.54968 15.7131 2.28159 15.5609C2.19772 15.5132 2.10217 15.3156 2.06927 15.1216C2.03637 14.9274 1.94397 14.7687 1.86403 14.7687C1.78399 14.7687 1.71859 14.7033 1.71859 14.6233C1.71859 14.3305 1.97136 14.5119 2.24692 15.0025ZM12.2667 14.9252C12.5344 15.396 12.5873 15.6407 12.4213 15.6407C12.3122 15.6407 11.7427 14.7624 11.7381 14.587C11.7312 14.3225 12.0342 14.5164 12.2667 14.9252ZM21.7019 14.9126C21.9702 15.3269 21.9922 15.7004 21.7298 15.3875C21.6609 15.3054 21.461 15.1928 21.2855 15.1372C20.942 15.0285 20.8994 14.9259 21.0842 14.6524C21.2651 14.3847 21.3958 14.4396 21.7019 14.9126ZM14.0921 15.8984C14.9688 16.6806 15.2103 17.0663 14.7734 16.9868C14.5608 16.9482 14.5206 17.2341 14.701 17.5011C14.9108 17.8115 14.6286 18.0721 14.4059 17.7737C14.3058 17.6397 14.1777 17.5301 14.121 17.5301C13.8153 17.5301 13.7551 17.0586 14.0208 16.7451C14.2856 16.4327 14.2861 16.4289 14.0905 16.1809C13.8517 15.8785 13.7975 15.8698 13.7975 16.1338C13.7975 16.7181 12.9591 16.3219 12.8514 15.6868C12.7076 14.839 12.9515 14.8806 14.0921 15.8984ZM4.07546 15.791C3.94671 15.9186 3.94976 15.9615 4.10001 16.1318C4.2424 16.2934 4.35268 16.9488 4.23739 16.9488C3.5212 16.9488 3.41337 15.7111 4.12456 15.6532C4.17857 15.6487 4.15647 15.7108 4.07546 15.791ZM13.0365 16.7754C13.131 16.8956 13.2083 17.0919 13.2083 17.2118C13.2083 17.4721 12.8635 17.0624 12.6985 16.6059C12.589 16.3032 12.7145 16.3661 13.0365 16.7754ZM12.4665 17.4338C12.7383 17.7279 12.6237 18.0273 12.3486 17.7422C12.1309 17.5166 12.0532 17.2394 12.2075 17.2394C12.2512 17.2394 12.3678 17.3269 12.4665 17.4338ZM6.01192 18.0555C5.91637 18.1969 5.6467 17.8256 5.6467 17.5526C5.6467 17.3659 5.68903 17.3827 5.86216 17.6391C5.98069 17.8145 6.04806 18.0019 6.01192 18.0555ZM6.58061 17.8231C6.61459 17.9044 6.68343 17.9333 6.73371 17.8872C6.78399 17.8413 6.82514 17.8986 6.82514 18.0147C6.82514 18.1308 6.75561 18.2652 6.67076 18.3134C6.50647 18.4067 6.13772 18.1796 6.13772 17.9852C6.13772 17.6808 6.47033 17.5592 6.58061 17.8231ZM15.3244 19.0774C15.5865 19.496 15.617 19.6457 15.4683 19.7817C15.3549 19.8853 15.0523 19.4881 14.8876 19.0198C14.7195 18.5415 15.013 18.5802 15.3244 19.0774ZM13.2442 19.1395C13.3865 19.305 13.5029 19.531 13.5029 19.6413C13.5029 19.9874 12.7237 19.2976 12.7188 18.9472C12.7159 18.7402 12.9863 18.8392 13.2442 19.1395ZM16.7128 19.2995C17.0832 19.8146 16.9921 20.0744 16.5973 19.6288C16.4087 19.4159 16.2788 19.1838 16.3085 19.1127C16.3895 18.9185 16.4633 18.9526 16.7128 19.2995ZM9.16177 20.5016C9.11729 20.9619 8.55567 20.9257 8.51108 20.4597C8.48319 20.1685 8.50951 20.1337 8.69266 20.2196C8.88209 20.3087 8.89849 20.281 8.83496 19.9789C8.76317 19.6378 8.76327 19.6377 8.97686 19.9202C9.09578 20.0773 9.17788 20.3355 9.16177 20.5016ZM18.6069 20.4732C19.2483 20.9542 19.4676 21.3089 19.1234 21.3089C18.7408 21.3089 18.3003 21.6245 18.3602 21.8556C18.4072 22.0367 18.3911 22.0442 18.2715 21.8973C18.1058 21.6938 16.8416 21.6053 16.8417 21.7971C16.8418 21.8659 16.6878 21.8955 16.4997 21.863C16.3114 21.8304 16.1436 21.8654 16.1267 21.9406C16.1086 22.0208 16.0092 22.0086 15.8861 21.9111C15.7707 21.8198 15.5592 21.745 15.4161 21.745C14.9275 21.745 15.2143 21.3828 15.7212 21.3597C17.0193 21.3008 17.2346 21.2719 17.2346 21.1569C17.2346 21.0886 17.1573 20.9661 17.0628 20.8845C16.7653 20.6282 17.0627 20.7148 17.5898 21.0382C18.3773 21.5213 19.0029 21.1629 18.2703 20.6484C18.0837 20.5173 17.8794 20.318 17.8164 20.2055C17.6211 19.8571 17.9206 19.9586 18.6069 20.4732ZM10.5953 21.1463C10.8669 21.5905 10.4404 22.099 10.0799 21.7609C9.90959 21.6012 10.1072 21.3909 10.316 21.5095C10.4008 21.5576 10.4586 21.504 10.4586 21.3771C10.4586 21.2597 10.4144 21.1636 10.3604 21.1636C10.3064 21.1636 10.2622 21.0982 10.2622 21.0183C10.2622 20.7898 10.4127 20.8476 10.5953 21.1463ZM9.79341 21.8484C10.1022 22.26 9.86687 22.3279 9.4719 21.941C9.25841 21.732 9.0838 21.5299 9.0838 21.4919C9.0838 21.3543 9.62804 21.6278 9.79341 21.8484ZM13.163 21.8965C13.3221 22.1568 13.3241 22.1818 13.1783 22.099C13.0867 22.0471 13.0119 21.9477 13.0119 21.8784C13.0119 21.8091 12.8793 21.7915 12.7173 21.8394C12.5296 21.8949 12.4227 21.8673 12.4227 21.7631C12.4227 21.4835 12.9709 21.5823 13.163 21.8965ZM11.2934 22.181C11.3911 22.3408 11.4227 22.4717 11.3635 22.4717C11.3043 22.4717 11.2263 22.401 11.1903 22.3145C11.1528 22.225 11.0161 22.1977 10.8727 22.251C10.6525 22.3329 10.6368 22.316 10.7481 22.1175C10.919 21.8127 11.0796 21.8314 11.2934 22.181Z" fill="black"/>
</svg>
