<svg width="24" height="24" viewBox="0 0 24 24" fill="none" xmlns="http://www.w3.org/2000/svg">
<path fill-rule="evenodd" clip-rule="evenodd" d="M11.1085 0.0876488C11.1252 0.149961 11.1391 0.269174 11.1394 0.352628C11.1402 0.570722 11.3326 1.76523 11.4245 2.12287C11.4674 2.28978 11.5203 2.78029 11.542 3.21293C11.5637 3.64558 11.6057 4.04484 11.6354 4.10018C11.665 4.15551 11.7151 4.39333 11.7467 4.62862C11.7783 4.86391 11.837 5.16864 11.8771 5.30586C11.9172 5.44303 11.95 5.63917 11.95 5.74179C11.95 5.84437 11.9831 6.11901 12.0236 6.35217C12.064 6.58534 12.1214 7.17437 12.1511 7.66119C12.1808 8.14801 12.2375 8.76253 12.277 9.0268C12.4384 10.1044 12.4167 10.5602 12.2126 10.3757C12.1187 10.2908 11.9593 10.3068 11.7729 10.4199C11.7172 10.4536 11.5983 10.4947 11.5086 10.5111C11.214 10.5651 10.5194 11.0719 10.2153 11.4546C9.73286 12.0616 9.62181 12.3949 9.62181 13.2357C9.62176 14.0178 9.6167 14.024 9.04926 13.9301C8.84913 13.8969 8.63214 13.8726 8.567 13.8759C8.3653 13.8862 7.5792 13.6772 7.4347 13.5749C7.35928 13.5214 7.25274 13.4777 7.19792 13.4777C7.14311 13.4777 7.06577 13.4452 7.02609 13.4056C6.9864 13.3659 6.87657 13.3003 6.78207 13.2598C6.68752 13.2192 6.51229 13.101 6.39264 12.9971C6.18163 12.8138 6.17783 12.8052 6.26519 12.7088C6.36035 12.6037 6.37918 12.4143 6.47565 10.5947C6.52115 9.73601 6.58123 9.48201 6.73875 9.48201C6.84812 9.48201 7.16199 9.10217 7.21938 8.90036L7.26256 8.74862L7.28103 8.88402C7.3075 9.07804 7.41319 9.15285 7.51588 9.05022C7.61706 8.94917 7.62045 8.80563 7.52363 8.72531C7.48314 8.69172 7.4142 8.541 7.37037 8.39033C7.32653 8.23965 7.26149 8.1164 7.22581 8.1164C7.01044 8.1164 6.96449 7.98595 7.0935 7.74105C7.31899 7.31311 7.48359 7.28332 7.54423 7.65947C7.57809 7.86942 7.76997 7.92769 7.97825 7.79133C8.04511 7.74758 8.13121 7.71177 8.16962 7.71177C8.20804 7.71177 8.28072 7.66625 8.33108 7.61061C8.44795 7.48154 8.63391 7.48154 8.79811 7.61061C8.98816 7.76002 9.08018 7.7366 9.2955 7.48417C9.41014 7.34983 9.53273 7.25656 9.59473 7.25656C9.66706 7.25656 9.73853 7.32742 9.82422 7.48417C9.97222 7.75486 10.3078 7.83113 10.4565 7.62786C10.5099 7.55498 10.5338 7.56671 10.664 7.72978C10.7826 7.87822 10.8457 7.91423 10.9884 7.91484C11.1627 7.9156 11.51 8.01392 11.5779 8.08175C11.7504 8.25407 11.806 7.87114 11.6728 7.42899C11.6316 7.29242 11.5841 7.04414 11.5671 6.87723C11.4801 6.02028 11.1149 4.49696 10.8941 4.07013C10.7281 3.74921 10.4485 3.6472 10.3319 3.86499C10.3013 3.92219 10.2428 3.96898 10.2021 3.96898C10.1613 3.96898 10.1279 4.00049 10.1279 4.03893C10.1279 4.10928 9.98112 4.16932 9.806 4.17058C9.66929 4.17159 9.14573 4.66625 9.11531 4.82309C9.0981 4.91181 9.05209 4.96061 8.97526 4.97154C8.90192 4.98196 8.82498 5.05818 8.76075 5.18392C8.70568 5.29175 8.59838 5.42098 8.52221 5.4711C8.27242 5.63548 7.75053 6.19599 7.71713 6.33574C7.66256 6.56405 7.64358 6.56531 7.42675 6.35536C7.22586 6.16089 6.79083 5.89646 6.54175 5.81746C6.47646 5.79677 6.37974 5.73654 6.32679 5.68363C6.2739 5.63078 6.17363 5.58748 6.10404 5.58748C5.93468 5.58748 5.94399 5.55127 6.16204 5.36291C6.33282 5.21538 6.348 5.17926 6.36627 4.87706C6.38323 4.59524 6.4055 4.53333 6.5289 4.42418C6.60755 4.35464 6.69866 4.2465 6.73136 4.18393C6.7641 4.12137 6.838 4.07013 6.89555 4.07013C6.95315 4.07013 7.08328 3.99113 7.18481 3.89458C7.67066 3.43259 7.83845 3.30488 8.02643 3.25436C8.13834 3.22426 8.39278 3.12235 8.59195 3.02792C8.79112 2.93354 8.98503 2.85625 9.02294 2.85625C9.0608 2.85625 9.1768 2.81073 9.28067 2.7551C9.69282 2.53432 10.0477 2.66143 10.1282 3.05857C10.1449 3.14096 10.1934 3.19063 10.2674 3.2012C10.3389 3.21136 10.381 3.25243 10.381 3.31201C10.381 3.44053 10.475 3.4901 10.5161 3.38323C10.5361 3.33118 10.5175 3.27363 10.4693 3.23842C10.4254 3.20631 10.3733 3.09468 10.3537 2.99034C10.3342 2.88604 10.2864 2.76901 10.2477 2.73026C10.2089 2.69152 10.1626 2.5845 10.1449 2.49249C10.1271 2.40049 10.0818 2.28027 10.0443 2.22539C9.93704 2.0686 9.96417 1.69821 10.1037 1.41477C10.1722 1.27568 10.2284 1.10058 10.2287 1.02562C10.2294 0.800651 10.4263 0.619328 10.6768 0.612753C10.9066 0.606734 10.8971 0.619985 10.9621 0.215308C10.9982 -0.00936033 11.0665 -0.068891 11.1085 0.0876488ZM4.92725 6.50194C4.97594 6.53031 5.01582 6.58929 5.01582 6.63304C5.01582 6.69697 5.00135 6.70056 4.94213 6.65145C4.90158 6.61786 4.84464 6.60502 4.81559 6.62297C4.74832 6.6645 4.7468 6.83611 4.81336 6.87723C4.8412 6.89442 4.86398 6.97262 4.86398 7.05106C4.86398 7.22875 4.99117 7.35211 5.08121 7.26182C5.11487 7.22814 5.14236 7.13401 5.14236 7.05268C5.14236 6.97135 5.16513 6.90429 5.19297 6.90368C5.22081 6.90302 5.24359 7.02203 5.24359 7.16805C5.24359 7.41305 5.23382 7.4349 5.11705 7.45053C4.91925 7.47699 4.89946 7.53217 5.01223 7.74242C5.14904 7.99754 5.14443 8.10471 4.99051 8.24729C4.8702 8.35867 4.83001 8.53549 4.8535 8.84978C4.94754 10.1085 4.98545 10.3221 5.1209 10.3575C5.22845 10.3856 5.44422 10.164 5.54733 9.91961L5.60806 9.77562L5.6485 10.0208C5.67072 10.1557 5.69325 10.7231 5.69861 11.2819C5.70393 11.8408 5.72554 12.3258 5.7466 12.3599C5.76801 12.3946 5.74923 12.4614 5.70408 12.5112C5.65959 12.5604 5.6232 12.6247 5.6232 12.6544C5.6232 12.7168 5.50542 12.7696 5.36597 12.7696C5.29678 12.7696 5.26889 12.7341 5.26889 12.6461C5.26889 12.5782 5.24612 12.5086 5.21828 12.4914C5.12687 12.435 5.16524 12.6281 5.30012 12.9036C5.4548 13.2195 5.45991 13.2221 5.53017 13.0208L5.58367 12.8673L5.74265 13.0523C5.83006 13.1541 5.94146 13.2801 5.99015 13.3322C6.03885 13.3844 6.07873 13.4481 6.07873 13.4738C6.07873 13.5594 6.34177 13.8343 6.50232 13.9165C6.58948 13.9611 6.67219 14.0127 6.68611 14.0311C6.76537 14.1362 7.54757 14.5398 7.67193 14.5398C7.70751 14.5398 7.76445 14.5734 7.79852 14.6144C7.83258 14.6554 7.94353 14.7038 8.04511 14.7219C8.14675 14.7401 8.26402 14.7843 8.30578 14.8202C8.39779 14.8992 8.90672 15.0961 9.01919 15.0961C9.06358 15.0962 9.2344 15.1424 9.3988 15.1988C9.94483 15.3862 11.7737 15.4795 12.3381 15.3488C12.584 15.2918 12.9332 15.2214 13.1142 15.1923C13.7922 15.0834 14.9398 14.5819 15.2962 14.2389C15.341 14.1958 15.5219 14.0353 15.6981 13.8823C16.0606 13.5676 16.3029 13.321 16.3029 13.2667C16.3029 13.2466 16.3627 13.1662 16.4357 13.0883C16.5088 13.0104 16.6217 12.8632 16.6868 12.7612C16.7518 12.6592 16.8286 12.5612 16.8576 12.5433C16.8866 12.5254 16.9103 12.456 16.9103 12.389C16.9103 12.3191 16.9533 12.2443 17.0115 12.2132C17.0672 12.1834 17.1154 12.1087 17.1186 12.0471C17.1236 11.9518 17.1281 11.9493 17.1489 12.0302C17.1623 12.0825 17.1496 12.1736 17.1205 12.2325C17.0386 12.3987 16.9521 13.2078 16.9896 13.4573C17.0336 13.7505 16.966 14.4086 16.9077 14.2542C16.8232 14.0302 16.5195 14.1551 16.4249 14.4528C16.3077 14.822 15.4951 15.6218 15.0577 15.7985C14.8935 15.8648 14.6794 15.958 14.582 16.0056C14.4846 16.0531 14.2796 16.1081 14.1265 16.1278C13.8708 16.1606 13.2594 16.3679 13.1395 16.4626C13.0181 16.5584 12.6238 16.6155 12.0591 16.6191C11.3896 16.6233 11.4235 16.6053 11.3662 16.9869C11.3098 17.3633 11.3307 17.3724 12.2472 17.371C12.6823 17.3704 13.1294 17.3463 13.2407 17.3175C13.3521 17.2888 13.5343 17.243 13.6456 17.2158C13.757 17.1886 13.9098 17.1217 13.9853 17.067C14.0649 17.0092 14.2027 16.9679 14.3142 16.9684C14.6379 16.9697 14.6483 16.995 14.5293 17.4954C14.4712 17.7399 14.438 17.9772 14.4555 18.0228C14.473 18.0683 14.4859 18.3817 14.4843 18.7192C14.4818 19.2048 14.497 19.3458 14.5569 19.3956C14.653 19.4752 14.6535 19.6014 14.5583 19.7271C14.4438 19.8784 14.4579 20.1034 14.582 20.1034C14.6377 20.1034 14.6832 20.0802 14.6832 20.0518C14.6832 20.0234 14.7459 19.9726 14.8224 19.939C14.899 19.9054 14.9764 19.857 14.9945 19.8316C15.0125 19.8061 15.0695 19.8021 15.121 19.8226C15.2088 19.8576 15.2075 19.8648 15.1008 19.9373C15.0381 19.9798 14.9869 20.046 14.9869 20.0843C14.9869 20.1227 14.9506 20.154 14.9062 20.154C14.8619 20.154 14.8137 20.1995 14.7991 20.2552C14.7846 20.3108 14.7447 20.3563 14.7105 20.3563C14.6763 20.3563 14.6099 20.3988 14.5629 20.4506C14.1909 20.8614 13.0611 21.1563 12.1349 21.0846C11.5651 21.0405 11.4945 20.9883 11.4945 20.6114C11.4945 20.4469 11.471 20.2507 11.4423 20.1753C11.4137 20.0999 11.3709 19.743 11.3474 19.3822C11.3043 18.722 11.2686 18.6184 11.095 18.6494C11.037 18.6597 10.983 18.7252 10.9038 18.8814C10.899 18.8908 10.8276 18.8486 10.745 18.7876C10.5623 18.6526 10.3496 18.6822 10.176 18.8669C10.0338 19.0182 9.95698 19.0222 9.82032 18.8857C9.66797 18.7334 9.55505 18.7962 9.58107 19.0187C9.60475 19.2214 9.40999 19.2676 9.37987 19.0666C9.33548 18.7699 9.31832 18.7443 9.15342 18.7284C9.02613 18.7161 8.98533 18.6862 8.97252 18.5958C8.94499 18.4018 8.79082 18.4794 8.76131 18.7021C8.7197 19.0158 8.637 18.9395 8.60263 18.5558C8.58497 18.3582 8.54498 18.1489 8.51375 18.0906C8.48252 18.0323 8.44816 17.691 8.43732 17.3321L8.41769 16.6797L8.62748 16.7496C8.74283 16.788 8.8714 16.8344 8.91315 16.8525C8.95491 16.8707 9.33072 16.8885 9.7483 16.8921C10.3777 16.8975 10.4746 16.8891 10.3147 16.8428C10.2087 16.812 10.1038 16.7576 10.0817 16.7218C10.0317 16.6411 9.67951 16.5561 9.55409 16.5946C9.49674 16.6122 9.42325 16.5825 9.36231 16.5172C9.30795 16.4589 9.22914 16.4112 9.18718 16.4112C9.14517 16.4112 8.94676 16.322 8.74628 16.2129C8.54574 16.1039 8.28988 15.9905 8.17767 15.9611C8.06546 15.9316 7.8263 15.805 7.64622 15.6797C7.46613 15.5543 7.26757 15.4293 7.20491 15.4017C7.14225 15.3741 7.09102 15.3169 7.09102 15.2745C7.09102 15.2321 7.06825 15.1974 7.04041 15.1974C6.95912 15.1974 7.03768 15.4057 7.34997 16.0185C7.37457 16.0668 7.39471 16.1472 7.39471 16.197C7.39471 16.2468 7.4346 16.3242 7.48329 16.369C7.76967 16.632 7.785 16.7114 7.68873 17.4337C7.64055 17.7956 7.64141 17.9067 7.69304 17.9893C7.72852 18.0461 7.79118 18.4028 7.83233 18.7819C7.91513 19.5456 7.97005 19.6765 8.35826 20.0354C8.62222 20.2794 9.06323 20.586 9.2214 20.6354C9.28851 20.6563 9.38832 20.7045 9.44324 20.7425C9.49811 20.7805 9.57479 20.8115 9.61356 20.8115C9.65233 20.8115 9.85793 20.8931 10.0705 20.9929C10.3352 21.117 10.5765 21.1883 10.8365 21.2188C11.0453 21.2433 11.4781 21.3036 11.7982 21.3526C12.8881 21.5197 13.8798 21.4298 14.2317 21.1321C14.2756 21.0949 14.3407 21.0644 14.3762 21.0644C14.4118 21.0644 14.5125 21.0066 14.6 20.9359C14.6875 20.8651 14.8113 20.7684 14.8751 20.7209C15.3296 20.3823 16.0498 19.5775 16.0498 19.4081C16.0498 19.3572 16.0928 19.2314 16.1453 19.1284C16.1978 19.0255 16.2567 18.8564 16.2762 18.7528C16.2957 18.6491 16.3409 18.5066 16.3768 18.4361C16.4127 18.3656 16.4579 18.1486 16.4774 17.9539C16.4968 17.7591 16.5458 17.469 16.5863 17.3091C16.6271 17.1479 16.672 16.6525 16.6871 16.1964C16.7169 15.2936 16.7414 15.088 16.8065 15.1932C16.8647 15.2874 16.8338 17.3512 16.77 17.6251C16.7408 17.7503 16.6889 18.012 16.6546 18.2068C16.6203 18.4015 16.5613 18.6057 16.5235 18.6606C16.4438 18.7763 16.4309 19.1724 16.5054 19.2183C16.6074 19.2813 16.5653 19.4545 16.4614 19.3989C16.3545 19.3417 16.3029 19.3732 16.3029 19.4958C16.3029 19.5418 16.2445 19.6302 16.1731 19.6922C16.0293 19.8172 16.0267 19.9663 16.1679 19.9934C16.227 20.0048 16.2692 19.9737 16.2871 19.9055C16.3161 19.7946 16.4041 19.7587 16.4041 19.8576C16.4041 19.9357 16.1984 20.3602 16.1071 20.4705C16.0218 20.5735 15.9296 20.727 15.8316 20.9288C15.7642 21.0679 15.386 21.4863 14.253 22.6752C13.4683 23.4987 13.3772 23.5755 13.2739 23.5012C13.0116 23.3124 12.9763 23.3146 12.7581 23.5326C12.5826 23.708 12.5592 23.755 12.6048 23.8402C12.6344 23.8955 12.6586 23.9536 12.6586 23.9693C12.6586 23.9851 11.8378 23.998 10.8345 23.998C9.02283 23.998 9.00922 23.9972 8.85388 23.8842C8.5549 23.6666 8.20455 23.2984 8.20455 23.2017C8.20455 23.0475 8.25223 23.0387 8.38246 23.1688C8.56103 23.3472 8.68994 23.3205 8.95243 23.0506C9.15788 22.8394 9.18774 22.7799 9.20738 22.5432C9.22388 22.3447 9.25505 22.2614 9.32738 22.2227C9.41717 22.1747 9.40321 22.1502 9.15651 21.9224C8.81511 21.6071 8.40903 21.2884 8.04886 21.0529C7.89362 20.9514 7.73727 20.8331 7.70149 20.7899C7.61878 20.6904 7.54656 20.7332 7.54656 20.8819C7.54656 21.0759 7.49407 21.0689 7.18967 20.8349C7.02826 20.7107 6.84929 20.6092 6.79189 20.6092C6.73449 20.6092 6.58761 20.5825 6.46548 20.5499C5.96166 20.4152 5.26586 21.0787 5.70241 21.2774C5.89647 21.3658 6.24429 21.2564 6.46249 21.0384L6.63969 20.8613L6.81416 20.9798C7.01212 21.1142 7.29348 21.4781 7.29348 21.5998C7.29348 21.6443 7.24793 21.7386 7.19225 21.8093C7.13658 21.8801 7.09102 21.9899 7.09102 22.0534C7.09102 22.1366 7.03803 22.1947 6.90122 22.2615C6.73859 22.3409 6.70919 22.3813 6.69572 22.5439C6.67674 22.7727 6.65108 22.7758 6.37229 22.5829C6.04704 22.358 5.94511 22.2654 5.87748 22.1338C5.83704 22.055 5.79929 22.0315 5.76608 22.0647C5.60953 22.2212 6.48724 23.4997 7.0151 23.8842L7.16695 23.9948L3.83802 23.9964L0.509038 23.998L0.617859 23.783C0.677736 23.6648 0.811864 23.475 0.915979 23.3614C1.02009 23.2477 1.1479 23.0884 1.19998 23.0073C1.25206 22.9263 1.37136 22.7583 1.4651 22.634C1.7121 22.3065 1.7449 22.1929 1.65009 21.9933C1.53348 21.7478 1.38077 21.1158 1.31735 20.6163C1.28683 20.376 1.2264 20.02 1.18312 19.8253C1.10406 19.4697 1.07324 18.5442 1.11398 17.7516C1.12542 17.529 1.11692 17.2516 1.0951 17.1352C1.03973 16.8397 1.099 16.5669 1.22903 16.5188C1.39424 16.4578 1.92832 15.6093 1.92832 15.408C1.92832 15.3824 1.96487 15.3312 2.00951 15.2942C2.05415 15.2571 2.11195 15.171 2.13792 15.1027C2.23323 14.8522 2.29913 15.0632 2.21728 15.3567C2.11373 15.7282 2.0705 16.1078 2.13174 16.1078C2.21546 16.1078 2.39378 15.901 2.43143 15.7604C2.48782 15.5496 2.61253 15.5684 2.70597 15.8018C2.76235 15.9427 2.81864 16.0066 2.88621 16.0066C3.01598 16.0066 3.04094 16.1047 3.03415 16.5883C3.03051 16.8479 3.00171 17.036 2.95383 17.1132C2.85963 17.2649 2.89982 17.549 3.05263 17.8122C3.33916 18.3056 3.73719 18.7884 3.8574 18.7884C3.87836 18.7884 3.90923 18.8282 3.92609 18.8769C3.96339 18.9849 4.42165 19.3448 4.52187 19.3448C4.64385 19.3448 4.66577 19.2816 4.5776 19.1842C4.45506 19.0489 4.53852 19.0067 4.71846 19.1129C5.02883 19.2961 5.39543 19.3439 5.74224 19.2466C6.12777 19.1383 6.1626 19.0273 5.92972 18.6491C5.84464 18.5109 5.77504 18.3794 5.77504 18.3569C5.77504 18.2738 5.50876 17.6479 5.44058 17.5705C5.34578 17.4631 5.35124 17.2361 5.44989 17.1809C5.60999 17.0914 5.52328 16.7932 5.33181 16.7747C5.14666 16.7569 5.01633 16.5719 5.01511 16.3252C5.0141 16.112 4.96106 15.956 4.88959 15.956C4.85446 15.956 4.79742 15.9219 4.76275 15.8802C4.61121 15.6977 4.46544 15.7858 4.44904 16.0698C4.43466 16.3197 4.42408 16.3385 4.2692 16.3885C4.01851 16.4695 3.97771 16.5303 4.05262 16.711C4.1252 16.8862 4.0834 17.0954 4.0016 16.9662C3.97569 16.9252 3.95413 16.8456 3.95367 16.7892C3.95327 16.7328 3.9104 16.6502 3.85841 16.6058C3.79287 16.5497 3.74524 16.3973 3.70293 16.1081C3.62139 15.5507 3.68739 15.2546 4.07408 14.4425C4.18154 14.2169 4.2071 14.1794 4.43502 13.9129C4.58651 13.7357 4.60225 13.4978 4.46528 13.4544C4.40308 13.4347 4.35975 13.3582 4.33966 13.2328C4.3228 13.1275 4.26151 12.8949 4.20346 12.7158C4.04549 12.2289 3.88296 9.83606 4.00783 9.83606C4.03329 9.83606 4.05414 9.86843 4.05414 9.90803C4.05414 9.94763 4.11042 10.0469 4.17926 10.1286C4.24805 10.2103 4.32771 10.3316 4.35626 10.398C4.38486 10.4645 4.42915 10.553 4.45471 10.5947C4.48032 10.6365 4.55103 10.8299 4.61187 11.0246C4.67275 11.2194 4.75541 11.4307 4.7956 11.4942C4.83573 11.5578 4.89602 11.761 4.92957 11.9459C4.96308 12.1307 5.01329 12.2836 5.04113 12.2856C5.14114 12.2926 5.12824 11.6714 5.02341 11.4346C4.96925 11.3123 4.90907 11.14 4.88969 11.0518C4.8703 10.9635 4.82303 10.8793 4.78466 10.8646C4.7463 10.8499 4.70049 10.7612 4.68293 10.6675C4.66531 10.5738 4.61915 10.4708 4.58028 10.4386C4.54146 10.4064 4.50967 10.2947 4.50967 10.1904C4.50967 10.086 4.46589 9.90105 4.41234 9.77926C4.18655 9.26579 4.23752 7.28818 4.48933 6.7916C4.64198 6.49051 4.76634 6.40827 4.92725 6.50194ZM9.99777 8.39458C9.91654 8.49194 9.81197 8.5716 9.76535 8.5716C9.56613 8.5716 9.52053 8.6286 9.52053 8.8775C9.52053 9.21283 9.45716 9.22315 9.31321 8.91118C9.2463 8.76612 9.17908 8.64145 9.1639 8.63406C9.14866 8.62668 9.01398 8.54014 8.86456 8.44182C8.41809 8.14801 8.32921 8.19348 8.33883 8.71074C8.34718 9.16261 8.46283 9.38773 8.7602 9.53107C8.95319 9.62408 8.76252 9.71806 8.5551 9.63218C8.38954 9.56364 8.28411 9.61463 8.22834 9.79018C8.2087 9.85214 8.11815 9.90692 7.97643 9.94258C7.61084 10.0346 7.53213 10.1678 7.74051 10.3418C7.83329 10.4192 7.97506 10.4957 8.05554 10.5118C8.16345 10.5334 8.22216 10.5896 8.27905 10.7256C8.34267 10.8777 8.37613 10.9053 8.47017 10.8829C8.69875 10.8287 8.94464 10.7185 9.0859 10.6074C9.29165 10.4454 9.58127 10.5154 9.50686 10.7091C9.49026 10.7523 9.51643 10.8234 9.56512 10.8674C9.6786 10.9701 9.7736 10.887 9.7736 10.6851C9.7736 10.5618 9.80964 10.527 10.0455 10.4227C10.4009 10.2657 10.4165 10.2284 10.2261 9.99159L10.0658 9.79221L10.3288 9.52935C10.5414 9.31692 10.5845 9.24596 10.5537 9.15932C10.5327 9.10035 10.5206 8.89646 10.5267 8.70624C10.5437 8.17775 10.299 8.03355 9.99777 8.39458ZM12.4339 10.7676C12.5636 10.8622 12.636 12.6412 12.5254 13.0205C12.4709 13.2076 12.4713 13.2593 12.5279 13.3239C12.6718 13.4884 12.6744 13.6236 12.5343 13.6587C12.4628 13.6766 12.3855 13.7248 12.3626 13.7657C12.3287 13.8262 12.1162 13.8455 11.2293 13.8688L10.1377 13.8974L10.0316 13.6896C9.71221 13.064 10.1313 12.1632 11.1178 11.3551C11.684 10.8913 11.7436 10.8565 11.9818 10.8512C12.0689 10.8492 12.1684 10.8135 12.2031 10.7718C12.2811 10.6778 12.3102 10.6773 12.4339 10.7676ZM6.8872 11.6695C6.76719 11.9337 6.7601 12.2005 6.86994 12.3218C6.95548 12.4162 6.81907 12.5167 6.60532 12.5167C6.56448 12.5167 6.51796 12.5509 6.50192 12.5927C6.45874 12.7051 6.52591 12.9213 6.60401 12.9213C6.64131 12.9213 6.80601 12.9893 6.97 13.0724C7.36465 13.2724 7.42513 13.2381 7.13875 12.9767C6.98888 12.8399 6.96074 12.5673 7.09649 12.5673C7.12134 12.5673 7.14164 12.5142 7.14164 12.4493C7.14164 12.262 7.19949 12.2513 7.36606 12.4079C7.76992 12.7875 8.27596 12.7344 8.38352 12.3014C8.48414 11.8962 7.77918 11.5472 7.33144 11.7806L7.19225 11.8532V11.6539C7.19225 11.3641 7.02198 11.3728 6.8872 11.6695ZM11.7349 12.6084C11.5252 12.8092 11.5112 12.8562 11.6179 13.0002C11.6861 13.0922 11.6948 13.0929 11.7571 13.0116C11.7936 12.9639 11.9146 12.8956 12.026 12.8599C12.2468 12.7889 12.3059 12.6579 12.2032 12.4663C12.1281 12.3261 11.9839 12.3698 11.7349 12.6084ZM5.52359 13.3922C5.52445 13.4809 5.55861 13.5978 5.59951 13.6517C5.64036 13.7058 5.67381 13.7918 5.67381 13.843C5.67381 13.8942 5.70798 13.9492 5.74973 13.9652C5.82561 13.9943 5.85947 14.2362 5.7877 14.2366C5.76679 14.2368 5.64152 14.1981 5.50921 14.1507C5.19464 14.0381 5.15901 14.0787 5.13775 14.5741C5.12839 14.7917 5.10976 15.1701 5.0963 15.415C5.07509 15.8009 5.0843 15.8727 5.16534 15.9537C5.21681 16.0051 5.27264 16.0893 5.28944 16.1407C5.3062 16.1921 5.39634 16.2835 5.48973 16.3438C5.6235 16.4301 5.66683 16.4989 5.69386 16.6679C5.71273 16.7859 5.76072 16.9414 5.8005 17.0136C5.89814 17.1905 6.07873 17.8309 6.07873 18.0002C6.07873 18.2298 6.18872 18.6056 6.28817 18.7158C6.34 18.7732 6.38292 18.8415 6.38353 18.8675C6.38414 18.8936 6.45814 18.949 6.54803 18.9907C6.63787 19.0325 6.71946 19.1121 6.72928 19.1677C6.756 19.3189 6.88927 19.4459 7.02118 19.4459C7.14812 19.4459 7.24373 19.3143 7.20491 19.193C7.16695 19.0745 7.03398 18.9907 6.88386 18.9907C6.67457 18.9907 6.53988 18.526 6.70863 18.3861C6.74887 18.3527 6.85116 18.2174 6.93594 18.0853L7.09011 17.8452L7.0148 17.5562C6.94692 17.2959 6.94743 17.2549 7.01981 17.1445C7.19493 16.8775 6.93508 15.5682 6.62441 15.1526C6.5748 15.0862 6.53426 14.9946 6.53426 14.9489C6.53426 14.9032 6.50086 14.8182 6.46006 14.76C6.41927 14.7017 6.36349 14.5658 6.33606 14.4579C6.24864 14.1134 6.0884 13.7085 6.03206 13.6898C6.00205 13.6798 5.9775 13.646 5.9775 13.6147C5.9775 13.5331 5.615 13.1733 5.56433 13.2046C5.54105 13.219 5.52268 13.3034 5.52359 13.3922ZM1.32009 14.6195C1.29766 14.7189 1.24751 14.8271 1.20863 14.8597C0.964063 15.0655 0.644178 15.6726 0.681683 15.86C0.701828 15.9606 0.672168 16.0941 0.589818 16.2732C0.206968 17.1058 0.187178 17.2423 0.201755 18.9528C0.212587 20.2272 0.188645 20.4269 0.0657528 20.0872C-0.0234809 19.8406 -0.021152 14.927 0.0682335 14.8562C0.103006 14.8286 0.325103 14.7441 0.561727 14.6682C0.798351 14.5923 1.04429 14.5097 1.10821 14.4845C1.32682 14.3984 1.36458 14.4224 1.32009 14.6195ZM8.40701 15.4009C8.40701 15.6233 8.51314 15.7031 8.80904 15.7031C8.88734 15.7031 8.97971 15.7373 9.01438 15.779C9.04905 15.8207 9.13722 15.8531 9.21036 15.8509C9.29044 15.8485 9.31352 15.8351 9.26832 15.8174C9.22707 15.8013 9.14811 15.7291 9.09283 15.6571C8.7235 15.1756 8.40701 15.0574 8.40701 15.4009ZM12.9908 15.4452C12.9753 15.4702 12.8473 15.5183 12.7063 15.5521C12.496 15.6025 12.4266 15.6489 12.3198 15.8101C12.2482 15.9182 12.1699 16.0066 12.1458 16.0066C12.1216 16.0066 12.1019 16.0296 12.1019 16.0576C12.1019 16.0858 12.1987 16.1079 12.317 16.1068C12.4353 16.1057 12.6523 16.1191 12.7991 16.1365C13.0039 16.1609 13.0964 16.1485 13.1958 16.0834C13.267 16.0368 13.4349 15.966 13.5688 15.9263C13.7027 15.8866 13.8253 15.8201 13.8413 15.7786C13.8572 15.7371 13.9178 15.7031 13.976 15.7031C14.1319 15.7031 14.0429 15.6026 13.8831 15.5982C13.8082 15.5962 13.6557 15.5523 13.5444 15.5008C13.3269 15.4002 13.0366 15.371 12.9908 15.4452ZM19.0961 16.4492C19.1486 16.5853 19.1863 16.6135 19.3154 16.6135C19.4012 16.6135 19.4959 16.6381 19.5259 16.6681C19.5822 16.7243 20.0562 16.5213 20.1237 16.4122C20.1719 16.3343 20.2508 16.3504 20.2508 16.4381C20.2508 16.4807 20.2167 16.5287 20.1749 16.5447C20.1332 16.5607 20.099 16.6015 20.099 16.6354C20.099 16.6693 20.0399 16.7522 19.9677 16.8197C19.807 16.9697 19.1471 17.7796 18.9658 18.0495C18.8609 18.2055 18.8336 18.3071 18.8336 18.5411C18.8336 18.7458 18.7949 18.9236 18.7071 19.122C18.5415 19.4963 18.5449 19.5167 18.7837 19.5804C18.9856 19.6342 18.9877 19.6333 19.1362 19.4265C19.2183 19.312 19.306 19.1942 19.3311 19.1646C19.5138 18.9493 19.5378 18.7155 19.3856 18.6341C19.222 18.5466 19.2994 18.2649 19.5761 17.9412C19.8304 17.6438 19.9049 17.6186 19.9886 17.8021C20.0731 17.9875 20.1945 17.9585 20.4989 17.6803C20.7256 17.4732 21.0101 17.3221 21.0101 17.409C21.0101 17.4216 20.9132 17.5295 20.795 17.6489C20.5194 17.927 20.2508 18.2236 20.2508 18.2496C20.2508 18.2608 20.1713 18.3567 20.0741 18.4627C19.9769 18.5688 19.8845 18.7025 19.8687 18.7599C19.8079 18.9814 19.6685 19.2748 19.5614 19.4069C19.4998 19.4828 19.3901 19.6649 19.3178 19.8115C19.1795 20.0914 19.1195 20.198 18.9817 20.4082C18.9357 20.4784 18.8615 20.6614 18.8169 20.8149C18.7715 20.9708 18.6813 21.1412 18.6123 21.2011C18.5444 21.2601 18.4248 21.4185 18.3466 21.5531C18.2684 21.6877 18.1751 21.8279 18.1394 21.8646C18.1037 21.9014 18.0744 21.9662 18.0744 22.0086C18.0744 22.051 18.0418 22.1461 18.002 22.2199C17.6814 22.8138 17.6694 22.997 17.9465 23.0664C18.1162 23.109 18.1558 23.0722 18.2519 22.783C18.2981 22.644 18.3777 22.5079 18.4288 22.4806C18.4799 22.4533 18.5368 22.3624 18.5552 22.2787C18.6028 22.062 18.6626 22.0902 18.6408 22.3191C18.6176 22.5618 18.7118 22.6569 18.9034 22.5841C18.9764 22.5564 19.0361 22.5099 19.0361 22.4808C19.0361 22.4517 19.093 22.402 19.1626 22.3703C19.2443 22.3331 19.2892 22.2713 19.2892 22.1961C19.2892 22.1313 19.3341 22.0555 19.3904 22.0254C19.5606 21.9344 19.4985 21.6316 19.2865 21.5182C19.198 21.4709 19.1758 21.4854 19.1141 21.6309C19.0752 21.7227 18.9962 21.8374 18.9385 21.8858C18.8808 21.9342 18.8336 22.0082 18.8336 22.0502C18.8336 22.0922 18.8109 22.1266 18.783 22.1266C18.6101 22.1266 18.9292 21.3076 19.2084 21.0349C19.2962 20.9491 19.4244 20.7746 19.4931 20.6472C19.7701 20.1338 19.9641 19.8231 20.0325 19.7832C20.0722 19.7601 20.1281 19.6805 20.1568 19.6062L20.2089 19.4712L20.3185 19.6735C20.3787 19.7848 20.5461 19.9973 20.6905 20.1458C20.9656 20.4289 21.0065 20.4388 21.301 20.2941C21.4362 20.2277 21.5296 20.2912 21.4019 20.3627C21.3534 20.3898 21.3138 20.4371 21.3138 20.4678C21.3138 20.4985 21.1982 20.651 21.0569 20.8066C20.6901 21.2109 20.6808 21.2221 20.5432 21.4264C20.4748 21.5281 20.3498 21.6988 20.2656 21.8057C20.1814 21.9126 20.0973 22.0457 20.0788 22.1013C20.0602 22.1569 19.8832 22.3276 19.6855 22.4806C19.1802 22.8717 18.7325 23.332 18.7321 23.4608C18.7316 23.6019 18.4656 23.7762 18.1808 23.8219C18.0584 23.8416 17.8826 23.8892 17.7902 23.9278C17.587 24.0126 16.4547 24.0279 16.4547 23.9458C16.4547 23.9171 16.487 23.8813 16.5265 23.8662C16.5659 23.851 16.6536 23.755 16.7213 23.6528C16.7891 23.5506 16.8924 23.41 16.9508 23.3405C17.2704 22.96 17.5163 22.6274 17.608 22.4514C17.7084 22.259 17.7578 22.1506 17.9633 21.6714C18.017 21.5462 18.1152 21.3186 18.1816 21.1656C18.3589 20.7566 18.3474 20.0714 18.1507 19.3265C17.9588 18.6 17.9374 18.5763 17.4644 18.5677C17.1179 18.5614 17.0886 18.5526 17.1027 18.4597C17.1282 18.2908 17.3538 18.1209 17.4701 18.1831C17.6297 18.2685 17.8356 18.1265 18.1326 17.7263C18.2048 17.6289 18.358 17.4468 18.4729 17.3216C18.5878 17.1965 18.6828 17.0713 18.684 17.0435C18.6852 17.0156 18.7642 16.8336 18.8594 16.6388L19.0327 16.2848L19.0961 16.4492ZM4.30995 17.2584C4.33794 17.3349 4.37084 17.426 4.38304 17.4607C4.39528 17.4955 4.4375 17.524 4.47687 17.524C4.51625 17.524 4.56039 17.5695 4.57497 17.6251C4.6027 17.7311 4.73445 17.7624 4.78805 17.6757C4.85345 17.5699 5.06335 17.6205 5.09579 17.7497C5.11305 17.8183 5.16741 17.8872 5.21666 17.9028C5.42383 17.9685 5.48188 18.1034 5.35443 18.223C5.22557 18.344 4.9233 18.2781 4.68683 18.0776C4.63115 18.0304 4.53437 17.9654 4.47171 17.9331C4.40905 17.9009 4.35732 17.8468 4.35672 17.813C4.35611 17.7792 4.31106 17.6947 4.2566 17.6251C4.15244 17.492 4.11604 17.1193 4.20725 17.1193C4.23575 17.1193 4.28201 17.1819 4.30995 17.2584ZM2.30788 17.9793C2.29002 18.0081 2.19274 18.0166 2.08194 17.9989C1.8313 17.9588 1.75072 18.0833 1.79354 18.4445C1.82016 18.6691 1.81227 18.6954 1.70567 18.7359C1.53338 18.8014 1.50523 19.0731 1.62934 19.4745C1.68765 19.6632 1.75851 19.8 1.79789 19.8C1.88434 19.8 2.26845 19.4185 2.30829 19.2931C2.32484 19.2409 2.38279 19.1841 2.43705 19.1669C2.5441 19.133 2.56551 19.0657 2.48509 19.016C2.33481 18.9232 2.49192 18.6201 2.71285 18.5766C2.81712 18.5561 2.83868 18.3261 2.73953 18.292C2.71407 18.2832 2.6674 18.1979 2.63587 18.1023C2.57812 17.9276 2.38472 17.855 2.30788 17.9793ZM0.37926 20.5378C0.396115 20.5816 0.409883 20.6903 0.409883 20.7792C0.409883 20.8765 0.448906 20.9742 0.508024 21.0248C0.624489 21.1244 0.789189 21.6499 0.873209 22.1898C0.936781 22.5985 0.890925 22.9031 0.743687 23.0502C0.70608 23.0878 0.599738 23.2652 0.507366 23.4445C0.414995 23.6237 0.325153 23.7818 0.307691 23.7957C0.290229 23.8096 0.261278 23.8608 0.24326 23.9095C0.225291 23.9581 0.164351 23.998 0.107764 23.998C0.00648388 23.998 0.00496579 23.9734 0.00658547 22.3162C0.00790145 20.907 0.0190866 20.6489 0.0754207 20.723C0.168299 20.8453 0.194214 20.835 0.23258 20.6604C0.272059 20.481 0.336693 20.4269 0.37926 20.5378ZM3.3218 20.8495C3.28738 20.9492 2.972 21.1656 2.8612 21.1656C2.78832 21.1656 2.72839 21.2089 2.43984 21.4705C2.27007 21.6244 2.23743 21.7584 2.35845 21.8047C2.4369 21.8349 2.81292 21.6572 3.1615 21.4252C3.27159 21.352 3.4207 21.2562 3.49282 21.2123C3.62346 21.1329 3.68212 20.9702 3.62948 20.8331C3.58985 20.7299 3.35885 20.7422 3.3218 20.8495ZM21.6681 21.5419C21.6681 21.5821 21.6453 21.6289 21.6174 21.6461C21.5896 21.6633 21.5668 21.776 21.5668 21.8967C21.5668 22.2528 21.8915 22.562 22.316 22.61C22.4898 22.6296 22.6442 22.6654 22.6591 22.6896C22.8061 22.9271 23.5477 22.5163 23.7212 22.1013C23.7706 21.9832 23.8287 21.9243 23.8958 21.9243C24.1021 21.9243 23.9724 22.4252 23.7646 22.4315C23.739 22.4322 23.661 22.5109 23.5914 22.6063C23.5218 22.7017 23.4012 22.8067 23.3234 22.8396C23.143 22.9159 23.1634 23.0528 23.3601 23.0872C23.7642 23.1577 23.4853 23.2149 22.6714 23.2284C22.1932 23.2363 21.7109 23.2633 21.5995 23.2883C21.2972 23.3561 20.8892 23.2127 20.8682 23.0312C20.8372 22.7644 20.539 22.7536 20.2824 23.0101C20.1074 23.1849 20.1149 23.2392 20.3141 23.2401C20.526 23.2411 20.6912 23.3347 20.5039 23.3476C20.4343 23.3524 20.3432 23.3537 20.3015 23.3504C20.2597 23.3471 20.0601 23.3891 19.858 23.4436C19.6465 23.5007 19.3564 23.5392 19.1747 23.5343C18.985 23.5292 18.9303 23.5181 19.0378 23.5066C19.1624 23.4932 19.2315 23.4536 19.2655 23.376C19.2925 23.3147 19.3851 23.2418 19.4715 23.2139C19.5578 23.186 19.8198 22.984 20.0535 22.7651C20.2873 22.5461 20.5356 22.3315 20.6051 22.2881C20.6747 22.2447 20.8409 22.098 20.9743 21.962C21.1078 21.8261 21.2957 21.6821 21.3919 21.6419C21.4881 21.6017 21.5668 21.5464 21.5668 21.519C21.5668 21.4915 21.5896 21.4691 21.6174 21.4691C21.6453 21.4691 21.6681 21.5018 21.6681 21.5419Z" fill="black"/>
</svg>
