<svg width="24" height="24" viewBox="0 0 24 24" fill="none" xmlns="http://www.w3.org/2000/svg">
<path fill-rule="evenodd" clip-rule="evenodd" d="M23.9893 0.0798806C23.9138 0.152418 23.9114 0.188119 23.9627 0.469552C24.0316 0.847463 23.9991 1.11176 23.8257 1.5849C23.7529 1.78346 23.6838 2.02525 23.6722 2.12221C23.6606 2.21916 23.618 2.60746 23.5775 2.98507C23.537 3.36269 23.4747 3.91146 23.439 4.20454C23.4033 4.49767 23.3741 5.0926 23.3741 5.52663C23.3741 6.49636 23.3022 6.84597 22.9412 7.62991C22.8015 7.93307 22.6561 8.30155 22.618 8.44878C22.5798 8.596 22.5199 8.71642 22.4848 8.71642C22.4498 8.71642 22.421 8.74328 22.421 8.77612C22.421 8.80896 22.4619 8.83582 22.5118 8.83582C22.6739 8.83582 22.6121 9.04722 22.3529 9.37851C22.1074 9.6923 22.1033 9.70334 22.1033 10.0407C22.1033 10.3227 22.0872 10.3952 22.0125 10.4478C21.9626 10.4829 21.9218 10.5494 21.9218 10.5956C21.9218 10.7106 21.8651 10.7468 21.7481 10.7066C21.6846 10.6847 21.6494 10.6259 21.6494 10.5414C21.6494 10.366 21.4106 10.2185 21.185 10.2545C20.9653 10.2895 20.8797 10.0796 21.0006 9.80245C21.0828 9.61427 21.0559 9.43284 20.946 9.43284C20.9069 9.43284 20.8621 9.47982 20.8464 9.53731C20.8306 9.59481 20.781 9.71158 20.7362 9.79684C20.6913 9.88209 20.6576 10.0164 20.6611 10.0953C20.6849 10.6232 20.6327 10.7542 20.4168 10.7082C20.2906 10.6812 20.2406 10.632 20.1918 10.486C20.1189 10.2683 19.892 10.1943 19.7905 10.3552C19.7075 10.4867 19.6683 10.4709 19.6121 10.2836C19.5851 10.1933 19.539 10.0761 19.5097 10.023C19.4804 9.97003 19.4688 9.88412 19.4841 9.83206C19.5175 9.71725 19.7556 9.84531 19.8313 10.0189C19.871 10.1098 19.8821 10.1065 19.9479 9.98507C19.9894 9.90854 20.0684 9.85075 20.1316 9.85075C20.2579 9.85075 20.2818 9.67134 20.1904 9.40752C20.1452 9.27707 20.1521 9.24257 20.2426 9.14615C20.3922 8.98687 20.3409 8.74531 20.1466 8.69421C19.7974 8.60233 19.3812 8.73433 19.3804 8.93731C19.3803 8.97672 19.3448 9.03493 19.3018 9.06669C19.2587 9.09839 19.182 9.27821 19.1313 9.46633C19.0166 9.89242 18.9107 9.99725 18.7903 9.80424C18.6731 9.6166 18.4602 9.52466 18.3394 9.60967C18.1741 9.72603 18.2278 10.5075 18.401 10.5075C18.4683 10.5075 18.528 10.6531 18.4844 10.7106C18.4695 10.7302 18.4108 10.7463 18.3541 10.7463C18.2676 10.7463 18.2486 10.7826 18.2368 10.9701C18.2257 11.1481 18.2041 11.194 18.132 11.194C18.0599 11.194 18.0383 11.1481 18.0271 10.9701C18.0131 10.7475 18.0119 10.7463 17.8094 10.7463C17.6474 10.7463 17.5829 10.7139 17.4944 10.5883C17.3333 10.3596 17.3234 9.93922 17.4758 9.79869C17.5504 9.72997 17.5646 9.64585 17.5646 9.2763C17.5646 8.80358 17.5587 8.81887 17.8898 8.44113C18.3235 7.94657 18.3893 7.48645 18.0868 7.06525L17.8828 6.78113L17.7124 6.99707L17.542 7.21301L17.2469 7.12442C17.0847 7.0757 16.8607 7.02609 16.7491 7.01409C16.6375 7.00209 16.5246 6.95707 16.4982 6.91409C16.3267 6.63516 16.2166 6.55791 16.1378 6.66149C16.0805 6.73684 16.048 6.74525 16.0095 6.69469C15.8502 6.48513 15.5943 6.64555 15.5461 6.98519C15.5116 7.22752 15.3651 7.26961 14.9611 7.15301C14.7141 7.08173 14.6619 7.12675 14.6606 7.41212C14.6599 7.56018 14.6443 7.57218 14.4216 7.59499C14.1204 7.62591 14.0472 7.58884 14.0472 7.40567C14.0472 7.30095 14.0167 7.24961 13.9403 7.22591C13.8815 7.20764 13.7662 7.10322 13.6842 6.99379C13.5078 6.75863 13.4133 6.79021 13.2581 7.13618C13.1397 7.40006 13.1355 7.61033 13.2464 7.71301C13.2928 7.75594 13.3448 7.85003 13.3621 7.92209C13.3795 7.99415 13.4896 8.13104 13.6069 8.22633C13.8654 8.43618 14.3422 9.00776 14.3422 9.1077C14.3422 9.19893 14.6009 9.46072 14.7507 9.52113C14.8131 9.54627 14.8889 9.59284 14.9191 9.62466C14.955 9.66233 15.0306 9.65791 15.1365 9.61194C15.2624 9.55725 15.3137 9.55767 15.3652 9.61385C15.487 9.74693 15.4336 9.79731 15.1845 9.78406C14.9648 9.77236 14.9234 9.79009 14.8087 9.94513C14.7378 10.041 14.6448 10.1463 14.6019 10.1791C14.4913 10.2639 14.5462 10.465 14.7052 10.5576C14.8995 10.6707 15.1282 10.5882 15.3582 10.3219C15.5882 10.0556 15.6636 10.0378 15.7923 10.2195L15.8843 10.3494L16.064 10.1595L16.2437 9.96955L16.4022 10.111L16.5608 10.2526L16.4665 10.5032C16.3961 10.6904 16.3853 10.7711 16.4238 10.8217C16.5159 10.9429 16.4814 10.9552 16.044 10.9572C15.5529 10.9594 15.5266 10.9789 15.3229 11.4921C15.0769 12.1117 15.2982 12.7724 15.613 12.3582C15.6823 12.267 15.7643 12.2388 15.9594 12.2388C16.2733 12.2388 16.3875 12.327 16.8158 12.9002C17.2621 13.4976 17.5981 13.6974 17.7504 13.456C17.7985 13.3799 17.8614 13.3675 18.0514 13.3968C18.2167 13.4224 18.3415 13.4066 18.4516 13.3461C18.6456 13.2395 18.7887 13.2958 18.8774 13.5139C18.9119 13.5987 19.0181 13.7391 19.1133 13.8259C19.2086 13.9128 19.2987 14.0344 19.3137 14.0964C19.3286 14.1583 19.3739 14.209 19.4144 14.209C19.475 14.209 19.4713 14.2295 19.3932 14.3251C19.308 14.4296 19.304 14.4627 19.3535 14.6524C19.426 14.9299 19.428 14.9315 19.6096 14.8647C19.8476 14.7771 19.9575 14.3881 19.7443 14.3881C19.4834 14.3881 19.4695 14.3032 19.6747 13.9636C19.7618 13.8195 19.8333 13.6721 19.8335 13.6361C19.8338 13.6002 19.8748 13.5221 19.9248 13.4627C19.9747 13.4033 20.0155 13.2798 20.0155 13.1883C20.0155 12.8729 20.1516 12.9231 20.1804 13.2491C20.1878 13.3338 20.2126 13.6179 20.2355 13.8806C20.2952 14.5666 20.3758 14.7946 20.5472 14.7615C20.6712 14.7376 20.6869 14.7567 20.7629 15.0245C20.808 15.1835 20.8713 15.3538 20.9036 15.4031C21.0216 15.5832 21.069 15.8638 21.0822 16.4586C21.0896 16.7928 21.1204 17.1647 21.1505 17.285C21.2126 17.5322 21.158 17.6786 21.061 17.5249C20.9573 17.3606 20.7417 17.509 20.7417 17.7446C20.7417 17.8393 20.6519 17.9104 20.5323 17.9104C20.4532 17.9104 20.1989 18.2365 19.9802 18.6183C19.8928 18.7707 19.7748 18.9627 19.718 19.0448C19.1517 19.8628 19.1066 19.9429 19.1334 20.0837C19.1756 20.305 18.7984 21.058 18.7243 20.9004C18.6857 20.8184 18.5632 20.8158 18.5632 20.897C18.5632 20.9306 18.6105 20.9819 18.6685 21.0109C18.7921 21.0727 18.7936 21.5576 18.6719 22.1349C18.6239 22.3628 18.6188 22.4808 18.6534 22.5659C18.69 22.6558 18.6798 22.7349 18.6094 22.9077C18.5013 23.1729 18.4914 23.377 18.5844 23.4239C18.6454 23.4546 18.7901 23.8233 18.7901 23.9479C18.7901 23.9781 17.1114 23.9941 14.8569 23.9854L10.9237 23.9701L10.8737 23.7358C10.8337 23.5483 10.783 23.4724 10.62 23.3562C9.65729 22.6697 9.57714 22.6873 9.65706 23.5673L9.69632 24H4.84816H-2.48101e-07V19.6662V15.3325L0.196433 15.0244C0.304454 14.855 0.438889 14.6157 0.495123 14.4925C0.606729 14.2483 0.734584 14.2039 0.887719 14.3563C0.936147 14.4045 1.00881 14.4448 1.04911 14.4459C1.08942 14.4469 1.17111 14.4968 1.23066 14.5567C1.34994 14.6768 1.94772 14.8436 2.05838 14.7878C2.13177 14.7507 2.11892 14.4111 2.03609 14.198C1.96906 14.0254 1.99275 13.8768 2.11048 13.7313C2.17289 13.6542 2.22395 13.5597 2.22395 13.5213C2.22395 13.4828 2.2648 13.4027 2.31472 13.3433C2.36465 13.2839 2.40549 13.1991 2.40549 13.1549C2.40549 13.1107 2.42592 13.0746 2.45088 13.0746C2.47584 13.0746 2.49627 13.1198 2.49627 13.1749C2.49627 13.23 2.52073 13.3641 2.55064 13.4728C2.59943 13.6504 2.5948 13.6831 2.50525 13.7928C2.38934 13.9349 2.37667 14.0299 2.47357 14.0299C2.51102 14.0299 2.54165 14.0033 2.54165 13.9708C2.54165 13.777 2.89785 13.4845 3.23503 13.4014C3.3415 13.3752 3.42597 13.311 3.45797 13.2319C3.587 12.9127 3.73442 12.7734 3.84353 12.8674C3.89958 12.9157 3.98554 12.9552 4.03456 12.9552C4.17521 12.9552 4.27878 13.1287 4.24515 13.3079C4.12433 13.9515 4.12688 13.9841 4.31682 14.2268C4.46442 14.4153 4.53445 14.4587 4.73211 14.4844C5.09561 14.5314 5.16441 14.5585 5.25882 14.6918C5.3151 14.7713 5.35681 14.7921 5.37642 14.7503C5.39312 14.7148 5.37483 14.6696 5.33579 14.6499C5.25936 14.6113 5.23685 14.4478 5.30797 14.4478C5.33171 14.4478 5.36997 14.4921 5.39303 14.5463C5.43297 14.6401 5.49814 14.6393 5.67492 14.5426C5.78998 14.4798 5.95097 14.7202 5.90358 14.8841C5.8749 14.9833 5.9009 15.1579 5.99917 15.5252C6.19696 16.2647 6.26314 16.6247 6.26527 16.9731C6.26745 17.3328 6.37751 17.6464 6.53832 17.7513C6.61534 17.8016 6.65351 17.8826 6.6634 18.0168C6.70379 18.5641 6.78772 18.5413 6.92115 17.947C7.04424 17.3986 7.04587 17.3718 6.993 16.7676C6.88825 15.5712 6.84014 15.3161 6.71882 15.3147C6.56364 15.3129 6.55043 15.1766 6.70321 15.1536C6.84477 15.1322 6.84599 15.1196 6.78231 14.3433C6.75091 13.9606 6.77605 13.8912 6.87976 14.0746C6.97412 14.2415 7.07374 14.1068 7.18843 13.6574C7.24494 13.4361 7.30508 13.2367 7.32205 13.2143C7.37334 13.1469 7.57281 13.4355 7.60395 13.622C7.61997 13.7179 7.73598 13.9496 7.86184 14.137C7.98769 14.3243 8.12503 14.5504 8.16711 14.6395C8.25938 14.8347 8.46398 15.0555 8.50392 15.003C8.58653 14.8944 8.49521 14.2802 8.3674 14.0848C8.24558 13.8986 8.29247 13.8476 8.54931 13.8873C8.84759 13.9335 8.92715 13.8367 8.74683 13.6468C8.64498 13.5396 8.62674 13.469 8.61471 13.1362L8.60078 12.75L8.73694 12.7181C8.81963 12.6987 8.89066 12.6336 8.91789 12.5521C8.99696 12.3153 9.01679 12.4024 9.06785 13.209C9.15881 14.6473 9.26828 15.0601 9.5514 15.0327C9.73377 15.0151 9.73635 15.0115 9.8338 14.6371C9.88785 14.4293 9.96605 14.2099 10.0075 14.1496C10.0956 14.0216 10.2691 13.327 10.2326 13.2492C10.1839 13.1457 10.2703 12.7651 10.3822 12.5903C10.472 12.4497 10.4903 12.37 10.4701 12.2064C10.4561 12.0929 10.4588 12 10.4761 12C10.52 12 10.6125 11.7114 10.6485 11.4622C10.6651 11.3476 10.7 11.2181 10.7261 11.1746C10.7593 11.1192 10.7586 11.0832 10.7237 11.0549C10.6201 10.9707 10.7394 10.5254 10.9841 10.0829C11.2562 9.59075 11.4828 9.05349 11.4828 8.90036C11.4828 8.75612 12.368 7.58842 12.5554 7.48537C12.8651 7.31516 13.0714 6.95493 13.0714 6.58412C13.0714 6.4043 13.1004 6.18591 13.1358 6.09875C13.2246 5.88042 13.3299 5.40836 13.3086 5.32406C13.2778 5.20281 13.1279 5.35737 13.0732 5.56669C12.9722 5.95278 12.8051 6.13099 12.5154 6.16143C12.3718 6.1766 12.2544 6.17893 12.2544 6.16669C12.2544 6.12119 12.4463 5.65182 12.4969 5.57355C12.6713 5.30376 12.9859 4.90549 13.1197 4.78507C13.2054 4.70794 13.3267 4.5526 13.3891 4.43982C13.4515 4.3271 13.5638 4.196 13.6387 4.14848C13.7136 4.1009 13.8872 3.95522 14.0245 3.82466C14.4282 3.44084 15.3072 2.92537 15.5581 2.92537C15.7709 2.92537 17.831 1.87367 18.2408 1.55582C18.6212 1.26084 19.9849 0.716418 20.3434 0.716418C20.6934 0.716418 21.0913 0.265612 20.902 0.0835224C20.827 0.011403 21.037 0 22.4437 0C23.8148 0 24.0592 0.0126567 23.9893 0.0798806ZM13.5252 0.0837612C13.3976 0.143761 13.3544 0.207343 13.3053 0.407582C13.2477 0.642567 13.2344 0.656716 13.0705 0.656716C12.9547 0.656716 12.854 0.703522 12.7685 0.797194C12.596 0.98603 12.1757 1.06603 12.1326 0.918209C12.0932 0.783224 12.2125 0.51391 12.324 0.48597C12.4295 0.459582 12.6629 0.251164 12.6629 0.183343C12.6629 0.157373 12.5352 0.109194 12.3792 0.0763582C12.1311 0.0241194 12.195 0.0161791 12.8898 0.0128358C13.5777 0.00961194 13.6628 0.0191045 13.5252 0.0837612ZM11.0517 0.0684776C10.7521 0.0946269 10.4662 0.113612 10.4162 0.110687C10.3663 0.107821 10.0158 0.101851 9.63718 0.0974925C9.25861 0.0931343 8.93351 0.0693731 8.91476 0.0447761C8.89602 0.0201194 9.49167 0.00471642 10.2385 0.0104478C11.3895 0.0193433 11.5133 0.0281791 11.0517 0.0684776ZM13.7229 2.31003C13.8133 2.71761 13.7936 2.76746 13.3652 3.21743C13.1412 3.45272 12.8728 3.75194 12.7687 3.88233C12.6647 4.01272 12.5615 4.1194 12.5395 4.1194C12.5175 4.1194 12.4414 4.2403 12.3703 4.38806C12.2993 4.53582 12.2244 4.65672 12.2039 4.65672C12.1833 4.65672 12.1361 4.73057 12.0988 4.8209C12.0342 4.97749 12.031 4.97881 12.0293 4.8489C12.0283 4.77397 12.0581 4.69719 12.0956 4.67833C12.133 4.6594 12.1636 4.60155 12.1636 4.54979C12.1636 4.35534 12.352 3.964 12.5275 3.79397C12.7308 3.59707 13.412 2.60454 13.496 2.38293C13.563 2.20597 13.6908 2.16496 13.7229 2.31003ZM19.07 2.79104C18.8976 3.37158 18.9033 3.70149 19.0858 3.70149C19.3169 3.70149 19.5084 3.1 19.398 2.72131C19.3495 2.5551 19.126 2.60263 19.07 2.79104ZM17.1568 2.85278C16.7183 3.18412 16.6729 3.33994 16.6785 4.49761C16.6834 5.52346 16.7226 5.66639 17 5.67033C17.1932 5.67307 17.4828 5.09081 17.6344 4.39457C17.6765 4.20119 17.7473 3.93624 17.7917 3.80585C17.9188 3.43206 17.8297 2.78693 17.6369 2.68549C17.5174 2.62269 17.4134 2.65893 17.1568 2.85278ZM19.7805 3.72197C19.7261 3.9523 19.7576 4.11576 19.8657 4.16316C19.9891 4.21725 20.181 3.46137 20.0781 3.32609C20.0206 3.25039 19.833 3.5 19.7805 3.72197ZM20.2766 4.24531C20.0638 4.62818 20.2475 4.8803 20.4807 4.52549C20.5722 4.38633 20.5874 4.0231 20.5034 3.98257C20.4394 3.9517 20.4403 3.95069 20.2766 4.24531ZM16.2356 4.25988C16.1553 4.30424 16.0197 4.42675 15.9344 4.53212L15.7791 4.72358L15.877 4.98866C16.0278 5.3969 16.2814 5.28382 16.256 4.81982C16.2489 4.69242 16.2731 4.64143 16.3611 4.59743C16.4755 4.54024 16.4995 4.45057 16.4478 4.27355C16.4145 4.15922 16.4173 4.1594 16.2356 4.25988ZM20.801 4.48925C20.67 4.70752 20.6854 5.1351 20.8242 5.13343C20.9653 5.1317 21.0268 5.0289 21.0611 4.73749C21.1103 4.31839 20.9788 4.19296 20.801 4.48925ZM15.3841 4.65809C15.2334 4.76424 15.1882 4.94328 15.2704 5.10848C15.4047 5.37797 15.6304 5.24078 15.6229 4.89427C15.6166 4.59964 15.5545 4.53821 15.3841 4.65809ZM21.4342 4.73134C21.4095 4.77242 21.3784 4.91343 21.3651 5.04478C21.3517 5.17612 21.3263 5.33045 21.3088 5.3877C21.2658 5.52794 21.4615 5.63648 21.5523 5.52269C21.6265 5.42967 21.7058 4.91576 21.6694 4.76454C21.6395 4.64078 21.5004 4.62107 21.4342 4.73134ZM21.9672 4.83582C21.7972 5.0594 21.9154 5.45576 22.1418 5.42131C22.2771 5.40072 22.3123 5.25594 22.264 4.91755C22.2303 4.68096 22.11 4.64788 21.9672 4.83582ZM11.9027 5.28173C11.8909 5.36287 11.8529 5.46018 11.8182 5.49803C11.7835 5.53588 11.7552 5.59188 11.7552 5.62251C11.7552 5.69445 11.5981 6.17618 11.4823 6.45958C11.4327 6.58101 11.3921 6.75636 11.3921 6.84931C11.3921 6.94221 11.363 7.07272 11.3276 7.13934C11.2921 7.20597 11.2449 7.35242 11.2228 7.46478C11.1921 7.62042 11.1396 7.6963 11.0022 7.7834C10.9031 7.84627 10.7715 7.98716 10.7099 8.09648C10.6482 8.20579 10.5738 8.29594 10.5446 8.29684C10.5152 8.29779 10.4306 8.36567 10.3564 8.44776C10.2823 8.52985 10.199 8.59701 10.1714 8.59701C10.1438 8.59701 10.1212 8.636 10.1212 8.68358C10.1212 8.73122 10.0891 8.79385 10.0498 8.82275C9.97495 8.87785 9.90015 9.028 9.77865 9.36692C9.73871 9.47839 9.6769 9.60794 9.64131 9.65475C9.60573 9.70155 9.57659 9.77934 9.57659 9.82752C9.57659 9.87576 9.53824 10.0149 9.4914 10.1367C9.44456 10.2585 9.38329 10.5006 9.35524 10.6746C9.32719 10.8487 9.26905 11.077 9.22598 11.1821C9.17973 11.295 9.14723 11.5069 9.14655 11.7C9.1451 12.1144 9.02169 12.2048 8.95602 11.8396C8.9109 11.5887 8.77901 11.465 8.55494 11.4636C8.27971 11.4618 8.01583 10.9432 8.19697 10.76C8.25774 10.6984 8.26628 10.6646 8.22593 10.6447C8.08396 10.5747 7.79943 10.1621 7.85934 10.113C7.94294 10.0446 8.13193 10.083 8.21998 10.1863C8.29546 10.2749 8.49248 10.2235 8.55044 10.1001C8.56501 10.0691 8.66913 10.0254 8.78178 10.0032C9.01575 9.95707 9.03309 9.90752 8.8731 9.74203C8.81069 9.67743 8.75963 9.57618 8.75963 9.51701C8.75963 9.37701 8.98212 8.95522 9.05596 8.95522C9.12204 8.95522 9.16811 8.82334 9.16811 8.63409C9.16811 8.55904 9.24459 8.40358 9.34489 8.27475C9.54759 8.01445 9.63437 8.01952 9.88454 8.30657C9.96651 8.40066 10.0524 8.47761 10.0753 8.47761C10.1143 8.47761 10.2112 8.11176 10.2117 7.96233C10.2119 7.92513 10.2796 7.82693 10.3623 7.744C10.4449 7.66107 10.5786 7.43015 10.6594 7.23087C10.7401 7.03158 10.8318 6.84776 10.8631 6.82233C10.8944 6.7969 10.9682 6.68543 11.0271 6.57457L11.1341 6.37296L11.0341 6.27373C10.916 6.15666 10.9512 6.07654 11.0904 6.14543C11.203 6.20125 11.3921 6.12555 11.3921 6.02472C11.3921 5.95719 11.5727 5.64364 11.7537 5.39672C11.8044 5.32758 11.8459 5.24024 11.8459 5.20269C11.8459 5.16507 11.8635 5.13433 11.885 5.13433C11.9065 5.13433 11.9145 5.20066 11.9027 5.28173ZM21.5682 6.1234C21.532 6.13821 21.51 6.24507 21.5107 6.40203C21.5112 6.54209 21.5075 6.73731 21.5022 6.83582C21.4969 6.93433 21.507 7.10203 21.5245 7.20848C21.5539 7.38746 21.5498 7.39672 21.4704 7.33146C21.3127 7.20191 21.1048 7.66878 21.1048 8.1526C21.1048 8.37463 21.0099 8.5006 20.8395 8.5046C20.7024 8.50788 20.648 8.7846 20.74 9.01081C20.789 9.1311 20.7895 9.13116 20.8789 9.01355C20.9477 8.9231 21.0302 8.89552 21.2319 8.89552C21.593 8.89552 21.7202 8.69403 21.514 8.44866C21.4091 8.3237 21.4297 8.10263 21.5646 7.90663C21.6113 7.83881 21.6498 7.74478 21.6501 7.69767C21.6507 7.62573 21.6579 7.62639 21.6948 7.70149C21.719 7.75075 21.7391 7.91534 21.7395 8.06734C21.7409 8.63003 22.0196 8.56973 22.1903 7.96979C22.3192 7.51666 22.3313 6.18937 22.2073 6.09809C22.1374 6.04669 21.7149 6.0634 21.5682 6.1234ZM18.8285 8.09242C18.6928 8.20734 18.6573 8.27952 18.6332 8.48955C18.6169 8.63075 18.5925 8.82281 18.5788 8.91642C18.5568 9.06699 18.5649 9.08239 18.6493 9.05075C18.7018 9.03104 18.7855 8.9997 18.8355 8.98107C18.886 8.96215 18.9262 8.89606 18.9262 8.83182C18.9262 8.76836 18.9542 8.71642 18.9882 8.71642C19.0597 8.71642 19.2637 8.03069 19.22 7.93755C19.1826 7.85797 19.0375 7.91534 18.8285 8.09242ZM2.78062 8.21487C2.84293 8.29684 2.35039 8.89803 2.22395 8.89433C2.07866 8.89015 2.09559 8.76913 2.27632 8.52006C2.46064 8.26609 2.7065 8.11731 2.78062 8.21487ZM3.08629 9.53409C3.08629 9.58979 3.03478 9.73319 2.97178 9.85272C2.81143 10.1571 2.7586 10.4223 2.84053 10.5116C2.88237 10.5574 2.90475 10.7023 2.90475 10.9278C2.90475 11.3955 2.92998 11.4698 3.06587 11.4019C3.18569 11.3419 3.2378 11.4004 3.19504 11.5469C3.17353 11.6207 3.09537 11.6429 2.84316 11.6465C2.66483 11.6491 2.54447 11.6648 2.57569 11.6813C2.60687 11.6979 2.63243 11.749 2.63243 11.7949C2.63243 11.9007 2.3946 11.9869 2.37005 11.89C2.35044 11.8126 2.22395 11.7941 2.22395 11.8687C2.22395 11.8949 2.24791 11.9479 2.27714 11.9864C2.33328 12.0602 2.24678 12.3447 2.07435 12.6534C2.02951 12.7336 1.99865 12.8577 2.00577 12.9291C2.02225 13.0944 1.92871 13.326 1.80417 13.4282C1.62162 13.5782 1.37367 12.9298 1.5279 12.7056C1.60728 12.5902 1.54796 12.4179 1.42882 12.4179C1.31199 12.4179 1.08928 12.0054 1.08928 11.789C1.08928 11.6496 1.11039 11.5821 1.15405 11.5821C1.24659 11.5821 1.40699 11.293 1.40699 11.1263C1.40699 11.0086 1.38389 10.9851 1.26815 10.9851C1.18713 10.9851 1.14098 10.9602 1.15736 10.9254C1.17279 10.8925 1.22598 10.8657 1.27564 10.8657C1.32992 10.8657 1.39659 10.7913 1.44316 10.679C1.48564 10.5764 1.56561 10.4193 1.62085 10.3299C1.69692 10.2066 1.71516 10.1181 1.69624 9.96424C1.66269 9.69164 1.89122 9.43719 2.07217 9.54561C2.2264 9.63803 2.50194 9.62507 2.60706 9.52048C2.73573 9.39248 3.08629 9.40245 3.08629 9.53409ZM12.1397 10.5881C12.0905 10.6325 11.9956 10.6862 11.9288 10.7075C11.8033 10.7476 11.7074 10.8831 11.4791 11.3433C11.4057 11.491 11.2672 11.7519 11.1713 11.923C10.9652 12.2906 10.9602 12.3331 10.8698 14.4776C10.8346 15.3139 10.772 15.6934 10.6369 15.8898C10.5804 15.9719 10.5662 16.1198 10.5715 16.5763C10.5789 17.2338 10.5744 17.2177 10.7597 17.2463C10.7876 17.2506 10.7955 17.3062 10.7783 17.3774C10.7454 17.5136 10.8787 18.3099 10.9432 18.3623C10.9654 18.3803 10.9836 18.4512 10.9836 18.5196C10.9836 18.5942 11.0929 18.781 11.2559 18.9851C11.4057 19.1725 11.5282 19.3658 11.5282 19.4146C11.5282 19.5172 11.7219 19.883 11.9027 20.1218C11.9713 20.2125 12.0275 20.3297 12.0275 20.3821C12.0275 20.501 12.1342 20.5066 12.2067 20.3916C12.3203 20.2118 12.6175 20.3022 12.6175 20.5167C12.6175 20.6046 12.8559 20.8358 12.9465 20.8358C12.9825 20.8358 13.0489 20.8896 13.0941 20.9553C13.159 21.0496 13.2298 21.0734 13.4302 21.0682C13.7812 21.0591 14.0294 21.1278 14.1449 21.2661C14.284 21.4326 14.8974 21.3394 15.1586 21.1121L15.3349 20.9586L15.4295 21.1599C15.5516 21.4198 15.84 21.3598 15.84 21.0746C15.84 21.017 15.8705 20.9365 15.9078 20.8958C15.9452 20.855 15.9998 20.7107 16.0292 20.575C16.0587 20.4393 16.0977 20.3015 16.1159 20.2687C16.2178 20.0856 16.2112 19.6589 16.1049 19.546C16.0463 19.4838 15.9724 19.3562 15.9408 19.2626C15.8996 19.141 15.8672 19.1088 15.8275 19.1499C15.7146 19.2666 15.5217 19.2916 15.4931 19.1933C15.4781 19.142 15.402 19.057 15.3239 19.0044C15.2458 18.9518 15.1686 18.8817 15.1524 18.8488C15.1045 18.751 15.2051 18.4556 15.2998 18.4161C15.348 18.3959 15.3757 18.3545 15.3614 18.3241C15.3156 18.2267 15.1829 18.2645 15.1223 18.3921C15.0522 18.5399 14.832 18.5056 14.6806 18.3231C14.6296 18.2617 14.5224 18.1813 14.4424 18.1446C14.2405 18.0521 14.2563 17.9073 14.501 17.6055C14.7333 17.3191 14.7634 17.1275 14.5983 16.9851C14.4565 16.863 14.3087 16.4381 14.3768 16.3485C14.4128 16.3011 14.4603 16.3181 14.5493 16.4102C14.6169 16.4801 14.6949 16.5375 14.7228 16.5377C14.7506 16.5379 14.8285 16.5759 14.8959 16.6221C15.2377 16.8567 15.6745 16.9487 15.791 16.8106C15.9519 16.6199 16.1093 16.6278 16.1627 16.8291C16.1898 16.9313 16.2281 17.0149 16.248 17.0149C16.3006 17.0149 16.3404 16.8496 16.3116 16.7509C16.2541 16.5537 16.5716 16.4747 16.6901 16.6567C16.7666 16.7741 16.8838 16.8192 16.8838 16.7312C16.8838 16.6275 16.6152 16.3645 16.4382 16.2947C16.3333 16.2533 16.2247 16.1835 16.197 16.1396C16.1692 16.0956 16.1216 16.0597 16.0911 16.0597C16.0605 16.0597 15.9991 16.0066 15.9545 15.9419C15.9098 15.877 15.8301 15.8061 15.7772 15.7844C15.7244 15.7626 15.6341 15.6965 15.5766 15.6375C15.5192 15.5785 15.3558 15.5126 15.2135 15.4911C15.0713 15.4696 14.8798 15.427 14.7879 15.3965C14.6652 15.3556 14.569 15.3648 14.4248 15.4308C14.0266 15.6133 13.8486 15.5004 14.2085 15.2936C14.3682 15.2019 14.5296 15.1632 14.7625 15.1606C14.9432 15.1587 15.1892 15.1358 15.3092 15.1099C15.4919 15.0704 15.5457 15.0817 15.6403 15.1796C15.7658 15.3094 15.8016 15.3122 16.3065 15.2306C16.5252 15.1952 16.7152 15.1946 16.8057 15.229C17.0268 15.3127 17.1234 15.067 17.0368 14.6418C16.9894 14.4093 16.7672 14.4579 16.6961 14.7164C16.6268 14.9687 16.6216 14.9687 16.4628 14.717C16.3758 14.5792 16.3357 14.4462 16.3333 14.2884C16.3223 13.5522 15.7849 12.6429 15.399 12.7076C15.3331 12.7186 15.2426 12.651 15.1366 12.5117C14.8679 12.1581 14.7759 12.1009 14.5489 12.1457C14.3493 12.185 13.8234 12.4938 13.7729 12.6012C13.7449 12.6609 13.5706 12.6792 13.5706 12.6225C13.5706 12.5253 14.0609 12.0042 14.1808 11.9739C14.2731 11.9506 14.3542 11.8685 14.4232 11.7284C14.4802 11.6127 14.5772 11.4927 14.6387 11.4619C14.704 11.4293 14.7507 11.3582 14.7507 11.2915C14.7507 11.1577 14.6205 11.0728 14.5525 11.1622C14.475 11.2641 14.2561 11.2321 14.1192 11.0989C14.048 11.0296 13.8716 10.9517 13.7239 10.9242C13.4346 10.8704 13.1997 10.7968 12.7764 10.6274C12.4424 10.4938 12.2571 10.4824 12.1397 10.5881ZM6.2546 11.6412C6.39712 11.7974 6.45907 12.0893 6.37029 12.1862C6.32187 12.2391 6.31147 12.3223 6.33276 12.4877C6.35618 12.6702 6.34665 12.7239 6.28547 12.7549C6.19914 12.7984 6.12947 12.6897 6.12689 12.5075C6.12593 12.4418 6.08699 12.3227 6.04024 12.2427C5.97234 12.1264 5.96572 12.0749 6.00725 11.9851C6.05023 11.8921 6.04088 11.8531 5.95264 11.758L5.84617 11.6432L5.96694 11.5828C6.12375 11.5044 6.13124 11.5059 6.2546 11.6412ZM7.39304 11.8428C7.43221 11.9049 7.42812 11.9424 7.37588 11.9994C7.25724 12.129 7.29945 12.2217 7.49257 12.2558C7.59446 12.2737 7.68964 12.304 7.70407 12.323C7.75245 12.3866 7.56074 12.7794 7.49706 12.7472C7.46348 12.7303 7.40842 12.7164 7.3747 12.7164C7.34098 12.7164 7.2994 12.656 7.28234 12.5821C7.26527 12.5082 7.20019 12.358 7.13769 12.2484C6.95451 11.9269 7.20005 11.537 7.39304 11.8428ZM21.6219 14.1549C21.687 14.2222 21.7402 14.3147 21.7402 14.3604C21.7402 14.4061 21.7802 14.4717 21.829 14.5061C21.9619 14.5996 22.0262 14.9628 21.9347 15.1033C21.8724 15.199 21.8537 15.2026 21.7981 15.1295C21.7114 15.0153 21.6629 15.0227 21.5708 15.1642C21.4439 15.3592 21.2722 15.325 21.3078 15.1119C21.3266 14.9994 21.3141 14.9107 21.2716 14.8547C21.2162 14.782 21.2159 14.7527 21.2692 14.6568C21.3036 14.595 21.3317 14.4564 21.3317 14.3489C21.3317 14.0758 21.4615 13.989 21.6219 14.1549ZM2.40481 14.7718C2.14375 14.9576 2.13771 15.1594 2.38466 15.4438C2.59861 15.69 2.57674 15.9121 2.34481 15.8484C2.26588 15.8267 2.17497 15.7761 2.14289 15.736C1.96524 15.5141 1.77094 15.7675 1.94319 15.9965C1.98998 16.0587 2.0011 16.1696 1.98331 16.3961C1.95558 16.7494 2.0109 16.8621 2.18555 16.8079C2.45447 16.7245 2.48342 17.1486 2.2151 17.2401C2.13599 17.267 2.06391 17.3181 2.05493 17.3535C2.02815 17.4592 2.27882 17.4876 2.47053 17.4008C2.68476 17.3037 2.7232 17.3267 2.7232 17.5522C2.7232 17.7375 2.78801 17.8349 2.83907 17.7262C2.89662 17.6038 3.17425 17.4845 3.25817 17.5463C3.32621 17.5964 3.32035 17.6113 3.21111 17.666C3.14248 17.7003 3.08629 17.7545 3.08629 17.7865C3.08629 17.8184 3.03523 17.9171 2.97283 18.0057C2.83304 18.2041 2.81965 18.4478 2.94855 18.4478C2.99756 18.4478 3.05834 18.3971 3.08348 18.3352C3.14453 18.1853 3.27996 18.1473 3.83409 18.125C4.32163 18.1054 4.40251 18.0786 4.40251 17.9368C4.40251 17.8127 4.46319 17.8307 4.57584 17.9885C4.64614 18.0869 4.66026 18.1445 4.62527 18.1906C4.5984 18.2259 4.58573 18.3184 4.59713 18.3961L4.61791 18.5373L4.65168 18.403C4.71844 18.1371 5.04074 18.3531 5.10868 18.7093C5.14272 18.8875 5.31092 19.0156 5.36466 18.9043C5.38213 18.8681 5.36684 18.7955 5.33062 18.7429C5.29445 18.6903 5.26486 18.6174 5.26486 18.5808C5.26486 18.5442 5.22673 18.4791 5.18016 18.4362C5.1336 18.3933 5.08054 18.2685 5.0622 18.1587C5.04119 18.0329 4.92332 17.8127 4.74273 17.5618C4.27824 16.9164 3.99485 16.455 3.99444 16.3433C3.99412 16.2636 3.95599 16.2388 3.83377 16.2388C3.65227 16.2388 3.56467 16.0833 3.69298 15.989C3.78498 15.9212 3.7474 15.8117 3.64913 15.8613C3.54243 15.9152 3.31731 15.5347 3.31509 15.2967C3.31395 15.1772 3.286 15.087 3.24347 15.0655C3.20507 15.0461 3.14484 14.9395 3.10962 14.8286C3.0262 14.566 2.72765 14.5419 2.40481 14.7718ZM7.09798 15.0201C7.07706 15.1297 7.09616 15.2208 7.1637 15.3336C7.36966 15.6776 7.60295 16.4404 7.64557 16.9095C7.6886 17.3827 7.75899 17.402 7.77093 16.9438C7.78754 16.3049 7.76403 16.0501 7.67003 15.8501C7.62029 15.7442 7.57958 15.5904 7.57958 15.5085C7.57958 15.4264 7.54222 15.2953 7.49652 15.217C7.45086 15.1387 7.40044 15.0276 7.3845 14.9701C7.33712 14.7995 7.13329 14.8351 7.09798 15.0201ZM4.10223 15.6213C3.91206 15.8121 3.91188 15.9913 4.10169 16.1107C4.22455 16.1879 4.23825 16.1827 4.33947 16.0217C4.62935 15.5605 4.45538 15.2669 4.10223 15.6213ZM14.1946 16.9396C14.3002 16.9644 14.3729 17.1817 14.3275 17.3372C14.3009 17.4286 13.9658 17.5257 13.89 17.4641C13.7517 17.3516 14.0154 16.8978 14.1946 16.9396ZM19.952 17.1691C19.9296 17.2649 19.8836 17.4279 19.8499 17.5314C19.7246 17.9157 19.793 18.0186 19.9961 17.7515C20.1188 17.59 20.1893 17.2298 20.1347 17.0426C20.0935 16.9018 19.9993 16.967 19.952 17.1691ZM18.1547 17.4812C18.1547 17.696 17.9484 18.0896 17.8358 18.0896C17.7895 18.0896 17.6551 18.6066 17.6896 18.652C17.8793 18.9014 18.2908 18.1604 18.2908 17.5695C18.2908 17.3286 18.2747 17.2537 18.2228 17.2537C18.1741 17.2537 18.1547 17.3188 18.1547 17.4812ZM1.37889 18.0881C1.22739 18.3985 1.25276 18.4688 1.48864 18.3921C1.59194 18.3586 1.79223 17.8998 1.73595 17.8257C1.65226 17.7156 1.50943 17.8206 1.37889 18.0881ZM16.3614 18.3294C16.2981 18.4642 16.3319 19.6696 16.4054 19.8981C16.4717 20.1042 16.5841 20.2351 16.6361 20.1667C16.6643 20.1296 16.7183 19.4944 16.7218 19.1589C16.7267 18.6983 16.4679 18.1028 16.3614 18.3294ZM17.1362 19.2501C17.0132 19.8066 17.0732 20.3808 17.2101 19.9586C17.24 19.8664 17.293 19.746 17.3278 19.6909C17.3846 19.6012 17.4215 19.4567 17.5064 18.9907C17.5247 18.8904 17.5066 18.8219 17.4465 18.7641C17.3321 18.6539 17.2341 18.8075 17.1362 19.2501Z" fill="black"/>
</svg>
