<svg width="24" height="24" viewBox="0 0 24 24" fill="none" xmlns="http://www.w3.org/2000/svg">
<path fill-rule="evenodd" clip-rule="evenodd" d="M0.0043526 9.81127C0.0043526 19.573 0.00490379 19.6227 0.114589 19.6534C0.250566 19.6915 0.256904 19.8545 0.128369 20.0063C0.0135573 20.1419 -0.0548995 23.2924 0.0569354 23.2924C0.0886283 23.2924 0.114589 23.3555 0.114589 23.4326C0.114589 23.5097 0.152125 23.6689 0.197983 23.7864L0.281432 24H5.10218H9.92287L9.86913 23.8487C9.83959 23.7655 9.81457 23.613 9.81352 23.5097C9.81247 23.4063 9.76375 23.2157 9.70516 23.086C9.64657 22.9562 9.59784 22.8168 9.59679 22.7762C9.59575 22.7355 9.54531 22.6033 9.48468 22.4822C9.42405 22.3612 9.37445 22.2128 9.37445 22.1524C9.37445 21.973 9.20391 21.6959 8.8236 21.2571C7.94826 20.2474 7.76852 19.997 7.12998 18.8972C7.01098 18.6923 6.53525 17.7862 6.42353 17.5518C6.27758 17.2454 6.01929 16.9828 5.86397 16.9828C5.79397 16.9828 5.73665 16.9562 5.73665 16.9238C5.73665 16.8914 5.70176 16.8648 5.6591 16.8648C5.57124 16.8648 4.74452 16.0043 4.74452 15.9128C4.74452 15.8183 4.42445 15.5014 4.38972 15.5616C4.3496 15.631 4.40686 15.8034 4.51457 15.9375C4.74683 16.2266 4.24779 16.1799 3.91637 15.8816L3.75239 15.734V16.2089C3.75239 16.5277 3.78215 16.7507 3.84289 16.887C3.93108 17.0848 3.91747 17.2776 3.81534 17.2776C3.78739 17.2776 3.61669 17.1189 3.4359 16.9249C3.11208 16.5774 3.03585 16.5451 3.03585 16.7554C3.03585 16.8141 2.97385 16.9056 2.89806 16.9587C2.82227 17.0119 2.76026 17.0829 2.76026 17.1166C2.76026 17.1503 2.65934 17.2865 2.53599 17.4194C2.41263 17.5522 2.26288 17.7177 2.20313 17.7872C2.14343 17.8566 2.03353 17.9259 1.9589 17.9411C1.70464 17.9931 1.79862 17.7472 2.20114 17.3073C2.40894 17.0802 2.6632 16.7991 2.76611 16.6827C2.86901 16.5663 2.98889 16.4584 3.03249 16.4431C3.09191 16.4222 3.12564 16.226 3.16698 15.6602C3.22982 14.8017 3.19658 14.6673 2.87937 14.4969C2.4747 14.2793 2.24474 13.9289 1.83312 12.9029C1.54358 12.1811 1.51079 11.1724 1.75287 10.4347C1.90902 9.9591 1.89744 9.78869 1.70894 9.78869C1.57329 9.78869 1.57803 9.60825 1.729 9.0221C1.78048 8.82226 1.82673 8.27946 1.84949 7.6077C1.88736 6.4922 1.967 6.08727 2.18714 5.89179C2.2771 5.81194 2.39351 5.38779 2.34737 5.308C2.32747 5.27357 2.26414 5.27351 2.17959 5.30789C2.08099 5.34804 2.04389 5.34338 2.04422 5.2909C2.04516 5.15823 2.29859 4.65594 2.34147 4.70175C2.3805 4.74344 2.3665 4.5653 2.28586 3.99555C2.25874 3.80367 2.27147 3.7677 2.38342 3.71958C2.49029 3.67365 2.90401 3.29324 3.31856 2.85977C3.40118 2.77338 3.41137 2.7873 3.44599 3.03414L3.48358 3.30244L3.70912 3.26388C3.8726 3.23587 3.92381 3.24395 3.89537 3.29324C3.87376 3.33057 3.80801 3.36118 3.74914 3.36118C3.69027 3.36118 3.64215 3.39261 3.64215 3.43111C3.64215 3.46956 3.59563 3.55577 3.53875 3.62276C3.4138 3.76982 3.34363 4.30466 3.4493 4.30466C3.48733 4.30466 3.60749 4.26486 3.71634 4.21621C4.07974 4.05375 4.44005 4.09745 4.67645 4.33256L4.88231 4.53735L4.64442 4.53894C4.40058 4.54059 4.19334 4.62162 4.19334 4.71532C4.19334 4.82435 4.37225 4.95331 4.52349 4.95331C4.74501 4.95331 5.03014 5.13611 4.98335 5.24815C4.96301 5.2968 4.94438 5.42063 4.9419 5.52336C4.93721 5.71824 4.74893 5.98661 4.57547 6.04546C4.49979 6.07117 4.48089 6.13804 4.48772 6.35604C4.49544 6.59999 4.48183 6.63614 4.37649 6.65218C4.11793 6.69157 4.10504 6.83581 4.35081 6.93912C4.65473 7.06684 4.62574 7.48894 4.313 7.48894C4.2775 7.48894 4.24845 7.52874 4.24845 7.57739C4.24845 7.69055 4.41723 7.69055 4.67033 7.57739C5.07324 7.3973 5.13084 7.44671 4.95953 7.82535C4.82676 8.11871 4.84825 8.26171 5.01785 8.21424C5.16215 8.17391 5.57129 8.46609 5.57129 8.6095C5.57129 8.66564 5.47831 8.77975 5.3646 8.86313C5.25094 8.94645 5.07964 9.08927 4.98395 9.18055C4.88827 9.27177 4.76425 9.37697 4.70836 9.4143C4.5968 9.48878 4.6216 9.50771 4.92365 9.57853C5.11431 9.62316 5.15774 10.2032 4.97877 10.3147C4.89819 10.3649 4.91037 10.3751 5.05291 10.3766C5.15179 10.3776 5.26544 10.428 5.32326 10.4963C5.44413 10.6392 5.61709 10.6499 5.66466 10.5173C5.68776 10.4528 5.65028 10.382 5.55266 10.306C5.38036 10.1717 5.36366 9.98157 5.50664 9.78191C5.80764 9.36158 5.90817 8.94609 5.73665 8.83152C5.60723 8.74501 5.59036 8.60933 5.70909 8.60933C5.75456 8.60933 5.83828 8.55956 5.89511 8.49876C5.95194 8.43797 6.02734 8.37788 6.06267 8.36532C6.1567 8.33177 5.99168 7.62244 5.77798 7.14138C5.61963 6.78498 5.60464 6.7 5.60188 6.14264C5.59918 5.6045 5.58601 5.52318 5.48861 5.44499C5.42798 5.39634 5.34007 5.32552 5.29322 5.2876C5.10659 5.13658 4.99343 4.66006 5.12147 4.56412C5.33081 4.40727 5.40588 4.29741 5.41244 4.13832C5.42302 3.8831 5.40445 3.82236 5.23562 3.55984C5.0329 3.2446 5.00798 2.77297 5.18546 2.6104C5.24609 2.55485 5.2957 2.47554 5.2957 2.43408C5.2957 2.39263 5.3205 2.35872 5.35082 2.35872C5.38113 2.35872 5.40594 2.42223 5.40594 2.49983C5.40594 2.66476 5.5358 2.737 5.68191 2.65332C5.73836 2.62101 5.79854 2.59459 5.81569 2.59459C5.86816 2.59459 5.85041 2.83123 5.78873 2.95453C5.65209 3.22755 5.77969 3.3219 6.0248 3.12908C6.2805 2.92788 6.34295 2.94014 6.34295 3.19164C6.34295 3.43489 6.4329 3.59363 6.61782 3.67677L6.77375 3.74694L6.61347 3.99838C6.42557 4.29322 6.42325 4.30437 6.54964 4.30555C6.71659 4.30714 6.79982 4.40414 6.8093 4.60835C6.81432 4.71703 6.82308 4.90679 6.82876 5.03009C6.83752 5.22191 6.86288 5.26319 7.00437 5.31596C7.19915 5.38861 7.20709 5.42358 7.05948 5.55879C6.88503 5.7186 6.91601 5.93183 7.12491 6.00972C7.3596 6.09729 7.27081 6.18439 6.89881 6.2315C6.57058 6.27313 6.54258 6.31129 6.60487 6.63207C6.64042 6.81517 6.6822 6.87242 6.81305 6.91759C7.13918 7.03005 7.22462 7.27848 6.99367 7.44253C6.86095 7.53682 6.86718 7.55221 7.16972 7.8793C7.31463 8.03598 7.74548 8.37346 7.8006 8.37346C7.8183 8.37346 7.96364 8.46639 8.12354 8.57996C8.36281 8.74991 8.49581 8.79738 8.87568 8.84832C9.1295 8.88241 9.38112 8.93542 9.43486 8.96614C9.4886 8.99692 9.62722 9.02222 9.74286 9.02234C9.86566 9.02246 10.0908 9.09599 10.2839 9.19901C10.4658 9.29607 10.6814 9.37556 10.7629 9.37568C10.8445 9.37579 10.9266 9.40245 10.9453 9.43488C10.9641 9.46731 10.931 9.49385 10.872 9.49385C10.6246 9.49385 10.5019 9.69027 10.6046 9.92184C10.6556 10.0368 10.6973 10.1717 10.6973 10.2216C10.6973 10.4166 10.8292 10.3873 11.0373 10.1462L11.2523 9.89707L11.9311 9.91659C12.9602 9.94619 13.038 10.1485 12.2413 10.7228C11.6321 11.1621 11.1382 11.7906 11.1382 12.1268C11.1382 12.3077 11.2543 12.5012 11.3626 12.5012C11.3908 12.5012 11.4138 12.5549 11.4138 12.6204C11.4138 12.8431 11.9592 13.5125 12.1239 13.4921C12.2675 13.4742 12.2743 13.4586 12.2899 13.1056C12.2974 12.9359 12.4944 12.9244 12.5437 13.0909C12.5893 13.2443 12.7404 13.2403 13.0282 13.078C13.1558 13.006 13.3524 12.9447 13.4649 12.9416C13.5775 12.9386 13.7172 12.8901 13.7754 12.8338C13.8335 12.7775 13.9764 12.7033 14.0929 12.6689C14.2094 12.6345 14.419 12.4964 14.5587 12.3621C14.7076 12.219 14.8731 12.1144 14.9585 12.1095C15.0387 12.1049 15.1812 12.0319 15.2751 11.9473C15.369 11.8628 15.5024 11.7936 15.5714 11.7936C15.6404 11.7936 15.847 11.7768 16.0306 11.7563L16.3643 11.7189L16.5113 12.0515C16.641 12.3445 16.6529 12.4206 16.6119 12.6932L16.5653 13.0024H16.3184H16.0713V13.4152C16.0713 13.6422 16.0511 13.9127 16.0263 14.0162C15.9991 14.13 16.0039 14.2496 16.0385 14.3187C16.0881 14.4179 16.0738 14.4378 15.9319 14.4682C15.7277 14.5118 15.7277 14.5584 15.9322 14.873C16.2189 15.314 16.2136 15.5604 15.9115 15.8449C15.6352 16.1051 15.6125 16.1795 15.7471 16.385C15.8117 16.4839 15.8255 16.5804 15.7973 16.7372C15.7759 16.8561 15.7604 17.0139 15.7628 17.088C15.768 17.2451 15.6591 17.3055 15.4649 17.2534C15.3644 17.2264 15.3272 17.177 15.3272 17.0701C15.3272 16.9896 15.3065 16.9238 15.2813 16.9238C15.1935 16.9238 15.166 16.9989 15.2168 17.1003C15.2516 17.1699 15.2428 17.2377 15.189 17.3137C15.0767 17.4725 15.0855 17.5013 15.2859 17.6321C15.5561 17.8083 15.893 17.7869 16.1867 17.5749C16.3196 17.479 16.5268 17.3721 16.6471 17.3374C16.7674 17.3028 16.8804 17.2493 16.8981 17.2187C16.955 17.1201 17.298 16.9858 17.903 16.8252C18.0949 16.7743 18.2854 16.8498 18.4816 17.0545C18.665 17.2459 18.6924 17.2865 18.8762 17.6384C19.0043 17.8838 19.3549 18.28 19.444 18.28C19.5518 18.2801 19.5859 18.3965 19.5078 18.4973C19.4676 18.5491 19.4342 18.727 19.4336 18.8928C19.4329 19.0603 19.3898 19.2832 19.3365 19.3948C19.2838 19.5052 19.2406 19.6875 19.2406 19.7999C19.2406 20.0491 19.0075 20.4553 18.7591 20.639C18.5848 20.7679 18.4138 21.0496 18.4138 21.2081C18.4138 21.2517 18.3908 21.2874 18.3626 21.2874C18.3345 21.2874 18.2703 21.3316 18.2199 21.3855C18.1484 21.4619 18.1187 21.4669 18.0849 21.4085C17.9411 21.1595 16.3193 22.1368 16.3193 22.4724C16.3193 22.55 16.3703 22.5824 16.5134 22.5959C16.6201 22.606 16.7083 22.6408 16.7092 22.6732C16.7122 22.771 16.55 22.7757 16.3763 22.683C15.9958 22.48 15.8365 22.4994 15.2445 22.8215C14.69 23.1232 14.0902 23.4772 13.8375 23.6518C13.7625 23.7036 13.6144 23.8027 13.5083 23.872L13.3154 23.998L16.0897 23.999C18.0441 23.9997 18.8581 23.9812 18.8442 23.9366C18.8207 23.8612 18.8156 23.8607 18.6179 23.9138C18.4212 23.9666 18.3536 23.8972 18.4966 23.7892C18.5572 23.7434 18.706 23.6121 18.8272 23.4974C18.9485 23.3827 19.2709 23.1015 19.5438 22.8727C19.8166 22.6438 20.1306 22.3562 20.2415 22.2336C20.3525 22.1111 20.5633 21.9502 20.71 21.8761C21.0408 21.7091 21.2249 21.5365 21.2249 21.3932C21.2249 21.0553 20.741 21.2417 20.2603 21.7649C19.8246 22.2391 19.4303 22.5768 18.7681 23.0429C18.5371 23.2055 18.3327 23.2783 18.2237 23.2369C18.0643 23.1763 17.8365 22.704 17.8792 22.5224C17.9259 22.3231 19.209 20.9405 19.53 20.7435C19.75 20.6084 19.7918 20.5547 19.7918 20.4074C19.7918 20.1366 20.084 19.8729 20.3843 19.8725C20.5131 19.8723 20.6186 19.863 20.6186 19.8518C20.6186 19.8405 20.5778 19.744 20.5279 19.6371C20.3948 19.3516 20.3564 18.6473 20.4714 18.6001C20.5914 18.5509 21.1151 18.7434 21.1537 18.8509C21.2001 18.9806 21.4424 19.0637 21.5347 18.9817C21.638 18.89 21.6305 18.8351 21.4963 18.7013C21.3242 18.5298 21.3686 18.2566 21.5726 18.2316C21.749 18.21 21.8033 18.1093 21.7534 17.8967C21.7026 17.68 21.4743 17.6935 21.4014 17.9174C21.3554 18.0585 21.3077 18.0911 21.1042 18.121C20.9708 18.1406 20.7884 18.1975 20.6988 18.2475C20.4177 18.4043 19.8576 18.2457 19.8492 18.0069C19.8471 17.947 19.3158 17.6314 19.2171 17.6314C19.0929 17.6314 18.8634 17.2622 18.7589 16.8943C18.4881 15.9408 18.5296 15.8413 19.1909 15.8569L19.655 15.8678L19.8474 15.653C19.9532 15.5349 20.1018 15.4096 20.1776 15.3747C20.3036 15.3167 20.2889 15.3079 20.0064 15.2712C19.7077 15.2324 19.3166 15.0115 19.1371 14.7803C19.099 14.731 18.996 14.6738 18.9086 14.6533C18.7386 14.6133 18.6187 14.3839 18.7443 14.3391C18.7826 14.3255 18.9474 14.185 19.1105 14.027C19.4639 13.6845 19.4404 13.6877 19.6792 13.9506C19.8721 14.163 20.3586 14.4472 20.5292 14.4472C20.6491 14.4472 20.7322 14.2153 20.6629 14.074C20.5572 13.8584 20.6456 13.7986 21.0716 13.7976C21.4874 13.7967 21.7034 13.7312 21.5281 13.6593C21.4776 13.6386 21.3923 13.6216 21.3384 13.6216C21.0751 13.6216 20.3078 13.0498 20.2792 12.8323C20.2745 12.7962 20.261 12.7002 20.2492 12.6192C20.1134 11.6829 20.1811 11.5888 20.8614 11.7685C21.2552 11.8726 21.2157 11.4513 20.8069 11.1872C20.6721 11.1001 20.5389 10.9688 20.5106 10.8953C20.0682 9.74104 20.0333 9.55771 20.2554 9.5537C20.3323 9.55234 20.8097 9.89206 20.9275 10.032C21.0747 10.2068 21.2192 10.2528 21.4732 10.2059C21.5943 10.1835 21.7728 10.1875 21.8699 10.2148C22.1239 10.2862 22.8842 10.1758 22.9455 10.0585C22.9722 10.0074 23.059 9.96559 23.1383 9.96559C23.3991 9.96559 23.2215 9.89347 22.8965 9.86741C22.6683 9.84907 22.5486 9.80768 22.4731 9.72099C22.3942 9.6303 22.3268 9.60889 22.2034 9.63531C22.059 9.66621 22.0424 9.65613 22.0676 9.55276C22.0885 9.46719 22.0526 9.40734 21.9362 9.33375C21.6733 9.16764 21.8464 8.70167 22.2166 8.5789C22.3698 8.52807 22.6579 8.25912 22.6579 8.16689C22.6579 8.13416 22.7342 8.07124 22.8275 8.02708C23.0006 7.94517 23.0884 7.81184 23.0185 7.73707C22.9971 7.71425 22.9507 7.73695 22.9152 7.78755C22.8798 7.83814 22.7392 7.94387 22.6028 8.02242C22.4664 8.10096 22.2956 8.21212 22.2233 8.26938C22.0559 8.40194 21.514 8.41237 21.3594 8.28595C21.3006 8.23783 21.1593 8.17043 21.0456 8.13623C20.5769 7.99518 20.5853 7.60687 21.0571 7.60687C21.3559 7.60687 21.407 7.57373 21.3339 7.42749C21.2857 7.33114 20.649 6.95858 20.5315 6.95793C20.444 6.95746 20.0822 6.57039 20.0418 6.434C19.9773 6.21664 20.1424 6.01491 20.3856 6.01385C20.6322 6.01285 20.8591 5.90051 20.883 5.76766C20.9051 5.6453 20.7986 5.61027 20.3042 5.57731C19.8529 5.54718 19.5404 5.28636 19.2657 4.71025C19.136 4.43846 18.7486 4.08247 18.376 3.89283C18.2207 3.81376 18.0026 3.62176 17.3366 2.97788C17.1856 2.83194 17.1622 2.7781 17.2026 2.67001C17.2636 2.50714 17.5393 2.58934 17.919 2.88359C18.0472 2.98296 18.1737 3.04982 18.2003 3.03231C18.2846 2.97653 18.2523 2.65692 18.1382 2.41769C18.0776 2.29055 18.028 2.14773 18.028 2.10032C18.028 1.98622 17.5418 1.54072 17.3666 1.49419C17.2908 1.47408 17.1636 1.42254 17.0839 1.37967C17.0042 1.33675 16.8554 1.29046 16.7532 1.27672C16.5054 1.24352 16.0939 1.03884 15.726 0.765817C15.4417 0.554653 15.3514 0.441552 15.2207 0.132678L15.1646 0H7.58448H0.0043526V9.81127ZM4.61009 2.86107C4.6119 3.02258 4.63241 3.19919 4.65567 3.25344C4.72683 3.4195 4.51809 3.49509 4.28097 3.38907C4.0341 3.27874 4.02241 3.12059 4.24845 2.9484C4.35687 2.86584 4.41381 2.77155 4.41381 2.67473C4.41381 2.56564 4.43905 2.53226 4.51027 2.54718C4.58611 2.56304 4.60744 2.63003 4.61009 2.86107ZM10.3702 2.83253C10.4289 2.86614 10.4768 2.92941 10.4768 2.97317C10.4768 3.19719 11.1015 3.34419 11.2485 3.15479C11.3228 3.05896 11.5543 3.03455 11.6022 3.11746C11.6185 3.14559 11.8159 3.18121 12.0411 3.19671C12.4292 3.22331 12.7774 3.38924 12.7887 3.55282C12.7955 3.65124 12.6141 3.58897 12.5885 3.48412C12.5661 3.39266 12.5278 3.3778 12.387 3.40605C12.2913 3.42522 12.0818 3.43695 11.9214 3.432C11.4519 3.41767 11.4886 3.74618 11.974 3.90174C12.2604 3.99355 12.2404 4.06879 11.9297 4.06879C11.7563 4.06879 11.6527 4.03766 11.6079 3.97208C11.5592 3.90085 11.427 3.86895 11.1058 3.85096C10.5469 3.81971 10.4217 3.7904 10.4217 3.69069C10.4217 3.64611 10.3822 3.59345 10.3339 3.57364C10.2626 3.54433 10.253 3.48318 10.2832 3.24849C10.3166 2.98862 10.3087 2.95542 10.2049 2.92015C10.1414 2.89857 10.1036 2.85629 10.121 2.82622C10.1621 2.75504 10.2383 2.75699 10.3702 2.83253ZM10.5319 4.30089C10.729 4.33155 11.0142 4.36116 11.1658 4.36664C11.5681 4.3812 11.6343 4.41069 11.6343 4.57544C11.6343 4.75701 11.5177 4.80695 10.9661 4.86144C10.4154 4.91593 10.3024 5.08139 10.5952 5.40459C10.8106 5.64235 10.9436 5.65303 11.1221 5.44693C11.2201 5.33383 11.2728 5.30954 11.3173 5.35712C11.3617 5.40465 11.3502 5.45537 11.2744 5.54488C11.189 5.64589 11.1824 5.68758 11.2369 5.7811C11.3307 5.94167 11.143 5.98195 10.5308 5.93253C10.0771 5.89592 10.0328 5.90264 9.84968 6.03555L9.65379 6.17778L9.9964 6.21534C10.1849 6.23598 10.5126 6.25975 10.7248 6.26806C11.2119 6.28723 11.2574 6.31736 11.2163 6.59321C11.1891 6.77601 11.2067 6.83368 11.3265 6.95374C11.4048 7.03241 11.4689 7.13124 11.4689 7.17346C11.4689 7.23018 11.5036 7.23602 11.602 7.19598C11.7617 7.13106 12.1509 7.22877 12.0979 7.32052C12.0552 7.39435 11.4144 7.33857 10.9729 7.22258C10.8061 7.17882 10.3684 7.1162 10.0003 7.08341C9.40228 7.03028 9.14736 6.96335 8.87838 6.7891C8.83291 6.75962 8.64689 6.66079 8.465 6.56939C8.28311 6.47805 8.05988 6.34914 7.96893 6.28292C7.87799 6.2167 7.793 6.15555 7.78004 6.147C7.73418 6.11669 7.97108 5.96084 8.1172 5.92516C8.22634 5.89851 8.26999 5.84721 8.28256 5.73075C8.3035 5.53662 8.50606 5.48444 8.66001 5.63345C8.77427 5.74413 8.93135 5.73358 9.42146 5.58244C9.88142 5.44062 9.86417 5.34969 9.36331 5.27598C9.21786 5.25458 9.09886 5.20847 9.09886 5.17356C9.09886 5.13859 9.06154 5.06594 9.01596 5.01199C8.94039 4.92271 8.94778 4.91398 9.09864 4.91398C9.39451 4.91398 9.39798 4.69928 9.10321 4.62999C8.73689 4.54396 8.86637 4.43174 9.50982 4.27742C9.69303 4.23349 9.91736 4.20825 10.0083 4.22128C10.0993 4.23437 10.3349 4.27017 10.5319 4.30089ZM10.6183 7.78041C11.1671 7.81462 11.5223 7.86503 11.6655 7.92913L11.8823 8.02613L11.75 8.13298C11.5937 8.25935 10.8427 8.33395 10.5698 8.25021C10.2035 8.13782 10.0359 8.17656 10.0359 8.37346C10.0359 8.47075 10.0152 8.55036 9.98995 8.55036C9.90011 8.55036 9.8752 8.47429 9.92943 8.36585C9.97722 8.27032 9.94426 8.23553 9.67842 8.10085C9.35295 7.93597 9.29243 7.87807 9.34689 7.78378C9.38762 7.71325 9.53424 7.7129 10.6183 7.78041ZM13.4877 8.25552C13.532 8.25552 13.5643 8.28872 13.5593 8.32923C13.5405 8.48414 13.5681 8.53367 13.7121 8.6039C13.8312 8.66199 13.8449 8.68716 13.781 8.73039C13.654 8.81636 13.3238 8.79484 13.1861 8.69165C13.0755 8.60874 12.9975 8.60555 12.5538 8.66564C11.375 8.82533 11.1472 8.81064 11.4689 8.59565C11.5296 8.55514 11.5792 8.49121 11.5792 8.45359C11.5792 8.40954 11.7507 8.37304 12.0615 8.35099C12.3267 8.33218 12.705 8.29397 12.902 8.26602C13.0991 8.23801 13.2933 8.22427 13.3337 8.23535C13.374 8.24644 13.4433 8.25552 13.4877 8.25552ZM8.16185 9.44113C8.16185 9.47698 8.09967 9.58537 8.02367 9.68196C7.84922 9.90379 7.8652 9.9272 8.27484 10.0502C8.55297 10.1337 8.63057 10.1862 8.72273 10.3532C8.89101 10.6583 9.33261 10.6586 9.45172 10.3536C9.54344 10.1187 9.70538 10.0076 9.88528 10.0559C9.98295 10.0821 10.0531 10.0425 10.1866 9.88551C10.3868 9.65011 10.3752 9.63867 9.87514 9.57817C9.69171 9.556 9.5134 9.5014 9.47884 9.45687C9.40928 9.36713 9.05868 9.3489 8.94067 9.42886C8.88533 9.46637 8.91724 9.49845 9.06016 9.54886C9.22442 9.60689 9.42957 9.82077 9.42957 9.93404C9.42957 9.95138 9.35279 9.96559 9.25892 9.96559C9.03442 9.96559 8.27208 9.57776 8.27208 9.46354C8.27208 9.41536 8.24728 9.37591 8.21697 9.37591C8.18665 9.37591 8.16185 9.40528 8.16185 9.44113ZM14.9229 9.82454C14.9886 9.84341 15.057 9.92148 15.075 9.99808C15.0942 10.0803 15.1866 10.1775 15.3001 10.2351C15.562 10.368 15.5617 10.5571 15.2997 10.6908C15.1936 10.745 15.1067 10.8133 15.1067 10.8428C15.1067 10.8723 14.8033 10.8939 14.4315 10.8909C13.9026 10.8866 13.6951 10.9091 13.4737 10.9948C12.9813 11.1853 12.8575 10.9805 13.2228 10.5798C13.4759 10.3022 13.7942 10.0895 14.0266 10.0425C14.1205 10.0235 14.2469 9.98057 14.3075 9.94702C14.3968 9.89772 14.623 9.8246 14.776 9.79553C14.7912 9.79264 14.8573 9.80573 14.9229 9.82454ZM4.53595 11.0864C4.34508 11.5931 4.33014 11.8823 4.46347 12.4897C4.56031 12.931 4.57062 13.0704 4.52212 13.2794C4.42605 13.6928 4.42764 13.6993 4.6334 13.7459C4.81215 13.7862 4.95391 13.9169 5.11331 14.1881C5.22482 14.3777 5.20167 13.8743 5.08173 13.5016C5.02474 13.3243 4.9624 12.9803 4.94322 12.7371C4.90679 12.2744 4.76574 11.2418 4.69767 10.939C4.65831 10.7641 4.65683 10.7654 4.53595 11.0864ZM14.0017 11.7667C14.2391 11.7788 14.2583 11.8365 14.0971 12.0521C13.9601 12.2353 13.8283 12.2577 13.4256 12.1665C12.9681 12.0628 13.1565 11.6251 13.6185 11.7182C13.7247 11.7396 13.8971 11.7614 14.0017 11.7667ZM2.22479 12.1916C2.30614 13.0573 2.97159 14.2662 3.17393 13.916C3.21863 13.8386 3.03558 13.0319 2.97329 13.0319C2.94706 13.0319 2.92363 12.9059 2.92126 12.7518C2.91889 12.5977 2.9044 12.5049 2.88913 12.5454C2.85617 12.6328 2.65003 12.6455 2.65003 12.5602C2.65003 12.5278 2.60174 12.4496 2.54271 12.3864C2.48368 12.3232 2.39626 12.1906 2.34842 12.0916C2.22683 11.8401 2.1942 11.8665 2.22479 12.1916ZM8.14581 12.7739C8.12503 12.7961 7.81664 12.8169 7.46047 12.8199C6.8874 12.8249 6.81079 12.8375 6.7942 12.9299C6.76146 13.1115 7.12496 13.2274 7.73468 13.2298C8.03028 13.2309 8.27208 13.25 8.27208 13.2721C8.27208 13.356 8.12431 13.4331 7.84216 13.4968C7.35343 13.607 6.72877 14.0412 6.72877 14.2707C6.72877 14.3315 6.70144 14.3993 6.66803 14.4214C6.63463 14.4435 6.57025 14.5564 6.525 14.6722C6.42623 14.9252 6.51613 15.0368 6.81873 15.0368C6.91728 15.0368 7.01318 15.0634 7.03192 15.0958C7.05155 15.1298 7.34604 15.1548 7.72779 15.1548C8.09174 15.1548 8.437 15.1819 8.49493 15.2151C8.56537 15.2554 8.63267 15.2559 8.69798 15.2166C8.75172 15.1842 8.88875 15.1186 9.0024 15.0708C9.21637 14.9808 9.27187 14.8328 9.14317 14.6951C9.09197 14.6403 9.10123 14.6051 9.18451 14.5377C9.333 14.4176 9.3675 14.4253 9.43976 14.595C9.52134 14.7865 9.66635 14.6671 9.82256 14.2801C10.0103 13.8148 9.93147 13.5408 9.54994 13.332C9.43827 13.2709 9.2813 13.142 9.20116 13.0455C9.07675 12.8957 9.00086 12.8639 8.68172 12.8273C8.47619 12.8037 8.28002 12.773 8.24585 12.759C8.21162 12.7449 8.16664 12.7517 8.14581 12.7739ZM8.59629 14.1185C8.6594 14.1603 8.62423 14.2278 8.33608 14.6182C8.23648 14.7531 8.22556 14.7551 8.10177 14.6624C8.03039 14.6088 7.92043 14.5651 7.85743 14.5651C7.6218 14.5651 7.53179 14.3041 7.70392 14.1199C7.79922 14.018 8.44267 14.017 8.59629 14.1185ZM5.51783 15.4049C5.51667 15.5604 5.4836 15.6473 5.40594 15.6992C5.22162 15.8224 5.26842 15.9944 5.62299 16.4974C5.85289 16.8234 5.97211 16.6534 5.78653 16.2643C5.72358 16.1322 5.65854 15.8751 5.64195 15.6927C5.60458 15.2824 5.52025 15.0868 5.51783 15.4049ZM12.829 15.6707C12.8476 15.7275 12.9307 15.8535 13.0136 15.9508C13.0965 16.0481 13.1917 16.1847 13.225 16.2544C13.2847 16.379 13.759 16.484 13.816 16.3853C13.9679 16.1223 13.4361 15.5716 13.0277 15.569C12.8299 15.5678 12.8003 15.5829 12.829 15.6707ZM12.5989 16.9873C12.4749 17.0875 12.3601 17.2396 12.3366 17.3351C12.2679 17.6133 11.598 17.7683 11.2002 17.598C11.0461 17.532 10.9061 17.5136 10.7661 17.5407C10.6525 17.5627 10.4603 17.5861 10.339 17.5927C10.1114 17.6051 10.1118 17.6044 10.1369 17.9263C10.1475 18.0621 10.2563 18.089 10.2563 17.9558C10.2563 17.9071 10.2874 17.8638 10.3252 17.8594C10.5012 17.8392 10.9002 17.8855 10.9901 17.9365C11.0627 17.9778 11.1497 17.96 11.3088 17.8713C11.4963 17.7667 11.532 17.762 11.5593 17.838C11.5866 17.9139 11.7118 17.9647 12.3003 18.1381C12.3897 18.1645 12.5162 17.9482 12.5162 17.7688C12.5162 17.7176 12.6142 17.5187 12.734 17.3268C13.0425 16.8327 12.9811 16.6785 12.5989 16.9873ZM18.3036 17.4474C18.3036 17.4759 18.2271 17.5331 18.1336 17.5745C17.9546 17.6538 17.8627 17.8292 17.8627 18.0914C17.8627 18.2884 17.5914 18.8717 17.4783 18.918C17.432 18.937 17.3123 19.0119 17.2123 19.0844C17.1123 19.157 16.9389 19.2486 16.827 19.2881C16.5668 19.38 16.0929 19.688 15.9986 19.8265C15.906 19.9626 15.4233 20.226 15.2666 20.226C15.1412 20.226 14.8293 19.9094 14.657 19.6072L14.5559 19.43L14.5558 19.632C14.5556 19.8015 14.4979 19.8965 14.197 20.2217C13.6861 20.7741 13.6737 20.7892 13.6737 20.8603C13.6737 20.8956 13.5397 21.047 13.376 21.1966C12.9958 21.5441 12.9524 21.7043 13.1742 21.9416C13.3536 22.1335 13.7301 22.1122 13.8041 21.906C13.8451 21.7915 14.0044 21.792 14.0044 21.9066C14.0044 21.9557 13.9554 21.9951 13.8941 21.9951C13.8335 21.9951 13.7839 22.0253 13.7839 22.0623C13.7839 22.1716 12.5869 23.372 12.381 23.4693C12.2817 23.5161 11.9099 23.8959 11.9099 23.9505C11.9099 23.9777 12.0636 24 12.2514 24C12.6651 24 12.6315 24.0224 14.1434 22.7322C14.7515 22.2132 15.3918 21.6825 15.5664 21.5528C16.0541 21.1905 16.5949 20.598 16.5949 20.426C16.5949 20.3417 16.6352 20.2658 16.6914 20.244C16.9282 20.1525 17.7068 19.3741 17.8242 19.1114C17.9233 18.8896 17.9991 18.8129 18.2408 18.6896C18.7054 18.4526 18.7698 18.2534 18.5523 17.7272C18.4326 17.4375 18.3036 17.2924 18.3036 17.4474ZM14.2557 18.4884C14.1968 18.5359 14.0888 18.5749 14.0156 18.5749C13.9424 18.5749 13.8088 18.6413 13.7187 18.7223C13.6286 18.8034 13.4886 18.8866 13.4076 18.907C13.3266 18.9275 13.2054 18.9975 13.1383 19.0626C13.0713 19.1277 12.9694 19.2105 12.9119 19.2465C12.8545 19.2825 12.7053 19.385 12.5803 19.4742C12.3954 19.6062 12.2913 19.6363 12.0217 19.6363C11.75 19.6363 11.6779 19.6576 11.6215 19.7543C11.571 19.8407 11.493 19.8722 11.3289 19.8722C11.1204 19.8722 10.9729 19.9504 10.9729 20.0609C10.9729 20.0869 11.1031 20.1089 11.2622 20.11C11.4292 20.111 11.597 20.1486 11.659 20.1987C11.7838 20.2997 11.9241 20.2666 12.1579 20.0812C12.2489 20.009 12.5015 19.8925 12.7192 19.8222C12.937 19.7519 13.1886 19.6282 13.2784 19.5474C13.3681 19.4666 13.4799 19.4005 13.5268 19.4005C13.5737 19.4005 13.6287 19.3716 13.6491 19.3364C13.6694 19.3011 13.7332 19.2854 13.7907 19.3015C13.8482 19.3176 13.9713 19.3001 14.0641 19.2627C14.2086 19.2042 14.2406 19.2092 14.2867 19.2975C14.3679 19.4528 14.4453 19.4212 14.4453 19.2327C14.4453 19.1398 14.4945 19.0173 14.5556 18.9582C14.7061 18.8124 14.695 18.6089 14.5299 18.4932C14.3687 18.3803 14.3888 18.3806 14.2557 18.4884ZM21.1335 20.4942C21.0015 20.8623 21.2999 21.4148 21.5927 21.3441C21.8627 21.279 21.8663 21.2652 21.7032 20.9191C21.4633 20.4101 21.227 20.2338 21.1335 20.4942ZM23.6776 22.3165C23.526 22.3951 23.3648 22.4754 23.3194 22.4949C23.1398 22.572 22.9954 22.6849 22.8628 22.8521C22.575 23.2148 22.0516 23.3519 22.0516 23.0645C22.0516 23.0053 22.002 22.9088 21.9414 22.8501C21.8808 22.7914 21.8312 22.7109 21.8312 22.6712C21.8312 22.6316 21.7905 22.5632 21.7409 22.5191C21.6616 22.4486 21.6094 22.4866 21.3057 22.8364C21.1159 23.0549 20.8651 23.2805 20.7483 23.3378C20.6315 23.395 20.4169 23.5176 20.2714 23.6102C20.126 23.7028 19.8656 23.8266 19.6927 23.8852L19.3784 23.9918L21.0348 23.9957L22.6912 23.9996L22.9241 23.7602C23.0523 23.6285 23.2157 23.4229 23.2873 23.3033C23.455 23.0235 23.7394 22.7177 23.8748 22.6718C23.9618 22.6422 24.0495 22.168 23.967 22.1727C23.9594 22.1732 23.8292 22.2379 23.6776 22.3165Z" fill="black"/>
</svg>
