<svg width="24" height="24" viewBox="0 0 24 24" fill="none" xmlns="http://www.w3.org/2000/svg">
<path fill-rule="evenodd" clip-rule="evenodd" d="M0.0134735 14C0.00469971 12.7241 0 11.2784 0 9.70367V0H12H24V12V24H12C8.96291 24 6.6944 23.9998 5 23.9941V24H0V23.6735V21.0997V14H0.0134735ZM15.3333 1.56375C15.3333 1.63756 15.2433 1.6098 15.1333 1.50204C15.0233 1.39429 14.7422 1.30841 14.5083 1.31134C14.11 1.31624 14.1025 1.33078 14.3885 1.54318C14.6782 1.75821 14.674 1.77306 14.3052 1.83495C13.9445 1.89568 13.9523 1.90988 14.4167 2.03397C15.0708 2.20865 15.3688 2.44946 15.2635 2.71837C15.2112 2.85176 15.3423 2.97568 15.603 3.03984C15.9145 3.11641 16.0058 3.22563 15.946 3.44963C15.8875 3.66922 15.9538 3.7551 16.1823 3.7551C16.357 3.7551 16.5 3.8338 16.5 3.92996C16.5 4.17159 16.0705 4.57028 15.8035 4.57666C15.6825 4.57942 15.4388 4.68898 15.2622 4.81975C14.9563 5.04652 14.9663 5.06285 15.4732 5.16212C15.9087 5.24734 15.9698 5.30841 15.8095 5.49763C15.6812 5.64899 15.4522 5.69405 15.1465 5.62825C14.8897 5.57306 14.5453 5.60425 14.3813 5.6978C14.1465 5.83151 14.1363 5.87151 14.3333 5.88588C14.4708 5.89584 14.7883 5.91885 15.0387 5.93681C15.2892 5.95494 15.5768 6.05078 15.6778 6.14972C15.8762 6.34399 15.3257 6.57404 13.3782 7.11053C12.7017 7.29698 12.3068 7.49796 12.2455 7.68735C12.1938 7.84702 11.9487 8.04391 11.701 8.12489L11.2505 8.272L11.917 8.71608C12.2835 8.96033 12.839 9.32164 13.1513 9.51886C14.1697 10.162 14.3275 10.5308 14.1428 11.8367C14.054 12.4653 14.0228 13.4673 14.0733 14.0632L14.1655 15.1468L13.6243 15.2266C13.3268 15.2705 13.0578 15.2406 13.0267 15.16C12.9953 15.0795 12.7503 14.9024 12.482 14.7664C12.0415 14.5432 11.984 14.5446 11.8915 14.7807C11.7662 15.1007 12.1513 15.8472 12.4973 15.9549C12.6363 15.9984 12.975 16.1347 13.25 16.2581C13.7487 16.4818 13.7477 16.4825 12.8622 16.486L11.9745 16.4898L12.4697 16.898C12.742 17.1225 13.0808 17.3061 13.2225 17.3061C13.3643 17.3061 13.5267 17.3796 13.5833 17.4694C13.6482 17.5723 13.2628 17.6327 12.5432 17.6327C11.4287 17.6327 11 17.7966 11 18.2225C11 18.5275 12.3258 19.4124 12.9563 19.5283C13.6187 19.65 14.1395 19.2627 14.5997 18.3068C14.7565 17.9809 15.0525 17.4939 15.2577 17.2245C15.4628 16.9551 15.944 16.12 16.327 15.3687C16.71 14.6173 17.1708 13.8477 17.351 13.6581C17.7912 13.1954 18.1795 11.902 17.9593 11.6327C17.7963 11.4331 17.904 11.2181 18.454 10.6464C18.7977 10.289 19.2885 8.47495 19.391 7.18367C19.4525 6.40849 19.4353 6.1089 19.344 6.36734L19.1998 6.77551L19.1833 6.39249C19.158 5.80832 18.6615 4.2449 18.5013 4.2449C18.2148 4.2449 18.1543 5.16376 18.4093 5.64278C18.6893 6.16882 18.779 7.93715 18.504 7.51102C18.4175 7.37682 18.3475 7.0462 18.3485 6.77632C18.3522 5.85518 18.2428 5.63527 17.7532 5.57878C17.4963 5.54906 17.2398 5.59837 17.183 5.68832C17.1263 5.77812 16.8745 5.90221 16.6233 5.96391C16.2585 6.05371 16.1667 6.01991 16.1667 5.79608C16.1667 5.60376 16.2522 5.54825 16.4398 5.61877C16.8613 5.77715 17.6663 5.35918 17.669 4.98058C17.6702 4.80049 17.7162 4.48865 17.7712 4.28767C17.839 4.03984 17.7868 3.89061 17.6088 3.82367C17.2282 3.68065 15.8333 2.27885 15.8333 2.03935C15.8333 1.92751 15.7208 1.74449 15.5833 1.63266C15.4458 1.52081 15.3333 1.48979 15.3333 1.56375ZM5.16667 5.38139C5.16667 4.89519 6.20483 3.36 7.03217 2.62302C7.67867 2.04718 7.63901 2.02203 6.7825 2.46465C6.09 2.82269 5.33667 3.85503 4.89766 5.04718C4.74617 5.45894 4.30034 6.49388 3.907 7.34694C2.85884 9.62041 2.4135 11.2126 2.64833 11.8485C2.75084 12.1262 2.79916 12.7146 2.75583 13.1562C2.71249 13.5979 2.72 13.8194 2.77234 13.6487C2.82466 13.4777 3.00983 13.0898 3.18384 12.7865C3.35767 12.4831 3.50183 11.9984 3.504 11.7094C3.50616 11.4202 3.577 10.8916 3.6615 10.5347C3.76134 10.1133 3.7565 9.85028 3.64783 9.78448C3.39917 9.63396 3.62683 8.91266 4.44099 7.27266C4.84016 6.46857 5.16667 5.61763 5.16667 5.38139ZM15.6667 11.1045C15.4522 10.9566 15.4727 10.8862 15.8102 10.609C16.2013 10.2877 16.7692 10.2075 17.4278 10.3807C17.7002 10.4524 17.7573 10.5714 17.7005 10.95C17.6282 11.4335 17.4393 11.5654 17.2498 11.265C17.193 11.175 16.8698 11.1407 16.5317 11.1891C16.1933 11.2372 15.8042 11.1992 15.6667 11.1045ZM11.781 12.9239C12.5733 12.241 13.1045 11.0637 12.7502 10.7757C12.6355 10.6824 12.1885 10.5802 11.757 10.5486C11.0583 10.4973 10.9813 10.5244 11.0538 10.7966C11.1527 11.1665 10.7953 11.2057 10.5 10.8571C10.2033 10.5069 9.959 10.5548 10.0833 10.9388C10.144 11.126 10.1133 11.2653 10.0112 11.2653C9.69917 11.2653 9.81799 12.3451 10.1797 12.7953C10.797 13.5642 11.0177 13.582 11.781 12.9239ZM10.758 22.1825C10.8822 22.0598 11.2472 21.4633 11.569 20.8571C11.9123 20.2103 12.0707 19.7577 11.952 19.7613C11.8408 19.7647 11.6533 19.8749 11.5352 20.0062C11.4168 20.1375 11.1357 20.2449 10.9102 20.2449C10.3143 20.2449 9.77716 20.8167 9.99617 21.2175C10.09 21.3891 10.1667 21.6771 10.1667 21.8571C10.1667 22.2911 10.476 22.4614 10.758 22.1825Z" fill="black"/>
</svg>
