<svg width="24" height="24" viewBox="0 0 24 24" fill="none" xmlns="http://www.w3.org/2000/svg">
<path fill-rule="evenodd" clip-rule="evenodd" d="M0.389478 0.737107C0.389478 1.14245 0.518472 1.7546 0.676259 2.09769C1.13311 3.09124 0.99337 3.46654 0.524998 2.50347L0.101544 1.63269L0.0437658 3.02179C-0.00614257 4.2215 0.0462613 4.4849 0.427677 4.9536L0.869366 5.4963L0.437467 5.34588C0.0182358 5.19959 0.00556671 5.23964 0.00556671 6.71059V8.22573L0.7254 8.58036L1.44523 8.93498L0.7254 8.8651L0.00556671 8.79522V11.2821V13.7691L0.591031 13.6363C0.954019 13.554 1.13196 13.5849 1.05959 13.7179C0.995289 13.8359 0.731926 13.9323 0.47413 13.9323C0.216334 13.9323 0.00556671 14.0303 0.00556671 14.15C0.00556671 14.2698 0.102504 14.3677 0.220941 14.3677C0.374505 14.3677 0.377768 14.448 0.232266 14.6466C0.103656 14.8225 0.0230347 16.5932 0.0140127 19.4358L0 23.9462H3.91263H7.82526L6.9866 22.9953C6.52553 22.4722 6.14814 21.9175 6.14814 21.763C6.14814 21.6082 6.38559 21.8328 6.67602 22.2626C7.54308 23.5454 9.67839 24.6141 9.33268 23.592C9.26665 23.3974 9.31042 23.1046 9.42962 22.9415C9.59393 22.7173 9.58299 22.6222 9.38509 22.5503C9.24112 22.4981 8.77793 22.3285 8.35563 22.1733C7.93333 22.0181 7.43655 21.8999 7.25189 21.9105C7.06722 21.9214 6.91596 21.7764 6.91596 21.5886C6.91596 21.3361 6.97221 21.3106 7.13134 21.4911C7.24977 21.6254 7.459 21.6863 7.59625 21.6267C7.7335 21.5668 8.04677 21.6406 8.29267 21.7904C8.53837 21.9402 8.99868 22.1232 9.31541 22.1975C9.82121 22.3161 9.89127 22.4241 9.89127 23.085V23.8373L12.2907 23.8354C14.7781 23.8334 15.9375 23.4555 17.1376 22.2554C17.3224 22.0706 17.4735 22.0196 17.4735 22.142C17.4735 22.3834 16.0632 23.5108 15.7613 23.5108C15.6597 23.5108 15.5232 23.6088 15.458 23.7285C15.3802 23.8711 16.8316 23.9462 19.6697 23.9462H24V19.3551C24 14.866 23.9904 14.7546 23.5681 14.3359L23.1362 13.9077L23.5681 14.1455C24.1908 14.4881 24.0992 14.0976 23.4241 13.5313C23.1074 13.2658 22.8483 12.9353 22.8483 12.7971C22.8483 12.6586 22.6605 12.3186 22.431 12.0415C22.2014 11.7645 22.1087 11.5377 22.225 11.5377C22.3413 11.5377 22.6196 11.8018 22.8435 12.1246C23.6731 13.3206 24 13.0505 24 11.1692V9.49706L23.4261 10.1205C23.1105 10.4634 22.8058 10.6913 22.749 10.6271C22.6924 10.5627 22.9506 10.2464 23.323 9.92439C23.9639 9.36971 24 9.26979 24 8.04353C24 7.33124 23.9662 6.74847 23.9249 6.74847C23.8837 6.74847 23.4735 6.94222 23.0132 7.17907C22.1636 7.6162 21.1044 7.80689 21.6965 7.41592C21.8549 7.31143 22.4379 7.05825 22.9922 6.8534L24 6.48071V5.46082C24 4.89983 23.8942 4.32098 23.7649 4.17426C23.5792 3.96375 23.5792 3.81746 23.7649 3.48069C23.8942 3.2458 24 2.36654 24 1.5269V0H13.3762C2.99623 0 2.74439 0.0100139 2.40501 0.435385C2.05757 0.870771 1.71301 1.0151 1.75582 0.707501C1.83183 0.162834 1.67193 0 1.06132 0C0.425757 0 0.389478 0.0398377 0.389478 0.737107ZM5.18836 2.99044C5.18836 3.05118 5.05879 2.97912 4.90043 2.83C4.74207 2.68089 4.61307 2.35065 4.61365 2.09594C4.6148 1.69452 4.653 1.71585 4.90158 2.25617C5.05937 2.59925 5.18836 2.92949 5.18836 2.99044ZM3.84468 3.15654C3.58074 3.32765 3.23522 3.46959 3.07685 3.4722C2.70945 3.47786 3.64965 2.87746 4.03663 2.85896C4.19499 2.85156 4.10861 2.98544 3.84468 3.15654ZM1.50858 4.81667C1.04788 5.148 1.00777 5.01782 1.32468 4.21736L1.63719 3.42779L1.70053 4.03036C1.73585 4.36626 1.65082 4.71435 1.50858 4.81667ZM13.3465 4.58765C12.713 4.93727 12.0652 5.21657 11.9068 5.20851C11.7484 5.20046 11.9439 5.05852 12.341 4.8933C12.7384 4.72785 13.2541 4.44093 13.4876 4.25546C13.7208 4.0702 14.0437 3.92609 14.2051 3.93523C14.3663 3.94437 13.9799 4.23782 13.3465 4.58765ZM7.01981 4.36844C7.24497 4.7814 6.91673 4.88328 6.58234 4.50406C6.28309 4.1649 6.28251 4.13616 6.57563 4.13616C6.75031 4.13616 6.95032 4.24065 7.01981 4.36844ZM10.3669 6.35902C10.3625 6.64202 9.92755 6.10018 9.19409 4.89808C8.90385 4.42243 9.00962 4.49405 9.58338 5.16171C10.0166 5.66589 10.3692 6.20468 10.3669 6.35902ZM1.57365 6.25866C1.74257 6.58782 1.94489 7.20018 2.0234 7.61924C2.19098 8.51527 2.90947 9.42 3.31392 9.24388C3.47324 9.17466 3.98807 9.45896 4.49041 9.8937C5.59704 10.8518 6.14334 10.9088 6.15985 10.0683C6.1731 9.39736 7.44173 6.94331 7.85443 6.7907C8.01472 6.73149 8.06808 6.78918 7.98842 6.93547C7.90089 7.09635 7.97306 7.13096 8.20168 7.03779C8.39191 6.96029 8.48693 6.97313 8.41283 7.0663C8.11185 7.44444 9.53289 8.28146 10.4478 8.26514C10.8493 8.25795 10.8493 8.25621 10.4243 7.85392L9.99762 7.4501L10.5203 7.33276C10.9395 7.2385 11.1948 7.37978 11.8108 8.04679C12.6355 8.93955 13.4874 9.50163 14.2283 9.64183C14.4823 9.68994 14.8416 9.80379 15.0265 9.895C15.2115 9.98622 15.5687 10.0023 15.8204 9.9307C16.0926 9.85321 16.3627 9.91612 16.4871 10.0864C16.6539 10.3141 16.5706 10.3585 16.0772 10.304L15.458 10.2359L16.0338 10.4712C16.3506 10.6005 16.7675 10.7031 16.9602 10.6989C17.2614 10.6926 17.2748 10.7427 17.0562 11.0564C16.8182 11.3977 16.8341 11.3977 17.3052 11.0573C17.8467 10.6656 18.5112 10.7405 19.0345 11.2525C19.2332 11.4467 19.5324 11.5064 19.8522 11.4154C20.4801 11.2366 20.6999 10.8846 20.1835 10.8846C19.9724 10.8846 19.7463 10.7867 19.681 10.6669C19.5342 10.3972 19.6255 10.3946 20.2212 10.6515C20.5625 10.7986 20.8036 10.7638 21.1063 10.5233C21.5825 10.1449 22.0804 10.2744 22.0804 10.7767C22.0804 11.0372 21.9992 11.0684 21.7359 10.9086C21.4741 10.7497 21.1905 10.8524 20.5554 11.3363C19.6457 12.029 19.1142 12.1377 18.8748 11.6794C18.6575 11.2636 17.7225 11.0394 17.5472 11.3607C17.4693 11.504 17.3896 12.3125 17.3702 13.1576C17.3353 14.6823 16.8796 16.3032 16.2918 16.9937C16.1454 17.1657 15.6275 17.9433 15.1407 18.7216C14.2387 20.1638 13.4424 21.1238 13.4424 20.769C13.4424 20.6606 13.248 20.5556 13.0105 20.5356C12.7731 20.5156 12.3491 20.4324 12.0686 20.3508C11.6922 20.2413 11.3983 20.3364 10.9466 20.7137L10.3347 21.225L9.6711 20.3543C7.64808 17.6999 6.26523 14.499 6.1038 12.0967C6.05389 11.3533 5.97097 11.2179 5.47361 11.0671C5.15861 10.9715 4.81443 10.7675 4.70867 10.6138C4.35585 10.1007 3.48438 9.58196 3.19011 9.70996C2.83729 9.86344 1.92512 8.81307 1.92512 8.25338C1.92512 8.03852 1.8374 7.80102 1.73009 7.72591C1.62279 7.65059 1.58978 7.48863 1.65658 7.36585C1.72357 7.24307 1.59553 6.86189 1.37191 6.51881C0.935015 5.84875 0.878772 5.66001 1.11584 5.66001C1.19876 5.66001 1.40473 5.92951 1.57365 6.25866ZM19.0188 6.55386C18.6968 6.95376 18.4333 7.19104 18.4333 7.08111C18.4333 6.84099 19.4305 5.62975 19.5326 5.74578C19.572 5.79041 19.3409 6.15417 19.0188 6.55386ZM12.2892 7.50822C12.4395 7.7135 12.6948 7.78491 12.9844 7.7024C13.4505 7.56983 13.6482 7.93947 13.2025 8.11014C12.8766 8.2351 14.0813 8.92453 14.6326 8.92866C15.1401 8.93258 15.6956 9.27262 15.52 9.47181C15.1261 9.91851 12.3107 8.47499 11.9068 7.61924C11.6676 7.11245 11.9414 7.033 12.2892 7.50822ZM5.76423 7.61924C5.76423 7.73897 5.4404 7.82409 5.0444 7.8082L4.32456 7.77968L4.99641 7.61924C5.36592 7.53108 5.68994 7.44596 5.71624 7.43029C5.74254 7.41439 5.76423 7.49951 5.76423 7.61924ZM22.4995 8.10187C22.1948 8.44735 20.9884 8.42993 20.6888 8.07574C20.4926 7.8439 20.589 7.81647 21.2166 7.92575C21.6389 7.99912 22.1115 7.96559 22.2668 7.85109C22.6292 7.58398 22.7968 7.76466 22.4995 8.10187ZM17.4937 9.2293C17.7664 9.51622 18.3271 9.96205 18.7395 10.22L19.489 10.6891L18.8172 10.5481C18.4477 10.4704 18.0455 10.4 17.9236 10.3918C17.8018 10.3835 17.7423 10.2579 17.7914 10.1125C17.8405 9.96728 17.5948 9.59284 17.2453 9.28046C16.8957 8.96807 16.6971 8.71141 16.8036 8.7101C16.9103 8.7088 17.2207 8.94238 17.4937 9.2293ZM7.49183 9.32878C7.49183 9.41172 7.88246 9.58218 8.35985 9.70779C8.83725 9.8334 9.16107 9.86496 9.07969 9.77767C8.85855 9.54082 7.49183 9.15463 7.49183 9.32878ZM11.1534 9.45004C10.9395 9.74218 10.9486 9.79617 11.2115 9.79617C11.3937 9.79617 11.5229 9.97468 11.5229 10.2261C11.5229 10.5944 11.4542 10.6267 11.0449 10.4501C10.7543 10.3247 10.3969 10.3215 10.1331 10.4416L9.69932 10.6393L10.1792 10.6789C10.4431 10.7007 10.718 10.7092 10.79 10.6976C10.862 10.6861 11.2246 10.8206 11.5956 10.9965C12.0358 11.2051 12.312 11.2393 12.3909 11.0947C12.4573 10.9728 12.613 10.8907 12.737 10.9123C13.02 10.9615 14.4742 10.2407 14.3581 10.109C14.2022 9.93223 13.0587 10.4871 13.0524 10.7427C13.0491 10.8807 12.9096 10.7976 12.7424 10.5581C12.532 10.2564 12.4111 10.2063 12.3487 10.3948C12.213 10.8054 11.9068 10.7211 11.9068 10.2731C11.9068 9.54321 11.4501 9.04448 11.1534 9.45004ZM13.3778 11.2808C13.1217 11.6017 13.1069 11.7406 13.3 12.0123C13.5586 12.376 14.2986 12.7468 14.1231 12.4246C14.0642 12.3164 14.1245 12.1716 14.2571 12.1026C14.3897 12.0336 14.3122 12.0288 14.0849 12.092C13.7248 12.1919 13.6768 12.1218 13.712 11.5458C13.7596 10.7662 13.7772 10.7801 13.3778 11.2808ZM10.4948 11.3707C10.5535 11.4785 10.4418 11.7086 10.2464 11.8823C9.92295 12.1699 9.93542 12.1766 10.3871 11.9583C10.9008 11.7099 11.0705 11.1748 10.6355 11.1748C10.4994 11.1748 10.436 11.263 10.4948 11.3707ZM16.5491 12.3005C16.6694 12.6005 16.8051 12.8036 16.8504 12.7524C16.9859 12.5985 16.6938 11.7554 16.5049 11.7554C16.4087 11.7554 16.4285 12.0007 16.5491 12.3005ZM4.91348 13.3907C4.97932 13.788 5.24077 14.3344 5.49453 14.605C5.74849 14.8754 5.95619 15.1939 5.95619 15.3127C5.95619 15.4316 5.63946 15.1695 5.25229 14.7306C4.8653 14.2915 4.6054 13.8679 4.67488 13.7891C4.74437 13.7103 4.72882 13.539 4.64071 13.4081C4.30671 12.9135 4.23895 12.4268 4.52113 12.5493C4.67124 12.6149 4.84784 12.9934 4.91348 13.3907ZM19.8772 14.3917C19.834 14.8836 19.7528 15.3386 19.6966 15.4022C19.551 15.5674 19.0061 15.016 19.0243 14.7221C19.0339 14.5678 19.0754 14.5778 19.1362 14.7487C19.3121 15.2426 19.5403 15.0323 19.6683 14.2589C19.8411 13.2146 19.9732 13.2986 19.8772 14.3917ZM1.98194 14.42C2.58372 14.3793 2.9636 15.0785 2.67701 15.6998C2.58756 15.8935 2.55665 16.0999 2.60829 16.1585C2.65993 16.217 2.57739 16.3825 2.42478 16.5261C2.11573 16.8168 2.20173 16.0204 2.53112 15.5396C2.76358 15.2002 2.22899 14.7458 1.489 14.6542C1.15557 14.6126 0.793352 14.4713 0.684129 14.3399C0.541122 14.1679 0.619824 14.1509 0.965344 14.2787C1.22928 14.3764 1.68671 14.44 1.98194 14.42ZM11.6064 14.6729C11.4624 15.3236 11.6231 15.675 12.0621 15.6706C12.3239 15.6678 12.3351 15.6301 12.1193 15.4751C11.9627 15.3626 11.8955 15.0935 11.9573 14.8255C12.0153 14.5741 11.987 14.315 11.8943 14.2502C11.8018 14.1853 11.6722 14.3756 11.6064 14.6729ZM13.734 14.4086C13.7889 14.5708 14.0237 14.8381 14.2558 15.0025C14.6679 15.2944 14.6708 15.2894 14.3796 14.792C14.0483 14.226 13.5776 13.9465 13.734 14.4086ZM21.5954 14.3773C21.5272 14.5022 21.5668 14.7347 21.6833 14.8939C21.9486 15.2566 21.8027 15.7117 21.309 16.0614C20.822 16.4062 20.7759 15.9573 21.2573 15.5581C21.5313 15.3312 21.5445 15.2287 21.3368 14.945C21.0805 14.5948 21.1869 14.15 21.5272 14.15C21.6328 14.15 21.6635 14.2523 21.5954 14.3773ZM9.17144 15.1453C8.77563 15.5709 8.45161 16.0272 8.45161 16.1593C8.45161 16.2915 8.47311 16.3572 8.4996 16.3054C8.52609 16.2538 8.88907 15.7967 9.30638 15.2896C10.2299 14.1677 10.1552 14.0878 9.17144 15.1453ZM10.532 15.3902C10.6533 15.6473 10.9764 16.0574 11.2499 16.3013C11.5233 16.5453 11.6914 16.8468 11.6237 16.9713C11.5557 17.0958 11.6133 17.2082 11.7515 17.2208C12.2063 17.2626 13.1476 17.1744 13.5384 17.0534C13.9118 16.9378 13.9114 16.9474 13.5187 17.4091C12.6662 18.4111 10.7111 18.0848 9.74923 16.78C9.56552 16.5309 9.30638 16.3311 9.17336 16.3363C8.82515 16.3496 10.5589 18.0622 11.187 18.3254C11.7962 18.5805 11.8552 18.8282 11.3789 19.1315C11.0163 19.3622 11.0029 19.3496 11.9619 19.6766C12.0978 19.723 12.465 19.6328 12.7777 19.4765C13.2856 19.2227 13.3002 19.1905 12.9146 19.1746C12.3147 19.15 12.3706 18.5822 13.0105 18.1991C13.6352 17.8249 15.0299 16.3132 14.8932 16.1582C14.8408 16.0988 14.5992 16.1981 14.356 16.3788C14.1129 16.5594 13.5522 16.7765 13.1102 16.8614L12.3065 17.0153L12.9677 16.1966C13.7697 15.2037 13.7198 15.0676 12.7835 15.6941C12.0302 16.1981 11.8145 16.1561 10.7731 15.3016C10.3191 14.9291 10.3151 14.9305 10.532 15.3902ZM19.0902 17.078C19.2395 17.7082 19.2263 18.3872 19.0683 18.208C18.9951 18.1251 18.9065 17.8427 18.8711 17.5804C18.8358 17.3181 18.6755 16.876 18.5149 16.598C18.236 16.1154 18.24 16.1047 18.6036 16.3622C18.8132 16.5105 19.032 16.8326 19.0902 17.078ZM3.07685 17.7563C3.07685 17.824 2.99412 18.0548 2.89296 18.2692C2.63017 18.8258 3.26727 19.5566 3.942 19.4726C4.22379 19.4376 4.40384 19.4663 4.34184 19.5364C4.05468 19.8623 2.49696 19.7319 2.59063 19.3899C2.64208 19.2018 2.60772 18.9099 2.51423 18.7409C2.41019 18.5531 2.42977 18.2788 2.56472 18.0334C2.77376 17.6542 3.07685 17.4901 3.07685 17.7563ZM18.0035 19.5388C18.1346 19.5882 18.3225 19.4001 18.4214 19.1208C18.5945 18.6306 18.6013 18.629 18.6132 19.0792C18.6197 19.3359 18.4865 19.6061 18.317 19.6799C18.0173 19.8102 18.0285 20.2337 18.3571 21.2048C18.4216 21.3955 18.3788 21.5516 18.2619 21.5516C18.145 21.5516 18.0494 21.3587 18.0494 21.1227C18.0494 20.663 17.3583 19.135 17.051 18.9149C16.8111 18.7433 16.8316 18.5661 17.1336 18.1976C17.3357 17.9512 17.4107 18.033 17.5714 18.6743C17.6779 19.1001 17.8724 19.4892 18.0035 19.5388ZM22.9778 18.6471C22.9083 18.7259 22.9494 18.924 23.069 19.0875C23.2408 19.3224 23.2205 19.3559 22.9713 19.2475C22.6125 19.0914 22.5406 18.5039 22.8803 18.5039C23.0034 18.5039 23.0473 18.5683 22.9778 18.6471ZM7.13402 19.1387C6.99601 19.2353 6.89063 19.377 6.89965 19.4535C6.90867 19.5299 6.91596 19.7066 6.91596 19.8464C6.91596 20.1747 6.62957 19.8553 6.62304 19.5198C6.61747 19.2318 7.15552 18.7028 7.29392 18.86C7.34383 18.9166 7.27185 19.042 7.13402 19.1387ZM19.6315 20.0821C19.4825 20.7485 19.0092 21.5516 18.7654 21.5516C18.6556 21.5516 18.702 21.3802 18.8685 21.1706C19.0349 20.961 19.2305 20.5204 19.3028 20.191C19.3754 19.8616 19.5036 19.5923 19.5879 19.5923C19.6722 19.5923 19.6918 19.8129 19.6315 20.0821ZM16.2556 22.0864C16.193 22.2713 16.0521 22.4223 15.9423 22.4223C15.816 22.4223 15.8286 22.2663 15.977 21.9968C16.2417 21.5159 16.4283 21.5757 16.2556 22.0864Z" fill="black"/>
</svg>
