<svg width="24" height="24" viewBox="0 0 24 24" fill="none" xmlns="http://www.w3.org/2000/svg">
<path d="M8 6L8 5C7.73478 5 7.48043 5.10536 7.29289 5.29289C7.10536 5.48043 7 5.73478 7 6H8ZM8 18H7C7 18.5523 7.44772 19 8 19V18ZM14.2705 11.8647L14.7177 12.7592L14.2705 11.8647ZM7 6V12H9V6H7ZM7 12V18H9V12H7ZM8 13H14V11H8V13ZM8 7L13.6976 7L13.6976 5L8 5L8 7ZM13.8233 10.9703L13.5528 11.1056L14.4472 12.8944L14.7177 12.7592L13.8233 10.9703ZM8 19H13.6976V17H8V19ZM13.5528 12.8944L13.8233 13.0297L14.7177 11.2408L14.4472 11.1056L13.5528 12.8944ZM13.6976 7C13.7412 7 13.7843 7.01016 13.8233 7.02968L14.7177 5.24083C14.401 5.08245 14.0517 5 13.6976 5L13.6976 7ZM13.8233 7.02968C15.4469 7.8415 15.4469 10.1585 13.8233 10.9703L14.7177 12.7592C17.8155 11.2103 17.8155 6.78969 14.7177 5.24083L13.8233 7.02968ZM13.8233 13.0297C15.4469 13.8415 15.4469 16.1585 13.8233 16.9703L14.7177 18.7592C17.8155 17.2103 17.8155 12.7897 14.7177 11.2408L13.8233 13.0297ZM13.6976 19C14.0517 19 14.401 18.9175 14.7177 18.7592L13.8233 16.9703C13.7843 16.9898 13.7412 17 13.6976 17V19Z" fill="black"/>
</svg>
