<svg width="24" height="24" viewBox="0 0 24 24" fill="none" xmlns="http://www.w3.org/2000/svg">
<path fill-rule="evenodd" clip-rule="evenodd" d="M14.9487 6.31623C15.1233 5.79228 14.8402 5.22596 14.3162 5.05132C13.7923 4.87667 13.226 5.15983 13.0513 5.68377L9.05132 17.6838C8.87667 18.2077 9.15983 18.774 9.68377 18.9487C10.2077 19.1233 10.774 18.8402 10.9487 18.3162L14.9487 6.31623ZM8.20711 7.79289C8.59763 8.18342 8.59763 8.81658 8.20711 9.20711L5.41421 12L8.20711 14.7929C8.59763 15.1834 8.59763 15.8166 8.20711 16.2071C7.81658 16.5976 7.18342 16.5976 6.79289 16.2071L3.29289 12.7071C2.90237 12.3166 2.90237 11.6834 3.29289 11.2929L6.79289 7.79289C7.18342 7.40237 7.81658 7.40237 8.20711 7.79289ZM15.7929 7.79289C15.4024 8.18342 15.4024 8.81658 15.7929 9.20711L18.5858 12L15.7929 14.7929C15.4024 15.1834 15.4024 15.8166 15.7929 16.2071C16.1834 16.5976 16.8166 16.5976 17.2071 16.2071L20.7071 12.7071C21.0976 12.3166 21.0976 11.6834 20.7071 11.2929L17.2071 7.79289C16.8166 7.40237 16.1834 7.40237 15.7929 7.79289Z" fill="black"/>
</svg>
