<svg width="24" height="24" viewBox="0 0 24 24" fill="none" xmlns="http://www.w3.org/2000/svg">
<path fill-rule="evenodd" clip-rule="evenodd" d="M7 1C7 0.610625 6.77398 0.256654 6.42075 0.0928243C6.06751 -0.0710053 5.6513 -0.0148996 5.35406 0.236616L3.35406 1.92892C2.93245 2.28567 2.87987 2.91665 3.23661 3.33825C3.59336 3.75986 4.22434 3.81244 4.64594 3.4557L5 3.15611V6.07693C5 6.62921 5.44772 7.07693 6 7.07693C6.55228 7.07693 7 6.62921 7 6.07693V1ZM4 8.46154C3.44772 8.46154 3 8.90926 3 9.46154C3 10.0138 3.44772 10.4615 4 10.4615H5.24755L3.13907 14.0297C2.9564 14.3389 2.9535 14.7222 3.13146 15.0341C3.30942 15.3459 3.64093 15.5385 4 15.5385H7C7.55228 15.5385 8 15.0907 8 14.5385C8 13.9862 7.55228 13.5385 7 13.5385H5.75245L7.86093 9.97027C8.0436 9.66114 8.0465 9.27779 7.86854 8.96593C7.69058 8.65406 7.35907 8.46154 7 8.46154H4ZM4 16.9231C3.44772 16.9231 3 17.3708 3 17.9231C3 18.4754 3.44772 18.9231 4 18.9231H6V19.4615H5C4.44772 19.4615 4 19.9093 4 20.4615C4 21.0138 4.44772 21.4615 5 21.4615H6V22H4C3.44772 22 3 22.4477 3 23C3 23.5523 3.44772 24 4 24H7C7.55228 24 8 23.5523 8 23V20.4615V17.9231C8 17.3708 7.55228 16.9231 7 16.9231H4ZM11.5 1.5C10.6716 1.5 10 2.17157 10 3C10 3.82843 10.6716 4.5 11.5 4.5H20C20.8284 4.5 21.5 3.82843 21.5 3C21.5 2.17157 20.8284 1.5 20 1.5H11.5ZM11.5 10.5C10.6716 10.5 10 11.1716 10 12C10 12.8284 10.6716 13.5 11.5 13.5H20C20.8284 13.5 21.5 12.8284 21.5 12C21.5 11.1716 20.8284 10.5 20 10.5H11.5ZM11.5 19C10.6716 19 10 19.6716 10 20.5C10 21.3284 10.6716 22 11.5 22H20C20.8284 22 21.5 21.3284 21.5 20.5C21.5 19.6716 20.8284 19 20 19H11.5Z" fill="black"/>
</svg>
