<svg width="24" height="24" viewBox="0 0 24 24" fill="none" xmlns="http://www.w3.org/2000/svg">
<path fill-rule="evenodd" clip-rule="evenodd" d="M24 3.68637V7.37274L23.8701 7.41909C23.7986 7.44461 23.6926 7.52181 23.6345 7.59073C23.5302 7.71436 23.5213 7.71602 22.9209 7.72284C22.452 7.72814 22.2774 7.74758 22.1579 7.80788C22.0243 7.87518 21.9864 7.87744 21.8835 7.824C21.7999 7.78061 21.7588 7.77734 21.7465 7.81304C21.6966 7.95782 21.5965 8.03797 21.537 7.98081C21.4712 7.91747 21.1654 7.90084 21.1654 7.96063C21.1654 8.01812 21.4106 8.18091 21.547 8.21394C21.614 8.2302 21.6931 8.29539 21.7227 8.35882C21.7594 8.43722 21.801 8.46509 21.8525 8.44579C21.8942 8.43017 22.0171 8.41405 22.1256 8.40995C22.7849 8.38507 22.736 8.39959 22.9136 8.17566C23.1944 7.8216 23.4646 7.75476 23.7942 7.95777L23.9998 8.08445L23.9999 10.7032L24 13.3219L23.7047 13.29C23.4926 13.2671 23.3885 13.2322 23.3351 13.166C23.1693 12.9609 23.0342 13.0691 23.0079 13.428L22.9843 13.7505L22.6063 13.7882C21.8227 13.8663 21.4263 13.7686 21.4254 13.4971C21.4253 13.4591 21.3774 13.4214 21.3189 13.4133C21.2375 13.402 21.2126 13.3683 21.2126 13.2692C21.2126 13.1122 21.0835 12.7959 21.0003 12.7492C20.9671 12.7305 20.9249 12.6373 20.9066 12.5419C20.8884 12.4466 20.857 12.3478 20.8369 12.3225C20.8168 12.2971 20.7852 12.2142 20.7666 12.1382C20.748 12.0622 20.7042 11.9689 20.6693 11.9309C20.608 11.8643 20.5014 11.6094 20.4045 11.2981C20.379 11.216 20.3189 11.1284 20.2711 11.1035C20.2233 11.0785 20.1706 11.0057 20.1541 10.9417C20.1377 10.8777 20.1033 10.8253 20.0778 10.8253C20.0017 10.8253 20.0251 10.9983 20.126 11.1818C20.178 11.2764 20.2205 11.3767 20.2205 11.4048C20.2205 11.433 20.263 11.4935 20.315 11.5393C20.3669 11.5852 20.4094 11.6792 20.4094 11.7482C20.4094 11.8171 20.4408 11.8989 20.4791 11.9299C20.5174 11.9609 20.5623 12.0573 20.5791 12.1441C20.5957 12.2309 20.6465 12.3213 20.6917 12.3449C20.7427 12.3715 20.7852 12.4671 20.8033 12.596C20.8194 12.7105 20.8534 12.8409 20.8789 12.8857C21.0164 13.1281 21.0172 14.5671 20.88 14.856C20.856 14.9067 20.8143 15.1279 20.7874 15.3476C20.7605 15.5673 20.707 15.8057 20.6687 15.8774C20.6304 15.949 20.5989 16.0412 20.5987 16.0821C20.5986 16.123 20.559 16.2059 20.5109 16.2663C20.4628 16.3268 20.3864 16.4529 20.3412 16.5468C20.2961 16.6406 20.2132 16.7668 20.1571 16.8273C19.9966 17.0003 19.8587 17.1983 19.8237 17.3058C19.806 17.36 19.7606 17.4295 19.7226 17.4602C19.6846 17.4909 19.6535 17.5626 19.6535 17.6194C19.6535 17.6762 19.6152 17.7721 19.5683 17.8326C19.5214 17.893 19.4591 18.015 19.4299 18.1036C19.4006 18.1923 19.3443 18.3478 19.3046 18.4491C19.265 18.5505 19.2316 18.722 19.2304 18.8303C19.2247 19.3754 18.964 19.7383 18.6025 19.7044C18.2645 19.6728 18.1964 19.7391 18.2987 20.0004C18.3555 20.1452 18.3697 20.2682 18.348 20.4233C18.3291 20.5573 18.3404 20.7105 18.3771 20.8189C18.4288 20.9718 18.4252 21.0261 18.3507 21.2195C18.2147 21.5726 18.0858 21.6729 17.498 21.8831L16.9695 22.0721L16.8617 22.3566C16.6205 22.9934 16.3181 23.4475 16.0866 23.5205C16.0346 23.5369 15.9071 23.5874 15.8031 23.6328C15.6992 23.6781 15.5341 23.7299 15.4362 23.7477C15.3341 23.7664 15.2204 23.8271 15.1696 23.8901L15.0809 24H13.4681C11.9913 24 11.8321 23.9924 11.5804 23.9097C11.2807 23.8113 10.4741 23.4392 10.3597 23.3467C10.3205 23.315 10.1619 23.2846 10.0073 23.2791C9.75732 23.2702 9.70257 23.2496 9.5134 23.0933C9.39638 22.9966 9.21279 22.8604 9.1054 22.7908C8.99802 22.7211 8.85061 22.5708 8.77781 22.4568C8.63268 22.2294 8.53049 22.1931 8.48646 22.3532C8.43539 22.539 8.45409 22.6148 8.64647 23.0004C8.7857 23.2795 8.84414 23.4633 8.86592 23.6904L8.89554 24H8.57457H8.25354L8.27901 23.1823C8.29299 22.7326 8.28425 22.261 8.25954 22.1344C8.23479 22.0077 8.18877 21.7175 8.15721 21.4894L8.09991 21.0749L7.83132 20.8128C7.68359 20.6687 7.52948 20.4821 7.48876 20.3983C7.31854 20.0472 7.12932 19.8081 7.02184 19.8081C6.98589 19.8081 6.92768 19.7742 6.89249 19.7329C6.76739 19.5859 6.20636 19.2595 5.99858 19.2129C5.53564 19.1088 5.0006 19.2187 4.66795 19.486C4.41198 19.6917 3.92126 20.4591 3.92126 20.6537C3.92126 20.6831 3.86811 20.8044 3.80315 20.9234C3.73819 21.0424 3.68504 21.1653 3.68504 21.1966C3.68504 21.2643 3.48638 21.5578 3.44017 21.5582C3.42246 21.5584 3.39402 21.5157 3.37696 21.4633C3.35991 21.411 3.12095 21.157 2.84594 20.899C2.02096 20.1251 1.99691 20.1003 1.71836 19.733L1.44987 19.379L1.45913 18.9204C1.46981 18.3918 1.56742 18.1436 1.90748 17.7802C2.01468 17.6657 2.20866 17.4492 2.33858 17.299C2.4685 17.1489 2.70071 16.8902 2.85463 16.7242C3.0085 16.5581 3.14154 16.4135 3.15024 16.4027C3.15888 16.392 3.44754 16.3802 3.79167 16.3765C4.80009 16.3656 5.10572 16.1848 5.2722 15.501C5.29068 15.425 5.3451 15.2905 5.39306 15.2022C5.44106 15.1139 5.48032 15.0181 5.48032 14.9893C5.48032 14.9403 5.58841 14.6704 5.73657 14.3493C6.32584 13.0723 6.67937 12.4307 6.94422 12.1579C6.98357 12.1174 7.04764 12.0375 7.08661 11.9803C7.2737 11.7056 7.40131 11.5625 7.93469 11.0294C8.60953 10.3547 9.45463 9.6814 10.0086 9.37686C10.2255 9.2576 10.5231 9.07873 10.67 8.97932C10.8169 8.87991 10.9623 8.79856 10.9933 8.79851C11.0242 8.79851 11.2262 8.71799 11.4421 8.61964C11.9031 8.40963 12.2222 8.31621 12.7087 8.24886C12.9035 8.22187 13.2012 8.17944 13.3701 8.15456C13.8556 8.08307 15.044 8.09648 15.4252 8.17778C15.6071 8.21657 15.8516 8.26881 15.9685 8.29382C16.4803 8.40341 17.3003 8.67487 17.5748 8.8256C17.6398 8.8613 17.7514 8.91575 17.8228 8.9467C17.8943 8.97761 17.9528 9.01912 17.9528 9.03888C17.9528 9.05869 17.9861 9.07486 18.0268 9.07486C18.0882 9.07486 18.0835 9.05104 18 8.93666C17.9445 8.86065 17.8773 8.79846 17.8507 8.79846C17.7957 8.79846 17.5712 8.63986 17.4153 8.4907C17.3574 8.43547 17.2536 8.37641 17.1846 8.35951C17.1155 8.3426 17.0342 8.29972 17.004 8.2642C16.9738 8.22868 16.9018 8.19962 16.844 8.19962C16.7862 8.19962 16.6934 8.16115 16.6378 8.11412C16.5754 8.06133 16.4253 8.01724 16.2456 7.99896C16.0855 7.98265 15.9311 7.95086 15.9025 7.92838C15.8738 7.9059 15.7335 7.87283 15.5906 7.85496C15.4476 7.83708 15.2669 7.78862 15.189 7.7473C15.077 7.68797 14.9034 7.67175 14.3622 7.67023C13.6251 7.66812 13.5591 7.65301 13.5591 7.48648C13.5591 7.33884 13.3059 7.25311 13.063 7.31848C12.9072 7.36045 12.8894 7.35519 12.8507 7.25615C12.7972 7.11883 12.6705 7.08051 12.2696 7.08051C12.0055 7.08051 11.9403 7.0654 11.9018 6.99515C11.876 6.94821 11.8185 6.90947 11.7739 6.9091C11.6039 6.90762 11.5579 6.83912 11.6166 6.67481C11.658 6.55909 11.6579 6.38745 11.6161 5.96734C11.5697 5.50047 11.5727 5.33611 11.6349 4.92898C11.7125 4.42176 11.7024 4.22999 11.5932 4.14164C11.5314 4.09165 11.4992 3.91555 11.5518 3.91555C11.5652 3.91555 11.617 3.94047 11.667 3.97092C11.7342 4.01178 11.7866 4.01316 11.8671 3.97617C11.9272 3.94862 12.0685 3.89906 12.1811 3.86612C12.5141 3.76855 12.8832 3.29666 12.9927 2.82845C13.0938 2.39608 13.233 2.16894 13.3937 2.17414C13.4717 2.17668 13.6464 2.12384 13.7819 2.05677C13.9174 1.98965 14.0876 1.93474 14.16 1.93474C14.2438 1.93474 14.3383 1.8866 14.4197 1.80244C14.5375 1.68074 14.8447 1.56622 15.0534 1.56622C15.2027 1.56622 15.4382 1.37367 15.4314 1.25712C15.4225 1.10266 15.1602 1.03573 14.9482 1.1338C14.7309 1.23436 14.5705 1.20502 14.5901 1.06825C14.6141 0.900622 14.5217 0.834334 14.2668 0.836223C14.13 0.837282 13.9931 0.808169 13.9291 0.764499C13.7939 0.672092 13.6355 0.670203 13.5591 0.760077C13.5267 0.798081 13.468 0.829175 13.4286 0.829175C13.3891 0.829175 13.332 0.862296 13.3017 0.902741C13.2548 0.965344 13.2367 0.947332 13.1809 0.782465C13.1372 0.653436 13.0749 0.571808 12.9946 0.538319C12.9283 0.510679 12.8649 0.481612 12.8537 0.473689C12.8425 0.465766 12.8197 0.355992 12.8031 0.229681L12.7729 0H18.3864H24V3.68637ZM9.34611 0.106595C9.4868 0.252622 9.4749 0.358342 9.30737 0.451301C9.22961 0.494418 9.16583 0.553935 9.16564 0.583509C9.1655 0.613036 9.13876 0.645881 9.1063 0.65643C9.06255 0.670664 9.0463 0.865797 9.04361 1.40881C9.04162 1.81212 9.03283 2.16276 9.02405 2.1881C9.00997 2.22887 9.02787 2.32224 9.10044 2.5862C9.13219 2.70168 9.34847 2.76461 9.6506 2.74632C9.9223 2.72983 10.0516 2.78202 9.8888 2.84241C9.67356 2.92229 9.08773 3.5766 8.2475 4.67562C7.9226 5.10058 7.8721 5.16396 7.78843 5.25208C7.74567 5.29709 7.68189 5.38646 7.64669 5.45067C7.37731 5.94191 7.27559 6.15155 7.27559 6.21536C7.27559 6.25598 7.23307 6.36663 7.1811 6.46116C7.12913 6.55573 7.08661 6.66698 7.08661 6.70839C7.08661 6.74985 7.04655 6.84838 6.99756 6.92739C6.94861 7.00639 6.89391 7.19023 6.87605 7.33589C6.85819 7.48155 6.82483 7.60077 6.80187 7.60077C6.77896 7.60077 6.74617 7.67355 6.72907 7.7625C6.68958 7.96772 6.62887 8.00504 6.56315 7.86445C6.52172 7.77577 6.53187 7.71271 6.61554 7.53913C6.86083 7.03034 6.59263 6.73294 6.15189 7.02495C5.94803 7.16002 5.91633 7.16398 5.80748 7.06789C5.73817 7.00671 5.70987 7.00496 5.62328 7.05637C5.49945 7.12984 5.34369 6.97364 5.24235 6.6743L5.18173 6.4952H4.91405C4.47884 6.4952 4.21956 6.90808 4.36814 7.36454C4.4108 7.49555 4.20236 7.53835 4.11628 7.41628C4.02633 7.28877 3.87883 7.30438 3.69057 7.46137C3.52691 7.59787 3.51279 7.73896 3.66274 7.73896C3.70455 7.73896 3.72387 7.76103 3.7063 7.78876C3.66699 7.85076 3.45373 7.8029 3.3455 7.70782C3.2623 7.63472 3.16587 7.6589 3.16465 7.7532C3.16257 7.90922 3.07101 7.94727 2.97709 7.83109L2.88402 7.71593L2.76657 7.85413C2.70194 7.93013 2.64832 8.01826 2.64737 8.0499C2.64643 8.0816 2.62049 8.10749 2.58964 8.10749C2.55883 8.10749 2.484 8.15295 2.42334 8.20855C2.31907 8.30405 2.30854 8.30524 2.23191 8.23053C2.15528 8.15576 2.15854 8.14535 2.29195 8.04078C2.39726 7.95819 2.41956 7.91664 2.37983 7.87707C2.31633 7.81382 1.96852 7.89978 1.88343 7.99979C1.8145 8.08077 1.72639 8.07791 1.65354 7.99232C1.62038 7.95335 1.51739 7.92322 1.41732 7.92322C1.20879 7.92322 1.11836 7.83828 1.15895 7.68055C1.19773 7.52983 1.03403 7.47929 0.91663 7.60574C0.872126 7.6537 0.821055 7.6929 0.803055 7.6929C0.760582 7.6929 0.566929 7.52918 0.566929 7.4933C0.566929 7.42862 0.294 7.05305 0.266504 7.07991C0.249826 7.09612 0.236221 7.08521 0.236221 7.05568C0.236221 6.98059 0.41811 6.98842 0.498614 7.06692C0.567495 7.13408 0.755906 7.11542 0.755906 7.04149C0.755906 7.01846 0.701481 6.97944 0.634961 6.95479C0.474803 6.89542 0.506221 6.85944 0.87104 6.68435L1.17865 6.53666L1.14869 6.32015C1.12087 6.11894 0.941102 5.7641 0.861591 5.7535C0.59074 5.71744 0.236221 5.75807 0.236221 5.82518C0.236221 5.86203 0.183071 5.94398 0.11811 6.00732L8.9407e-08 6.12249V4.81175V3.50096H0.403465C0.708709 3.50096 0.850393 3.47936 0.985559 3.4121C1.11444 3.34798 1.21899 3.33043 1.36115 3.34904C1.46953 3.36318 1.58494 3.35374 1.61764 3.32803C1.77921 3.20112 1.97849 3.2131 2.06702 3.35507L2.15258 3.49225L2.25742 3.37755C2.31506 3.31444 2.3622 3.24613 2.3622 3.22577C2.3622 3.20541 2.44191 3.1744 2.53937 3.15685C2.63679 3.13935 2.76331 3.0826 2.82043 3.03077C2.88151 2.97536 2.95592 2.94836 3.00104 2.96522C3.11991 3.00972 3.25984 2.91248 3.25984 2.78534C3.25984 2.6986 3.23476 2.67155 3.15354 2.67077L3.04724 2.66976L3.15066 2.59016C3.20759 2.54635 3.26835 2.45353 3.28573 2.38379C3.3222 2.23771 3.82677 1.9428 3.82677 2.06755C3.82677 2.08993 3.78425 2.11909 3.73228 2.13236C3.65995 2.15079 3.6378 2.19519 3.6378 2.3216C3.6378 2.43685 3.66633 2.50411 3.73228 2.54428C3.78425 2.57592 3.82677 2.62282 3.82677 2.64848C3.82677 2.71007 4.08704 2.94818 4.15441 2.94818C4.18337 2.94818 4.22726 3 4.25197 3.06334C4.32869 3.26008 4.72365 3.19145 4.72512 2.98111C4.72649 2.78773 4.77241 2.7705 5.2372 2.78884C5.59181 2.80284 5.72608 2.78856 5.92186 2.71601C6.38598 2.544 6.93907 2.62448 7.10939 2.8888C7.24351 3.09697 7.46457 3.10526 7.46457 2.90211C7.46457 2.81942 7.48923 2.76392 7.52598 2.76392C7.55976 2.76392 7.61391 2.73803 7.64627 2.70633C7.67863 2.67469 7.8369 2.62802 7.99795 2.60269C8.38436 2.54188 8.45745 2.42446 8.3358 2.05995C8.29167 1.92774 8.22189 1.78199 8.18074 1.73606C8.12934 1.67862 8.09353 1.49869 8.06631 1.16025C8.01359 0.505658 8.01454 0.416706 8.07666 0.19177L8.12962 0H8.68649C9.2075 0 9.24997 0.00686372 9.34611 0.106595ZM3.30709 0.443516C3.30709 0.504967 3.34058 0.513259 3.49285 0.489536C3.69562 0.457935 3.94441 0.525052 3.89769 0.598756C3.88162 0.624138 3.81978 0.644914 3.76035 0.644914C3.70091 0.644914 3.60321 0.686372 3.54331 0.737044C3.4834 0.787716 3.40757 0.829175 3.37488 0.829175C3.34214 0.829175 3.30104 0.912092 3.28346 1.01344C3.26542 1.11754 3.22493 1.1977 3.19035 1.1977C3.15666 1.1977 3.11688 1.24344 3.10186 1.29932C3.08688 1.35524 3.06142 1.38808 3.04531 1.37238C3.02915 1.35667 3.03893 1.3019 3.06704 1.25072C3.09515 1.19954 3.11811 1.08313 3.11811 0.991969C3.11811 0.881919 3.14372 0.816691 3.19441 0.797712C3.25498 0.775094 3.2649 0.727785 3.24255 0.56886C3.22587 0.449965 3.23324 0.368522 3.26074 0.368522C3.28625 0.368522 3.30709 0.402288 3.30709 0.443516ZM11.5748 1.12874C11.79 1.23962 11.9751 1.30793 12.0709 1.3118C12.2125 1.31756 12.7558 1.49196 12.7559 1.53167C12.756 1.61684 12.0609 1.56691 11.9383 1.47294C11.7629 1.33833 11.0236 1.31364 11.0462 1.44313C11.0556 1.49666 11.0255 1.53632 10.9636 1.55212C10.8943 1.56977 10.8661 1.6144 10.8661 1.70649C10.8661 1.77775 10.8289 1.87172 10.7835 1.91535C10.738 1.95902 10.6777 2.05875 10.6495 2.13701C10.6012 2.27088 10.5951 2.27383 10.5474 2.18686C10.4786 2.06142 10.6805 1.64683 10.9099 1.44286C11.0028 1.36026 11.1348 1.24021 11.2032 1.17609C11.3412 1.04688 11.401 1.03923 11.5748 1.12874ZM3.08083 4.41526C2.95606 4.49247 2.98871 4.71298 3.13243 4.76361C3.30123 4.82312 3.43016 4.74956 3.41254 4.60372C3.38872 4.4067 3.23546 4.31963 3.08083 4.41526ZM12.6142 5.4357C12.5812 5.49582 12.5152 5.52783 12.4244 5.52783C12.3118 5.52783 12.2792 5.55197 12.2536 5.65451C12.2361 5.72421 12.181 5.83246 12.1312 5.89511C12.0237 6.0304 12.0501 6.26437 12.1929 6.4414C12.3011 6.57559 12.3111 6.75137 12.2126 6.78827C12.1736 6.80283 12.1417 6.84147 12.1417 6.87413C12.1417 6.97101 12.5581 6.91974 12.6152 6.81586C12.6413 6.76828 12.7258 6.72507 12.8087 6.71691C12.9457 6.70346 12.9564 6.68932 12.9651 6.51017C12.9726 6.35327 13.0105 6.2816 13.1707 6.12065C13.4526 5.83748 13.3671 5.55791 12.9801 5.49757C12.8783 5.48172 12.784 5.44058 12.7704 5.40613C12.7353 5.31694 12.6729 5.32878 12.6142 5.4357ZM15.8406 5.97697C15.8237 6.02133 15.7874 6.07228 15.7597 6.0902C15.7251 6.11272 15.7277 6.14064 15.7681 6.18002C15.8744 6.28367 15.8298 6.34425 15.6024 6.40505C15.357 6.47069 15.1248 6.62133 15.1207 6.71756C15.1169 6.80748 15.3804 7.04821 15.4806 7.04646C15.6603 7.04324 15.9213 6.73681 15.9213 6.52892C15.9213 6.45162 15.9692 6.35217 16.0394 6.28372C16.1646 6.1616 16.1971 5.96568 16.0984 5.92685C15.9757 5.87862 15.87 5.89916 15.8406 5.97697ZM0.177165 7.27509C0.261638 7.31134 0.330709 7.36731 0.330709 7.39942C0.330709 7.43152 0.382535 7.51237 0.445889 7.57903C0.531448 7.66904 0.551574 7.72533 0.524078 7.79784C0.473055 7.9323 0.394393 7.94709 0.332267 7.8339C0.30359 7.78167 0.248976 7.73896 0.210945 7.73896C0.172866 7.73896 0.141732 7.70934 0.141732 7.67314C0.141732 7.63698 0.108473 7.57493 0.0678428 7.53531C0.026457 7.49496 0.00047275 7.40739 0.00878771 7.33626C0.0234334 7.21087 0.0256536 7.21009 0.177165 7.27509ZM19.3711 8.06764C19.2807 8.14024 19.1889 8.19962 19.167 8.19962C19.1025 8.19962 18.9878 8.3298 19.0299 8.35513C19.0511 8.36789 19.1841 8.39235 19.3255 8.40944C19.467 8.42653 19.6298 8.46924 19.6873 8.50434C19.9022 8.63535 20.6016 8.59002 20.7651 8.43446C21.0191 8.19275 21.0273 8.17483 20.9519 8.02742L20.8835 7.89384L20.2095 7.91475C19.5516 7.93516 19.5315 7.93884 19.3711 8.06764ZM17.3976 8.10237C17.2275 8.11711 17.6742 8.38521 17.8673 8.38429C17.9112 8.38406 17.9597 8.40369 17.9751 8.42792C18.0145 8.49015 18.2126 8.41059 18.2126 8.33251C18.2126 8.29474 18.1731 8.27397 18.1158 8.28157C18.0626 8.28861 17.9735 8.24716 17.9178 8.18944C17.8229 8.09099 17.7224 8.07418 17.3976 8.10237ZM21.6467 11.8772C21.5031 12.091 21.6902 12.7516 21.8563 12.6171C21.8887 12.5909 22.0126 12.5845 22.1479 12.602C22.7431 12.679 22.9977 12.3841 22.8044 11.8418C22.7479 11.6831 22.7136 11.6634 22.3228 11.5655C22.1527 11.5229 21.7646 11.7018 21.6467 11.8772ZM15.2645 14.241C15.2359 14.3208 15.2126 14.4538 15.2126 14.5367C15.2126 14.7291 15.1713 14.833 15.095 14.833C15.0275 14.833 14.978 14.6916 14.977 14.496C14.9757 14.2207 14.8194 14.1189 14.5855 14.2409C14.5299 14.27 14.4282 14.2922 14.3596 14.2902C14.2636 14.2876 14.1938 14.3392 14.0572 14.5138C13.8458 14.7841 13.8191 14.7898 13.748 14.5797C13.7059 14.4553 13.6677 14.4184 13.5807 14.4184C13.4203 14.4184 13.3437 14.5735 13.4388 14.7059C13.5422 14.8498 13.5292 15.0745 13.4085 15.2299C13.3517 15.303 13.3038 15.3663 13.3021 15.3705C13.3004 15.3748 13.244 15.3918 13.1767 15.4082C13.0231 15.4458 12.7938 15.2703 12.6584 15.0115C12.5049 14.7181 12.2442 14.8094 12.3343 15.125C12.4567 15.5541 11.9706 15.9613 11.6929 15.6622C11.5146 15.47 11.1271 15.5873 11.243 15.7984C11.3099 15.9202 11.2694 15.9846 11.1263 15.9846C10.9183 15.9846 10.7856 16.0685 10.6582 16.2804C10.5885 16.3964 10.4039 16.6312 10.248 16.8023C10.0071 17.0665 9.78638 17.3647 9.50632 17.8042C9.47405 17.8549 9.40753 17.9813 9.35849 18.0851C9.30945 18.189 9.2169 18.3141 9.15283 18.3633C8.92795 18.5358 9.00699 18.859 9.29735 18.9544C9.34167 18.9689 9.4311 19.0517 9.49606 19.1382C9.56102 19.2248 9.65669 19.3076 9.70866 19.3223C9.76063 19.3369 9.87676 19.4107 9.96671 19.4863L10.1303 19.6238H10.0045C9.93534 19.6238 9.86173 19.5975 9.84094 19.5653C9.82016 19.5331 9.74466 19.4817 9.67323 19.4511C9.6018 19.4205 9.54331 19.3743 9.54331 19.3484C9.54331 19.3225 9.52025 19.3013 9.49205 19.3013C9.46384 19.3013 9.2897 19.2288 9.10512 19.1401C8.86847 19.0265 8.70586 18.9791 8.55402 18.9796C8.33617 18.9803 7.81545 19.0821 7.76178 19.1344C7.68279 19.2114 7.88074 19.4151 8.27731 19.6648C8.51887 19.817 8.75806 19.9736 8.8088 20.013C8.85959 20.0523 8.91737 20.0845 8.93726 20.0845C8.95715 20.0845 9.09633 20.1628 9.24657 20.2585C9.39676 20.3542 9.5622 20.4575 9.61417 20.4882C9.77395 20.5823 10.2928 20.8215 10.3372 20.8215C10.3603 20.8215 10.4283 20.863 10.4882 20.9136C10.5481 20.9643 10.6321 21.0058 10.6749 21.0058C10.7177 21.0058 10.7729 21.0252 10.7976 21.0489C10.8223 21.0726 11.0534 21.1662 11.3111 21.257C11.5689 21.3477 11.8028 21.4405 11.8308 21.4631C11.8589 21.4857 11.9669 21.5188 12.0709 21.5366C12.1748 21.5544 12.3024 21.5938 12.3543 21.6243C12.4976 21.7083 13.0361 21.8737 13.2756 21.9073C13.3925 21.9236 13.5945 21.9652 13.7244 21.9996C13.8543 22.034 14.2602 22.0835 14.6264 22.1097C14.9926 22.1358 15.3884 22.17 15.506 22.1857C15.6236 22.2015 15.7318 22.1954 15.7465 22.1723C15.7805 22.1185 15.6305 21.8189 15.4507 21.5816C15.3718 21.4775 15.3215 21.3632 15.3351 21.319C15.3793 21.1753 15.2109 20.7157 15.1395 20.7853C15.1225 20.8019 15.0948 20.9257 15.0779 21.0603C15.0483 21.2968 15.0419 21.3057 14.8906 21.3198C14.8045 21.3279 14.7065 21.3123 14.673 21.2851C14.6394 21.258 14.549 21.248 14.472 21.263C14.3883 21.2793 14.2573 21.2599 14.1463 21.2146C14.0442 21.173 13.8053 21.1197 13.6155 21.0962C13.4256 21.0726 13.2242 21.022 13.1679 20.9835C13.1117 20.9451 13.0119 20.9133 12.9462 20.9129C12.8805 20.9125 12.7949 20.8921 12.7559 20.8676C12.7038 20.8347 12.7365 20.8227 12.8794 20.8222C13.0059 20.8217 13.1189 20.7869 13.2027 20.7227C13.3008 20.6474 13.4348 20.6146 13.7638 20.585C14.2129 20.5446 14.425 20.4154 14.5292 20.119C14.5448 20.0747 14.5781 20.0384 14.6033 20.0384C14.7622 20.0384 14.8311 19.6322 14.8279 18.7143C14.826 18.1551 14.8447 17.7546 14.8766 17.6755C14.9051 17.6046 14.9263 17.3662 14.9237 17.1457C14.9211 16.9252 14.9265 16.724 14.9357 16.6987C14.9449 16.6733 14.9226 16.5647 14.8861 16.4572C14.8302 16.2925 14.8295 16.2023 14.8816 15.8814C14.9156 15.6722 14.958 15.3559 14.9759 15.1785C14.9937 15.0012 15.0118 14.9241 15.016 15.0072C15.0202 15.0905 15.0541 15.1698 15.0916 15.1838C15.1923 15.2215 15.2332 15.6549 15.1659 15.9707C15.0706 16.4174 15.0618 16.7267 15.1331 17.1229C15.1808 17.388 15.1884 17.567 15.1586 17.7218C15.1353 17.8431 15.1303 18.0046 15.1475 18.0806C15.1648 18.1566 15.1854 18.5505 15.1934 18.9559C15.2105 19.829 15.2378 20.104 15.3371 20.4056C15.3858 20.5536 15.4474 20.3347 15.4481 20.0107C15.4488 19.6731 15.5091 19.4243 15.6209 19.2977C15.6562 19.2577 15.685 19.1734 15.685 19.1104C15.685 18.9881 15.9172 18.5117 16.0426 18.3765C16.1121 18.3017 16.1107 18.2914 16.0246 18.2464C15.9048 18.1839 15.8058 17.793 15.8429 17.529C15.8726 17.3181 15.7861 17.1823 15.6223 17.1823C15.5695 17.1823 15.5433 17.1441 15.5433 17.0672C15.5433 17.0038 15.5593 16.9519 15.5787 16.9518C15.625 16.9516 15.7695 16.605 15.8091 16.3992C15.8261 16.3106 15.8607 16.2123 15.8859 16.181C15.9571 16.0926 15.8872 15.9071 15.7112 15.7171L15.5508 15.5439L15.5352 14.896C15.5171 14.1403 15.4009 13.8593 15.2645 14.241ZM14.0787 15.2199C14.0787 15.4043 13.327 16.0571 13.2517 15.9381C13.2374 15.9156 13.2688 15.8746 13.3215 15.8471C13.3742 15.8196 13.4173 15.7682 13.4173 15.7328C13.4173 15.6974 13.4598 15.6552 13.5118 15.6392C13.5638 15.6231 13.6063 15.5957 13.6063 15.5783C13.6063 15.539 14.0141 15.1094 14.0514 15.1094C14.0665 15.1094 14.0787 15.1591 14.0787 15.2199ZM9.99548 15.4488C9.77197 15.6544 9.74792 15.9123 9.95669 15.8646C10.1369 15.8236 10.2051 15.7498 10.2525 15.5445C10.3214 15.2468 10.2458 15.2187 9.99548 15.4488ZM12.8668 15.5977C12.9713 15.7375 12.971 15.7378 12.7215 15.7925C12.5086 15.8391 12.4724 15.8268 12.4724 15.7077C12.4724 15.4958 12.7358 15.4223 12.8668 15.5977ZM15.685 21.5125C15.685 21.5885 15.7049 21.6507 15.7291 21.6507C15.7534 21.6507 15.7863 21.6912 15.8024 21.7406C15.9008 22.0428 16.4771 22.0215 16.896 21.7002L17.0138 21.6099L16.8496 21.5798C16.7593 21.5633 16.6463 21.5618 16.5986 21.5764C16.5051 21.6049 16.0855 21.5102 15.9396 21.4276C15.7728 21.3331 15.685 21.3624 15.685 21.5125ZM7.4914 22.6946C7.51049 22.8425 7.52244 23.0154 7.51795 23.0787C7.51346 23.142 7.49802 23.3753 7.4837 23.5969L7.45762 24H7.07627H6.69487L6.81798 23.8888C6.88568 23.8276 6.95315 23.7188 6.96794 23.6469C6.98272 23.5751 7.01277 23.4615 7.03474 23.3945C7.05671 23.3274 7.05643 23.2445 7.03413 23.2102C6.87312 22.9624 7.04674 22.5261 7.33432 22.4557C7.45304 22.4266 7.45776 22.4339 7.4914 22.6946ZM5.99863 23.3175C6.22389 23.6777 6.08594 23.9115 5.72211 23.7861C5.4865 23.7049 5.47167 23.7046 5.42754 23.7812C5.40203 23.8255 5.36093 23.8618 5.33622 23.8618C5.2543 23.8618 5.28973 23.7533 5.41238 23.6285C5.47899 23.5607 5.56932 23.4352 5.61317 23.3496C5.72452 23.1321 5.8749 23.1196 5.99863 23.3175Z" fill="black"/>
</svg>
