<svg width="24" height="24" viewBox="0 0 24 24" fill="none" xmlns="http://www.w3.org/2000/svg">
<path fill-rule="evenodd" clip-rule="evenodd" d="M16.6991 0.149247C16.6191 0.241665 16.3189 0.548449 16.0317 0.831C15.6877 1.16967 15.5039 1.43721 15.4925 1.61586C15.4829 1.76499 15.4682 2.01938 15.4598 2.18126L15.4445 2.47558L15.0746 2.05696C14.8711 1.8268 14.6046 1.58859 14.4821 1.52766C14.2697 1.422 14.2674 1.42544 14.4322 1.60282C14.7749 1.9717 15.8621 4.41851 15.8621 4.82085C15.8621 5.07142 15.5521 4.4557 15.2412 3.58774C15.0545 3.06619 14.7938 2.51434 14.6619 2.36139L14.4221 2.08315L14.5307 2.42653C15.1822 4.48886 15.1729 4.29892 14.7447 6.82236L14.673 7.24491L14.2594 6.77438C14.032 6.51557 13.8615 6.28629 13.8805 6.26471C13.8996 6.24322 13.855 6.19025 13.7812 6.14708C13.6757 6.08517 13.6862 6.02768 13.8309 5.87601C13.9624 5.73816 13.9803 5.6636 13.8942 5.61308C13.8104 5.56392 13.7886 5.24792 13.8224 4.57039C13.8624 3.76875 13.8489 3.63846 13.7457 3.82722C13.5382 4.2067 13.2772 4.99706 13.2772 5.24586C13.2772 5.37448 13.2314 5.45257 13.1751 5.41961C12.997 5.31512 13.3407 4.01931 13.6796 3.51778C13.8163 3.31558 12.8452 2.46617 12.2193 2.24032C11.9683 2.14977 11.9117 2.21422 11.6899 2.84349C11.6073 3.07787 11.4161 3.0607 11.4161 2.81896C11.4161 2.71104 11.4626 2.62275 11.5195 2.62275C11.5763 2.62275 11.6229 2.5786 11.6229 2.52464C11.6229 2.47068 11.5066 2.42653 11.3644 2.42653C11.1041 2.42653 11.0456 2.29732 11.1685 1.99368C11.2028 1.90862 11.2682 1.86094 11.3139 1.88762C11.3595 1.91441 11.3722 1.8472 11.3423 1.7384C11.2476 1.39473 11.1187 1.42661 11.0502 1.81061C11.0139 2.01448 10.9115 2.37031 10.8229 2.60136C10.6483 3.05648 10.7899 3.29871 11.2351 3.30636C11.4689 3.31038 11.4601 3.49679 11.2129 3.77807C10.9113 4.12125 10.3396 3.90796 9.47226 3.12839C8.63848 2.37905 8.02597 1.93599 7.82393 1.93599C7.74194 1.93599 7.88804 2.1325 8.14849 2.37277C8.40894 2.61293 8.84878 3.13899 9.12588 3.54182C9.40309 3.94465 9.72992 4.39497 9.85234 4.54262C9.97465 4.69027 10.0549 4.82998 10.0306 4.85313C9.89649 4.98028 9.49118 4.57284 8.89355 3.71008C8.28663 2.83378 8.00405 2.50345 8.00405 2.66994C8.00405 2.90755 9.23455 4.79083 9.62983 5.15835C9.766 5.28491 9.8695 5.48357 9.85978 5.59983C9.83124 5.9435 9.87333 6.02062 9.97496 5.81125L10.0702 5.61504L10.0414 5.81125C10.0224 5.94135 9.94849 5.99678 9.82204 5.97568C9.66912 5.95027 9.6411 5.99217 9.68039 6.1875C9.71348 6.35183 9.68866 6.41619 9.60409 6.38538C9.49387 6.34526 9.34022 6.60701 9.30776 6.89044C9.30155 6.9444 9.27322 7.01062 9.24479 7.0376C9.12351 7.15268 8.9346 7.53668 8.9346 7.66814C8.9346 7.85082 8.73722 7.96875 8.61914 7.85671C8.51368 7.75664 8.72285 7.12855 9.03976 6.59317C9.15897 6.39176 9.23424 6.1719 9.20705 6.1047C9.17986 6.03739 9.19681 5.9438 9.24479 5.89681C9.29287 5.84971 9.36411 5.64575 9.40329 5.44335C9.52333 4.82399 9.22173 4.99019 8.99302 5.66949C8.88301 5.99629 8.75501 6.2858 8.70868 6.31298C8.66236 6.34015 8.62411 6.43708 8.6238 6.52833C8.62338 6.61957 8.55359 6.82069 8.4687 6.97521C8.38371 7.12983 8.31423 7.31741 8.31423 7.39217C8.31423 7.6135 8.12554 7.54786 7.92929 7.25835C7.5307 6.67029 6.83217 6.05652 6.70199 6.18004C6.67811 6.2028 6.79009 6.39402 6.95097 6.60495C7.32939 7.10118 8.15045 8.59919 8.08046 8.66561C8.00084 8.74125 7.66543 8.25846 7.24409 7.46182C7.03937 7.07469 6.81914 6.72699 6.75483 6.68922C6.57306 6.58268 6.72391 6.97874 7.2352 7.9504L7.68962 8.81414L7.49555 9.2258C7.38885 9.45224 7.21628 9.88028 7.11216 10.1771C7.00804 10.4738 6.83982 10.8491 6.73829 11.011C6.63665 11.1729 6.5256 11.3826 6.49127 11.477C6.38881 11.7594 6.20839 11.6739 5.95662 11.2235C5.68562 10.7389 5.13732 10.079 5.00559 10.079C4.957 10.079 5.05326 10.3329 5.21972 10.6431C5.57654 11.3086 6.05691 12.5478 5.98464 12.6165C5.9012 12.6956 5.64075 12.3073 5.56568 11.9921C5.4687 11.584 5.01366 10.6788 5.00921 10.8849C5.00497 11.0808 5.26604 11.8489 5.49558 12.3162C5.65326 12.6372 5.65026 12.6468 5.18974 13.2973C4.52491 14.2363 4.54052 14.1858 4.82444 14.4772C5.28021 14.9453 5.95104 15.8741 5.91247 15.9838C5.89179 16.0426 5.56186 15.6918 5.17919 15.2042C4.38698 14.1946 4.10368 13.9194 4.22268 14.2753C4.35989 14.6854 3.6903 15.5049 3.40297 15.2787C3.1939 15.114 3.20548 15.2678 3.41899 15.4917C3.70871 15.7954 3.40886 15.6897 3.09278 15.3768C2.75851 15.0457 2.67476 15.0203 2.59214 15.2246C2.55358 15.32 2.58429 15.3487 2.68561 15.3118C2.79614 15.2715 2.81775 15.3035 2.76616 15.431C2.71797 15.5503 2.7339 15.5828 2.81672 15.5342C2.88537 15.494 2.93872 15.5188 2.93996 15.5917C2.94131 15.6624 3.16226 15.8729 3.43109 16.0596C3.93638 16.4104 4.86249 17.3116 4.78887 17.3806C4.76592 17.4022 4.33756 17.0473 3.83692 16.5919C3.33638 16.1365 2.88093 15.7909 2.82499 15.8238C2.76895 15.8566 2.54282 15.729 2.32259 15.5401C2.10226 15.3513 1.81327 15.143 1.6802 15.0773L1.43846 14.9578L1.6741 15.2011C1.98997 15.5274 2.32611 16.1668 2.24629 16.2894C2.21093 16.3437 2.23078 16.3595 2.29054 16.3245C2.3502 16.2895 2.42485 16.3246 2.45628 16.4025C2.49681 16.5026 2.46373 16.5259 2.34327 16.4821C2.21051 16.4337 2.22468 16.4891 2.40727 16.7323C2.5361 16.9041 2.68499 17.0446 2.73793 17.0446C2.79097 17.0446 2.83429 17.0956 2.83429 17.1579C2.83429 17.2205 2.73762 17.1882 2.6182 17.0856C2.40614 16.9035 2.39931 16.9036 2.25704 17.0882C2.09978 17.2922 2.14351 17.3134 1.40992 16.6767C1.15164 16.4525 1.05828 16.5501 1.27768 16.8148C1.41385 16.979 1.46989 17.1468 1.42916 17.2685C1.39049 17.3844 1.40548 17.4376 1.46689 17.4016C1.58363 17.3332 1.9177 17.9248 1.83446 18.0527C1.80438 18.0988 1.69933 18.0675 1.601 17.983C1.31625 17.7385 1.26993 17.8038 1.48747 18.1431C1.64804 18.3937 1.66335 18.4862 1.56347 18.603C1.45997 18.724 1.46958 18.7382 1.6194 18.6849C1.71887 18.6495 1.80034 18.6633 1.80034 18.7155C1.80034 18.9379 1.30074 18.7879 0.973183 18.4672C0.507285 18.0111 0.389001 18.0316 0.72307 18.5105C0.871339 18.7233 0.965325 18.9394 0.931825 18.9908C0.898429 19.0423 0.945473 19.1115 1.03646 19.1446C1.15216 19.1867 1.18308 19.2759 1.13944 19.4411C1.10501 19.571 1.12124 19.692 1.17542 19.7099C1.30198 19.7518 1.01868 20.3253 0.643456 20.7868C0.166288 21.3738 0.463756 21.7646 1.15898 21.4641C1.35047 21.3813 1.44415 21.3776 1.4702 21.4516C1.57349 21.7457 1.77677 21.4973 1.90301 20.9229C2.05521 20.2314 2.16109 20.0032 2.27844 20.1145C2.32021 20.1541 2.27617 20.4216 2.18073 20.709C1.90302 21.5448 1.95802 21.6944 2.45122 21.444C2.76068 21.2868 2.98432 21.067 2.83471 21.067C2.68944 21.067 2.78818 20.7185 3.02599 20.3919C3.11956 20.2632 3.25584 20.0646 3.32873 19.9504C3.48 19.7134 3.39966 21.0182 3.23754 21.4315C3.18594 21.5632 3.19421 21.6733 3.25873 21.7111C3.41589 21.8032 3.4496 21.7395 3.59022 21.0856C3.7268 20.4501 3.79504 20.3257 3.9552 20.4197C4.01744 20.4562 3.98425 20.7034 3.86825 21.067C3.66332 21.7092 3.70809 21.8028 4.17378 21.7057C4.56244 21.6247 4.71102 21.446 4.81131 20.9392C5.15055 19.224 5.47118 18.321 5.60539 18.703C5.66411 18.8702 5.42051 19.8942 5.28093 20.067C5.22396 20.1375 5.16254 20.3361 5.14445 20.5085C5.12636 20.6808 5.08686 20.9211 5.05667 21.0425C5.02017 21.1888 5.04912 21.2633 5.14218 21.2633C5.22892 21.2633 5.33366 21.0473 5.41576 20.6991C5.93573 18.4927 6.54597 17.243 7.10513 17.2394C7.41666 17.2374 7.85495 17.0055 7.82155 16.8604C7.80646 16.7948 7.91761 16.5875 8.06857 16.3998C8.21952 16.2119 8.37937 15.8939 8.42383 15.693C8.75201 14.209 8.95125 13.905 9.43876 14.1442C9.91344 14.3771 9.87074 14.7199 9.29359 15.3094C8.56104 16.0575 8.75666 16.0196 9.52488 15.2645C10.5477 14.2592 11.003 14.4251 10.7221 15.7006C10.6287 16.1246 10.4861 16.1878 10.32 15.8791C10.1136 15.4958 10.0511 15.5182 10.0792 15.9654C10.1137 16.5126 10.0684 17.9142 10.0206 17.7804C10.0012 17.7265 9.95604 17.5155 9.92006 17.3117C9.88418 17.1078 9.81739 16.9629 9.7719 16.9896C9.7263 17.0164 9.63541 16.8683 9.56986 16.6606C9.34394 15.9452 9.13085 15.9479 9.21759 16.6649C9.25926 17.0086 9.28522 17.4444 9.27529 17.6333C9.26536 17.8221 9.25626 18.1422 9.25523 18.3445C9.25265 18.8087 9.12681 18.813 8.89759 18.3569C8.6603 17.8847 8.5933 17.9809 8.73981 18.5832C8.94732 19.4363 8.67446 21.1416 8.46012 20.3312C8.33646 19.8639 8.23751 20.0896 8.22697 20.8629C8.21983 21.3848 8.14766 21.8114 8.00684 22.1628C7.69459 22.9426 7.76427 23.3235 8.21942 23.3235C8.31516 23.3235 8.41752 23.4107 8.44689 23.5174C8.51885 23.7783 8.9986 23.9838 9.22266 23.8497C9.31541 23.7943 9.55932 23.2668 9.76476 22.6777C10.0912 21.7418 10.5889 20.6719 10.5889 20.9062C10.5889 21.0344 10.2783 22.0808 10.1918 22.2443C9.99781 22.6109 9.72837 23.5207 9.79506 23.584C9.83569 23.6226 10.0464 23.4897 10.2633 23.2888L10.6577 22.9233L10.6091 23.2375C10.5543 23.5918 10.7727 23.8141 11.1753 23.8141C11.4122 23.8141 11.7425 23.3467 11.9361 22.7376C11.9795 22.6013 12.048 22.4124 12.0885 22.3179C12.1505 22.1729 12.103 22.1462 11.7829 22.1462C11.5566 22.1462 11.4296 22.1067 11.4678 22.0481C11.5029 21.9942 11.6652 21.95 11.8284 21.95C12.1633 21.95 12.4097 21.7541 12.6248 21.3165C12.7473 21.0672 12.7623 21.0585 12.7157 21.2633C12.6848 21.3982 12.659 21.6049 12.6583 21.7227C12.6574 21.8498 12.5729 21.9621 12.45 21.9991C12.3343 22.0339 12.2432 22.1475 12.2432 22.257C12.2432 22.3647 12.1675 22.6725 12.0749 22.941C11.8784 23.5112 11.9423 23.6379 12.2761 23.3403C12.6185 23.0351 12.8227 23.073 12.7771 23.4331C12.7728 23.4665 12.8837 23.5956 13.0233 23.7201C13.1629 23.8445 13.2772 23.8982 13.2772 23.8394C13.2772 23.7805 13.2191 23.713 13.148 23.6894C13.0523 23.6577 13.064 23.598 13.1926 23.4602C13.2883 23.3577 13.4888 23.0312 13.6385 22.7346C13.8682 22.2789 13.8992 22.2485 13.8385 22.5383C13.7989 22.7269 13.6948 23.0239 13.6072 23.1983C13.461 23.4892 13.4627 23.531 13.6273 23.7036C13.7665 23.8496 13.7764 23.9033 13.6712 23.9433C13.4792 24.0163 14.1074 24.02 14.392 23.9476C14.545 23.9087 14.7021 23.7282 14.8389 23.4339C14.9549 23.1843 15.1125 22.8477 15.1891 22.6858C15.4917 22.0459 15.7586 21.3015 15.7586 21.0974C15.7587 20.9791 15.8059 20.8547 15.8636 20.8209C16.0123 20.7337 16.2757 20.1046 16.2757 19.8368C16.2757 19.3959 16.3776 19.3011 16.8518 19.3011C17.3261 19.3011 18.0334 18.8546 18.0334 18.5551C18.0334 18.4797 18.0799 18.4181 18.1368 18.4181C18.1936 18.4181 18.2402 18.3697 18.2402 18.3103C18.2402 18.2511 18.3147 18.0413 18.4058 17.8443C18.7158 17.1738 18.7499 17.0936 18.9536 16.5541C19.6101 14.8151 19.9336 14.0355 20.0527 13.9052C20.1266 13.8242 20.4406 13.2944 20.7504 12.7279C21.8409 10.7331 22.3951 9.89363 23.4057 8.70544C24.0849 7.90684 24.1749 7.57533 23.7117 7.57975C23.4523 7.5823 23.4474 7.57092 23.5374 7.17034C23.6292 6.76221 23.4472 6.23194 22.9708 5.51929C22.8996 5.41274 22.6845 5.08359 22.493 4.78799C21.9348 3.9265 20.9284 3.07139 20.9284 3.45863C20.9284 3.54064 20.8209 3.77237 20.6896 3.97369C20.5582 4.17491 20.2954 4.7149 20.1057 5.17355C19.9161 5.63221 19.6331 6.27236 19.4771 6.59612C17.7615 10.1543 17.458 10.7568 17.3066 10.9038C17.1738 11.0328 16.896 10.7819 16.8959 10.533C16.8956 10.0749 18.2661 6.4103 19.1755 4.43774C19.2253 4.32982 19.4313 3.84419 19.6334 3.35856L20.0008 2.47558L19.5206 2.06657C19.2564 1.84171 18.9808 1.67934 18.908 1.70583C18.7549 1.76155 18.3477 2.755 17.9289 4.09437C17.2913 6.13344 17.0849 6.7267 16.6252 7.84209C16.1156 9.07864 16.0283 9.19961 15.8012 8.98407C15.5806 8.7747 15.5956 8.43603 15.8634 7.5772C16.0927 6.84178 16.2452 6.54991 16.8729 5.64378C17.1026 5.31218 17.1183 5.21966 17.0517 4.59118C16.9816 3.92837 17.1076 3.24318 17.4226 2.57369C17.9685 1.41347 17.9598 0.923516 17.3832 0.386669C16.88 -0.081895 16.8947 -0.0768915 16.6991 0.149247ZM16.7982 2.26652C16.5786 3.46598 16.5313 3.63738 16.41 3.67584C16.261 3.72293 16.2946 3.42262 16.6157 1.83788C16.8684 0.590733 17.034 0.979437 16.7982 2.26652ZM13.4457 6.32632C13.6928 6.64772 14.0294 7.24088 14.2527 7.74889C14.6333 8.6144 14.7438 8.86359 14.8286 9.04882C14.9985 9.41957 15.0601 9.71291 14.9553 9.6514C14.8994 9.61863 14.7506 9.33716 14.6246 9.02596C14.2213 8.02938 14.0709 7.71632 13.9654 7.65451C13.9014 7.61693 13.892 7.6651 13.9406 7.78185C14.0708 8.09491 14.4149 9.41299 14.4099 9.57958C14.4073 9.66533 14.2931 9.5369 14.1561 9.29409C13.9557 8.93894 13.906 8.89734 13.9022 9.08149C13.8994 9.22002 13.8465 9.29409 13.7683 9.26907C13.6751 9.23925 13.6388 8.91569 13.6381 8.10816C13.6371 7.00405 13.507 6.49723 13.1745 6.30219C13.1172 6.26863 13.0704 6.19966 13.0704 6.14884C13.0704 5.97647 13.2376 6.05554 13.4457 6.32632ZM15.7704 7.00582C15.5576 7.97493 15.4462 8.23197 15.5015 7.62625C15.5578 7.01043 15.7664 6.2447 15.8311 6.41717C15.8547 6.48065 15.8274 6.74554 15.7704 7.00582ZM12.9513 7.20929C12.9112 7.62753 12.875 8.06018 12.871 8.17085C12.8669 8.28152 12.399 9.03204 11.831 9.83868C10.7796 11.3322 10.6971 11.5058 10.925 11.7451C10.9961 11.8198 10.9187 11.8008 10.7529 11.7029C10.5873 11.6051 10.2964 11.4381 10.1067 11.3319C9.75515 11.1351 9.64038 10.9949 9.91179 11.0937C10.2287 11.2091 10.7404 10.4036 12.5954 6.87043C12.9284 6.23606 13.0349 6.33751 12.9513 7.20929ZM8.00405 9.34893C8.00405 9.37905 7.77141 9.83584 7.48707 10.364C7.20274 10.8921 6.9701 11.3703 6.9701 11.4269C6.9701 11.4834 6.89638 11.5564 6.80632 11.5892C6.71626 11.622 6.6596 11.6157 6.68049 11.5752C6.70127 11.5347 6.78274 11.3691 6.86153 11.2072C7.60194 9.68603 8.00405 9.03204 8.00405 9.34893ZM14.001 9.65267C14.001 9.90971 13.9981 9.9107 13.7874 9.72978C13.5733 9.54593 13.5999 9.49923 13.9751 9.39906C13.9893 9.39533 14.001 9.50943 14.001 9.65267ZM13.747 10.0252C13.8511 10.2616 13.8673 10.4362 13.8003 10.6033C13.7475 10.735 13.732 10.9433 13.7658 11.066C13.8163 11.2489 13.7947 11.2774 13.6472 11.2238C13.5482 11.1877 13.4065 11.1581 13.3325 11.1581C13.1236 11.1581 13.0469 10.7356 13.2321 10.6042C13.3233 10.5396 13.3979 10.3206 13.4076 10.0892C13.4283 9.59753 13.5487 9.57487 13.747 10.0252ZM12.6202 11.1932C13.3194 12.3561 13.7066 13.1264 13.6561 13.2538C13.6317 13.3153 13.4784 13.0872 13.3152 12.747C13.0842 12.2649 12.9596 12.1168 12.7506 12.0755C12.5438 12.0348 12.4917 11.9743 12.5229 11.8111C12.5453 11.6948 12.4032 11.3048 12.2074 10.9444C11.7019 10.0144 12.0308 10.2126 12.6202 11.1932ZM15.0183 11.0156C15.0843 11.153 15.1383 11.348 15.1383 11.4489C15.1383 11.5498 15.1947 11.6502 15.2635 11.6719C15.4204 11.7216 14.635 12.2373 14.4025 12.2373C14.2181 12.2373 14.079 11.9133 14.2061 11.7796C14.2489 11.7345 14.3662 11.488 14.4667 11.2317C14.6711 10.7105 14.84 10.6442 15.0183 11.0156ZM10.3318 11.6865C10.5226 11.819 10.5201 11.8479 10.2332 12.8053C10.0713 13.3458 9.96876 13.8623 10.0055 13.9529C10.0421 14.0436 10.0357 14.103 9.99099 14.0851C9.94643 14.067 9.69063 13.964 9.42263 13.8561C8.99643 13.6845 8.75676 13.4146 9.03055 13.4146C9.08339 13.4146 9.22566 13.1607 9.34684 12.8505C9.87395 11.5011 9.94446 11.4178 10.3318 11.6865ZM16.9105 12.3233C16.8379 12.4638 16.7663 13.3212 16.7472 14.2741C16.7438 14.4502 16.6944 14.5778 16.6375 14.5578C16.5807 14.5379 16.3572 14.4614 16.1409 14.388C15.6763 14.2302 15.6794 14.1832 16.228 13.0561C16.4249 12.6518 16.5858 12.2071 16.5858 12.0678C16.5858 11.822 16.5919 11.8197 16.7893 11.9892C16.926 12.1065 16.9658 12.2162 16.9105 12.3233ZM13.0538 12.8694C13.1736 13.1902 13.2528 13.4705 13.2296 13.4924C13.0683 13.6455 12.7621 12.959 12.7608 12.4417C12.76 12.1274 12.796 12.1799 13.0538 12.8694ZM14.8559 12.2964C14.948 12.3837 14.5983 13.0312 14.4794 12.9936C14.1983 12.9048 14.1698 12.6412 14.4197 12.4438C14.6933 12.2279 14.76 12.2053 14.8559 12.2964ZM5.73835 13.2491C5.54469 13.4329 5.6149 13.5187 5.9103 13.4594C6.15359 13.4105 6.16765 13.4184 6.00739 13.5148C5.9044 13.5766 5.75324 13.6029 5.67135 13.5731C5.58677 13.5423 5.52257 13.5765 5.52257 13.6524C5.52257 13.7259 5.44978 13.8125 5.36075 13.845C5.23223 13.8917 5.21403 13.8585 5.27225 13.6838C5.37492 13.3761 5.6606 13.0326 5.7642 13.0924C5.81187 13.1199 5.80018 13.1904 5.73835 13.2491ZM13.695 14.2363L14.0331 14.3712L13.7585 14.5306C13.6075 14.6183 13.3636 14.7598 13.2165 14.845C13.0695 14.9303 12.9266 14.9787 12.8991 14.9527C12.8497 14.9057 13.2465 14.1014 13.3192 14.1014C13.3399 14.1014 13.509 14.1621 13.695 14.2363ZM16.3542 14.8236C16.459 14.9206 16.459 14.9746 16.3542 15.0997C16.18 15.3076 15.658 15.423 15.6473 15.256C15.643 15.1875 15.6225 15.0458 15.6019 14.9409C15.5284 14.5679 15.9989 14.4945 16.3542 14.8236ZM13.8976 14.8714C13.8976 15.0673 13.113 16.9461 13.0214 16.9697C12.966 16.9839 12.8413 16.7086 12.7443 16.3579C12.5696 15.7258 12.57 15.7181 12.7933 15.4877C13.1965 15.0721 13.8976 14.6807 13.8976 14.8714ZM12.1344 15.2541C12.2723 15.7254 12.2795 17.7416 12.1425 17.536C12.041 17.3835 11.9794 16.9282 11.887 15.6466C11.8283 14.8312 11.9528 14.6337 12.1344 15.2541ZM15.0286 15.6711C15.0975 15.86 15.1936 16.2573 15.2423 16.5541C15.291 16.8509 15.3646 17.244 15.4059 17.4277C15.4535 17.6398 15.4435 17.74 15.3787 17.702C15.3227 17.6692 15.2171 17.3863 15.1443 17.0737C15.0715 16.7609 14.9719 16.4579 14.9231 16.4004C14.8743 16.343 14.8038 16.0339 14.7664 15.7137C14.6928 15.0837 14.8074 15.0651 15.0286 15.6711ZM11.7345 17.3332C11.7668 18.3172 11.8053 18.8162 11.877 19.1785C11.994 19.7695 11.7909 19.7138 11.5781 19.0965C11.352 18.4406 11.3575 16.6036 11.5847 16.8983C11.6626 16.9995 11.73 17.1951 11.7345 17.3332ZM14.5227 17.7209C14.749 18.5056 14.8746 19.409 14.7288 19.203C14.6714 19.1221 14.6216 18.9455 14.6182 18.8106C14.6148 18.6757 14.5481 18.4328 14.47 18.271L14.3279 17.9766L14.318 18.32C14.3125 18.5089 14.2621 18.7296 14.206 18.8106C14.1362 18.9113 14.1122 18.6565 14.13 18.0017C14.1597 16.9121 14.2671 16.8352 14.5227 17.7209ZM6.24633 17.2981C6.24633 17.4058 5.29737 18.5019 5.16141 18.5515C4.88638 18.6516 4.92618 18.4848 5.2953 17.9918C5.76803 17.3601 6.24633 17.0113 6.24633 17.2981ZM3.62909 18.3651C4.06862 18.7675 4.39535 19.1279 4.35513 19.1661C4.28813 19.2297 2.89106 18.0394 2.69988 17.7559C2.47479 17.422 2.91277 17.7092 3.62909 18.3651ZM9.65837 18.7182C9.65837 19.2204 9.62063 19.4867 9.55497 19.4483C9.49811 19.4149 9.45158 19.0592 9.45158 18.6576C9.45158 18.2363 9.49531 17.9276 9.55497 17.9276C9.61536 17.9276 9.65837 18.2565 9.65837 18.7182ZM10.8379 18.5408C10.9206 18.6622 11.037 19.1817 11.0966 19.6952C11.1561 20.2088 11.2338 20.7663 11.2692 20.9342C11.3051 21.1046 11.287 21.2667 11.2283 21.3011C11.0341 21.415 10.7768 20.4076 10.76 19.4686L10.744 18.5653L10.408 18.5346C10.1023 18.5066 10.0712 18.5288 10.0638 18.7799C10.0593 18.9316 10.0315 18.9987 10.0019 18.929C9.7811 18.4067 10.5145 18.066 10.8379 18.5408ZM10.5889 18.9087C10.5889 19.0177 10.52 19.1049 10.4338 19.1049C10.3477 19.1049 10.2787 19.0177 10.2787 18.9087C10.2787 18.7997 10.3477 18.7125 10.4338 18.7125C10.52 18.7125 10.5889 18.7997 10.5889 18.9087ZM13.8632 19.0804C14.0655 19.5049 14.3084 20.7627 14.2004 20.8261C14.1603 20.8496 14.0968 20.7258 14.0593 20.551C14.0216 20.3762 13.9492 20.0345 13.898 19.7916C13.8273 19.4557 13.8174 19.573 13.8568 20.2822C13.9164 21.3552 13.7546 21.4122 13.5793 20.38C13.4882 19.8432 13.5359 18.7125 13.6496 18.7125C13.6707 18.7125 13.7669 18.8781 13.8632 19.0804ZM4.07566 20.0361C3.89947 20.2376 3.75348 20.0992 3.83412 19.8068C3.89006 19.6037 3.91281 19.5957 4.05446 19.73C4.18639 19.8552 4.1898 19.9056 4.07566 20.0361ZM9.23445 20.8659C9.24748 21.5385 9.06002 21.4194 8.96996 20.698C8.89573 20.1032 9.01597 19.6836 9.14532 20.086C9.18864 20.2209 9.22876 20.5718 9.23445 20.8659ZM0.662998 20.0705C0.662998 20.1375 0.617194 20.2457 0.561154 20.3108C0.0515197 20.9039 -0.0541501 21.0594 0.0223623 21.1042C0.181591 21.1976 0.916109 20.1888 0.781696 20.0612C0.692362 19.9765 0.662998 19.9788 0.662998 20.0705ZM10.1753 20.1783C10.1753 20.2291 10.1265 20.2993 10.0669 20.3342C9.99151 20.3784 9.99213 20.4361 10.0687 20.5237C10.2361 20.7151 10.089 21.0064 9.90011 20.8576C9.81884 20.7936 9.77572 20.6835 9.80426 20.613C9.8328 20.5425 9.80932 20.4573 9.75225 20.4237C9.68463 20.3841 9.69073 20.3144 9.76941 20.2244C9.906 20.0682 10.1753 20.0376 10.1753 20.1783ZM13.0475 20.2667C13.1432 20.3243 13.1061 20.378 12.9133 20.4614C12.6077 20.5936 11.9331 20.6165 11.9331 20.4948C11.9331 20.3312 12.063 20.2963 12.2528 20.4086C12.4092 20.5015 12.4813 20.4909 12.6256 20.3538C12.8275 20.1622 12.8622 20.155 13.0475 20.2667ZM15.1383 20.6301L15.3968 20.7748L15.0429 20.7492C14.8482 20.7351 14.6698 20.6685 14.6466 20.601C14.59 20.4378 14.819 20.4513 15.1383 20.6301ZM13.3668 22.5256C13.2444 22.8051 13.1197 23.0107 13.0899 22.9823C13.0601 22.954 13.0842 22.8315 13.1435 22.7102C13.2029 22.5889 13.3055 22.3625 13.3716 22.2072C13.4377 22.0518 13.5137 21.9455 13.5405 21.971C13.5674 21.9965 13.4893 22.246 13.3668 22.5256Z" fill="black"/>
</svg>
