<svg width="24" height="24" viewBox="0 0 24 24" fill="none" xmlns="http://www.w3.org/2000/svg">
<path fill-rule="evenodd" clip-rule="evenodd" d="M15.5085 0.154448L15.2633 0.302036L15.5907 0.3397C15.811 0.365019 15.9374 0.416424 15.9769 0.496844C16.0093 0.562617 16.0725 0.616393 16.1175 0.616393C16.1625 0.616393 16.2137 0.679166 16.2313 0.75589C16.2489 0.832613 16.2936 0.895387 16.3304 0.895387C16.4282 0.895387 16.4124 0.717319 16.3055 0.616393C16.2549 0.568615 16.2135 0.484847 16.2135 0.430234C16.2135 0.375621 16.131 0.277415 16.03 0.21206C15.9291 0.146776 15.8463 0.0697735 15.8461 0.0409674C15.8455 -0.0329661 15.7875 -0.0135063 15.5085 0.154448ZM4.22778 0.235775C4.07041 0.288784 3.98531 0.357277 3.99028 0.427026C3.99451 0.48673 3.96692 0.522581 3.92897 0.506678C3.89102 0.490706 3.65682 0.639061 3.40858 0.83631L2.95729 1.19503L2.98488 1.57334C3.02461 2.1185 2.79777 2.31651 2.11915 2.32914C1.56897 2.33932 1.41821 2.41444 1.27923 2.74777C1.2227 2.88315 1.10235 3.03764 1.01168 3.09093C0.921063 3.14429 0.810586 3.23768 0.766137 3.29857C0.72175 3.35946 0.564249 3.44393 0.416128 3.4864C0.1327 3.56759 -0.0772805 3.8025 0.0273113 3.9215C0.0654451 3.96488 0.126692 3.94765 0.19922 3.87295C0.368614 3.69858 0.457327 3.85189 0.457327 4.31871C0.457327 4.69529 0.468792 4.72472 0.687233 4.91102C1.0747 5.24142 1.21681 5.44759 1.21718 5.67992C1.21749 5.843 1.25955 5.92328 1.38921 6.00795L1.56088 6.12004V5.60013C1.56088 5.18457 1.54242 5.0803 1.46891 5.0803C1.41833 5.0803 1.37695 5.04891 1.37695 5.01055C1.37695 4.97219 1.41539 4.9408 1.46235 4.9408C1.67282 4.9408 1.70685 3.60226 1.49957 3.47608C1.3466 3.3829 1.31865 2.84834 1.46677 2.84834C1.51612 2.84834 1.58607 2.78557 1.62218 2.70885C1.74039 2.45754 1.95282 2.53413 2.10609 2.88322C2.18187 3.05585 2.27009 3.19709 2.30222 3.19709C2.33428 3.19709 2.39191 3.27555 2.43035 3.37146C2.51471 3.58217 2.60851 3.59221 2.75639 3.40633C2.84492 3.29508 2.94522 3.26684 3.25206 3.26684H3.63677L3.77876 3.59033C3.98789 4.06664 4.12393 4.14609 4.53739 4.03323C4.88378 3.93865 4.95294 3.8636 4.75822 3.7933C4.6529 3.75528 4.50367 3.48564 4.50367 3.33331C4.50367 3.2314 4.72481 3.25435 4.80525 3.36462C4.84442 3.4184 4.93927 3.48027 5.0159 3.50217C5.09254 3.52407 5.25801 3.66838 5.38369 3.82287C5.50937 3.97743 5.65271 4.10382 5.70225 4.10382C5.75178 4.10382 5.83835 4.16499 5.89463 4.23976C5.95091 4.31453 6.02528 4.35575 6.05986 4.33141C6.0945 4.30706 6.45266 4.28516 6.85582 4.28265C7.33145 4.27979 7.59692 4.2512 7.61169 4.2014C7.64235 4.09824 7.15973 3.89457 6.88482 3.89457C6.42918 3.89457 6.41287 3.51451 6.8652 3.43737C7.33722 3.35681 7.53634 2.98784 7.1078 2.98784C6.95845 2.98784 6.87937 2.94613 6.83014 2.84137C6.78054 2.73605 6.71929 2.70403 6.61182 2.7274C6.38724 2.77629 6.33348 2.59718 6.48914 2.31881C6.61807 2.08829 6.81082 2.01359 6.92921 2.14828C7.11816 2.36324 8.66196 2.43543 8.93687 2.24216C9.03834 2.17081 8.78667 2.01136 8.57258 2.01136C8.32317 2.01136 8.27548 1.93143 8.43316 1.77784C8.56197 1.65237 8.54168 1.52312 8.39313 1.52312C8.24869 1.52312 8.29289 1.32553 8.44273 1.30132C8.63554 1.27015 8.61476 1.09019 8.40514 0.975946C8.28155 0.908499 8.19081 0.900269 8.0986 0.948116C8.02657 0.985432 7.91069 0.992058 7.84123 0.962834C7.54082 0.83638 6.54701 0.9998 6.22306 1.22885C6.00376 1.38397 5.8058 1.45944 5.53157 1.49243C5.3203 1.51789 5.11982 1.57481 5.0861 1.61896C5.05238 1.66311 4.95582 1.73927 4.87152 1.78831C4.5857 1.95445 4.43887 2.06095 4.33317 2.17869C3.85791 2.70836 3.17408 3.04706 3.22754 2.72628C3.2398 2.6527 3.3146 2.59544 3.416 2.58218C3.50839 2.57005 3.58405 2.53301 3.58405 2.49995C3.58405 2.4279 3.64989 2.35167 4.06434 1.94392C4.35304 1.65983 4.38105 1.60605 4.38105 1.33606C4.38105 1.00168 4.48497 0.895387 4.81193 0.895387C4.95282 0.895387 5.01419 0.858071 5.03705 0.75854C5.05833 0.666054 5.1509 0.600629 5.32257 0.556757L5.57657 0.491821L5.27487 0.484359C5.10891 0.480244 4.92958 0.435883 4.87636 0.385734C4.67368 0.194972 4.48111 0.150403 4.22778 0.235775ZM15.6414 1.63939C15.6189 1.66492 15.6005 1.79047 15.6005 1.91839C15.6005 2.17576 15.5878 2.18664 15.4242 2.07037C15.3352 2.00711 15.2815 2.01332 15.1738 2.09918C15.0379 2.20743 15.0378 2.2091 15.1605 2.2838C15.4937 2.48663 15.6063 2.97445 15.3552 3.12734C15.1553 3.24905 15.2029 3.40633 15.4397 3.40633C15.7375 3.40633 15.9594 2.98366 15.7862 2.74616C15.7459 2.69099 15.7261 2.58937 15.7421 2.52039C15.7676 2.41137 15.7772 2.41549 15.8157 2.55191C15.8656 2.72866 15.999 2.76067 16.0504 2.60827C16.102 2.45545 16.0247 2.02385 15.9298 1.93422C15.8835 1.89049 15.8457 1.79584 15.8457 1.72386C15.8457 1.59636 15.7235 1.54586 15.6414 1.63939ZM1.42679 4.02207C1.44255 4.20335 1.4187 4.25524 1.29486 4.30881C1.21166 4.3448 1.12553 4.4075 1.10339 4.44824C1.08126 4.48897 1.00536 4.52231 0.934674 4.52231C0.81408 4.52231 0.812425 4.5145 0.907637 4.39474C0.963427 4.32457 1.0091 4.24311 1.0091 4.21374C1.0091 4.0997 1.27064 3.74963 1.33728 3.77447C1.37597 3.7889 1.41625 3.90029 1.42679 4.02207ZM6.15899 4.73309C6.15899 4.77061 6.18726 4.8013 6.22183 4.8013C6.25635 4.8013 6.31085 4.87977 6.34292 4.97567C6.37498 5.07158 6.42734 5.15005 6.45934 5.15005C6.60654 5.15005 6.89469 5.51936 6.89469 5.70803C6.89469 5.92781 7.19179 6.26602 7.38485 6.26602C7.73817 6.26602 7.77434 6.42505 7.44647 6.53679C7.1517 6.63722 7.15446 6.58631 7.41581 7.09359C7.53383 7.32264 7.63039 7.53279 7.63039 7.56055C7.63039 7.58831 7.72009 7.70793 7.82964 7.82643C8.12963 8.15077 8.32612 8.56291 8.26585 8.74147C8.22643 8.85829 8.12086 8.88536 8.12086 8.77864C8.12086 8.74126 8.01939 8.60783 7.89537 8.48221C7.77134 8.35659 7.62144 8.20105 7.56228 8.13647C7.27125 7.81897 7.16083 7.78075 7.02252 7.94968C6.84436 8.1673 6.72174 8.03742 6.82848 7.7442C6.97537 7.34071 6.50122 6.61476 6.09064 6.61476C6.01995 6.61476 5.90971 6.53902 5.84571 6.44646C5.7817 6.3539 5.61219 6.21364 5.46897 6.13482C5.32575 6.05594 5.16237 5.92997 5.1059 5.85492C4.96594 5.66897 4.44236 5.81001 4.44236 6.03369C4.44236 6.14926 4.57712 6.15456 4.67533 6.04283C4.73254 5.97775 4.76527 5.97775 4.82247 6.04283C4.87967 6.1079 4.87967 6.14515 4.82247 6.21022C4.72015 6.32663 4.73051 6.47527 4.84087 6.47527C4.94767 6.47527 4.97139 6.8584 4.86901 6.93038C4.83394 6.95507 4.82205 7.03556 4.84258 7.10921C4.88703 7.26838 4.71641 7.37293 4.60992 7.25178C4.51587 7.14478 4.31184 7.15218 4.16482 7.26796C4.0983 7.32034 3.97906 7.38625 3.89985 7.41436C3.76779 7.4613 3.69324 7.52442 3.38547 7.85001C3.29357 7.94724 3.24648 7.95066 3.04496 7.87498C2.59374 7.70556 2.30179 7.92736 2.60649 8.20803C2.72365 8.316 2.73192 8.35443 2.66767 8.491C2.60612 8.62199 2.61102 8.6713 2.69643 8.77871C2.77846 8.8818 2.79084 8.98035 2.75688 9.26109C2.72806 9.49956 2.73597 9.61395 2.78128 9.61395C2.89819 9.61395 2.85423 9.76224 2.66442 10.0082C2.55603 10.1487 2.4805 10.3248 2.4805 10.4372C2.4805 10.542 2.40944 10.7468 2.32257 10.8922C2.17469 11.1398 2.16562 11.2028 2.18033 11.8773C2.1929 12.453 2.17696 12.6197 2.10088 12.7063C2.04576 12.769 2.01762 12.8855 2.03405 12.9834L2.06244 13.1522L2.20541 12.9895C2.28407 12.9001 2.36616 12.7631 2.38792 12.6851C2.40969 12.6071 2.46358 12.5434 2.50778 12.5434C2.55198 12.5434 2.62218 12.4967 2.66387 12.4395C2.70556 12.3824 2.76411 12.3529 2.79397 12.3739C2.85742 12.4185 2.86772 12.8469 2.80703 12.9158C2.78434 12.9417 2.76111 13.2059 2.75541 13.5029C2.74462 14.0694 2.79378 14.3742 2.8725 14.2293C3.02547 13.9478 3.38277 14.2337 3.46045 14.6997C3.49368 14.8991 3.56523 15.1126 3.61948 15.1743C3.69777 15.2634 3.71531 15.4167 3.70489 15.9202C3.69759 16.2687 3.69508 16.6089 3.69919 16.676C3.71102 16.8689 3.8332 16.8183 3.90935 16.5888C4.00566 16.2984 4.07451 16.3275 4.07451 16.6585C4.07451 16.812 4.04692 16.9375 4.01321 16.9375C3.97949 16.9375 3.9519 17.016 3.9519 17.1119C3.9519 17.2078 3.97949 17.2863 4.01321 17.2863C4.04692 17.2863 4.07451 17.2384 4.07451 17.1799C4.07451 17.1215 4.13975 17.0454 4.21945 17.0109C4.39246 16.9361 4.44236 16.8091 4.44236 16.4436C4.44236 16.1456 4.52862 16.0766 4.58766 16.3272C4.6548 16.6124 4.62807 16.9885 4.53433 17.077C4.40687 17.1974 4.413 17.6792 4.54303 17.7619C4.61948 17.8107 4.63236 17.8742 4.59662 18.0269C4.57074 18.1375 4.55253 18.3691 4.55615 18.5418C4.55977 18.7144 4.52574 18.9498 4.48056 19.0649C4.4255 19.2051 4.4111 19.4007 4.43697 19.6577C4.47375 20.0241 4.47749 20.0308 4.52022 19.806C4.54487 19.6765 4.56498 19.4526 4.56498 19.3084C4.56498 19.1049 4.59245 19.0381 4.6876 19.0098C4.79593 18.9775 4.81021 18.9146 4.81021 18.4688C4.81021 18.0913 4.83437 17.9442 4.90622 17.8844C4.95907 17.8404 5.01799 17.671 5.03724 17.5079C5.05949 17.3189 5.11369 17.186 5.18646 17.1417C5.26254 17.0953 5.30068 16.9951 5.30068 16.8413C5.30068 16.699 5.3477 16.5619 5.4233 16.4842C5.49073 16.4148 5.54591 16.2892 5.54591 16.2052C5.54591 16.1211 5.5979 15.9989 5.66148 15.9334C5.72505 15.868 5.79335 15.7219 5.81322 15.6088C5.83431 15.4889 5.88838 15.4031 5.94288 15.4031C5.99493 15.4031 6.03638 15.3423 6.03638 15.266C6.03638 15.1907 6.09156 15.0954 6.15899 15.0543C6.23134 15.0103 6.28161 14.9083 6.28161 14.8055C6.28161 14.7098 6.32404 14.613 6.37584 14.5903C6.42771 14.5677 6.51201 14.451 6.5632 14.331C6.75859 13.8728 6.80481 13.7964 6.90947 13.7586C6.96875 13.7372 7.01731 13.6726 7.01731 13.615C7.01731 13.5575 7.13453 13.3724 7.27787 13.2038C7.84129 12.541 8.04171 12.2904 8.17996 12.0756C8.25911 11.9526 8.40239 11.8209 8.49827 11.7828C8.71935 11.6951 8.73216 11.4972 8.51679 11.4972C8.43108 11.4972 8.32759 11.4647 8.28688 11.425C8.24617 11.3854 8.15801 11.3097 8.091 11.2569C7.97028 11.1619 7.97022 11.1597 8.08861 11.0109C8.19038 10.883 8.19473 10.8514 8.11841 10.7965C7.97507 10.6933 7.90567 10.717 7.70133 10.9392C7.48307 11.1765 7.4312 11.191 7.32453 11.0447C7.22754 10.9118 7.28952 10.7271 7.44677 10.6803C7.60348 10.6337 7.6036 10.5472 7.44696 10.5006C7.37982 10.4806 7.2764 10.3677 7.21705 10.2494C7.08334 9.98292 6.96881 9.92782 6.83504 10.0656C6.70519 10.1993 6.58343 10.2005 6.43126 10.0695C6.36585 10.0132 6.23894 9.96611 6.14931 9.96492C5.96722 9.96241 5.35825 9.63139 5.28229 9.49363C5.21233 9.36676 4.95576 9.38378 4.81089 9.52481C4.65357 9.67812 4.65437 9.75345 4.81334 9.75345C4.97985 9.75345 5.3691 10.236 5.34782 10.4161C5.32606 10.6002 4.89371 10.571 4.73119 10.3743C4.59435 10.2088 4.45033 10.2049 4.34182 10.3637C4.2623 10.48 4.25531 10.48 4.19406 10.3637C4.15869 10.2966 4.08107 10.2417 4.0216 10.2417C3.9026 10.2417 3.58405 9.89797 3.58405 9.76949C3.58405 9.62992 3.831 9.52907 4.05545 9.57698C4.53549 9.67937 4.75565 9.47229 4.70206 8.96878C4.67509 8.7158 4.68042 8.70722 4.86484 8.70722C4.97673 8.70722 5.1086 8.64675 5.18413 8.56082C5.28351 8.44775 5.35684 8.42467 5.506 8.45933C5.61225 8.48402 5.83713 8.52734 6.00572 8.55552C6.17432 8.58369 6.34617 8.63084 6.38761 8.66021C6.42906 8.68964 6.51906 8.67953 6.5876 8.63782C6.72751 8.55259 7.13993 8.84497 7.13993 9.02939C7.13993 9.08233 7.16751 9.12571 7.20123 9.12571C7.23495 9.12571 7.26254 9.09432 7.26254 9.05596C7.26254 8.8772 7.59422 8.99919 7.80622 9.25593C8.13324 9.6521 8.18217 9.7335 8.18217 9.88123C8.18217 10.0279 8.54848 10.5207 8.65755 10.5207C8.69501 10.5207 8.7432 10.5835 8.76459 10.6602C8.78599 10.7369 8.84301 10.7997 8.89132 10.7997C8.94447 10.7997 8.97917 10.8695 8.97917 10.9762C8.97917 11.3086 9.27302 11.2671 9.63707 10.8833C9.72333 10.7923 9.88604 10.7008 9.99867 10.6801C10.1112 10.6593 10.2348 10.5992 10.2731 10.5466C10.3116 10.494 10.437 10.4509 10.552 10.4509C10.6747 10.4509 10.7746 10.4105 10.794 10.3531C10.812 10.2994 10.9189 10.2358 11.0313 10.2118C11.1438 10.1878 11.2513 10.1219 11.2704 10.0654C11.3067 9.95788 11.5541 9.91952 11.5541 10.0215C11.5541 10.076 11.1303 10.5065 10.8701 10.7165C10.7243 10.8341 10.7254 11.1085 10.8721 11.2678C10.9354 11.3364 11.0061 11.471 11.0293 11.5669C11.0793 11.774 11.1228 11.8955 11.3291 12.4039C11.5343 12.9096 11.6808 13.3664 11.7207 13.6245C11.7385 13.7396 11.7885 13.8808 11.832 13.9384C11.9109 14.0429 11.9429 14.1751 11.9292 14.3394C11.9165 14.4925 11.8031 14.4329 11.7632 14.2522C11.7421 14.1563 11.6993 14.0779 11.6682 14.0779C11.6371 14.0779 11.5955 14.0229 11.5758 13.9558C11.5561 13.8887 11.436 13.5826 11.3089 13.2757C10.9332 12.3689 10.8339 12.1018 10.79 11.8808C10.6457 11.1539 10.1383 10.7848 9.80714 11.1659C9.73216 11.2522 9.5955 11.3856 9.50354 11.4623C9.41158 11.539 9.27351 11.6724 9.1967 11.7587C9.11994 11.8451 9.01197 11.9157 8.9568 11.9157C8.89947 11.9157 8.85656 11.9719 8.85656 12.047C8.85656 12.1197 8.80181 12.1946 8.73394 12.2149C8.6665 12.2349 8.61132 12.3014 8.61132 12.3625C8.61132 12.4271 8.56001 12.4736 8.48871 12.4736C8.41741 12.4736 8.36609 12.5202 8.36609 12.5848C8.36609 12.6459 8.31091 12.7124 8.24347 12.7324C8.1566 12.7583 8.12086 12.8275 8.12086 12.97C8.12086 13.0978 8.08892 13.1711 8.03325 13.1711C7.98512 13.1711 7.85631 13.3281 7.74706 13.5199C7.63781 13.7117 7.5117 13.8686 7.46682 13.8686C7.42188 13.8686 7.38516 13.928 7.38516 14.0006C7.38516 14.0733 7.34083 14.152 7.2867 14.1756C7.21699 14.2061 7.19927 14.2688 7.22606 14.3903C7.25555 14.524 7.22956 14.5874 7.10841 14.6778C7.00744 14.753 6.96452 14.8355 6.98604 14.9127C7.00444 14.9786 6.94889 15.1495 6.86153 15.2961C6.69471 15.5756 6.74185 15.9284 6.98751 16.2402C7.03294 16.2978 7.10075 16.4234 7.13827 16.5192C7.23692 16.7711 7.35175 16.9887 7.46008 17.1289C7.56424 17.2636 7.81487 17.8063 7.8134 17.8938C7.80659 18.2912 7.52733 18.0222 6.96599 17.0775C6.77238 16.7516 6.57142 16.4757 6.51936 16.4643C6.37088 16.4318 6.072 17.296 5.97102 18.0499C5.93792 18.2972 5.87428 18.5483 5.82965 18.6079C5.70629 18.7723 5.67417 18.9159 5.60507 19.6096C5.57013 19.9607 5.50177 20.3169 5.45315 20.4013C5.4046 20.4856 5.34592 20.6891 5.32281 20.8534C5.28964 21.0897 5.27094 21.1236 5.23373 21.0153C5.14729 20.7637 5.17359 20.3703 5.28535 20.2431C5.40331 20.1089 5.44126 19.1943 5.34004 18.9254L5.2875 18.7859L5.2371 18.9254C5.20939 19.0021 5.18475 19.2508 5.18235 19.4779C5.17935 19.7677 5.14606 19.9313 5.07077 20.0265C4.84173 20.316 4.93283 21.4796 5.23244 22.0915C5.42562 22.4861 5.46891 22.6292 5.41661 22.7009C5.3786 22.7531 5.36609 22.8752 5.38841 22.9766C5.41091 23.0785 5.39822 23.2001 5.35953 23.2531C5.24483 23.4104 5.35242 23.6154 5.6486 23.8037C5.92578 23.98 5.9457 23.9821 7.27027 23.9821H8.61132V23.8078C8.61132 23.5821 8.72027 23.5821 8.77005 23.8078L8.80855 23.9821H10.4265C11.3219 23.9821 12.0446 23.9546 12.0446 23.9206C12.0446 23.8062 12.3153 23.7722 12.3682 23.8799C12.4093 23.9635 12.6079 23.9821 13.4546 23.9821H14.4907L14.3951 23.7206C14.3426 23.5768 14.2238 23.3306 14.131 23.1737C14.0383 23.0168 13.9426 22.7684 13.9185 22.6217C13.8943 22.4751 13.8089 22.2112 13.7285 22.0352C13.5101 21.5564 13.2101 20.6881 13.2083 20.5296C13.2075 20.4529 13.1493 20.2489 13.0791 20.0762C13.0089 19.9036 12.9277 19.5303 12.8985 19.2466C12.8694 18.963 12.7768 18.5236 12.6927 18.2702C12.4975 17.6813 12.4946 16.7762 12.6875 16.6158C12.8439 16.4856 12.8695 16.4921 12.96 16.6846C13.0803 16.9401 13.4522 17.0537 13.7029 16.9114C13.8128 16.849 13.9282 16.798 13.9593 16.798C14.1314 16.798 14.3842 16.3719 14.3642 16.1155C14.3372 15.7706 14.89 15.1546 15.292 15.0815C15.4604 15.0508 15.5477 14.9943 15.5743 14.8984C15.6294 14.7012 15.9873 14.778 16.3796 15.0712C16.7196 15.3254 16.8929 15.7597 16.7637 16.0342C16.707 16.1547 16.7202 16.1703 16.8783 16.1703C17.019 16.1703 17.0731 16.1259 17.1332 15.9611C17.175 15.846 17.2267 15.7523 17.2479 15.7529C17.3619 15.7561 17.4327 15.8875 17.4505 16.1288C17.4784 16.5082 17.7217 16.6253 17.8263 16.3098C17.9088 16.0612 18.0528 16.0322 18.0528 16.2641C18.0528 16.3541 18.108 16.4845 18.1754 16.5539C18.2515 16.6323 18.298 16.7688 18.298 16.9135C18.298 17.192 18.2224 17.2151 18.1231 16.9669C18.0449 16.7717 17.912 16.7712 17.8788 16.9659C17.8397 17.1956 18.0513 17.3686 18.3105 17.3188L18.5433 17.274V17.6254C18.5433 17.8874 18.5159 17.9944 18.436 18.0457C18.2706 18.1519 18.4255 18.302 18.5943 18.1993C18.7365 18.1127 18.7568 18.1363 18.8177 18.4593C18.8417 18.5865 18.9001 18.7076 18.9475 18.7283C18.9972 18.75 19.0337 18.8623 19.0337 18.9932C19.0337 19.1182 19.0889 19.3002 19.1563 19.3978C19.2238 19.4953 19.279 19.6572 19.279 19.7577C19.279 19.8581 19.3341 20.1188 19.4016 20.3371C19.469 20.5554 19.5242 20.8548 19.5242 21.0026C19.5242 21.2872 19.6119 21.5409 19.7103 21.5409C19.8383 21.5409 19.7798 20.4335 19.6468 20.339C19.5515 20.2713 19.5242 20.1764 19.5242 19.9131C19.5242 19.7267 19.4867 19.4753 19.4409 19.3544C19.395 19.2335 19.3266 19.0483 19.2889 18.9428C19.2511 18.8374 19.1783 18.751 19.127 18.751C19.0565 18.751 19.0337 18.6697 19.0337 18.4187C19.0337 18.2196 18.9846 17.982 18.9111 17.8261C18.8437 17.6829 18.7885 17.4911 18.7885 17.3997C18.7885 17.3083 18.7485 17.1958 18.6995 17.1496C18.6506 17.1034 18.5925 16.9191 18.5704 16.74C18.5483 16.561 18.4986 16.383 18.4601 16.3447C18.4216 16.3063 18.3072 16.0946 18.2061 15.8741C18.1049 15.6537 18.0048 15.4732 17.9836 15.473C17.9624 15.473 17.9112 15.3709 17.8697 15.2461C17.8283 15.1214 17.758 14.9253 17.7136 14.8102C17.6691 14.6951 17.586 14.4126 17.5289 14.1825C17.4718 13.9523 17.385 13.7274 17.3359 13.6827C17.1558 13.5188 17.261 13.2123 17.5132 13.1661C18.0014 13.0765 18.0883 12.6829 17.6198 12.6829C17.5472 12.6829 17.4891 12.7475 17.4655 12.8547C17.4157 13.0803 17.2536 13.1314 16.9881 13.0051C16.7513 12.8926 16.6551 12.5949 16.7257 12.1933C16.7575 12.0127 16.7455 11.9897 16.6271 12.004C16.5125 12.0178 16.4872 11.9772 16.4569 11.7299C16.4373 11.5702 16.393 11.3976 16.3584 11.3463C16.2676 11.2116 16.0296 10.4266 16.0296 10.2618C16.0296 10.1848 15.944 9.92119 15.8394 9.67603C15.6219 9.16644 15.5243 8.91402 15.4113 8.56772C15.2967 8.21703 14.9472 8.06783 14.8218 8.31614C14.7933 8.37257 14.5468 8.45696 14.2336 8.51743C13.937 8.5747 13.6452 8.67221 13.585 8.73414C13.5249 8.79608 13.4336 8.84672 13.3821 8.84672C13.2933 8.84672 12.9642 9.14615 12.9642 9.22698C12.9642 9.31312 13.3607 9.25733 13.4576 9.15759C13.7566 8.84972 14.2088 9.02171 14.2868 9.47306C14.3035 9.56973 14.3439 9.74522 14.3764 9.86302C14.4375 10.0841 14.4603 11.5155 14.4038 11.5799C14.3268 11.6674 13.7381 11.4645 13.5943 11.3009L13.4407 11.1262L13.5856 11.0015C13.6901 10.9118 13.7119 10.8557 13.6639 10.8009C13.5893 10.7157 13.4267 10.7777 13.1175 11.0092C12.6943 11.326 12.5674 11.2498 12.789 10.8119C12.9423 10.5088 12.9095 10.3692 12.717 10.5059C12.5523 10.6229 12.5351 10.6146 12.5351 10.4185C12.5351 10.318 12.4842 10.2156 12.4124 10.1719C12.345 10.1309 12.2898 10.0559 12.2898 10.0052C12.2898 9.95453 12.2002 9.88171 12.0906 9.84328L11.8913 9.77346L12.0471 9.701C12.1328 9.6611 12.2396 9.5781 12.2845 9.51658C12.3294 9.45506 12.4157 9.4047 12.4763 9.4047C12.6926 9.4047 12.7803 9.32142 12.7803 9.11608C12.7803 8.88368 12.6335 8.78046 12.4807 8.90551C12.4263 8.95008 12.3128 9.01809 12.2285 9.05659C12.1442 9.09516 12.002 9.17356 11.9125 9.23082C11.692 9.37192 11.571 9.36174 11.4928 9.19546C11.3822 8.96027 10.6559 9.1467 10.4935 9.45206C10.4401 9.55229 10.048 9.57984 9.9975 9.48687C9.96121 9.42005 10.1218 9.04501 10.2146 8.97973C10.2494 8.95524 10.2043 8.91918 10.1143 8.89959C9.84748 8.84155 9.58974 9.25893 9.67177 9.61597C9.71671 9.81141 9.5578 9.88709 9.1989 9.84112L8.89831 9.80255L9.10737 9.72569C9.40048 9.61786 9.43151 9.36118 9.1642 9.25516L8.97237 9.17914L9.11375 9.07089C9.19148 9.01139 9.26199 8.95748 9.27051 8.95106C9.27897 8.94471 9.24482 8.7852 9.19455 8.59667C9.14428 8.40814 9.10283 8.14895 9.10246 8.02075C9.1021 7.89249 9.04661 7.70779 8.97917 7.61028C8.80628 7.36024 8.82541 7.22981 9.07114 6.98227C9.21466 6.83775 9.28571 6.70495 9.28571 6.58128C9.28571 6.47959 9.31551 6.33305 9.35187 6.2557C9.43138 6.0867 9.35499 6.00474 8.86496 5.73314C8.60041 5.58653 8.52617 5.5693 8.48509 5.64498C8.4274 5.75114 8.41894 5.73063 8.32734 5.2606C8.25653 4.89714 7.86434 4.69787 7.58386 4.88277C7.42857 4.98509 7.39019 4.98349 7.07862 4.86164C6.68373 4.70714 6.15899 4.63384 6.15899 4.73309ZM15.6005 5.83323C15.2373 5.8988 15.197 6.13713 15.5238 6.28618L15.7537 6.39101L15.794 6.13671C15.8405 5.84202 15.8107 5.79522 15.6005 5.83323ZM5.66454 7.08557C5.85619 7.49938 6.31453 8.00973 6.49453 8.00973C6.64903 8.00973 6.71831 8.14114 6.57282 8.15823C6.3282 8.18696 5.85993 8.12063 5.71757 8.03715C5.52329 7.92311 5.30068 7.90951 5.30068 8.01155C5.30068 8.05228 5.22147 8.03645 5.11675 7.97486C4.92884 7.86431 4.87183 7.73311 5.00946 7.72781C5.1189 7.72356 5.36419 7.2605 5.3225 7.1369C5.20099 6.77672 5.50067 6.73173 5.66454 7.08557ZM16.5661 7.7788C16.5071 7.79637 16.4588 7.85552 16.4588 7.9102C16.4588 7.98295 16.3773 8.00973 16.1559 8.00973C15.8289 8.00973 15.732 8.08269 15.877 8.21961C15.9272 8.26704 15.9683 8.36364 15.9683 8.43429C15.9683 8.50502 16.0198 8.59416 16.0827 8.63245C16.1517 8.67451 16.2129 8.81393 16.2367 8.9837C16.2585 9.13854 16.3035 9.26521 16.3369 9.26521C16.4137 9.26521 16.4119 9.03734 16.3318 8.64207C16.2797 8.38477 16.2851 8.32263 16.364 8.27241C16.4161 8.23921 16.4588 8.16653 16.4588 8.11087C16.4588 8.02905 16.5797 8.00973 17.0923 8.00973C17.8134 8.00973 18.5567 7.87658 18.298 7.79372C18.1296 7.73981 16.7377 7.72781 16.5661 7.7788ZM1.6594 8.32611C1.5152 8.49016 1.53525 8.69864 1.69882 8.73637C2.15728 8.84211 2.34623 8.84211 2.42342 8.7363C2.50748 8.62108 2.42213 8.50146 2.25409 8.49902C2.21387 8.49846 2.0858 8.43408 1.96943 8.35597C1.77515 8.22561 1.74989 8.22316 1.6594 8.32611ZM21.3129 8.34941C21.2281 8.41065 21.3348 8.59172 21.4905 8.65079C21.5402 8.66962 21.5405 8.78778 21.4916 9.08833C21.4548 9.3148 21.4243 9.64338 21.4237 9.81859C21.4231 9.99373 21.3726 10.3641 21.3113 10.6416L21.2001 11.146L21.3366 11.292C21.4246 11.386 21.4876 11.4113 21.5139 11.3629C21.626 11.1566 22.1292 11.3493 22.0663 11.5745C22.0451 11.6507 22.0549 11.7508 22.0881 11.7969C22.1429 11.873 22.1844 12.1329 22.1673 12.2926C22.1635 12.3274 22.1102 12.3041 22.0489 12.2409C21.9442 12.1331 21.9264 12.1388 21.7625 12.3334C21.5314 12.6079 21.6768 12.862 22.0278 12.7972C22.2422 12.7577 22.5896 13.0666 22.5896 13.2968C22.5896 13.3657 22.6397 13.3789 22.7735 13.3455C22.9129 13.3107 22.9575 13.3244 22.9575 13.4023C22.9575 13.5379 23.1168 13.6036 23.1907 13.4983C23.3784 13.2309 23.2712 12.7003 23.0492 12.7973C22.667 12.9641 22.5645 12.692 22.4674 11.253C22.4286 10.6776 22.3707 10.0915 22.3389 9.95063C22.307 9.80966 22.2742 9.4439 22.2661 9.13771C22.2472 8.42432 22.1574 8.28824 21.7065 8.28977C21.5347 8.2904 21.3576 8.31719 21.3129 8.34941ZM6.40423 10.2766C6.40423 10.3393 6.46081 10.3812 6.54579 10.3812C6.75221 10.3812 6.92326 10.5445 6.87299 10.6937C6.8221 10.8446 6.34592 10.7884 6.26395 10.6218C6.23661 10.5662 6.13619 10.5207 6.04085 10.5207C5.8546 10.5207 5.69422 10.3637 5.75884 10.2448C5.8245 10.1238 6.40423 10.1524 6.40423 10.2766ZM4.83719 10.7686C4.97225 10.7974 5.08953 10.7845 5.14183 10.7352C5.2268 10.6549 5.94098 10.7376 6.02908 10.8379C6.13637 10.96 5.8069 11.0891 5.48191 11.0524C5.24624 11.0258 5.08898 11.0453 4.96912 11.1161C4.87397 11.1723 4.72346 11.2183 4.63463 11.2184C4.54573 11.2186 4.38271 11.2814 4.27229 11.3579C4.14128 11.4488 3.9603 11.498 3.75117 11.4996C3.57497 11.501 3.36181 11.547 3.27751 11.6018C3.07028 11.7365 2.9706 11.7308 2.97293 11.5843C2.97673 11.342 3.2395 11.1161 3.70666 10.9534C3.95956 10.8654 4.23545 10.7668 4.31975 10.7343C4.40405 10.7019 4.50557 10.6858 4.5453 10.6985C4.58503 10.7113 4.71641 10.7428 4.83719 10.7686ZM5.4743 11.9767C5.51918 12.009 5.6318 12.2929 5.72456 12.6073C5.96299 13.4158 6.28535 13.6125 6.40202 13.0207L6.448 12.7875L6.51581 12.9772C6.55315 13.0814 6.63628 13.2041 6.70059 13.2498C6.87366 13.3728 6.62953 14.0081 6.40919 14.0081C6.37106 14.0081 6.31263 14.0896 6.27934 14.1892C6.24605 14.2888 6.16396 14.3866 6.09695 14.4066C6.01461 14.4311 5.97476 14.5024 5.97415 14.6266C5.97311 14.8459 5.85208 15.1366 5.74516 15.1767C5.6952 15.1954 5.66853 15.1322 5.66853 14.9949C5.66853 14.4618 5.47253 14.2755 5.32741 14.6707C5.11301 15.2544 4.97777 14.8904 4.96453 13.6942C4.9587 13.1671 4.92633 12.7964 4.8771 12.6929C4.74958 12.4249 4.9061 12.3148 5.06464 12.5608C5.13263 12.6663 5.2238 12.7526 5.2672 12.7526C5.32005 12.7526 5.36015 12.9141 5.38841 13.2409C5.45027 13.9545 5.52764 13.8973 5.63904 13.0553C5.67221 12.8047 5.66062 12.7592 5.55364 12.7205C5.46364 12.688 5.41876 12.5912 5.38896 12.3655C5.36646 12.1948 5.32361 12.0551 5.29369 12.0551C5.26383 12.0551 5.23937 12.0238 5.23937 11.9854C5.23937 11.9007 5.36266 11.8962 5.4743 11.9767ZM14.4332 12.7145C14.4915 12.7944 14.4877 12.8573 14.4149 13.011C14.3641 13.1183 14.3075 13.2609 14.2891 13.3281C14.2414 13.5015 14.056 13.4753 13.9294 13.2774C13.7637 13.0181 14.2546 12.4697 14.4332 12.7145ZM15.7844 16.286C15.7844 16.3797 15.7029 16.4018 15.4165 16.3858C15.3165 16.3801 15.1691 16.4746 14.9923 16.6574C14.8432 16.8114 14.6723 16.9375 14.6124 16.9375C14.5525 16.9375 14.2915 17.0624 14.0323 17.2149C13.5469 17.5007 13.4547 17.5121 13.4547 17.2863C13.4547 17.0706 13.3392 17.0565 13.2893 17.266C13.225 17.5368 13.2362 18.0655 13.3096 18.2147C13.3661 18.3296 13.3837 18.3245 13.538 18.1489C13.7042 17.9598 13.8337 17.8596 14.1318 17.6893C14.3013 17.5924 14.432 17.4771 14.6477 17.234C14.7385 17.1316 14.8611 17.077 15.0004 17.077C15.1259 17.077 15.2721 17.0196 15.3552 16.9375C15.433 16.8608 15.5327 16.798 15.5768 16.798C15.6209 16.798 15.7063 16.7388 15.7667 16.6664C15.8314 16.5887 16.0082 16.5146 16.1982 16.4855C16.4811 16.4422 16.6519 16.317 16.4435 16.3056C16.4013 16.3034 16.2358 16.277 16.0756 16.247C15.8491 16.2046 15.7844 16.2132 15.7844 16.286ZM11.7197 20.3779C11.7466 20.4287 11.8131 20.4889 11.8673 20.5115C11.9251 20.5355 11.9825 20.6705 12.006 20.8375C12.028 20.9942 12.0733 21.1225 12.1066 21.1225C12.2205 21.1225 12.1674 21.2525 12.0339 21.3007C11.8694 21.3601 11.738 21.1819 11.738 20.8994C11.738 20.7769 11.6804 20.646 11.5848 20.5514C11.5005 20.4681 11.4315 20.3741 11.4315 20.3427C11.4315 20.2491 11.6666 20.2778 11.7197 20.3779ZM3.98126 21.9071C4.04472 22.2391 4.09021 23.0678 4.05134 23.183C3.9682 23.4295 3.83639 23.2022 3.87079 22.8716C3.92676 22.3343 3.60477 21.7854 3.30926 21.9144C3.2417 21.944 3.24832 22.0016 3.34354 22.2141C3.4084 22.3587 3.46143 22.523 3.46143 22.579C3.46143 22.635 3.50968 22.7415 3.56872 22.8157C3.64321 22.9093 3.67834 23.0777 3.68367 23.367C3.69269 23.855 3.71519 23.8901 4.05919 23.9526L4.31975 24L4.32986 23.5203C4.35641 22.2596 4.34764 22.0016 4.27591 21.9296C3.95901 21.6117 3.92437 21.609 3.98126 21.9071ZM20.1373 21.813C19.8844 21.836 19.5947 21.9053 19.4935 21.9671C19.3924 22.0288 19.2268 22.1017 19.1257 22.1289C19.0245 22.1561 18.8314 22.2352 18.6965 22.3046C18.5617 22.3741 18.2996 22.5031 18.1141 22.5912C17.9286 22.6794 17.7323 22.807 17.6777 22.875C17.6231 22.9428 17.499 23.0184 17.4018 23.0427C17.2395 23.0834 17.1449 23.125 16.704 23.349C16.6197 23.3919 16.4404 23.5028 16.3055 23.5955C16.1706 23.6882 15.9775 23.8105 15.8764 23.8674C15.7035 23.9646 15.7385 23.971 16.4588 23.9749L17.2251 23.9791L17.0719 23.8426L16.9186 23.7062L17.1413 23.7047C17.3132 23.7035 17.3714 23.735 17.3962 23.8426C17.44 24.0332 17.5506 24.0179 17.6339 23.8099C17.6856 23.681 17.685 23.6129 17.6317 23.5398C17.5738 23.4605 17.5952 23.4341 17.7453 23.4C17.851 23.3759 17.9302 23.3137 17.9302 23.2547C17.9302 23.1905 18.0171 23.1333 18.1601 23.1033C18.2866 23.0769 18.4568 22.9961 18.5384 22.9238C18.6536 22.8219 18.7729 22.7961 19.0716 22.8087C19.3691 22.8212 19.4837 22.7966 19.5775 22.7001C19.644 22.6315 19.818 22.558 19.9639 22.5367C20.1099 22.5155 20.2982 22.4588 20.3825 22.4108C20.6463 22.2603 21.8811 22.0732 22.0263 22.1617C22.2805 22.3164 23.9997 22.2618 23.9997 22.0989C23.9997 21.9642 23.9587 21.9594 22.8195 21.959C22.1704 21.9588 21.4876 21.9293 21.3021 21.8934C20.7015 21.7773 20.6039 21.7706 20.1373 21.813ZM2.73677 23.1622C2.74799 23.2518 2.85491 23.3913 2.98629 23.4878C3.14379 23.6035 3.2162 23.708 3.2162 23.8195C3.2162 23.9656 3.24268 23.9813 3.47676 23.9741C3.6201 23.9696 3.68214 23.9505 3.6147 23.9316C3.41281 23.8752 3.33881 23.7681 3.33881 23.5324C3.33881 23.2568 3.12301 23.0057 2.88611 23.0057C2.74609 23.0057 2.72058 23.0324 2.73677 23.1622ZM21.7926 23.0859C21.6071 23.1189 21.1416 23.1601 20.7581 23.1774C20.2701 23.1994 20.031 23.239 19.9611 23.3094C19.9063 23.3647 19.7096 23.4577 19.5242 23.516C19.048 23.6657 18.5621 23.8667 18.5022 23.9388C18.4204 24.0373 21.5805 23.9232 22.0378 23.8111C22.257 23.7574 22.5808 23.6773 22.7573 23.633C22.9338 23.5888 23.2856 23.5629 23.5391 23.5755L24 23.5985L23.9998 23.3718C23.9997 23.1842 23.976 23.1447 23.8618 23.1423C22.7816 23.1198 22.2977 23.0969 22.2218 23.0648C22.1712 23.0435 21.9781 23.053 21.7926 23.0859Z" fill="black"/>
</svg>
