<svg width="24" height="24" viewBox="0 0 24 24" fill="none" xmlns="http://www.w3.org/2000/svg">
<path fill-rule="evenodd" clip-rule="evenodd" d="M5.20665 0.461734C5.2028 0.715636 5.2417 0.966799 5.29307 1.01987C5.34434 1.07285 5.41682 1.65159 5.45395 2.30583C5.49118 2.96007 5.56075 3.94189 5.60869 4.48764C5.69199 5.43638 5.62065 5.91283 5.41401 5.78821C5.36607 5.75929 5.29265 5.17568 5.25106 4.4915C5.14072 2.6809 4.91495 0.339247 4.89623 0.811839C4.88739 1.0351 4.88323 2.17674 4.88697 3.34884C4.89664 6.36695 4.92472 6.29612 3.90881 5.82373L3.50188 5.63457L3.72682 5.86818C3.97058 6.12137 3.99481 6.22062 3.86274 6.42378C3.72859 6.63019 3.25448 6.37152 3.13042 6.02405C3.07332 5.86432 2.97744 5.73362 2.91723 5.73362C2.85702 5.73362 2.80783 5.66025 2.80783 5.57054C2.80783 5.46581 2.86367 5.42948 2.96382 5.46906C3.04961 5.50295 3.20176 5.56008 3.3018 5.59591C3.40184 5.63183 3.268 5.4378 3.00417 5.16462C2.53266 4.6764 1.69218 3.4491 0.843492 2.0093C0.463708 1.3649 0.207987 1.04321 0.207987 1.20974C0.207987 1.35587 0.597444 2.19308 0.904121 2.70627C1.09318 3.02268 1.24792 3.36518 1.24803 3.46737C1.24813 3.56966 1.55231 3.94331 1.92399 4.29778C2.56448 4.90848 2.95217 5.58454 2.34027 5.02366C1.69582 4.43285 2.03089 5.25463 2.73015 5.97991C2.97307 6.23188 3.38239 6.66672 3.63978 6.9462C4.01228 7.3506 4.16079 7.44568 4.36773 7.41219C4.70946 7.35699 5.58571 7.7419 5.6481 7.9747C5.7236 8.25671 5.60214 8.29365 5.35234 8.06461C5.22755 7.95024 4.94334 7.83121 4.72058 7.80015C4.20779 7.72861 3.43179 7.45695 3.43179 7.34907C3.43179 7.30381 3.30492 7.20731 3.14997 7.13455C2.46995 6.81509 0.25832 3.21519 0.560838 2.91998C0.601811 2.88 0.678766 2.9145 0.732011 2.9966C0.785256 3.0787 0.829453 3.11361 0.830389 3.07423C0.831221 3.03486 0.716204 2.83626 0.574669 2.6328C0.433237 2.42933 0.287542 2.10713 0.250937 1.91675C0.147775 1.38013 0 1.40438 0 1.95806C0 2.54786 0.680222 4.6351 1.20924 5.66867C1.61596 6.46315 1.85722 6.82239 3.13697 8.53913C3.64227 9.21712 4.05575 9.86405 4.05575 9.9768C4.05575 10.0895 4.11232 10.2003 4.18148 10.2227C4.25064 10.2452 4.31334 10.3974 4.32083 10.561C4.3305 10.7719 4.3877 10.8586 4.51748 10.8591C4.70738 10.8598 5.19823 11.3805 5.19916 11.5822C5.2001 11.7871 4.82853 11.7989 4.57915 11.6018C4.34038 11.4131 4.33258 11.4133 4.11139 11.6161C3.98764 11.7296 3.8044 11.8224 3.70425 11.8224C3.06968 11.8224 2.95165 12.336 3.42846 13.0225C3.5962 13.264 3.76592 13.6733 3.80565 13.932C3.89789 14.5317 3.51665 16.7421 3.22484 17.3004C3.10983 17.5203 3.00188 17.7889 2.98493 17.8973C2.96798 18.0057 2.89602 18.1628 2.82488 18.2463C2.5961 18.5153 2.47151 20.1592 2.59163 21.324C2.79681 23.3133 2.966 23.2616 4.06262 20.875C4.40985 20.1193 4.94479 19.5349 5.28912 19.5349C5.49461 19.5349 5.92764 19.9351 5.92764 20.1249C5.92764 20.3126 6.1507 20.2669 6.41454 20.0249C6.70884 19.7551 6.84424 19.8505 6.65549 20.1947C6.56824 20.3537 6.42618 20.4482 6.27404 20.4482C6.00272 20.4482 5.98712 20.482 6.13479 20.751C6.26676 20.9917 6.747 21.0953 7.10859 20.9612C7.44844 20.835 8.42525 19.8992 8.6296 19.5038C8.71061 19.3472 8.97777 19.0383 9.2234 18.8173L9.67006 18.4157L10.5042 18.4572C11.4607 18.5048 11.692 18.6184 12.0633 19.2231C12.2063 19.456 12.452 19.8104 12.6092 20.0106C13.0224 20.5365 13.024 20.9782 12.618 22.5062C12.3419 23.5454 12.3548 24 12.6604 24C12.9285 24 13.9161 22.9251 14.5591 21.9336C16.0223 19.6772 16.4049 19.1517 17.0542 18.5067C17.8104 17.7555 18.6289 17.305 19.2404 17.3033C19.7793 17.3018 20.2998 16.9828 21.0858 16.1717C21.4713 15.774 22.1973 15.1081 22.6992 14.692C23.8318 13.753 24.0595 13.3649 23.9881 12.4955C23.86 10.936 23.7224 10.0079 23.5788 9.73436C23.493 9.57118 23.3611 9.16364 23.2856 8.82875C23.137 8.16913 22.1725 6.0822 21.779 5.56871L21.5359 5.25159L21.851 4.51981C22.1704 3.77789 22.1793 3.54439 21.8922 3.43682C21.7078 3.36781 21.0067 3.66556 21.0067 3.81291C21.0067 3.8675 21.1503 3.8397 21.3258 3.75121C21.8392 3.49213 21.8581 3.61705 21.3916 4.18544C20.6822 5.04984 20.1459 5.74945 19.7588 6.31581C19.5589 6.60817 19.3485 6.84249 19.2911 6.8366C19.025 6.8092 18.9213 6.87049 18.7791 7.13881C18.6949 7.29773 18.6511 7.52139 18.6817 7.63586C18.7124 7.75033 18.6767 7.95136 18.6024 8.08267C18.528 8.21389 18.4792 8.37849 18.4936 8.4482C18.5082 8.51802 18.4775 8.57505 18.4255 8.57505C18.3735 8.57505 18.3317 8.44952 18.3326 8.29598C18.3353 7.84937 17.9702 6.49979 17.7175 6.02243C17.5303 5.66877 17.5364 5.63214 17.7829 5.63214C17.8973 5.63214 17.9909 5.58647 17.9909 5.53066C17.9909 5.47484 18.0756 5.42918 18.179 5.42918C18.2825 5.42918 18.456 5.36575 18.5646 5.28822C18.6733 5.21069 18.8128 5.16624 18.8746 5.18938C18.9364 5.21262 19.1799 5.07055 19.4154 4.87367C19.6511 4.67691 19.8949 4.51586 19.9573 4.51586C20.0197 4.51586 20.0708 4.47019 20.0708 4.41438C20.0708 4.35856 20.1293 4.31127 20.2008 4.30924C20.2723 4.30721 20.4711 4.19325 20.6427 4.05605C20.9624 3.80032 20.9368 3.72624 20.5912 3.90677C20.4534 3.97872 20.3575 3.9702 20.2599 3.87724C19.8921 3.52653 19.5974 3.4009 19.2792 3.45915C19.0879 3.49416 18.9214 3.47305 18.8807 3.40871C18.8421 3.34782 18.7255 3.2981 18.6214 3.2981C18.3103 3.2981 18.1403 3.02461 18.3209 2.81414C18.5707 2.52289 19.1348 1.4056 19.1342 1.20355C19.1337 1.06392 19.0934 1.08979 18.9795 1.30321C18.8946 1.46182 18.7077 1.7279 18.5641 1.89443C18.4204 2.06106 18.3029 2.24494 18.3029 2.30309C18.3029 2.36113 18.1742 2.55719 18.0169 2.73854C17.5151 3.31718 17.1076 3.8537 17.1073 3.936C17.1071 3.97994 17.0426 4.05463 16.964 4.10212C16.8853 4.14951 16.8079 4.30468 16.7919 4.44695C16.7758 4.58923 16.4862 5.08536 16.1482 5.54943C15.8054 6.0203 15.4053 6.72964 15.2432 7.15433C15.0833 7.57294 14.8215 8.18943 14.6613 8.52431C14.2702 9.34173 14.1235 9.74045 14.1521 9.90748C14.1652 9.9839 14.1451 10.1264 14.1076 10.2241C14.0699 10.3218 14.0077 10.4816 13.9693 10.5793C13.8734 10.8231 13.8229 11.1846 13.8134 11.6956C13.8079 11.9902 13.7599 12.1269 13.6623 12.1269C13.4782 12.1269 13.4822 12.1802 13.6889 12.4882C13.847 12.7238 13.8459 12.7546 13.6728 12.9413C13.4884 13.14 13.4838 13.1394 13.1131 12.8668C12.9075 12.7156 12.7236 12.5558 12.7046 12.5116C12.6371 12.3554 12.381 12.4342 12.2642 12.6471C12.1718 12.8154 12.1768 12.8832 12.2865 12.9547C12.3757 13.0128 12.3133 13.0204 12.1161 12.9753C11.9449 12.9363 11.6257 12.7776 11.4066 12.6228C10.6747 12.1054 9.66028 11.8849 8.83946 12.0647C8.50814 12.1373 8.4941 12.1317 8.68347 12.0022C8.98734 11.7943 9.69117 11.6169 9.95011 11.683C10.1271 11.7282 10.1816 11.6904 10.2088 11.5033C10.2291 11.3644 10.328 11.2506 10.448 11.2282C10.6096 11.1981 10.6286 11.2193 10.538 11.3287C10.3919 11.5052 10.5436 11.9239 10.7537 11.9239C10.8538 11.9239 10.9212 11.7923 10.9485 11.5433C10.9829 11.2285 11.0035 11.2001 11.0675 11.3787C11.1408 11.5831 11.5209 11.8224 11.7723 11.8224C11.8358 11.8224 11.8104 11.7392 11.7154 11.6368C11.6208 11.5347 11.5433 11.3749 11.5433 11.2816C11.5433 11.1001 11.8024 11.048 11.9045 11.2091C11.9967 11.3547 12.2713 11.2163 12.2713 11.0241C12.2713 10.9318 12.3882 10.7331 12.5312 10.5826C12.6742 10.4322 12.7912 10.2228 12.7912 10.1174C12.7912 10.012 12.8854 9.84254 13.0007 9.74075C13.121 9.6345 13.1864 9.48279 13.1543 9.38415C13.0803 9.15653 13.1958 8.87949 13.3645 8.87949C13.4445 8.87949 13.4793 8.80338 13.4497 8.69307C13.4169 8.57069 13.4915 8.4481 13.6669 8.33597C13.8139 8.242 14.0021 8.00626 14.0853 7.81192C14.2399 7.45086 14.4014 7.35922 14.4842 7.58562C14.5482 7.76037 14.6321 7.66518 14.7219 7.3166C14.7719 7.12206 14.7608 7.04463 14.6892 7.08786C14.4568 7.22801 14.4764 6.82808 14.7295 6.26933C15.1367 5.37001 16.0525 3.97223 17.1449 2.58266L17.3483 2.32389H17.005C16.7675 2.32389 16.5456 2.22434 16.2845 2.00058C15.8998 1.67107 15.4398 1.49155 15.3084 1.61982C15.2682 1.65899 15.3172 1.74941 15.4173 1.82075C15.5172 1.89209 15.599 1.98677 15.599 2.03112C15.599 2.07547 15.5172 2.04238 15.4171 1.95745C15.3169 1.87251 14.983 1.77559 14.6749 1.7419C14.3667 1.70821 14.0354 1.61079 13.9387 1.52534C13.842 1.4399 13.7119 1.36998 13.6497 1.36998C13.5874 1.36998 13.5092 1.31295 13.4758 1.24313C13.4279 1.14277 13.4023 1.14358 13.3532 1.24688C13.1562 1.66214 12.7308 1.99033 12.1907 2.14356C11.7247 2.27579 11.638 2.3316 11.7578 2.42293C12.4198 2.92719 12.3614 3.66048 11.5674 4.81847C11.3562 5.12646 11.1752 5.39325 11.1651 5.41131C11.111 5.50782 9.67141 4.1349 9.67141 3.98684C9.67141 3.77566 10.3333 4.16616 10.7643 4.63175C11.2152 5.11875 11.2512 5.10099 11.7428 4.14809C12.101 3.45346 12.119 3.38364 11.9333 3.40719C11.6581 3.442 11.5276 3.39471 11.5686 3.27496C11.592 3.20636 11.5306 3.06591 11.4322 2.96291C11.2429 2.76452 11.1852 2.78258 10.1755 3.35909C9.53393 3.72533 9.22652 4.23019 9.54058 4.40169C9.64021 4.45608 9.68441 4.53696 9.63886 4.58141C9.59331 4.62586 9.51979 4.60485 9.47548 4.53483C9.34747 4.33269 9.12274 4.48166 8.79651 4.98469C8.63022 5.24123 8.37294 5.56151 8.22486 5.69637C8.01115 5.89101 7.98505 5.95971 8.0984 6.02902C8.21685 6.10138 8.20895 6.16988 8.05192 6.42926C7.83811 6.78241 7.88209 6.87526 8.26313 6.87526C8.59008 6.87526 8.61244 7.10846 8.29349 7.19168C8.14655 7.22994 8.01645 7.19645 7.94387 7.10177C7.86306 6.99633 7.72974 6.97005 7.50189 7.0145C7.07906 7.0971 7.07635 6.93615 7.49295 6.4732C8.0151 5.89284 7.88334 5.81764 7.01957 6.20306C6.59237 6.39364 6.39197 6.42419 5.89665 6.37405L5.29359 6.31307L5.53974 6.04871C5.93336 5.62574 6.15632 5.22216 6.08976 5.05289C6.05576 4.96663 6.0803 4.8346 6.14415 4.75951C6.2314 4.65691 6.22048 4.58415 6.10016 4.46674C5.89093 4.26256 5.75386 3.40293 5.91505 3.30571C6.04089 3.2298 5.91932 2.34825 5.73515 2.00149C5.68398 1.90529 5.6116 1.62114 5.57406 1.36998C5.53662 1.11882 5.44012 0.707822 5.35973 0.45666L5.21362 0L5.20665 0.461734ZM14.0599 1.96922C14.4818 2.24727 14.7642 2.5372 15.3048 3.24736C15.5179 3.52724 15.5193 3.53718 15.3218 3.37086C15.1554 3.23061 15.0102 3.20494 14.677 3.2569C14.3867 3.30226 14.2471 3.28693 14.2471 3.20961C14.2471 3.14669 14.3173 3.09514 14.4031 3.09514C14.4889 3.09514 14.5591 3.02664 14.5591 2.94292C14.5591 2.8592 14.5104 2.7907 14.4511 2.7907C14.279 2.7907 13.5192 2.01113 13.5192 1.83455C13.5192 1.62165 13.5408 1.62703 14.0599 1.96922ZM9.09944 3.28633C8.87066 3.3873 8.36764 3.59797 7.98151 3.75445C7.30514 4.02855 7.05441 4.3129 7.48921 4.3129C7.80212 4.3129 9.34352 3.51669 9.46727 3.2911C9.52634 3.18332 9.56138 3.09676 9.54506 3.09889C9.52873 3.10092 9.32823 3.18525 9.09944 3.28633ZM7.89343 4.69192C7.70749 4.84465 7.32219 5.06151 7.03735 5.17395C6.50844 5.3827 6.44865 5.44693 6.2678 5.99899L6.16422 6.3152L6.59195 6.15679C7.3015 5.89395 8.10776 5.34809 8.22902 5.04842C8.2911 4.89509 8.38407 4.68959 8.43555 4.59197C8.58166 4.31493 8.28621 4.36942 7.89343 4.69192ZM18.9268 5.68237C18.7839 5.75564 18.5419 5.87142 18.3891 5.93962C18.1649 6.03988 18.127 6.10523 18.1931 6.27927C18.3373 6.65972 18.716 6.54982 19.1114 6.01269C19.4724 5.52233 19.4205 5.42948 18.9268 5.68237ZM9.41143 6.24101C10.089 6.72954 10.0541 6.7269 10.4136 6.31712C10.5727 6.13578 10.7048 6.01999 10.7071 6.05987C10.716 6.2123 10.0577 6.84979 9.89458 6.84675C9.68212 6.84299 8.60735 6.13507 8.55129 5.96195C8.47143 5.71555 8.85516 5.83997 9.41143 6.24101ZM13.7954 6.60198C14.1063 6.88318 13.9864 6.98517 13.3451 6.98517C12.7971 6.98517 12.7527 6.94752 12.8407 6.55672C12.924 6.18662 13.3588 6.20722 13.7954 6.60198ZM4.54213 6.59964C4.63437 6.68966 4.78537 6.72934 4.90028 6.69382C5.22911 6.59193 5.85879 6.83853 5.71164 7.01155C5.61462 7.12562 5.62938 7.15464 5.78496 7.15586C5.94864 7.15718 5.95478 7.17311 5.82364 7.25551C5.71788 7.32198 5.63417 7.31325 5.56366 7.22852C5.50646 7.15981 5.2991 7.09832 5.10276 7.09182C4.87023 7.08421 4.68096 7.00191 4.55971 6.85578C4.45727 6.73238 4.32541 6.66043 4.26665 6.69595C4.1272 6.77997 3.93096 6.66043 4.00823 6.53845C4.09901 6.39506 4.36347 6.4253 4.54213 6.59964ZM18.4589 8.98615C18.6305 8.99965 18.9079 8.95631 19.0755 8.88994C19.4809 8.7292 19.8517 9.02126 19.6254 9.32316C19.5017 9.48827 19.4279 9.49375 18.8181 9.38365C17.8388 9.20666 17.6274 9.1131 17.7861 8.92648C17.8678 8.83048 17.9568 8.80937 18.0307 8.86853C18.0946 8.91978 18.2873 8.97265 18.4589 8.98615ZM17.0376 8.97397C17.633 8.98148 17.7862 9.2295 17.2022 9.24025C16.5596 9.25223 15.452 9.66495 14.9301 10.087C14.8195 10.1763 14.9131 9.98887 15.138 9.67033C15.5787 9.04643 15.8157 8.88589 16.223 8.93541C16.366 8.95276 16.7326 8.97011 17.0376 8.97397ZM5.27445 9.86892C5.8485 10.4176 5.8771 10.4675 5.75449 10.7047C5.68273 10.8434 5.6506 11.0604 5.68315 11.1867C5.71788 11.3219 5.6948 11.4165 5.62689 11.4165C5.56356 11.4165 5.51166 11.3529 5.51166 11.2751C5.51166 11.1974 5.44729 11.1097 5.36867 11.0803C5.29005 11.0508 5.19407 10.8205 5.15538 10.5684C5.11659 10.3163 4.97038 9.94534 4.8303 9.744C4.37345 9.08702 4.49107 9.1201 5.27445 9.86892ZM5.66651 13.3177C5.88729 13.6587 5.98754 13.7469 6.01219 13.622C6.06626 13.348 6.5516 13.5615 6.5516 13.8592C6.5516 13.9111 6.62013 13.9535 6.70395 13.9535C6.78766 13.9535 6.90632 14.0448 6.96757 14.1564C7.02883 14.2681 7.05316 14.3594 7.02186 14.3594C6.99045 14.3594 7.03496 14.5234 7.12076 14.7237C7.23182 14.9831 7.2468 15.1427 7.17286 15.2776C7.09101 15.4269 7.11337 15.4904 7.2782 15.5765C7.46352 15.6733 7.57947 15.9831 7.43035 15.9831C7.21425 15.9831 6.75959 15.6413 6.75959 15.4788C6.75959 15.3719 6.65996 15.1195 6.53818 14.9181L6.31668 14.5518L6.12221 14.864C5.9084 15.2071 5.87855 15.3143 6.02071 15.2286C6.14561 15.1532 6.23962 15.4153 6.23962 15.8392C6.23962 16.03 6.28642 16.186 6.34361 16.186C6.40081 16.186 6.44761 16.1328 6.44761 16.0676C6.44761 16.0026 6.47204 15.973 6.50179 16.0022C6.53163 16.0313 6.51593 16.1609 6.46695 16.2902C6.40861 16.4441 6.35193 16.4842 6.30264 16.4064C6.26125 16.341 6.09299 16.2875 5.92878 16.2875C5.64145 16.2875 5.63386 16.275 5.72693 15.9584C5.88687 15.4142 5.70842 15.2244 5.51166 15.7294C5.12366 16.7251 4.83695 15.142 5.1169 13.5495C5.2653 12.7046 5.26863 12.7032 5.66651 13.3177ZM17.8869 12.907C17.8869 13.0314 17.3048 13.767 17.1054 13.8944C16.9317 14.0054 16.8813 14.1103 16.9242 14.2705C16.9608 14.4072 16.9432 14.4682 16.8783 14.429C16.8202 14.394 16.6204 14.5506 16.4339 14.7769C16.0305 15.2668 15.7812 15.1851 16.0842 14.6622C16.7662 13.4853 17.1682 12.9517 17.3997 12.9165C17.7173 12.8682 17.8869 12.8648 17.8869 12.907ZM10.4217 13.1856C10.6668 13.2656 11.2852 13.4286 11.7958 13.5479C13.3902 13.9204 13.8312 14.2721 13.8312 15.1712C13.8312 16.3013 12.9782 16.9019 11.6574 16.7019C10.2067 16.4823 9.5827 15.9284 9.03466 14.3738C8.79713 13.7002 8.7963 13.7701 9.0463 13.37C9.28455 12.9886 9.66267 12.9379 10.4217 13.1856ZM18.2429 14.8006C17.9289 15.1393 17.5717 15.6123 17.449 15.8519C17.3264 16.0915 17.1548 16.2875 17.0677 16.2875C16.9445 16.2875 16.9371 16.2604 17.0342 16.1658C17.1028 16.0988 17.1582 15.9046 17.1574 15.7345C17.1562 15.5223 17.1276 15.4683 17.0664 15.5627C17.013 15.6448 16.9515 15.6601 16.9139 15.6008C16.8277 15.4647 17.7234 14.6233 18.1091 14.4778C18.1585 14.4592 18.1989 14.3641 18.1989 14.2664C18.1989 14.0037 18.295 13.9543 18.5687 14.0761C18.8123 14.1844 18.8105 14.1886 18.2429 14.8006ZM14.8134 15.3973C14.9382 16.1323 14.9871 17.7082 14.8851 17.7082C14.8326 17.7082 14.7606 17.8212 14.7251 17.9592C14.6672 18.1844 14.6343 18.1985 14.4049 18.0965C14.0557 17.9412 13.8255 18.1352 13.8584 18.5568C13.8956 19.0349 13.5172 19.056 13.2887 18.5885C13.1013 18.205 12.2312 17.4547 12.0798 17.5461C12.0268 17.578 11.7129 17.5554 11.3822 17.4957C10.9236 17.413 10.7238 17.4173 10.5391 17.5137C10.3524 17.6113 10.2365 17.6132 10.0313 17.5219C9.66475 17.359 9.35745 17.3742 9.14011 17.566C8.90986 17.7693 8.31772 17.3823 8.10984 16.8926C8.03964 16.7272 7.94865 16.592 7.90757 16.592C7.8665 16.592 7.77862 16.4756 7.71217 16.3334L7.59143 16.0747L8.03341 16.3698C8.85631 16.9191 9.84081 17.246 9.61941 16.8964C9.58405 16.8406 9.6008 16.7949 9.65664 16.7949C9.71238 16.7949 9.77426 16.8423 9.79402 16.9002C9.84019 17.0353 12.7968 17.3484 13.168 17.2575C13.8668 17.0864 14.5591 16.1177 14.5591 15.3109C14.5591 14.753 14.7129 14.8054 14.8134 15.3973ZM4.11118 15.871C4.02414 16.1386 4.30211 16.3764 4.79109 16.4526C5.2574 16.5254 5.34361 16.6941 4.9137 16.6923C4.30388 16.69 3.86565 16.568 3.81719 16.3873C3.73878 16.0948 3.85962 15.6786 4.02289 15.6786C4.12366 15.6786 4.15299 15.7425 4.11118 15.871ZM17.527 16.9028C17.6067 17.0288 17.2896 17.4038 17.1032 17.4038C17.033 17.4038 16.8577 17.5547 16.7137 17.7391C16.3472 18.2078 15.4713 19.0381 15.4082 18.9765C15.3374 18.9074 15.8209 17.9112 15.9252 17.9112C15.9706 17.9112 16.1677 17.7742 16.3631 17.6068C16.5585 17.4393 16.7686 17.3023 16.8298 17.3023C16.8912 17.3023 17.0253 17.1896 17.1281 17.0518C17.3346 16.7749 17.4247 16.7413 17.527 16.9028ZM7.24909 17.9619C7.36722 18.1852 7.59372 18.6013 7.75231 18.8865C7.91662 19.1818 8.01271 19.4768 7.97548 19.5715C7.88386 19.8045 7.51739 19.7789 7.38084 19.53C7.30784 19.3969 7.20187 19.3423 7.08592 19.3782C6.71196 19.4941 6.34153 17.6494 6.67369 17.3253C6.81075 17.1915 6.88469 17.2733 7.24909 17.9619ZM15.2416 18.1359C15.1522 18.2604 15.0791 18.4338 15.0791 18.5212C15.0791 18.6086 14.9827 18.8611 14.8649 19.0822C14.747 19.3032 14.6371 19.6475 14.6207 19.8472C14.5905 20.2145 13.9148 21.7004 13.6688 21.9403C13.449 22.1549 13.3663 21.5451 13.5646 21.171C13.6539 21.0023 13.7272 20.8134 13.7272 20.7514C13.7272 20.6893 13.8446 20.3963 13.9881 20.1003C14.1316 19.8043 14.263 19.3374 14.2803 19.0627C14.3178 18.4611 14.4152 18.2832 14.6712 18.3486C14.8042 18.3826 14.8833 18.3302 14.9266 18.1798C14.9611 18.06 15.0681 17.8103 15.1642 17.625L15.3391 17.2881L15.3716 17.5989C15.3895 17.7696 15.331 18.0114 15.2416 18.1359Z" fill="black"/>
</svg>
