<svg width="24" height="24" viewBox="0 0 24 24" fill="none" xmlns="http://www.w3.org/2000/svg">
<path fill-rule="evenodd" clip-rule="evenodd" d="M0.0695314 7.23416C0.136256 14.176 0.156554 14.4811 0.570935 14.7857C1.038 15.1289 1.39495 14.72 1.16476 14.1057C1.09631 13.9228 1.18527 13.88 1.43468 13.9758C1.72878 14.0889 1.78298 14.296 1.69337 14.9652C1.61175 15.5741 1.6653 15.8445 1.88404 15.9284C2.05118 15.9926 2.12805 16.1425 2.05463 16.2614C1.98143 16.3801 2.15202 16.3289 2.43382 16.1475C2.71561 15.9658 3.40769 15.7503 3.97193 15.6679C4.98963 15.5196 4.99762 15.512 4.99762 14.6958C4.99762 14.2435 5.05658 13.7194 5.1287 13.5312C5.21421 13.3079 5.14079 13.1892 4.91686 13.1892C4.56295 13.1892 4.42388 12.792 4.29756 11.4205C4.20017 10.3648 4.45174 10.5609 4.75815 11.7801C4.89333 12.3172 5.09652 12.7568 5.20989 12.7568C5.32326 12.7568 5.36407 12.6216 5.3008 12.4562C5.23753 12.291 5.41827 11.9228 5.70266 11.6381C6.09048 11.2497 6.22976 10.8556 6.25977 10.0614C6.2818 9.47914 6.35219 8.95005 6.41611 8.88584C6.59901 8.7027 6.94818 9.37341 6.8333 9.68692C6.77651 9.84173 6.82617 9.90897 6.94343 9.83632C7.18419 9.68735 7.21378 10.0363 7.02159 10.7544C6.95034 11.0205 6.81602 11.1914 6.72317 11.1338C6.35781 10.9079 6.37897 11.6028 6.75599 12.2162C7.12179 12.8112 7.15483 12.8246 7.15591 12.3784C7.1572 11.8316 7.23105 11.8006 7.80371 12.1075C8.17534 12.3066 8.18938 12.2692 7.98812 11.621C7.86806 11.2348 7.71777 10.7485 7.65407 10.5405C7.58778 10.3232 7.65105 10.1622 7.80264 10.1622C7.94796 10.1622 8.01533 10.2971 7.95206 10.4621C7.8713 10.6724 7.96113 10.7293 8.25286 10.653C8.48154 10.5931 8.66854 10.6528 8.66854 10.7855C8.66854 10.9185 8.81127 11.027 8.98553 11.027C9.15979 11.027 9.45174 11.2945 9.63399 11.6216L9.96545 12.2162L9.83351 11.6216C9.6992 11.0171 9.84625 10.9124 10.485 11.1578C10.6722 11.2296 10.7724 11.3745 10.7074 11.4796C10.6426 11.5846 10.7234 11.6192 10.8869 11.5565C11.0503 11.4936 11.6141 11.6268 12.1397 11.8523L13.0952 12.2623L12.9562 14.5096C12.8797 15.7455 12.8065 17.1459 12.7934 17.6216L12.7698 18.4865L12.3353 17.7732C12.0963 17.3808 11.805 17.1189 11.688 17.1916C11.5707 17.264 11.3854 17.0876 11.276 16.7994C11.0363 16.1682 10.5485 15.9408 10.1771 16.2871C9.96286 16.4869 9.93025 16.4376 10.0227 16.0536C10.0995 15.7347 10.0164 15.4943 9.78212 15.3574C9.57115 15.2342 9.53509 15.1455 9.69423 15.1416C10.0637 15.1328 10.0358 14.1667 9.65731 13.8519C9.40531 13.6426 9.37119 13.6768 9.46642 14.0417C9.6301 14.6679 9.18268 14.5972 8.74455 13.9276C8.43317 13.4517 8.42431 13.3397 8.6856 13.1741C8.95077 13.0061 8.95077 12.9792 8.6856 12.9762C8.51674 12.9745 8.18571 12.8028 7.9499 12.5946C7.5366 12.2298 7.52537 12.2333 7.63852 12.6865C7.7303 13.0547 7.67912 13.1289 7.40251 13.0283C7.1084 12.9213 7.11725 12.9775 7.45584 13.3637C7.67955 13.6188 7.93371 13.7836 8.02073 13.7297C8.28504 13.5663 8.8536 14.3444 9.21097 15.3585C9.69963 16.7453 10.0838 17.2456 11.2079 17.9596C12.6133 18.8519 13.0803 18.8095 13.1514 17.7834C13.2783 15.947 13.6385 13.5866 13.8529 13.1855C14.1054 12.7133 14.4988 12.6091 14.4988 13.0143C14.4988 13.1559 14.6351 13.0852 14.8018 12.8571C15.1561 12.3717 16.4422 12.2182 16.4422 12.6612C16.4422 13.117 16.0739 13.2218 15.7193 12.8668C15.2809 12.4279 15.1466 12.4558 15.1466 12.9857C15.1466 13.2843 15.2356 13.3775 15.4165 13.2685C15.6318 13.139 15.6323 13.1732 15.4185 13.4378C15.271 13.6203 15.1946 13.8138 15.2485 13.8679C15.3025 13.9219 15.2082 14.4272 15.0389 14.9907C14.8052 15.768 14.7884 16.1414 14.9691 16.5388C15.2023 17.051 15.2235 17.0359 15.9328 15.8564C16.6644 14.6398 16.8393 14.1328 16.4422 14.3784C16.3235 14.4519 16.2263 14.3985 16.2263 14.2599C16.2263 14.1213 16.3647 14.061 16.534 14.1261C16.7163 14.1961 16.9957 14.0074 17.2198 13.6627C17.428 13.3427 17.865 12.8301 18.1911 12.5235C18.5202 12.2141 18.8501 11.6134 18.9324 11.1741C19.1155 10.197 19.5584 10.3693 19.3986 11.3552C19.2943 11.9978 19.3405 12.0722 19.9145 12.1872L20.5446 12.3135L20.062 13.3083L19.5794 14.3031L19.1008 13.7462C18.8376 13.4398 18.5848 13.1892 18.5388 13.1892C18.3671 13.1892 18.5515 14.3985 18.805 14.9345C19.0376 15.4266 18.965 15.7191 18.1745 17.477C17.2973 19.4277 16.2269 23.6402 16.531 23.9449C16.7767 24.1909 17.0266 23.5952 17.1637 22.4368C17.2343 21.8394 17.4239 21.144 17.585 20.8917C17.7461 20.6391 18.0499 19.8095 18.2602 19.0484C18.9583 16.52 20.0026 14.4979 20.5381 14.6383C20.826 14.7135 20.9568 14.8759 20.8836 15.0666C20.8184 15.2368 20.8612 15.3148 20.9793 15.2417C21.0967 15.1691 21.1928 15.2128 21.1928 15.3386C21.1928 15.4644 21.4358 15.5676 21.7327 15.5676C22.0687 15.5676 22.2725 15.6902 22.2725 15.8919C22.2725 16.1697 22.7687 16.2945 23.49 16.1978C23.5658 16.1877 23.71 16.3092 23.8106 16.4681C23.9121 16.6285 23.9948 13.0357 23.9968 8.37838L24 0H12H0L0.0695314 7.23416ZM8.33902 4.27027C8.67934 5.1373 8.73613 8.55005 8.41568 8.87438C8.24444 9.04757 8.02915 9.38378 7.93695 9.62162C7.78989 10.0006 7.70849 9.936 7.27834 9.09881C6.77607 8.12195 6.80998 7.10724 7.38026 6.04022C7.49493 5.82573 7.58886 5.40843 7.58886 5.11308C7.58886 4.02681 8.04319 3.51654 8.33902 4.27027ZM13.2589 9.32951C13.1695 10.1057 13.2047 10.2078 13.5208 10.0863C13.7219 10.0091 14.3157 9.94595 14.8404 9.94595C15.7301 9.94595 15.7964 9.90595 15.8238 9.35135C15.8473 8.87524 15.8713 8.8493 15.9441 9.22141C16.0168 9.59503 16.1807 9.68216 16.7787 9.66508C17.5999 9.64173 17.8294 9.80346 18.0607 10.5676C18.1637 10.9079 18.1386 11.0333 17.9868 10.9395C17.4694 10.6192 16.6143 11.0612 16.7165 11.5959C16.843 12.2588 16.7024 12.2525 16.4485 11.5844L16.2498 11.0605L14.9963 11.3805C14.3071 11.5565 13.5383 11.7524 13.2881 11.8156C13.0294 11.8809 12.3772 11.701 11.7765 11.3987C10.696 10.8547 10.5228 10.7926 8.94753 10.3853C8.13151 10.1743 8.05722 10.1014 8.21723 9.66984C8.40769 9.15676 8.87519 9.12324 10.3634 9.51589C11.0173 9.68843 11.6806 9.52454 12.1235 9.08108C12.2915 8.91286 13.0799 8.45924 13.2289 8.44519C13.3023 8.43805 13.3159 8.83611 13.2589 9.32951ZM12.8927 10.9364C12.5008 11.3289 12.6502 11.731 13.1516 11.6335C13.3386 11.5972 13.5075 11.3485 13.5271 11.0811C13.5692 10.5092 13.3658 10.4627 12.8927 10.9364ZM6.62557 14.4677C6.23192 15.3418 6.30598 15.7838 6.84582 15.7838C7.07536 15.7838 7.15699 15.4999 7.15699 14.7027C7.15699 13.4006 7.11466 13.3818 6.62557 14.4677ZM7.89376 15.4573C7.71648 16.1786 7.75362 16.4551 8.12114 17.1434C8.54351 17.9347 8.54545 17.9782 8.16973 18.2599C7.92291 18.445 7.86331 18.6052 8.00777 18.6947C8.13367 18.7725 8.23667 18.7332 8.23667 18.6074C8.23667 18.4815 8.38825 18.3784 8.57331 18.3784C8.75837 18.3784 8.85684 18.4646 8.79162 18.5699C8.72663 18.6755 8.88663 18.8175 9.14748 18.8858C9.76333 19.0471 9.84798 18.9416 9.43468 18.5276C9.2507 18.3436 9.09976 17.9671 9.09912 17.691C9.09825 17.4151 8.96048 16.9258 8.79292 16.6041C8.62535 16.2824 8.54394 15.805 8.6124 15.5434C8.69337 15.2329 8.65537 15.1178 8.50292 15.2121C8.37443 15.2917 8.23256 15.1851 8.18765 14.9756C8.13928 14.749 8.02008 14.944 7.89376 15.4573ZM5.10948 15.7775C4.65645 16.5114 7.80955 19.8188 10.0954 21.0078C11.9041 21.9485 12.9672 22.1708 13.5485 21.7302C13.9208 21.4478 13.848 21.4208 12.764 21.4396C11.1494 21.4675 7.37292 19.5429 7.37292 18.6923C7.37292 18.5196 7.29562 18.3784 7.20125 18.3784C6.83762 18.3784 5.42475 16.264 5.55733 15.9181C5.70071 15.5436 5.3265 15.4259 5.10948 15.7775ZM15.7499 16.8249C15.3593 17.7507 13.2032 19.5118 13.2032 18.9049C13.2032 18.824 13.0756 18.864 12.9195 18.9937C12.6275 19.2363 11.5474 18.6536 10.4509 17.6621C10.1842 17.4208 9.89959 17.2897 9.81883 17.3708C9.73785 17.4517 9.85899 17.6631 10.0879 17.8406C10.4096 18.0902 10.4219 18.1347 10.1419 18.0374C9.6463 17.8655 9.88167 18.8076 10.4327 19.2015C10.653 19.3589 10.8279 19.7496 10.8279 20.0841C10.8279 20.5879 10.9564 20.7237 11.6288 20.9304C12.5593 21.2162 12.7627 21.0445 12.7681 19.9693C12.7713 19.3021 13.5308 18.8035 14.0523 19.1261C14.152 19.1879 14.2844 19.045 14.3461 18.8084C14.4602 18.3715 14.9307 18.1994 14.9307 18.5946C14.9307 18.7135 15.0337 18.8108 15.1594 18.8108C15.285 18.8108 15.3267 18.7114 15.2516 18.5896C15.1753 18.4662 15.6377 18.1371 16.2986 17.8445C16.9497 17.5561 17.5455 17.2179 17.6228 17.0925C17.8281 16.7598 17.6392 16.8102 16.7821 17.3165C15.7247 17.9412 15.5249 17.7827 16.0091 16.7027C16.2358 16.1972 16.369 15.7838 16.3051 15.7838C16.2414 15.7838 15.9916 16.2523 15.7499 16.8249ZM2.83395 17.7211C3.07385 18.192 3.27014 18.733 3.27014 18.923C3.27014 19.1133 3.35867 19.2138 3.46707 19.1468C3.68905 19.0095 2.85079 16.8649 2.57504 16.8649C2.47743 16.8649 2.59382 17.2502 2.83395 17.7211ZM4.09048 19.5674C3.53207 19.9775 2.96178 20.5345 2.82293 20.8052C2.65062 21.141 2.87001 21.0158 3.51414 20.4104C4.03304 19.9226 4.69812 19.363 4.99179 19.1671C5.28525 18.9712 5.43101 18.8132 5.3157 18.8162C5.20017 18.819 4.64889 19.1572 4.09048 19.5674ZM15.2624 20.2134C15.3263 20.9252 15.472 21.6015 15.5865 21.7161C15.8538 21.9838 15.8396 21.8184 15.4567 20.2162L15.1466 18.9189L15.2624 20.2134ZM7.63896 20.6564C7.66595 20.9814 7.85986 21.355 8.07018 21.4865C8.2805 21.6179 8.45411 21.8724 8.45584 22.0521C8.458 22.2631 8.51522 22.2943 8.61779 22.1405C8.70503 22.0097 8.88966 21.8638 9.02829 21.8162C9.16973 21.7676 8.91017 21.3656 8.43511 20.8975L7.59015 20.0653L7.63896 20.6564ZM20.8117 21.6216C20.4364 22.1568 19.9739 22.8156 19.7838 23.0856C19.5938 23.3555 19.3474 23.52 19.236 23.4512C19.1246 23.3823 19.0335 23.4776 19.0335 23.6629C19.0335 23.9488 19.4116 24 21.5167 24H24V23.3745C24 22.7371 23.6886 22.4865 22.8972 22.4865C22.6038 22.4865 22.4388 22.2915 22.3481 21.8378C22.2198 21.1955 21.8605 20.9386 21.819 21.4595C21.8072 21.6082 21.7292 21.4865 21.6459 21.1892C21.4973 20.6595 21.4805 20.6681 20.8117 21.6216ZM4.47009 21.4536C4.05679 22.0443 4.0529 22.6422 4.45778 23.3514C4.80631 23.9619 4.90261 23.5492 4.56079 22.9096C4.40121 22.6112 4.4282 22.2848 4.65774 21.7347C5.02224 20.8614 4.95487 20.7604 4.47009 21.4536ZM13.2032 22.2099C12.9063 22.2634 12.5787 22.3883 12.4753 22.4878C12.3718 22.587 12.7091 22.5736 13.225 22.4575C14.6668 22.1332 14.6508 21.9498 13.2032 22.2099ZM10.1801 22.7777C9.26064 23.1088 8.47528 23.552 8.79205 23.5611C9.14489 23.571 11.1244 22.8865 11.3569 22.6739C11.6519 22.4043 11.0758 22.4551 10.1801 22.7777Z" fill="black"/>
</svg>
