<svg width="24" height="36" viewBox="0 0 24 36" fill="none" xmlns="http://www.w3.org/2000/svg">
<path fill-rule="evenodd" clip-rule="evenodd" d="M23.5045 0.44702C23.4323 0.69294 23.0367 1.60438 22.6253 2.47244C22.2139 3.34061 21.9382 4.1133 22.0125 4.18959C22.093 4.27208 22.0661 4.29628 21.9459 4.24919C21.8261 4.20223 21.6921 4.32 21.6163 4.53922C21.1575 5.86323 17.7246 10.2143 16.051 11.5927C15.0259 12.4372 14.9249 12.5779 15.3813 12.5278C15.4666 12.5183 15.4802 12.5682 15.4115 12.6386C15.3228 12.7296 15.2164 12.7295 15.0422 12.6378C14.5364 12.3717 13.3949 12.9599 13.5703 13.3962C13.9492 14.3379 13.3496 15.8746 11.8344 17.8462C11.4166 18.3897 11.1466 18.8344 11.2344 18.8344C11.322 18.8344 11.338 18.8918 11.2697 18.9617C11.2015 19.0318 11.0335 19.0619 10.8968 19.0286C10.76 18.9952 10.3455 19.1489 9.97567 19.37C9.60599 19.5912 9.15528 19.8021 8.9742 19.839C8.79331 19.8758 8.47591 20.069 8.26907 20.2685C8.02425 20.5045 7.7783 20.6126 7.56394 20.5783C7.36914 20.5471 7.23489 20.5928 7.23489 20.6906C7.23489 20.7813 6.99777 21.1384 6.70783 21.484C6.41788 21.8297 6.21085 22.2199 6.24789 22.351C6.30167 22.5427 6.27798 22.555 6.12699 22.4139C5.78608 22.0959 5.67082 22.5875 5.99348 22.9831C6.15294 23.1786 6.32029 23.5875 6.36504 23.8916C6.40979 24.1958 6.53841 24.5147 6.65066 24.6005C6.76292 24.6862 6.84942 24.9929 6.84302 25.2821C6.83682 25.5713 6.84415 25.891 6.85976 25.9926C6.88345 26.1477 6.22665 27.139 5.29193 28.3591C5.17121 28.5165 4.8476 28.7799 4.57289 28.9442C4.29798 29.1087 4.11408 29.3109 4.16391 29.3934C4.40422 29.7902 2.83282 31.9881 1.8746 32.5955C1.51339 32.8245 1.2178 33.1235 1.2178 33.2597C1.2178 33.396 1.0008 33.6451 0.735489 33.8133C0.451934 33.9931 0.298874 34.1942 0.363746 34.3014C0.424481 34.4018 0.350395 34.6036 0.199216 34.75C-0.227245 35.1627 0.0297971 35.4953 0.981813 35.7622C1.44814 35.893 1.90055 36 1.98723 36C2.30858 36 3.4742 35.2527 3.4742 35.0467C3.4742 34.9294 3.5906 34.8052 3.73275 34.7705C3.87491 34.7359 4.03473 34.5559 4.08795 34.3703C4.23405 33.8618 4.95892 32.3244 5.16237 32.092C5.43897 31.7758 6.98555 29.6301 7.84449 28.3709C8.96705 26.7251 10.2681 25.7095 11.8203 25.2671C12.8763 24.9661 13.5107 24.6247 13.3857 24.4247C13.3073 24.2993 13.2779 24.3069 13.2668 24.4557C13.2482 24.7033 11.7864 25.0341 10.7271 25.0305C9.16693 25.0251 6.86728 23.9722 7.44059 23.5256C7.67075 23.3462 7.66736 23.3285 7.41427 23.3884C7.19408 23.4405 7.11624 23.3665 7.09254 23.0829C7.06434 22.7447 7.08333 22.7309 7.28923 22.94C7.41446 23.0673 7.69839 23.292 7.92008 23.4395C8.34335 23.7208 8.29784 23.9349 7.86329 23.7062C7.72453 23.6332 7.61095 23.6236 7.61095 23.6849C7.61095 23.8383 8.61712 24.4371 8.87473 24.4371C8.98981 24.4371 9.11748 24.501 9.15847 24.5791C9.25644 24.7651 11.5087 24.8516 12.1238 24.6928C12.4547 24.6073 12.4965 24.5692 12.2648 24.5638C11.8891 24.5552 11.8069 24.3179 12.1796 24.3179C12.9648 24.3179 14.2472 22.9668 13.7019 22.714C13.3289 22.5411 13.6762 21.8742 14.087 21.9742C14.6011 22.0992 14.0066 21.367 13.2358 20.9254C12.5527 20.5342 11.7127 20.2904 12.2742 20.6464C12.3983 20.725 12.4972 20.8457 12.4942 20.9146C12.491 20.9834 12.4022 20.9459 12.2968 20.8311C12.1913 20.7164 11.8765 20.6172 11.5973 20.6106L11.0896 20.5988L11.5597 20.5094C11.9619 20.433 11.8938 20.4078 11.0896 20.3354C9.92434 20.2302 9.24723 20.0613 9.39276 19.9119C9.4535 19.8496 9.64134 19.8321 9.8102 19.8732C10.0153 19.923 10.0719 19.9016 9.98112 19.8083C9.78707 19.6093 10.0625 19.636 10.4405 19.8528C10.7297 20.0189 10.7724 20.0183 10.8762 19.8466C10.9455 19.7321 10.9141 19.6868 10.7972 19.7325C10.6005 19.8095 10.0554 19.5915 10.0554 19.4357C10.0554 19.3891 10.1786 19.351 10.3292 19.351C10.4798 19.351 10.5593 19.3957 10.5061 19.4504C10.4529 19.505 10.5307 19.5497 10.6795 19.5497C10.828 19.5497 11.0557 19.6308 11.1855 19.7299C11.3564 19.8604 11.4878 19.8753 11.662 19.7838C11.8212 19.7 11.9418 19.6977 12.019 19.7771C12.2231 19.9864 12.6627 19.7806 12.8725 19.3775C13.0722 18.9937 12.9098 18.4504 12.5591 18.3301C12.4748 18.3011 12.4949 18.2898 12.6038 18.3048C12.9274 18.3494 13.3526 17.6363 13.0686 17.5251C12.7531 17.4015 13.1258 17.2615 13.5171 17.3568C13.8463 17.4369 13.9263 17.6424 13.628 17.6424C13.5246 17.6424 13.44 17.7228 13.44 17.8212C13.44 17.9195 13.3554 18 13.252 18C13.1486 18 13.0653 18.1476 13.0668 18.3278C13.069 18.5841 13.1098 18.6166 13.2537 18.4768C13.3787 18.3551 13.3977 18.488 13.3129 18.8928C13.2445 19.2201 13.0696 19.5631 12.9242 19.6553C12.7067 19.7932 12.704 19.8406 12.909 19.9246C13.1115 20.0075 13.1055 20.0483 12.8759 20.1439C12.6899 20.2213 12.6734 20.2619 12.8272 20.2631C12.9556 20.2641 13.3153 20.4338 13.6263 20.6402C13.9375 20.8466 14.2019 20.9673 14.2136 20.9084C14.2254 20.8495 14.2645 20.5599 14.3003 20.2649C14.336 19.9699 14.4554 19.353 14.5656 18.894C14.676 18.4351 14.8196 17.7377 14.885 17.3444C14.9567 16.9134 15.1229 16.5664 15.3032 16.4713C15.4678 16.3845 15.4967 16.3473 15.3677 16.3888C15.1906 16.4457 15.1389 16.2654 15.1568 15.6526C15.1697 15.2062 15.1344 14.7606 15.0782 14.6623C15.0217 14.5639 14.9251 14.3369 14.8632 14.1578C14.8014 13.9787 14.4894 13.6434 14.17 13.4127C13.5107 12.9368 13.6703 12.8413 14.3821 13.2858C14.9932 13.6674 15.358 13.947 15.2449 13.947C15.1953 13.947 15.2701 14.0883 15.4114 14.2608C15.5868 14.4751 15.6146 14.664 15.499 14.8568C15.4059 15.0121 15.3959 15.1391 15.477 15.1391C15.7045 15.1391 15.6673 16.9747 15.4379 17.0697C15.3275 17.1153 15.2991 17.1918 15.3747 17.2398C15.4505 17.2877 15.7652 17.1733 16.0744 16.9856C16.3837 16.7978 16.6366 16.6875 16.6366 16.7406C16.6366 16.7938 16.7635 16.7704 16.9186 16.6887C17.0738 16.6071 17.1947 16.4531 17.1875 16.3464C17.1772 16.1963 17.1366 16.2063 17.0078 16.3907C16.8068 16.6785 16.9403 15.8393 17.2296 14.9957C17.3353 14.6874 17.3613 14.3729 17.2872 14.297C17.2131 14.221 17.2458 14.1223 17.36 14.0775C17.4739 14.0328 17.5944 13.8831 17.6277 13.7448C17.661 13.6066 17.8112 13.3995 17.9617 13.2847C18.1119 13.1699 18.2161 13.0579 18.1929 13.0359C18.1181 12.9643 18.3859 12.5858 18.8345 12.1291C19.0761 11.8833 19.2243 11.6821 19.164 11.6821C19.1036 11.6821 19.1878 11.5974 19.3514 11.4937C19.5148 11.3901 19.5915 11.2469 19.522 11.1754C19.4396 11.0909 19.512 11.0739 19.7292 11.1267C19.9699 11.1854 20.0345 11.161 19.9612 11.0396C19.9001 10.9388 20.0048 10.8471 20.2222 10.811C20.7134 10.7295 20.6893 10.8074 19.9151 11.8005C19.5464 12.2733 19.2721 12.6775 19.3055 12.6986C19.3388 12.7197 20.2177 11.6695 21.2588 10.3647C22.2998 9.05996 23.0553 8.04302 22.9376 8.10501C22.8199 8.16687 22.5241 8.48754 22.2804 8.81738C21.8115 9.45227 21.6061 9.56491 21.6061 9.18727C21.6061 9.06091 21.6938 8.96698 21.8008 8.97866C21.9079 8.99046 21.9894 8.88199 21.9816 8.73775C21.9739 8.59351 22.0337 8.50136 22.1146 8.53295C22.1952 8.56454 22.23 8.43354 22.1917 8.24185C22.1309 7.938 22.1924 7.88436 22.6698 7.8238C23.0299 7.77815 23.2168 7.68171 23.215 7.54272C23.2125 7.36212 23.1849 7.35735 23.0269 7.50993C22.8622 7.66883 22.8188 7.66883 22.636 7.50993C22.4617 7.35854 22.4465 7.36307 22.536 7.53973C22.5943 7.65441 22.5561 7.74834 22.4512 7.74834C22.3336 7.74834 22.3094 7.57705 22.3878 7.30132C22.542 6.75989 22.7883 6.43709 23.0474 6.43709C23.1533 6.43709 23.1963 6.48179 23.1431 6.53638C23.0899 6.5911 23.171 6.6358 23.3235 6.6358C23.5372 6.6358 23.5151 6.57811 23.2272 6.3838C22.8757 6.1467 22.8699 6.09759 23.1283 5.5533C23.5756 4.61098 24.0008 2.86188 24 1.96689C23.9987 0.312556 23.9673 0 23.8027 0C23.711 0 23.5767 0.201219 23.5045 0.44702ZM9.3215 20.4823C9.0528 20.5727 8.74856 20.656 8.64514 20.6677C8.54172 20.6793 8.35914 20.7277 8.23955 20.7751C8.09382 20.8328 8.0534 20.7852 8.11714 20.631C8.16941 20.5043 8.31194 20.4249 8.43398 20.4546C8.55601 20.4842 8.82264 20.4287 9.02666 20.3309C9.37001 20.1663 9.37227 20.153 9.05712 20.1495C8.87003 20.1474 8.76924 20.0919 8.83336 20.0264C8.90463 19.9532 9.11617 19.9866 9.3796 20.1126L9.80964 20.3182L9.3215 20.4823ZM11.3716 20.9929C11.3716 21.0655 11.2502 21.0953 11.1016 21.0592C10.9531 21.023 10.6146 21.1016 10.3495 21.2338C10.0844 21.3661 9.86736 21.4198 9.86736 21.3531C9.86736 21.1839 10.6351 20.8609 11.0375 20.8609C11.2212 20.8609 11.3716 20.9203 11.3716 20.9929ZM11.6264 21.5145C11.6853 21.6118 11.8455 21.6641 11.9822 21.6309C12.2599 21.5633 13.0639 21.986 13.0639 22.1996C13.0639 22.2752 12.9301 22.2329 12.7665 22.1055C12.5201 21.9139 12.4865 21.9093 12.5703 22.079C12.626 22.1916 12.5905 22.3155 12.4916 22.3542C12.3927 22.393 12.3118 22.3449 12.3118 22.2475C12.3118 21.9925 11.403 21.5762 10.847 21.5762C10.0603 21.5762 9.11523 22.1179 9.11523 22.5689C9.11523 23.6141 11.0973 24.0598 12.2471 23.2733C12.4895 23.1075 12.6879 23.0227 12.6879 23.0851C12.6879 23.1473 12.3951 23.3782 12.0371 23.5981C11.6791 23.8181 11.4303 24.0432 11.4841 24.0983C11.5379 24.1535 11.4922 24.1987 11.3827 24.1987C11.2733 24.1987 11.1836 24.1182 11.1836 24.0199C11.1836 23.8109 11.1009 23.8043 10.2991 23.9501C9.68516 24.0618 9.13835 23.8682 9.37659 23.6237C9.43488 23.5641 9.32206 23.4232 9.12594 23.3108C8.86946 23.1636 8.7841 22.9763 8.82152 22.6427C8.85029 22.3877 8.80102 22.2075 8.71246 22.2423C8.6237 22.2771 8.55112 22.2161 8.55112 22.1069C8.55112 21.9838 8.65323 21.9331 8.81945 21.9736C8.96705 22.0095 9.19382 21.9577 9.32357 21.8586C9.87996 21.4336 11.4367 21.201 11.6264 21.5145ZM11.8417 22.2914C11.8417 22.6643 11.2656 22.7621 11.0935 22.4185C10.9386 22.1091 11.1281 21.9096 11.5301 21.9586C11.7201 21.9818 11.8417 22.1117 11.8417 22.2914ZM9.38769 24.047C9.49524 24.2245 8.78786 24.2522 8.37512 24.0867C8.15494 23.9984 8.14929 23.9448 8.34429 23.7959C8.60415 23.5973 9.20266 23.7414 9.38769 24.047ZM9.14287 25.7712C9.33034 25.9066 9.40987 26.0989 9.34425 26.2581C9.24158 26.5068 9.22278 26.5018 8.99582 26.1645C8.86401 25.9684 8.75232 25.8548 8.74762 25.9119C8.74292 25.9691 8.62558 25.9562 8.48682 25.8832C8.34805 25.8102 8.1743 25.7885 8.10078 25.8351C8.02726 25.8817 8.01748 25.8366 8.07916 25.7348C8.23241 25.4818 8.76774 25.5002 9.14287 25.7712ZM4.46928 30.4221C4.14567 30.6811 4.05711 31.2197 4.34969 31.1486C4.48865 31.1147 4.60241 31.0326 4.60241 30.9661C4.60241 30.8979 4.72952 30.912 4.8933 30.998C5.12571 31.1203 5.1353 31.1709 4.94031 31.2492C4.80624 31.3032 4.78104 31.349 4.88446 31.351C4.98788 31.353 4.94557 31.4084 4.79044 31.4743C4.54581 31.5781 4.55596 31.6169 4.86622 31.7671C5.19302 31.9253 5.1966 31.9471 4.90778 32.0175C4.72651 32.0616 4.62949 32.1776 4.68082 32.2889C4.73008 32.3959 4.65261 32.6444 4.50858 32.8411C4.2489 33.1959 4.24778 33.1945 4.35684 32.6623C4.4172 32.3672 4.49391 32.1056 4.52701 32.0809C4.56029 32.0562 4.45029 31.8685 4.28256 31.6637C3.85291 31.1387 3.77713 30.5598 4.12706 30.4747C4.30249 30.432 4.36361 30.3263 4.28952 30.1933C4.19456 30.0226 4.21976 30.0087 4.41625 30.1241C4.58774 30.2246 4.60372 30.3145 4.46928 30.4221ZM3.96591 32.0139C3.90875 32.1082 3.72222 32.1854 3.55111 32.1854C3.31701 32.1854 3.29031 32.2238 3.44337 32.3406C3.55506 32.426 3.60038 32.6272 3.54397 32.7877C3.4633 33.0178 3.48417 33.0417 3.64306 32.9007C3.86682 32.7019 3.91082 32.7811 3.73651 33.069C3.67408 33.1723 3.54716 33.2273 3.45446 33.1909C3.23409 33.1046 3.24104 33.2205 3.4727 33.4949C3.70022 33.7643 3.51444 34.7281 3.17974 35.0158C2.97065 35.1955 2.95091 35.1541 3.0406 34.7243C3.09814 34.4487 3.07933 34.1268 2.99885 34.009C2.91819 33.8911 2.86968 33.7042 2.89092 33.5936C2.91236 33.483 2.75798 33.3342 2.54814 33.263C2.33829 33.1919 2.07166 33.0211 1.95545 32.8835C1.79581 32.6944 1.79807 32.6545 1.96429 32.7196C2.09291 32.77 2.40015 32.6524 2.70496 32.436C2.99133 32.2326 3.37549 32.0662 3.55844 32.0662C3.82432 32.0662 3.86757 32.0004 3.77412 31.7384C3.67634 31.4647 3.6912 31.4462 3.86343 31.6265C3.97701 31.7452 4.02308 31.9195 3.96591 32.0139ZM2.25198 33.6953C2.58255 33.8632 2.58631 33.8772 2.28357 33.8108C2.09422 33.7692 1.77682 33.7351 1.57845 33.7351C1.38007 33.7351 1.2178 33.6815 1.2178 33.6159C1.2178 33.4339 1.83004 33.481 2.25198 33.6953ZM2.28715 35.3338C2.60323 35.2702 2.60229 35.2787 2.27304 35.4493C1.88757 35.6489 1.48574 35.5736 1.01434 35.2132C0.763506 35.0216 0.783061 35.0211 1.34698 35.2059C1.67641 35.3139 2.09949 35.3714 2.28715 35.3338Z" fill="black"/>
</svg>
