<svg width="24" height="24" viewBox="0 0 24 24" fill="none" xmlns="http://www.w3.org/2000/svg">
<path fill-rule="evenodd" clip-rule="evenodd" d="M0 19.2527V10.9451V1.58242V0H2.45268H18.1318H22.8917H23.9817H24L23.9817 2.44097L23.9817 19.2527V24H2.45268H0V19.2527ZM10.3064 2.9193C11.1346 3.37899 11.993 4.1127 12.3092 4.63121C12.6133 5.1302 13.0128 5.53846 13.1965 5.53846C13.7388 5.53846 14.746 6.7382 14.5722 7.17679C14.4602 7.45925 13.8715 7.62066 12.5888 7.72009C11.5856 7.79815 10.6422 7.7876 10.4923 7.69662C9.99521 7.39543 9.41856 7.40967 9.18364 7.72879C9.0076 7.96774 8.91603 7.95771 8.80402 7.68686C8.72281 7.49037 8.27343 6.97556 7.80551 6.54277C6.9994 5.79719 6.98087 5.73732 7.45614 5.40105C7.96548 5.04053 7.82895 4.33371 7.31007 4.64413C7.12448 4.75516 7.0896 4.53837 7.20869 4.01407C7.31852 3.52985 7.2711 3.144 7.08824 3.03455C6.59961 2.74233 7.32179 2.10963 8.14071 2.11226C8.53477 2.11385 9.50903 2.47675 10.3064 2.9193ZM4.90127 9.85028C4.90345 10.6987 5.0814 11.7669 5.29669 12.2239C5.51198 12.681 5.94148 13.9 6.25133 14.9327C6.56146 15.9653 7.07162 17.1521 7.38556 17.5701C7.9445 18.3138 7.94177 18.3131 7.25584 17.5385C6.8705 17.1033 6.36797 16.5394 6.13905 16.2857C5.91014 16.032 5.72292 15.6612 5.72292 15.4623C5.72292 15.2632 5.41633 14.1914 5.04162 13.0805C4.35296 11.0392 4.03493 7.0167 4.63284 7.91209C4.77809 8.12967 4.89882 9.00185 4.90127 9.85028ZM13.8898 8.77741C13.8947 8.60017 14.0833 8.52475 14.3108 8.60914C14.5376 8.69354 14.9055 8.61574 15.1284 8.43692C15.4685 8.16343 15.6039 8.2742 15.9718 9.12659L16.4103 10.142L15.5053 10.8733C15.0077 11.2753 14.5076 11.6044 14.3942 11.6044C14.2809 11.6044 14.2457 11.7824 14.3157 12C14.386 12.2176 14.509 12.5934 14.5888 12.8353C14.6891 13.1396 14.8213 13.1905 15.0172 13.0009C15.2131 12.8113 15.5105 12.8181 15.9825 13.0228C16.5708 13.2781 16.6471 13.4505 16.5376 14.2792C16.3457 15.734 15.4094 16.7715 13.935 17.1629C13.2404 17.3472 12.5891 17.6297 12.4874 17.7909C12.316 18.062 11.9879 18.0868 10.047 17.9752C9.59542 17.9494 9.2793 17.7494 9.19454 17.4359C8.97271 16.6146 9.38803 16.277 10.4702 16.3991C11.2627 16.4888 11.4472 16.4284 11.3772 16.1019C11.3118 15.797 11.0005 15.71 10.159 15.7611C9.53737 15.7989 8.95227 15.71 8.8588 15.5633C8.76505 15.4167 8.92584 15.2967 9.21635 15.2967C9.50658 15.2967 9.89655 15.1187 10.0832 14.9011C10.5452 14.3623 11.1965 14.4029 11.3526 14.9802C11.4232 15.2411 11.7183 15.5982 12.0083 15.7735C12.4811 16.0592 12.5381 16.0167 12.5574 15.3647C12.5692 14.9647 12.6411 14.7864 12.7169 14.9686C12.8635 15.3202 13.3535 15.1643 13.3535 14.7661C13.3535 14.4198 11.5014 13.9812 10.0312 13.9796C9.32808 13.9788 8.66422 13.8393 8.55576 13.6694C8.42168 13.4595 8.5097 13.4171 8.83182 13.5365C9.4766 13.776 10.3743 13.277 10.1802 12.7873C10.074 12.519 10.2018 12.3956 10.5855 12.3956C10.894 12.3956 11.26 12.1991 11.3987 11.9589C11.6279 11.5625 11.7298 11.5764 12.5024 12.1087C13.5857 12.8553 13.6276 12.4273 12.5468 11.654C11.6257 10.9949 11.1733 10.9208 11.1733 11.4285C11.1733 11.6221 11.0202 11.7851 10.8327 11.7911C10.6454 11.7969 10.1683 11.8858 9.77229 11.9881C9.37359 12.0915 8.97925 12.0596 8.88796 11.9169C8.63288 11.5174 9.02313 9.28879 9.43872 8.77081C9.79136 8.33196 9.83251 8.33486 10.226 8.82831C10.7703 9.51059 13.3535 9.74083 13.3535 9.10708C13.3535 8.88501 13.1387 8.70145 12.8766 8.69934C12.4833 8.69591 12.4686 8.65292 12.7926 8.45459C13.0621 8.28949 13.2951 8.35305 13.5336 8.65635C13.7424 8.9222 13.8846 8.97072 13.8898 8.77741Z" fill="black"/>
</svg>
