<svg width="24" height="24" viewBox="0 0 24 24" fill="none" xmlns="http://www.w3.org/2000/svg">
<path fill-rule="evenodd" clip-rule="evenodd" d="M0 10.012V20.024L0.372774 20.0571C0.577839 20.0753 0.753145 20.1218 0.762435 20.1603C0.771677 20.1988 0.821855 20.2983 0.873871 20.3814C0.950081 20.5031 0.966435 20.6183 0.957968 20.9741C0.943306 21.5923 1.18171 22.356 1.48292 22.6556C1.6216 22.7936 1.73811 22.9961 1.84065 23.2774C2.11998 24.0439 2.02031 23.9963 3.34563 23.9963C4.42224 23.9963 4.49487 23.9887 4.46453 23.879C4.37163 23.5431 3.82853 22.3147 3.657 22.0525C3.30237 21.5104 2.91537 20.7509 2.85431 20.4773C2.8214 20.3298 2.75492 20.0903 2.70663 19.9449C2.59848 19.6197 2.61029 19.5912 2.87598 19.536C3.04558 19.5008 3.11898 19.4392 3.24005 19.2305C3.44023 18.8854 3.65395 18.9041 3.5235 19.2554C3.42344 19.5247 3.70248 19.5839 4.23387 19.4062C4.71358 19.2457 5.08065 19.4075 5.08065 19.7794C5.08065 19.8457 5.12298 19.9997 5.17471 20.1216C5.30274 20.4231 5.38108 20.8631 5.397 21.3695C5.41553 21.9578 5.44374 22.0623 5.63569 22.2536C5.73348 22.351 5.82644 22.5193 5.85774 22.6557C5.88735 22.7848 5.94237 22.9854 5.97997 23.1015C6.01761 23.2177 6.04839 23.362 6.04839 23.4221C6.04839 23.4822 6.07994 23.636 6.1185 23.7639L6.18861 23.9963H10.1169H14.0451L14.0221 23.1133C14.0018 22.3342 14.0112 22.1824 14.1019 21.823C14.2324 21.3064 14.2597 21.2481 14.3706 21.2481C14.4757 21.2481 14.5464 21.485 14.4765 21.6033C14.4504 21.6476 14.4069 22.0245 14.3799 22.4409C14.3529 22.8574 14.3093 23.2344 14.283 23.2788C14.2343 23.361 14.2108 23.5741 14.2204 23.8455C14.2257 23.9941 14.2354 23.9963 14.879 23.9963H15.5323L15.5325 23.4098C15.5327 23.0873 15.5578 22.7027 15.5882 22.5552L15.6437 22.2871L15.69 22.5217C15.7155 22.6507 15.7261 23.0353 15.7136 23.3763L15.6909 23.9963H15.9933H16.2957L16.3258 23.7738C16.3637 23.4942 16.3194 23.1659 16.1988 22.8321C16.0877 22.5247 16.1343 22.4099 16.322 22.5285C16.5219 22.6546 16.6229 23.0889 16.5266 23.4082C16.4672 23.605 16.4634 23.6907 16.5079 23.8261L16.5639 23.9963H17.6439H18.724L18.7537 23.812C18.77 23.7106 18.8544 23.4316 18.9411 23.192C19.0279 22.9523 19.116 22.6815 19.1369 22.59C19.1578 22.4986 19.218 22.3431 19.2705 22.2445C19.3269 22.139 19.3507 22.0303 19.3284 21.9804C19.3007 21.9185 19.2806 21.9326 19.254 22.0324C19.1687 22.3517 18.8226 22.2552 18.8226 21.9123C18.8226 21.7312 18.5219 21.5118 18.4401 21.633C18.211 21.9728 18.1423 20.4959 18.3602 19.9159C18.4991 19.5461 18.6248 19.4559 19.0442 19.4242C19.3028 19.4048 19.4745 19.3568 19.551 19.2825C19.7295 19.1093 20.46 19.1234 20.6251 19.3032C20.8835 19.5847 21.096 20.7034 20.9338 20.9281C20.8974 20.9785 20.8512 21.0916 20.831 21.1793C20.811 21.267 20.7224 21.4417 20.6342 21.5674C20.4511 21.8286 20.4603 22.0037 20.6554 21.9723C20.7597 21.9556 20.7866 21.9101 20.8065 21.7173C20.8218 21.5684 20.8572 21.4827 20.9032 21.4827C21.0032 21.4827 20.9801 22.2105 20.871 22.4961C20.7779 22.7402 20.8182 23.0639 20.9127 22.8308C21.0572 22.474 21.1561 22.3876 21.42 22.3876C21.6866 22.3876 21.7552 22.2923 21.6093 22.1247C21.5719 22.0816 21.526 21.8592 21.5072 21.6305C21.4886 21.4018 21.4321 21.0881 21.3818 20.9334C21.3315 20.7788 21.2896 20.5978 21.2887 20.5313C21.2878 20.4647 21.245 20.2896 21.1935 20.1422C21.1421 19.9947 21.0994 19.8288 21.0985 19.7735C21.0948 19.5269 20.7694 18.5541 20.5123 18.0209C20.417 17.8233 20.3249 17.5864 20.3076 17.4943C20.2537 17.2073 20.0913 16.9027 19.98 16.8797C19.8845 16.86 19.4032 15.7482 19.4032 15.5472C19.4032 15.5163 19.3053 15.2104 19.1857 14.8673C19.0661 14.5243 18.9681 14.2088 18.968 14.1663C18.9678 14.1237 18.8896 13.8975 18.7941 13.6636C18.5909 13.1657 18.4355 12.706 18.4355 12.603C18.4355 12.5629 18.4028 12.5128 18.3629 12.4916C18.323 12.4704 18.2903 12.411 18.2903 12.3596C18.2903 12.3083 18.2468 12.2059 18.1935 12.1322C18.0894 11.9879 18.067 11.8641 18.1452 11.8641C18.1718 11.8641 18.1935 11.9093 18.1935 11.9646C18.1935 12.0199 18.2216 12.0652 18.2558 12.0652C18.3199 12.0652 18.871 12.8132 18.871 12.9002C18.871 12.927 18.9145 13.0256 18.9677 13.1193C19.021 13.2131 19.0645 13.331 19.0645 13.3813C19.0645 13.4316 19.1081 13.5331 19.1613 13.6068C19.2145 13.6806 19.2581 13.8145 19.2581 13.9045C19.2581 13.9945 19.2774 14.0847 19.3011 14.105C19.3247 14.1253 19.3591 14.2251 19.3774 14.3268C19.5343 15.1971 20.3145 16.7494 20.598 16.7551C20.7392 16.7579 20.751 16.795 20.7887 17.358C20.8095 17.6677 20.8446 17.8541 20.8864 17.8764C20.9235 17.8961 20.9516 18.0098 20.9516 18.1405C20.9516 18.2856 20.9791 18.3847 21.0263 18.4098C21.1608 18.4813 21.1673 18.3665 21.0545 17.9079C20.9935 17.6593 20.929 17.232 20.9113 16.9584C20.8792 16.4632 20.8783 16.4605 20.7221 16.4164C20.5045 16.355 20.4283 16.2497 20.3687 15.9283C20.3405 15.7759 20.2499 15.4552 20.1673 15.2155C20.073 14.9419 20.0087 14.6346 19.9944 14.3895C19.9674 13.9247 20.0419 13.749 20.1388 14.0491C20.1733 14.1561 20.2405 14.2889 20.2882 14.3442C20.4235 14.5013 20.52 14.7562 20.7322 15.5172C20.8042 15.7752 20.9211 16.0902 20.992 16.2171C21.2663 16.7079 21.4514 17.283 21.5431 17.9302C21.6465 18.6597 21.6354 18.616 21.6793 18.4664C21.7724 18.1491 21.8818 17.2845 21.8536 17.0892C21.8278 16.9102 21.8463 16.8473 21.9738 16.6823C22.0976 16.5221 22.1196 16.4516 22.0962 16.2896C22.0525 15.9868 22.1411 15.984 22.3964 16.28C22.7452 16.6846 23.0463 17.5739 22.8668 17.6693C22.7707 17.7204 22.7668 17.8297 22.861 17.8297C22.9837 17.8297 23.0599 18.3221 22.9659 18.5081C22.8602 18.717 22.8666 18.8242 22.9932 18.9661C23.0825 19.0663 23.1005 19.16 23.1074 19.562C23.112 19.8244 23.1386 20.0774 23.1667 20.1243C23.2206 20.2142 23.1372 20.4438 23.0506 20.4438C22.9875 20.4438 22.8645 20.7293 22.8806 20.8382C22.9055 21.0064 22.8382 21.2481 22.7664 21.2481C22.7132 21.2481 22.7031 21.1949 22.7253 21.0303C22.7414 20.9104 22.7561 20.7974 22.7579 20.7789C22.7596 20.7605 22.7439 20.675 22.7228 20.5889C22.6942 20.4721 22.7101 20.3944 22.7858 20.2829C22.907 20.1041 22.9159 19.8602 22.8087 19.6483C22.7656 19.563 22.7166 19.3376 22.6998 19.1474C22.6784 18.9035 22.648 18.8016 22.5968 18.8016C22.5355 18.8016 22.5226 18.9784 22.5141 19.9349C22.5081 20.6121 22.4837 21.0964 22.4536 21.1381C22.3813 21.2383 22.3915 21.3152 22.4773 21.3152C22.5787 21.3152 22.6208 21.4959 22.5478 21.6178C22.5149 21.6728 22.4985 21.8005 22.5114 21.9018C22.5243 22.0031 22.5216 22.1556 22.5054 22.2408C22.448 22.5411 22.3787 22.4157 22.3505 21.9606C22.3301 21.6307 22.2992 21.4824 22.2416 21.4378C22.1887 21.3967 22.1613 21.2884 22.1613 21.1199C22.1613 20.9793 22.1395 20.7053 22.1129 20.5109C22.079 20.2629 22.0812 20.0325 22.1203 19.7386C22.1509 19.5083 22.1591 19.2635 22.1384 19.1948C22.1177 19.126 22.0981 18.8374 22.0948 18.5536C22.0911 18.2406 22.0649 18.0045 22.0282 17.9537C21.995 17.9076 21.9672 17.8986 21.9665 17.9336C21.9317 19.6956 21.8985 19.9566 21.7351 19.7516C21.6351 19.6262 21.5806 19.6637 21.5806 19.858C21.5806 19.9308 21.6229 20.0025 21.6774 20.0222C21.7485 20.0479 21.7742 20.1136 21.7742 20.2691C21.7742 20.3857 21.8049 20.5417 21.8425 20.616C21.88 20.6903 21.9336 20.9225 21.9616 21.1321C21.9896 21.3416 22.0473 21.587 22.0901 21.6773C22.1463 21.7962 22.1672 21.9983 22.1661 22.4117C22.1646 22.9817 22.1647 22.9822 22.3444 23.2304C22.4433 23.367 22.5466 23.5878 22.5741 23.7208L22.624 23.9628L23.312 23.9814L24 24V23.1345C24 22.497 23.9809 22.2183 23.9277 22.0769C23.8358 21.8328 23.8351 21.5781 23.9259 21.4118C23.9985 21.2788 24.0296 20.6449 23.9635 20.6449C23.9257 20.6449 23.8428 20.9371 23.74 21.4323C23.7034 21.6091 23.6053 21.8179 23.4814 21.9827C23.3717 22.1288 23.2679 22.3097 23.2506 22.3849C23.2334 22.4601 23.2015 22.5217 23.1796 22.5217C23.1579 22.5217 23.0233 22.6739 22.8805 22.86C22.6286 23.1883 22.619 23.1942 22.5546 23.0611C22.518 22.9856 22.4566 22.9239 22.418 22.9239C22.2695 22.9239 22.3784 22.6895 22.5367 22.6683C22.623 22.6567 22.6935 22.621 22.6935 22.589C22.6935 22.5569 22.7359 22.5121 22.7877 22.4893C22.884 22.447 23.0983 22.0277 23.3339 21.4211C23.432 21.1684 23.4663 20.9846 23.4669 20.7086C23.4674 20.5039 23.4938 20.3005 23.5256 20.2564C23.5706 20.1941 23.5645 20.157 23.4988 20.0903C23.4247 20.0153 23.4207 19.9639 23.4667 19.6795C23.5102 19.4107 23.5062 19.3269 23.444 19.1953C23.3735 19.0463 23.3748 19.0362 23.4645 19.0362C23.536 19.0362 23.5684 19.097 23.5928 19.2772C23.6209 19.4851 23.8942 19.9746 23.9821 19.9746C24.0441 19.9746 23.9131 18.8856 23.7794 18.2899C23.741 18.119 23.7097 17.9444 23.7097 17.9017C23.7097 17.859 23.6444 17.6305 23.5645 17.394C23.4847 17.1574 23.4194 16.8909 23.4194 16.8017C23.4194 16.7126 23.3866 16.6019 23.3466 16.5559C23.3066 16.5099 23.2566 16.38 23.2355 16.2674C23.2144 16.1547 23.1709 16.0504 23.1389 16.0356C23.0513 15.9952 23.0641 16.5207 23.1532 16.6231C23.1931 16.6691 23.2258 16.7959 23.2258 16.9049V17.1033L23.0323 16.8242C22.9258 16.6707 22.8387 16.5061 22.8387 16.4583C22.8387 16.4105 22.8024 16.33 22.758 16.2794C22.6505 16.157 22.4032 15.3956 22.4032 15.1873C22.4032 15.025 22.2483 14.5973 22.1265 14.4232C22.0924 14.3745 22.0641 14.2991 22.0636 14.2556C22.0632 14.2121 22.0033 14.0501 21.9306 13.8955C21.8579 13.7408 21.7239 13.4317 21.633 13.2084C21.4366 12.7268 21.2575 12.6306 21.3046 13.0322C21.3323 13.2692 21.3024 13.54 21.2484 13.5396C21.2188 13.5394 21.1014 13.236 20.8336 12.4674C20.6287 11.879 20.4988 11.5691 20.3395 11.2884C20.202 11.0461 20.1176 10.8579 19.9403 10.3978C19.903 10.3011 19.8431 10.1978 19.8072 10.1683C19.7713 10.1388 19.7419 10.0861 19.7419 10.0512C19.7419 10.0162 19.6689 9.84425 19.5797 9.66904C19.2069 8.93702 19.1787 8.5142 19.527 8.87917C19.6742 9.03334 19.7419 9.0023 19.7419 8.78077C19.7419 8.67018 19.7205 8.57969 19.6942 8.57969C19.668 8.57969 19.6164 8.48169 19.5797 8.36184C19.543 8.24206 19.3052 7.84297 19.0514 7.47499C18.6173 6.84599 18.5899 6.78948 18.5927 6.52934C18.5944 6.37404 18.5606 6.18321 18.5156 6.09426C18.4715 6.00706 18.4355 5.86851 18.4355 5.7864C18.4355 5.70429 18.4083 5.61299 18.375 5.5835C18.2031 5.43114 18.0069 4.86951 18.0982 4.79135C18.156 4.74189 18.4355 5.13367 18.4355 5.26418C18.4355 5.30754 18.5083 5.47558 18.5972 5.63753C18.6862 5.79953 18.8332 6.1393 18.9239 6.39267C19.0434 6.72661 19.1447 6.90672 19.2923 7.04754C19.4339 7.18254 19.5105 7.31479 19.5438 7.48155C19.5887 7.70697 19.9953 8.60717 20.088 8.68653C20.1114 8.70657 20.1634 8.81885 20.2036 8.93615C20.3322 9.3109 20.3994 9.44429 20.6048 9.73165C20.7153 9.88628 20.8166 10.06 20.8298 10.1175C20.843 10.1752 20.9421 10.2605 21.0501 10.3072C21.158 10.3539 21.3815 10.5389 21.5466 10.7183C21.7117 10.8978 21.9164 11.1008 22.0014 11.1695C22.0864 11.2382 22.2497 11.3822 22.3643 11.4895C22.4789 11.5969 22.6706 11.7752 22.7903 11.886C22.9101 11.9967 23.1725 12.3216 23.3734 12.6079C23.6133 12.9497 23.7877 13.1416 23.8815 13.1669C23.96 13.1881 23.997 13.1877 23.9637 13.166C23.9304 13.1443 23.9032 13.0542 23.9032 12.9659C23.9032 12.8775 23.8695 12.6884 23.8283 12.5456C23.787 12.4029 23.7583 12.259 23.7644 12.2259C23.7787 12.1484 23.6001 11.731 23.5524 11.7304C23.5324 11.7302 23.5161 11.6697 23.5161 11.596C23.5161 11.5223 23.5341 11.4619 23.5561 11.4619C23.6348 11.4619 23.8065 11.775 23.8065 11.9187C23.8065 12.0004 23.8368 12.0652 23.875 12.0652C23.9127 12.0652 23.9545 12.1029 23.968 12.149C23.9814 12.1951 23.9941 12.0887 23.9962 11.9127C23.9996 11.6307 23.9856 11.5851 23.879 11.529C23.8125 11.4939 23.7581 11.4367 23.7581 11.4019C23.7581 11.367 23.6927 11.3186 23.6129 11.2944C23.5331 11.2701 23.4677 11.2177 23.4677 11.1781C23.4677 10.8939 22.9611 10.3577 22.3417 9.98622C21.9086 9.72648 21.4038 9.15868 21.5395 9.08375C21.5864 9.05787 21.7702 9.1375 21.9851 9.27692C22.1863 9.40743 22.4046 9.53284 22.4703 9.55569C22.536 9.57848 22.6273 9.65476 22.6733 9.72521C22.7193 9.79559 22.7839 9.85324 22.8168 9.85324C22.8498 9.85324 22.8893 9.89848 22.9046 9.95378C22.9498 10.1167 23.0323 10.0688 23.0323 9.87964C23.0323 9.78359 22.9669 9.59068 22.8871 9.45106C22.751 9.21311 22.7038 9.04889 22.7714 9.04889C22.8269 9.04889 23.0306 9.35039 23.0314 9.43377C23.0319 9.47948 23.0767 9.55489 23.1311 9.60134C23.1854 9.64773 23.2862 9.81845 23.3551 9.98072C23.4856 10.2881 23.8949 10.9257 23.9616 10.9257C23.9827 10.9257 24 8.46741 24 5.46285V0H12H0V10.012ZM17.0184 0.282526C17.0507 0.31832 17.1546 0.503185 17.2491 0.693279C17.6043 1.40727 17.7592 1.68953 18.001 2.06268C18.2316 2.41887 18.2477 2.46592 18.2241 2.71467C18.2041 2.92447 18.2235 3.03386 18.3129 3.21738C18.47 3.53972 18.5124 4.45742 18.3702 4.45742C18.2821 4.45742 18.1996 4.233 18.0253 3.51901C17.8884 2.95832 17.7235 2.4857 17.5861 2.25981C17.5077 2.13091 17.4047 1.95429 17.3572 1.86736C17.0396 1.28575 16.9683 1.16717 16.9072 1.11938C16.8695 1.08989 16.8387 1.02353 16.8387 0.971918C16.8387 0.920306 16.8115 0.853947 16.7782 0.824454C16.7021 0.756956 16.4852 0.333267 16.5096 0.299485C16.6188 0.148201 16.889 0.139219 17.0184 0.282526ZM19.1092 0.546821C19.1777 0.718549 19.272 0.917021 19.3185 0.987804C19.3651 1.05859 19.4032 1.16094 19.4032 1.21517C19.4032 1.26939 19.4213 1.34239 19.4434 1.37744C19.4656 1.41243 19.5112 1.57464 19.5448 1.73792C19.6186 2.09686 19.7303 2.34601 19.8173 2.34601C19.8527 2.34601 19.9101 2.40158 19.9448 2.46948C19.9796 2.53738 20.0734 2.62284 20.1532 2.65937C20.2331 2.69597 20.2984 2.75348 20.2984 2.78726C20.2984 2.91019 20.0771 2.88814 19.953 2.75287C19.8829 2.67653 19.7578 2.61406 19.6749 2.61406C19.5185 2.61399 19.4325 2.51874 19.0853 1.96059C18.9879 1.80395 18.8676 1.67572 18.8181 1.67572C18.7625 1.67572 18.6932 1.57953 18.637 1.42436C18.5288 1.12561 18.4447 0.920306 18.3006 0.603259C18.1729 0.322543 18.1684 0.268115 18.2727 0.268115C18.3451 0.268115 18.5806 0.558886 18.5806 0.648303C18.5806 0.752532 18.8577 1.27462 18.9315 1.30954C18.978 1.33159 19.0161 1.37771 19.0161 1.4121C19.0161 1.44648 19.0488 1.47463 19.0887 1.47463C19.1364 1.47463 19.1613 1.40854 19.1613 1.28172C19.1613 1.17569 19.1286 1.05135 19.0887 1.00543C19.0488 0.959517 19.0161 0.880423 19.0161 0.829683C19.0161 0.778875 18.9985 0.737317 18.9768 0.737317C18.884 0.737317 18.7127 0.3208 18.7806 0.260273C18.8983 0.155306 18.982 0.2283 19.1092 0.546821ZM12.4839 0.36162C12.605 0.414975 12.871 0.771435 12.871 0.88049C12.871 0.912329 12.8997 0.938403 12.9348 0.938403C12.9699 0.938403 13.0426 1.00624 13.0964 1.08922C13.1501 1.1722 13.2539 1.31001 13.3271 1.39554C13.4482 1.53704 13.4586 1.58523 13.4438 1.93177C13.429 2.2761 13.4371 2.31444 13.5291 2.3326C13.6218 2.35097 13.6311 2.39755 13.6346 2.86521C13.6394 3.50903 13.6236 3.54656 13.2339 3.82064C13.0576 3.94458 12.8902 4.1084 12.8619 4.18468C12.8337 4.26095 12.77 4.38502 12.7206 4.46043C12.5437 4.73042 12.434 5.37122 12.5345 5.54858C12.582 5.63263 12.6352 5.82869 12.6525 5.98427C12.702 6.4278 12.8261 6.92441 12.9254 7.07583C12.9753 7.15197 13.0161 7.2367 13.0161 7.26411C13.0161 7.29153 13.0851 7.43289 13.1694 7.57821C13.3463 7.88319 13.5013 7.92193 13.5932 7.68412C13.7084 7.3859 14.2316 7.1501 14.4798 7.28449C14.9016 7.51286 15.2514 7.98568 15.1265 8.15868C15.1099 8.18174 14.8296 8.21378 14.5038 8.22986C13.7443 8.2674 13.7092 8.31325 13.9541 8.94835C13.9968 9.05894 14.0318 9.22564 14.032 9.31881C14.0321 9.41205 14.0671 9.55717 14.1097 9.64142C14.1523 9.72568 14.1988 9.97208 14.213 10.189C14.2378 10.5688 14.2342 10.5851 14.1151 10.6265C13.8854 10.7064 13.8156 10.6459 13.8021 10.3554C13.7735 9.73842 13.7484 9.65215 13.5975 9.65215C13.5204 9.65215 13.4439 9.68231 13.4274 9.71918C13.411 9.75604 13.3498 9.78621 13.2915 9.78621C13.0364 9.78621 12.5372 11.1678 12.6479 11.5675C12.6887 11.7149 12.7742 11.6192 12.7742 11.426C12.7742 11.3271 12.8213 11.2212 12.8952 11.1541C12.9617 11.0937 13.0165 10.995 13.0169 10.9347C13.0194 10.5635 13.2235 10.6431 13.3861 11.0789C13.4498 11.2494 13.4716 11.2614 13.6352 11.2162C13.7339 11.1889 13.8655 11.1697 13.9278 11.1735C14.1844 11.1891 14.4882 11.8685 14.3028 12.0122C14.1881 12.101 14.2592 12.207 14.4006 12.1578C14.4854 12.1284 14.5396 12.1512 14.5838 12.2348C14.6275 12.3176 14.6569 12.3302 14.6809 12.2764C14.6999 12.234 14.7576 12.1992 14.8093 12.1992C14.8898 12.1992 14.9032 12.1511 14.9032 11.862C14.9032 11.5196 14.7983 11.0598 14.7202 11.0598C14.6967 11.0598 14.6774 11.0187 14.6774 10.9685C14.6774 10.9183 14.701 10.8783 14.7299 10.8796C14.9234 10.888 15.0894 10.761 15.1626 10.5483C15.2702 10.2358 15.2667 10.2109 15.0702 9.89486C14.7855 9.43719 14.7906 9.46065 14.9632 9.39791C15.11 9.34449 15.1199 9.32317 15.1048 9.09105C15.0827 8.74847 15.1586 8.64672 15.4362 8.64672C15.8692 8.64672 15.8367 8.10392 15.3584 7.34508C15.1774 7.05793 15.1577 6.99727 15.2064 6.87588C15.2741 6.7067 15.2672 6.64718 15.1189 6.12596C14.9176 5.41827 14.901 4.67432 15.0848 4.59952C15.548 4.41103 15.6652 4.49891 15.751 5.09935C15.7848 5.33616 15.8502 5.7561 15.8963 6.03259C15.9423 6.30909 15.9964 6.88218 16.0164 7.30614C16.0693 8.42881 16.147 9.00954 16.3315 9.66013C16.6011 10.6112 16.6758 13.0266 16.4534 13.6023C16.3898 13.7668 16.3182 14.3865 16.2093 15.7143C16.1551 16.3757 16.0786 17.0889 16.0393 17.2992C15.9442 17.8071 15.9405 17.7852 16.1596 17.9956C16.5699 18.3895 16.7247 19.5733 16.4271 20.0416C16.3484 20.1656 16.1769 20.8208 16.0939 21.3152C15.9687 22.0601 15.6758 22.5684 15.6786 22.0357C15.6792 21.9159 15.7029 21.6972 15.7312 21.5498C15.7595 21.4023 15.8134 21.0856 15.8511 20.846C15.8888 20.6063 15.9528 20.329 15.9933 20.2296C16.1317 19.8897 16.0815 18.9379 15.9141 18.728C15.8635 18.6644 15.8159 18.6249 15.8084 18.64C15.801 18.6551 15.7315 18.8033 15.6541 18.9692C15.2599 19.8141 15 19.9358 15 19.2758C15 18.9261 14.6978 17.8297 14.6014 17.8297C14.5784 17.8297 14.5367 17.7392 14.5089 17.6286C14.4481 17.3872 14.2769 17.3564 14.1201 17.5586C14.0396 17.6626 14.0162 17.7817 14.0074 18.1336L13.9963 18.5774L13.6151 19.1304C13.2344 19.6827 12.748 20.1086 12.498 20.1086C12.4435 20.1086 12.3146 20.1578 12.2115 20.2178C12.1085 20.2779 11.8676 20.3516 11.6761 20.3817C11.4847 20.4118 11.2582 20.4865 11.1727 20.5477C11.0382 20.6441 10.8974 20.6539 10.1176 20.6206C8.65132 20.5581 8.59703 20.539 8.14098 19.9237C7.90055 19.5993 7.53639 19.3066 7.20968 19.1753C7.11653 19.1378 6.87702 19.0291 6.67742 18.9337C6.47782 18.8383 6.15634 18.7351 5.96303 18.7044C5.57419 18.6427 5.26074 18.3681 5.07135 17.9234C4.93297 17.5985 4.78524 17.4945 4.46211 17.4945C3.84111 17.4945 3.33324 17.0839 3.50502 16.7208C3.56966 16.5841 3.61485 16.5532 3.70553 16.5837C3.76989 16.6054 3.87498 16.6408 3.939 16.6624C4.17576 16.7421 4.15461 16.4403 3.90077 16.1174C3.64747 15.7953 3.6104 15.5012 3.75745 14.9809C3.79911 14.8335 3.8624 14.4866 3.89806 14.2101C3.96794 13.6684 4.14392 12.9098 4.29658 12.4922C4.45737 12.0524 4.47489 11.8191 4.35392 11.7294C4.23489 11.6411 4.25289 11.1348 4.38803 10.7693C4.49981 10.467 4.56416 9.78473 4.49724 9.61153C4.36844 9.27813 4.84331 8.31157 5.13595 8.31157C5.31823 8.31157 5.80645 7.64973 5.80645 7.40253C5.80645 7.31633 5.84071 7.2192 5.88256 7.18676C5.95766 7.12851 6.04553 6.94754 6.14187 6.65261C6.16897 6.56963 6.22481 6.50179 6.26589 6.50179C6.36339 6.50179 6.72581 6.18435 6.72581 6.09895C6.72581 5.91992 7.11044 5.48691 7.95968 4.70991C8.29176 4.406 8.6129 4.4786 8.6129 4.85751C8.6129 5.11162 8.68437 5.1763 8.73256 4.96576C8.79924 4.67492 9.10026 4.66889 9.43548 4.95162C9.4754 4.98527 9.57015 5.047 9.64606 5.08869C9.89463 5.22537 9.7275 5.36371 9.36968 5.31746C9.12861 5.28629 9.05744 5.29997 9.00498 5.38751C8.96908 5.44736 8.8861 5.49636 8.82053 5.49636C8.70348 5.49636 8.28735 5.85121 8.21129 6.01584C8.19 6.06195 8.1495 6.09962 8.12124 6.09962C7.96761 6.09962 7.40323 6.93561 7.40323 7.16323C7.40323 7.34415 7.55632 7.20057 7.96553 6.63585C8.42719 5.99874 8.65098 5.87675 8.95045 6.09875C9.12992 6.2318 8.96385 6.66494 8.75744 6.60214C8.65355 6.57057 8.61063 6.59718 8.54627 6.73325C8.50185 6.82715 8.42792 6.90403 8.38195 6.9041C8.33598 6.90424 8.17026 7.02489 8.01363 7.17222C7.857 7.31961 7.68953 7.4402 7.64148 7.4402C7.59344 7.4402 7.54064 7.47036 7.52419 7.50723C7.50774 7.54409 7.44353 7.57426 7.38155 7.57426C7.19884 7.57426 7.0515 7.78077 7.08852 7.98501C7.14653 8.3052 7.43603 8.45823 8.04963 8.49302C8.40402 8.51313 8.69356 8.5701 8.89471 8.65925C9.42977 8.8966 9.94606 8.74331 10.3688 8.22155C10.6438 7.88212 10.6479 7.87193 10.5936 7.65684C10.5147 7.34415 10.5685 7.10505 10.7177 7.10505C10.8521 7.10505 10.8684 7.16793 10.9036 7.8232C10.9222 8.16887 10.9124 8.24575 10.8461 8.27551C10.7274 8.32873 10.637 8.62808 10.7255 8.67507C10.7639 8.69551 10.8075 8.66046 10.8249 8.59531C10.8419 8.53143 10.878 8.45863 10.9052 8.4335C10.9899 8.35521 11.1261 7.5579 11.0767 7.43001C11.0522 7.36673 11.032 7.23 11.0316 7.12624C11.0304 6.78117 10.9809 6.65408 10.8236 6.59155C10.6812 6.53497 10.6724 6.51346 10.6858 6.2558C10.6993 5.99714 10.6868 5.96717 10.4791 5.76059C10.3575 5.6396 10.2581 5.516 10.2581 5.48591C10.2581 5.45581 10.1819 5.38704 10.0887 5.33308C9.83318 5.18522 9.89884 4.96013 10.1976 4.96013C10.5423 4.96013 10.7466 4.65911 10.674 4.25827C10.6317 4.02475 10.5299 3.97018 10.0375 3.91723C9.77337 3.88881 9.57363 3.83298 9.52476 3.77399C9.4545 3.6892 9.42068 3.69429 9.24847 3.81602C9.04592 3.95919 8.82832 3.99317 8.72061 3.89846C8.67629 3.85945 8.73431 3.74202 8.92713 3.48054C9.07461 3.28052 9.47298 2.73893 9.81242 2.2771C10.1519 1.81527 10.5062 1.38696 10.5999 1.32543C10.6936 1.26383 10.8966 1.00825 11.0509 0.75756L11.3317 0.30163L11.8473 0.304981C12.1309 0.306858 12.4173 0.332329 12.4839 0.36162ZM19.8351 0.441787C19.9171 0.537303 19.9719 0.642873 19.957 0.676388C19.9055 0.791677 19.7007 0.737049 19.5572 0.569745C19.4781 0.47758 19.3894 0.402173 19.36 0.402173C19.3305 0.402173 19.3065 0.37201 19.3065 0.335144C19.3065 0.189356 19.6839 0.265501 19.8351 0.441787ZM21.1893 1.987C21.3568 2.23199 21.5155 2.51854 21.5419 2.62378C21.5685 2.72908 21.6071 2.81521 21.6279 2.81521C21.6487 2.81521 21.6928 2.9057 21.7258 3.0163C21.7589 3.12689 21.8058 3.21738 21.83 3.21738C21.8543 3.21738 21.8663 3.42839 21.8566 3.68625C21.8378 4.19225 21.7742 4.417 21.7742 3.97756C21.7742 3.77587 21.7433 3.66996 21.6485 3.54743C21.5245 3.38703 21.3387 2.95108 21.3387 2.82024C21.3387 2.75341 21.2164 2.50078 20.9162 1.94725C20.7745 1.68611 20.7504 1.54166 20.8485 1.54166C20.8685 1.54166 21.0218 1.74208 21.1893 1.987ZM14.6253 2.16168C15.0671 2.8201 15.4382 3.77962 15.3156 3.94646C15.2418 4.04693 15.2295 4.04479 15.1541 3.9185C15.0279 3.70683 14.545 3.35144 14.3837 3.35144C14.2242 3.35144 13.9839 3.1277 13.9839 2.97916C13.9839 2.88331 14.0854 2.83317 14.3468 2.80006C14.5306 2.7768 14.5539 2.60816 14.4224 2.2523C14.3347 2.01542 14.3285 1.87681 14.4055 1.87681C14.4213 1.87681 14.5202 2.00503 14.6253 2.16168ZM6.91094 2.29755C6.97674 2.53356 6.90295 2.66205 6.41613 3.15887C6.20661 3.37262 5.96947 3.42437 6.01902 3.2454C6.03518 3.18709 6.04839 3.1161 6.04839 3.08762C6.04839 2.95423 6.72426 2.01428 6.79364 2.05115C6.82505 2.06784 6.87784 2.1787 6.91094 2.29755ZM8.87995 2.47638C8.83955 2.63517 8.80645 2.80509 8.80645 2.85409C8.80645 3.00544 8.3071 3.61956 8.18405 3.61956C8.16348 3.61956 8.061 3.72694 7.95639 3.85811C7.4251 4.52438 7.20276 4.31243 7.68614 3.60052C7.84171 3.37135 8.10847 2.97735 8.27889 2.72486C8.74442 2.0352 9.02153 1.92064 8.87995 2.47638ZM7.96113 2.59737C7.94289 2.69878 7.89697 2.82929 7.85913 2.88753C7.82129 2.94572 7.79032 3.01362 7.79032 3.03835C7.79032 3.17194 7.20566 3.9547 7.10589 3.9547C6.96929 3.9547 6.99585 3.84692 7.23494 3.43074C7.81718 2.41713 8.03961 2.16188 7.96113 2.59737ZM18.9685 2.86548C18.9695 3.22006 19.053 3.40594 19.3298 3.66949C19.4624 3.79577 19.6888 4.04733 19.8329 4.22851C19.977 4.40969 20.1135 4.55796 20.1362 4.55796C20.1588 4.55796 20.1774 4.58812 20.1774 4.62499C20.1774 4.83646 19.78 4.55347 19.4851 4.13199C19.1501 3.65327 19.152 4.15733 19.4893 5.22825C19.5772 5.50749 19.6277 6.50414 19.5622 6.66642C19.5002 6.81978 19.3168 6.11377 19.2495 5.46285C19.2228 5.20479 19.1819 4.9484 19.1586 4.8931C19.1179 4.79645 18.9506 4.32363 18.6872 3.56064C18.5633 3.2015 18.5947 3.0163 18.7796 3.0163C18.799 3.0163 18.8293 2.92581 18.8468 2.81521C18.8915 2.53309 18.9676 2.56452 18.9685 2.86548ZM5.6129 2.83847C5.6129 3.00959 5.29761 3.47497 5.11694 3.57056C5.07034 3.59522 5.03226 3.66152 5.03226 3.71802C5.03226 3.77446 5.00971 3.82064 4.98218 3.82064C4.9351 3.82064 4.94642 3.78431 5.10484 3.42705C5.23456 3.13454 5.3956 2.88224 5.45265 2.88224C5.48758 2.88224 5.51613 2.85208 5.51613 2.81521C5.51613 2.77834 5.5379 2.74818 5.56452 2.74818C5.59113 2.74818 5.6129 2.7888 5.6129 2.83847ZM21.4839 5.99057C21.4839 6.1507 21.2881 6.70288 21.2314 6.70288C21.2014 6.70288 21.1372 6.75282 21.0885 6.81381C21.0052 6.91831 21 6.91556 21 6.7677C21 6.57191 21.1869 6.18468 21.3015 6.14319C21.3486 6.1261 21.3871 6.0641 21.3871 6.00538C21.3871 5.9466 21.4089 5.89854 21.4355 5.89854C21.4621 5.89854 21.4839 5.93996 21.4839 5.99057ZM9.72803 7.31465C9.85989 7.43296 9.96803 7.54738 9.96842 7.56876C9.96876 7.59021 9.98129 7.67098 9.99629 7.74826C10.0245 7.89378 9.4441 8.10834 9.15847 8.05794C9.09929 8.04748 8.92365 8.08455 8.76823 8.14038C8.20897 8.34113 7.84398 8.07677 8.1374 7.68351C8.63352 7.01859 9.24121 6.87763 9.72803 7.31465ZM12.1831 9.52975C11.8612 9.65081 11.5243 10.3139 11.6474 10.5842C11.7331 10.7725 11.8066 10.7151 12.5991 9.8407C12.8236 9.59296 12.5529 9.3906 12.1831 9.52975ZM1.70724 9.83353C1.69045 9.89406 1.6424 9.99507 1.60045 10.058C1.5585 10.1209 1.48065 10.2536 1.42742 10.3527C1.37419 10.4519 1.21839 10.7085 1.08121 10.9229C0.944032 11.1374 0.808645 11.3728 0.780339 11.446C0.74221 11.5446 0.528871 11.7119 0.532839 11.64C0.56671 11.0213 0.988065 9.98729 1.20624 9.98729C1.33665 9.98729 1.64516 9.79539 1.64516 9.71435C1.64516 9.67574 1.66597 9.66207 1.69142 9.68385C1.71687 9.70564 1.72398 9.773 1.70724 9.83353ZM20.8253 10.8721C20.8424 10.99 20.8724 11.1032 20.892 11.1234C20.9654 11.1992 21.1936 11.7074 21.1962 11.8007C21.1977 11.854 21.3323 12.0635 21.4953 12.2663C22.0566 12.9643 22.2383 13.2434 22.413 13.6758C22.5307 13.9671 22.6615 14.181 22.8114 14.3271C22.9341 14.4468 23.0564 14.6244 23.0831 14.7219C23.1099 14.8193 23.1801 14.9826 23.2393 15.0848C23.4623 15.4702 23.5161 15.58 23.5161 15.65C23.5161 15.6896 23.5543 15.7709 23.6008 15.8309C23.8583 16.1619 23.9273 16.3207 23.9562 16.649C23.9728 16.8375 23.9895 16.3229 23.9932 15.5053L24 14.0188L23.8547 13.9184C23.7243 13.8284 23.7014 13.829 23.6325 13.9244C23.5363 14.0578 23.496 13.9822 23.4154 13.5173L23.3591 13.1919L23.1543 13.2344C22.9367 13.2797 22.927 13.2704 22.1613 12.2848C22.0948 12.1992 21.9478 12.0668 21.8347 11.9907C21.7216 11.9144 21.629 11.8165 21.629 11.773C21.629 11.7295 21.5256 11.5788 21.3992 11.4383C21.2728 11.2976 21.104 11.0659 21.0242 10.9232C20.8464 10.6055 20.7845 10.5896 20.8253 10.8721ZM13.1613 12.1685C13.0149 12.2152 12.805 12.2563 12.6947 12.2598C12.4929 12.2663 12.4355 12.3395 12.4355 12.5902C12.4355 12.7044 12.1427 13.0706 12.0515 13.0706C12.0237 13.0706 11.882 13.2199 11.7366 13.4023C11.5832 13.5948 11.3926 13.7638 11.2828 13.8047C11.0097 13.9066 10.48 14.2495 10.4067 14.3719C10.2109 14.6987 10.8276 14.825 11.1717 14.5285C11.3744 14.3539 12.47 14.2981 12.5844 14.4566C12.6743 14.5812 12.5967 14.8723 12.4609 14.9195C12.2417 14.9957 12.225 15.1147 12.4066 15.3066C12.5011 15.4064 12.5862 15.5671 12.604 15.6793C12.6413 15.9147 12.6914 15.9763 12.9333 16.0842C13.0761 16.148 13.1105 16.1927 13.0891 16.2863C13.0599 16.4137 13.305 16.7572 13.4252 16.7572C13.4598 16.7572 13.518 16.8071 13.5546 16.8681C13.6181 16.9743 13.7866 17.0906 14.0202 17.1894C14.1084 17.2267 14.129 17.2094 14.129 17.0984C14.129 16.7343 14.5091 16.6846 14.8479 17.0043L15.0242 17.1707L15.0387 17.0095C15.0466 16.9209 14.9976 16.6953 14.9298 16.5082C14.862 16.321 14.806 16.1121 14.8054 16.0437C14.8048 15.9753 14.7613 15.7878 14.7086 15.6272C14.656 15.4664 14.6129 15.2661 14.6129 15.1819C14.6129 15.009 14.5313 14.9474 14.3022 14.9474C14.1867 14.9474 14.1055 14.8893 13.9982 14.7296C13.9178 14.6098 13.8124 14.4796 13.7641 14.4404C13.6334 14.3342 13.7075 14.1431 13.8795 14.1431C14.1319 14.1431 14.6403 14.5977 14.7227 14.8972C14.7405 14.9617 14.786 15.0145 14.8239 15.0145C14.8618 15.0145 14.9759 15.1653 15.0773 15.3496C15.2491 15.6618 15.4365 15.7935 15.4347 15.601C15.429 15.0305 15.0582 13.9771 14.7787 13.7379C14.6866 13.6591 14.5845 13.5269 14.5516 13.444C14.4366 13.1541 14.1033 12.6177 13.9398 12.4595C13.4895 12.0237 13.5475 12.0454 13.1613 12.1685ZM10.9707 21.6035L11.1269 21.8078L11.1158 22.6199L11.1047 23.4321L10.9458 23.6472C10.7722 23.8822 10.6667 23.9056 10.3343 23.7824C10.1734 23.7228 10.1115 23.6627 10.0903 23.5454C10.0746 23.459 10.0095 23.3608 9.94568 23.3272C9.67577 23.185 9.40239 22.7125 9.36677 22.3266C9.34839 22.1271 9.30189 21.9017 9.26342 21.8257C9.1169 21.536 9.18377 21.3001 9.36005 21.4849C9.46945 21.5995 9.70568 21.6156 9.75208 21.5116C9.87668 21.2323 10.7367 21.2971 10.9707 21.6035ZM20.4209 22.9359C20.4198 23.1981 20.4435 23.3499 20.497 23.424C20.5533 23.502 20.566 23.5954 20.5432 23.764L20.5117 23.9963H20.9524H21.3931L21.2336 23.6779C21.1458 23.5028 21.0653 23.3445 21.0546 23.326C21.0439 23.3076 21.0254 23.3302 21.0135 23.3763C20.9412 23.6571 20.5645 23.3988 20.5645 23.0684C20.5645 22.9292 20.5325 22.7569 20.4935 22.6853C20.4283 22.5659 20.4223 22.5866 20.4209 22.9359ZM19.7621 22.7745C19.6298 22.9267 19.4707 23.3197 19.427 23.6027C19.4078 23.727 19.3701 23.8665 19.3433 23.9125C19.3051 23.9782 19.3807 23.9963 19.6939 23.9963H20.0931L20.0601 23.5774C19.9924 22.7199 19.9378 22.5727 19.7621 22.7745ZM0 23.6669V23.9963H0.219435C0.477097 23.9963 0.468194 23.9092 0.17371 23.5496L0 23.3375V23.6669Z" fill="black"/>
</svg>
