<svg width="24" height="24" viewBox="0 0 24 24" fill="none" xmlns="http://www.w3.org/2000/svg">
<path fill-rule="evenodd" clip-rule="evenodd" d="M0.499668 0.473925C-0.0043505 1.00637 -0.126223 2.47112 0.130236 4.91202C0.297516 6.50284 0.589574 6.7185 1.41072 5.85714C1.77089 5.4794 2.1514 5.20471 2.25656 5.24659C2.51157 5.34813 3.58463 7.85021 3.95497 9.20692C4.11771 9.80358 4.7643 11.4777 5.39165 12.9273C7.27386 17.2766 7.85925 19.4244 7.27913 19.8527C7.13492 19.9592 7.1391 20.0462 7.29439 20.1608C7.44914 20.2749 7.42607 20.3591 7.21356 20.4565C7.03993 20.5362 6.96255 20.5036 7.02739 20.3784C7.27205 19.9057 6.75531 20.2016 6.40368 20.7356C5.86497 21.5535 5.92091 22.1064 6.57205 22.3999C6.92913 22.5609 7.11784 22.7974 7.11966 23.0862C7.12493 23.902 7.37285 24.1125 8.13478 23.9482C9.02767 23.7558 9.29648 23.5004 9.29648 22.8447C9.29648 22.4954 9.45104 22.24 9.76635 22.0686C10.0573 21.91 10.4455 21.3175 10.7866 20.5101C11.0893 19.7937 12.2138 17.9295 13.2854 16.3673C14.357 14.8051 15.4969 13.092 15.8186 12.5604C16.6951 11.111 19.3654 8.23056 19.8324 8.23056C20.0505 8.23056 20.4459 8.41173 20.7111 8.63325C20.9763 8.85478 21.3157 9.05266 21.4656 9.07305C21.6154 9.09366 22.1282 9.16656 22.6051 9.23513C23.7645 9.40197 24.0153 9.12816 23.9993 7.71396C23.9924 7.10319 23.9904 6.40802 23.9948 6.16936C24.0543 2.97753 23.2132 1.07059 21.7458 1.07059C21.368 1.07059 20.4027 2.11508 20.0699 2.8838C19.5509 4.08255 18.7484 4.81417 18.1153 4.66598C16.7042 4.33532 14.4729 4.1509 14.1765 4.34053C13.9743 4.46962 13.8183 4.46442 13.7467 4.32577C13.6848 4.20601 13.782 4.10034 13.9627 4.09101C14.163 4.0806 14.2004 4.03026 14.0584 3.96213C13.9304 3.90073 13.6267 4.00596 13.3837 4.19624C12.791 4.66012 12.2483 4.67357 12.5658 4.21664C12.6902 4.03764 12.9249 3.88229 13.0874 3.87166C13.2502 3.86081 12.811 3.66771 12.1117 3.44271C10.8047 3.02179 8.80572 2.86492 9.27523 3.21988C9.41345 3.32446 9.78124 3.37979 10.0926 3.3429C10.8292 3.25568 12.581 3.68593 12.4579 3.92395C12.3208 4.1893 11.5183 4.15046 11.0579 3.85604C10.841 3.71761 10.2502 3.6241 9.74474 3.64861C9.23927 3.67291 8.625 3.59719 8.37998 3.48046C8.06322 3.32923 8.02617 3.26371 8.25211 3.25395C8.42684 3.24657 8.56996 3.15371 8.56996 3.04804C8.56996 2.79723 6.9996 2.51625 6.72607 2.71825C6.58731 2.82066 6.56551 2.7777 6.66178 2.59154C6.7733 2.37609 6.68339 2.33855 6.28126 2.43272C5.87496 2.52775 5.64066 2.42643 5.25525 1.98967L4.75577 1.42338V2.00638C4.75577 2.32706 4.68348 2.58937 4.59539 2.58937C4.3353 2.58937 4.23504 1.78138 4.45899 1.49107C4.61264 1.29168 4.61228 1.25913 4.45772 1.36241C4.34383 1.43857 4.1188 1.26044 3.95769 0.966878C3.73084 0.553118 3.51997 0.439427 3.02176 0.461775C2.62127 0.479783 2.4667 0.555722 2.61219 0.663122C2.7406 0.757937 3.05064 0.78419 3.30129 0.721269C3.71722 0.616907 3.72939 0.633831 3.44187 0.914589C3.26859 1.08361 3.16289 1.26499 3.20702 1.31772C3.25098 1.37044 3.12038 1.42859 2.91642 1.44703C2.71245 1.46526 2.39333 1.69003 2.20734 1.94628C1.74437 2.58395 1.43978 2.31122 1.77052 1.55508C1.99719 1.03696 1.99556 0.931729 1.75817 0.721269C1.36822 0.375421 1.42307 0.226798 1.89512 0.350253C2.2235 0.436389 2.2502 0.411655 2.03134 0.224845C1.59398 -0.148342 0.996785 -0.0513566 0.499668 0.473925ZM21.6051 1.7215C21.4803 1.96016 21.214 2.15326 21.0131 2.15066C20.6773 2.1461 20.6844 2.11204 21.1023 1.7215C21.6884 1.17387 21.8913 1.17387 21.6051 1.7215ZM8.37907 4.97017C8.56052 5.08625 9.67899 5.32925 10.8645 5.51042C13.2703 5.87818 17.6229 6.82243 17.7807 7.01098C17.8988 7.15201 16.1677 9.72331 15.2201 10.8142C14.8668 11.221 14.6285 11.6604 14.6907 11.7906C14.7528 11.921 14.7382 11.957 14.6585 11.8711C14.5788 11.7849 13.8811 12.7179 13.1083 13.9442C11.8049 16.0121 10.1905 17.9942 9.8094 17.9942C9.72003 17.9942 9.74347 18.2139 9.86134 18.4823L10.0758 18.9705L9.67826 18.5487C9.34225 18.1923 9.29902 18.1838 9.39892 18.4945C9.48083 18.7492 9.42416 18.862 9.21438 18.862C9.04692 18.862 8.96501 18.759 9.03112 18.6314C9.09669 18.5045 9.03257 18.2361 8.88836 18.0347C8.74433 17.8334 8.48496 17.2293 8.31205 16.6923C8.13932 16.1553 7.64202 14.9323 7.20684 13.9746C6.77184 13.0169 6.23513 11.65 6.01409 10.937C5.79323 10.2241 5.45885 9.37876 5.27105 9.05851C4.43356 7.62977 4.09192 5.10165 4.71036 4.90855C5.32699 4.7161 8.05323 4.76188 8.37907 4.97017Z" fill="black"/>
</svg>
