<svg width="24" height="24" viewBox="0 0 24 24" fill="none" xmlns="http://www.w3.org/2000/svg">
<path fill-rule="evenodd" clip-rule="evenodd" d="M9.94243 0.0483385C9.85861 0.0823002 9.68931 0.211471 9.56626 0.335344C9.44321 0.459217 9.30362 0.560595 9.25608 0.560595C9.15253 0.560595 8.45666 1.18352 8.45666 1.27619C8.45666 1.31189 8.50886 1.38228 8.57263 1.43271C8.67481 1.51348 8.66909 1.53736 8.52478 1.63365C8.3775 1.73191 8.3538 1.73082 8.29072 1.6235C8.18588 1.44505 8.10511 1.47393 7.77428 1.80847C7.49656 2.08924 7.4766 2.13677 7.51728 2.41956C7.5582 2.70381 7.54128 2.74293 7.2852 2.95707C7.05967 3.14568 7.009 3.23813 7.009 3.46106C7.009 3.62317 6.94774 3.80815 6.85814 3.91664C6.77517 4.01714 6.67314 4.18485 6.63147 4.28927C6.58971 4.39377 6.49965 4.47926 6.43131 4.47926C6.35207 4.47926 6.32288 4.51873 6.35085 4.58811C6.40289 4.71728 6.33523 4.91466 6.23892 4.91466C6.20151 4.91466 6.17088 4.78803 6.17088 4.63325C6.17088 4.24552 5.97613 4.09153 5.90283 4.42135C5.87358 4.55299 5.78115 4.76815 5.69734 4.89957C5.57132 5.09717 5.5557 5.19739 5.60721 5.48011C5.64134 5.66799 5.6613 5.87074 5.65147 5.93061C5.49932 6.85716 5.49657 6.80143 5.69628 6.8491C5.93346 6.90585 5.88531 7.34939 5.59905 7.74481C5.36286 8.07115 5.18037 8.56635 5.18037 8.88129C5.18037 9.01736 5.12704 9.20625 5.06182 9.30103C4.91835 9.50959 4.89625 10.3572 5.01351 11.1555C5.05747 11.4548 5.12536 11.9649 5.16445 12.2891C5.20346 12.6132 5.26045 12.9169 5.29101 12.964C5.32156 13.0111 5.34426 13.2797 5.34152 13.5609C5.33817 13.8966 5.37847 14.1496 5.45871 14.2974L5.581 14.5226L5.7045 14.365C6.519 13.3259 6.55055 13.315 6.68419 14.0275C6.79863 14.6376 6.74964 15.0722 6.53752 15.3289C6.29843 15.6186 6.38841 16.5257 6.71025 17.0687C7.00024 17.5582 7.07567 17.6159 7.43827 17.6261C7.8699 17.6381 7.97368 17.717 8.07212 18.1079C8.28912 18.9694 8.50436 19.2702 8.60707 18.8556C8.65941 18.6444 8.99001 18.4011 8.99001 18.5737C8.99001 18.7005 9.87903 19.1631 9.94052 19.0683C9.96391 19.0323 9.95111 18.9841 9.91218 18.9612C9.80429 18.8977 9.55064 18.3442 9.45731 17.9688C9.41159 17.7848 9.27056 17.4144 9.144 17.1457C9.01737 16.877 8.91382 16.5892 8.91382 16.5064C8.91382 16.4234 8.86018 16.2991 8.79466 16.2301C8.66018 16.0886 8.45895 15.4309 8.45758 15.1283C8.45705 15.0184 8.38992 14.8099 8.30824 14.6648C8.22009 14.5081 8.17559 14.3242 8.19852 14.2115C8.21986 14.1073 8.18374 13.879 8.11837 13.7044C7.96614 13.2977 7.96766 13.0108 8.1234 12.7846C8.24759 12.604 8.24614 12.5277 8.10107 11.5728C8.05277 11.2548 8.2178 11.1987 8.48988 11.4404C8.74597 11.6679 9.0416 11.7064 9.10362 11.5203C9.1949 11.2466 9.53182 11.1846 9.71827 11.4073C9.99027 11.7323 10.2768 11.6897 10.5497 11.2838C10.6767 11.095 10.82 10.9399 10.8683 10.9391C10.9166 10.9384 10.9929 10.8374 11.0378 10.7146C11.0827 10.5919 11.1501 10.5095 11.1874 10.5315C11.2617 10.5752 11.2149 10.9304 11.1197 11.0466C11.0327 11.1527 11.2481 11.5909 11.3872 11.5909C11.4524 11.5909 11.5646 11.5256 11.6363 11.4458C11.8254 11.2355 11.873 11.2621 11.9711 11.6332C12.0588 11.9651 12.0593 11.9654 12.2105 11.8215C12.4612 11.5826 12.4364 11.1253 12.1711 11.0963C11.9697 11.0741 11.9615 11.0572 11.9615 10.6572C11.9615 10.1695 11.8741 10.047 11.5975 10.1472C11.4436 10.203 11.3723 10.1874 11.2404 10.0694C11.1497 9.98824 11.0243 9.92184 10.9617 9.92184C10.899 9.92184 10.7812 9.87387 10.6999 9.81531C10.6186 9.75668 10.4663 9.70755 10.3615 9.70603C9.69884 9.69659 9.04685 9.27222 9.20076 8.95052C9.26248 8.82142 9.35086 8.76076 9.47719 8.76076C9.58432 8.76076 9.75316 8.66961 9.87629 8.54538C9.9937 8.42687 10.1889 8.30924 10.3101 8.28391C10.5601 8.23159 11.67 7.21557 11.9512 6.78147C12.149 6.47618 12.2667 5.69397 12.1272 5.61182C12.0815 5.58504 11.7971 5.81363 11.4889 6.12473C11.1831 6.43351 10.8106 6.80788 10.6612 6.95672C10.2547 7.36143 9.60428 7.42696 9.88216 7.03524C10.0351 6.81971 10.3411 6.19672 10.4396 5.90042C10.5296 5.62946 10.5247 5.60979 10.3334 5.47714C10.2232 5.40058 10.1329 5.29238 10.1329 5.23657C10.1329 5.08266 10.5324 4.18899 10.6012 4.18899C10.6343 4.18899 10.6429 4.14298 10.6202 4.08666C10.5976 4.03042 10.6284 3.8916 10.6887 3.77825C10.97 3.24938 10.8964 2.36986 10.6077 2.8102C10.5554 2.89002 10.4471 2.95533 10.367 2.95533C10.2109 2.95533 9.73046 3.17369 9.68847 3.26375C9.63689 3.37427 9.52336 3.31367 9.52336 3.17558C9.52336 3.0972 9.58836 2.99989 9.66775 2.9594C9.74714 2.91898 9.85137 2.79532 9.89938 2.68473C10.0771 2.27523 10.221 2.08452 10.3523 2.08452C10.4266 2.08452 10.6791 1.94258 10.9137 1.76907C11.1483 1.59556 11.4458 1.41203 11.5747 1.36116C12.2549 1.09281 11.3136 0.716978 10.2381 0.827426C9.75354 0.877208 9.64741 0.762696 9.99584 0.566037C10.362 0.359219 10.4491 0.271557 10.4221 0.136726C10.3946 -0.000717355 10.1668 -0.0426616 9.94243 0.0483385ZM6.8154 7.01434C6.83962 7.05164 6.77517 7.2557 6.67215 7.46789C6.56914 7.68008 6.43527 7.97137 6.37454 8.11519C6.23633 8.44269 5.9423 8.55241 5.9423 8.27651C5.9423 8.09045 6.28555 7.19815 6.41904 7.03727C6.50727 6.93089 6.75208 6.91674 6.8154 7.01434ZM7.28124 8.50931C7.30897 8.65045 7.31225 8.85865 7.28848 8.97208C7.26227 9.09689 7.28779 9.23194 7.35324 9.31423C7.49222 9.48898 7.49077 9.70334 7.34943 9.88128C7.17937 10.0955 7.1895 11.558 7.3617 11.6498C7.57298 11.7625 7.45663 11.8905 7.23758 11.7865C7.065 11.7045 7.04527 11.6484 7.02774 11.19C7.00207 10.5191 6.95719 10.3572 6.79703 10.3572C6.67345 10.3572 6.67025 10.3025 6.75162 9.57715C6.86995 8.52186 7.16603 7.92478 7.28124 8.50931ZM9.6567 10.0504C9.90319 10.2026 9.86798 10.334 9.56634 10.3879C9.42233 10.4136 9.12632 10.5514 8.90856 10.694C8.69081 10.8367 8.40965 10.9815 8.28378 11.0159L8.0549 11.0785L8.09947 10.6634C8.16523 10.0513 8.43998 9.82939 9.04891 9.89644C9.28892 9.92286 9.56245 9.99216 9.6567 10.0504ZM16.0863 10.212C15.7219 10.294 15.0092 10.9766 15.0092 11.2437C15.0092 11.4929 15.3741 11.5329 15.5968 11.3083C15.7429 11.1609 16.5925 11.2556 16.7871 11.4409C16.9064 11.5546 17.295 11.5381 17.295 11.4193C17.295 11.0171 18.0957 10.7452 18.2855 11.0829C18.3659 11.226 18.8189 11.299 18.8189 11.1688C18.8189 10.9686 18.1144 10.7588 17.1937 10.6846C16.6351 10.6397 16.5636 10.5982 16.7346 10.4182C16.9657 10.175 16.6694 10.0809 16.0863 10.212ZM7.65169 15.6495C7.80255 15.8083 7.76575 16.0033 7.5233 16.3312C7.41534 16.4771 7.38364 16.6056 7.41313 16.7785C7.44322 16.9552 7.41762 17.0528 7.31888 17.138C7.10386 17.3233 6.99011 17.1313 7.0519 16.6876C7.09533 16.3758 7.07986 16.3087 6.93426 16.1796C6.71535 15.9853 6.75894 15.7703 7.0231 15.7411C7.13495 15.7287 7.26745 15.6716 7.31751 15.6141C7.43766 15.4763 7.4926 15.4821 7.65169 15.6495ZM11.9234 17.7089C11.1898 17.8298 11.1996 17.8258 11.1996 18.0037C11.1996 18.4983 11.5687 19.0654 11.8905 19.0654C12.1821 19.0654 12.1723 18.9807 11.8446 18.6686C11.6059 18.4412 11.5855 18.3936 11.6655 18.2489C11.8216 17.9667 12.2642 17.8618 12.3958 18.0759C12.5475 18.3222 12.9267 18.4214 13.2155 18.2903C13.5657 18.1312 13.5557 18.0729 13.1616 17.973C12.9834 17.9277 12.7863 17.8494 12.7235 17.7989C12.5533 17.6622 12.3472 17.639 11.9234 17.7089ZM0.053663 19.2554C-0.0114819 19.3175 -0.0205489 22.8389 0.0443674 22.8389C0.0692063 22.8389 0.176714 22.7736 0.283232 22.6938C0.389826 22.614 0.518744 22.5486 0.569869 22.5486C0.620919 22.5486 0.751056 22.4707 0.859021 22.3754L1.05529 22.2021L0.895137 21.8938C0.751208 21.6167 0.743741 21.5443 0.821458 21.1781C0.869002 20.954 0.888203 20.6366 0.86405 20.4728C0.839668 20.3067 0.857954 20.1078 0.905346 20.0234C0.979253 19.8919 0.96272 19.8591 0.780619 19.7757C0.622214 19.703 0.570098 19.6264 0.568345 19.4631C0.56606 19.248 0.211687 19.1049 0.053663 19.2554ZM10.3005 19.8781C10.1896 19.9838 10.18 20.2734 10.2853 20.3353C10.3272 20.36 10.3615 20.6183 10.3615 20.9093C10.3615 21.4837 10.5502 21.9433 10.9522 22.3478C11.1655 22.5624 11.352 22.5165 11.352 22.2495C11.352 22.1746 11.3863 22.1132 11.4282 22.1132C11.4701 22.1132 11.5044 22.1611 11.5044 22.2195C11.5044 22.278 11.5815 22.3648 11.6758 22.4124C11.7701 22.4599 11.9749 22.6235 12.131 22.7759C12.6283 23.2614 13.1692 23.583 13.3982 23.5292C13.706 23.457 14.2462 23.1856 14.2563 23.0982C14.2761 22.9277 14.2277 22.796 14.0944 22.6575C14.0176 22.5777 13.9435 22.4171 13.9296 22.3007C13.9105 22.1406 13.848 22.0698 13.6727 22.0104C13.3716 21.9083 12.8934 21.5546 12.84 21.3945C12.7911 21.2477 12.066 20.9263 11.9114 20.9828C11.8251 21.0143 11.8232 21.0481 11.9012 21.167C11.9807 21.2883 11.9753 21.3331 11.8687 21.4345C11.6008 21.6897 10.8525 20.8226 10.5597 19.9181C10.5117 19.7695 10.4281 19.7567 10.3005 19.8781ZM20.8416 20.9657C20.6483 21.5173 20.65 21.6288 20.8593 22.0725C21.0228 22.4196 21.0626 22.6042 21.0479 22.9478C21.0377 23.1872 21.0679 23.522 21.115 23.6916L21.2007 24H21.5999H21.9992L22.0927 23.6553C22.1442 23.4657 22.199 23.2698 22.2145 23.2199C22.23 23.17 22.2953 23.1292 22.3595 23.1292C22.4335 23.1292 22.4761 23.0621 22.4761 22.9455C22.4761 22.72 22.6547 22.6438 22.8952 22.7663C23.1866 22.9148 23.3778 22.8057 23.1847 22.6012C22.9943 22.3997 22.9105 22.1858 23.0219 22.1858C23.1402 22.1858 23.6449 22.4854 23.7181 22.5991C23.8116 22.7444 24 22.7115 24 22.5499C24 22.3697 23.1358 21.5327 22.9498 21.5327C22.903 21.5327 22.8368 21.4852 22.8027 21.4272C22.6609 21.1858 22.0492 20.9628 21.5368 20.9656C21.2644 20.9672 21.004 20.9463 20.9582 20.9194C20.9125 20.8924 20.86 20.9133 20.8416 20.9657ZM6.89471 23.4969C6.26612 23.5319 5.52896 23.6091 5.25657 23.6687C4.98418 23.7282 4.62348 23.7959 4.45502 23.8194C3.50383 23.9517 4.12701 23.9978 6.87566 23.9989C8.49956 23.9995 9.82814 23.9739 9.82814 23.9419C9.82814 23.8324 9.6452 23.7097 9.48176 23.7097C9.39178 23.7097 9.21745 23.6618 9.09432 23.6033C8.7753 23.4518 8.20271 23.4241 6.89471 23.4969Z" fill="black"/>
</svg>
