<svg width="24" height="24" viewBox="0 0 24 24" fill="none" xmlns="http://www.w3.org/2000/svg">
<mask id="path-1-inside-1" fill="white">
<path fill-rule="evenodd" clip-rule="evenodd" d="M7.97173 8.03751C6.86704 8.77228 5.71019 9.89012 4.53564 11.5195C4.32526 11.8113 4.33482 12.1853 4.5328 12.4457C6.10995 14.5201 8.44012 16.543 11.0109 17.0578C12.2691 17.3098 13.6068 17.207 14.9995 16.5475C16.4049 15.8821 17.9193 14.6239 19.4644 12.4805C19.6747 12.1887 19.6652 11.8147 19.4672 11.5543C18.6068 10.4226 17.5223 9.30629 16.2969 8.44178C16.7434 9.19022 17 10.0651 17 11C17 13.7614 14.7614 16 12 16C9.23858 16 7 13.7614 7 11C7 9.89118 7.36094 8.86665 7.97173 8.03751ZM21.0593 10.3438C19.3534 8.10005 16.6445 5.63452 13.3818 4.98113C11.7233 4.64899 9.94557 4.79211 8.14457 5.6449C6.35618 6.49172 4.5985 8.0121 2.91323 10.35C2.20763 11.3288 2.19065 12.6696 2.9407 13.6562C4.64662 15.9 7.35554 18.3655 10.6182 19.0189C12.2767 19.351 14.0544 19.2079 15.8554 18.3551C17.6438 17.5083 19.4015 15.9879 21.0868 13.65C21.7924 12.6712 21.8094 11.3304 21.0593 10.3438ZM11.5 9.5C11.5 10.3284 10.8284 11 10 11C9.17157 11 8.5 10.3284 8.5 9.5C8.5 8.67157 9.17157 8 10 8C10.8284 8 11.5 8.67157 11.5 9.5Z"/>
</mask>
<path fill-rule="evenodd" clip-rule="evenodd" d="M7.97173 8.03751C6.86704 8.77228 5.71019 9.89012 4.53564 11.5195C4.32526 11.8113 4.33482 12.1853 4.5328 12.4457C6.10995 14.5201 8.44012 16.543 11.0109 17.0578C12.2691 17.3098 13.6068 17.207 14.9995 16.5475C16.4049 15.8821 17.9193 14.6239 19.4644 12.4805C19.6747 12.1887 19.6652 11.8147 19.4672 11.5543C18.6068 10.4226 17.5223 9.30629 16.2969 8.44178C16.7434 9.19022 17 10.0651 17 11C17 13.7614 14.7614 16 12 16C9.23858 16 7 13.7614 7 11C7 9.89118 7.36094 8.86665 7.97173 8.03751ZM21.0593 10.3438C19.3534 8.10005 16.6445 5.63452 13.3818 4.98113C11.7233 4.64899 9.94557 4.79211 8.14457 5.6449C6.35618 6.49172 4.5985 8.0121 2.91323 10.35C2.20763 11.3288 2.19065 12.6696 2.9407 13.6562C4.64662 15.9 7.35554 18.3655 10.6182 19.0189C12.2767 19.351 14.0544 19.2079 15.8554 18.3551C17.6438 17.5083 19.4015 15.9879 21.0868 13.65C21.7924 12.6712 21.8094 11.3304 21.0593 10.3438ZM11.5 9.5C11.5 10.3284 10.8284 11 10 11C9.17157 11 8.5 10.3284 8.5 9.5C8.5 8.67157 9.17157 8 10 8C10.8284 8 11.5 8.67157 11.5 9.5Z" fill="black"/>
<path d="M7.97173 8.03751L9.58198 9.22372L6.8641 6.37224L7.97173 8.03751ZM4.53564 11.5195L6.15805 12.689L6.15805 12.689L4.53564 11.5195ZM4.5328 12.4457L2.9407 13.6562L2.9407 13.6562L4.5328 12.4457ZM11.0109 17.0578L11.4037 15.0967L11.4037 15.0967L11.0109 17.0578ZM14.9995 16.5475L15.8554 18.3551L15.8554 18.3551L14.9995 16.5475ZM19.4644 12.4805L21.0868 13.65L21.0868 13.65L19.4644 12.4805ZM19.4672 11.5543L17.8751 12.7647L17.8751 12.7647L19.4672 11.5543ZM16.2969 8.44178L17.4498 6.80754L14.5794 9.46654L16.2969 8.44178ZM13.3818 4.98113L13.7745 3.02007L13.7745 3.02007L13.3818 4.98113ZM21.0593 10.3438L19.4672 11.5543L19.4672 11.5543L21.0593 10.3438ZM8.14457 5.6449L9.00048 7.4525L9.00048 7.4525L8.14457 5.6449ZM2.91323 10.35L4.53564 11.5195L2.91323 10.35ZM2.9407 13.6562L4.5328 12.4457L4.5328 12.4457L2.9407 13.6562ZM10.6182 19.0189L11.0109 17.0578L11.0109 17.0578L10.6182 19.0189ZM15.8554 18.3551L14.9995 16.5475L14.9995 16.5475L15.8554 18.3551ZM21.0868 13.65L22.7092 14.8196L22.7092 14.8196L21.0868 13.65ZM6.8641 6.37224C5.51766 7.2678 4.19553 8.57112 2.91323 10.35L6.15805 12.689C7.22485 11.2091 8.21643 10.2768 9.07937 9.70279L6.8641 6.37224ZM2.91323 10.35C2.20316 11.335 2.19517 12.6756 2.9407 13.6562L6.12491 11.2353C6.47448 11.695 6.44737 12.2877 6.15805 12.689L2.91323 10.35ZM2.9407 13.6562C4.64694 15.9004 7.35586 18.3656 10.6182 19.0189L11.4037 15.0967C9.52437 14.7204 7.57297 13.1399 6.12491 11.2353L2.9407 13.6562ZM10.6182 19.0189C12.2769 19.351 14.0545 19.2078 15.8554 18.3551L14.1436 14.7399C13.159 15.2061 12.2614 15.2685 11.4037 15.0967L10.6182 19.0189ZM15.8554 18.3551C17.6437 17.5083 19.4014 15.988 21.0868 13.65L17.842 11.311C16.4372 13.2597 15.166 14.2558 14.1436 14.7399L15.8554 18.3551ZM21.0868 13.65C21.7968 12.665 21.8048 11.3244 21.0593 10.3438L17.8751 12.7647C17.5255 12.305 17.5526 11.7123 17.842 11.311L21.0868 13.65ZM21.0593 10.3438C20.1003 9.08249 18.8734 7.81188 17.4498 6.80754L15.144 10.076C16.1712 10.8007 17.1133 11.7627 17.8751 12.7647L21.0593 10.3438ZM19 11C19 9.69444 18.6407 8.46671 18.0144 7.41702L14.5794 9.46654C14.8462 9.91373 15 10.4359 15 11H19ZM12 18C15.866 18 19 14.866 19 11H15C15 12.6569 13.6569 14 12 14V18ZM5 11C5 14.866 8.13401 18 12 18V14C10.3431 14 9 12.6569 9 11H5ZM6.36148 6.85131C5.50611 8.01246 5 9.45004 5 11H9C9 10.3323 9.21577 9.72085 9.58198 9.22372L6.36148 6.85131ZM12.9891 6.94219C15.5596 7.45697 17.8898 9.47952 19.4672 11.5543L22.6514 9.13337C20.817 6.72058 17.7293 3.81206 13.7745 3.02007L12.9891 6.94219ZM9.00048 7.4525C10.3931 6.79307 11.7308 6.6902 12.9891 6.94219L13.7745 3.02007C11.7158 2.60777 9.49803 2.79114 7.28866 3.8373L9.00048 7.4525ZM4.53564 11.5195C6.08076 9.37605 7.59522 8.1179 9.00048 7.4525L7.28866 3.8373C5.11714 4.86553 3.11624 6.64816 1.29082 9.18044L4.53564 11.5195ZM4.5328 12.4457C4.33608 12.187 4.32401 11.8131 4.53564 11.5195L1.29082 9.18044C0.0912494 10.8445 0.0452113 13.1523 1.3486 14.8666L4.5328 12.4457ZM11.0109 17.0578C8.44039 16.543 6.11023 14.5205 4.5328 12.4457L1.3486 14.8666C3.18301 17.2794 6.27069 20.1879 10.2255 20.9799L11.0109 17.0578ZM14.9995 16.5475C13.6069 17.2069 12.2692 17.3098 11.0109 17.0578L10.2255 20.9799C12.2842 21.3922 14.502 21.2089 16.7113 20.1627L14.9995 16.5475ZM19.4644 12.4805C17.9192 14.624 16.4048 15.8821 14.9995 16.5475L16.7113 20.1627C18.8829 19.1345 20.8838 17.3518 22.7092 14.8196L19.4644 12.4805ZM19.4672 11.5543C19.6639 11.813 19.676 12.1869 19.4644 12.4805L22.7092 14.8196C23.9087 13.1555 23.9548 10.8477 22.6514 9.13336L19.4672 11.5543ZM10 13C11.933 13 13.5 11.433 13.5 9.5H9.5C9.5 9.22386 9.72386 9 10 9V13ZM6.5 9.5C6.5 11.433 8.067 13 10 13V9C10.2761 9 10.5 9.22386 10.5 9.5H6.5ZM10 6C8.067 6 6.5 7.567 6.5 9.5H10.5C10.5 9.77614 10.2761 10 10 10V6ZM13.5 9.5C13.5 7.567 11.933 6 10 6V10C9.72386 10 9.5 9.77614 9.5 9.5H13.5Z" fill="black" mask="url(#path-1-inside-1)"/>
</svg>
