<svg width="24" height="24" viewBox="0 0 24 24" fill="none" xmlns="http://www.w3.org/2000/svg">
<path fill-rule="evenodd" clip-rule="evenodd" d="M1 24H12H24V12V0H12H1H0V5.49295V17.652V24H1ZM11.0972 0.99617C12.4941 0.915894 13.082 1.21031 14.4384 2.67009C16.1037 4.46231 16.554 5.17369 16.8576 6.49167C17.2189 8.06062 17.2065 10.5311 16.8341 11.1659C16.5511 11.6481 16.6646 12.1288 16.9512 11.6618C17.0756 11.459 17.1211 11.4712 17.2211 11.7335C17.2975 11.9339 17.2498 12.117 17.09 12.2358C16.9519 12.3385 16.7792 12.6507 16.7063 12.9296C16.6335 13.2085 16.539 13.3411 16.4964 13.2243C16.3573 12.8434 16.1119 13.1895 16.1119 13.7665C16.1119 14.0993 16.0135 14.3681 15.8717 14.4228C15.7398 14.4739 15.4976 14.9574 15.3338 15.4972C14.9627 16.7197 14.6568 17.1352 13.4559 18.0477C12.2249 18.983 11.7872 19.0994 11.3842 18.5983C11.0199 18.1452 10.9925 17.9155 11.3027 17.9155C11.4268 17.9155 11.6692 17.7588 11.8414 17.5672C12.1094 17.269 12.1192 17.1963 11.9094 17.0627C11.7746 16.9768 11.5888 16.9031 11.4965 16.8989C11.4042 16.8946 11.469 16.809 11.6407 16.7086C11.8156 16.6061 12.2392 16.5722 12.6057 16.6312C12.9649 16.6891 13.2587 16.6687 13.2587 16.586C13.2587 16.3673 12.8267 16.0408 12.7027 16.1657C12.6446 16.2242 12.2739 16.1809 11.879 16.0695C11.1744 15.8708 11.1605 15.8527 11.1446 15.1119C11.134 14.615 11.0323 14.2861 10.847 14.1495C10.5919 13.9619 10.5842 13.7765 10.7641 12.1832C10.7811 12.0321 10.7974 11.8941 10.8123 11.7677C10.9017 11.0082 10.9419 10.6665 10.8129 10.41C10.7073 10.2003 10.4886 10.0476 10.0912 9.76993C10.0104 9.71349 9.92218 9.65189 9.82607 9.5836C9.29555 9.20688 9.24924 8.31009 9.71278 7.39436C10.0501 6.72829 10.0204 6.59155 9.53841 6.59155C8.99664 6.59155 9.20811 6.14789 9.98601 5.65285C10.804 5.13211 10.9328 4.90141 10.4056 4.90141C10.221 4.90141 10.0639 4.80643 10.0567 4.69014C10.0461 4.52113 10.0265 4.52113 9.95883 4.69014C9.91217 4.80626 9.70322 4.90141 9.49426 4.90141C9.28531 4.90141 8.94008 5.05353 8.72728 5.23944C8.26019 5.64743 8.22377 5.65234 8.22377 5.30806C8.22377 5.16 8.37231 4.9996 8.55389 4.95178C8.73549 4.90411 8.92934 4.72107 8.98473 4.54512C9.04028 4.36919 9.16045 4.22536 9.25192 4.22536C9.34355 4.22536 9.37041 4.14709 9.31183 4.05161C9.2531 3.95612 9.38081 3.73048 9.59564 3.55014C10.0703 3.15195 9.74551 3.10934 9.03894 3.47729C8.28772 3.86839 8.2654 3.64783 9.00487 3.1418C9.60403 2.73178 9.61812 2.70338 9.22775 2.69138C8.86003 2.68005 8.88017 2.65182 9.39861 2.4507L9.98601 2.22287L9.31468 2.20496C8.78416 2.19077 8.70345 2.15155 8.93001 2.01854C9.08777 1.92592 9.18428 1.75723 9.14467 1.64349C8.99681 1.22011 9.85896 0.530869 10.0902 0.887497C10.1476 0.975891 10.6008 1.02473 11.0972 0.99617ZM12.3058 9.85791C11.5707 10.1314 11.57 10.1329 11.8124 11.0763L12.0279 11.9155L12.9832 11.8956C13.6083 11.8825 14.043 11.7804 14.2412 11.5998C14.4077 11.4482 14.6702 11.3239 14.8244 11.3239C14.9787 11.3239 15.1049 11.2099 15.1049 11.0704C15.1049 10.931 15.0861 10.8157 15.0629 10.8144C15.0398 10.813 14.7224 10.7072 14.3575 10.5793L13.6939 10.3467L14.2736 9.99094L14.8531 9.63498L13.8462 9.64732C13.2923 9.65408 12.5992 9.74873 12.3058 9.85791Z" fill="black"/>
</svg>
