<svg width="24" height="24" viewBox="0 0 24 24" fill="none" xmlns="http://www.w3.org/2000/svg">
<path fill-rule="evenodd" clip-rule="evenodd" d="M0.434211 0.0409365C0.687474 0.0529734 1.10195 0.0529734 1.35526 0.0409365C1.60853 0.0288338 1.40132 0.0189675 0.894737 0.0189675C0.388158 0.0189675 0.180895 0.0288338 0.434211 0.0409365ZM2.89474 0.0617874C3.08289 0.0903339 3.63921 0.133285 4.13105 0.157293C4.62284 0.181301 5.043 0.214715 5.06474 0.231488C5.08647 0.248261 5.28805 0.227607 5.51263 0.185577C5.86747 0.119144 5.95211 0.123748 6.15789 0.220372C6.54363 0.401518 6.62742 0.411647 6.73474 0.290292C6.82342 0.19005 6.91932 0.182814 7.61447 0.224384C8.75305 0.292396 8.94042 0.432301 8.52632 0.905358C8.26289 1.20635 8.263 1.30205 8.52695 1.4905C8.75795 1.65533 8.88916 1.62211 9.05853 1.35612C9.25979 1.04007 9.52632 1.43965 9.52632 2.05742C9.52632 2.38024 9.56895 2.48233 9.68763 2.44358C9.80063 2.40662 9.84605 2.96617 9.73684 3.0505C9.70789 3.07286 9.68379 3.1412 9.68332 3.20237C9.68279 3.26354 9.62358 3.38332 9.55174 3.4685C9.37826 3.67411 9.42395 4.27142 9.62495 4.42665C9.6511 4.44691 9.68832 4.54511 9.70763 4.64496C9.82653 5.26049 9.84774 5.31975 9.94942 5.31975C10.0217 5.31975 10.0526 5.27489 10.0526 5.16998C10.0526 5.00857 10.2933 4.70159 10.5516 4.53373C10.6378 4.47769 10.7635 4.32819 10.8308 4.20157C11.2024 3.50257 11.8738 2.76569 12.012 2.90533C12.1316 3.02622 12.1603 3.19632 12.0758 3.28393C11.9642 3.39976 11.9834 3.76284 12.1121 3.96727C12.2795 4.23314 12.3916 5.03554 12.2888 5.23161C12.2457 5.3137 12.2105 5.42124 12.2105 5.47064C12.2105 5.59673 11.6636 6.46234 11.4986 6.59751C11.1624 6.87278 10.9392 7.59012 11.1711 7.64991C11.6082 7.76272 11.7933 7.7591 11.9346 7.63492C12.1108 7.48021 12.4595 7.31913 12.5023 7.37267C12.5462 7.42746 12.4176 7.69208 12.2761 7.8383C11.9413 8.18395 11.9373 8.2146 12.1883 8.51046C12.3857 8.7431 12.5789 9.15203 12.5789 9.33712C12.5789 9.39691 12.6263 9.52103 12.6841 9.61285C12.7418 9.70468 12.7856 9.84925 12.7812 9.93417C12.7769 10.019 12.8362 10.2568 12.9129 10.4625C13.0667 10.8742 13.0994 11.3722 12.9807 11.4953C12.9412 11.5363 12.8935 11.7101 12.8747 11.8816C12.8404 12.1958 12.7009 12.7361 12.6267 12.843C12.6047 12.8747 12.6001 13.16 12.6165 13.477C12.6443 14.0122 12.6386 14.0586 12.5377 14.126C12.4094 14.2119 12.2632 14.552 12.2632 14.7648C12.2632 14.8475 12.2416 14.9319 12.2152 14.9522C12.187 14.974 12.1912 15.0688 12.2254 15.1818C12.3496 15.5932 12.1149 16.1257 11.911 15.8951C11.8586 15.836 11.6974 15.7381 11.5526 15.6778C11.3979 15.6132 11.2391 15.4892 11.1673 15.377C11.1 15.272 10.9945 15.1861 10.9328 15.1861C10.789 15.1861 10.3188 14.5475 10.3171 14.3497C10.3163 14.264 10.3645 14.1727 10.4342 14.1278C10.8004 13.8918 10.8343 13.7189 10.6173 13.1951C10.5158 12.9499 10.5118 12.9476 10.2669 12.9882C10.1088 13.0144 9.9 12.9911 9.68958 12.9237C9.50826 12.8656 9.35068 12.8182 9.33937 12.8182C9.32805 12.8182 9.29895 12.9143 9.27468 13.0319C9.22495 13.2732 9.06463 13.344 8.86716 13.212C8.59189 13.0279 8.427 13.4234 8.39284 14.3501C8.38 14.6978 8.39789 14.9495 8.44553 15.092C8.50853 15.2805 8.50737 15.3126 8.43663 15.3466C8.31879 15.4031 8.09232 15.0775 8.13437 14.9121C8.16905 14.7755 8.097 14.6759 7.83226 14.4946C7.64658 14.3674 7.54374 14.4252 7.42111 14.7255C7.18884 15.2945 6.92137 15.0364 6.57779 13.9118C6.42553 13.4136 6.10995 12.7134 5.90568 12.4207C5.69363 12.1168 5.40526 11.7658 5.36768 11.7658C5.28189 11.7658 5.27153 11.9641 5.35205 12.0648C5.42958 12.1617 5.42784 12.1811 5.33111 12.302C5.23542 12.4216 5.23211 12.4559 5.29479 12.6753C5.41189 13.0851 5.35995 13.5973 5.18526 13.7545C5.08984 13.8403 4.89474 13.8094 4.89474 13.7084C4.89474 13.6555 4.84774 13.5807 4.79032 13.5423C4.72637 13.4995 4.69068 13.4158 4.69821 13.3262C4.70868 13.202 4.68158 13.1769 4.51868 13.1599L4.32684 13.1399L4.30316 13.4559C4.28416 13.709 4.29879 13.7899 4.37658 13.8621C4.50495 13.9815 4.49911 14.0323 4.34705 14.1189C4.27032 14.1626 4.20642 14.2704 4.18495 14.3925C4.08389 14.9675 3.439 14.8882 2.91758 14.2365C2.77042 14.0526 2.58663 13.8661 2.50921 13.822C2.37021 13.7428 2.299 13.4101 2.42105 13.4101C2.45 13.4101 2.47368 13.2917 2.47368 13.147C2.47368 12.9102 2.46053 12.8839 2.34211 12.8839C2.20921 12.8839 2.16621 12.9735 2.26316 13.0484C2.31705 13.09 2.33858 13.4101 2.28747 13.4101C2.07189 13.4101 0.834579 12.9461 0.515368 12.7455C0.291105 12.6046 0.0833684 12.4893 0.0537895 12.4893C0.0175789 12.4893 0 14.3683 0 18.2446V24H5.77826H11.5565L11.5248 23.6218C11.5068 23.4065 11.4195 23.0453 11.3221 22.7832C11.2279 22.5299 11.1272 22.1647 11.0982 21.9715C11.0072 21.3646 10.58 20.7069 9.90626 20.1363C9.58532 19.8646 9.32163 19.3799 9.38411 19.1765C9.42532 19.0422 9.64837 19.0322 9.73384 19.161C9.76821 19.2127 9.91753 19.2876 10.0656 19.3273C10.2137 19.367 10.3638 19.4294 10.399 19.4659C10.4343 19.5025 10.6135 19.5403 10.7973 19.55C11.1261 19.5673 11.3684 19.6695 11.3684 19.791C11.3684 19.8815 11.658 20.0535 11.8105 20.0535C11.8828 20.0535 12.0058 20.1275 12.0839 20.2179C12.162 20.3083 12.2808 20.3823 12.3479 20.3823C12.5002 20.3823 12.8325 20.7389 12.8743 20.947C12.8975 21.0629 12.9543 21.1134 13.0975 21.1453C13.2031 21.169 13.3335 21.2364 13.3873 21.2951C13.5217 21.442 14.2308 21.4303 14.6941 21.2735C15.3657 21.0462 15.7634 20.2651 15.652 19.392C15.6289 19.2113 15.6557 19.1056 15.7843 18.8695C15.8729 18.7067 15.9459 18.5425 15.9464 18.5047C15.9479 18.3969 16.1041 18.1576 16.4559 17.7237C16.9899 17.0655 17.0281 16.7647 16.5778 16.7647C16.4808 16.7647 16.2768 16.3969 16.3341 16.3253C16.3823 16.2649 16.7616 16.1759 16.9769 16.1743C17.1489 16.173 17.2119 16.1369 17.2989 15.9898C17.4801 15.6835 17.6315 15.2672 17.6322 15.0736C17.634 14.5453 17.8979 13.856 18.1316 13.7693C18.1895 13.7479 18.2823 13.6536 18.3378 13.5597L18.4387 13.389L18.2883 13.2392C17.9059 12.8582 16.7343 12.4371 16.3583 12.5455C16.1416 12.608 16.0778 12.607 16.0428 12.5401C15.9412 12.346 16.16 11.8358 16.4159 11.6704C16.6273 11.5338 16.7154 11.3838 16.6399 11.2894C16.5487 11.1755 16.5652 10.997 16.7077 10.5515C16.8127 10.2236 16.8296 10.0887 16.7992 9.82281C16.7551 9.43743 16.7157 9.41829 16.5919 9.72178C16.4669 10.028 16.3481 10.1124 16.2022 9.99856C16.0013 9.84175 15.7496 10.3741 15.7255 11.0066C15.7129 11.3364 15.6936 11.4042 15.6037 11.4342C15.5449 11.4538 15.4502 11.5234 15.3932 11.589C14.8797 12.1795 14.3732 12.2851 14.6577 11.7424C14.7953 11.48 14.744 11.2228 14.5395 11.1499C14.4327 11.1119 14.3684 11.047 14.3684 10.9771C14.3684 10.9156 14.3211 10.8117 14.2632 10.7462C14.1296 10.5952 14.1307 10.5665 14.2907 9.97094C14.4508 9.37514 14.4139 9.19807 14.0964 9.03929C13.8359 8.90905 13.7952 8.77803 13.9509 8.57084C14.1175 8.34931 14.3608 8.27018 14.513 8.38811C14.7671 8.58505 15.4212 8.6324 15.7388 8.47678C16.399 8.15336 16.5136 7.59848 15.905 7.67155C15.7671 7.68813 15.563 7.67017 15.4515 7.63169C15.2815 7.57302 15.2143 7.58256 15.0351 7.69076C14.8174 7.82225 14.6664 7.77686 14.8136 7.6242C14.8856 7.54948 14.9329 7.16147 14.87 7.16147C14.8039 7.16147 14.4294 7.45765 14.2895 7.62058C14.2026 7.72174 14.0548 7.85283 13.961 7.9119C13.8672 7.97096 13.7491 8.10008 13.6986 8.19881C13.5672 8.45547 13.4689 8.53828 13.2926 8.54065L13.1379 8.54275L13.3035 8.34036C13.5016 8.09837 13.5577 7.91282 13.4718 7.78357C13.3983 7.67287 13.5465 7.48673 13.8158 7.35143C13.9026 7.30775 14.0329 7.20672 14.1053 7.12693C14.2899 6.92323 14.8279 6.56949 14.953 6.56949C15.0438 6.56949 15.0529 6.59948 15.0228 6.7997C14.9831 7.06478 15.0677 7.09332 15.4947 6.95894C15.7997 6.86298 16.0868 7.00367 16.1341 7.27223C16.152 7.37412 16.1744 7.48982 16.1838 7.52941C16.1932 7.56901 16.3459 7.63978 16.5231 7.68681C16.7002 7.73378 16.8577 7.79758 16.8731 7.82863C16.9776 8.03996 17.5558 7.42878 17.6957 6.95914C17.7166 6.88922 17.8409 6.69203 17.9721 6.52101C18.2696 6.13293 18.2883 5.90134 18.0471 5.58601C17.9169 5.41572 17.8898 5.33409 17.9138 5.18412C17.9304 5.08066 17.921 4.97831 17.893 4.95667C17.865 4.93503 17.8421 4.72672 17.8421 4.49368C17.8421 4.09021 17.8361 4.07002 17.7157 4.07002C17.6225 4.07002 17.5747 4.12191 17.5343 4.26715C17.5013 4.38521 17.4201 4.49394 17.3317 4.53807C16.9208 4.74362 16.2203 5.2374 16.0659 5.43032C15.9698 5.55043 15.8565 5.64863 15.8141 5.64863C15.7716 5.64863 15.7368 5.69395 15.7368 5.74933C15.7368 5.80478 15.6954 5.8695 15.6447 5.89325C15.5941 5.91706 15.5211 5.9827 15.4825 6.0392C15.4202 6.13057 15.4158 6.12859 15.4431 6.02144C15.4599 5.95521 15.4737 5.87378 15.4737 5.84056C15.4737 5.80734 15.5006 5.78018 15.5334 5.78018C15.6064 5.78018 15.8421 5.47123 15.8421 5.37566C15.8421 5.33777 15.9783 5.13755 16.1447 4.93062C16.3112 4.72376 16.4947 4.44198 16.5526 4.30457C16.6936 3.96984 16.8707 3.82224 17.0052 3.92728C17.0809 3.98642 17.1956 3.98793 17.4762 3.93353C17.7668 3.87716 17.8644 3.87966 17.9275 3.94517C18.0061 4.02667 18.1019 3.94294 18.1045 3.79047C18.1064 3.67115 18.4149 3.74502 18.4473 3.87256C18.4657 3.94478 18.5443 4.02286 18.6219 4.04607C18.8213 4.10547 18.8947 4.19374 18.8947 4.3739C18.8947 4.63273 19.2447 5.06448 19.4136 5.01396C19.5971 4.95904 19.5974 4.95864 19.5908 4.71133C19.5794 4.27701 20.0008 3.38957 20.1601 3.51257C20.3305 3.64425 20.0938 4.64351 19.8662 4.75263C19.7571 4.80499 19.7713 5.03106 19.8947 5.20464C20.1733 5.59627 20.1653 5.56667 20.0382 5.73137C19.9737 5.81484 19.8559 5.93469 19.7763 5.99763C19.6967 6.06058 19.6316 6.15773 19.6316 6.21351C19.6316 6.26929 19.5013 6.47516 19.3421 6.67098C19.1829 6.86679 19.0526 7.05787 19.0526 7.09562C19.0526 7.24428 19.2955 7.30933 19.5595 7.23139C19.7005 7.18981 19.8504 7.14963 19.8927 7.14219C20.0448 7.11529 20.0038 7.36373 19.8065 7.66471C19.5956 7.98629 19.5756 8.15468 19.7236 8.36187C19.8709 8.56814 20.0742 8.39982 20.4341 7.77357C20.5236 7.61782 20.6342 7.49015 20.68 7.48988C20.7257 7.48969 20.8342 7.43068 20.9211 7.35879C21.0079 7.2869 21.1175 7.2279 21.1646 7.2277C21.2117 7.22744 21.2785 7.18475 21.313 7.13279C21.3475 7.08089 21.4451 7.01932 21.5299 6.99604C21.7197 6.94395 21.7281 6.85015 21.5504 6.76576C21.4187 6.70314 21.4172 6.69439 21.4524 6.20858C21.4808 5.81636 21.4692 5.65284 21.3957 5.41243C21.3339 5.21037 21.3133 5.01903 21.3336 4.83656C21.3503 4.68627 21.3859 4.36798 21.4127 4.12921C21.4396 3.89045 21.4921 3.62406 21.5293 3.53723L21.5971 3.37937L21.662 3.5767C21.6977 3.68523 21.742 4.20321 21.7605 4.72777C21.7789 5.25233 21.8158 5.87391 21.8423 6.10906C21.8688 6.3442 21.9055 6.69196 21.9238 6.88192C21.9422 7.07188 21.9771 7.22724 22.0013 7.22724C22.0869 7.22724 22.2545 6.66151 22.313 6.17483C22.3456 5.90351 22.3951 5.55529 22.4229 5.40105C22.4508 5.24674 22.4749 4.99515 22.4765 4.84196C22.478 4.6887 22.5137 4.34134 22.5558 4.07002C22.598 3.79869 22.6556 3.25111 22.6838 2.85317C22.7121 2.45523 22.7744 1.99934 22.8224 1.84009C22.8913 1.611 22.9028 1.42216 22.8773 0.93601C22.8359 0.149071 22.8877 0.0861243 23.5623 0.104278C23.8084 0.110922 24 0.0889526 24 0.0540258C24 0.0152841 19.9707 -0.0047117 13.2763 0.000945C7.37832 0.00587816 2.70658 0.0332408 2.89474 0.0617874ZM5.66647 1.10966C5.51474 1.43071 5.392 1.4755 5.20442 1.27824C5.01542 1.07947 4.89058 1.06572 4.77132 1.23042C4.62237 1.43604 4.65637 1.7021 4.83158 1.7021C5.11268 1.7021 5.19353 2.00453 4.99616 2.31809L4.88711 2.4914H5.17395C5.49142 2.4914 5.59211 2.57889 5.54321 2.81232C5.50463 2.99689 5.33326 3.08338 5.00642 3.08338H4.75658L4.63916 3.41943C4.52842 3.7364 4.52668 3.76488 4.60842 3.92084C4.676 4.04976 4.68795 4.17486 4.66253 4.4892C4.61953 5.02205 4.73821 5.1882 5.16205 5.1882C5.49337 5.1882 5.78784 5.58187 5.871 6.13603C5.91863 6.45326 5.98389 6.48792 6.14784 6.2831L6.28468 6.11202L6.17579 5.92798C5.98889 5.61199 5.94942 4.52393 6.11884 4.35739C6.189 4.28839 6.27458 4.16625 6.309 4.08587C6.34337 4.00556 6.44779 3.89098 6.54105 3.83132C6.733 3.70838 6.78753 3.62702 6.78868 3.46159C6.79032 3.22822 6.51137 3.32392 6.23884 3.65024C5.90126 4.05449 5.65789 4.09284 5.65789 3.74173C5.65789 3.54861 5.68926 3.48672 5.85537 3.35241C6.03732 3.20533 6.04637 3.18376 5.97068 3.07924C5.89595 2.97604 5.89811 2.94354 5.99416 2.71958C6.06247 2.5602 6.08926 2.4078 6.07 2.28757C6.04905 2.15654 6.08089 2.01519 6.17805 1.808C6.37968 1.37796 6.36195 1.27311 6.05437 1.07835C5.73674 0.877206 5.77795 0.873852 5.66647 1.10966ZM6.90795 1.51845C6.44711 2.71129 6.42153 2.8629 6.69237 2.79522C6.88258 2.74767 7 2.64407 7 2.52383C7 2.47812 7.06026 2.39136 7.134 2.33104C7.33263 2.16838 7.40621 1.92935 7.30221 1.78458C7.25663 1.72111 7.21142 1.58068 7.20179 1.47248C7.17453 1.16741 7.03511 1.18925 6.90795 1.51845ZM4.09163 1.92126C4.03058 2.10977 4.04158 2.26842 4.10974 2.18325C4.14111 2.14404 4.15868 2.04189 4.14874 1.95632C4.13279 1.81938 4.12595 1.81517 4.09163 1.92126ZM20.6742 5.13499C20.6919 5.32574 20.5435 5.48064 20.4062 5.4148C20.3419 5.38395 20.3431 5.34573 20.4141 5.14992C20.5113 4.88195 20.65 4.87399 20.6742 5.13499ZM18.4612 6.212C18.2955 6.32434 18.2149 6.50022 18.0037 7.21053C17.9204 7.49107 17.7918 7.85395 17.7182 8.01694C17.3708 8.78579 17.3543 9.71119 17.6978 9.15861C17.7622 9.05508 17.9006 8.8519 18.0053 8.70719C18.2463 8.37423 18.3942 7.84678 18.3174 7.5944C18.2467 7.36195 18.2434 7.37596 18.3911 7.27868C18.5057 7.2031 18.7895 6.75813 18.7895 6.65394C18.7895 6.63131 18.8307 6.5558 18.8811 6.48615C19.0585 6.2412 18.7323 6.02822 18.4612 6.212ZM18.9268 7.78594C18.8448 7.86362 18.8331 7.93275 18.8601 8.17908C18.9352 8.86446 19.2105 8.96871 19.2105 8.31175C19.2105 7.87335 19.0834 7.63775 18.9268 7.78594ZM14.7105 7.95077C14.6926 7.98695 14.6557 8.01655 14.6285 8.01655C14.6012 8.01655 14.5789 7.98695 14.5789 7.95077C14.5789 7.9146 14.6159 7.885 14.661 7.885C14.7061 7.885 14.7284 7.9146 14.7105 7.95077ZM19.2182 9.6093C19.2139 9.67133 19.1651 9.75249 19.1095 9.78966C18.9894 9.86997 18.8774 10.2515 18.9267 10.4122C18.9459 10.4747 18.9312 10.6412 18.8939 10.7822C18.8426 10.9766 18.8392 11.1465 18.8797 11.4844C18.9526 12.0915 18.8977 12.8899 18.7724 13.0463C18.5596 13.3121 18.9542 13.3216 19.1814 13.0562C19.4863 12.7 19.5324 12.2547 19.3696 11.2395C19.3377 11.0406 19.2923 10.567 19.2687 10.1871C19.2451 9.80729 19.2223 9.54727 19.2182 9.6093ZM4.92105 12.4235C4.90316 12.4597 4.91363 12.4893 4.94426 12.4893C4.97489 12.4893 5 12.4597 5 12.4235C5 12.3873 4.98958 12.3577 4.97679 12.3577C4.964 12.3577 4.93895 12.3873 4.92105 12.4235ZM14.6604 13.2736C14.6438 13.3071 14.6655 13.344 14.7085 13.3558C14.8484 13.3942 14.7103 13.547 14.5217 13.5627C14.4229 13.571 14.3123 13.6012 14.2758 13.6297C14.1901 13.6971 14 13.6216 14 13.5202C14 13.4188 14.1997 13.2625 14.2649 13.3128C14.2924 13.3341 14.3566 13.3212 14.4075 13.2842C14.5236 13.1997 14.7006 13.1923 14.6604 13.2736ZM4.52632 13.8048C4.52632 13.841 4.50263 13.8706 4.47368 13.8706C4.44474 13.8706 4.42105 13.841 4.42105 13.8048C4.42105 13.7686 4.44474 13.739 4.47368 13.739C4.50263 13.739 4.52632 13.7686 4.52632 13.8048ZM15.7895 14.5927C15.8449 14.6366 15.8652 14.7512 15.8576 14.9778C15.8514 15.1642 15.8766 15.3514 15.9172 15.4209C15.9777 15.5242 15.9722 15.5672 15.8786 15.7254C15.7413 15.9576 15.3912 15.9762 14.8947 15.7781C14.7135 15.7057 14.5209 15.6465 14.4668 15.6465C14.3299 15.6465 14.344 15.538 14.4974 15.4124C14.5683 15.3543 14.6741 15.2057 14.7324 15.082C14.7908 14.9584 14.8789 14.8572 14.9283 14.8572C14.9776 14.8572 15.0621 14.8073 15.116 14.7464C15.1699 14.6855 15.2993 14.6272 15.4036 14.6169C15.5078 14.6067 15.6057 14.5825 15.6212 14.5633C15.6604 14.5142 15.6986 14.5209 15.7895 14.5927ZM5 15.0178C5 15.0872 4.899 15.1164 4.86895 15.0556C4.85079 15.0188 4.87284 14.9888 4.91795 14.9888C4.96305 14.9888 5 15.0018 5 15.0178ZM14.3024 16.3005C14.4831 16.3332 14.6684 16.4066 14.714 16.4636C14.7596 16.5207 14.8489 16.5674 14.9124 16.5674C14.9759 16.5674 15.1163 16.6266 15.2243 16.6989C15.3323 16.7713 15.4741 16.8309 15.5393 16.8315C15.6045 16.832 15.6927 16.8601 15.7354 16.8937C15.862 16.9938 15.6725 17.0484 15.3271 17.0115C15.0866 16.9858 14.9974 17.0048 14.8822 17.1062C14.6968 17.2693 14.0291 17.3723 13.8421 17.2666C13.5009 17.0738 13.4781 16.4698 13.8057 16.3049C13.9526 16.2309 13.919 16.2313 14.3024 16.3005ZM11.5263 16.4304C11.5263 16.6543 11.4715 16.7517 11.365 16.7169C11.2405 16.6762 11.24 16.6648 11.3553 16.4667C11.4672 16.2744 11.5263 16.2618 11.5263 16.4304ZM8.44274 16.5414C8.54989 16.5928 8.49768 16.6989 8.36532 16.6989C8.26316 16.6989 8.23216 16.628 8.29826 16.5455C8.34095 16.4921 8.34 16.4921 8.44274 16.5414ZM15.0278 18.7395C15.081 18.7947 15.1053 18.9497 15.1053 19.2346C15.1053 19.6832 14.9722 19.9192 14.7166 19.924C14.6554 19.9251 14.5603 19.9686 14.5054 20.0206C14.4505 20.0725 14.3873 20.101 14.365 20.0837C14.3427 20.0665 14.1449 20.0481 13.9254 20.0429C13.7059 20.0377 13.5263 20.0068 13.5263 19.9743C13.5263 19.9417 13.4567 19.8848 13.3716 19.8477C13.1259 19.7406 13.2935 19.3847 13.7895 18.9601C14.2342 18.5794 14.7797 18.4822 15.0278 18.7395Z" fill="black"/>
</svg>
