<svg width="24" height="24" viewBox="0 0 24 24" fill="none" xmlns="http://www.w3.org/2000/svg">
<path fill-rule="evenodd" clip-rule="evenodd" d="M0 23.8786V22.7416V10.545V0H8H12H22H24V1.02878V11.7712V21.2847V22.8011V23.8V23.8717V24H22H12C10.6339 23.9998 9.26986 23.9959 8 23.9882V24H0V23.8786ZM14.7692 5.08853C14.7692 4.74406 13.6955 3.25781 13.4466 3.25781C13.3241 3.25781 13.0422 3.09938 12.8201 2.90562C12.4782 2.60711 12.3999 2.59322 12.3085 2.81441C12.2492 2.95809 11.9062 3.18974 11.5466 3.32931C11.1868 3.46905 10.8923 3.66075 10.8923 3.7554C10.8923 4.04089 11.3103 4.80099 11.4674 4.80099C11.5481 4.80099 11.8254 4.99731 12.0838 5.23736C12.4776 5.60309 12.6661 5.6571 13.2462 5.57051C14.5601 5.37419 14.7692 5.308 14.7692 5.08853ZM13.8037 7.83041C13.8312 7.76542 13.7352 7.50085 13.5905 7.24263C12.6785 5.61441 11.9282 5.81965 12.0593 7.66117C12.1608 9.08724 12.2921 9.41713 12.717 9.31391C12.8954 9.2707 13.1599 9.3693 13.3052 9.53321C13.5487 9.80824 13.5227 9.82265 12.9692 9.72097C12.4547 9.62632 12.3692 9.65873 12.3692 9.94919C12.3692 10.1354 12.4497 10.2878 12.5481 10.2878C12.6463 10.2878 12.6827 10.3948 12.6286 10.5255C12.526 10.7743 14.0236 11.831 14.479 11.831C14.6138 11.831 14.8274 11.9467 14.9538 12.0882C15.1407 12.2974 15.132 12.3454 14.9068 12.3454C14.7543 12.3454 14.3315 12.2297 13.9669 12.0882C13.6025 11.9467 13.2185 11.831 13.1136 11.831C12.7791 11.831 12.9094 12.2027 13.2753 12.2916C14.0991 12.4916 13.9161 13.374 13.0506 13.3747C12.4763 13.3752 12.4614 13.3947 12.4567 14.1463C12.454 14.5703 12.5208 14.9173 12.605 14.9173C12.6892 14.9173 13.0388 15.1253 13.3817 15.3794C14.0856 15.901 15.5088 15.9604 16.452 15.5074C16.9246 15.2803 16.9425 15.2869 16.8404 15.6505C16.6226 16.4254 15.312 17.3178 14.3917 17.3178C13.5792 17.3178 12.6148 17.6081 12.5007 17.8871C12.3225 18.3231 12.6017 19.1698 12.987 19.3624C13.3338 19.5357 14.9502 21.8517 15.1012 22.392C15.1316 22.5003 14.9862 22.6301 14.7781 22.6807C14.2074 22.8193 14.3201 23.2613 14.9561 23.3794C17.5868 23.8681 23.0754 23.5811 21.4935 23.0377C18.6921 22.0753 18.2293 21.745 17.7524 20.3684C17.3134 19.1014 17.1663 14.5406 17.5351 13.6394L17.7164 13.1965L18.089 13.5426C18.7634 14.1689 19.2908 13.6984 19.6455 12.1539C19.7487 11.705 18.8287 10.545 18.3696 10.545C18.2679 10.545 18.1588 10.2556 18.1274 9.90203C18.0423 8.94852 16.692 8.00496 15.6116 8.14384C14.8486 8.24192 13.713 8.04508 13.8037 7.83041Z" fill="black"/>
</svg>
