<svg width="24" height="24" viewBox="0 0 24 24" fill="none" xmlns="http://www.w3.org/2000/svg">
<path fill-rule="evenodd" clip-rule="evenodd" d="M12 2C12.5523 2 13 2.44772 13 3V5C13 5.55228 12.5523 6 12 6C11.4477 6 11 5.55228 11 5V3C11 2.44772 11.4477 2 12 2ZM12 15C13.6569 15 15 13.6569 15 12C15 10.3431 13.6569 9 12 9C10.3431 9 9 10.3431 9 12C9 13.6569 10.3431 15 12 15ZM12 17C14.7614 17 17 14.7614 17 12C17 9.23858 14.7614 7 12 7C9.23858 7 7 9.23858 7 12C7 14.7614 9.23858 17 12 17ZM13 19C13 18.4477 12.5523 18 12 18C11.4477 18 11 18.4477 11 19V21C11 21.5523 11.4477 22 12 22C12.5523 22 13 21.5523 13 21V19ZM17.7071 16.2929L19.1213 17.7071C19.5118 18.0976 19.5118 18.7308 19.1213 19.1213C18.7308 19.5118 18.0976 19.5118 17.7071 19.1213L16.2929 17.7071C15.9024 17.3166 15.9024 16.6834 16.2929 16.2929C16.6834 15.9024 17.3166 15.9024 17.7071 16.2929ZM19.2071 6.20711C19.5976 5.81658 19.5976 5.18342 19.2071 4.79289C18.8166 4.40237 18.1834 4.40237 17.7929 4.79289L16.2929 6.29289C15.9024 6.68342 15.9024 7.31658 16.2929 7.70711C16.6834 8.09763 17.3166 8.09763 17.7071 7.70711L19.2071 6.20711ZM4.79289 4.79289C5.18342 4.40237 5.81658 4.40237 6.20711 4.79289L7.70711 6.29289C8.09763 6.68342 8.09763 7.31658 7.70711 7.70711C7.31658 8.09763 6.68342 8.09763 6.29289 7.70711L4.79289 6.20711C4.40237 5.81658 4.40237 5.18342 4.79289 4.79289ZM19 11C18.4477 11 18 11.4477 18 12C18 12.5523 18.4477 13 19 13H21C21.5523 13 22 12.5523 22 12C22 11.4477 21.5523 11 21 11H19ZM2 12C2 11.4477 2.44772 11 3 11H5C5.55228 11 6 11.4477 6 12C6 12.5523 5.55228 13 5 13H3C2.44772 13 2 12.5523 2 12ZM7.70711 17.7071C8.09763 17.3166 8.09763 16.6834 7.70711 16.2929C7.31658 15.9024 6.68342 15.9024 6.29289 16.2929L4.79289 17.7929C4.40237 18.1834 4.40237 18.8166 4.79289 19.2071C5.18342 19.5976 5.81658 19.5976 6.20711 19.2071L7.70711 17.7071Z" fill="black"/>
</svg>
