<svg width="24" height="24" viewBox="0 0 24 24" fill="none" xmlns="http://www.w3.org/2000/svg">
<path fill-rule="evenodd" clip-rule="evenodd" d="M0 24V0.5V0H3H4.96745H22H24V0.5V0.969528V21.9434V22.9717V24H22H12.0013H3H0.00260925H0ZM14.8963 0.5H10.5662C11.2961 0.948318 11.7842 2.2939 11.1934 2.7323C11.0301 2.85353 10.9468 3.06918 11.0045 3.22182C11.0712 3.39794 10.9887 3.52623 10.772 3.58376C10.1118 3.759 10.4013 4.18253 11.2623 4.30112C12.9443 4.533 14.7671 5.35571 14.1296 5.59535C13.6742 5.76653 13.543 6.32453 13.8268 6.88182C13.976 7.17441 14.1256 7.74512 14.1595 8.14994C14.2162 8.82829 14.452 9.17506 15.0257 9.42371C15.147 9.4763 15.1057 9.60018 14.914 9.75829C14.7466 9.89647 14.6097 10.2071 14.6097 10.4485C14.6097 10.8152 14.5238 10.89 14.088 10.9025C13.6472 10.9152 13.5663 10.851 13.5663 10.4882C13.5663 9.96706 13.4865 9.95612 13.0043 10.4119C12.7212 10.6796 12.5972 10.7118 12.4926 10.5443C12.3889 10.3788 12.3545 10.3897 12.3545 10.5882C12.3545 11.0044 12.6315 11.3679 12.7724 11.1365C12.9273 10.8821 13.5116 10.8849 13.6674 11.1409C13.7343 11.2507 13.659 11.4145 13.5001 11.5046C13.0711 11.7484 13.3307 12 14.0114 12C14.6598 12 14.7902 11.7713 14.3054 11.4847C13.9054 11.2482 14.0807 11.2484 14.7494 11.4849C15.0702 11.5984 15.3778 11.8802 15.5087 12.1802C16.1885 13.7388 16.6081 12.7002 16.9721 8.55882C17.1138 6.94553 16.6166 6.27988 15.6392 6.77471C14.9679 7.11459 14.6097 6.91129 14.6097 6.19024C14.6097 5.45365 14.8631 5.32712 16.1301 5.43035C17.1908 5.51665 17.2663 5.49953 17.1522 5.19794C17.0844 5.01883 16.9069 4.47088 16.7573 3.98029C16.1474 1.97863 15.7179 1.13659 14.8963 0.5ZM14.6076 12.6189C14.5264 12.6699 14.4108 12.6309 14.3506 12.5322C14.2364 12.3446 14.0581 12.3346 13.4803 12.4828C13.1982 12.5554 13.2471 12.6092 13.7411 12.7712C14.3517 12.9715 14.4393 13.3357 13.8707 13.3096C13.7032 13.3018 13.5663 13.401 13.5663 13.5302C13.5663 13.8976 13.1963 13.8048 13.0951 13.4118C12.9883 12.9974 12.6969 12.9369 12.6969 13.329C12.6969 13.4778 12.8191 13.6468 12.9685 13.7051C13.1431 13.773 13.2222 13.9837 13.1899 14.2952C13.1624 14.5615 13.2375 14.8987 13.3568 15.0446C13.5363 15.264 13.5131 15.3259 13.2224 15.4031C12.792 15.5172 12.6315 15.2882 12.7647 14.7496C12.8346 14.4674 12.733 14.1865 12.4336 13.8332C12.1961 13.5528 12.0016 13.2639 12.0015 13.1912C12.0015 13.1185 11.8604 13.0588 11.6883 13.0588C11.5161 13.0588 11.2882 12.9704 11.1817 12.8624C11.0753 12.7544 10.9079 12.7165 10.8094 12.7782C10.599 12.9102 11.0692 14.0794 11.5148 14.5315C11.6742 14.6933 11.8542 14.9839 11.9147 15.1775C11.9752 15.3711 12.1173 15.5319 12.2303 15.5349C12.3435 15.5381 12.5703 15.7279 12.7344 15.9572C13.0207 16.3571 13.0182 16.3775 12.6734 16.4691C12.4759 16.5215 12.3635 16.6458 12.424 16.7451C12.4846 16.8445 12.6383 16.8852 12.7656 16.8356C13.1546 16.6841 13.3001 18.1456 12.9365 18.5531C12.6798 18.8409 12.7134 18.9464 13.0518 18.9155C13.1036 18.9108 13.1146 19.1794 13.0763 19.5124C12.988 20.2802 13.0547 20.2717 13.8966 19.4089C14.5262 18.7634 14.741 18.4076 14.8006 17.9118C14.8123 17.8147 14.9751 17.517 15.1624 17.2502C15.3667 16.9588 15.4599 16.6283 15.3957 16.4229C15.3369 16.2348 15.3655 15.9369 15.4594 15.7611C15.992 14.7625 16.0569 13.3334 15.5606 13.5266C15.4044 13.5874 15.3053 13.5208 15.3053 13.3549C15.3053 13.0182 14.8078 12.4934 14.6076 12.6189Z" fill="black"/>
</svg>
