<svg width="24" height="24" viewBox="0 0 24 24" fill="none" xmlns="http://www.w3.org/2000/svg">
<path fill-rule="evenodd" clip-rule="evenodd" d="M12.8944 5.02493C12.5259 4.28787 11.4741 4.28788 11.1056 5.02492L4.34164 18.5528C4.00919 19.2177 4.49269 20 5.23607 20H18.7639C19.5073 20 19.9908 19.2177 19.6584 18.5528L12.8944 5.02493ZM9.31672 4.13049C10.4223 1.91935 13.5777 1.91936 14.6833 4.1305L21.4472 17.6584C22.4446 19.6531 20.9941 22 18.7639 22H5.23607C3.00592 22 1.55544 19.6531 2.55279 17.6584L9.31672 4.13049ZM11 17C11 16.4477 11.4477 16 12 16C12.5523 16 13 16.4477 13 17C13 17.5523 12.5523 18 12 18C11.4477 18 11 17.5523 11 17ZM12 9C11.4477 9 11 9.44772 11 10V14C11 14.5523 11.4477 15 12 15C12.5523 15 13 14.5523 13 14V10C13 9.44772 12.5523 9 12 9Z" fill="black"/>
</svg>
