<svg width="24" height="24" viewBox="0 0 24 24" fill="none" xmlns="http://www.w3.org/2000/svg">
<path d="M9 6C9 5.44772 8.55228 5 8 5C7.44772 5 7 5.44772 7 6H9ZM17 6C17 5.44772 16.5523 5 16 5C15.4477 5 15 5.44772 15 6H17ZM8 17C7.44772 17 7 17.4477 7 18C7 18.5523 7.44772 19 8 19V17ZM16 19C16.5523 19 17 18.5523 17 18C17 17.4477 16.5523 17 16 17V19ZM7 6V9.58475H9V6H7ZM15 6V9.00409H17V6H15ZM8.35716 13.8754C10.1747 15.6743 12.8902 15.752 14.9514 14.257L13.7771 12.638C12.4342 13.6121 10.8222 13.5012 9.76406 12.4539L8.35716 13.8754ZM8 19H16V17H8V19ZM15 9.00409C15 10.6479 14.6913 11.9749 13.7771 12.638L14.9514 14.257C16.73 12.9669 17 10.6869 17 9.00409H15ZM7 9.58475C7 10.8732 7.11993 12.6508 8.35716 13.8754L9.76406 12.4539C9.16718 11.8631 9 10.8769 9 9.58475H7Z" fill="black"/>
</svg>
