<svg width="24" height="24" viewBox="0 0 24 24" fill="none" xmlns="http://www.w3.org/2000/svg">
<path d="M16 7C16.5523 7 17 6.55228 17 6C17 5.44772 16.5523 5 16 5V7ZM8 17C7.44772 17 7 17.4477 7 18C7 18.5523 7.44772 19 8 19V17ZM11 5C10.4477 5 10 5.44772 10 6C10 6.55228 10.4477 7 11 7V5ZM13 19C13.5523 19 14 18.5523 14 18C14 17.4477 13.5523 17 13 17V19ZM8 19H10V17H8V19ZM14 7H16V5H14V7ZM10 19H11V17H10V19ZM12 7H13V5H12V7ZM13 7H14V5H13V7ZM11 7H12V5H11V7ZM13 17H11V19H13V17ZM10.9487 18.3162L14.9487 6.31623L13.0513 5.68377L9.05132 17.6838L10.9487 18.3162Z" fill="black"/>
</svg>
