<svg width="24" height="24" viewBox="0 0 24 24" fill="none" xmlns="http://www.w3.org/2000/svg">
<path fill-rule="evenodd" clip-rule="evenodd" d="M9 6C9 5.44772 8.55228 5 8 5C7.44772 5 7 5.44772 7 6V12V18C7 18.5523 7.44772 19 8 19C8.55228 19 9 18.5523 9 18V13H15V13.5C15 14.0523 15.4477 14.5 16 14.5C16.5523 14.5 17 14.0523 17 13.5V12V6C17 5.44772 16.5523 5 16 5C15.4477 5 15 5.44772 15 6V11H9V6ZM14 16C13.4477 16 13 16.4477 13 17C13 17.5523 13.4477 18 14 18H15.2338L13.1425 21.4855C12.9571 21.7944 12.9523 22.1792 13.1298 22.4927C13.3073 22.8062 13.6397 23 14 23H17C17.5523 23 18 22.5523 18 22C18 21.4477 17.5523 21 17 21H15.7662L17.8575 17.5145C18.0429 17.2056 18.0477 16.8208 17.8702 16.5073C17.6927 16.1938 17.3603 16 17 16H14Z" fill="black"/>
</svg>
