<svg width="24" height="24" viewBox="0 0 24 24" fill="none" xmlns="http://www.w3.org/2000/svg">
<path fill-rule="evenodd" clip-rule="evenodd" d="M6 5C7.10457 5 8 4.10457 8 3C8 1.89543 7.10457 1 6 1C4.89543 1 4 1.89543 4 3C4 4.10457 4.89543 5 6 5ZM11 1.5C10.1716 1.5 9.5 2.17157 9.5 3C9.5 3.82843 10.1716 4.5 11 4.5H19.5C20.3284 4.5 21 3.82843 21 3C21 2.17157 20.3284 1.5 19.5 1.5H11ZM11 10.5C10.1716 10.5 9.5 11.1716 9.5 12C9.5 12.8284 10.1716 13.5 11 13.5H19.5C20.3284 13.5 21 12.8284 21 12C21 11.1716 20.3284 10.5 19.5 10.5H11ZM11 19.5C10.1716 19.5 9.5 20.1716 9.5 21C9.5 21.8284 10.1716 22.5 11 22.5H19.5C20.3284 22.5 21 21.8284 21 21C21 20.1716 20.3284 19.5 19.5 19.5H11ZM8 12C8 13.1046 7.10457 14 6 14C4.89543 14 4 13.1046 4 12C4 10.8954 4.89543 10 6 10C7.10457 10 8 10.8954 8 12ZM6 23C7.10457 23 8 22.1046 8 21C8 19.8954 7.10457 19 6 19C4.89543 19 4 19.8954 4 21C4 22.1046 4.89543 23 6 23Z" fill="black"/>
</svg>
