<svg width="24" height="24" viewBox="0 0 24 24" fill="none" xmlns="http://www.w3.org/2000/svg">
<path fill-rule="evenodd" clip-rule="evenodd" d="M14.9042 0.197305C14.9212 0.305871 14.9793 0.435296 15.0333 0.484996C15.1071 0.552876 15.1246 0.61818 15.1039 0.747863C15.0853 0.864669 15.1107 0.992446 15.1826 1.14345C15.3153 1.42244 15.284 1.55197 15.0063 1.87133C14.8631 2.03598 14.7577 2.11159 14.6714 2.11159C14.4994 2.11159 14.2571 2.35808 14.335 2.45361C14.3665 2.49214 14.4455 2.52361 14.5107 2.52361C14.576 2.52361 14.6516 2.56589 14.6788 2.61755C14.706 2.6692 14.818 2.73883 14.9277 2.77231C15.0375 2.80573 15.1555 2.86774 15.1901 2.91013C15.2246 2.95246 15.2795 2.98712 15.3121 2.98712C15.3447 2.98712 15.4729 3.09291 15.5971 3.22218C15.814 3.44817 15.819 3.46012 15.7245 3.53119C15.6704 3.57188 15.6064 3.60515 15.5823 3.60515C15.5581 3.60515 15.5524 3.62833 15.5696 3.65665C15.5868 3.68498 15.6394 3.70857 15.6865 3.70903C15.8033 3.71021 16.2032 4.10029 16.4273 4.43171C16.5286 4.58143 16.6505 4.733 16.6981 4.76843C16.8676 4.89451 16.8187 5.47669 16.6233 5.65818C16.4694 5.8012 16.4632 5.8217 16.491 6.09569C16.5188 6.36968 16.5127 6.38987 16.3614 6.52496C16.2526 6.62209 16.2025 6.7133 16.2025 6.81466C16.2025 7.11379 16.0308 7.26381 15.7053 7.24908C15.425 7.23636 15.4181 7.2393 15.4345 7.36481C15.4437 7.43562 15.4581 7.69524 15.4665 7.94179C15.4776 8.27047 15.5035 8.41221 15.5636 8.47334C15.6847 8.59648 15.6653 8.64922 15.4684 8.73291C15.3444 8.78565 15.2911 8.84122 15.2911 8.91811C15.2911 9.02833 15.5746 9.42876 15.7639 9.58609C15.8243 9.63626 15.8769 9.76069 15.8945 9.89511C15.9182 10.0758 15.944 10.1202 16.0253 10.1202C16.1612 10.1202 16.1687 9.65387 16.0344 9.55401C15.8348 9.40558 15.99 9.04336 16.3445 8.8304C16.4335 8.77689 16.5063 8.71422 16.5063 8.69104C16.5063 8.633 16.8464 8.29185 16.9043 8.29185C16.9818 8.29185 17.0285 8.13239 17.0703 7.72532C17.0921 7.51288 17.1241 7.24635 17.1414 7.13305C17.1684 6.95573 17.1545 6.90963 17.0421 6.8022C16.8857 6.65274 16.8406 5.62898 16.9817 5.4326C17.0603 5.32326 17.0364 5.20172 16.9362 5.20172C16.8457 5.20172 16.8154 4.71621 16.8987 4.60043C16.9335 4.55207 16.962 4.45087 16.962 4.37552C16.962 4.11492 17.0629 3.91416 17.1938 3.91416C17.4337 3.91416 17.6285 4.58271 17.4434 4.7709C17.3788 4.83667 17.3777 4.86778 17.4363 4.98613C17.5654 5.24714 17.5759 5.50367 17.4601 5.56671C17.3255 5.64 17.3653 5.98774 17.551 6.36052C17.7463 6.75255 17.8959 7.52652 17.7917 7.60584C17.7344 7.64941 17.7063 7.78033 17.6923 8.06936C17.6814 8.29087 17.6353 8.70906 17.5898 8.99866C17.5071 9.52409 17.5233 10.0592 17.6238 10.1224C17.6497 10.1387 17.6709 10.2183 17.6709 10.2995C17.6709 10.4078 17.7247 10.4937 17.8734 10.6232C18.1062 10.8259 18.1334 10.9899 17.9824 11.2797C17.931 11.3785 17.8747 11.5188 17.8572 11.5916C17.8124 11.7781 17.4963 12.0928 17.3024 12.1436C17.1504 12.1835 17.1374 12.2046 17.1128 12.4505C17.0983 12.5958 17.0728 12.7286 17.0561 12.7455C16.9944 12.8083 16.7644 12.6514 16.7053 12.5063C16.6397 12.3452 16.466 12.1935 16.3968 12.237C16.3252 12.2819 16.3495 12.4545 16.4557 12.6561C16.5794 12.8909 16.5808 12.9697 16.4641 13.1242C16.3828 13.2316 16.3665 13.2356 16.3071 13.1628C16.2706 13.1181 16.1709 13.0815 16.0856 13.0815H15.9304L16.0706 13.2303C16.1476 13.3122 16.2602 13.382 16.3206 13.3855C16.381 13.389 16.5482 13.3974 16.6921 13.4041C16.8836 13.413 16.9868 13.4478 17.0767 13.5336C17.2159 13.6668 17.3997 13.6427 17.3352 13.4998C17.3145 13.4539 17.2962 13.3236 17.2944 13.2103C17.2912 13.0116 17.2974 13.0037 17.4684 12.9877C17.6467 12.971 17.9241 12.7599 17.9241 12.6407C17.9241 12.5715 18.0947 12.1464 18.2052 11.9406C18.2455 11.8654 18.2785 11.7491 18.2785 11.6823C18.2785 11.6154 18.3241 11.4742 18.3797 11.3685C18.4354 11.2628 18.481 11.129 18.481 11.0711C18.481 11.0132 18.5235 10.8799 18.5754 10.7748C18.6273 10.6697 18.6859 10.4938 18.7056 10.3839C18.7855 9.9361 19.0704 9.67128 19.2622 9.86632C19.3504 9.95603 19.3705 10.2763 19.2911 10.3262C19.2633 10.3437 19.2405 10.4277 19.2405 10.5129C19.2405 10.598 19.2187 10.709 19.1922 10.7596C19.1502 10.8395 19.0706 11.1136 18.8772 11.8455C18.6597 12.6682 18.6709 12.8929 18.9319 12.9436C19.4083 13.0363 19.6037 12.8063 19.9062 11.7973C19.9354 11.7001 19.9887 11.5726 20.0246 11.5141C20.0605 11.4556 20.1045 11.3232 20.1222 11.2197C20.1401 11.1164 20.1882 11.0035 20.2292 10.9688C20.2702 10.9342 20.3043 10.8334 20.3048 10.7448C20.3064 10.4632 20.5756 10.0944 20.7795 10.0944C20.9926 10.0944 21.0107 10.1393 21.0074 10.6587C21.0056 10.937 20.9829 11.0855 20.936 11.125C20.8982 11.157 20.8516 11.2568 20.8326 11.3469C20.8135 11.437 20.7624 11.5803 20.7191 11.6652C20.6757 11.7502 20.6239 11.9124 20.604 12.0258C20.5841 12.1391 20.5438 12.3013 20.5145 12.3863C20.2665 13.1044 20.1629 13.4936 20.2197 13.4936C20.3349 13.4936 20.5142 13.343 20.6616 13.1225C20.7572 12.9794 20.881 12.7988 20.9367 12.7211C20.9924 12.6434 21.1321 12.4435 21.247 12.277C21.5268 11.8717 21.6316 11.7827 21.8052 11.803C22.0053 11.8264 22.0113 11.9538 21.8266 12.2591C21.741 12.4007 21.6709 12.5648 21.6709 12.6237C21.6709 12.7763 21.2358 13.4159 21.0843 13.4862C20.9888 13.5304 20.9682 13.5655 21.0018 13.6265C21.0315 13.6805 21.0138 13.7752 20.9492 13.9081C20.8707 14.0693 20.8617 14.141 20.9027 14.2773C20.9964 14.5885 21.0124 16.0157 20.9248 16.2385C20.8202 16.5044 21.0311 17.5883 21.226 17.7866C21.2736 17.835 21.3273 17.9547 21.3454 18.0528C21.4188 18.4513 21.2114 18.5004 21.0926 18.1126C21.0432 17.9513 20.962 18.0734 20.962 18.3091C20.962 18.4731 20.9355 18.5538 20.8652 18.6039C20.8119 18.6419 20.7607 18.7417 20.7512 18.8257C20.7375 18.9489 20.7071 18.9817 20.5949 18.9948C20.4131 19.0161 20.4171 19.1224 20.6073 19.329C20.6908 19.4195 20.7591 19.531 20.7592 19.5767C20.7594 19.6225 20.8076 19.7221 20.8664 19.7981C20.9693 19.9313 20.9699 19.9401 20.8827 20.0381C20.7948 20.1369 20.7977 20.1458 20.9783 20.334C21.0808 20.4406 21.1646 20.5784 21.1646 20.64C21.1646 20.7042 21.2691 20.8618 21.4093 21.009L21.654 21.266L22.0043 21.2092C22.2885 21.1631 22.3815 21.1231 22.4983 20.9971C22.6475 20.8359 22.7315 20.8639 22.7334 21.0755C22.7344 21.1953 22.8382 21.2437 23.369 21.3719C23.6186 21.4323 23.8626 21.4936 23.9114 21.5082C23.9926 21.5326 24 21.638 24 22.7674V24H16.9114C11.5284 24 9.82278 23.9855 9.82278 23.9397C9.82278 23.9065 9.86066 23.8368 9.90689 23.7848C9.95316 23.7328 10.0158 23.6456 10.0461 23.5909C10.2822 23.1655 10.4732 22.8551 10.6419 22.6228L10.8394 22.3509L10.7108 22.3012C10.5512 22.2395 10.551 22.2072 10.7089 21.9706C10.7924 21.8454 10.8354 21.7098 10.8354 21.572C10.8354 21.4572 10.8678 21.2902 10.9074 21.2009C10.9799 21.0375 11.0128 20.8644 11.07 20.3433C11.0991 20.079 11.2118 19.8798 11.3324 19.8798C11.3574 19.8798 11.3933 20.0688 11.4123 20.2997C11.4563 20.8364 11.5035 20.9335 11.6145 20.7152C11.6594 20.6268 11.6962 20.5121 11.6962 20.4604C11.6962 20.4086 11.7309 20.3158 11.7734 20.2541C11.859 20.1298 11.8729 19.5001 11.8082 18.6695L11.7722 18.206L11.5516 18.1899C11.3396 18.1744 11.3326 18.1685 11.3669 18.0354C11.3866 17.9593 11.4036 17.7116 11.4048 17.485C11.4089 16.6398 11.4063 16.6254 11.2149 16.4134C11.0139 16.1908 10.9991 16.0745 11.1215 15.6796C11.27 15.2003 11.0852 15.1202 10.7816 15.5323C10.6895 15.6573 10.5969 15.7597 10.5759 15.7597C10.5549 15.7597 10.5307 15.8466 10.522 15.9528C10.5071 16.1361 10.4974 16.1459 10.3291 16.1459C10.1791 16.1459 10.1549 16.1301 10.1714 16.0429C10.1822 15.9863 10.1889 15.8403 10.1863 15.7186C10.1831 15.5688 10.2055 15.4879 10.2553 15.4684C10.3805 15.4196 10.3369 15.3476 10.1822 15.3476C10.0677 15.3476 10.012 15.3075 9.92982 15.1658L9.8243 14.9839L9.99423 14.7953C10.1636 14.6073 10.1643 14.6071 10.2022 14.7286C10.2301 14.8179 10.2158 14.8687 10.1492 14.9183C10.0064 15.0245 10.0943 15.0513 10.3426 14.9774C10.7672 14.851 11.0999 14.262 10.8608 14.0601C10.819 14.0248 10.7848 13.9279 10.7848 13.8448C10.7848 13.757 10.7635 13.7069 10.7342 13.7253C10.7063 13.7428 10.6835 13.8149 10.6835 13.8854C10.6835 14.1556 10.4674 14.4243 10.3981 14.2403C10.382 14.1979 10.3414 14.1631 10.3078 14.1631C10.1551 14.1631 9.97468 13.8774 9.97468 13.6354C9.97468 13.5041 9.9519 13.3823 9.92405 13.3648C9.89448 13.3462 9.87342 13.3992 9.87342 13.4921C9.87342 13.5861 9.84233 13.6635 9.79747 13.6809C9.70339 13.7176 9.69747 13.8026 9.78896 13.8026C9.92152 13.8026 9.97129 14.1307 9.86192 14.2835C9.8079 14.3589 9.73894 14.4206 9.70861 14.4206C9.67833 14.4206 9.61235 14.4585 9.56203 14.5049C9.46268 14.5963 9.47549 14.6086 9.39397 14.3433C9.38096 14.3009 9.33428 14.2661 9.29028 14.2661C9.20218 14.2661 8.96618 14.018 8.96365 13.9227C8.96167 13.8482 9.24076 13.6734 9.43666 13.6263C9.57549 13.593 9.58101 13.5807 9.55666 13.3607C9.53605 13.1747 9.54866 13.1205 9.62192 13.0807C9.67185 13.0535 9.7524 12.9255 9.80091 12.7962C9.91134 12.5022 10.1385 12.4717 10.169 12.7468C10.2136 13.1485 10.4401 13.1373 10.4271 12.7339C10.4219 12.5711 10.4342 12.3653 10.4544 12.2766C10.4995 12.079 10.4781 12.0637 9.97823 11.9362C9.45954 11.804 9.08608 11.746 8.96299 11.7788C8.90673 11.7938 8.86076 11.7931 8.86076 11.7772C8.86076 11.6904 9.08466 11.382 9.16694 11.3555C9.31342 11.3082 9.47089 11.0765 9.44197 10.9508C9.41235 10.8222 9.51048 10.6459 9.55266 10.752C9.65109 10.9993 9.89747 11.0309 10.2483 10.8412C10.5256 10.6912 10.5865 10.6854 10.785 10.7898C10.9181 10.8598 10.9493 10.8586 11.1122 10.7769C11.3199 10.6728 11.3198 10.6122 11.1107 10.2318C10.9526 9.94388 10.9469 9.94295 10.7478 10.1717C10.5735 10.3719 10.4156 10.4014 10.2654 10.2618C10.212 10.2122 10.0735 10.1475 9.95762 10.1179C9.79934 10.0776 9.74278 10.0359 9.73063 9.95052C9.69575 9.70553 9.27372 9.83758 8.9004 10.2103C8.80435 10.3062 8.6319 10.3306 8.58582 10.2547C8.57058 10.2297 8.592 10.1805 8.63347 10.1455C8.74172 10.054 8.72709 9.99765 8.57696 9.92807C8.43504 9.8623 8.43144 9.78556 8.53565 9.04934C8.56582 8.83627 8.55514 8.78575 8.45721 8.67976C8.39483 8.61224 8.35884 8.53231 8.37716 8.50208C8.39549 8.4719 8.3523 8.38805 8.28121 8.31569C8.21007 8.24333 8.1519 8.15125 8.1519 8.11107C8.1519 8.02337 7.99701 7.93133 7.84937 7.93133C7.79073 7.93133 7.67696 7.88184 7.59656 7.82137C7.51615 7.76091 7.4162 7.72476 7.37443 7.74108C7.33271 7.75736 7.27109 7.73706 7.23752 7.69591C7.14952 7.58807 6.74547 7.41631 6.57975 7.41631C6.43514 7.41631 6.27063 7.29888 5.89428 6.92704C5.48157 6.51924 5.45235 6.10579 5.83195 6.04403C6.07489 6.00453 6.30511 5.82093 6.35251 5.62903C6.51484 4.97114 7.94765 4.10091 8.64157 4.23873C9.16997 4.34369 9.24901 4.38155 9.40238 4.6029C9.51934 4.77162 9.62496 4.85124 9.85347 4.94271C10.3936 5.15902 10.5524 5.46979 10.3384 5.89128C10.2792 6.00773 10.1729 6.24206 10.1021 6.41202C10.0312 6.58197 9.95078 6.75579 9.92324 6.79828C9.7557 7.05677 9.66754 7.57138 9.76937 7.69617C9.85615 7.80252 9.79863 7.94359 9.57529 8.17215C9.43382 8.31693 9.37347 8.42982 9.34744 8.59828C9.32795 8.72436 9.28866 8.8561 9.26015 8.89107C9.128 9.05305 9.22987 9.28908 9.46122 9.35691C9.58263 9.3925 9.70795 9.44251 9.7397 9.46805C9.87408 9.576 10.1497 9.58007 10.3038 9.47634C10.4873 9.35274 10.7475 9.34295 10.8399 9.4561C10.9289 9.56513 11.3359 9.52573 11.4043 9.40151C11.4302 9.35428 11.5198 9.2365 11.6033 9.13972C11.7956 8.91703 11.8769 8.45578 11.7666 8.21361C11.6952 8.05684 11.327 7.77837 11.0169 7.64657C10.7943 7.55197 10.7092 7.00954 10.8313 6.46352C10.8504 6.37854 10.8366 6.19313 10.8007 6.0515C10.7648 5.90987 10.7348 5.72446 10.7342 5.63948C10.7335 5.55451 10.6763 5.38414 10.607 5.26084C10.443 4.96913 10.4481 4.80633 10.6296 4.52812C10.9237 4.07727 11.1247 3.87852 11.319 3.84649C11.5599 3.80668 11.6456 3.72829 11.6456 3.54736C11.6456 3.36438 11.4724 3.34228 11.2911 3.50215C11.0787 3.68956 10.8507 3.5862 10.9137 3.33106C10.9382 3.2314 10.9205 3.18793 10.8367 3.1423C10.6918 3.06345 10.5823 3.15461 10.5823 3.35392C10.5823 3.43545 10.5652 3.50276 10.5443 3.50354C10.5234 3.50431 10.454 3.59119 10.3901 3.69667C10.2104 3.99291 9.83332 4.21102 9.74683 4.06867C9.72962 4.04034 9.66562 4.01686 9.60461 4.01645C9.54359 4.01603 9.39311 3.92348 9.27023 3.81075C9.14734 3.69801 8.88056 3.52223 8.67732 3.4201C8.08689 3.12335 8.05377 2.98671 8.57261 2.98774C8.81301 2.98821 8.93747 3.01823 9.10643 3.1165C9.22764 3.18695 9.3998 3.24464 9.48901 3.24464C9.58253 3.24464 9.72385 3.29918 9.82278 3.37339C10.1098 3.58877 10.2785 3.49282 10.2785 3.11418C10.2785 2.94283 9.82349 2.5988 9.49914 2.52484C9.20375 2.45753 9.06046 2.38501 8.9718 2.25791C8.93544 2.20579 8.87276 2.16309 8.83256 2.16309C8.79235 2.16309 8.75949 2.1427 8.75949 2.11782C8.75949 2.09289 8.66729 1.97119 8.55463 1.84743C8.20911 1.46776 8.17301 1.42105 8.1119 1.27468C8.07939 1.19681 8.02815 1.13305 7.99808 1.13305C7.96795 1.13305 7.82506 1.02221 7.68051 0.886764C7.34749 0.574609 6.92765 0.417476 6.65458 0.502712C6.46552 0.561734 6.20258 0.508996 6.10126 0.391777C5.7481 -0.0168412 4.95651 -0.024 4.56521 0.377871C4.01296 0.945013 3.60359 1.01619 3.92466 0.48927C3.99367 0.375966 4.07808 0.219554 4.11215 0.141631L4.17407 0H9.52359H14.8731L14.9042 0.197305ZM2.03797 0.0530987C1.97529 0.0787468 1.92405 0.135193 1.92405 0.178609C1.92405 0.221974 1.90127 0.257511 1.87342 0.257511C1.84557 0.257511 1.82278 0.296137 1.82278 0.343365C1.82278 0.390541 1.80987 0.416034 1.79408 0.399966C1.68851 0.292635 0.892657 0.721391 0.815695 0.927039C0.782125 1.01665 0.766279 1.02839 0.763494 0.965665C0.753621 0.743639 0.449366 0.872343 0.337366 1.14592C0.293923 1.25217 0.234378 1.33906 0.205112 1.33906C0.175847 1.33906 0.151897 1.37547 0.151897 1.41997C0.151897 1.46451 0.117721 1.53569 0.0759487 1.57818C0.00845505 1.64683 0 1.56345 0 0.827691V0L1.07595 0.00324464C1.77078 0.00535622 2.11154 0.0230215 2.03797 0.0530987ZM0.529619 2.31425C0.547948 2.34443 0.615948 2.3691 0.680708 2.3691C0.835543 2.3691 0.994632 2.60184 0.910429 2.70505C0.878328 2.74439 0.865771 2.79919 0.88253 2.8268C0.89934 2.8544 0.889872 2.89154 0.861568 2.90936C0.833265 2.92712 0.810125 2.98233 0.810125 3.03198C0.810125 3.12783 0.496557 3.1595 0.370583 3.07638C0.337722 3.0547 0.294329 3.06407 0.274178 3.09724C0.249317 3.13813 0.260405 3.14405 0.308607 3.11557C0.350734 3.09075 0.36253 3.09276 0.337568 3.12052C0.314328 3.14627 0.268759 3.16738 0.236303 3.16738C0.203797 3.16738 0.170126 3.21785 0.161518 3.2795C0.131088 3.49694 0 3.53794 0 3.33003C0 3.19931 0.0290117 3.12948 0.0991383 3.09131C0.184607 3.04476 0.195543 2.99418 0.178581 2.72379C0.167796 2.55136 0.17124 2.3778 0.186176 2.3382C0.223746 2.23859 0.303797 2.24755 0.303797 2.35133C0.303797 2.42946 0.311796 2.4292 0.400049 2.34798C0.463037 2.28999 0.507796 2.27835 0.529619 2.31425ZM3.34172 2.96132C3.41448 3.05047 3.33094 3.32112 3.21696 3.36556C3.18126 3.37952 3.13671 3.47387 3.11802 3.57528C3.09934 3.67669 3.05838 3.75966 3.02699 3.75966C2.99565 3.75966 2.92836 3.79803 2.87742 3.84489C2.71615 3.99337 2.76106 3.66345 2.94152 3.37401C3.0277 3.23578 3.11828 3.06901 3.14278 3.0034C3.19448 2.86512 3.25311 2.8527 3.34172 2.96132ZM7.47656 2.98707C7.58663 3.03219 7.68187 3.22486 7.62349 3.28424C7.60628 3.3018 7.42972 3.33379 7.23119 3.35536C7.03266 3.37694 6.75985 3.43499 6.62491 3.48433C6.44765 3.54917 6.3642 3.55844 6.3243 3.51785C6.24375 3.43591 6.40299 3.21131 6.5723 3.1681C6.64739 3.14894 6.74962 3.08879 6.79944 3.03445C6.89727 2.92769 7.26851 2.90173 7.47656 2.98707ZM3.79063 3.35145C3.88319 3.38915 3.90486 3.42927 3.88623 3.52841C3.87301 3.59897 3.88395 3.65665 3.91063 3.65665C4.00531 3.65665 3.84309 4.51097 3.67347 4.90558C3.63625 4.99221 3.44309 5.03011 3.37772 4.96357C3.3603 4.94591 3.39271 4.83852 3.44972 4.72491L3.55332 4.51839L3.43782 4.3595C3.28461 4.14865 3.2963 3.90742 3.4763 3.56791C3.55549 3.41866 3.63164 3.29789 3.64557 3.29959C3.65949 3.30129 3.72476 3.32462 3.79063 3.35145ZM3.76613 5.19178C3.79873 5.24549 3.7241 5.80852 3.67818 5.85528C3.56643 5.96894 3.49565 5.73301 3.55509 5.44486C3.60992 5.179 3.6958 5.076 3.76613 5.19178ZM7.2121 5.35818C7.11078 5.42189 7.03281 5.52036 7.01372 5.60889C6.98775 5.72915 6.94587 5.76268 6.77478 5.80012C6.3244 5.89864 6.28375 6.24865 6.7003 6.44101C7.01164 6.58481 7.78471 6.50719 7.99813 6.31071C8.04461 6.26797 8.15565 6.21811 8.24486 6.19998C8.66233 6.11506 8.48678 6.03214 7.83043 6.00422C7.33266 5.98306 6.87807 5.87712 7.26582 5.87264C7.60451 5.86872 7.90192 5.47962 7.71306 5.28757C7.64476 5.21809 7.37433 5.25621 7.2121 5.35818ZM11.8224 6.6959C11.805 6.72458 11.8488 6.87301 11.9198 7.02577C11.9991 7.19624 12.0619 7.44464 12.0824 7.66893C12.1133 8.00709 12.1246 8.03434 12.2333 8.03434C12.6015 8.03434 12.4939 7.25428 12.0612 6.78541C11.9202 6.6327 11.8718 6.61457 11.8224 6.6959ZM13.9259 7.90331C13.8478 7.999 13.8998 8.08584 14.0351 8.08584C14.093 8.08584 14.1931 8.14378 14.2576 8.21459C14.4656 8.4429 14.8148 8.33526 14.6824 8.08362C14.636 7.99545 14.593 7.97809 14.4783 8.00142C14.3984 8.01765 14.3184 8.00694 14.3006 7.97753C14.2712 7.92927 14.0985 7.83976 14.0188 7.83157C14.0014 7.82982 13.9595 7.86206 13.9259 7.90331ZM10.4684 8.74084C10.6094 8.76767 10.6086 8.79538 10.462 8.9776C10.3315 9.13978 9.89873 9.17114 9.89873 9.01844C9.89873 8.86645 10.2441 8.69815 10.4684 8.74084ZM2.73569 9.43859C2.93747 9.85998 2.78775 10.3815 2.52218 10.1826C2.32648 10.0361 2.32511 9.53197 2.5199 9.33384L2.63134 9.22048L2.73569 9.43859ZM13.4376 9.66752L13.3103 9.80719L13.5159 10.0062C13.7447 10.2276 13.7842 10.4172 13.6203 10.5064C13.4777 10.5841 13.4933 10.6715 13.6932 10.9147C13.789 11.0313 13.8818 11.1733 13.8995 11.2301C13.9173 11.2869 14.0125 11.3733 14.111 11.422C14.2968 11.5139 14.3548 11.6253 14.5032 12.1751C14.5722 12.4304 14.6588 12.5198 14.8828 12.5665C14.9758 12.586 15.0264 12.6523 15.0894 12.8377C15.169 13.0721 15.1766 13.0789 15.2573 12.9882C15.3669 12.865 15.3639 12.8125 15.2329 12.5516C15.1352 12.3573 15.1298 12.3064 15.1802 12.0611C15.2449 11.7468 15.1482 11.4146 14.8938 11.0768C14.8175 10.9756 14.7261 10.8247 14.6908 10.7415C14.6554 10.6583 14.5596 10.5043 14.4778 10.3993C14.396 10.2943 14.3291 10.1739 14.3291 10.1318C14.3291 10.0508 14.0203 9.78541 13.9262 9.78541C13.8958 9.78541 13.8493 9.72747 13.8228 9.65665C13.7589 9.48582 13.599 9.49035 13.4376 9.66752ZM12.8068 9.68421C12.7529 9.71356 12.7089 9.76239 12.7089 9.79272C12.7089 9.93909 13.2911 10.5563 13.4304 10.5576C13.5275 10.5585 13.4511 10.3734 13.2911 10.2198C13.1687 10.1024 13.1139 10.0042 13.1139 9.90216C13.1139 9.66711 12.9942 9.58218 12.8068 9.68421ZM11.4697 10.4524C11.3577 10.6726 11.3699 10.6995 11.5998 10.739C11.9065 10.7918 11.9557 10.7044 11.7429 10.4852C11.6476 10.3871 11.5645 10.3053 11.5583 10.3036C11.552 10.3018 11.5122 10.3688 11.4697 10.4524ZM12.0454 10.4936C11.9745 10.6819 12.0175 10.7426 12.4236 11.029C12.7735 11.2757 12.8882 11.2952 13.0287 11.1322C13.1644 10.9747 13.1796 10.8272 13.0641 10.79C13.0065 10.7714 12.9231 10.6999 12.8789 10.6313C12.7852 10.4858 12.6253 10.4665 12.5918 10.5966C12.5741 10.6659 12.5673 10.6605 12.5628 10.5734C12.55 10.3255 12.133 10.2611 12.0454 10.4936ZM12.9215 11.8043C12.7889 11.9392 12.8513 12.1023 13.0759 12.2072C13.1943 12.2625 13.3279 12.3349 13.3729 12.3681C13.5699 12.5136 13.6835 12.3007 13.5582 12.0208C13.4599 11.8015 13.0585 11.665 12.9215 11.8043ZM8.25089 12.9982C8.27615 13.0657 8.36537 13.1706 8.44921 13.2314C8.5638 13.3144 8.60552 13.3892 8.61727 13.5331C8.62901 13.6767 8.65823 13.7293 8.73418 13.7437C8.98602 13.7917 8.92861 13.9735 8.57109 14.2601C8.29605 14.4807 8.20522 14.5167 8.19863 14.4077C8.19651 14.3723 8.18653 14.2986 8.17645 14.2439C8.16638 14.1892 8.18213 14.0989 8.21144 14.0432C8.25286 13.9644 8.24658 13.9317 8.18299 13.8955C8.13803 13.8699 8.10126 13.8007 8.10126 13.7416C8.10126 13.6826 8.07554 13.5469 8.0441 13.4401C7.93402 13.0666 8.1244 12.6598 8.25089 12.9982ZM3.85159 15.0172C3.8882 15.0621 3.93088 15.263 3.94643 15.4637C3.9921 16.0537 4.12734 15.9859 4.1797 15.3466C4.212 14.9518 4.2241 14.9347 4.36765 15.0807C4.46238 15.177 4.46982 15.2098 4.41691 15.296C4.32532 15.4452 4.34228 15.5992 4.48213 15.8884C4.55063 16.03 4.60688 16.188 4.60714 16.2395C4.60739 16.2908 4.63337 16.3819 4.66481 16.4417C4.77625 16.6535 5.01747 17.7553 5.09053 18.3863C5.1242 18.6772 5.42395 20.2847 5.48906 20.5236C5.52765 20.6652 5.57352 20.8738 5.59104 20.9871C5.60851 21.1004 5.65478 21.3322 5.69382 21.5021C5.844 22.1561 5.91823 22.5435 5.95038 22.8412C5.96871 23.0112 6.00471 23.2348 6.03043 23.3381C6.0561 23.4415 6.09666 23.6327 6.12061 23.763L6.16415 24H3.2157H0.267189L0.290632 23.8584C0.335898 23.585 0.56324 22.8946 0.66086 22.7339C0.715088 22.6446 0.759493 22.5448 0.759493 22.5122C0.759493 22.3967 1.17706 21.5566 1.34684 21.3304C1.44152 21.2043 1.51899 21.0696 1.51899 21.0312C1.51899 20.9928 1.54744 20.961 1.58228 20.9606C1.62592 20.96 1.62284 20.9452 1.5724 20.9127C1.50977 20.8724 1.51316 20.8393 1.59575 20.6833C1.68106 20.5222 1.68461 20.4793 1.62638 20.3154C1.56805 20.1514 1.57089 20.1183 1.65094 20.0283C1.73585 19.9328 1.73656 19.9069 1.66223 19.6071C1.55418 19.1712 1.54142 18.1516 1.63828 17.691C1.67995 17.4927 1.72694 17.2349 1.74268 17.1182C1.78694 16.7898 2.15053 16.0837 2.33382 15.9703C2.41894 15.9176 2.52238 15.8255 2.56364 15.7656C2.60491 15.7057 2.66744 15.6567 2.70268 15.6567C2.73787 15.6567 2.87899 15.5466 3.01625 15.4122C3.48137 14.9566 3.71286 14.8471 3.85159 15.0172ZM15.1646 15.4264C15.0532 15.4672 14.9092 15.501 14.8446 15.5014C14.7172 15.5022 14.3651 15.7291 14.2025 15.915C14.1468 15.9787 13.9873 16.1174 13.8481 16.223C13.286 16.6497 13.1049 16.9639 12.9823 17.7256C12.9025 18.2215 12.9047 18.3324 13.0082 19.03C13.1013 19.6586 13.1016 19.6594 13.2382 19.686C13.3979 19.717 13.4091 19.6791 13.3788 19.2073C13.3631 18.9609 13.3851 18.6397 13.4388 18.3318C13.6966 16.8551 13.7478 16.7567 14.6345 16.0341C14.8045 15.8957 14.8568 15.85 15.1517 15.5831C15.2207 15.5207 15.3543 15.4446 15.4487 15.4139C15.5975 15.3656 15.6034 15.3577 15.4937 15.3552C15.4241 15.3535 15.2759 15.3855 15.1646 15.4264ZM12.4954 15.9013C12.4368 16.1896 12.5869 16.3262 12.9623 16.3262C13.1543 16.3262 13.2974 16.2253 13.1678 16.1814C13.1318 16.1692 13.0658 16.1156 13.021 16.0624C12.9762 16.0092 12.8904 15.9657 12.8304 15.9657C12.7704 15.9657 12.6929 15.9309 12.6582 15.8884C12.5749 15.7862 12.5179 15.7908 12.4954 15.9013ZM10.6022 20.0643C10.6191 20.1091 10.6329 20.199 10.6329 20.264C10.6329 20.329 10.6671 20.4111 10.7089 20.4464C10.7792 20.5057 10.8195 20.8069 10.7571 20.8069C10.6296 20.8069 10.481 20.5117 10.481 20.2586C10.481 19.9913 10.5393 19.8978 10.6022 20.0643ZM22.7848 21.6536C22.7848 21.8103 22.8634 21.862 23.0738 21.8436C23.1944 21.833 23.272 21.8643 23.3679 21.9619C23.5643 22.1616 23.8216 22.122 23.7647 21.9007C23.7443 21.8216 23.6825 21.7778 23.5575 21.7539C23.4443 21.7324 23.3703 21.6849 23.3546 21.6239C23.3117 21.457 22.7848 21.4844 22.7848 21.6536ZM17.1646 21.7692C17.1646 22.0931 17.3036 22.2492 17.5911 22.2482C17.9542 22.2468 17.969 22.1869 17.6782 21.8957C17.5349 21.7523 17.4177 21.6109 17.4177 21.5814C17.4177 21.552 17.3608 21.5279 17.2911 21.5279C17.1741 21.5279 17.1646 21.5461 17.1646 21.7692Z" fill="black"/>
</svg>
