<svg width="24" height="24" viewBox="0 0 24 24" fill="none" xmlns="http://www.w3.org/2000/svg">
<mask id="path-1-inside-1" fill="white">
<path fill-rule="evenodd" clip-rule="evenodd" d="M12.7885 2.38485C12.8639 2.48144 12.922 2.59225 12.9581 2.71258C12.9936 2.83084 13.0063 2.95319 12.9973 3.07342C12.9763 3.36367 12.8313 3.61956 12.6151 3.78847C12.5921 3.80649 12.5682 3.82352 12.5436 3.8395C11.6045 4.46994 10.8279 5.34482 10.4226 6.32318C10.0024 7.3377 9.89246 8.45404 10.1067 9.53105C10.3209 10.6081 10.8497 11.5973 11.6262 12.3738C12.4027 13.1503 13.3919 13.6791 14.469 13.8933C15.546 14.1075 16.6623 13.9976 17.6768 13.5774C18.6552 13.1721 19.53 12.3955 20.1605 11.4565C20.1765 11.4318 20.1935 11.4079 20.2115 11.3849C20.2994 11.272 20.4075 11.1827 20.5272 11.1186C20.7581 10.995 21.0323 10.9653 21.2874 11.0419C21.4078 11.078 21.5186 11.1361 21.6151 11.2115C21.7276 11.299 21.8166 11.4067 21.8807 11.5258C21.9617 11.6767 22.0026 11.846 22 12.0164C21.9968 13.9885 21.4105 15.9158 20.3147 17.5557C19.2159 19.2002 17.6541 20.4819 15.8268 21.2388C13.9996 21.9957 11.9889 22.1937 10.0491 21.8078C8.10929 21.422 6.32746 20.4696 4.92894 19.0711C3.53041 17.6725 2.578 15.8907 2.19215 13.9509C1.8063 12.0111 2.00433 10.0004 2.76121 8.17316C3.51808 6.3459 4.79981 4.78412 6.4443 3.6853C8.08426 2.58951 10.0115 2.00323 11.9837 2.00001C12.0137 1.99955 12.0436 2.00044 12.0734 2.00265C12.3637 2.02372 12.6196 2.16866 12.7885 2.38485ZM19.4564 14.8985C19.1349 15.1011 18.7962 15.2785 18.4422 15.4251C17.0622 15.9967 15.5437 16.1463 14.0788 15.8549C12.6138 15.5635 11.2681 14.8442 10.212 13.788C9.15578 12.7319 8.43651 11.3862 8.14511 9.92123C7.85371 8.45626 8.00327 6.93778 8.57487 5.55781C8.72151 5.20381 8.8989 4.86511 9.10148 4.54355C8.56108 4.75362 8.04242 5.02285 7.55544 5.34824C6.23985 6.22729 5.21447 7.47672 4.60897 8.93853C4.00347 10.4003 3.84504 12.0089 4.15372 13.5607C4.4624 15.1126 5.22433 16.538 6.34315 17.6569C7.46197 18.7757 8.88743 19.5376 10.4393 19.8463C11.9911 20.155 13.5997 19.9965 15.0615 19.391C16.5233 18.7855 17.7727 17.7602 18.6518 16.4446C18.9771 15.9576 19.2464 15.4389 19.4564 14.8985Z"/>
</mask>
<path d="M12.7885 2.38485L11.2124 3.61618L11.2125 3.61618L12.7885 2.38485ZM12.9581 2.71258L11.0422 3.28651L11.0426 3.28791L12.9581 2.71258ZM12.9973 3.07342L11.0028 2.92521L11.0026 2.92866L12.9973 3.07342ZM12.6151 3.78847L13.8465 5.36449L13.8465 5.36449L12.6151 3.78847ZM12.5436 3.8395L11.455 2.16172L11.4418 2.17026L11.4288 2.17901L12.5436 3.8395ZM10.4226 6.32318L8.57487 5.55781L8.57487 5.55781L10.4226 6.32318ZM10.1067 9.53105L12.0683 9.14087L12.0683 9.14086L10.1067 9.53105ZM11.6262 12.3738L13.0404 10.9596L13.0404 10.9596L11.6262 12.3738ZM14.469 13.8933L14.8591 11.9317L14.8591 11.9317L14.469 13.8933ZM17.6768 13.5774L18.4422 15.4251L18.4422 15.4251L17.6768 13.5774ZM20.1605 11.4565L21.8209 12.5713L21.8297 12.5582L21.8383 12.545L20.1605 11.4565ZM20.2115 11.3849L21.7876 12.6161L21.7897 12.6134L20.2115 11.3849ZM20.5272 11.1186L19.5832 9.35539L19.5832 9.35539L20.5272 11.1186ZM21.2874 11.0419L20.7121 12.9574L20.7135 12.9578L21.2874 11.0419ZM21.6151 11.2115L20.3838 12.7875L20.3866 12.7897L21.6151 11.2115ZM21.8807 11.5258L23.6425 10.5792L23.6425 10.5792L21.8807 11.5258ZM22 12.0164L20.0002 11.9855L20 11.9993L20 12.0131L22 12.0164ZM20.3147 17.5557L21.9776 18.6668L21.9776 18.6668L20.3147 17.5557ZM10.0491 21.8078L10.4393 19.8463L10.4393 19.8463L10.0491 21.8078ZM4.92894 19.0711L3.51472 20.4853L3.51472 20.4853L4.92894 19.0711ZM2.19215 13.9509L0.23058 14.3411L0.23058 14.3411L2.19215 13.9509ZM2.76121 8.17316L0.913449 7.4078L0.913449 7.4078L2.76121 8.17316ZM6.4443 3.6853L5.33316 2.02236L5.33316 2.02236L6.4443 3.6853ZM11.9837 2.00001L11.9869 4.00001L12.0007 3.99999L12.0145 3.99977L11.9837 2.00001ZM12.0734 2.00265L11.9252 3.99716L11.9287 3.99741L12.0734 2.00265ZM19.4564 14.8985L21.3206 15.6231L23.515 9.97781L18.3904 13.2063L19.4564 14.8985ZM18.4422 15.4251L19.2076 17.2729L19.2076 17.2729L18.4422 15.4251ZM14.0788 15.8549L13.6886 17.8165L13.6886 17.8165L14.0788 15.8549ZM10.212 13.788L11.6262 12.3738L11.6262 12.3738L10.212 13.788ZM8.14511 9.92123L10.1067 9.53105L10.1067 9.53105L8.14511 9.92123ZM8.57487 5.55781L10.4226 6.32318L10.4226 6.32318L8.57487 5.55781ZM9.10148 4.54355L10.7937 5.60963L14.0222 0.484979L8.37686 2.67943L9.10148 4.54355ZM7.55544 5.34824L8.66658 7.01118L8.66658 7.01118L7.55544 5.34824ZM4.60897 8.93853L6.45673 9.7039L6.45673 9.7039L4.60897 8.93853ZM6.34315 17.6569L4.92893 19.0711L4.92894 19.0711L6.34315 17.6569ZM10.4393 19.8463L10.8295 17.8847L10.8295 17.8847L10.4393 19.8463ZM15.0615 19.391L14.2961 17.5433L14.2961 17.5433L15.0615 19.391ZM18.6518 16.4446L20.3147 17.5557L20.3147 17.5557L18.6518 16.4446ZM11.2125 3.61618C11.1377 3.52054 11.079 3.40919 11.0422 3.28651L14.874 2.13865C14.7651 1.7753 14.5901 1.44233 14.3645 1.15352L11.2125 3.61618ZM11.0426 3.28791C11.0064 3.1674 10.994 3.04428 11.0028 2.92521L14.9918 3.22164C15.0186 2.8621 14.9808 2.49428 14.8735 2.13725L11.0426 3.28791ZM11.0026 2.92866C11.024 2.6341 11.1719 2.378 11.3838 2.21244L13.8465 5.36449C14.4908 4.86111 14.9286 4.09324 14.9921 3.21819L11.0026 2.92866ZM11.3838 2.21244C11.4066 2.19466 11.4303 2.17772 11.455 2.16172L13.6322 5.51728C13.7061 5.46932 13.7776 5.41831 13.8465 5.36449L11.3838 2.21244ZM11.4288 2.17901C10.2246 2.98746 9.15718 4.15199 8.57487 5.55781L12.2704 7.08855C12.4986 6.53765 12.9845 5.95243 13.6584 5.49998L11.4288 2.17901ZM8.57487 5.55781C8.00327 6.93778 7.85371 8.45626 8.14512 9.92123L12.0683 9.14086C11.9312 8.45182 12.0015 7.73761 12.2704 7.08855L8.57487 5.55781ZM8.14511 9.92123C8.43651 11.3862 9.15578 12.7319 10.212 13.788L13.0404 10.9596C12.5436 10.4628 12.2053 9.82991 12.0683 9.14087L8.14511 9.92123ZM10.212 13.788C11.2681 14.8442 12.6138 15.5635 14.0788 15.8549L14.8591 11.9317C14.1701 11.7947 13.5372 11.4564 13.0404 10.9596L10.212 13.788ZM14.0788 15.8549C15.5437 16.1463 17.0622 15.9967 18.4422 15.4251L16.9115 11.7296C16.2624 11.9985 15.5482 12.0688 14.8591 11.9317L14.0788 15.8549ZM18.4422 15.4251C19.848 14.8428 21.0125 13.7754 21.8209 12.5713L18.5 10.3416C18.0476 11.0155 17.4623 11.5014 16.9114 11.7296L18.4422 15.4251ZM21.8383 12.545C21.8223 12.5697 21.8053 12.5934 21.7876 12.6161L18.6355 10.1536C18.5817 10.2225 18.5306 10.294 18.4827 10.3679L21.8383 12.545ZM21.7897 12.6134C21.702 12.7261 21.5923 12.817 21.4711 12.8818L19.5832 9.35539C19.2226 9.54843 18.8968 9.81794 18.6334 10.1563L21.7897 12.6134ZM21.4711 12.8819C21.2424 13.0043 20.9708 13.0351 20.7121 12.9574L21.8627 9.12645C21.0937 8.89547 20.2738 8.98568 19.5832 9.35539L21.4711 12.8819ZM20.7135 12.9578C20.5908 12.9211 20.4795 12.8623 20.3838 12.7875L22.8465 9.63551C22.5576 9.40985 22.2247 9.23488 21.8613 9.12604L20.7135 12.9578ZM20.3866 12.7897C20.2743 12.7023 20.1837 12.5931 20.1189 12.4725L23.6425 10.5792C23.4496 10.2202 23.1808 9.89578 22.8437 9.63337L20.3866 12.7897ZM20.1189 12.4724C20.0379 12.3217 19.9976 12.1543 20.0002 11.9855L23.9997 12.0473C24.0076 11.5376 23.8855 11.0316 23.6425 10.5792L20.1189 12.4724ZM20 12.0131C19.9974 13.5908 19.5284 15.1326 18.6518 16.4446L21.9776 18.6668C23.2926 16.6989 23.9961 14.3862 24 12.0197L20 12.0131ZM18.6518 16.4446C17.7727 17.7602 16.5233 18.7855 15.0615 19.391L16.5922 23.0865C18.7849 22.1783 20.6591 20.6402 21.9776 18.6668L18.6518 16.4446ZM15.0615 19.391C13.5997 19.9965 11.9911 20.155 10.4393 19.8463L9.65892 23.7694C11.9867 24.2324 14.3995 23.9948 16.5922 23.0865L15.0615 19.391ZM10.4393 19.8463C8.88743 19.5376 7.46197 18.7757 6.34315 17.6569L3.51472 20.4853C5.19295 22.1635 7.33115 23.3064 9.65892 23.7694L10.4393 19.8463ZM6.34315 17.6569C5.22433 16.538 4.4624 15.1126 4.15372 13.5607L0.23058 14.3411C0.693603 16.6689 1.83649 18.807 3.51472 20.4853L6.34315 17.6569ZM4.15372 13.5607C3.84504 12.0089 4.00347 10.4003 4.60897 8.93853L0.913449 7.4078C0.0051976 9.60051 -0.232442 12.0133 0.23058 14.3411L4.15372 13.5607ZM4.60897 8.93853C5.21447 7.47672 6.23985 6.22729 7.55544 5.34824L5.33316 2.02236C3.35977 3.34094 1.8217 5.21508 0.913449 7.4078L4.60897 8.93853ZM7.55544 5.34824C8.86741 4.47161 10.4092 4.00259 11.9869 4.00001L11.9804 1.45777e-05C9.61385 0.0038795 7.30112 0.707417 5.33316 2.02236L7.55544 5.34824ZM12.0145 3.99977C11.9845 4.00024 11.9548 3.99935 11.9252 3.99715L12.2216 0.0081532C12.1324 0.00152415 12.0428 -0.00113508 11.9529 0.000248924L12.0145 3.99977ZM11.9287 3.99741C11.6341 3.97603 11.378 3.82807 11.2124 3.61618L14.3645 1.15353C13.8611 0.509246 13.0933 0.0714025 12.2182 0.00789886L11.9287 3.99741ZM18.3904 13.2063C18.1591 13.352 17.9207 13.4764 17.6768 13.5774L19.2076 17.2729C19.6717 17.0806 20.1107 16.8502 20.5225 16.5907L18.3904 13.2063ZM17.6768 13.5774C16.6623 13.9976 15.546 14.1075 14.469 13.8933L13.6886 17.8165C15.5415 18.185 17.4621 17.9959 19.2076 17.2729L17.6768 13.5774ZM14.469 13.8933C13.3919 13.6791 12.4027 13.1503 11.6262 12.3738L8.79775 15.2022C10.1336 16.5381 11.8357 17.4479 13.6886 17.8165L14.469 13.8933ZM11.6262 12.3738C10.8497 11.5973 10.3209 10.6081 10.1067 9.53105L6.18354 10.3114C6.55211 12.1643 7.46186 13.8664 8.79775 15.2022L11.6262 12.3738ZM10.1067 9.53105C9.89246 8.45404 10.0024 7.3377 10.4226 6.32318L6.72711 4.79245C6.00414 6.53787 5.81497 8.45848 6.18354 10.3114L10.1067 9.53105ZM10.4226 6.32318C10.5236 6.07934 10.648 5.8409 10.7937 5.60963L7.4093 3.47747C7.14984 3.88932 6.91938 4.32828 6.72711 4.79245L10.4226 6.32318ZM8.37686 2.67943C7.70135 2.94202 7.05301 3.27857 6.4443 3.6853L8.66658 7.01118C9.03184 6.76712 9.42081 6.56521 9.8261 6.40767L8.37686 2.67943ZM6.4443 3.6853C4.79981 4.78412 3.51808 6.3459 2.76121 8.17316L6.45673 9.7039C6.91085 8.60754 7.67989 7.67047 8.66658 7.01118L6.4443 3.6853ZM2.76121 8.17316C2.00433 10.0004 1.8063 12.0111 2.19215 13.9509L6.11529 13.1705C5.88378 12.0067 6.0026 10.8003 6.45673 9.7039L2.76121 8.17316ZM2.19215 13.9509C2.578 15.8907 3.53041 17.6725 4.92893 19.0711L7.75736 16.2426C6.91825 15.4035 6.3468 14.3344 6.11529 13.1705L2.19215 13.9509ZM4.92894 19.0711C6.32746 20.4696 8.10929 21.422 10.0491 21.8078L10.8295 17.8847C9.66557 17.6532 8.59648 17.0817 7.75736 16.2426L4.92894 19.0711ZM10.0491 21.8078C11.9889 22.1937 13.9996 21.9957 15.8268 21.2388L14.2961 17.5433C13.1997 17.9974 11.9933 18.1162 10.8295 17.8847L10.0491 21.8078ZM15.8268 21.2388C17.6541 20.4819 19.2159 19.2002 20.3147 17.5557L16.9888 15.3334C16.3295 16.3201 15.3925 17.0891 14.2961 17.5433L15.8268 21.2388ZM20.3147 17.5557C20.7214 16.947 21.058 16.2986 21.3206 15.6231L17.5923 14.1739C17.4348 14.5792 17.2329 14.9682 16.9888 15.3334L20.3147 17.5557Z" fill="black" mask="url(#path-1-inside-1)"/>
</svg>
