<svg width="24" height="24" viewBox="0 0 24 24" fill="none" xmlns="http://www.w3.org/2000/svg">
<path fill-rule="evenodd" clip-rule="evenodd" d="M9.79388 0.00722151C9.75399 0.0655703 9.76106 0.432941 9.80278 0.470664C9.87095 0.532301 9.88202 0.746506 9.82162 0.834926C9.76809 0.913182 9.77238 0.923525 9.85873 0.923525C9.91247 0.923525 9.99542 0.984086 10.0431 1.05804C10.1829 1.27511 10.4245 1.55125 10.4746 1.55125C10.5484 1.55125 10.5965 0.991678 10.5399 0.791881C10.4957 0.635667 10.4854 0.628732 10.4222 0.71231C10.2953 0.880421 10.0941 0.745549 9.9886 0.421582C9.88272 0.0965978 9.82162 -0.0334314 9.79388 0.00722151ZM8.58949 0.608346C8.39419 0.643558 8.44952 0.766294 8.6827 0.815077C8.79067 0.837676 8.89855 0.884785 8.92246 0.919758C8.96868 0.987374 9.20537 1.00764 9.24648 0.947439C9.25997 0.92771 9.25175 0.849752 9.22821 0.774185C9.16871 0.583117 8.9887 0.536366 8.58949 0.608346ZM8.29096 1.10933C8.25987 1.13869 8.17004 1.19016 8.09138 1.22376C7.90891 1.30166 7.61962 1.65952 7.66065 1.75661C7.68244 1.80814 7.84778 1.82327 8.24871 1.81041C8.61221 1.79882 8.84923 1.81741 8.92912 1.8638C9.3759 2.12332 9.66715 2.21545 9.74443 2.12159C9.86204 1.97883 10.3798 2.65725 10.3798 2.95408C10.3798 3.12607 10.2686 3.10951 9.99162 2.89638C9.86343 2.79774 9.72616 2.71703 9.68656 2.71703C9.64692 2.71703 9.4419 2.62299 9.23095 2.50809C8.71033 2.22448 8.28393 2.22065 8.64208 2.50283C8.88911 2.69748 9.03357 3.07556 8.8914 3.15537C8.83043 3.18962 8.59574 3.02827 8.45573 2.85597C8.22264 2.56895 7.37361 2.55711 7.06038 2.83648C6.98686 2.90206 6.8789 2.95581 6.82042 2.95593C6.53146 2.95653 5.76 3.86703 5.54619 4.45979C5.49102 4.61271 5.42049 4.78214 5.38943 4.8363C5.24636 5.08572 4.6382 5.92765 4.52537 6.03245C4.4561 6.09678 4.35631 6.20792 4.30363 6.27936C4.18014 6.44681 3.59057 6.79117 3.36327 6.82865C3.16643 6.86111 3.14383 6.90529 3.27946 6.99234C3.33005 7.0248 3.37141 7.0917 3.37141 7.14102C3.37141 7.28647 3.06128 7.28839 2.84502 7.14425C2.74367 7.07669 2.63125 7.02145 2.59517 7.02145C2.55912 7.02145 2.47412 6.97949 2.40633 6.92819C2.33853 6.8769 2.23371 6.84324 2.17339 6.85346C2.06543 6.8717 2.06628 6.87427 2.22717 7.01637C2.48454 7.24367 2.74592 7.43384 2.90145 7.50696C3.16267 7.62981 3.33021 7.98439 3.16965 8.07448C3.13737 8.0926 3.12111 8.14622 3.13353 8.19357C3.14595 8.24092 3.09021 8.40347 3.00962 8.55472C2.88601 8.78686 2.87015 8.84904 2.9082 8.95294C2.95249 9.07406 2.88883 9.18921 2.58475 9.53823C2.50612 9.6285 2.52418 9.81885 2.61539 9.86118C2.77007 9.93298 2.62018 10.2233 2.28704 10.4973C2.19942 10.5693 2.10752 10.7052 2.07948 10.8042C2.02195 11.0075 1.83343 11.1465 1.6155 11.1465C1.53609 11.1465 1.47116 11.1734 1.47116 11.2063C1.47116 11.2392 1.53851 11.2661 1.62081 11.2661C1.80393 11.2661 2.07062 11.4859 2.20036 11.7436L2.29611 11.934L2.21058 12.0672C2.03825 12.3356 2.09003 12.4048 2.4315 12.3626C2.63301 12.3377 2.73799 12.346 2.73799 12.3868C2.73799 12.4775 2.62377 12.5269 2.51037 12.4853C2.4373 12.4584 2.40477 12.4777 2.38446 12.56C2.36942 12.6211 2.32329 12.7191 2.28193 12.778C2.19673 12.8991 2.18038 13.1759 2.25782 13.1855C2.28594 13.189 2.35815 13.1872 2.41834 13.1814C2.52884 13.171 2.62136 13.3196 2.5881 13.4541C2.55418 13.5911 2.65336 13.8368 2.74253 13.8368C2.82373 13.8368 2.82879 13.815 2.80554 13.5667C2.77085 13.1967 2.86312 13.0596 3.14665 13.0596C3.38179 13.0596 3.43209 13.2398 3.26516 13.4841C3.20721 13.5688 3.19278 13.6293 3.22074 13.6702C3.27186 13.745 3.35097 13.6806 3.35097 13.5642C3.35097 13.5168 3.37807 13.4781 3.41121 13.4781C3.44435 13.4781 3.4987 13.4011 3.53197 13.307C3.5786 13.175 3.62898 13.1287 3.75182 13.1046C3.91014 13.0735 4.01377 12.9808 4.19497 12.7083C4.38009 12.4298 4.37658 12.8634 4.19019 13.2953C4.05227 13.6149 3.32858 14.578 3.19932 14.614C3.04996 14.6555 2.73783 15.3845 2.53383 16.1683C2.41021 16.6433 2.34425 18.0825 2.44617 18.0811C2.4606 18.0808 2.50371 18.0001 2.54196 17.9017C2.64016 17.6492 2.76214 17.6634 2.79651 17.9312C2.81298 18.0598 2.85781 18.1657 2.91343 18.2073C2.96304 18.2445 3.07223 18.3709 3.15613 18.4881C3.35539 18.7668 3.35212 18.7784 3.36683 17.7393C3.37378 17.2468 3.39253 16.8129 3.40851 16.7751C3.47063 16.628 3.51444 16.7191 3.51444 16.9953C3.51444 17.3328 3.53614 17.3826 3.64145 17.2864C3.7356 17.2003 3.74173 16.9603 3.65444 16.778C3.56307 16.5872 3.61423 16.3219 3.79955 16.0253C3.88394 15.8902 3.98124 15.6987 4.01577 15.5997C4.08692 15.3958 4.39774 14.8673 4.41977 14.9129C4.58176 15.2485 4.61781 15.3465 4.61781 15.4515C4.61781 15.6013 4.52435 15.8792 4.43922 15.9825C4.40547 16.0235 4.36603 16.136 4.35153 16.2324C4.33706 16.3289 4.27151 16.4864 4.20588 16.5824C4.01626 16.8598 4.06105 16.9455 4.39562 16.9455C4.55226 16.9455 4.57862 16.9644 4.60048 17.0918C4.63914 17.3171 4.55083 17.6206 4.41336 17.7349C4.27764 17.8477 4.26191 17.9413 4.34944 18.1148C4.39636 18.2079 4.41826 18.2161 4.45978 18.1562C4.5409 18.0391 4.60518 18.0669 4.69888 18.2594C4.87955 18.6307 4.90055 19.7004 4.73198 19.947C4.6534 20.062 4.65344 20.0635 4.73865 20.0961C4.87129 20.1468 5.02646 20.5844 5.02646 20.9079C5.02646 21.0593 5.04485 21.1997 5.06733 21.2201C5.10484 21.254 5.11722 21.0872 5.12605 20.4285C5.12912 20.1991 5.34403 19.6988 5.44035 19.6969C5.53548 19.695 5.59882 19.8296 5.6271 20.0938C5.65599 20.3634 5.86155 20.9573 5.95149 21.0309C5.99375 21.0655 6.04275 21.0437 6.10257 20.9636C6.15128 20.8985 6.2371 20.8251 6.29329 20.8006C6.47441 20.7215 6.62022 20.5335 6.62022 20.379C6.62022 20.2896 6.64384 20.2336 6.68152 20.2336C6.76459 20.2336 6.75896 20.0599 6.6713 19.9182C6.58605 19.7804 6.56958 19.0881 6.64878 18.9723C6.7301 18.8533 6.89536 19.0592 6.95319 19.3516C6.98086 19.4915 7.03676 19.6701 7.07746 19.7485C7.11816 19.8269 7.15147 19.9278 7.15147 19.9727C7.15147 20.1221 7.58105 19.9687 7.80421 19.7396C7.85975 19.6825 7.93331 19.6347 7.96768 19.6333C8.002 19.632 8.09174 19.5538 8.16714 19.4594C8.3004 19.2926 8.30183 19.2861 8.21912 19.2213C8.14642 19.1644 8.13755 19.1173 8.15823 18.8968C8.17985 18.6662 8.1662 18.6057 8.0302 18.3287C7.84279 17.9471 7.79183 17.9055 7.55874 17.9439C7.40357 17.9695 7.33945 17.9446 7.15874 17.7888C7.0404 17.6867 6.92589 17.6032 6.90436 17.6032C6.83766 17.6032 6.47085 17.0467 6.39198 16.826C6.2123 16.3229 6.13494 15.9769 6.17331 15.8479C6.30502 15.4051 6.45675 15.2726 6.45675 15.6004C6.45675 15.6787 6.47539 15.7597 6.49819 15.7803C6.521 15.8009 6.57641 15.9231 6.62128 16.0519C6.71641 16.3246 6.83607 16.3909 7.04849 16.2883C7.17538 16.2271 7.21775 16.234 7.36479 16.3405C7.55371 16.4772 7.6032 16.4511 7.70585 16.1607C7.7763 15.9614 7.78043 15.7856 7.7186 15.6167C7.67443 15.4959 7.67075 15.4983 7.6184 15.6804C7.56323 15.8724 7.50459 15.9021 7.32208 15.8306C7.23385 15.796 7.22903 15.7725 7.25465 15.5C7.27958 15.2345 7.2721 15.193 7.17599 15.0626C6.9567 14.7653 7.11167 14.6139 7.38358 14.8597C7.56343 15.0224 7.68243 14.9033 7.68321 14.5599C7.68346 14.4417 7.71198 14.197 7.74655 14.0161C7.78889 13.7947 7.80842 13.4418 7.80642 12.9356C7.8034 12.1688 7.85452 11.8129 7.98349 11.7028C8.06996 11.629 8.20012 11.2076 8.2304 10.9036C8.24536 10.7535 8.31213 10.4346 8.37878 10.1949C8.51495 9.7055 8.52414 9.61845 8.44441 9.57374C8.35067 9.52107 8.33845 9.30931 8.42271 9.1977C8.49313 9.10449 8.50641 9.10372 8.57155 9.18927C8.6109 9.24098 8.69823 9.29222 8.76566 9.30316C8.90664 9.32611 8.95409 9.52238 8.84935 9.64954C8.81457 9.69181 8.78609 9.79165 8.78609 9.8714C8.78609 9.95115 8.74931 10.1278 8.70436 10.2639C8.6158 10.5321 8.59852 10.728 8.66349 10.728C8.68597 10.728 8.70436 10.7011 8.70436 10.6683C8.70436 10.6354 8.72859 10.6085 8.75822 10.6085C8.78785 10.6085 8.88441 10.5143 8.97276 10.3993C9.20541 10.0964 9.726 10.0904 9.726 10.3907C9.726 10.5444 9.48162 10.8476 9.35772 10.8476C9.19565 10.8476 9.10738 10.9556 9.16295 11.0858C9.23091 11.245 9.17468 11.3026 9.048 11.2034C8.95511 11.1307 8.92671 11.1336 8.8149 11.2275C8.74486 11.2863 8.59938 11.3497 8.49161 11.3684C8.31315 11.3993 8.29583 11.4162 8.29701 11.5584C8.29926 11.8309 8.46354 12.0389 8.64854 12.0036C8.77228 11.98 8.82663 12.0012 8.89929 12.1014L8.99201 12.2294L9.09753 12.108C9.15556 12.0412 9.27006 11.9682 9.35196 11.9458C9.43516 11.9229 9.5477 11.8316 9.60692 11.7389C9.70916 11.5787 9.72383 11.574 10.017 11.6064C10.278 11.6353 10.3561 11.6194 10.5678 11.4943C10.8803 11.3097 10.9351 11.3327 10.8176 11.5993C10.7605 11.7289 10.6765 11.8255 10.5896 11.8613C10.5138 11.8924 10.4186 11.9621 10.3778 12.0161C10.3371 12.07 10.2445 12.1587 10.1722 12.2132C10.0765 12.2852 10.0193 12.394 9.96285 12.6112C9.89105 12.8874 9.81733 13.025 9.71435 13.0753C9.68807 13.0881 9.6902 13.1411 9.72032 13.2235C9.75567 13.32 9.75563 13.389 9.72019 13.5028C9.66123 13.6921 9.72972 13.8368 9.87834 13.8368C9.93417 13.8368 10.0366 13.9067 10.106 13.9922C10.2071 14.1166 10.2606 14.1408 10.3742 14.1139C10.5686 14.0677 10.8075 14.4112 10.7673 14.679C10.7533 14.7723 10.761 14.8966 10.7844 14.9555C10.8183 15.0406 10.8271 15.0057 10.8281 14.7831C10.8293 14.5193 10.8364 14.5016 10.9575 14.4627L11.0857 14.4215L11.0635 13.9947C11.0368 13.4784 10.9857 13.2993 10.8272 13.1663C10.6972 13.0571 10.6701 12.8796 10.7658 12.7634C10.8131 12.706 10.8348 12.7152 10.8752 12.8099C10.9242 12.9247 10.9288 12.9234 11.0409 12.7593C11.1043 12.6665 11.221 12.5594 11.3002 12.5211C11.4036 12.4712 11.4604 12.3946 11.502 12.2492C11.5565 12.0582 11.5666 12.0503 11.6812 12.1088C11.8544 12.1971 11.901 12.6371 11.7463 12.7239C11.6367 12.7854 11.432 13.4812 11.4571 13.7071C11.4774 13.8904 11.4611 13.943 11.32 14.1494C11.1095 14.4574 11.0845 14.5816 11.2092 14.7011C11.2763 14.7655 11.3239 14.8984 11.3612 15.1257C11.4283 15.5351 11.4663 15.5776 11.4941 15.2746C11.5174 15.0209 11.6584 14.707 11.901 14.3691C11.9859 14.2508 12.0553 14.1096 12.0553 14.0552C12.0553 13.939 12.0582 13.9382 12.2003 14.0172C12.2817 14.0625 12.3042 14.1084 12.2885 14.1966C12.2768 14.2618 12.2824 14.3015 12.3009 14.2848C12.3194 14.2681 12.3845 14.2822 12.4455 14.3161C12.5368 14.3669 12.6174 14.3442 12.8985 14.1891L13.2404 14.0002V13.7835C13.2404 13.6321 13.216 13.5443 13.1595 13.4927C13.0893 13.4285 13.085 13.3981 13.1272 13.2627C13.2351 12.9161 12.7115 12.5507 12.5261 12.8434C12.4716 12.9295 12.4092 12.9998 12.3873 12.9998C12.3655 12.9998 12.29 13.0708 12.2194 13.1576C12.1268 13.2717 12.0789 13.2974 12.0466 13.2501C11.9852 13.1603 12.1117 12.5116 12.2061 12.4319C12.3139 12.3409 12.5049 12.0601 12.5049 11.9927C12.5049 11.9598 12.4621 11.8568 12.4098 11.7639C12.0734 11.166 12.1098 10.3878 12.4922 10.0028C12.5915 9.90285 12.6653 9.78973 12.6561 9.75141C12.6332 9.6563 12.4191 9.69898 12.3302 9.8164C12.2052 9.98152 12.1625 9.83194 12.234 9.47958C12.2952 9.17827 12.2946 9.17038 12.1992 9.03873C12.1457 8.96496 12.0961 8.82453 12.0889 8.72666C12.0808 8.61714 12.0421 8.52429 11.9882 8.4852C11.94 8.45028 11.8734 8.38865 11.8401 8.34829C11.7719 8.26549 11.6636 8.30573 11.6321 8.42553C11.6078 8.5182 11.3498 8.45321 11.154 8.30507C11.0323 8.213 10.8623 8.18891 10.8157 8.25706C10.8007 8.279 10.7102 8.29921 10.6148 8.3019C10.3735 8.30871 10.3628 8.46882 10.5826 8.78286C10.6734 8.91253 10.7476 9.05045 10.7476 9.08949C10.7476 9.19279 10.5042 9.24295 10.3389 9.17366C10.0946 9.07114 9.67859 9.10049 9.49045 9.23345C9.26315 9.39409 9.01208 9.36874 9.19475 9.20356C9.21722 9.18323 9.23561 9.08285 9.23561 8.98056C9.23561 8.87821 9.2661 8.74519 9.30341 8.68493C9.35821 8.59633 9.36242 8.54719 9.32535 8.42828C9.29662 8.33604 9.29421 8.26794 9.3189 8.24564C9.36846 8.20081 9.37096 7.85842 9.32171 7.85842C9.30165 7.85842 9.27464 7.89878 9.26168 7.9481C9.22119 8.10258 9.03651 8.05924 9.00721 7.88832C8.97656 7.7098 8.8386 7.68481 8.795 7.84982C8.75066 8.01751 8.49897 8.41483 8.46685 8.36778C8.4514 8.34512 8.44441 7.95892 8.45136 7.50959C8.46701 6.49715 8.54413 6.24702 8.75471 6.52585C8.88315 6.69587 8.96439 6.38864 8.86378 6.11358C8.82773 6.01518 8.83521 5.95832 8.90145 5.82734C8.9469 5.73742 9.0037 5.55903 9.02769 5.43097C9.07538 5.17647 9.37611 4.91205 9.68513 4.85286C9.91623 4.80856 9.92988 4.83499 9.93507 5.33753C9.94013 5.82787 9.95117 5.81568 9.99187 5.27476C10.0166 4.9469 10.023 4.93142 10.1503 4.8965C10.3311 4.84688 10.44 4.55592 10.4018 4.22484C10.3724 3.97046 10.5333 3.73335 10.7354 3.73335C10.9098 3.73335 10.8362 4.10557 10.6402 4.21455C10.4645 4.3123 10.553 4.418 10.8512 4.46678C11.0684 4.50229 11.1616 4.49213 11.2627 4.42194C11.3346 4.37202 11.413 4.33119 11.437 4.33119C11.5148 4.33119 11.8258 4.07586 12.0146 3.85699C12.2049 3.63651 12.2399 3.60255 12.5407 3.34715C12.7216 3.19351 12.9694 3.14544 13.0157 3.25509C13.0296 3.28797 13.0956 3.31487 13.1624 3.31487C13.2292 3.31487 13.3484 3.35427 13.4272 3.40245C13.5645 3.48639 13.5719 3.48442 13.6055 3.35516C13.6248 3.28097 13.6714 3.18293 13.709 3.13725C13.7942 3.03377 13.7702 2.65037 13.6388 2.01458C13.5517 1.59298 13.5456 1.58114 13.4172 1.58114C13.2158 1.58114 13.0922 1.69162 13.0156 1.93991C12.8783 2.38547 12.6171 2.51568 12.5004 2.1968C12.3882 1.88999 12.1196 1.93303 11.9749 2.28097C11.8935 2.47682 11.6948 2.57266 11.5105 2.50498C11.452 2.48346 11.3583 2.50749 11.2853 2.56273C11.0828 2.71596 11.0603 2.69246 11.0876 2.35588C11.11 2.07848 11.1043 2.05027 11.0155 2.00089C10.9625 1.97135 10.907 1.91868 10.8922 1.88377C10.8281 1.73192 10.5818 1.81227 10.5372 1.99963C10.5137 2.09827 10.4884 2.17898 10.4809 2.17898C10.4571 2.17898 9.95296 1.74125 9.88946 1.66544C9.80213 1.56112 9.62522 1.54001 9.55481 1.6255C9.50688 1.68367 9.46303 1.67459 9.33614 1.57995C9.24889 1.51484 9.13647 1.46158 9.08637 1.46158C9.03623 1.46158 8.98494 1.43719 8.97236 1.40741C8.95155 1.35821 8.73215 1.2298 8.45443 1.10431C8.39562 1.07777 8.32206 1.08004 8.29096 1.10933ZM23.7756 1.37961C23.7246 1.45422 23.6835 1.45972 23.558 1.40903C23.369 1.33268 23.3342 1.35947 23.3342 1.58186C23.3342 1.67704 23.3133 1.82219 23.2876 1.90445C23.2198 2.12243 23.3091 2.41812 23.4428 2.41812C23.6289 2.41812 23.7495 2.59011 23.7372 2.83815C23.7256 3.07334 23.807 3.25509 23.9239 3.25509C23.9998 3.25509 24.0221 1.73855 23.9472 1.67082C23.9247 1.65049 23.9063 1.56979 23.9063 1.49147C23.9063 1.30769 23.8548 1.26363 23.7756 1.37961ZM6.04548 2.95408C5.94577 3.08542 5.6987 3.31314 5.49641 3.46008L5.12862 3.72732L4.9093 4.36306C4.77007 4.76654 4.7042 5.01954 4.72896 5.05577C4.82581 5.19746 5.19131 4.78298 5.29752 4.411C5.3278 4.30495 5.37741 4.19656 5.4077 4.17007C5.43802 4.14359 5.47954 4.07795 5.50005 4.0242C5.55698 3.8748 5.99293 3.19554 6.0331 3.19363C6.10923 3.1901 6.30825 2.83457 6.26751 2.77496C6.24037 2.73527 6.16604 2.79529 6.04548 2.95408ZM14.0445 2.82142C14.0069 2.9142 13.8534 3.79954 13.8534 3.92359C13.8534 3.99461 13.8856 4.10479 13.9249 4.1684C14.053 4.37549 14.0144 4.75733 13.8394 5.01332C13.7572 5.13355 13.69 5.27141 13.69 5.31959C13.69 5.36784 13.6618 5.4073 13.6274 5.4073C13.5929 5.4073 13.5547 5.44562 13.5424 5.49249C13.5301 5.53936 13.4434 5.59651 13.3496 5.61941C13.1532 5.66753 12.8672 5.88718 12.8863 5.97524C12.9354 6.20039 13.2878 6.00005 13.6126 5.56237C13.7246 5.4113 13.8293 5.28755 13.8451 5.28737C13.8609 5.28713 13.9052 5.20642 13.9435 5.10796C14.0883 4.73557 14.2921 4.72881 14.4252 5.092C14.4629 5.19471 14.5565 5.35433 14.6333 5.44669C14.8106 5.65994 14.8328 5.70663 14.8336 5.86763C14.8339 5.93997 14.8593 6.02068 14.89 6.04698C14.9206 6.07329 14.976 6.17552 15.0131 6.27416C15.0865 6.46977 15.1172 6.5442 15.3083 6.99156C15.3785 7.15597 15.4765 7.5057 15.5259 7.76875C15.5754 8.0318 15.6489 8.34118 15.6893 8.45626C15.7297 8.57134 15.7751 8.77311 15.7902 8.90464C15.8535 9.45447 15.8564 9.46326 15.9849 9.50457C16.074 9.5332 16.1245 9.59992 16.1655 9.74346C16.1968 9.85305 16.2411 9.95958 16.2639 9.9802C16.2867 10.0008 16.3054 10.1304 16.3055 10.2682C16.3056 10.5328 16.4317 11.2362 16.6129 11.9835C16.7956 12.7369 16.7528 16.8517 16.5562 17.4343C16.4584 17.7244 16.5894 17.819 16.7462 17.5715C16.7978 17.4903 16.8815 17.4238 16.9322 17.4238C17.0721 17.4238 17.1227 17.3095 17.1227 16.9934C17.1227 16.6865 17.1402 16.6617 17.2615 16.7961C17.3708 16.9171 17.4156 16.8505 17.385 16.6121C17.3591 16.4105 17.4806 16.2987 17.5491 16.461C17.5999 16.5813 17.8928 16.7495 18.1069 16.7814C18.3783 16.8217 18.4908 16.757 18.3439 16.6449C18.2903 16.604 18.2163 16.5247 18.1793 16.4685C18.1424 16.4124 18.0686 16.3152 18.0153 16.2525C17.8222 16.0253 17.5761 15.5353 17.5376 15.3015C17.516 15.17 17.4505 14.8889 17.392 14.6767C17.2767 14.2583 17.2831 14.1043 17.4185 14.0415C17.4828 14.0117 17.5253 14.0384 17.5799 14.1431C17.6206 14.2212 17.6723 14.3177 17.6948 14.3574C17.7173 14.3971 17.7358 14.4509 17.736 14.4769C17.7377 14.7022 18.386 15.6303 18.5416 15.6303C18.5735 15.6303 18.6272 15.6706 18.661 15.72C18.729 15.8196 18.8584 15.8441 18.8186 15.7499C18.8047 15.717 18.7714 15.6897 18.7447 15.6891C18.6459 15.6871 18.0265 14.5676 18.0115 14.364C17.9798 13.9338 19.1373 14.7338 19.2599 15.2268C19.311 15.432 19.3718 15.3367 19.3452 15.0933C19.3123 14.7926 19.3736 14.7477 19.5932 14.9115C19.8174 15.0788 19.913 14.8169 19.7483 14.4868C19.4601 13.9095 19.4393 13.6449 19.6933 13.7862C19.7511 13.8184 19.8722 13.8443 19.9624 13.8437C20.2212 13.8422 20.3454 13.8957 20.3724 14.0203C20.4087 14.1877 20.4662 14.1618 20.4812 13.9713C20.4928 13.8225 20.5096 13.8069 20.6575 13.8069H20.821L20.8433 14.0903C20.8602 14.3055 20.8987 14.4239 21.0035 14.582C21.1993 14.8776 21.143 15.0604 20.8337 15.1327L20.6167 15.1834L20.5662 14.9735C20.5384 14.858 20.5154 14.7567 20.5151 14.7485C20.5114 14.6571 20.3992 14.7754 20.3568 14.9155C20.2821 15.1625 20.3275 15.4992 20.4452 15.5705C20.5689 15.6455 20.702 15.8188 20.7321 15.9442C20.7458 16.0017 20.7824 16.0488 20.8132 16.0488C20.8802 16.0488 20.9755 16.4736 20.9394 16.6112C20.9254 16.6644 20.9391 16.752 20.9697 16.8057C21.0007 16.8602 21.0343 17.1047 21.0458 17.3579C21.0648 17.7823 21.0723 17.8121 21.1581 17.8077C21.2196 17.8044 21.2501 17.8375 21.2501 17.9074C21.2501 18.1891 21.1606 18.2679 21.0017 18.1263C20.9291 18.0616 20.9072 18.0705 20.8388 18.1927C20.7352 18.3775 20.739 18.4289 20.8619 18.5108C20.9889 18.5955 20.9908 18.6813 20.8695 18.8482C20.7644 18.9925 20.4056 19.0341 20.3219 18.9116C20.2969 18.875 20.2564 18.8632 20.232 18.8853C20.1474 18.9617 20.1882 19.1023 20.3306 19.2253C20.6605 19.51 20.3675 19.7611 19.9802 19.5257C19.7524 19.3872 19.6009 19.4226 19.5651 19.6228C19.5537 19.6864 19.4938 19.757 19.432 19.7798C19.3701 19.8025 19.2929 19.8601 19.2603 19.9078C19.1913 20.0087 19.1001 20.0207 19.0634 19.9338C19.0493 19.9005 18.9773 19.8361 18.9034 19.791C18.7407 19.6915 18.6504 19.1369 18.7751 19.0035C18.8421 18.9318 18.8611 18.7661 18.8079 18.718C18.7368 18.6537 18.6464 18.8476 18.6213 19.1181C18.6065 19.2773 18.5575 19.5294 18.5125 19.6784C18.431 19.9478 18.4269 20.2222 18.4965 20.7601C18.5161 20.9118 18.5025 20.9882 18.4381 21.0889C18.3667 21.2005 18.3596 21.2558 18.3904 21.4592C18.4484 21.8416 18.553 22.9505 18.553 23.1832C18.553 23.3004 18.5729 23.5321 18.5972 23.6982L18.6415 24H18.9241C19.214 24 19.2453 23.9689 19.1587 23.7663C19.1201 23.6757 19.124 23.6342 19.1792 23.5536C19.2169 23.4985 19.2477 23.4284 19.2477 23.3979C19.2477 23.3674 19.2739 23.3424 19.306 23.3424C19.3523 23.3424 19.3596 23.4103 19.3412 23.6712L19.318 24H19.671C20.0351 24 20.1095 23.939 19.9628 23.7609C19.9291 23.7199 19.9015 23.5947 19.9015 23.4826C19.9015 23.3566 19.9249 23.2657 19.9628 23.2445C20.0827 23.1771 20.0297 23.0435 19.8831 23.0435C19.7607 23.0435 19.582 23.0023 19.217 22.8901C19.0946 22.8525 19.0946 22.6379 19.217 22.5703C19.2676 22.5423 19.3207 22.5294 19.3349 22.5416C19.3492 22.5538 19.4831 22.589 19.6325 22.62C19.8329 22.6616 19.9233 22.7108 19.977 22.8079L20.0499 22.9395L20.1985 22.7972C20.2803 22.7189 20.3572 22.5966 20.3695 22.5253C20.3817 22.4541 20.4568 22.3369 20.5363 22.265C20.6229 22.1867 20.7215 22.017 20.7823 21.8416C20.8965 21.5119 20.8827 21.5245 21.0254 21.6196C21.1826 21.7244 21.1528 21.9744 20.9742 22.0488C20.7054 22.1609 20.9804 22.8641 21.2932 22.8641C21.3671 22.8641 21.4605 22.9078 21.5007 22.961C21.6006 23.0932 21.6994 23.024 21.7005 22.8211L21.7014 22.6549L21.7794 22.8033C21.8355 22.9101 21.8453 22.9728 21.8146 23.0271C21.735 23.1673 21.8933 23.5543 21.9821 23.4368C22.0832 23.3029 22.121 23.3197 22.0925 23.486C22.0315 23.8413 22.1011 24 22.3177 24C22.5502 24 22.5525 23.9903 22.3978 23.6565C22.2171 23.2665 22.2973 22.894 22.5619 22.894C22.7912 22.894 22.8142 22.7682 22.6426 22.4513C22.4908 22.1709 22.4888 22.1467 22.6176 22.1467C22.6765 22.1467 22.7365 22.0971 22.7621 22.0271C22.8483 21.7915 23.2763 22.0374 23.2417 22.3026C23.2228 22.4468 23.3017 22.5652 23.4165 22.5652C23.4786 22.5652 23.4277 22.2112 23.3461 22.0757C23.2725 21.9535 23.3085 21.8478 23.4238 21.8478C23.5385 21.8478 23.774 22.0674 23.8031 22.2016C23.8161 22.2614 23.863 22.3583 23.9074 22.4171C23.9866 22.522 23.9881 22.519 23.9881 22.2485C23.9881 22.097 23.9665 21.9037 23.9401 21.8191C23.9035 21.7014 23.9035 21.6487 23.9401 21.5951C24.057 21.4241 23.9969 21.0576 23.8105 20.804C23.6195 20.5442 23.5598 20.3393 23.6238 20.1642C23.6855 19.9956 23.734 20.0298 23.8664 20.335L23.9881 20.6158V20.0929C23.9881 19.459 23.9519 19.3415 23.5965 18.8216L23.3335 18.4368L23.2833 18.6029C23.2556 18.6942 23.2098 18.8045 23.1815 18.8479C23.1531 18.8914 23.1299 18.9519 23.1299 18.9824C23.1299 19.0644 23.0505 19.0499 22.9864 18.9561C22.9556 18.9111 22.9402 18.8192 22.9523 18.752C22.9786 18.6048 22.8413 18.4741 22.7197 18.5305C22.6522 18.5618 22.6395 18.6225 22.6395 18.9125C22.6395 19.3188 22.6252 19.3505 22.4822 19.2615C22.304 19.1508 22.2241 19.0245 22.1237 18.6956C22.0713 18.5237 21.9904 18.3276 21.9441 18.2598L21.8598 18.1364L21.9459 17.9595C21.9933 17.8621 22.0455 17.7825 22.0619 17.7825C22.0783 17.7825 22.1552 17.6885 22.2328 17.5737C22.3104 17.4588 22.4567 17.2854 22.5579 17.1883C22.8437 16.9142 23.0471 16.4826 23.0875 16.0648C23.1507 15.4103 23.4179 14.9865 23.8348 14.8792L23.9881 14.8398V14.2486V13.6574L23.8553 13.648C23.6996 13.637 23.6821 13.6396 23.3342 13.7259C22.8067 13.8568 22.3936 14.2629 21.7122 15.3201C21.4242 15.7671 21.3672 15.8303 21.3036 15.7734C21.1805 15.6632 21.1951 15.5256 21.3695 15.1517C21.4612 14.9553 21.5361 14.7496 21.5361 14.6946C21.5361 14.6396 21.5942 14.4621 21.6652 14.3002C21.7363 14.1383 21.798 13.9176 21.8025 13.8098C21.8137 13.5385 21.8548 13.4621 21.9672 13.5034C22.094 13.5499 22.1105 13.4927 22.0562 13.1952C22.0182 12.9871 22.0213 12.9274 22.0747 12.838C22.1099 12.779 22.16 12.6339 22.186 12.5154C22.2154 12.3815 22.2734 12.2732 22.3396 12.2291C22.4374 12.1639 22.4439 12.1371 22.4209 11.8915C22.4071 11.7448 22.4105 11.6248 22.4283 11.6248C22.5524 11.6248 22.6463 11.3621 22.618 11.0941C22.5483 10.4337 22.5659 10.19 22.6836 10.19C22.8234 10.19 23.1299 9.86458 23.1299 9.71626C23.1299 9.43892 23.2259 9.31553 23.2729 9.53237C23.3019 9.6658 23.4866 9.69683 23.6218 9.59101C23.686 9.54068 23.692 9.50594 23.6562 9.39104C23.6257 9.29299 23.6258 9.18389 23.6565 9.02092C23.694 8.82273 23.6893 8.77252 23.6238 8.66789C23.507 8.48149 23.7304 7.97799 23.9299 7.97799C23.9731 7.97799 23.9881 7.89418 23.9881 7.65253V7.32707L23.794 7.4455C23.6872 7.51066 23.5447 7.60171 23.4773 7.64787C23.4098 7.69402 23.2351 7.81161 23.089 7.90918C22.9369 8.01081 22.7186 8.22908 22.5782 8.41997C22.4434 8.60339 22.3208 8.7538 22.306 8.75428C22.2364 8.75661 21.6929 9.85149 21.5593 10.2587L21.4091 10.716L21.4379 11.472C21.4625 12.1207 21.4773 12.2363 21.5422 12.2872C21.6061 12.3372 21.6542 12.5813 21.6001 12.5813C21.4728 12.5813 21.3724 12.4445 21.3708 12.2689C21.3628 11.393 21.3489 11.2137 21.2807 11.1034C21.193 10.9615 21.1878 10.7088 21.2705 10.6085C21.3042 10.5675 21.3318 10.454 21.3318 10.3561C21.3318 10.2583 21.3618 10.0799 21.3985 9.95988C21.4352 9.83983 21.5026 9.62055 21.5482 9.47258C21.5938 9.32462 21.6649 9.15543 21.7063 9.0966C21.7842 8.98558 21.809 8.66772 21.7443 8.60919C21.6419 8.51658 22.0108 7.67907 22.154 7.67907C22.209 7.67907 22.2309 7.63597 22.2309 7.52764C22.2309 7.4443 22.2768 7.24343 22.333 7.08124C22.4362 6.78346 22.4697 6.42362 22.3943 6.42362C22.3718 6.42362 22.3534 6.44873 22.3534 6.4794C22.3534 6.51006 22.3158 6.55263 22.2698 6.57397C22.1519 6.62873 22.0564 6.49458 22.0808 6.30829C22.0917 6.22448 22.0823 6.10563 22.0598 6.04417C22.0319 5.96783 22.0331 5.91187 22.0636 5.86721C22.1195 5.78537 22.1222 5.58665 22.0674 5.58665C22.0449 5.58665 22.0265 5.6539 22.0265 5.73611C22.0265 5.93507 21.9327 5.92819 21.823 5.72116C21.6502 5.3951 21.5356 5.13444 21.475 4.92903C21.3541 4.51999 21.1495 3.97913 21.0444 3.79069C20.8568 3.4544 20.6507 3.81215 20.701 4.38679C20.7327 4.7492 20.6534 4.92652 20.504 4.82692C20.4062 4.76181 20.3834 4.68625 20.3176 4.21162C20.2962 4.05684 20.2649 3.99742 20.1973 3.98331C20.0893 3.96071 20.0012 4.21431 20.0596 4.37991C20.0791 4.43533 20.1074 4.58043 20.1224 4.70239C20.1409 4.85209 20.1891 4.96502 20.2709 5.05021C20.4582 5.24534 20.4326 5.58162 20.2181 5.74394C20.1161 5.82106 20.0888 5.82327 20.0588 5.75667C19.9107 5.4278 19.8634 5.29502 19.8386 5.13827C19.8101 4.95874 19.7367 4.70239 19.5409 4.09845L19.4363 3.77604L19.3113 3.99383C19.2426 4.11364 19.1668 4.21162 19.1429 4.21162C19.119 4.21162 19.0478 4.29054 18.9846 4.38703L18.8697 4.56249L18.9565 4.72391C19.0043 4.81269 19.0433 4.96071 19.0433 5.05278C19.0433 5.36664 19.1125 5.53344 19.2346 5.51425C19.3281 5.4996 19.3509 5.52686 19.3842 5.69252C19.4612 6.07615 19.279 6.30919 19.0452 6.12619C18.9617 6.06073 18.4159 4.90583 18.3712 4.69988C18.3391 4.55167 18.1574 4.35188 18.1134 4.41626C18.0854 4.45716 18.084 4.79087 18.1104 5.13516C18.1221 5.28928 18.1072 5.31858 17.9911 5.36802C17.8221 5.44 17.8242 5.48029 18.0166 5.85017C18.2065 6.21533 18.2471 6.32976 18.2821 6.59902C18.2967 6.71195 18.3387 6.8528 18.3753 6.91199C18.4505 7.03359 18.4305 7.56465 18.345 7.7153C18.2206 7.93465 18.0736 7.81741 18.0444 7.47557C18.0172 7.15728 17.747 6.60297 17.6191 6.60297C17.5557 6.60297 17.2044 6.24486 17.2044 6.18024C17.2044 6.14969 17.1775 6.1247 17.1445 6.1247C17.1116 6.1247 17.065 6.07089 17.0409 6.00513C17.0169 5.93937 16.9735 5.88556 16.9444 5.88556C16.8793 5.88556 16.714 5.63513 16.714 5.53649C16.714 5.44281 16.5294 5.34016 16.4456 5.38721C16.3342 5.44974 16.3058 5.66975 16.3693 5.97835C16.4433 6.33783 16.4443 6.62832 16.3717 6.71638C16.3367 6.75894 16.3065 6.9698 16.2915 7.27667C16.2555 8.01123 16.2174 8.3951 16.1766 8.43193C16.1152 8.48741 16.0193 8.05978 16.0183 7.72582C16.0169 7.2808 15.9486 6.89716 15.8395 6.72254C15.7009 6.50044 15.5698 6.15722 15.5698 6.01655C15.5698 5.9484 15.5521 5.87666 15.5306 5.85717C15.509 5.83768 15.4332 5.66197 15.362 5.46672C15.2909 5.27147 15.1982 5.0957 15.156 5.0761C15.065 5.03389 15.0552 4.8534 15.1385 4.75231C15.1861 4.69456 15.2461 4.722 15.445 4.89256C15.6086 5.03281 15.6924 5.07723 15.6924 5.02378C15.6924 4.97937 15.6556 4.92891 15.6106 4.91169C15.5657 4.89453 15.5289 4.83684 15.5289 4.78357C15.5289 4.693 15.4091 4.4675 15.1564 4.08249C14.9187 3.72032 14.6703 4.25012 14.8987 4.63214C14.9391 4.69982 14.947 4.83726 14.9288 5.15525C14.8982 5.68822 14.8225 5.72786 14.7611 5.24289C14.6703 4.52549 14.6241 4.32838 14.5241 4.23255C14.4695 4.1803 14.4255 4.07956 14.4255 4.0071C14.4255 3.65372 14.1078 2.66514 14.0445 2.82142ZM8.23232 6.22717C8.24123 6.96992 8.19534 7.5228 8.10997 7.70107C8.07728 7.76935 8.05022 7.92012 8.0499 8.03616C8.04953 8.15214 8.03143 8.28737 8.00965 8.33669C7.97556 8.41381 7.96992 8.41214 7.96939 8.32456C7.96907 8.2686 7.89342 8.13415 7.80127 8.02588C7.6423 7.83893 7.63519 7.81682 7.66119 7.58958C7.67626 7.45799 7.70197 7.1067 7.71836 6.80898C7.74349 6.35158 7.76519 6.23488 7.85844 6.05601C7.91913 5.93961 7.96878 5.81418 7.96878 5.77724C7.96878 5.70944 8.18022 5.51819 8.20907 5.55986C8.21765 5.57218 8.22811 5.87247 8.23232 6.22717ZM20.0159 6.01709C20.1482 6.21061 19.9628 6.66275 19.7512 6.66275C19.4799 6.66275 19.2599 6.36192 19.496 6.31374C19.5505 6.30268 19.6318 6.24582 19.6768 6.18741C19.8511 5.96089 19.9452 5.91366 20.0159 6.01709ZM10.0799 6.3902C10.0651 6.44687 10.0529 6.58772 10.0529 6.70323C10.0529 6.81879 10.0226 6.98845 9.98549 7.08028C9.88431 7.33089 9.93507 7.47037 10.0859 7.35618C10.1947 7.27392 10.2024 7.24355 10.2062 6.88108C10.2104 6.47312 10.135 6.18012 10.0799 6.3902ZM17.4215 6.73748C17.4758 6.81149 17.5675 7.00896 17.6253 7.17629C17.7334 7.48926 17.9341 7.78908 18.1396 7.94457C18.2039 7.99324 18.2675 8.08112 18.281 8.14001C18.2944 8.19883 18.323 8.28737 18.3445 8.33669C18.366 8.38602 18.3929 8.47103 18.4043 8.52561C18.4165 8.58414 18.5165 8.66377 18.648 8.71967C18.7706 8.77186 18.8816 8.85496 18.8946 8.9044C18.9117 8.96944 18.9807 8.99431 19.1442 8.99431C19.2685 8.99431 19.3703 9.01661 19.3703 9.04387C19.3703 9.19584 18.6072 9.06647 18.1852 8.84294C17.5989 8.53254 16.9183 7.88557 16.9183 7.63872C16.9183 7.53834 17.0262 7.53517 17.0695 7.63424C17.1068 7.71943 17.2025 7.81012 17.613 8.14945C17.9142 8.39839 18.0626 8.46021 18.0626 8.33669C18.0626 8.30381 18.0166 8.27691 17.9604 8.27691C17.8855 8.27691 17.8582 8.24505 17.8582 8.15734C17.8582 8.09158 17.8328 8.03778 17.8017 8.03778C17.7233 8.03778 17.4496 7.58282 17.4496 7.45243C17.4496 7.39367 17.4128 7.24014 17.3679 7.11113C17.2944 6.90027 17.2573 6.60297 17.3044 6.60297C17.3145 6.60297 17.3672 6.66347 17.4215 6.73748ZM21.3727 6.76265C21.3727 6.81759 21.4033 6.91205 21.4407 6.97249C21.5701 7.18179 21.4049 7.43982 20.8823 7.84444C20.7811 7.92275 20.634 8.06002 20.5554 8.14951C20.2216 8.52926 20.1665 8.55233 19.6381 8.53458C19.0771 8.51575 19.0166 8.47426 19.0597 8.13845C19.1022 7.80647 19.427 7.56232 19.8286 7.5604C20.0133 7.55957 20.2476 7.35845 20.3603 7.10407C20.4507 6.90003 20.5943 6.83367 20.7166 6.93937C20.8729 7.07442 21.1006 6.99312 21.1201 6.79529C21.1366 6.62754 21.3727 6.59711 21.3727 6.76265ZM19.1368 6.80037C19.2142 7.09547 18.9356 7.39343 18.7101 7.25676C18.5618 7.16691 18.5644 7.15053 18.7638 6.91683C18.935 6.71614 19.101 6.66431 19.1368 6.80037ZM14.0196 7.59167C13.9199 7.70771 13.8001 7.89561 13.7533 8.0092C13.7064 8.12279 13.5429 8.35355 13.3899 8.52208C13.0764 8.86733 13.0388 8.953 13.1333 9.10587C13.1697 9.16476 13.1996 9.27249 13.1996 9.34518C13.1996 9.41812 13.2734 9.59018 13.3644 9.72905C13.455 9.86751 13.5763 10.054 13.6339 10.1435C13.8061 10.4111 14.4579 10.4239 14.5582 10.1615C14.5774 10.1114 14.6289 10.0704 14.6728 10.0704C14.7166 10.0704 14.7525 10.0404 14.7525 10.0036C14.7525 9.9371 14.7353 9.94009 14.4051 10.0633C14.1063 10.1749 14.102 9.85436 14.4001 9.6878C14.7263 9.50558 14.8484 9.17366 14.5893 9.17366C14.3794 9.17366 14.3725 8.78405 14.5796 8.63119L14.6912 8.54881L14.5304 8.52818C14.442 8.51682 14.3317 8.53392 14.2852 8.56614C13.8534 8.86584 13.9165 8.5158 14.3968 7.94804C14.6503 7.64834 14.659 7.54127 14.4344 7.48478C14.3733 7.46941 14.2958 7.4397 14.2621 7.41872C14.2248 7.39552 14.1299 7.46319 14.0196 7.59167ZM17.3855 8.7165C17.5076 8.93435 17.5868 9.29323 17.5128 9.29323C17.3702 9.29323 17.0818 8.82674 17.0818 8.59609C17.0818 8.36981 17.2226 8.42565 17.3855 8.7165ZM11.8496 8.69145C11.9132 8.86548 11.9022 9.21485 11.8317 9.25443C11.6245 9.37077 11.3849 8.91092 11.5244 8.66485C11.5979 8.53535 11.7985 8.5518 11.8496 8.69145ZM8.29231 9.36796C8.31148 9.44197 8.31405 9.52938 8.29803 9.56226C8.24376 9.67363 8.13849 10.1587 8.10989 10.4291C8.09424 10.5771 8.01202 10.9134 7.92718 11.1764C7.84234 11.4395 7.76241 11.7018 7.74954 11.7593C7.73544 11.8224 7.68505 11.8639 7.62269 11.8639C7.50156 11.8639 7.4873 11.7369 7.57843 11.4696C7.61096 11.3741 7.68485 11.0224 7.74263 10.6879C7.8685 9.95922 7.93915 9.69988 8.08422 9.4339C8.21299 9.19776 8.24556 9.18741 8.29231 9.36796ZM20.0445 9.90823C20.225 9.96879 20.571 10.2784 20.6425 10.4434C20.77 10.7376 20.4152 11.0839 20.131 10.9427C19.8714 10.8138 19.5077 11.1206 19.6768 11.3259C19.7825 11.4542 19.7515 11.6713 19.6125 11.7765C19.419 11.9229 19.3757 11.8281 19.3851 11.2781L19.3929 10.818L19.588 10.6824L19.7831 10.5469L19.6569 10.2897C19.4941 9.9582 19.5564 9.71477 19.7789 9.81269C19.8126 9.82752 19.9322 9.8705 20.0445 9.90823ZM18.9363 10.7539C19.0507 10.9734 19.0857 11.4001 18.9958 11.4814C18.9254 11.545 18.7252 11.1865 18.6937 10.9404C18.6391 10.515 18.7624 10.4203 18.9363 10.7539ZM18.1907 10.9462C18.4924 11.2655 18.6328 11.6821 18.4114 11.6008C18.1448 11.5029 17.8174 11.0259 17.8174 10.7356C17.8174 10.6384 17.994 10.738 18.1907 10.9462ZM8.91273 12.7342C8.80873 12.9921 8.80898 12.9815 8.90403 13.056C8.99001 13.1233 9.31616 12.9595 9.31693 12.8487C9.31922 12.5088 9.03602 12.4285 8.91273 12.7342ZM18.5895 12.9062C18.8206 13.1196 18.9297 13.3418 18.8758 13.4891C18.8501 13.5593 18.8079 13.593 18.7713 13.5724C18.7374 13.5534 18.6575 13.5379 18.5936 13.5379C18.3505 13.5379 18.1646 13.1599 18.2683 12.8763C18.3242 12.7235 18.3993 12.7305 18.5895 12.9062ZM13.5287 12.9764C13.2648 13.3012 13.2784 13.4753 13.5676 13.4772C13.7003 13.478 13.7149 13.4596 13.7643 13.2278C13.7937 13.0902 13.8487 12.9431 13.8866 12.9009C13.9467 12.8341 13.9363 12.8241 13.8055 12.8224C13.702 12.8211 13.616 12.8689 13.5287 12.9764ZM15.6209 14.0848C15.5951 14.1226 15.5225 14.1562 15.4595 14.1595L15.345 14.1656L15.3377 14.9428C15.3323 15.5289 15.3448 15.7526 15.3888 15.8524C15.4209 15.9252 15.4472 16.0212 15.4472 16.0658C15.4472 16.1452 15.6577 16.527 15.7015 16.527C15.7479 16.527 15.7613 15.6975 15.7236 15.1633C15.6897 14.6831 15.6933 14.592 15.7496 14.5009C15.8768 14.2953 15.7522 13.8927 15.6209 14.0848ZM13.8904 14.3229C13.724 14.3816 13.5346 14.4307 13.4697 14.4321C13.3102 14.4355 13.0146 14.6578 12.8303 14.9129C12.7471 15.028 12.6353 15.1802 12.5818 15.2511C12.3959 15.4975 12.2437 15.9303 12.2539 16.1837C12.2592 16.3128 12.2432 16.4541 12.2186 16.4975C12.1202 16.6709 12.1169 17.4128 12.2139 17.559C12.2626 17.6326 12.4062 17.8513 12.5329 18.045C12.7736 18.4129 12.7928 18.4167 12.8916 18.1178C12.9068 18.0717 12.9208 18.0744 12.9373 18.1263C12.9505 18.1674 12.9878 18.201 13.0203 18.201C13.0528 18.201 13.1724 18.3086 13.2862 18.4401C13.4459 18.6248 13.5286 18.6793 13.6494 18.6793C13.9425 18.6793 14.0356 18.5414 13.8023 18.453C13.6906 18.4107 13.6695 18.3748 13.6695 18.2279C13.6695 17.9583 13.8157 17.8814 14.0981 18.0026L14.3193 18.0974L14.2041 18.2319C14.1052 18.3473 14.0981 18.3739 14.1542 18.4199C14.4073 18.6272 14.8701 18.1722 14.8809 17.7056C14.884 17.567 14.8886 17.39 14.8911 17.312C14.8948 17.1944 14.9328 17.1538 15.1156 17.0728C15.3433 16.972 15.4356 16.8105 15.3623 16.6413C15.3422 16.5949 15.3256 16.458 15.3252 16.337C15.3249 16.2138 15.295 16.0739 15.2574 16.0188C15.1547 15.8687 14.9977 15.5143 14.9977 15.4329C14.9977 15.393 14.9488 15.226 14.8891 15.0619C14.6051 14.2809 14.4129 14.1387 13.8904 14.3229ZM14.5419 14.6532C14.6239 14.6853 14.6342 14.7172 14.6128 14.8736C14.5812 15.1046 14.5309 15.15 14.3056 15.1511C14.206 15.1516 14.0497 15.2043 13.9583 15.2681C13.5716 15.5383 12.8079 15.7123 12.8931 15.5107C12.907 15.4778 12.9724 15.4509 13.0385 15.4509C13.1046 15.4509 13.1949 15.398 13.239 15.3334C13.3352 15.1927 13.6621 14.947 13.833 14.8869C13.9004 14.8632 13.9832 14.8078 14.0169 14.7638C14.0709 14.6932 14.183 14.6506 14.3847 14.6237C14.4184 14.6193 14.4891 14.6325 14.5419 14.6532ZM23.9063 15.4346C23.5901 15.558 23.2934 15.9763 23.2934 16.2988C23.2934 16.3834 23.265 16.5521 23.2303 16.6736C23.155 16.9369 23.1818 17.1251 23.2887 17.0842C23.3303 17.0683 23.4419 17.1347 23.5427 17.2353C23.7553 17.4477 23.8726 17.3756 23.8604 17.0398C23.8568 16.9387 23.8848 16.7459 23.9227 16.6116C24.0142 16.2871 24.0019 15.3974 23.9063 15.4346ZM21.8222 16.313C21.8222 16.3596 21.8534 16.4773 21.8915 16.5745C21.9743 16.7856 21.887 17.0651 21.7383 17.0651C21.6255 17.0651 21.5932 16.9051 21.6782 16.7677C21.7168 16.7053 21.7357 16.624 21.7202 16.5872C21.6834 16.5 21.7302 16.2281 21.7821 16.2281C21.8042 16.2281 21.8222 16.2663 21.8222 16.313ZM17.3951 16.9256C17.3402 17.0059 17.3703 17.1712 17.4681 17.3254C17.5713 17.4884 17.9808 17.567 17.9808 17.4238C17.9808 17.3909 17.9468 17.364 17.9051 17.364C17.8634 17.364 17.7797 17.2968 17.7191 17.2146C17.6584 17.1324 17.5914 17.0651 17.5701 17.0651C17.5488 17.0651 17.5313 17.0247 17.5313 16.9754C17.5313 16.8844 17.4449 16.8528 17.3951 16.9256ZM1.6759 18.3051C1.58505 18.3573 1.38926 18.6591 1.41852 18.7019C1.4325 18.7223 1.52134 18.739 1.61599 18.739C1.81745 18.739 1.90053 18.6288 1.86318 18.411C1.83764 18.2623 1.79383 18.2375 1.6759 18.3051ZM0.858176 18.9269C0.734558 18.9917 0.615026 19.0778 0.59255 19.1182C0.507877 19.2707 0.301097 19.4413 0.153246 19.4808L0 19.5217V19.9494C0 20.2821 0.0109111 20.3612 0.0490386 20.3054C0.0760099 20.2659 0.141599 20.2336 0.194806 20.2336C0.322797 20.2336 0.287571 20.4359 0.119409 20.6662L0 20.8298V21.6975C0 22.1747 0.010952 22.5652 0.0243559 22.5652C0.0377189 22.5652 0.0975052 22.5152 0.157169 22.4542C0.216833 22.3931 0.320794 22.3169 0.388223 22.2848C0.496394 22.2333 0.511596 22.1975 0.517358 21.9802C0.525081 21.6883 0.482663 21.6241 0.265095 21.5982C0.0496516 21.5725 0.065344 21.4985 0.335138 21.2679C0.570442 21.0667 0.881143 20.5755 0.837866 20.4731C0.823931 20.44 0.723892 20.413 0.615558 20.413C0.417564 20.413 0.292638 20.3033 0.346213 20.1766C0.360679 20.1423 0.345028 20.0569 0.311436 19.9867C0.250792 19.86 0.397499 19.4564 0.504199 19.4564C0.57788 19.4564 1.1981 18.9831 1.27844 18.8655C1.35191 18.7581 1.11436 18.7927 0.858176 18.9269ZM21.5887 19.0801C21.5661 19.2918 21.338 19.5162 21.1454 19.5162C21.085 19.5162 21.0328 19.559 21.0177 19.6209C20.9631 19.845 20.9244 19.8703 20.7975 19.7656C20.6905 19.6773 20.6714 19.6761 20.6336 19.7554C20.5989 19.8282 20.5948 19.8226 20.612 19.7255C20.6237 19.6597 20.6453 19.5319 20.66 19.4415C20.6877 19.2717 20.7068 19.2576 20.8865 19.2743C20.9453 19.2798 21.0457 19.2219 21.1112 19.1447C21.2908 18.933 21.534 18.7817 21.5828 18.8511C21.5973 18.8717 21.5999 18.9747 21.5887 19.0801ZM23.4914 19.278C23.5623 19.4758 23.6203 19.6775 23.6203 19.7264C23.6203 19.8683 23.5411 19.829 23.4889 19.6612C23.4625 19.5765 23.3905 19.4692 23.329 19.4226C23.227 19.3455 23.2205 19.3207 23.2552 19.1435C23.2762 19.0366 23.2934 18.9422 23.2934 18.9338C23.2934 18.8257 23.3889 18.9918 23.4914 19.278ZM22.271 19.3826C22.2719 19.4747 22.5099 19.695 22.6089 19.6953C22.6482 19.6955 22.6804 19.7251 22.6804 19.7611C22.6804 19.8737 22.5143 20.1738 22.4519 20.1738C22.4193 20.1738 22.3716 20.2411 22.346 20.3233C22.3068 20.4493 22.2716 20.4728 22.1221 20.4728C21.9615 20.4728 21.9448 20.4865 21.9448 20.6183C21.9448 20.731 21.9204 20.768 21.8365 20.7827C21.6736 20.8111 21.6137 20.9975 21.7302 21.1133C21.8274 21.2099 21.8586 21.5089 21.779 21.5809C21.7012 21.6513 21.5422 21.5514 21.5137 21.4142C21.4984 21.3403 21.4538 21.226 21.4145 21.1603C21.3077 20.9813 21.0458 20.2996 21.0458 20.2005C21.0458 20.1443 21.0887 20.1141 21.1688 20.1141C21.2412 20.1141 21.3205 20.0649 21.3617 19.9945C21.4002 19.9287 21.4705 19.8749 21.518 19.8749C21.6427 19.8749 21.6684 19.8103 21.5926 19.6877C21.496 19.5317 21.5496 19.3968 21.7085 19.3958C21.915 19.3946 22.0265 19.3331 22.0265 19.2203C22.0265 19.1639 22.0383 19.1005 22.0526 19.0795C22.0866 19.0298 22.2701 19.2844 22.271 19.3826ZM19.9698 19.9253C19.9959 19.9866 20.1273 20.0809 20.2656 20.1377C20.4183 20.2003 20.5145 20.2721 20.5145 20.3234C20.5145 20.3694 20.5467 20.4358 20.586 20.471C20.6414 20.5206 20.623 20.5265 20.5046 20.4973C20.2869 20.4437 20.1702 20.5034 20.1186 20.695L20.0737 20.8614L20.0693 20.699C20.0667 20.6026 20.0318 20.5108 19.9832 20.4728C19.9383 20.4376 19.9015 20.3724 19.9015 20.3281C19.9015 20.2837 19.858 20.2057 19.8048 20.1547C19.7516 20.1037 19.6982 20.0065 19.686 19.9385C19.656 19.7707 19.8989 19.7594 19.9698 19.9253ZM18.0077 20.0215C17.9943 20.0724 17.9397 20.1141 17.8863 20.1141C17.8329 20.1141 17.7559 20.1679 17.7152 20.2336C17.6745 20.2994 17.6039 20.3532 17.5582 20.3532C17.3992 20.3532 16.9385 20.1576 16.9061 20.0763C16.8486 19.9324 16.7929 19.9869 16.8217 20.1589C16.8549 20.3575 16.9033 20.4109 17.0511 20.4121C17.1834 20.4132 17.1988 20.5313 17.0809 20.6391C17.0271 20.6882 16.9735 20.6957 16.9276 20.6607C16.7297 20.5092 16.4279 20.8346 16.4279 21.1995C16.4279 21.2401 16.38 21.3747 16.3214 21.4984C16.2334 21.6841 16.211 21.8126 16.193 22.234C16.174 22.6803 16.1617 22.7445 16.0953 22.7445C16.0535 22.7445 16.0193 22.7042 16.0193 22.6549C16.0193 22.6055 16.0357 22.5652 16.0558 22.5652C16.1258 22.5652 16.1474 22.3603 16.0845 22.2929C16.0336 22.2385 16.0307 22.1886 16.068 22.0108C16.0982 21.8667 16.1011 21.6893 16.0765 21.4776L16.0397 21.1603L15.8445 21.142C15.7046 21.1289 15.6353 21.0908 15.5997 21.0075C15.526 20.8349 15.488 20.8658 15.488 21.0984C15.488 21.3496 15.3631 21.4906 15.2755 21.3381C15.1418 21.1055 15.1085 21.0706 15.0202 21.0706C14.9088 21.0706 14.8616 21.1465 14.7972 21.4293C14.7375 21.6913 14.5711 21.9952 14.5149 21.9444C14.3995 21.84 14.4153 21.3097 14.5339 21.3097C14.5679 21.3097 14.5876 21.2761 14.5777 21.235C14.5677 21.1939 14.5158 21.1678 14.4623 21.1771C14.4064 21.1867 14.343 21.1498 14.3134 21.0906C14.2162 20.8962 13.8911 20.7573 13.8038 20.8729C13.7029 21.0066 13.3635 20.8659 13.3023 20.6649C13.248 20.4871 13.2063 20.497 13.2304 20.682C13.2412 20.7642 13.2754 20.8315 13.3065 20.8315C13.3376 20.8315 13.363 20.8835 13.363 20.9471C13.363 21.1347 13.2877 21.3695 13.2276 21.3695C13.1969 21.3695 13.1507 21.4373 13.1249 21.5202C13.0991 21.6031 12.9858 21.8468 12.8731 22.0618C12.7605 22.2769 12.6682 22.4982 12.6679 22.5538C12.6677 22.6094 12.6223 22.7894 12.5671 22.9538C12.5118 23.1182 12.466 23.2877 12.4653 23.3304C12.4646 23.3731 12.4387 23.4807 12.4079 23.5696C12.377 23.6583 12.339 23.7915 12.3234 23.8655L12.295 24H12.9692C13.6299 24 13.6437 23.9974 13.6564 23.8702C13.6757 23.6788 13.7717 23.6583 13.7717 23.8456V24H14.8342H15.8967V23.8143C15.8967 23.6875 15.8643 23.5914 15.7947 23.5111C15.6853 23.3854 15.7113 23.163 15.8353 23.163C15.9571 23.163 16.2307 23.6582 16.2069 23.8356L16.1848 24H17.2463H18.3078V23.7943C18.3078 23.6811 18.2894 23.5719 18.2669 23.5516C18.2444 23.5313 18.2247 23.3616 18.223 23.1744C18.2214 22.9873 18.2067 22.6974 18.1904 22.5303C18.174 22.3631 18.1742 22.1526 18.1906 22.0625C18.2749 21.6016 18.204 19.9768 18.0984 19.9473C18.0619 19.9372 18.021 19.9705 18.0077 20.0215ZM19.3046 20.2086C19.3895 20.5324 19.282 20.6874 19.0815 20.5305C18.9847 20.4547 18.9814 20.3668 19.0701 20.2234C19.1533 20.089 19.2712 20.0815 19.3046 20.2086ZM12.7896 21.1154C12.7889 21.2388 12.7613 21.3919 12.7283 21.4557C12.6548 21.5979 12.6499 21.788 12.7198 21.788C12.7481 21.788 12.7942 21.7342 12.8223 21.6684C12.8504 21.6027 12.8979 21.5489 12.9279 21.5489C13.087 21.5489 13.1305 21.3262 13.0149 21.1042C12.8682 20.823 12.7913 20.8268 12.7896 21.1154ZM20.4732 21.3389C20.5442 21.464 20.4977 21.664 20.3418 21.9049C20.2682 22.0185 20.1896 22.1634 20.1671 22.227C20.1447 22.2905 20.1079 22.3399 20.0854 22.3366C20.0173 22.3269 20.0159 22.1115 20.0834 22.0295C20.1241 21.9802 20.1467 21.8526 20.1467 21.6731C20.1467 21.2827 20.3331 21.0919 20.4732 21.3389ZM8.33657 21.5174C8.15631 21.6209 8.00184 21.6281 7.86845 21.5392C7.77937 21.4798 7.73037 21.4943 7.52939 21.6397C7.38473 21.7444 7.20525 21.8197 7.0621 21.8357C6.91588 21.852 6.82164 21.8921 6.80808 21.9439C6.78482 22.0325 6.97583 22.3261 7.05678 22.3261C7.08384 22.3261 7.13459 22.3858 7.16957 22.459C7.22188 22.5681 7.2332 22.5734 7.2332 22.4888C7.2332 22.1207 7.78758 21.9869 7.90748 22.3261C8.00879 22.6126 8.37744 22.5389 8.37744 22.2321C8.37744 22.1377 8.5223 22.1141 8.55961 22.2024C8.57253 22.233 8.54408 22.2981 8.49635 22.347C8.40988 22.4356 8.41005 22.4363 8.53362 22.5298C8.60187 22.5815 8.67081 22.6841 8.68683 22.758C8.75091 23.0534 8.9556 23.3424 9.10071 23.3424C9.19577 23.3424 9.24513 23.3747 9.26078 23.447C9.35641 23.8895 9.4119 24 9.5381 23.9998C9.67729 23.9996 9.73164 23.8964 9.97041 23.178C10.1092 22.7603 10.1755 22.705 10.1755 23.0066C10.1755 23.1586 10.1552 23.2167 10.0938 23.2402C10.0294 23.2648 10.0121 23.3217 10.0121 23.5088C10.0121 23.6469 9.98643 23.7774 9.95076 23.8206C9.81925 23.9803 9.92272 24 10.8934 24C11.9326 24 12.0553 23.9743 12.0553 23.7567C12.0553 23.6265 12.1585 23.3542 12.2502 23.2422C12.2819 23.2036 12.3228 23.0826 12.3411 22.9732C12.3595 22.8639 12.4156 22.6368 12.4659 22.4686C12.6248 21.9368 12.4858 21.6809 12.181 21.9443C12.0783 22.0331 12.0592 22.0331 11.9418 21.9443C11.8716 21.8912 11.7627 21.847 11.6998 21.8459C11.6369 21.8449 11.5497 21.8045 11.5061 21.7562C11.3775 21.6139 11.2476 21.6472 11.1795 21.84C11.1001 22.0644 10.94 22.0346 10.8685 21.782C10.7997 21.5387 10.7476 21.5664 10.7476 21.8464C10.7476 22.0406 10.727 22.1034 10.6353 22.1888C10.5735 22.2463 10.5137 22.3102 10.5024 22.3307C10.4772 22.3766 10.3125 22.5054 10.2789 22.5054C10.2654 22.5054 10.2734 22.4534 10.2967 22.3898C10.3602 22.216 10.3502 22.161 10.2161 21.9508C10.1486 21.8448 10.068 21.7057 10.0371 21.6417C9.98504 21.5338 9.96191 21.5303 9.72677 21.5942C9.51668 21.6514 9.45723 21.6486 9.3835 21.5779C9.25343 21.4533 8.52189 21.411 8.33657 21.5174ZM6.33416 22.2847C6.33416 22.5152 6.24135 22.6525 6.13947 22.5727C6.02603 22.4839 5.84357 22.5834 5.8137 22.7503C5.79514 22.8543 5.77005 22.8684 5.6582 22.8377C5.50822 22.7966 5.39425 22.913 5.39425 23.1075C5.39425 23.2722 5.52478 23.2534 5.6318 23.0734C5.73862 22.8936 5.88611 22.8807 5.98607 23.0423C6.02636 23.1074 6.12051 23.1775 6.19534 23.198C6.27813 23.2207 6.34098 23.2797 6.35594 23.3487C6.37335 23.4289 6.41846 23.4617 6.51057 23.461C6.74563 23.4594 6.84408 23.2347 6.67906 23.0765C6.55148 22.9542 6.55234 22.8004 6.68152 22.6362C6.81016 22.4725 6.80942 22.4242 6.676 22.2706C6.52328 22.0949 6.33416 22.1027 6.33416 22.2847ZM20.6044 22.8035C20.5302 22.8292 20.4599 22.8643 20.4481 22.8815C20.4107 22.9363 20.5551 23.2826 20.6153 23.2826C20.7867 23.2826 20.6871 23.6316 20.4797 23.7572C20.2448 23.8996 20.2851 24 20.5771 24C20.7679 24 20.8414 23.9782 20.8414 23.9216C20.8414 23.7563 21.081 23.5647 21.154 23.6715C21.2803 23.8563 21.4748 23.7655 21.4748 23.5217C21.4748 23.3296 21.4648 23.3123 21.3522 23.3104C21.2592 23.3088 21.2164 23.2682 21.1749 23.1416C21.1323 23.012 20.7963 22.7056 20.7461 22.7506C20.7423 22.754 20.6786 22.7778 20.6044 22.8035ZM17.8521 23.2826C17.8797 23.3983 17.9228 23.4619 17.9737 23.4619C18.1107 23.4619 18.1599 23.6107 18.081 23.7868C17.9993 23.9693 17.9178 23.9834 17.8598 23.8248C17.8365 23.7613 17.778 23.7008 17.7297 23.6903C17.6128 23.6649 17.5541 23.5156 17.5866 23.3261C17.6094 23.1933 17.6546 23.1435 17.7827 23.1102C17.7974 23.1064 17.8286 23.184 17.8521 23.2826Z" fill="black"/>
</svg>
